G04 #@! TF.GenerationSoftware,KiCad,Pcbnew,(5.0.0)*
G04 #@! TF.CreationDate,2018-12-13T19:33:25+01:00*
G04 #@! TF.ProjectId,TrackModBusMaster_piggyback,547261636B4D6F644275734D61737465,rev?*
G04 #@! TF.SameCoordinates,Original*
G04 #@! TF.FileFunction,Soldermask,Bot*
G04 #@! TF.FilePolarity,Negative*
%FSLAX46Y46*%
G04 Gerber Fmt 4.6, Leading zero omitted, Abs format (unit mm)*
G04 Created by KiCad (PCBNEW (5.0.0)) date 12/13/18 19:33:25*
%MOMM*%
%LPD*%
G01*
G04 APERTURE LIST*
%ADD10R,1.620000X2.200000*%
%ADD11O,2.100000X2.100000*%
%ADD12R,2.100000X2.100000*%
%ADD13R,2.127200X2.127200*%
%ADD14O,2.127200X2.127200*%
%ADD15C,0.100000*%
%ADD16C,1.650000*%
%ADD17R,2.000000X2.000000*%
%ADD18C,2.000000*%
%ADD19R,2.200000X1.620000*%
%ADD20R,1.400000X1.220000*%
G04 APERTURE END LIST*
D10*
G04 #@! TO.C,R9*
X140114000Y-82042000D03*
X137254000Y-82042000D03*
G04 #@! TD*
D11*
G04 #@! TO.C,J1*
X116840000Y-48260000D03*
X116840000Y-45720000D03*
X119380000Y-48260000D03*
X119380000Y-45720000D03*
X121920000Y-48260000D03*
X121920000Y-45720000D03*
X124460000Y-48260000D03*
X124460000Y-45720000D03*
X127000000Y-48260000D03*
X127000000Y-45720000D03*
X129540000Y-48260000D03*
X129540000Y-45720000D03*
X132080000Y-48260000D03*
X132080000Y-45720000D03*
X134620000Y-48260000D03*
D12*
X134620000Y-45720000D03*
G04 #@! TD*
D13*
G04 #@! TO.C,J2*
X138684000Y-88646000D03*
D14*
X141224000Y-88646000D03*
X138684000Y-91186000D03*
X141224000Y-91186000D03*
X138684000Y-93726000D03*
X141224000Y-93726000D03*
X138684000Y-96266000D03*
X141224000Y-96266000D03*
X138684000Y-98806000D03*
X141224000Y-98806000D03*
G04 #@! TD*
D12*
G04 #@! TO.C,J3*
X134620000Y-114300000D03*
D11*
X134620000Y-116840000D03*
X132080000Y-114300000D03*
X132080000Y-116840000D03*
X129540000Y-114300000D03*
X129540000Y-116840000D03*
X127000000Y-114300000D03*
X127000000Y-116840000D03*
X124460000Y-114300000D03*
X124460000Y-116840000D03*
X121920000Y-114300000D03*
X121920000Y-116840000D03*
X119380000Y-114300000D03*
X119380000Y-116840000D03*
X116840000Y-114300000D03*
X116840000Y-116840000D03*
G04 #@! TD*
D12*
G04 #@! TO.C,J4*
X128143000Y-89281000D03*
D11*
X125603000Y-89281000D03*
X123063000Y-89281000D03*
X120523000Y-89281000D03*
X117983000Y-89281000D03*
X115443000Y-89281000D03*
X112903000Y-89281000D03*
X110363000Y-89281000D03*
G04 #@! TD*
G04 #@! TO.C,J5*
X106680000Y-85725000D03*
X106680000Y-88265000D03*
X106680000Y-90805000D03*
X106680000Y-93345000D03*
X106680000Y-95885000D03*
X106680000Y-98425000D03*
X106680000Y-100965000D03*
D12*
X106680000Y-103505000D03*
G04 #@! TD*
D15*
G04 #@! TO.C,R7*
G36*
X133111346Y-87698589D02*
X133143380Y-87703341D01*
X133174794Y-87711210D01*
X133205286Y-87722120D01*
X133234561Y-87735966D01*
X133262338Y-87752615D01*
X133288350Y-87771907D01*
X133312345Y-87793655D01*
X133334093Y-87817650D01*
X133353385Y-87843662D01*
X133370034Y-87871439D01*
X133383880Y-87900714D01*
X133394790Y-87931206D01*
X133402659Y-87962620D01*
X133407411Y-87994654D01*
X133409000Y-88027000D01*
X133409000Y-89017000D01*
X133407411Y-89049346D01*
X133402659Y-89081380D01*
X133394790Y-89112794D01*
X133383880Y-89143286D01*
X133370034Y-89172561D01*
X133353385Y-89200338D01*
X133334093Y-89226350D01*
X133312345Y-89250345D01*
X133288350Y-89272093D01*
X133262338Y-89291385D01*
X133234561Y-89308034D01*
X133205286Y-89321880D01*
X133174794Y-89332790D01*
X133143380Y-89340659D01*
X133111346Y-89345411D01*
X133079000Y-89347000D01*
X131589000Y-89347000D01*
X131556654Y-89345411D01*
X131524620Y-89340659D01*
X131493206Y-89332790D01*
X131462714Y-89321880D01*
X131433439Y-89308034D01*
X131405662Y-89291385D01*
X131379650Y-89272093D01*
X131355655Y-89250345D01*
X131333907Y-89226350D01*
X131314615Y-89200338D01*
X131297966Y-89172561D01*
X131284120Y-89143286D01*
X131273210Y-89112794D01*
X131265341Y-89081380D01*
X131260589Y-89049346D01*
X131259000Y-89017000D01*
X131259000Y-88027000D01*
X131260589Y-87994654D01*
X131265341Y-87962620D01*
X131273210Y-87931206D01*
X131284120Y-87900714D01*
X131297966Y-87871439D01*
X131314615Y-87843662D01*
X131333907Y-87817650D01*
X131355655Y-87793655D01*
X131379650Y-87771907D01*
X131405662Y-87752615D01*
X131433439Y-87735966D01*
X131462714Y-87722120D01*
X131493206Y-87711210D01*
X131524620Y-87703341D01*
X131556654Y-87698589D01*
X131589000Y-87697000D01*
X133079000Y-87697000D01*
X133111346Y-87698589D01*
X133111346Y-87698589D01*
G37*
D16*
X132334000Y-88522000D03*
D15*
G36*
X133111346Y-84898589D02*
X133143380Y-84903341D01*
X133174794Y-84911210D01*
X133205286Y-84922120D01*
X133234561Y-84935966D01*
X133262338Y-84952615D01*
X133288350Y-84971907D01*
X133312345Y-84993655D01*
X133334093Y-85017650D01*
X133353385Y-85043662D01*
X133370034Y-85071439D01*
X133383880Y-85100714D01*
X133394790Y-85131206D01*
X133402659Y-85162620D01*
X133407411Y-85194654D01*
X133409000Y-85227000D01*
X133409000Y-86217000D01*
X133407411Y-86249346D01*
X133402659Y-86281380D01*
X133394790Y-86312794D01*
X133383880Y-86343286D01*
X133370034Y-86372561D01*
X133353385Y-86400338D01*
X133334093Y-86426350D01*
X133312345Y-86450345D01*
X133288350Y-86472093D01*
X133262338Y-86491385D01*
X133234561Y-86508034D01*
X133205286Y-86521880D01*
X133174794Y-86532790D01*
X133143380Y-86540659D01*
X133111346Y-86545411D01*
X133079000Y-86547000D01*
X131589000Y-86547000D01*
X131556654Y-86545411D01*
X131524620Y-86540659D01*
X131493206Y-86532790D01*
X131462714Y-86521880D01*
X131433439Y-86508034D01*
X131405662Y-86491385D01*
X131379650Y-86472093D01*
X131355655Y-86450345D01*
X131333907Y-86426350D01*
X131314615Y-86400338D01*
X131297966Y-86372561D01*
X131284120Y-86343286D01*
X131273210Y-86312794D01*
X131265341Y-86281380D01*
X131260589Y-86249346D01*
X131259000Y-86217000D01*
X131259000Y-85227000D01*
X131260589Y-85194654D01*
X131265341Y-85162620D01*
X131273210Y-85131206D01*
X131284120Y-85100714D01*
X131297966Y-85071439D01*
X131314615Y-85043662D01*
X131333907Y-85017650D01*
X131355655Y-84993655D01*
X131379650Y-84971907D01*
X131405662Y-84952615D01*
X131433439Y-84935966D01*
X131462714Y-84922120D01*
X131493206Y-84911210D01*
X131524620Y-84903341D01*
X131556654Y-84898589D01*
X131589000Y-84897000D01*
X133079000Y-84897000D01*
X133111346Y-84898589D01*
X133111346Y-84898589D01*
G37*
D16*
X132334000Y-85722000D03*
G04 #@! TD*
D15*
G04 #@! TO.C,R8*
G36*
X135651346Y-81088589D02*
X135683380Y-81093341D01*
X135714794Y-81101210D01*
X135745286Y-81112120D01*
X135774561Y-81125966D01*
X135802338Y-81142615D01*
X135828350Y-81161907D01*
X135852345Y-81183655D01*
X135874093Y-81207650D01*
X135893385Y-81233662D01*
X135910034Y-81261439D01*
X135923880Y-81290714D01*
X135934790Y-81321206D01*
X135942659Y-81352620D01*
X135947411Y-81384654D01*
X135949000Y-81417000D01*
X135949000Y-82407000D01*
X135947411Y-82439346D01*
X135942659Y-82471380D01*
X135934790Y-82502794D01*
X135923880Y-82533286D01*
X135910034Y-82562561D01*
X135893385Y-82590338D01*
X135874093Y-82616350D01*
X135852345Y-82640345D01*
X135828350Y-82662093D01*
X135802338Y-82681385D01*
X135774561Y-82698034D01*
X135745286Y-82711880D01*
X135714794Y-82722790D01*
X135683380Y-82730659D01*
X135651346Y-82735411D01*
X135619000Y-82737000D01*
X134129000Y-82737000D01*
X134096654Y-82735411D01*
X134064620Y-82730659D01*
X134033206Y-82722790D01*
X134002714Y-82711880D01*
X133973439Y-82698034D01*
X133945662Y-82681385D01*
X133919650Y-82662093D01*
X133895655Y-82640345D01*
X133873907Y-82616350D01*
X133854615Y-82590338D01*
X133837966Y-82562561D01*
X133824120Y-82533286D01*
X133813210Y-82502794D01*
X133805341Y-82471380D01*
X133800589Y-82439346D01*
X133799000Y-82407000D01*
X133799000Y-81417000D01*
X133800589Y-81384654D01*
X133805341Y-81352620D01*
X133813210Y-81321206D01*
X133824120Y-81290714D01*
X133837966Y-81261439D01*
X133854615Y-81233662D01*
X133873907Y-81207650D01*
X133895655Y-81183655D01*
X133919650Y-81161907D01*
X133945662Y-81142615D01*
X133973439Y-81125966D01*
X134002714Y-81112120D01*
X134033206Y-81101210D01*
X134064620Y-81093341D01*
X134096654Y-81088589D01*
X134129000Y-81087000D01*
X135619000Y-81087000D01*
X135651346Y-81088589D01*
X135651346Y-81088589D01*
G37*
D16*
X134874000Y-81912000D03*
D15*
G36*
X135651346Y-83888589D02*
X135683380Y-83893341D01*
X135714794Y-83901210D01*
X135745286Y-83912120D01*
X135774561Y-83925966D01*
X135802338Y-83942615D01*
X135828350Y-83961907D01*
X135852345Y-83983655D01*
X135874093Y-84007650D01*
X135893385Y-84033662D01*
X135910034Y-84061439D01*
X135923880Y-84090714D01*
X135934790Y-84121206D01*
X135942659Y-84152620D01*
X135947411Y-84184654D01*
X135949000Y-84217000D01*
X135949000Y-85207000D01*
X135947411Y-85239346D01*
X135942659Y-85271380D01*
X135934790Y-85302794D01*
X135923880Y-85333286D01*
X135910034Y-85362561D01*
X135893385Y-85390338D01*
X135874093Y-85416350D01*
X135852345Y-85440345D01*
X135828350Y-85462093D01*
X135802338Y-85481385D01*
X135774561Y-85498034D01*
X135745286Y-85511880D01*
X135714794Y-85522790D01*
X135683380Y-85530659D01*
X135651346Y-85535411D01*
X135619000Y-85537000D01*
X134129000Y-85537000D01*
X134096654Y-85535411D01*
X134064620Y-85530659D01*
X134033206Y-85522790D01*
X134002714Y-85511880D01*
X133973439Y-85498034D01*
X133945662Y-85481385D01*
X133919650Y-85462093D01*
X133895655Y-85440345D01*
X133873907Y-85416350D01*
X133854615Y-85390338D01*
X133837966Y-85362561D01*
X133824120Y-85333286D01*
X133813210Y-85302794D01*
X133805341Y-85271380D01*
X133800589Y-85239346D01*
X133799000Y-85207000D01*
X133799000Y-84217000D01*
X133800589Y-84184654D01*
X133805341Y-84152620D01*
X133813210Y-84121206D01*
X133824120Y-84090714D01*
X133837966Y-84061439D01*
X133854615Y-84033662D01*
X133873907Y-84007650D01*
X133895655Y-83983655D01*
X133919650Y-83961907D01*
X133945662Y-83942615D01*
X133973439Y-83925966D01*
X134002714Y-83912120D01*
X134033206Y-83901210D01*
X134064620Y-83893341D01*
X134096654Y-83888589D01*
X134129000Y-83887000D01*
X135619000Y-83887000D01*
X135651346Y-83888589D01*
X135651346Y-83888589D01*
G37*
D16*
X134874000Y-84712000D03*
G04 #@! TD*
D17*
G04 #@! TO.C,C19*
X108966000Y-46736000D03*
D18*
X111466000Y-46736000D03*
G04 #@! TD*
D19*
G04 #@! TO.C,C20*
X134874000Y-80043000D03*
X134874000Y-77183000D03*
G04 #@! TD*
D10*
G04 #@! TO.C,R27*
X140114000Y-84582000D03*
X137254000Y-84582000D03*
G04 #@! TD*
D20*
G04 #@! TO.C,R28*
X111252000Y-104953000D03*
X111252000Y-106553000D03*
G04 #@! TD*
M02*
