G04 #@! TF.GenerationSoftware,KiCad,Pcbnew,(5.0.0)*
G04 #@! TF.CreationDate,2018-12-13T19:33:25+01:00*
G04 #@! TF.ProjectId,TrackModBusMaster_piggyback,547261636B4D6F644275734D61737465,rev?*
G04 #@! TF.SameCoordinates,Original*
G04 #@! TF.FileFunction,Paste,Bot*
G04 #@! TF.FilePolarity,Positive*
%FSLAX46Y46*%
G04 Gerber Fmt 4.6, Leading zero omitted, Abs format (unit mm)*
G04 Created by KiCad (PCBNEW (5.0.0)) date 12/13/18 19:33:25*
%MOMM*%
%LPD*%
G01*
G04 APERTURE LIST*
%ADD10R,1.220000X1.800000*%
%ADD11C,0.100000*%
%ADD12C,1.250000*%
%ADD13R,1.800000X1.220000*%
%ADD14R,1.000000X0.820000*%
G04 APERTURE END LIST*
D10*
G04 #@! TO.C,R9*
X140114000Y-82042000D03*
X137254000Y-82042000D03*
G04 #@! TD*
D11*
G04 #@! TO.C,R7*
G36*
X132983504Y-87898204D02*
X133007773Y-87901804D01*
X133031571Y-87907765D01*
X133054671Y-87916030D01*
X133076849Y-87926520D01*
X133097893Y-87939133D01*
X133117598Y-87953747D01*
X133135777Y-87970223D01*
X133152253Y-87988402D01*
X133166867Y-88008107D01*
X133179480Y-88029151D01*
X133189970Y-88051329D01*
X133198235Y-88074429D01*
X133204196Y-88098227D01*
X133207796Y-88122496D01*
X133209000Y-88147000D01*
X133209000Y-88897000D01*
X133207796Y-88921504D01*
X133204196Y-88945773D01*
X133198235Y-88969571D01*
X133189970Y-88992671D01*
X133179480Y-89014849D01*
X133166867Y-89035893D01*
X133152253Y-89055598D01*
X133135777Y-89073777D01*
X133117598Y-89090253D01*
X133097893Y-89104867D01*
X133076849Y-89117480D01*
X133054671Y-89127970D01*
X133031571Y-89136235D01*
X133007773Y-89142196D01*
X132983504Y-89145796D01*
X132959000Y-89147000D01*
X131709000Y-89147000D01*
X131684496Y-89145796D01*
X131660227Y-89142196D01*
X131636429Y-89136235D01*
X131613329Y-89127970D01*
X131591151Y-89117480D01*
X131570107Y-89104867D01*
X131550402Y-89090253D01*
X131532223Y-89073777D01*
X131515747Y-89055598D01*
X131501133Y-89035893D01*
X131488520Y-89014849D01*
X131478030Y-88992671D01*
X131469765Y-88969571D01*
X131463804Y-88945773D01*
X131460204Y-88921504D01*
X131459000Y-88897000D01*
X131459000Y-88147000D01*
X131460204Y-88122496D01*
X131463804Y-88098227D01*
X131469765Y-88074429D01*
X131478030Y-88051329D01*
X131488520Y-88029151D01*
X131501133Y-88008107D01*
X131515747Y-87988402D01*
X131532223Y-87970223D01*
X131550402Y-87953747D01*
X131570107Y-87939133D01*
X131591151Y-87926520D01*
X131613329Y-87916030D01*
X131636429Y-87907765D01*
X131660227Y-87901804D01*
X131684496Y-87898204D01*
X131709000Y-87897000D01*
X132959000Y-87897000D01*
X132983504Y-87898204D01*
X132983504Y-87898204D01*
G37*
D12*
X132334000Y-88522000D03*
D11*
G36*
X132983504Y-85098204D02*
X133007773Y-85101804D01*
X133031571Y-85107765D01*
X133054671Y-85116030D01*
X133076849Y-85126520D01*
X133097893Y-85139133D01*
X133117598Y-85153747D01*
X133135777Y-85170223D01*
X133152253Y-85188402D01*
X133166867Y-85208107D01*
X133179480Y-85229151D01*
X133189970Y-85251329D01*
X133198235Y-85274429D01*
X133204196Y-85298227D01*
X133207796Y-85322496D01*
X133209000Y-85347000D01*
X133209000Y-86097000D01*
X133207796Y-86121504D01*
X133204196Y-86145773D01*
X133198235Y-86169571D01*
X133189970Y-86192671D01*
X133179480Y-86214849D01*
X133166867Y-86235893D01*
X133152253Y-86255598D01*
X133135777Y-86273777D01*
X133117598Y-86290253D01*
X133097893Y-86304867D01*
X133076849Y-86317480D01*
X133054671Y-86327970D01*
X133031571Y-86336235D01*
X133007773Y-86342196D01*
X132983504Y-86345796D01*
X132959000Y-86347000D01*
X131709000Y-86347000D01*
X131684496Y-86345796D01*
X131660227Y-86342196D01*
X131636429Y-86336235D01*
X131613329Y-86327970D01*
X131591151Y-86317480D01*
X131570107Y-86304867D01*
X131550402Y-86290253D01*
X131532223Y-86273777D01*
X131515747Y-86255598D01*
X131501133Y-86235893D01*
X131488520Y-86214849D01*
X131478030Y-86192671D01*
X131469765Y-86169571D01*
X131463804Y-86145773D01*
X131460204Y-86121504D01*
X131459000Y-86097000D01*
X131459000Y-85347000D01*
X131460204Y-85322496D01*
X131463804Y-85298227D01*
X131469765Y-85274429D01*
X131478030Y-85251329D01*
X131488520Y-85229151D01*
X131501133Y-85208107D01*
X131515747Y-85188402D01*
X131532223Y-85170223D01*
X131550402Y-85153747D01*
X131570107Y-85139133D01*
X131591151Y-85126520D01*
X131613329Y-85116030D01*
X131636429Y-85107765D01*
X131660227Y-85101804D01*
X131684496Y-85098204D01*
X131709000Y-85097000D01*
X132959000Y-85097000D01*
X132983504Y-85098204D01*
X132983504Y-85098204D01*
G37*
D12*
X132334000Y-85722000D03*
G04 #@! TD*
D11*
G04 #@! TO.C,R8*
G36*
X135523504Y-81288204D02*
X135547773Y-81291804D01*
X135571571Y-81297765D01*
X135594671Y-81306030D01*
X135616849Y-81316520D01*
X135637893Y-81329133D01*
X135657598Y-81343747D01*
X135675777Y-81360223D01*
X135692253Y-81378402D01*
X135706867Y-81398107D01*
X135719480Y-81419151D01*
X135729970Y-81441329D01*
X135738235Y-81464429D01*
X135744196Y-81488227D01*
X135747796Y-81512496D01*
X135749000Y-81537000D01*
X135749000Y-82287000D01*
X135747796Y-82311504D01*
X135744196Y-82335773D01*
X135738235Y-82359571D01*
X135729970Y-82382671D01*
X135719480Y-82404849D01*
X135706867Y-82425893D01*
X135692253Y-82445598D01*
X135675777Y-82463777D01*
X135657598Y-82480253D01*
X135637893Y-82494867D01*
X135616849Y-82507480D01*
X135594671Y-82517970D01*
X135571571Y-82526235D01*
X135547773Y-82532196D01*
X135523504Y-82535796D01*
X135499000Y-82537000D01*
X134249000Y-82537000D01*
X134224496Y-82535796D01*
X134200227Y-82532196D01*
X134176429Y-82526235D01*
X134153329Y-82517970D01*
X134131151Y-82507480D01*
X134110107Y-82494867D01*
X134090402Y-82480253D01*
X134072223Y-82463777D01*
X134055747Y-82445598D01*
X134041133Y-82425893D01*
X134028520Y-82404849D01*
X134018030Y-82382671D01*
X134009765Y-82359571D01*
X134003804Y-82335773D01*
X134000204Y-82311504D01*
X133999000Y-82287000D01*
X133999000Y-81537000D01*
X134000204Y-81512496D01*
X134003804Y-81488227D01*
X134009765Y-81464429D01*
X134018030Y-81441329D01*
X134028520Y-81419151D01*
X134041133Y-81398107D01*
X134055747Y-81378402D01*
X134072223Y-81360223D01*
X134090402Y-81343747D01*
X134110107Y-81329133D01*
X134131151Y-81316520D01*
X134153329Y-81306030D01*
X134176429Y-81297765D01*
X134200227Y-81291804D01*
X134224496Y-81288204D01*
X134249000Y-81287000D01*
X135499000Y-81287000D01*
X135523504Y-81288204D01*
X135523504Y-81288204D01*
G37*
D12*
X134874000Y-81912000D03*
D11*
G36*
X135523504Y-84088204D02*
X135547773Y-84091804D01*
X135571571Y-84097765D01*
X135594671Y-84106030D01*
X135616849Y-84116520D01*
X135637893Y-84129133D01*
X135657598Y-84143747D01*
X135675777Y-84160223D01*
X135692253Y-84178402D01*
X135706867Y-84198107D01*
X135719480Y-84219151D01*
X135729970Y-84241329D01*
X135738235Y-84264429D01*
X135744196Y-84288227D01*
X135747796Y-84312496D01*
X135749000Y-84337000D01*
X135749000Y-85087000D01*
X135747796Y-85111504D01*
X135744196Y-85135773D01*
X135738235Y-85159571D01*
X135729970Y-85182671D01*
X135719480Y-85204849D01*
X135706867Y-85225893D01*
X135692253Y-85245598D01*
X135675777Y-85263777D01*
X135657598Y-85280253D01*
X135637893Y-85294867D01*
X135616849Y-85307480D01*
X135594671Y-85317970D01*
X135571571Y-85326235D01*
X135547773Y-85332196D01*
X135523504Y-85335796D01*
X135499000Y-85337000D01*
X134249000Y-85337000D01*
X134224496Y-85335796D01*
X134200227Y-85332196D01*
X134176429Y-85326235D01*
X134153329Y-85317970D01*
X134131151Y-85307480D01*
X134110107Y-85294867D01*
X134090402Y-85280253D01*
X134072223Y-85263777D01*
X134055747Y-85245598D01*
X134041133Y-85225893D01*
X134028520Y-85204849D01*
X134018030Y-85182671D01*
X134009765Y-85159571D01*
X134003804Y-85135773D01*
X134000204Y-85111504D01*
X133999000Y-85087000D01*
X133999000Y-84337000D01*
X134000204Y-84312496D01*
X134003804Y-84288227D01*
X134009765Y-84264429D01*
X134018030Y-84241329D01*
X134028520Y-84219151D01*
X134041133Y-84198107D01*
X134055747Y-84178402D01*
X134072223Y-84160223D01*
X134090402Y-84143747D01*
X134110107Y-84129133D01*
X134131151Y-84116520D01*
X134153329Y-84106030D01*
X134176429Y-84097765D01*
X134200227Y-84091804D01*
X134224496Y-84088204D01*
X134249000Y-84087000D01*
X135499000Y-84087000D01*
X135523504Y-84088204D01*
X135523504Y-84088204D01*
G37*
D12*
X134874000Y-84712000D03*
G04 #@! TD*
D13*
G04 #@! TO.C,C20*
X134874000Y-80043000D03*
X134874000Y-77183000D03*
G04 #@! TD*
D10*
G04 #@! TO.C,R27*
X140114000Y-84582000D03*
X137254000Y-84582000D03*
G04 #@! TD*
D14*
G04 #@! TO.C,R28*
X111252000Y-104953000D03*
X111252000Y-106553000D03*
G04 #@! TD*
M02*
