G04 #@! TF.GenerationSoftware,KiCad,Pcbnew,(5.0.0)*
G04 #@! TF.CreationDate,2018-12-13T19:33:25+01:00*
G04 #@! TF.ProjectId,TrackModBusMaster_piggyback,547261636B4D6F644275734D61737465,rev?*
G04 #@! TF.SameCoordinates,Original*
G04 #@! TF.FileFunction,Copper,L2,Bot,Signal*
G04 #@! TF.FilePolarity,Positive*
%FSLAX46Y46*%
G04 Gerber Fmt 4.6, Leading zero omitted, Abs format (unit mm)*
G04 Created by KiCad (PCBNEW (5.0.0)) date 12/13/18 19:33:25*
%MOMM*%
%LPD*%
G01*
G04 APERTURE LIST*
G04 #@! TA.AperFunction,SMDPad,CuDef*
%ADD10R,1.220000X1.800000*%
G04 #@! TD*
G04 #@! TA.AperFunction,ComponentPad*
%ADD11O,1.700000X1.700000*%
G04 #@! TD*
G04 #@! TA.AperFunction,ComponentPad*
%ADD12R,1.700000X1.700000*%
G04 #@! TD*
G04 #@! TA.AperFunction,ComponentPad*
%ADD13R,1.727200X1.727200*%
G04 #@! TD*
G04 #@! TA.AperFunction,ComponentPad*
%ADD14O,1.727200X1.727200*%
G04 #@! TD*
G04 #@! TA.AperFunction,Conductor*
%ADD15C,0.100000*%
G04 #@! TD*
G04 #@! TA.AperFunction,SMDPad,CuDef*
%ADD16C,1.250000*%
G04 #@! TD*
G04 #@! TA.AperFunction,ComponentPad*
%ADD17R,1.600000X1.600000*%
G04 #@! TD*
G04 #@! TA.AperFunction,ComponentPad*
%ADD18C,1.600000*%
G04 #@! TD*
G04 #@! TA.AperFunction,SMDPad,CuDef*
%ADD19R,1.800000X1.220000*%
G04 #@! TD*
G04 #@! TA.AperFunction,SMDPad,CuDef*
%ADD20R,1.000000X0.820000*%
G04 #@! TD*
G04 #@! TA.AperFunction,ViaPad*
%ADD21C,0.800000*%
G04 #@! TD*
G04 #@! TA.AperFunction,Conductor*
%ADD22C,0.500000*%
G04 #@! TD*
G04 #@! TA.AperFunction,Conductor*
%ADD23C,0.250000*%
G04 #@! TD*
G04 #@! TA.AperFunction,Conductor*
%ADD24C,1.000000*%
G04 #@! TD*
G04 #@! TA.AperFunction,Conductor*
%ADD25C,0.254000*%
G04 #@! TD*
G04 APERTURE END LIST*
D10*
G04 #@! TO.P,R9,2*
G04 #@! TO.N,Rx_B*
X140114000Y-82042000D03*
G04 #@! TO.P,R9,1*
G04 #@! TO.N,GND*
X137254000Y-82042000D03*
G04 #@! TD*
D11*
G04 #@! TO.P,J1,16*
G04 #@! TO.N,GND*
X116840000Y-48260000D03*
G04 #@! TO.P,J1,15*
G04 #@! TO.N,+3.3VP*
X116840000Y-45720000D03*
G04 #@! TO.P,J1,14*
G04 #@! TO.N,SCK1*
X119380000Y-48260000D03*
G04 #@! TO.P,J1,13*
G04 #@! TO.N,+3.3VP*
X119380000Y-45720000D03*
G04 #@! TO.P,J1,12*
G04 #@! TO.N,GND*
X121920000Y-48260000D03*
G04 #@! TO.P,J1,11*
X121920000Y-45720000D03*
G04 #@! TO.P,J1,10*
G04 #@! TO.N,SS1*
X124460000Y-48260000D03*
G04 #@! TO.P,J1,9*
G04 #@! TO.N,GND*
X124460000Y-45720000D03*
G04 #@! TO.P,J1,8*
X127000000Y-48260000D03*
G04 #@! TO.P,J1,7*
G04 #@! TO.N,+5V*
X127000000Y-45720000D03*
G04 #@! TO.P,J1,6*
G04 #@! TO.N,SDO*
X129540000Y-48260000D03*
G04 #@! TO.P,J1,5*
G04 #@! TO.N,+5V*
X129540000Y-45720000D03*
G04 #@! TO.P,J1,4*
G04 #@! TO.N,GND*
X132080000Y-48260000D03*
G04 #@! TO.P,J1,3*
X132080000Y-45720000D03*
G04 #@! TO.P,J1,2*
G04 #@! TO.N,SDI*
X134620000Y-48260000D03*
D12*
G04 #@! TO.P,J1,1*
G04 #@! TO.N,GND*
X134620000Y-45720000D03*
G04 #@! TD*
D13*
G04 #@! TO.P,J2,1*
G04 #@! TO.N,Rx_A*
X138684000Y-88646000D03*
D14*
G04 #@! TO.P,J2,2*
G04 #@! TO.N,Rx_B*
X141224000Y-88646000D03*
G04 #@! TO.P,J2,3*
G04 #@! TO.N,Tx_A*
X138684000Y-91186000D03*
G04 #@! TO.P,J2,4*
G04 #@! TO.N,Tx_B*
X141224000Y-91186000D03*
G04 #@! TO.P,J2,5*
G04 #@! TO.N,GND*
X138684000Y-93726000D03*
G04 #@! TO.P,J2,6*
X141224000Y-93726000D03*
G04 #@! TO.P,J2,7*
G04 #@! TO.N,Sync_A*
X138684000Y-96266000D03*
G04 #@! TO.P,J2,8*
G04 #@! TO.N,Sync_B*
X141224000Y-96266000D03*
G04 #@! TO.P,J2,9*
G04 #@! TO.N,Reset_A*
X138684000Y-98806000D03*
G04 #@! TO.P,J2,10*
G04 #@! TO.N,Reset_B*
X141224000Y-98806000D03*
G04 #@! TD*
D12*
G04 #@! TO.P,J3,1*
G04 #@! TO.N,Reset_Out*
X134620000Y-114300000D03*
D11*
G04 #@! TO.P,J3,2*
G04 #@! TO.N,GND*
X134620000Y-116840000D03*
G04 #@! TO.P,J3,3*
G04 #@! TO.N,Net-(J3-Pad3)*
X132080000Y-114300000D03*
G04 #@! TO.P,J3,4*
G04 #@! TO.N,GND*
X132080000Y-116840000D03*
G04 #@! TO.P,J3,5*
G04 #@! TO.N,Net-(J3-Pad5)*
X129540000Y-114300000D03*
G04 #@! TO.P,J3,6*
G04 #@! TO.N,+5VP*
X129540000Y-116840000D03*
G04 #@! TO.P,J3,7*
G04 #@! TO.N,Net-(J3-Pad7)*
X127000000Y-114300000D03*
G04 #@! TO.P,J3,8*
G04 #@! TO.N,+5VP*
X127000000Y-116840000D03*
G04 #@! TO.P,J3,9*
G04 #@! TO.N,Net-(J3-Pad9)*
X124460000Y-114300000D03*
G04 #@! TO.P,J3,10*
G04 #@! TO.N,GND*
X124460000Y-116840000D03*
G04 #@! TO.P,J3,11*
G04 #@! TO.N,Net-(J3-Pad11)*
X121920000Y-114300000D03*
G04 #@! TO.P,J3,12*
G04 #@! TO.N,GND*
X121920000Y-116840000D03*
G04 #@! TO.P,J3,13*
G04 #@! TO.N,Net-(J3-Pad13)*
X119380000Y-114300000D03*
G04 #@! TO.P,J3,14*
G04 #@! TO.N,+3V3*
X119380000Y-116840000D03*
G04 #@! TO.P,J3,15*
G04 #@! TO.N,Net-(J3-Pad15)*
X116840000Y-114300000D03*
G04 #@! TO.P,J3,16*
G04 #@! TO.N,+3V3*
X116840000Y-116840000D03*
G04 #@! TD*
D12*
G04 #@! TO.P,J4,1*
G04 #@! TO.N,Net-(J4-Pad1)*
X128143000Y-89281000D03*
D11*
G04 #@! TO.P,J4,2*
G04 #@! TO.N,Net-(J4-Pad2)*
X125603000Y-89281000D03*
G04 #@! TO.P,J4,3*
G04 #@! TO.N,Net-(J4-Pad3)*
X123063000Y-89281000D03*
G04 #@! TO.P,J4,4*
G04 #@! TO.N,Net-(J4-Pad4)*
X120523000Y-89281000D03*
G04 #@! TO.P,J4,5*
G04 #@! TO.N,Net-(J4-Pad5)*
X117983000Y-89281000D03*
G04 #@! TO.P,J4,6*
G04 #@! TO.N,Net-(J4-Pad6)*
X115443000Y-89281000D03*
G04 #@! TO.P,J4,7*
G04 #@! TO.N,Net-(J4-Pad7)*
X112903000Y-89281000D03*
G04 #@! TO.P,J4,8*
G04 #@! TO.N,Net-(J4-Pad8)*
X110363000Y-89281000D03*
G04 #@! TD*
G04 #@! TO.P,J5,8*
G04 #@! TO.N,Net-(J5-Pad8)*
X106680000Y-85725000D03*
G04 #@! TO.P,J5,7*
G04 #@! TO.N,Net-(J5-Pad7)*
X106680000Y-88265000D03*
G04 #@! TO.P,J5,6*
G04 #@! TO.N,Net-(J5-Pad6)*
X106680000Y-90805000D03*
G04 #@! TO.P,J5,5*
G04 #@! TO.N,ICSPCLK*
X106680000Y-93345000D03*
G04 #@! TO.P,J5,4*
G04 #@! TO.N,ICSPDAT*
X106680000Y-95885000D03*
G04 #@! TO.P,J5,3*
G04 #@! TO.N,GND*
X106680000Y-98425000D03*
G04 #@! TO.P,J5,2*
G04 #@! TO.N,+5V*
X106680000Y-100965000D03*
D12*
G04 #@! TO.P,J5,1*
G04 #@! TO.N,Vpp*
X106680000Y-103505000D03*
G04 #@! TD*
D15*
G04 #@! TO.N,Rx_A*
G04 #@! TO.C,R7*
G36*
X132983504Y-87898204D02*
X133007773Y-87901804D01*
X133031571Y-87907765D01*
X133054671Y-87916030D01*
X133076849Y-87926520D01*
X133097893Y-87939133D01*
X133117598Y-87953747D01*
X133135777Y-87970223D01*
X133152253Y-87988402D01*
X133166867Y-88008107D01*
X133179480Y-88029151D01*
X133189970Y-88051329D01*
X133198235Y-88074429D01*
X133204196Y-88098227D01*
X133207796Y-88122496D01*
X133209000Y-88147000D01*
X133209000Y-88897000D01*
X133207796Y-88921504D01*
X133204196Y-88945773D01*
X133198235Y-88969571D01*
X133189970Y-88992671D01*
X133179480Y-89014849D01*
X133166867Y-89035893D01*
X133152253Y-89055598D01*
X133135777Y-89073777D01*
X133117598Y-89090253D01*
X133097893Y-89104867D01*
X133076849Y-89117480D01*
X133054671Y-89127970D01*
X133031571Y-89136235D01*
X133007773Y-89142196D01*
X132983504Y-89145796D01*
X132959000Y-89147000D01*
X131709000Y-89147000D01*
X131684496Y-89145796D01*
X131660227Y-89142196D01*
X131636429Y-89136235D01*
X131613329Y-89127970D01*
X131591151Y-89117480D01*
X131570107Y-89104867D01*
X131550402Y-89090253D01*
X131532223Y-89073777D01*
X131515747Y-89055598D01*
X131501133Y-89035893D01*
X131488520Y-89014849D01*
X131478030Y-88992671D01*
X131469765Y-88969571D01*
X131463804Y-88945773D01*
X131460204Y-88921504D01*
X131459000Y-88897000D01*
X131459000Y-88147000D01*
X131460204Y-88122496D01*
X131463804Y-88098227D01*
X131469765Y-88074429D01*
X131478030Y-88051329D01*
X131488520Y-88029151D01*
X131501133Y-88008107D01*
X131515747Y-87988402D01*
X131532223Y-87970223D01*
X131550402Y-87953747D01*
X131570107Y-87939133D01*
X131591151Y-87926520D01*
X131613329Y-87916030D01*
X131636429Y-87907765D01*
X131660227Y-87901804D01*
X131684496Y-87898204D01*
X131709000Y-87897000D01*
X132959000Y-87897000D01*
X132983504Y-87898204D01*
X132983504Y-87898204D01*
G37*
D16*
G04 #@! TD*
G04 #@! TO.P,R7,1*
G04 #@! TO.N,Rx_A*
X132334000Y-88522000D03*
D15*
G04 #@! TO.N,+5V*
G04 #@! TO.C,R7*
G36*
X132983504Y-85098204D02*
X133007773Y-85101804D01*
X133031571Y-85107765D01*
X133054671Y-85116030D01*
X133076849Y-85126520D01*
X133097893Y-85139133D01*
X133117598Y-85153747D01*
X133135777Y-85170223D01*
X133152253Y-85188402D01*
X133166867Y-85208107D01*
X133179480Y-85229151D01*
X133189970Y-85251329D01*
X133198235Y-85274429D01*
X133204196Y-85298227D01*
X133207796Y-85322496D01*
X133209000Y-85347000D01*
X133209000Y-86097000D01*
X133207796Y-86121504D01*
X133204196Y-86145773D01*
X133198235Y-86169571D01*
X133189970Y-86192671D01*
X133179480Y-86214849D01*
X133166867Y-86235893D01*
X133152253Y-86255598D01*
X133135777Y-86273777D01*
X133117598Y-86290253D01*
X133097893Y-86304867D01*
X133076849Y-86317480D01*
X133054671Y-86327970D01*
X133031571Y-86336235D01*
X133007773Y-86342196D01*
X132983504Y-86345796D01*
X132959000Y-86347000D01*
X131709000Y-86347000D01*
X131684496Y-86345796D01*
X131660227Y-86342196D01*
X131636429Y-86336235D01*
X131613329Y-86327970D01*
X131591151Y-86317480D01*
X131570107Y-86304867D01*
X131550402Y-86290253D01*
X131532223Y-86273777D01*
X131515747Y-86255598D01*
X131501133Y-86235893D01*
X131488520Y-86214849D01*
X131478030Y-86192671D01*
X131469765Y-86169571D01*
X131463804Y-86145773D01*
X131460204Y-86121504D01*
X131459000Y-86097000D01*
X131459000Y-85347000D01*
X131460204Y-85322496D01*
X131463804Y-85298227D01*
X131469765Y-85274429D01*
X131478030Y-85251329D01*
X131488520Y-85229151D01*
X131501133Y-85208107D01*
X131515747Y-85188402D01*
X131532223Y-85170223D01*
X131550402Y-85153747D01*
X131570107Y-85139133D01*
X131591151Y-85126520D01*
X131613329Y-85116030D01*
X131636429Y-85107765D01*
X131660227Y-85101804D01*
X131684496Y-85098204D01*
X131709000Y-85097000D01*
X132959000Y-85097000D01*
X132983504Y-85098204D01*
X132983504Y-85098204D01*
G37*
D16*
G04 #@! TD*
G04 #@! TO.P,R7,2*
G04 #@! TO.N,+5V*
X132334000Y-85722000D03*
D15*
G04 #@! TO.N,Net-(C20-Pad1)*
G04 #@! TO.C,R8*
G36*
X135523504Y-81288204D02*
X135547773Y-81291804D01*
X135571571Y-81297765D01*
X135594671Y-81306030D01*
X135616849Y-81316520D01*
X135637893Y-81329133D01*
X135657598Y-81343747D01*
X135675777Y-81360223D01*
X135692253Y-81378402D01*
X135706867Y-81398107D01*
X135719480Y-81419151D01*
X135729970Y-81441329D01*
X135738235Y-81464429D01*
X135744196Y-81488227D01*
X135747796Y-81512496D01*
X135749000Y-81537000D01*
X135749000Y-82287000D01*
X135747796Y-82311504D01*
X135744196Y-82335773D01*
X135738235Y-82359571D01*
X135729970Y-82382671D01*
X135719480Y-82404849D01*
X135706867Y-82425893D01*
X135692253Y-82445598D01*
X135675777Y-82463777D01*
X135657598Y-82480253D01*
X135637893Y-82494867D01*
X135616849Y-82507480D01*
X135594671Y-82517970D01*
X135571571Y-82526235D01*
X135547773Y-82532196D01*
X135523504Y-82535796D01*
X135499000Y-82537000D01*
X134249000Y-82537000D01*
X134224496Y-82535796D01*
X134200227Y-82532196D01*
X134176429Y-82526235D01*
X134153329Y-82517970D01*
X134131151Y-82507480D01*
X134110107Y-82494867D01*
X134090402Y-82480253D01*
X134072223Y-82463777D01*
X134055747Y-82445598D01*
X134041133Y-82425893D01*
X134028520Y-82404849D01*
X134018030Y-82382671D01*
X134009765Y-82359571D01*
X134003804Y-82335773D01*
X134000204Y-82311504D01*
X133999000Y-82287000D01*
X133999000Y-81537000D01*
X134000204Y-81512496D01*
X134003804Y-81488227D01*
X134009765Y-81464429D01*
X134018030Y-81441329D01*
X134028520Y-81419151D01*
X134041133Y-81398107D01*
X134055747Y-81378402D01*
X134072223Y-81360223D01*
X134090402Y-81343747D01*
X134110107Y-81329133D01*
X134131151Y-81316520D01*
X134153329Y-81306030D01*
X134176429Y-81297765D01*
X134200227Y-81291804D01*
X134224496Y-81288204D01*
X134249000Y-81287000D01*
X135499000Y-81287000D01*
X135523504Y-81288204D01*
X135523504Y-81288204D01*
G37*
D16*
G04 #@! TD*
G04 #@! TO.P,R8,2*
G04 #@! TO.N,Net-(C20-Pad1)*
X134874000Y-81912000D03*
D15*
G04 #@! TO.N,Rx_A*
G04 #@! TO.C,R8*
G36*
X135523504Y-84088204D02*
X135547773Y-84091804D01*
X135571571Y-84097765D01*
X135594671Y-84106030D01*
X135616849Y-84116520D01*
X135637893Y-84129133D01*
X135657598Y-84143747D01*
X135675777Y-84160223D01*
X135692253Y-84178402D01*
X135706867Y-84198107D01*
X135719480Y-84219151D01*
X135729970Y-84241329D01*
X135738235Y-84264429D01*
X135744196Y-84288227D01*
X135747796Y-84312496D01*
X135749000Y-84337000D01*
X135749000Y-85087000D01*
X135747796Y-85111504D01*
X135744196Y-85135773D01*
X135738235Y-85159571D01*
X135729970Y-85182671D01*
X135719480Y-85204849D01*
X135706867Y-85225893D01*
X135692253Y-85245598D01*
X135675777Y-85263777D01*
X135657598Y-85280253D01*
X135637893Y-85294867D01*
X135616849Y-85307480D01*
X135594671Y-85317970D01*
X135571571Y-85326235D01*
X135547773Y-85332196D01*
X135523504Y-85335796D01*
X135499000Y-85337000D01*
X134249000Y-85337000D01*
X134224496Y-85335796D01*
X134200227Y-85332196D01*
X134176429Y-85326235D01*
X134153329Y-85317970D01*
X134131151Y-85307480D01*
X134110107Y-85294867D01*
X134090402Y-85280253D01*
X134072223Y-85263777D01*
X134055747Y-85245598D01*
X134041133Y-85225893D01*
X134028520Y-85204849D01*
X134018030Y-85182671D01*
X134009765Y-85159571D01*
X134003804Y-85135773D01*
X134000204Y-85111504D01*
X133999000Y-85087000D01*
X133999000Y-84337000D01*
X134000204Y-84312496D01*
X134003804Y-84288227D01*
X134009765Y-84264429D01*
X134018030Y-84241329D01*
X134028520Y-84219151D01*
X134041133Y-84198107D01*
X134055747Y-84178402D01*
X134072223Y-84160223D01*
X134090402Y-84143747D01*
X134110107Y-84129133D01*
X134131151Y-84116520D01*
X134153329Y-84106030D01*
X134176429Y-84097765D01*
X134200227Y-84091804D01*
X134224496Y-84088204D01*
X134249000Y-84087000D01*
X135499000Y-84087000D01*
X135523504Y-84088204D01*
X135523504Y-84088204D01*
G37*
D16*
G04 #@! TD*
G04 #@! TO.P,R8,1*
G04 #@! TO.N,Rx_A*
X134874000Y-84712000D03*
D17*
G04 #@! TO.P,C19,1*
G04 #@! TO.N,+5V*
X108966000Y-46736000D03*
D18*
G04 #@! TO.P,C19,2*
G04 #@! TO.N,GND*
X111466000Y-46736000D03*
G04 #@! TD*
D19*
G04 #@! TO.P,C20,1*
G04 #@! TO.N,Net-(C20-Pad1)*
X134874000Y-80043000D03*
G04 #@! TO.P,C20,2*
G04 #@! TO.N,GND*
X134874000Y-77183000D03*
G04 #@! TD*
D10*
G04 #@! TO.P,R27,1*
G04 #@! TO.N,Rx_B*
X140114000Y-84582000D03*
G04 #@! TO.P,R27,2*
G04 #@! TO.N,Net-(C20-Pad1)*
X137254000Y-84582000D03*
G04 #@! TD*
D20*
G04 #@! TO.P,R28,1*
G04 #@! TO.N,+5V*
X111252000Y-104953000D03*
G04 #@! TO.P,R28,2*
G04 #@! TO.N,Net-(C7-Pad1)*
X111252000Y-106553000D03*
G04 #@! TD*
D21*
G04 #@! TO.N,GND*
X122936000Y-64008000D03*
X134112000Y-60959992D03*
X125793500Y-104648000D03*
X136017000Y-75374500D03*
X114554000Y-111887000D03*
X116713002Y-94742000D03*
X109093000Y-103632000D03*
X114300000Y-45466000D03*
X132080000Y-110617000D03*
X115824000Y-103886006D03*
X120142000Y-104648000D03*
X137414000Y-78994000D03*
G04 #@! TO.N,Net-(C7-Pad1)*
X108839000Y-115062000D03*
G04 #@! TO.N,Net-(C10-Pad1)*
X123317000Y-109156500D03*
X123317000Y-107315000D03*
G04 #@! TO.N,+5V*
X124460008Y-58166000D03*
X115189000Y-94361000D03*
X139192000Y-58166000D03*
G04 #@! TO.N,Rx_A*
X137922000Y-72517000D03*
G04 #@! TO.N,Rx_B*
X137922000Y-71247000D03*
G04 #@! TO.N,Rx*
X128955800Y-71247000D03*
X128955800Y-84150200D03*
G04 #@! TD*
D22*
G04 #@! TO.N,GND*
X135970000Y-45720000D02*
X136398000Y-46148000D01*
X134620000Y-45720000D02*
X135970000Y-45720000D01*
X136398000Y-46148000D02*
X136398000Y-51308000D01*
G04 #@! TO.N,Net-(C7-Pad1)*
X111252000Y-106553000D02*
X111252000Y-112649000D01*
X111252000Y-112649000D02*
X108839000Y-115062000D01*
D23*
G04 #@! TO.N,Net-(C10-Pad1)*
X123317000Y-109156500D02*
X123317000Y-107315000D01*
D24*
G04 #@! TO.N,+5V*
X106172000Y-46482000D02*
X106172000Y-58166000D01*
X106172000Y-58166000D02*
X124460008Y-58166000D01*
X106172000Y-46736000D02*
X106172000Y-46482000D01*
X108966000Y-46736000D02*
X106172000Y-46736000D01*
X110490000Y-68453000D02*
X110490000Y-85725000D01*
X106172000Y-58166000D02*
X106172000Y-64135000D01*
X106172000Y-64135000D02*
X110490000Y-68453000D01*
X108077000Y-100965000D02*
X106680000Y-100965000D01*
X108585000Y-100457000D02*
X108077000Y-100965000D01*
X110490000Y-85725000D02*
X108585000Y-87630000D01*
X108585000Y-94361000D02*
X108585000Y-100457000D01*
X108585000Y-87630000D02*
X108585000Y-94361000D01*
X108585000Y-94361000D02*
X115189000Y-94361000D01*
X124460008Y-58166000D02*
X139192000Y-58166000D01*
X108966000Y-43688000D02*
X106172000Y-46482000D01*
X126365000Y-43688000D02*
X108966000Y-43688000D01*
X127000000Y-45720000D02*
X127000000Y-44323000D01*
X127000000Y-44323000D02*
X126365000Y-43688000D01*
D22*
X108174000Y-100965000D02*
X108077000Y-100965000D01*
X111252000Y-104043000D02*
X108174000Y-100965000D01*
X111252000Y-104953000D02*
X111252000Y-104043000D01*
D24*
X130686000Y-85722000D02*
X132334000Y-85722000D01*
X110490000Y-85725000D02*
X110493000Y-85722000D01*
X110493000Y-85722000D02*
X130686000Y-85722000D01*
D22*
G04 #@! TO.N,Rx_A*
X138601016Y-73196016D02*
X137922000Y-72517000D01*
X138601016Y-88436016D02*
X138601016Y-73196016D01*
X138684000Y-88646000D02*
X138684000Y-88519000D01*
X138684000Y-88519000D02*
X138601016Y-88436016D01*
X132458000Y-88646000D02*
X132334000Y-88522000D01*
X134874000Y-84712000D02*
X134874000Y-88646000D01*
X138684000Y-88646000D02*
X134874000Y-88646000D01*
X134874000Y-88646000D02*
X132458000Y-88646000D01*
G04 #@! TO.N,Rx_B*
X140682000Y-82042000D02*
X141401016Y-82042000D01*
X139957000Y-82042000D02*
X140682000Y-82042000D01*
X141414500Y-88455500D02*
X141224000Y-88646000D01*
X141401016Y-82042000D02*
X141414500Y-82055484D01*
X141414500Y-82028516D02*
X141401016Y-82042000D01*
X141414500Y-72072500D02*
X141414500Y-82028516D01*
X137922000Y-71247000D02*
X140589000Y-71247000D01*
X140589000Y-71247000D02*
X141414500Y-72072500D01*
X140114000Y-84582000D02*
X141414500Y-84582000D01*
X141414500Y-82055484D02*
X141414500Y-84582000D01*
X141414500Y-84582000D02*
X141414500Y-88455500D01*
G04 #@! TO.N,Rx*
X128955800Y-71247000D02*
X128955800Y-84150200D01*
G04 #@! TO.N,Net-(C20-Pad1)*
X134874000Y-82296000D02*
X134874000Y-81912000D01*
X137254000Y-84582000D02*
X137160000Y-84582000D01*
X137160000Y-84582000D02*
X134874000Y-82296000D01*
X134874000Y-80043000D02*
X134874000Y-81912000D01*
G04 #@! TD*
D25*
G04 #@! TO.N,GND*
G36*
X115385736Y-45419221D02*
X115325908Y-45720000D01*
X115388420Y-46034271D01*
X115399680Y-48614671D01*
X115398514Y-48616892D01*
X115399700Y-48619418D01*
X115407001Y-50292554D01*
X115416667Y-50340601D01*
X115444197Y-50381803D01*
X115485399Y-50409333D01*
X115534000Y-50419000D01*
X144290001Y-50419000D01*
X144290000Y-103790000D01*
X137069925Y-103790000D01*
X137000000Y-103776091D01*
X136930074Y-103790000D01*
X136722972Y-103831195D01*
X136488119Y-103988119D01*
X136331195Y-104222972D01*
X136276091Y-104500000D01*
X136290000Y-104569925D01*
X136290001Y-118790000D01*
X105710000Y-118790000D01*
X105710000Y-104978571D01*
X105830000Y-105002440D01*
X107530000Y-105002440D01*
X107777765Y-104953157D01*
X107987809Y-104812809D01*
X108128157Y-104602765D01*
X108177440Y-104355000D01*
X108177440Y-102655000D01*
X108128157Y-102407235D01*
X107987809Y-102197191D01*
X107842354Y-102100000D01*
X107965217Y-102100000D01*
X108077000Y-102122235D01*
X108079216Y-102121794D01*
X110193422Y-104236001D01*
X110153843Y-104295235D01*
X110104560Y-104543000D01*
X110104560Y-105363000D01*
X110153843Y-105610765D01*
X110248882Y-105753000D01*
X110153843Y-105895235D01*
X110104560Y-106143000D01*
X110104560Y-106963000D01*
X110153843Y-107210765D01*
X110294191Y-107420809D01*
X110367000Y-107469459D01*
X110367001Y-112282420D01*
X108614853Y-114034569D01*
X108252720Y-114184569D01*
X107961569Y-114475720D01*
X107804000Y-114856126D01*
X107804000Y-115267874D01*
X107961569Y-115648280D01*
X108252720Y-115939431D01*
X108633126Y-116097000D01*
X109044874Y-116097000D01*
X109425280Y-115939431D01*
X109716431Y-115648280D01*
X109866431Y-115286147D01*
X110852578Y-114300000D01*
X115325908Y-114300000D01*
X115441161Y-114879418D01*
X115769375Y-115370625D01*
X116067761Y-115570000D01*
X115769375Y-115769375D01*
X115441161Y-116260582D01*
X115325908Y-116840000D01*
X115441161Y-117419418D01*
X115769375Y-117910625D01*
X116260582Y-118238839D01*
X116693744Y-118325000D01*
X116986256Y-118325000D01*
X117419418Y-118238839D01*
X117910625Y-117910625D01*
X118110000Y-117612239D01*
X118309375Y-117910625D01*
X118800582Y-118238839D01*
X119233744Y-118325000D01*
X119526256Y-118325000D01*
X119959418Y-118238839D01*
X120450625Y-117910625D01*
X120663843Y-117591522D01*
X120724817Y-117721358D01*
X121153076Y-118111645D01*
X121563110Y-118281476D01*
X121793000Y-118160155D01*
X121793000Y-116967000D01*
X122047000Y-116967000D01*
X122047000Y-118160155D01*
X122276890Y-118281476D01*
X122686924Y-118111645D01*
X123115183Y-117721358D01*
X123190000Y-117562046D01*
X123264817Y-117721358D01*
X123693076Y-118111645D01*
X124103110Y-118281476D01*
X124333000Y-118160155D01*
X124333000Y-116967000D01*
X122047000Y-116967000D01*
X121793000Y-116967000D01*
X121773000Y-116967000D01*
X121773000Y-116713000D01*
X121793000Y-116713000D01*
X121793000Y-116693000D01*
X122047000Y-116693000D01*
X122047000Y-116713000D01*
X124333000Y-116713000D01*
X124333000Y-116693000D01*
X124587000Y-116693000D01*
X124587000Y-116713000D01*
X124607000Y-116713000D01*
X124607000Y-116967000D01*
X124587000Y-116967000D01*
X124587000Y-118160155D01*
X124816890Y-118281476D01*
X125226924Y-118111645D01*
X125655183Y-117721358D01*
X125716157Y-117591522D01*
X125929375Y-117910625D01*
X126420582Y-118238839D01*
X126853744Y-118325000D01*
X127146256Y-118325000D01*
X127579418Y-118238839D01*
X128070625Y-117910625D01*
X128270000Y-117612239D01*
X128469375Y-117910625D01*
X128960582Y-118238839D01*
X129393744Y-118325000D01*
X129686256Y-118325000D01*
X130119418Y-118238839D01*
X130610625Y-117910625D01*
X130823843Y-117591522D01*
X130884817Y-117721358D01*
X131313076Y-118111645D01*
X131723110Y-118281476D01*
X131953000Y-118160155D01*
X131953000Y-116967000D01*
X132207000Y-116967000D01*
X132207000Y-118160155D01*
X132436890Y-118281476D01*
X132846924Y-118111645D01*
X133275183Y-117721358D01*
X133350000Y-117562046D01*
X133424817Y-117721358D01*
X133853076Y-118111645D01*
X134263110Y-118281476D01*
X134493000Y-118160155D01*
X134493000Y-116967000D01*
X134747000Y-116967000D01*
X134747000Y-118160155D01*
X134976890Y-118281476D01*
X135386924Y-118111645D01*
X135815183Y-117721358D01*
X136061486Y-117196892D01*
X135940819Y-116967000D01*
X134747000Y-116967000D01*
X134493000Y-116967000D01*
X132207000Y-116967000D01*
X131953000Y-116967000D01*
X131933000Y-116967000D01*
X131933000Y-116713000D01*
X131953000Y-116713000D01*
X131953000Y-116693000D01*
X132207000Y-116693000D01*
X132207000Y-116713000D01*
X134493000Y-116713000D01*
X134493000Y-116693000D01*
X134747000Y-116693000D01*
X134747000Y-116713000D01*
X135940819Y-116713000D01*
X136061486Y-116483108D01*
X135815183Y-115958642D01*
X135608145Y-115769961D01*
X135717765Y-115748157D01*
X135927809Y-115607809D01*
X136068157Y-115397765D01*
X136117440Y-115150000D01*
X136117440Y-113450000D01*
X136068157Y-113202235D01*
X135927809Y-112992191D01*
X135717765Y-112851843D01*
X135470000Y-112802560D01*
X133770000Y-112802560D01*
X133522235Y-112851843D01*
X133312191Y-112992191D01*
X133171843Y-113202235D01*
X133162816Y-113247619D01*
X133150625Y-113229375D01*
X132659418Y-112901161D01*
X132226256Y-112815000D01*
X131933744Y-112815000D01*
X131500582Y-112901161D01*
X131009375Y-113229375D01*
X130810000Y-113527761D01*
X130610625Y-113229375D01*
X130119418Y-112901161D01*
X129686256Y-112815000D01*
X129393744Y-112815000D01*
X128960582Y-112901161D01*
X128469375Y-113229375D01*
X128270000Y-113527761D01*
X128070625Y-113229375D01*
X127579418Y-112901161D01*
X127146256Y-112815000D01*
X126853744Y-112815000D01*
X126420582Y-112901161D01*
X125929375Y-113229375D01*
X125730000Y-113527761D01*
X125530625Y-113229375D01*
X125039418Y-112901161D01*
X124606256Y-112815000D01*
X124313744Y-112815000D01*
X123880582Y-112901161D01*
X123389375Y-113229375D01*
X123190000Y-113527761D01*
X122990625Y-113229375D01*
X122499418Y-112901161D01*
X122066256Y-112815000D01*
X121773744Y-112815000D01*
X121340582Y-112901161D01*
X120849375Y-113229375D01*
X120650000Y-113527761D01*
X120450625Y-113229375D01*
X119959418Y-112901161D01*
X119526256Y-112815000D01*
X119233744Y-112815000D01*
X118800582Y-112901161D01*
X118309375Y-113229375D01*
X118110000Y-113527761D01*
X117910625Y-113229375D01*
X117419418Y-112901161D01*
X116986256Y-112815000D01*
X116693744Y-112815000D01*
X116260582Y-112901161D01*
X115769375Y-113229375D01*
X115441161Y-113720582D01*
X115325908Y-114300000D01*
X110852578Y-114300000D01*
X111816156Y-113336423D01*
X111890049Y-113287049D01*
X111946721Y-113202235D01*
X112085651Y-112994311D01*
X112085652Y-112994310D01*
X112137000Y-112736165D01*
X112137000Y-112736161D01*
X112154337Y-112649001D01*
X112137000Y-112561841D01*
X112137000Y-107469459D01*
X112209809Y-107420809D01*
X112350157Y-107210765D01*
X112370374Y-107109126D01*
X122282000Y-107109126D01*
X122282000Y-107520874D01*
X122439569Y-107901280D01*
X122557001Y-108018712D01*
X122557000Y-108452789D01*
X122439569Y-108570220D01*
X122282000Y-108950626D01*
X122282000Y-109362374D01*
X122439569Y-109742780D01*
X122730720Y-110033931D01*
X123111126Y-110191500D01*
X123522874Y-110191500D01*
X123903280Y-110033931D01*
X124194431Y-109742780D01*
X124352000Y-109362374D01*
X124352000Y-108950626D01*
X124194431Y-108570220D01*
X124077000Y-108452789D01*
X124077000Y-108018711D01*
X124194431Y-107901280D01*
X124352000Y-107520874D01*
X124352000Y-107109126D01*
X124194431Y-106728720D01*
X123903280Y-106437569D01*
X123522874Y-106280000D01*
X123111126Y-106280000D01*
X122730720Y-106437569D01*
X122439569Y-106728720D01*
X122282000Y-107109126D01*
X112370374Y-107109126D01*
X112399440Y-106963000D01*
X112399440Y-106143000D01*
X112350157Y-105895235D01*
X112255118Y-105753000D01*
X112350157Y-105610765D01*
X112399440Y-105363000D01*
X112399440Y-104543000D01*
X112350157Y-104295235D01*
X112209809Y-104085191D01*
X112153437Y-104047524D01*
X112154337Y-104042999D01*
X112137000Y-103955839D01*
X112137000Y-103955835D01*
X112085652Y-103697690D01*
X111890049Y-103404951D01*
X111816156Y-103355577D01*
X109536501Y-101075923D01*
X109654146Y-100899855D01*
X109720000Y-100568783D01*
X109742235Y-100457001D01*
X109720000Y-100345219D01*
X109720000Y-96266000D01*
X137156041Y-96266000D01*
X137272350Y-96850725D01*
X137603570Y-97346430D01*
X137887281Y-97536000D01*
X137603570Y-97725570D01*
X137272350Y-98221275D01*
X137156041Y-98806000D01*
X137272350Y-99390725D01*
X137603570Y-99886430D01*
X138099275Y-100217650D01*
X138536402Y-100304600D01*
X138831598Y-100304600D01*
X139268725Y-100217650D01*
X139764430Y-99886430D01*
X139954000Y-99602719D01*
X140143570Y-99886430D01*
X140639275Y-100217650D01*
X141076402Y-100304600D01*
X141371598Y-100304600D01*
X141808725Y-100217650D01*
X142304430Y-99886430D01*
X142635650Y-99390725D01*
X142751959Y-98806000D01*
X142635650Y-98221275D01*
X142304430Y-97725570D01*
X142020719Y-97536000D01*
X142304430Y-97346430D01*
X142635650Y-96850725D01*
X142751959Y-96266000D01*
X142635650Y-95681275D01*
X142304430Y-95185570D01*
X142002979Y-94984146D01*
X142112490Y-94932821D01*
X142506688Y-94500947D01*
X142678958Y-94085026D01*
X142557817Y-93853000D01*
X141351000Y-93853000D01*
X141351000Y-93873000D01*
X141097000Y-93873000D01*
X141097000Y-93853000D01*
X138811000Y-93853000D01*
X138811000Y-93873000D01*
X138557000Y-93873000D01*
X138557000Y-93853000D01*
X137350183Y-93853000D01*
X137229042Y-94085026D01*
X137401312Y-94500947D01*
X137795510Y-94932821D01*
X137905021Y-94984146D01*
X137603570Y-95185570D01*
X137272350Y-95681275D01*
X137156041Y-96266000D01*
X109720000Y-96266000D01*
X109720000Y-95496000D01*
X115300783Y-95496000D01*
X115631855Y-95430146D01*
X116007289Y-95179289D01*
X116258146Y-94803855D01*
X116346235Y-94361000D01*
X116258146Y-93918145D01*
X116007289Y-93542711D01*
X115631855Y-93291854D01*
X115300783Y-93226000D01*
X109720000Y-93226000D01*
X109720000Y-90637355D01*
X109783582Y-90679839D01*
X110216744Y-90766000D01*
X110509256Y-90766000D01*
X110942418Y-90679839D01*
X111433625Y-90351625D01*
X111633000Y-90053239D01*
X111832375Y-90351625D01*
X112323582Y-90679839D01*
X112756744Y-90766000D01*
X113049256Y-90766000D01*
X113482418Y-90679839D01*
X113973625Y-90351625D01*
X114173000Y-90053239D01*
X114372375Y-90351625D01*
X114863582Y-90679839D01*
X115296744Y-90766000D01*
X115589256Y-90766000D01*
X116022418Y-90679839D01*
X116513625Y-90351625D01*
X116713000Y-90053239D01*
X116912375Y-90351625D01*
X117403582Y-90679839D01*
X117836744Y-90766000D01*
X118129256Y-90766000D01*
X118562418Y-90679839D01*
X119053625Y-90351625D01*
X119253000Y-90053239D01*
X119452375Y-90351625D01*
X119943582Y-90679839D01*
X120376744Y-90766000D01*
X120669256Y-90766000D01*
X121102418Y-90679839D01*
X121593625Y-90351625D01*
X121793000Y-90053239D01*
X121992375Y-90351625D01*
X122483582Y-90679839D01*
X122916744Y-90766000D01*
X123209256Y-90766000D01*
X123642418Y-90679839D01*
X124133625Y-90351625D01*
X124333000Y-90053239D01*
X124532375Y-90351625D01*
X125023582Y-90679839D01*
X125456744Y-90766000D01*
X125749256Y-90766000D01*
X126182418Y-90679839D01*
X126673625Y-90351625D01*
X126685816Y-90333381D01*
X126694843Y-90378765D01*
X126835191Y-90588809D01*
X127045235Y-90729157D01*
X127293000Y-90778440D01*
X128993000Y-90778440D01*
X129240765Y-90729157D01*
X129450809Y-90588809D01*
X129591157Y-90378765D01*
X129640440Y-90131000D01*
X129640440Y-88431000D01*
X129591157Y-88183235D01*
X129450809Y-87973191D01*
X129240765Y-87832843D01*
X128993000Y-87783560D01*
X127293000Y-87783560D01*
X127045235Y-87832843D01*
X126835191Y-87973191D01*
X126694843Y-88183235D01*
X126685816Y-88228619D01*
X126673625Y-88210375D01*
X126182418Y-87882161D01*
X125749256Y-87796000D01*
X125456744Y-87796000D01*
X125023582Y-87882161D01*
X124532375Y-88210375D01*
X124333000Y-88508761D01*
X124133625Y-88210375D01*
X123642418Y-87882161D01*
X123209256Y-87796000D01*
X122916744Y-87796000D01*
X122483582Y-87882161D01*
X121992375Y-88210375D01*
X121793000Y-88508761D01*
X121593625Y-88210375D01*
X121102418Y-87882161D01*
X120669256Y-87796000D01*
X120376744Y-87796000D01*
X119943582Y-87882161D01*
X119452375Y-88210375D01*
X119253000Y-88508761D01*
X119053625Y-88210375D01*
X118562418Y-87882161D01*
X118129256Y-87796000D01*
X117836744Y-87796000D01*
X117403582Y-87882161D01*
X116912375Y-88210375D01*
X116713000Y-88508761D01*
X116513625Y-88210375D01*
X116022418Y-87882161D01*
X115589256Y-87796000D01*
X115296744Y-87796000D01*
X114863582Y-87882161D01*
X114372375Y-88210375D01*
X114173000Y-88508761D01*
X113973625Y-88210375D01*
X113482418Y-87882161D01*
X113049256Y-87796000D01*
X112756744Y-87796000D01*
X112323582Y-87882161D01*
X111832375Y-88210375D01*
X111633000Y-88508761D01*
X111433625Y-88210375D01*
X110942418Y-87882161D01*
X110509256Y-87796000D01*
X110216744Y-87796000D01*
X109976305Y-87843826D01*
X110963132Y-86857000D01*
X131262110Y-86857000D01*
X131365565Y-86926126D01*
X131709000Y-86994440D01*
X132959000Y-86994440D01*
X133302435Y-86926126D01*
X133593586Y-86731586D01*
X133788126Y-86440435D01*
X133856440Y-86097000D01*
X133856440Y-85883302D01*
X133905565Y-85916126D01*
X133989000Y-85932722D01*
X133989001Y-87761000D01*
X133759685Y-87761000D01*
X133593586Y-87512414D01*
X133302435Y-87317874D01*
X132959000Y-87249560D01*
X131709000Y-87249560D01*
X131365565Y-87317874D01*
X131074414Y-87512414D01*
X130879874Y-87803565D01*
X130811560Y-88147000D01*
X130811560Y-88897000D01*
X130879874Y-89240435D01*
X131074414Y-89531586D01*
X131365565Y-89726126D01*
X131709000Y-89794440D01*
X132959000Y-89794440D01*
X133302435Y-89726126D01*
X133593586Y-89531586D01*
X133593978Y-89531000D01*
X134786836Y-89531000D01*
X134874000Y-89548338D01*
X134961165Y-89531000D01*
X137177217Y-89531000D01*
X137222243Y-89757365D01*
X137362591Y-89967409D01*
X137572635Y-90107757D01*
X137598651Y-90112932D01*
X137272350Y-90601275D01*
X137156041Y-91186000D01*
X137272350Y-91770725D01*
X137603570Y-92266430D01*
X137905021Y-92467854D01*
X137795510Y-92519179D01*
X137401312Y-92951053D01*
X137229042Y-93366974D01*
X137350183Y-93599000D01*
X138557000Y-93599000D01*
X138557000Y-93579000D01*
X138811000Y-93579000D01*
X138811000Y-93599000D01*
X141097000Y-93599000D01*
X141097000Y-93579000D01*
X141351000Y-93579000D01*
X141351000Y-93599000D01*
X142557817Y-93599000D01*
X142678958Y-93366974D01*
X142506688Y-92951053D01*
X142112490Y-92519179D01*
X142002979Y-92467854D01*
X142304430Y-92266430D01*
X142635650Y-91770725D01*
X142751959Y-91186000D01*
X142635650Y-90601275D01*
X142304430Y-90105570D01*
X142020719Y-89916000D01*
X142304430Y-89726430D01*
X142635650Y-89230725D01*
X142751959Y-88646000D01*
X142635650Y-88061275D01*
X142304430Y-87565570D01*
X142299500Y-87562276D01*
X142299500Y-84669165D01*
X142316838Y-84582000D01*
X142299500Y-84494835D01*
X142299500Y-82142643D01*
X142316837Y-82055483D01*
X142314155Y-82042000D01*
X142316837Y-82028517D01*
X142299500Y-81941357D01*
X142299500Y-72159659D01*
X142316837Y-72072499D01*
X142299500Y-71985339D01*
X142299500Y-71985335D01*
X142248152Y-71727190D01*
X142052549Y-71434451D01*
X141978656Y-71385077D01*
X141276425Y-70682847D01*
X141227049Y-70608951D01*
X140934310Y-70413348D01*
X140676165Y-70362000D01*
X140676161Y-70362000D01*
X140589000Y-70344663D01*
X140501839Y-70362000D01*
X138490007Y-70362000D01*
X138127874Y-70212000D01*
X137716126Y-70212000D01*
X137335720Y-70369569D01*
X137044569Y-70660720D01*
X136887000Y-71041126D01*
X136887000Y-71452874D01*
X137044569Y-71833280D01*
X137093289Y-71882000D01*
X137044569Y-71930720D01*
X136887000Y-72311126D01*
X136887000Y-72722874D01*
X137044569Y-73103280D01*
X137335720Y-73394431D01*
X137697852Y-73544431D01*
X137716017Y-73562596D01*
X137716017Y-80507000D01*
X137539750Y-80507000D01*
X137381000Y-80665750D01*
X137381000Y-81915000D01*
X137401000Y-81915000D01*
X137401000Y-82169000D01*
X137381000Y-82169000D01*
X137381000Y-82189000D01*
X137127000Y-82189000D01*
X137127000Y-82169000D01*
X137107000Y-82169000D01*
X137107000Y-81915000D01*
X137127000Y-81915000D01*
X137127000Y-80665750D01*
X136968250Y-80507000D01*
X136517691Y-80507000D01*
X136421440Y-80546869D01*
X136421440Y-79433000D01*
X136372157Y-79185235D01*
X136231809Y-78975191D01*
X136021765Y-78834843D01*
X135774000Y-78785560D01*
X133974000Y-78785560D01*
X133726235Y-78834843D01*
X133516191Y-78975191D01*
X133375843Y-79185235D01*
X133326560Y-79433000D01*
X133326560Y-80653000D01*
X133375843Y-80900765D01*
X133495680Y-81080113D01*
X133419874Y-81193565D01*
X133351560Y-81537000D01*
X133351560Y-82287000D01*
X133419874Y-82630435D01*
X133614414Y-82921586D01*
X133905565Y-83116126D01*
X134249000Y-83184440D01*
X134510862Y-83184440D01*
X134765982Y-83439560D01*
X134249000Y-83439560D01*
X133905565Y-83507874D01*
X133614414Y-83702414D01*
X133419874Y-83993565D01*
X133351560Y-84337000D01*
X133351560Y-84550698D01*
X133302435Y-84517874D01*
X132959000Y-84449560D01*
X131709000Y-84449560D01*
X131365565Y-84517874D01*
X131262110Y-84587000D01*
X129895148Y-84587000D01*
X129990800Y-84356074D01*
X129990800Y-83944326D01*
X129840800Y-83582193D01*
X129840800Y-77468750D01*
X133339000Y-77468750D01*
X133339000Y-77919309D01*
X133435673Y-78152698D01*
X133614301Y-78331327D01*
X133847690Y-78428000D01*
X134588250Y-78428000D01*
X134747000Y-78269250D01*
X134747000Y-77310000D01*
X135001000Y-77310000D01*
X135001000Y-78269250D01*
X135159750Y-78428000D01*
X135900310Y-78428000D01*
X136133699Y-78331327D01*
X136312327Y-78152698D01*
X136409000Y-77919309D01*
X136409000Y-77468750D01*
X136250250Y-77310000D01*
X135001000Y-77310000D01*
X134747000Y-77310000D01*
X133497750Y-77310000D01*
X133339000Y-77468750D01*
X129840800Y-77468750D01*
X129840800Y-76446691D01*
X133339000Y-76446691D01*
X133339000Y-76897250D01*
X133497750Y-77056000D01*
X134747000Y-77056000D01*
X134747000Y-76096750D01*
X135001000Y-76096750D01*
X135001000Y-77056000D01*
X136250250Y-77056000D01*
X136409000Y-76897250D01*
X136409000Y-76446691D01*
X136312327Y-76213302D01*
X136133699Y-76034673D01*
X135900310Y-75938000D01*
X135159750Y-75938000D01*
X135001000Y-76096750D01*
X134747000Y-76096750D01*
X134588250Y-75938000D01*
X133847690Y-75938000D01*
X133614301Y-76034673D01*
X133435673Y-76213302D01*
X133339000Y-76446691D01*
X129840800Y-76446691D01*
X129840800Y-71815007D01*
X129990800Y-71452874D01*
X129990800Y-71041126D01*
X129833231Y-70660720D01*
X129542080Y-70369569D01*
X129161674Y-70212000D01*
X128749926Y-70212000D01*
X128369520Y-70369569D01*
X128078369Y-70660720D01*
X127920800Y-71041126D01*
X127920800Y-71452874D01*
X128070800Y-71815007D01*
X128070801Y-83582191D01*
X127920800Y-83944326D01*
X127920800Y-84356074D01*
X128016452Y-84587000D01*
X111625000Y-84587000D01*
X111625000Y-68564782D01*
X111647235Y-68452999D01*
X111559146Y-68010145D01*
X111308289Y-67634711D01*
X111213522Y-67571390D01*
X107307000Y-63664869D01*
X107307000Y-59301000D01*
X139303783Y-59301000D01*
X139634855Y-59235146D01*
X140010289Y-58984289D01*
X140261146Y-58608855D01*
X140349235Y-58166000D01*
X140261146Y-57723145D01*
X140010289Y-57347711D01*
X139634855Y-57096854D01*
X139303783Y-57031000D01*
X107307000Y-57031000D01*
X107307000Y-47871000D01*
X107626132Y-47871000D01*
X107708191Y-47993809D01*
X107918235Y-48134157D01*
X108166000Y-48183440D01*
X109766000Y-48183440D01*
X110013765Y-48134157D01*
X110223809Y-47993809D01*
X110364157Y-47783765D01*
X110372117Y-47743745D01*
X110637861Y-47743745D01*
X110711995Y-47989864D01*
X111249223Y-48182965D01*
X111819454Y-48155778D01*
X112220005Y-47989864D01*
X112294139Y-47743745D01*
X111466000Y-46915605D01*
X110637861Y-47743745D01*
X110372117Y-47743745D01*
X110410693Y-47549813D01*
X110458255Y-47564139D01*
X111286395Y-46736000D01*
X111645605Y-46736000D01*
X112473745Y-47564139D01*
X112719864Y-47490005D01*
X112912965Y-46952777D01*
X112885778Y-46382546D01*
X112719864Y-45981995D01*
X112473745Y-45907861D01*
X111645605Y-46736000D01*
X111286395Y-46736000D01*
X110458255Y-45907861D01*
X110410693Y-45922187D01*
X110372118Y-45728255D01*
X110637861Y-45728255D01*
X111466000Y-46556395D01*
X112294139Y-45728255D01*
X112220005Y-45482136D01*
X111682777Y-45289035D01*
X111112546Y-45316222D01*
X110711995Y-45482136D01*
X110637861Y-45728255D01*
X110372118Y-45728255D01*
X110364157Y-45688235D01*
X110223809Y-45478191D01*
X110013765Y-45337843D01*
X109766000Y-45288560D01*
X108970572Y-45288560D01*
X109436132Y-44823000D01*
X115383135Y-44823000D01*
X115385736Y-45419221D01*
X115385736Y-45419221D01*
G37*
X115385736Y-45419221D02*
X115325908Y-45720000D01*
X115388420Y-46034271D01*
X115399680Y-48614671D01*
X115398514Y-48616892D01*
X115399700Y-48619418D01*
X115407001Y-50292554D01*
X115416667Y-50340601D01*
X115444197Y-50381803D01*
X115485399Y-50409333D01*
X115534000Y-50419000D01*
X144290001Y-50419000D01*
X144290000Y-103790000D01*
X137069925Y-103790000D01*
X137000000Y-103776091D01*
X136930074Y-103790000D01*
X136722972Y-103831195D01*
X136488119Y-103988119D01*
X136331195Y-104222972D01*
X136276091Y-104500000D01*
X136290000Y-104569925D01*
X136290001Y-118790000D01*
X105710000Y-118790000D01*
X105710000Y-104978571D01*
X105830000Y-105002440D01*
X107530000Y-105002440D01*
X107777765Y-104953157D01*
X107987809Y-104812809D01*
X108128157Y-104602765D01*
X108177440Y-104355000D01*
X108177440Y-102655000D01*
X108128157Y-102407235D01*
X107987809Y-102197191D01*
X107842354Y-102100000D01*
X107965217Y-102100000D01*
X108077000Y-102122235D01*
X108079216Y-102121794D01*
X110193422Y-104236001D01*
X110153843Y-104295235D01*
X110104560Y-104543000D01*
X110104560Y-105363000D01*
X110153843Y-105610765D01*
X110248882Y-105753000D01*
X110153843Y-105895235D01*
X110104560Y-106143000D01*
X110104560Y-106963000D01*
X110153843Y-107210765D01*
X110294191Y-107420809D01*
X110367000Y-107469459D01*
X110367001Y-112282420D01*
X108614853Y-114034569D01*
X108252720Y-114184569D01*
X107961569Y-114475720D01*
X107804000Y-114856126D01*
X107804000Y-115267874D01*
X107961569Y-115648280D01*
X108252720Y-115939431D01*
X108633126Y-116097000D01*
X109044874Y-116097000D01*
X109425280Y-115939431D01*
X109716431Y-115648280D01*
X109866431Y-115286147D01*
X110852578Y-114300000D01*
X115325908Y-114300000D01*
X115441161Y-114879418D01*
X115769375Y-115370625D01*
X116067761Y-115570000D01*
X115769375Y-115769375D01*
X115441161Y-116260582D01*
X115325908Y-116840000D01*
X115441161Y-117419418D01*
X115769375Y-117910625D01*
X116260582Y-118238839D01*
X116693744Y-118325000D01*
X116986256Y-118325000D01*
X117419418Y-118238839D01*
X117910625Y-117910625D01*
X118110000Y-117612239D01*
X118309375Y-117910625D01*
X118800582Y-118238839D01*
X119233744Y-118325000D01*
X119526256Y-118325000D01*
X119959418Y-118238839D01*
X120450625Y-117910625D01*
X120663843Y-117591522D01*
X120724817Y-117721358D01*
X121153076Y-118111645D01*
X121563110Y-118281476D01*
X121793000Y-118160155D01*
X121793000Y-116967000D01*
X122047000Y-116967000D01*
X122047000Y-118160155D01*
X122276890Y-118281476D01*
X122686924Y-118111645D01*
X123115183Y-117721358D01*
X123190000Y-117562046D01*
X123264817Y-117721358D01*
X123693076Y-118111645D01*
X124103110Y-118281476D01*
X124333000Y-118160155D01*
X124333000Y-116967000D01*
X122047000Y-116967000D01*
X121793000Y-116967000D01*
X121773000Y-116967000D01*
X121773000Y-116713000D01*
X121793000Y-116713000D01*
X121793000Y-116693000D01*
X122047000Y-116693000D01*
X122047000Y-116713000D01*
X124333000Y-116713000D01*
X124333000Y-116693000D01*
X124587000Y-116693000D01*
X124587000Y-116713000D01*
X124607000Y-116713000D01*
X124607000Y-116967000D01*
X124587000Y-116967000D01*
X124587000Y-118160155D01*
X124816890Y-118281476D01*
X125226924Y-118111645D01*
X125655183Y-117721358D01*
X125716157Y-117591522D01*
X125929375Y-117910625D01*
X126420582Y-118238839D01*
X126853744Y-118325000D01*
X127146256Y-118325000D01*
X127579418Y-118238839D01*
X128070625Y-117910625D01*
X128270000Y-117612239D01*
X128469375Y-117910625D01*
X128960582Y-118238839D01*
X129393744Y-118325000D01*
X129686256Y-118325000D01*
X130119418Y-118238839D01*
X130610625Y-117910625D01*
X130823843Y-117591522D01*
X130884817Y-117721358D01*
X131313076Y-118111645D01*
X131723110Y-118281476D01*
X131953000Y-118160155D01*
X131953000Y-116967000D01*
X132207000Y-116967000D01*
X132207000Y-118160155D01*
X132436890Y-118281476D01*
X132846924Y-118111645D01*
X133275183Y-117721358D01*
X133350000Y-117562046D01*
X133424817Y-117721358D01*
X133853076Y-118111645D01*
X134263110Y-118281476D01*
X134493000Y-118160155D01*
X134493000Y-116967000D01*
X134747000Y-116967000D01*
X134747000Y-118160155D01*
X134976890Y-118281476D01*
X135386924Y-118111645D01*
X135815183Y-117721358D01*
X136061486Y-117196892D01*
X135940819Y-116967000D01*
X134747000Y-116967000D01*
X134493000Y-116967000D01*
X132207000Y-116967000D01*
X131953000Y-116967000D01*
X131933000Y-116967000D01*
X131933000Y-116713000D01*
X131953000Y-116713000D01*
X131953000Y-116693000D01*
X132207000Y-116693000D01*
X132207000Y-116713000D01*
X134493000Y-116713000D01*
X134493000Y-116693000D01*
X134747000Y-116693000D01*
X134747000Y-116713000D01*
X135940819Y-116713000D01*
X136061486Y-116483108D01*
X135815183Y-115958642D01*
X135608145Y-115769961D01*
X135717765Y-115748157D01*
X135927809Y-115607809D01*
X136068157Y-115397765D01*
X136117440Y-115150000D01*
X136117440Y-113450000D01*
X136068157Y-113202235D01*
X135927809Y-112992191D01*
X135717765Y-112851843D01*
X135470000Y-112802560D01*
X133770000Y-112802560D01*
X133522235Y-112851843D01*
X133312191Y-112992191D01*
X133171843Y-113202235D01*
X133162816Y-113247619D01*
X133150625Y-113229375D01*
X132659418Y-112901161D01*
X132226256Y-112815000D01*
X131933744Y-112815000D01*
X131500582Y-112901161D01*
X131009375Y-113229375D01*
X130810000Y-113527761D01*
X130610625Y-113229375D01*
X130119418Y-112901161D01*
X129686256Y-112815000D01*
X129393744Y-112815000D01*
X128960582Y-112901161D01*
X128469375Y-113229375D01*
X128270000Y-113527761D01*
X128070625Y-113229375D01*
X127579418Y-112901161D01*
X127146256Y-112815000D01*
X126853744Y-112815000D01*
X126420582Y-112901161D01*
X125929375Y-113229375D01*
X125730000Y-113527761D01*
X125530625Y-113229375D01*
X125039418Y-112901161D01*
X124606256Y-112815000D01*
X124313744Y-112815000D01*
X123880582Y-112901161D01*
X123389375Y-113229375D01*
X123190000Y-113527761D01*
X122990625Y-113229375D01*
X122499418Y-112901161D01*
X122066256Y-112815000D01*
X121773744Y-112815000D01*
X121340582Y-112901161D01*
X120849375Y-113229375D01*
X120650000Y-113527761D01*
X120450625Y-113229375D01*
X119959418Y-112901161D01*
X119526256Y-112815000D01*
X119233744Y-112815000D01*
X118800582Y-112901161D01*
X118309375Y-113229375D01*
X118110000Y-113527761D01*
X117910625Y-113229375D01*
X117419418Y-112901161D01*
X116986256Y-112815000D01*
X116693744Y-112815000D01*
X116260582Y-112901161D01*
X115769375Y-113229375D01*
X115441161Y-113720582D01*
X115325908Y-114300000D01*
X110852578Y-114300000D01*
X111816156Y-113336423D01*
X111890049Y-113287049D01*
X111946721Y-113202235D01*
X112085651Y-112994311D01*
X112085652Y-112994310D01*
X112137000Y-112736165D01*
X112137000Y-112736161D01*
X112154337Y-112649001D01*
X112137000Y-112561841D01*
X112137000Y-107469459D01*
X112209809Y-107420809D01*
X112350157Y-107210765D01*
X112370374Y-107109126D01*
X122282000Y-107109126D01*
X122282000Y-107520874D01*
X122439569Y-107901280D01*
X122557001Y-108018712D01*
X122557000Y-108452789D01*
X122439569Y-108570220D01*
X122282000Y-108950626D01*
X122282000Y-109362374D01*
X122439569Y-109742780D01*
X122730720Y-110033931D01*
X123111126Y-110191500D01*
X123522874Y-110191500D01*
X123903280Y-110033931D01*
X124194431Y-109742780D01*
X124352000Y-109362374D01*
X124352000Y-108950626D01*
X124194431Y-108570220D01*
X124077000Y-108452789D01*
X124077000Y-108018711D01*
X124194431Y-107901280D01*
X124352000Y-107520874D01*
X124352000Y-107109126D01*
X124194431Y-106728720D01*
X123903280Y-106437569D01*
X123522874Y-106280000D01*
X123111126Y-106280000D01*
X122730720Y-106437569D01*
X122439569Y-106728720D01*
X122282000Y-107109126D01*
X112370374Y-107109126D01*
X112399440Y-106963000D01*
X112399440Y-106143000D01*
X112350157Y-105895235D01*
X112255118Y-105753000D01*
X112350157Y-105610765D01*
X112399440Y-105363000D01*
X112399440Y-104543000D01*
X112350157Y-104295235D01*
X112209809Y-104085191D01*
X112153437Y-104047524D01*
X112154337Y-104042999D01*
X112137000Y-103955839D01*
X112137000Y-103955835D01*
X112085652Y-103697690D01*
X111890049Y-103404951D01*
X111816156Y-103355577D01*
X109536501Y-101075923D01*
X109654146Y-100899855D01*
X109720000Y-100568783D01*
X109742235Y-100457001D01*
X109720000Y-100345219D01*
X109720000Y-96266000D01*
X137156041Y-96266000D01*
X137272350Y-96850725D01*
X137603570Y-97346430D01*
X137887281Y-97536000D01*
X137603570Y-97725570D01*
X137272350Y-98221275D01*
X137156041Y-98806000D01*
X137272350Y-99390725D01*
X137603570Y-99886430D01*
X138099275Y-100217650D01*
X138536402Y-100304600D01*
X138831598Y-100304600D01*
X139268725Y-100217650D01*
X139764430Y-99886430D01*
X139954000Y-99602719D01*
X140143570Y-99886430D01*
X140639275Y-100217650D01*
X141076402Y-100304600D01*
X141371598Y-100304600D01*
X141808725Y-100217650D01*
X142304430Y-99886430D01*
X142635650Y-99390725D01*
X142751959Y-98806000D01*
X142635650Y-98221275D01*
X142304430Y-97725570D01*
X142020719Y-97536000D01*
X142304430Y-97346430D01*
X142635650Y-96850725D01*
X142751959Y-96266000D01*
X142635650Y-95681275D01*
X142304430Y-95185570D01*
X142002979Y-94984146D01*
X142112490Y-94932821D01*
X142506688Y-94500947D01*
X142678958Y-94085026D01*
X142557817Y-93853000D01*
X141351000Y-93853000D01*
X141351000Y-93873000D01*
X141097000Y-93873000D01*
X141097000Y-93853000D01*
X138811000Y-93853000D01*
X138811000Y-93873000D01*
X138557000Y-93873000D01*
X138557000Y-93853000D01*
X137350183Y-93853000D01*
X137229042Y-94085026D01*
X137401312Y-94500947D01*
X137795510Y-94932821D01*
X137905021Y-94984146D01*
X137603570Y-95185570D01*
X137272350Y-95681275D01*
X137156041Y-96266000D01*
X109720000Y-96266000D01*
X109720000Y-95496000D01*
X115300783Y-95496000D01*
X115631855Y-95430146D01*
X116007289Y-95179289D01*
X116258146Y-94803855D01*
X116346235Y-94361000D01*
X116258146Y-93918145D01*
X116007289Y-93542711D01*
X115631855Y-93291854D01*
X115300783Y-93226000D01*
X109720000Y-93226000D01*
X109720000Y-90637355D01*
X109783582Y-90679839D01*
X110216744Y-90766000D01*
X110509256Y-90766000D01*
X110942418Y-90679839D01*
X111433625Y-90351625D01*
X111633000Y-90053239D01*
X111832375Y-90351625D01*
X112323582Y-90679839D01*
X112756744Y-90766000D01*
X113049256Y-90766000D01*
X113482418Y-90679839D01*
X113973625Y-90351625D01*
X114173000Y-90053239D01*
X114372375Y-90351625D01*
X114863582Y-90679839D01*
X115296744Y-90766000D01*
X115589256Y-90766000D01*
X116022418Y-90679839D01*
X116513625Y-90351625D01*
X116713000Y-90053239D01*
X116912375Y-90351625D01*
X117403582Y-90679839D01*
X117836744Y-90766000D01*
X118129256Y-90766000D01*
X118562418Y-90679839D01*
X119053625Y-90351625D01*
X119253000Y-90053239D01*
X119452375Y-90351625D01*
X119943582Y-90679839D01*
X120376744Y-90766000D01*
X120669256Y-90766000D01*
X121102418Y-90679839D01*
X121593625Y-90351625D01*
X121793000Y-90053239D01*
X121992375Y-90351625D01*
X122483582Y-90679839D01*
X122916744Y-90766000D01*
X123209256Y-90766000D01*
X123642418Y-90679839D01*
X124133625Y-90351625D01*
X124333000Y-90053239D01*
X124532375Y-90351625D01*
X125023582Y-90679839D01*
X125456744Y-90766000D01*
X125749256Y-90766000D01*
X126182418Y-90679839D01*
X126673625Y-90351625D01*
X126685816Y-90333381D01*
X126694843Y-90378765D01*
X126835191Y-90588809D01*
X127045235Y-90729157D01*
X127293000Y-90778440D01*
X128993000Y-90778440D01*
X129240765Y-90729157D01*
X129450809Y-90588809D01*
X129591157Y-90378765D01*
X129640440Y-90131000D01*
X129640440Y-88431000D01*
X129591157Y-88183235D01*
X129450809Y-87973191D01*
X129240765Y-87832843D01*
X128993000Y-87783560D01*
X127293000Y-87783560D01*
X127045235Y-87832843D01*
X126835191Y-87973191D01*
X126694843Y-88183235D01*
X126685816Y-88228619D01*
X126673625Y-88210375D01*
X126182418Y-87882161D01*
X125749256Y-87796000D01*
X125456744Y-87796000D01*
X125023582Y-87882161D01*
X124532375Y-88210375D01*
X124333000Y-88508761D01*
X124133625Y-88210375D01*
X123642418Y-87882161D01*
X123209256Y-87796000D01*
X122916744Y-87796000D01*
X122483582Y-87882161D01*
X121992375Y-88210375D01*
X121793000Y-88508761D01*
X121593625Y-88210375D01*
X121102418Y-87882161D01*
X120669256Y-87796000D01*
X120376744Y-87796000D01*
X119943582Y-87882161D01*
X119452375Y-88210375D01*
X119253000Y-88508761D01*
X119053625Y-88210375D01*
X118562418Y-87882161D01*
X118129256Y-87796000D01*
X117836744Y-87796000D01*
X117403582Y-87882161D01*
X116912375Y-88210375D01*
X116713000Y-88508761D01*
X116513625Y-88210375D01*
X116022418Y-87882161D01*
X115589256Y-87796000D01*
X115296744Y-87796000D01*
X114863582Y-87882161D01*
X114372375Y-88210375D01*
X114173000Y-88508761D01*
X113973625Y-88210375D01*
X113482418Y-87882161D01*
X113049256Y-87796000D01*
X112756744Y-87796000D01*
X112323582Y-87882161D01*
X111832375Y-88210375D01*
X111633000Y-88508761D01*
X111433625Y-88210375D01*
X110942418Y-87882161D01*
X110509256Y-87796000D01*
X110216744Y-87796000D01*
X109976305Y-87843826D01*
X110963132Y-86857000D01*
X131262110Y-86857000D01*
X131365565Y-86926126D01*
X131709000Y-86994440D01*
X132959000Y-86994440D01*
X133302435Y-86926126D01*
X133593586Y-86731586D01*
X133788126Y-86440435D01*
X133856440Y-86097000D01*
X133856440Y-85883302D01*
X133905565Y-85916126D01*
X133989000Y-85932722D01*
X133989001Y-87761000D01*
X133759685Y-87761000D01*
X133593586Y-87512414D01*
X133302435Y-87317874D01*
X132959000Y-87249560D01*
X131709000Y-87249560D01*
X131365565Y-87317874D01*
X131074414Y-87512414D01*
X130879874Y-87803565D01*
X130811560Y-88147000D01*
X130811560Y-88897000D01*
X130879874Y-89240435D01*
X131074414Y-89531586D01*
X131365565Y-89726126D01*
X131709000Y-89794440D01*
X132959000Y-89794440D01*
X133302435Y-89726126D01*
X133593586Y-89531586D01*
X133593978Y-89531000D01*
X134786836Y-89531000D01*
X134874000Y-89548338D01*
X134961165Y-89531000D01*
X137177217Y-89531000D01*
X137222243Y-89757365D01*
X137362591Y-89967409D01*
X137572635Y-90107757D01*
X137598651Y-90112932D01*
X137272350Y-90601275D01*
X137156041Y-91186000D01*
X137272350Y-91770725D01*
X137603570Y-92266430D01*
X137905021Y-92467854D01*
X137795510Y-92519179D01*
X137401312Y-92951053D01*
X137229042Y-93366974D01*
X137350183Y-93599000D01*
X138557000Y-93599000D01*
X138557000Y-93579000D01*
X138811000Y-93579000D01*
X138811000Y-93599000D01*
X141097000Y-93599000D01*
X141097000Y-93579000D01*
X141351000Y-93579000D01*
X141351000Y-93599000D01*
X142557817Y-93599000D01*
X142678958Y-93366974D01*
X142506688Y-92951053D01*
X142112490Y-92519179D01*
X142002979Y-92467854D01*
X142304430Y-92266430D01*
X142635650Y-91770725D01*
X142751959Y-91186000D01*
X142635650Y-90601275D01*
X142304430Y-90105570D01*
X142020719Y-89916000D01*
X142304430Y-89726430D01*
X142635650Y-89230725D01*
X142751959Y-88646000D01*
X142635650Y-88061275D01*
X142304430Y-87565570D01*
X142299500Y-87562276D01*
X142299500Y-84669165D01*
X142316838Y-84582000D01*
X142299500Y-84494835D01*
X142299500Y-82142643D01*
X142316837Y-82055483D01*
X142314155Y-82042000D01*
X142316837Y-82028517D01*
X142299500Y-81941357D01*
X142299500Y-72159659D01*
X142316837Y-72072499D01*
X142299500Y-71985339D01*
X142299500Y-71985335D01*
X142248152Y-71727190D01*
X142052549Y-71434451D01*
X141978656Y-71385077D01*
X141276425Y-70682847D01*
X141227049Y-70608951D01*
X140934310Y-70413348D01*
X140676165Y-70362000D01*
X140676161Y-70362000D01*
X140589000Y-70344663D01*
X140501839Y-70362000D01*
X138490007Y-70362000D01*
X138127874Y-70212000D01*
X137716126Y-70212000D01*
X137335720Y-70369569D01*
X137044569Y-70660720D01*
X136887000Y-71041126D01*
X136887000Y-71452874D01*
X137044569Y-71833280D01*
X137093289Y-71882000D01*
X137044569Y-71930720D01*
X136887000Y-72311126D01*
X136887000Y-72722874D01*
X137044569Y-73103280D01*
X137335720Y-73394431D01*
X137697852Y-73544431D01*
X137716017Y-73562596D01*
X137716017Y-80507000D01*
X137539750Y-80507000D01*
X137381000Y-80665750D01*
X137381000Y-81915000D01*
X137401000Y-81915000D01*
X137401000Y-82169000D01*
X137381000Y-82169000D01*
X137381000Y-82189000D01*
X137127000Y-82189000D01*
X137127000Y-82169000D01*
X137107000Y-82169000D01*
X137107000Y-81915000D01*
X137127000Y-81915000D01*
X137127000Y-80665750D01*
X136968250Y-80507000D01*
X136517691Y-80507000D01*
X136421440Y-80546869D01*
X136421440Y-79433000D01*
X136372157Y-79185235D01*
X136231809Y-78975191D01*
X136021765Y-78834843D01*
X135774000Y-78785560D01*
X133974000Y-78785560D01*
X133726235Y-78834843D01*
X133516191Y-78975191D01*
X133375843Y-79185235D01*
X133326560Y-79433000D01*
X133326560Y-80653000D01*
X133375843Y-80900765D01*
X133495680Y-81080113D01*
X133419874Y-81193565D01*
X133351560Y-81537000D01*
X133351560Y-82287000D01*
X133419874Y-82630435D01*
X133614414Y-82921586D01*
X133905565Y-83116126D01*
X134249000Y-83184440D01*
X134510862Y-83184440D01*
X134765982Y-83439560D01*
X134249000Y-83439560D01*
X133905565Y-83507874D01*
X133614414Y-83702414D01*
X133419874Y-83993565D01*
X133351560Y-84337000D01*
X133351560Y-84550698D01*
X133302435Y-84517874D01*
X132959000Y-84449560D01*
X131709000Y-84449560D01*
X131365565Y-84517874D01*
X131262110Y-84587000D01*
X129895148Y-84587000D01*
X129990800Y-84356074D01*
X129990800Y-83944326D01*
X129840800Y-83582193D01*
X129840800Y-77468750D01*
X133339000Y-77468750D01*
X133339000Y-77919309D01*
X133435673Y-78152698D01*
X133614301Y-78331327D01*
X133847690Y-78428000D01*
X134588250Y-78428000D01*
X134747000Y-78269250D01*
X134747000Y-77310000D01*
X135001000Y-77310000D01*
X135001000Y-78269250D01*
X135159750Y-78428000D01*
X135900310Y-78428000D01*
X136133699Y-78331327D01*
X136312327Y-78152698D01*
X136409000Y-77919309D01*
X136409000Y-77468750D01*
X136250250Y-77310000D01*
X135001000Y-77310000D01*
X134747000Y-77310000D01*
X133497750Y-77310000D01*
X133339000Y-77468750D01*
X129840800Y-77468750D01*
X129840800Y-76446691D01*
X133339000Y-76446691D01*
X133339000Y-76897250D01*
X133497750Y-77056000D01*
X134747000Y-77056000D01*
X134747000Y-76096750D01*
X135001000Y-76096750D01*
X135001000Y-77056000D01*
X136250250Y-77056000D01*
X136409000Y-76897250D01*
X136409000Y-76446691D01*
X136312327Y-76213302D01*
X136133699Y-76034673D01*
X135900310Y-75938000D01*
X135159750Y-75938000D01*
X135001000Y-76096750D01*
X134747000Y-76096750D01*
X134588250Y-75938000D01*
X133847690Y-75938000D01*
X133614301Y-76034673D01*
X133435673Y-76213302D01*
X133339000Y-76446691D01*
X129840800Y-76446691D01*
X129840800Y-71815007D01*
X129990800Y-71452874D01*
X129990800Y-71041126D01*
X129833231Y-70660720D01*
X129542080Y-70369569D01*
X129161674Y-70212000D01*
X128749926Y-70212000D01*
X128369520Y-70369569D01*
X128078369Y-70660720D01*
X127920800Y-71041126D01*
X127920800Y-71452874D01*
X128070800Y-71815007D01*
X128070801Y-83582191D01*
X127920800Y-83944326D01*
X127920800Y-84356074D01*
X128016452Y-84587000D01*
X111625000Y-84587000D01*
X111625000Y-68564782D01*
X111647235Y-68452999D01*
X111559146Y-68010145D01*
X111308289Y-67634711D01*
X111213522Y-67571390D01*
X107307000Y-63664869D01*
X107307000Y-59301000D01*
X139303783Y-59301000D01*
X139634855Y-59235146D01*
X140010289Y-58984289D01*
X140261146Y-58608855D01*
X140349235Y-58166000D01*
X140261146Y-57723145D01*
X140010289Y-57347711D01*
X139634855Y-57096854D01*
X139303783Y-57031000D01*
X107307000Y-57031000D01*
X107307000Y-47871000D01*
X107626132Y-47871000D01*
X107708191Y-47993809D01*
X107918235Y-48134157D01*
X108166000Y-48183440D01*
X109766000Y-48183440D01*
X110013765Y-48134157D01*
X110223809Y-47993809D01*
X110364157Y-47783765D01*
X110372117Y-47743745D01*
X110637861Y-47743745D01*
X110711995Y-47989864D01*
X111249223Y-48182965D01*
X111819454Y-48155778D01*
X112220005Y-47989864D01*
X112294139Y-47743745D01*
X111466000Y-46915605D01*
X110637861Y-47743745D01*
X110372117Y-47743745D01*
X110410693Y-47549813D01*
X110458255Y-47564139D01*
X111286395Y-46736000D01*
X111645605Y-46736000D01*
X112473745Y-47564139D01*
X112719864Y-47490005D01*
X112912965Y-46952777D01*
X112885778Y-46382546D01*
X112719864Y-45981995D01*
X112473745Y-45907861D01*
X111645605Y-46736000D01*
X111286395Y-46736000D01*
X110458255Y-45907861D01*
X110410693Y-45922187D01*
X110372118Y-45728255D01*
X110637861Y-45728255D01*
X111466000Y-46556395D01*
X112294139Y-45728255D01*
X112220005Y-45482136D01*
X111682777Y-45289035D01*
X111112546Y-45316222D01*
X110711995Y-45482136D01*
X110637861Y-45728255D01*
X110372118Y-45728255D01*
X110364157Y-45688235D01*
X110223809Y-45478191D01*
X110013765Y-45337843D01*
X109766000Y-45288560D01*
X108970572Y-45288560D01*
X109436132Y-44823000D01*
X115383135Y-44823000D01*
X115385736Y-45419221D01*
G36*
X106807000Y-98298000D02*
X106827000Y-98298000D01*
X106827000Y-98552000D01*
X106807000Y-98552000D01*
X106807000Y-98572000D01*
X106553000Y-98572000D01*
X106553000Y-98552000D01*
X106533000Y-98552000D01*
X106533000Y-98298000D01*
X106553000Y-98298000D01*
X106553000Y-98278000D01*
X106807000Y-98278000D01*
X106807000Y-98298000D01*
X106807000Y-98298000D01*
G37*
X106807000Y-98298000D02*
X106827000Y-98298000D01*
X106827000Y-98552000D01*
X106807000Y-98552000D01*
X106807000Y-98572000D01*
X106553000Y-98572000D01*
X106553000Y-98552000D01*
X106533000Y-98552000D01*
X106533000Y-98298000D01*
X106553000Y-98298000D01*
X106553000Y-98278000D01*
X106807000Y-98278000D01*
X106807000Y-98298000D01*
G04 #@! TD*
M02*
