G04 #@! TF.GenerationSoftware,KiCad,Pcbnew,(5.0.0)*
G04 #@! TF.CreationDate,2018-12-13T19:33:25+01:00*
G04 #@! TF.ProjectId,TrackModBusMaster_piggyback,547261636B4D6F644275734D61737465,rev?*
G04 #@! TF.SameCoordinates,Original*
G04 #@! TF.FileFunction,Legend,Top*
G04 #@! TF.FilePolarity,Positive*
%FSLAX46Y46*%
G04 Gerber Fmt 4.6, Leading zero omitted, Abs format (unit mm)*
G04 Created by KiCad (PCBNEW (5.0.0)) date 12/13/18 19:33:25*
%MOMM*%
%LPD*%
G01*
G04 APERTURE LIST*
%ADD10C,0.500000*%
%ADD11C,0.300000*%
%ADD12C,0.120000*%
%ADD13C,0.150000*%
%ADD14C,0.010000*%
G04 APERTURE END LIST*
D10*
X134594600Y-112321885D02*
X134689838Y-112417123D01*
X134594600Y-112512361D01*
X134499361Y-112417123D01*
X134594600Y-112321885D01*
X134594600Y-112512361D01*
X134762761Y-99186952D02*
X134762761Y-98806000D01*
X134667523Y-98615523D01*
X134572285Y-98520285D01*
X134286571Y-98329809D01*
X133905619Y-98234571D01*
X133143714Y-98234571D01*
X132953238Y-98329809D01*
X132858000Y-98425047D01*
X132762761Y-98615523D01*
X132762761Y-98996476D01*
X132858000Y-99186952D01*
X132953238Y-99282190D01*
X133143714Y-99377428D01*
X133619904Y-99377428D01*
X133810380Y-99282190D01*
X133905619Y-99186952D01*
X134000857Y-98996476D01*
X134000857Y-98615523D01*
X133905619Y-98425047D01*
X133810380Y-98329809D01*
X133619904Y-98234571D01*
D11*
X112471285Y-80180571D02*
X112471285Y-78680571D01*
X113042714Y-78680571D01*
X113185571Y-78752000D01*
X113257000Y-78823428D01*
X113328428Y-78966285D01*
X113328428Y-79180571D01*
X113257000Y-79323428D01*
X113185571Y-79394857D01*
X113042714Y-79466285D01*
X112471285Y-79466285D01*
X113971285Y-80180571D02*
X113971285Y-78680571D01*
X115542714Y-80037714D02*
X115471285Y-80109142D01*
X115257000Y-80180571D01*
X115114142Y-80180571D01*
X114899857Y-80109142D01*
X114757000Y-79966285D01*
X114685571Y-79823428D01*
X114614142Y-79537714D01*
X114614142Y-79323428D01*
X114685571Y-79037714D01*
X114757000Y-78894857D01*
X114899857Y-78752000D01*
X115114142Y-78680571D01*
X115257000Y-78680571D01*
X115471285Y-78752000D01*
X115542714Y-78823428D01*
X116971285Y-80180571D02*
X116114142Y-80180571D01*
X116542714Y-80180571D02*
X116542714Y-78680571D01*
X116399857Y-78894857D01*
X116257000Y-79037714D01*
X116114142Y-79109142D01*
X117828428Y-79323428D02*
X117685571Y-79252000D01*
X117614142Y-79180571D01*
X117542714Y-79037714D01*
X117542714Y-78966285D01*
X117614142Y-78823428D01*
X117685571Y-78752000D01*
X117828428Y-78680571D01*
X118114142Y-78680571D01*
X118257000Y-78752000D01*
X118328428Y-78823428D01*
X118399857Y-78966285D01*
X118399857Y-79037714D01*
X118328428Y-79180571D01*
X118257000Y-79252000D01*
X118114142Y-79323428D01*
X117828428Y-79323428D01*
X117685571Y-79394857D01*
X117614142Y-79466285D01*
X117542714Y-79609142D01*
X117542714Y-79894857D01*
X117614142Y-80037714D01*
X117685571Y-80109142D01*
X117828428Y-80180571D01*
X118114142Y-80180571D01*
X118257000Y-80109142D01*
X118328428Y-80037714D01*
X118399857Y-79894857D01*
X118399857Y-79609142D01*
X118328428Y-79466285D01*
X118257000Y-79394857D01*
X118114142Y-79323428D01*
X119542714Y-79394857D02*
X119042714Y-79394857D01*
X119042714Y-80180571D02*
X119042714Y-78680571D01*
X119757000Y-78680571D01*
X120257000Y-78823428D02*
X120328428Y-78752000D01*
X120471285Y-78680571D01*
X120828428Y-78680571D01*
X120971285Y-78752000D01*
X121042714Y-78823428D01*
X121114142Y-78966285D01*
X121114142Y-79109142D01*
X121042714Y-79323428D01*
X120185571Y-80180571D01*
X121114142Y-80180571D01*
X121614142Y-78680571D02*
X122614142Y-78680571D01*
X121971285Y-80180571D01*
X123185571Y-80180571D02*
X123185571Y-78680571D01*
X123328428Y-79609142D02*
X123757000Y-80180571D01*
X123757000Y-79180571D02*
X123185571Y-79752000D01*
X125042714Y-79180571D02*
X125042714Y-80180571D01*
X124685571Y-78609142D02*
X124328428Y-79680571D01*
X125257000Y-79680571D01*
X126114142Y-78680571D02*
X126257000Y-78680571D01*
X126399857Y-78752000D01*
X126471285Y-78823428D01*
X126542714Y-78966285D01*
X126614142Y-79252000D01*
X126614142Y-79609142D01*
X126542714Y-79894857D01*
X126471285Y-80037714D01*
X126399857Y-80109142D01*
X126257000Y-80180571D01*
X126114142Y-80180571D01*
X125971285Y-80109142D01*
X125899857Y-80037714D01*
X125828428Y-79894857D01*
X125757000Y-79609142D01*
X125757000Y-79252000D01*
X125828428Y-78966285D01*
X125899857Y-78823428D01*
X125971285Y-78752000D01*
X126114142Y-78680571D01*
X106231571Y-106870428D02*
X106660142Y-105727571D01*
X107088714Y-106870428D01*
X141643571Y-65682000D02*
X140143571Y-65682000D01*
X141215000Y-65182000D01*
X140143571Y-64682000D01*
X141643571Y-64682000D01*
X141643571Y-63753428D02*
X141572142Y-63896285D01*
X141500714Y-63967714D01*
X141357857Y-64039142D01*
X140929285Y-64039142D01*
X140786428Y-63967714D01*
X140715000Y-63896285D01*
X140643571Y-63753428D01*
X140643571Y-63539142D01*
X140715000Y-63396285D01*
X140786428Y-63324857D01*
X140929285Y-63253428D01*
X141357857Y-63253428D01*
X141500714Y-63324857D01*
X141572142Y-63396285D01*
X141643571Y-63539142D01*
X141643571Y-63753428D01*
X141643571Y-61967714D02*
X140143571Y-61967714D01*
X141572142Y-61967714D02*
X141643571Y-62110571D01*
X141643571Y-62396285D01*
X141572142Y-62539142D01*
X141500714Y-62610571D01*
X141357857Y-62682000D01*
X140929285Y-62682000D01*
X140786428Y-62610571D01*
X140715000Y-62539142D01*
X140643571Y-62396285D01*
X140643571Y-62110571D01*
X140715000Y-61967714D01*
X140857857Y-60753428D02*
X140929285Y-60539142D01*
X141000714Y-60467714D01*
X141143571Y-60396285D01*
X141357857Y-60396285D01*
X141500714Y-60467714D01*
X141572142Y-60539142D01*
X141643571Y-60682000D01*
X141643571Y-61253428D01*
X140143571Y-61253428D01*
X140143571Y-60753428D01*
X140215000Y-60610571D01*
X140286428Y-60539142D01*
X140429285Y-60467714D01*
X140572142Y-60467714D01*
X140715000Y-60539142D01*
X140786428Y-60610571D01*
X140857857Y-60753428D01*
X140857857Y-61253428D01*
X140643571Y-59110571D02*
X141643571Y-59110571D01*
X140643571Y-59753428D02*
X141429285Y-59753428D01*
X141572142Y-59682000D01*
X141643571Y-59539142D01*
X141643571Y-59324857D01*
X141572142Y-59182000D01*
X141500714Y-59110571D01*
X141572142Y-58467714D02*
X141643571Y-58324857D01*
X141643571Y-58039142D01*
X141572142Y-57896285D01*
X141429285Y-57824857D01*
X141357857Y-57824857D01*
X141215000Y-57896285D01*
X141143571Y-58039142D01*
X141143571Y-58253428D01*
X141072142Y-58396285D01*
X140929285Y-58467714D01*
X140857857Y-58467714D01*
X140715000Y-58396285D01*
X140643571Y-58253428D01*
X140643571Y-58039142D01*
X140715000Y-57896285D01*
X140072142Y-56110571D02*
X142000714Y-57396285D01*
X141572142Y-55682000D02*
X141643571Y-55467714D01*
X141643571Y-55110571D01*
X141572142Y-54967714D01*
X141500714Y-54896285D01*
X141357857Y-54824857D01*
X141215000Y-54824857D01*
X141072142Y-54896285D01*
X141000714Y-54967714D01*
X140929285Y-55110571D01*
X140857857Y-55396285D01*
X140786428Y-55539142D01*
X140715000Y-55610571D01*
X140572142Y-55682000D01*
X140429285Y-55682000D01*
X140286428Y-55610571D01*
X140215000Y-55539142D01*
X140143571Y-55396285D01*
X140143571Y-55039142D01*
X140215000Y-54824857D01*
X141643571Y-54182000D02*
X140143571Y-54182000D01*
X140143571Y-53610571D01*
X140215000Y-53467714D01*
X140286428Y-53396285D01*
X140429285Y-53324857D01*
X140643571Y-53324857D01*
X140786428Y-53396285D01*
X140857857Y-53467714D01*
X140929285Y-53610571D01*
X140929285Y-54182000D01*
X141643571Y-52682000D02*
X140143571Y-52682000D01*
X144193571Y-62503428D02*
X142693571Y-62503428D01*
X143765000Y-62003428D01*
X142693571Y-61503428D01*
X144193571Y-61503428D01*
X144193571Y-60146285D02*
X143407857Y-60146285D01*
X143265000Y-60217714D01*
X143193571Y-60360571D01*
X143193571Y-60646285D01*
X143265000Y-60789142D01*
X144122142Y-60146285D02*
X144193571Y-60289142D01*
X144193571Y-60646285D01*
X144122142Y-60789142D01*
X143979285Y-60860571D01*
X143836428Y-60860571D01*
X143693571Y-60789142D01*
X143622142Y-60646285D01*
X143622142Y-60289142D01*
X143550714Y-60146285D01*
X144122142Y-59503428D02*
X144193571Y-59360571D01*
X144193571Y-59074857D01*
X144122142Y-58932000D01*
X143979285Y-58860571D01*
X143907857Y-58860571D01*
X143765000Y-58932000D01*
X143693571Y-59074857D01*
X143693571Y-59289142D01*
X143622142Y-59432000D01*
X143479285Y-59503428D01*
X143407857Y-59503428D01*
X143265000Y-59432000D01*
X143193571Y-59289142D01*
X143193571Y-59074857D01*
X143265000Y-58932000D01*
X143193571Y-58432000D02*
X143193571Y-57860571D01*
X142693571Y-58217714D02*
X143979285Y-58217714D01*
X144122142Y-58146285D01*
X144193571Y-58003428D01*
X144193571Y-57860571D01*
X144122142Y-56789142D02*
X144193571Y-56932000D01*
X144193571Y-57217714D01*
X144122142Y-57360571D01*
X143979285Y-57432000D01*
X143407857Y-57432000D01*
X143265000Y-57360571D01*
X143193571Y-57217714D01*
X143193571Y-56932000D01*
X143265000Y-56789142D01*
X143407857Y-56717714D01*
X143550714Y-56717714D01*
X143693571Y-57432000D01*
X144193571Y-56074857D02*
X143193571Y-56074857D01*
X143479285Y-56074857D02*
X143336428Y-56003428D01*
X143265000Y-55932000D01*
X143193571Y-55789142D01*
X143193571Y-55646285D01*
X105731571Y-118085571D02*
X106803000Y-118085571D01*
X107017285Y-118157000D01*
X107160142Y-118299857D01*
X107231571Y-118514142D01*
X107231571Y-118657000D01*
X107160142Y-117442714D02*
X107231571Y-117228428D01*
X107231571Y-116871285D01*
X107160142Y-116728428D01*
X107088714Y-116657000D01*
X106945857Y-116585571D01*
X106803000Y-116585571D01*
X106660142Y-116657000D01*
X106588714Y-116728428D01*
X106517285Y-116871285D01*
X106445857Y-117157000D01*
X106374428Y-117299857D01*
X106303000Y-117371285D01*
X106160142Y-117442714D01*
X106017285Y-117442714D01*
X105874428Y-117371285D01*
X105803000Y-117299857D01*
X105731571Y-117157000D01*
X105731571Y-116799857D01*
X105803000Y-116585571D01*
X107231571Y-115942714D02*
X105731571Y-115942714D01*
X106445857Y-114728428D02*
X106445857Y-115228428D01*
X107231571Y-115228428D02*
X105731571Y-115228428D01*
X105731571Y-114514142D01*
X105874428Y-112871285D02*
X105803000Y-112799857D01*
X105731571Y-112657000D01*
X105731571Y-112299857D01*
X105803000Y-112157000D01*
X105874428Y-112085571D01*
X106017285Y-112014142D01*
X106160142Y-112014142D01*
X106374428Y-112085571D01*
X107231571Y-112942714D01*
X107231571Y-112014142D01*
X105731571Y-111085571D02*
X105731571Y-110942714D01*
X105803000Y-110799857D01*
X105874428Y-110728428D01*
X106017285Y-110657000D01*
X106303000Y-110585571D01*
X106660142Y-110585571D01*
X106945857Y-110657000D01*
X107088714Y-110728428D01*
X107160142Y-110799857D01*
X107231571Y-110942714D01*
X107231571Y-111085571D01*
X107160142Y-111228428D01*
X107088714Y-111299857D01*
X106945857Y-111371285D01*
X106660142Y-111442714D01*
X106303000Y-111442714D01*
X106017285Y-111371285D01*
X105874428Y-111299857D01*
X105803000Y-111228428D01*
X105731571Y-111085571D01*
X107231571Y-109157000D02*
X107231571Y-110014142D01*
X107231571Y-109585571D02*
X105731571Y-109585571D01*
X105945857Y-109728428D01*
X106088714Y-109871285D01*
X106160142Y-110014142D01*
X107231571Y-108442714D02*
X107231571Y-108157000D01*
X107160142Y-108014142D01*
X107088714Y-107942714D01*
X106874428Y-107799857D01*
X106588714Y-107728428D01*
X106017285Y-107728428D01*
X105874428Y-107799857D01*
X105803000Y-107871285D01*
X105731571Y-108014142D01*
X105731571Y-108299857D01*
X105803000Y-108442714D01*
X105874428Y-108514142D01*
X106017285Y-108585571D01*
X106374428Y-108585571D01*
X106517285Y-108514142D01*
X106588714Y-108442714D01*
X106660142Y-108299857D01*
X106660142Y-108014142D01*
X106588714Y-107871285D01*
X106517285Y-107799857D01*
X106374428Y-107728428D01*
D10*
X134635761Y-88074571D02*
X134635761Y-89217428D01*
X134635761Y-88646000D02*
X132635761Y-88646000D01*
X132921476Y-88836476D01*
X133111952Y-89026952D01*
X133207190Y-89217428D01*
X134620000Y-43462485D02*
X134715238Y-43557723D01*
X134620000Y-43652961D01*
X134524761Y-43557723D01*
X134620000Y-43462485D01*
X134620000Y-43652961D01*
X110617000Y-118570285D02*
X110712238Y-118665523D01*
X110617000Y-118760761D01*
X110521761Y-118665523D01*
X110617000Y-118570285D01*
X110617000Y-118760761D01*
X111125000Y-86058285D02*
X111220238Y-86153523D01*
X111125000Y-86248761D01*
X111029761Y-86153523D01*
X111125000Y-86058285D01*
X111125000Y-86248761D01*
X114554000Y-106759285D02*
X114649238Y-106854523D01*
X114554000Y-106949761D01*
X114458761Y-106854523D01*
X114554000Y-106759285D01*
X114554000Y-106949761D01*
X123571000Y-106378285D02*
X123666238Y-106473523D01*
X123571000Y-106568761D01*
X123475761Y-106473523D01*
X123571000Y-106378285D01*
X123571000Y-106568761D01*
X125857000Y-92154285D02*
X125952238Y-92249523D01*
X125857000Y-92344761D01*
X125761761Y-92249523D01*
X125857000Y-92154285D01*
X125857000Y-92344761D01*
X134493000Y-76787285D02*
X134588238Y-76882523D01*
X134493000Y-76977761D01*
X134397761Y-76882523D01*
X134493000Y-76787285D01*
X134493000Y-76977761D01*
X129184400Y-69878485D02*
X129279638Y-69973723D01*
X129184400Y-70068961D01*
X129089161Y-69973723D01*
X129184400Y-69878485D01*
X129184400Y-70068961D01*
D11*
X116526571Y-55244857D02*
X116526571Y-54387714D01*
X118026571Y-54816285D02*
X116526571Y-54816285D01*
X116526571Y-54030571D02*
X118026571Y-53030571D01*
X116526571Y-53030571D02*
X118026571Y-54030571D01*
X115486571Y-54352000D02*
X114772285Y-54852000D01*
X115486571Y-55209142D02*
X113986571Y-55209142D01*
X113986571Y-54637714D01*
X114058000Y-54494857D01*
X114129428Y-54423428D01*
X114272285Y-54352000D01*
X114486571Y-54352000D01*
X114629428Y-54423428D01*
X114700857Y-54494857D01*
X114772285Y-54637714D01*
X114772285Y-55209142D01*
X113986571Y-53852000D02*
X115486571Y-52852000D01*
X113986571Y-52852000D02*
X115486571Y-53852000D01*
X112160857Y-55161428D02*
X112160857Y-54661428D01*
X112946571Y-54447142D02*
X112946571Y-55161428D01*
X111446571Y-55161428D01*
X111446571Y-54447142D01*
X112946571Y-52947142D02*
X112232285Y-53447142D01*
X112946571Y-53804285D02*
X111446571Y-53804285D01*
X111446571Y-53232857D01*
X111518000Y-53090000D01*
X111589428Y-53018571D01*
X111732285Y-52947142D01*
X111946571Y-52947142D01*
X112089428Y-53018571D01*
X112160857Y-53090000D01*
X112232285Y-53232857D01*
X112232285Y-53804285D01*
X112946571Y-51447142D02*
X112232285Y-51947142D01*
X112946571Y-52304285D02*
X111446571Y-52304285D01*
X111446571Y-51732857D01*
X111518000Y-51590000D01*
X111589428Y-51518571D01*
X111732285Y-51447142D01*
X111946571Y-51447142D01*
X112089428Y-51518571D01*
X112160857Y-51590000D01*
X112232285Y-51732857D01*
X112232285Y-52304285D01*
X108906571Y-55375714D02*
X110406571Y-55018571D01*
X109335142Y-54732857D01*
X110406571Y-54447142D01*
X108906571Y-54090000D01*
X109978000Y-53590000D02*
X109978000Y-52875714D01*
X110406571Y-53732857D02*
X108906571Y-53232857D01*
X110406571Y-52732857D01*
X110406571Y-51375714D02*
X109692285Y-51875714D01*
X110406571Y-52232857D02*
X108906571Y-52232857D01*
X108906571Y-51661428D01*
X108978000Y-51518571D01*
X109049428Y-51447142D01*
X109192285Y-51375714D01*
X109406571Y-51375714D01*
X109549428Y-51447142D01*
X109620857Y-51518571D01*
X109692285Y-51661428D01*
X109692285Y-52232857D01*
X107866571Y-54447142D02*
X107152285Y-54947142D01*
X107866571Y-55304285D02*
X106366571Y-55304285D01*
X106366571Y-54732857D01*
X106438000Y-54590000D01*
X106509428Y-54518571D01*
X106652285Y-54447142D01*
X106866571Y-54447142D01*
X107009428Y-54518571D01*
X107080857Y-54590000D01*
X107152285Y-54732857D01*
X107152285Y-55304285D01*
X106366571Y-53804285D02*
X107580857Y-53804285D01*
X107723714Y-53732857D01*
X107795142Y-53661428D01*
X107866571Y-53518571D01*
X107866571Y-53232857D01*
X107795142Y-53090000D01*
X107723714Y-53018571D01*
X107580857Y-52947142D01*
X106366571Y-52947142D01*
X107866571Y-52232857D02*
X106366571Y-52232857D01*
X107866571Y-51375714D01*
X106366571Y-51375714D01*
D12*
G04 #@! TO.C,J1*
X135950000Y-44390000D02*
X135950000Y-45720000D01*
X134620000Y-44390000D02*
X135950000Y-44390000D01*
X135950000Y-46990000D02*
X135950000Y-49590000D01*
X133350000Y-46990000D02*
X135950000Y-46990000D01*
X133350000Y-44390000D02*
X133350000Y-46990000D01*
X135950000Y-49590000D02*
X115510000Y-49590000D01*
X133350000Y-44390000D02*
X115510000Y-44390000D01*
X115510000Y-44390000D02*
X115510000Y-49590000D01*
G04 #@! TO.C,C3*
X141826064Y-71226000D02*
X140621936Y-71226000D01*
X141826064Y-73046000D02*
X140621936Y-73046000D01*
G04 #@! TO.C,C6*
X141826064Y-75586000D02*
X140621936Y-75586000D01*
X141826064Y-73766000D02*
X140621936Y-73766000D01*
G04 #@! TO.C,R3*
X140621936Y-70633000D02*
X141826064Y-70633000D01*
X140621936Y-68813000D02*
X141826064Y-68813000D01*
G04 #@! TO.C,R15*
X110638000Y-65183936D02*
X110638000Y-66388064D01*
X108818000Y-65183936D02*
X108818000Y-66388064D01*
G04 #@! TO.C,R18*
X116438000Y-65183936D02*
X116438000Y-66388064D01*
X118258000Y-65183936D02*
X118258000Y-66388064D01*
G04 #@! TO.C,R14*
X108098000Y-65183936D02*
X108098000Y-66388064D01*
X106278000Y-65183936D02*
X106278000Y-66388064D01*
G04 #@! TO.C,R17*
X113898000Y-65183936D02*
X113898000Y-66388064D01*
X115718000Y-65183936D02*
X115718000Y-66388064D01*
G04 #@! TO.C,R16*
X113178000Y-65183936D02*
X113178000Y-66388064D01*
X111358000Y-65183936D02*
X111358000Y-66388064D01*
G04 #@! TO.C,C1*
X120744064Y-103018000D02*
X119539936Y-103018000D01*
X120744064Y-101198000D02*
X119539936Y-101198000D01*
G04 #@! TO.C,C2*
X134648064Y-66781000D02*
X133443936Y-66781000D01*
X134648064Y-68601000D02*
X133443936Y-68601000D01*
G04 #@! TO.C,C4*
X120744064Y-103738000D02*
X119539936Y-103738000D01*
X120744064Y-105558000D02*
X119539936Y-105558000D01*
G04 #@! TO.C,C5*
X134648064Y-66061000D02*
X133443936Y-66061000D01*
X134648064Y-64241000D02*
X133443936Y-64241000D01*
G04 #@! TO.C,C7*
X110903936Y-112247000D02*
X112108064Y-112247000D01*
X110903936Y-114067000D02*
X112108064Y-114067000D01*
G04 #@! TO.C,C8*
X129634064Y-103018000D02*
X128429936Y-103018000D01*
X129634064Y-101198000D02*
X128429936Y-101198000D01*
G04 #@! TO.C,C9*
X122407000Y-94139936D02*
X122407000Y-95344064D01*
X124227000Y-94139936D02*
X124227000Y-95344064D01*
G04 #@! TO.C,C10*
X129634064Y-105558000D02*
X128429936Y-105558000D01*
X129634064Y-103738000D02*
X128429936Y-103738000D01*
G04 #@! TO.C,C11*
X119994000Y-94139936D02*
X119994000Y-95344064D01*
X121814000Y-94139936D02*
X121814000Y-95344064D01*
G04 #@! TO.C,C12*
X122333936Y-69490000D02*
X123538064Y-69490000D01*
X122333936Y-67670000D02*
X123538064Y-67670000D01*
G04 #@! TO.C,C13*
X122333936Y-70210000D02*
X123538064Y-70210000D01*
X122333936Y-72030000D02*
X123538064Y-72030000D01*
G04 #@! TO.C,C14*
X138016064Y-54250000D02*
X136811936Y-54250000D01*
X138016064Y-52430000D02*
X136811936Y-52430000D01*
G04 #@! TO.C,C15*
X132682064Y-52430000D02*
X131477936Y-52430000D01*
X132682064Y-54250000D02*
X131477936Y-54250000D01*
G04 #@! TO.C,C16*
X127348064Y-52430000D02*
X126143936Y-52430000D01*
X127348064Y-54250000D02*
X126143936Y-54250000D01*
G04 #@! TO.C,C17*
X122014064Y-54250000D02*
X120809936Y-54250000D01*
X122014064Y-52430000D02*
X120809936Y-52430000D01*
G04 #@! TO.C,C18*
X112374000Y-100362936D02*
X112374000Y-101567064D01*
X114194000Y-100362936D02*
X114194000Y-101567064D01*
G04 #@! TO.C,J2*
X144629000Y-83296000D02*
X144629000Y-104156000D01*
X144629000Y-104156000D02*
X135279000Y-104156000D01*
X135279000Y-104156000D02*
X135279000Y-83296000D01*
X135279000Y-83296000D02*
X144629000Y-83296000D01*
X135029000Y-83046000D02*
X135029000Y-85586000D01*
X135029000Y-83046000D02*
X137569000Y-83046000D01*
G04 #@! TO.C,J3*
X115510000Y-112970000D02*
X115510000Y-118170000D01*
X133350000Y-112970000D02*
X115510000Y-112970000D01*
X135950000Y-118170000D02*
X115510000Y-118170000D01*
X133350000Y-112970000D02*
X133350000Y-115570000D01*
X133350000Y-115570000D02*
X135950000Y-115570000D01*
X135950000Y-115570000D02*
X135950000Y-118170000D01*
X134620000Y-112970000D02*
X135950000Y-112970000D01*
X135950000Y-112970000D02*
X135950000Y-114300000D01*
G04 #@! TO.C,J4*
X109033000Y-87951000D02*
X109033000Y-90611000D01*
X126873000Y-87951000D02*
X109033000Y-87951000D01*
X126873000Y-90611000D02*
X109033000Y-90611000D01*
X126873000Y-87951000D02*
X126873000Y-90611000D01*
X128143000Y-87951000D02*
X129473000Y-87951000D01*
X129473000Y-87951000D02*
X129473000Y-89281000D01*
G04 #@! TO.C,J5*
X108010000Y-104835000D02*
X106680000Y-104835000D01*
X108010000Y-103505000D02*
X108010000Y-104835000D01*
X108010000Y-102235000D02*
X105350000Y-102235000D01*
X105350000Y-102235000D02*
X105350000Y-84395000D01*
X108010000Y-102235000D02*
X108010000Y-84395000D01*
X108010000Y-84395000D02*
X105350000Y-84395000D01*
G04 #@! TO.C,Q1*
X113086000Y-115699000D02*
X112156000Y-115699000D01*
X109926000Y-115699000D02*
X110856000Y-115699000D01*
X109926000Y-115699000D02*
X109926000Y-117859000D01*
X113086000Y-115699000D02*
X113086000Y-117159000D01*
G04 #@! TO.C,R1*
X119539936Y-98658000D02*
X120744064Y-98658000D01*
X119539936Y-100478000D02*
X120744064Y-100478000D01*
G04 #@! TO.C,R2*
X133509936Y-61828000D02*
X134714064Y-61828000D01*
X133509936Y-63648000D02*
X134714064Y-63648000D01*
G04 #@! TO.C,R4*
X110903936Y-107167000D02*
X112108064Y-107167000D01*
X110903936Y-108987000D02*
X112108064Y-108987000D01*
G04 #@! TO.C,R5*
X133498000Y-78072064D02*
X133498000Y-76867936D01*
X131678000Y-78072064D02*
X131678000Y-76867936D01*
G04 #@! TO.C,R6*
X110903936Y-111527000D02*
X112108064Y-111527000D01*
X110903936Y-109707000D02*
X112108064Y-109707000D01*
G04 #@! TO.C,R10*
X128429936Y-98658000D02*
X129634064Y-98658000D01*
X128429936Y-100478000D02*
X129634064Y-100478000D01*
G04 #@! TO.C,R11*
X117581000Y-95344064D02*
X117581000Y-94139936D01*
X119401000Y-95344064D02*
X119401000Y-94139936D01*
G04 #@! TO.C,R12*
X133710000Y-108998936D02*
X133710000Y-110203064D01*
X135530000Y-108998936D02*
X135530000Y-110203064D01*
G04 #@! TO.C,R13*
X123538064Y-65130000D02*
X122333936Y-65130000D01*
X123538064Y-66950000D02*
X122333936Y-66950000D01*
G04 #@! TO.C,R19*
X138016064Y-56790000D02*
X136811936Y-56790000D01*
X138016064Y-54970000D02*
X136811936Y-54970000D01*
G04 #@! TO.C,R20*
X132682064Y-56790000D02*
X131477936Y-56790000D01*
X132682064Y-54970000D02*
X131477936Y-54970000D01*
G04 #@! TO.C,R21*
X126143936Y-56790000D02*
X127348064Y-56790000D01*
X126143936Y-54970000D02*
X127348064Y-54970000D01*
G04 #@! TO.C,R22*
X114914000Y-100362936D02*
X114914000Y-101567064D01*
X116734000Y-100362936D02*
X116734000Y-101567064D01*
G04 #@! TO.C,R23*
X112743064Y-93451000D02*
X111538936Y-93451000D01*
X112743064Y-95271000D02*
X111538936Y-95271000D01*
G04 #@! TO.C,R24*
X111654000Y-101567064D02*
X111654000Y-100362936D01*
X109834000Y-101567064D02*
X109834000Y-100362936D01*
G04 #@! TO.C,R25*
X112108064Y-106447000D02*
X110903936Y-106447000D01*
X112108064Y-104627000D02*
X110903936Y-104627000D01*
D13*
G04 #@! TO.C,U1*
X116797000Y-106137000D02*
X116797000Y-106187000D01*
X120947000Y-106137000D02*
X120947000Y-106282000D01*
X120947000Y-111287000D02*
X120947000Y-111142000D01*
X116797000Y-111287000D02*
X116797000Y-111142000D01*
X116797000Y-106137000D02*
X120947000Y-106137000D01*
X116797000Y-111287000D02*
X120947000Y-111287000D01*
X116797000Y-106187000D02*
X115397000Y-106187000D01*
G04 #@! TO.C,U2*
X131275000Y-69307000D02*
X131275000Y-69357000D01*
X135425000Y-69307000D02*
X135425000Y-69452000D01*
X135425000Y-74457000D02*
X135425000Y-74312000D01*
X131275000Y-74457000D02*
X131275000Y-74312000D01*
X131275000Y-69307000D02*
X135425000Y-69307000D01*
X131275000Y-74457000D02*
X135425000Y-74457000D01*
X131275000Y-69357000D02*
X129875000Y-69357000D01*
G04 #@! TO.C,U3*
X136609000Y-76215000D02*
X135209000Y-76215000D01*
X136609000Y-81315000D02*
X140759000Y-81315000D01*
X136609000Y-76165000D02*
X140759000Y-76165000D01*
X136609000Y-81315000D02*
X136609000Y-81170000D01*
X140759000Y-81315000D02*
X140759000Y-81170000D01*
X140759000Y-76165000D02*
X140759000Y-76310000D01*
X136609000Y-76165000D02*
X136609000Y-76215000D01*
G04 #@! TO.C,U4*
X125687000Y-106137000D02*
X125687000Y-106187000D01*
X129837000Y-106137000D02*
X129837000Y-106282000D01*
X129837000Y-111287000D02*
X129837000Y-111142000D01*
X125687000Y-111287000D02*
X125687000Y-111142000D01*
X125687000Y-106137000D02*
X129837000Y-106137000D01*
X125687000Y-111287000D02*
X129837000Y-111287000D01*
X125687000Y-106187000D02*
X124287000Y-106187000D01*
G04 #@! TO.C,U5*
X128100000Y-91582000D02*
X126700000Y-91582000D01*
X128100000Y-96682000D02*
X132250000Y-96682000D01*
X128100000Y-91532000D02*
X132250000Y-91532000D01*
X128100000Y-96682000D02*
X128100000Y-96537000D01*
X132250000Y-96682000D02*
X132250000Y-96537000D01*
X132250000Y-91532000D02*
X132250000Y-91677000D01*
X128100000Y-91532000D02*
X128100000Y-91582000D01*
G04 #@! TO.C,U6*
X110255000Y-83377000D02*
X110505000Y-83377000D01*
X110255000Y-75627000D02*
X110600000Y-75627000D01*
X128505000Y-75627000D02*
X128160000Y-75627000D01*
X128505000Y-83377000D02*
X128160000Y-83377000D01*
X110255000Y-83377000D02*
X110255000Y-75627000D01*
X128505000Y-83377000D02*
X128505000Y-75627000D01*
X110505000Y-83377000D02*
X110505000Y-85202000D01*
D12*
G04 #@! TO.C,R26*
X122014064Y-56790000D02*
X120809936Y-56790000D01*
X122014064Y-54970000D02*
X120809936Y-54970000D01*
G04 #@! TO.C,C19*
X113486000Y-46736000D02*
G75*
G03X113486000Y-46736000I-3270000J0D01*
G01*
X110216000Y-43506000D02*
X110216000Y-49966000D01*
X110256000Y-43506000D02*
X110256000Y-49966000D01*
X110296000Y-43506000D02*
X110296000Y-49966000D01*
X110336000Y-43508000D02*
X110336000Y-49964000D01*
X110376000Y-43509000D02*
X110376000Y-49963000D01*
X110416000Y-43512000D02*
X110416000Y-49960000D01*
X110456000Y-43514000D02*
X110456000Y-45696000D01*
X110456000Y-47776000D02*
X110456000Y-49958000D01*
X110496000Y-43518000D02*
X110496000Y-45696000D01*
X110496000Y-47776000D02*
X110496000Y-49954000D01*
X110536000Y-43521000D02*
X110536000Y-45696000D01*
X110536000Y-47776000D02*
X110536000Y-49951000D01*
X110576000Y-43525000D02*
X110576000Y-45696000D01*
X110576000Y-47776000D02*
X110576000Y-49947000D01*
X110616000Y-43530000D02*
X110616000Y-45696000D01*
X110616000Y-47776000D02*
X110616000Y-49942000D01*
X110656000Y-43535000D02*
X110656000Y-45696000D01*
X110656000Y-47776000D02*
X110656000Y-49937000D01*
X110696000Y-43541000D02*
X110696000Y-45696000D01*
X110696000Y-47776000D02*
X110696000Y-49931000D01*
X110736000Y-43547000D02*
X110736000Y-45696000D01*
X110736000Y-47776000D02*
X110736000Y-49925000D01*
X110776000Y-43554000D02*
X110776000Y-45696000D01*
X110776000Y-47776000D02*
X110776000Y-49918000D01*
X110816000Y-43561000D02*
X110816000Y-45696000D01*
X110816000Y-47776000D02*
X110816000Y-49911000D01*
X110856000Y-43569000D02*
X110856000Y-45696000D01*
X110856000Y-47776000D02*
X110856000Y-49903000D01*
X110896000Y-43577000D02*
X110896000Y-45696000D01*
X110896000Y-47776000D02*
X110896000Y-49895000D01*
X110937000Y-43586000D02*
X110937000Y-45696000D01*
X110937000Y-47776000D02*
X110937000Y-49886000D01*
X110977000Y-43595000D02*
X110977000Y-45696000D01*
X110977000Y-47776000D02*
X110977000Y-49877000D01*
X111017000Y-43605000D02*
X111017000Y-45696000D01*
X111017000Y-47776000D02*
X111017000Y-49867000D01*
X111057000Y-43615000D02*
X111057000Y-45696000D01*
X111057000Y-47776000D02*
X111057000Y-49857000D01*
X111097000Y-43626000D02*
X111097000Y-45696000D01*
X111097000Y-47776000D02*
X111097000Y-49846000D01*
X111137000Y-43638000D02*
X111137000Y-45696000D01*
X111137000Y-47776000D02*
X111137000Y-49834000D01*
X111177000Y-43650000D02*
X111177000Y-45696000D01*
X111177000Y-47776000D02*
X111177000Y-49822000D01*
X111217000Y-43662000D02*
X111217000Y-45696000D01*
X111217000Y-47776000D02*
X111217000Y-49810000D01*
X111257000Y-43675000D02*
X111257000Y-45696000D01*
X111257000Y-47776000D02*
X111257000Y-49797000D01*
X111297000Y-43689000D02*
X111297000Y-45696000D01*
X111297000Y-47776000D02*
X111297000Y-49783000D01*
X111337000Y-43703000D02*
X111337000Y-45696000D01*
X111337000Y-47776000D02*
X111337000Y-49769000D01*
X111377000Y-43718000D02*
X111377000Y-45696000D01*
X111377000Y-47776000D02*
X111377000Y-49754000D01*
X111417000Y-43734000D02*
X111417000Y-45696000D01*
X111417000Y-47776000D02*
X111417000Y-49738000D01*
X111457000Y-43750000D02*
X111457000Y-45696000D01*
X111457000Y-47776000D02*
X111457000Y-49722000D01*
X111497000Y-43766000D02*
X111497000Y-45696000D01*
X111497000Y-47776000D02*
X111497000Y-49706000D01*
X111537000Y-43784000D02*
X111537000Y-45696000D01*
X111537000Y-47776000D02*
X111537000Y-49688000D01*
X111577000Y-43802000D02*
X111577000Y-45696000D01*
X111577000Y-47776000D02*
X111577000Y-49670000D01*
X111617000Y-43820000D02*
X111617000Y-45696000D01*
X111617000Y-47776000D02*
X111617000Y-49652000D01*
X111657000Y-43840000D02*
X111657000Y-45696000D01*
X111657000Y-47776000D02*
X111657000Y-49632000D01*
X111697000Y-43860000D02*
X111697000Y-45696000D01*
X111697000Y-47776000D02*
X111697000Y-49612000D01*
X111737000Y-43880000D02*
X111737000Y-45696000D01*
X111737000Y-47776000D02*
X111737000Y-49592000D01*
X111777000Y-43902000D02*
X111777000Y-45696000D01*
X111777000Y-47776000D02*
X111777000Y-49570000D01*
X111817000Y-43924000D02*
X111817000Y-45696000D01*
X111817000Y-47776000D02*
X111817000Y-49548000D01*
X111857000Y-43946000D02*
X111857000Y-45696000D01*
X111857000Y-47776000D02*
X111857000Y-49526000D01*
X111897000Y-43970000D02*
X111897000Y-45696000D01*
X111897000Y-47776000D02*
X111897000Y-49502000D01*
X111937000Y-43994000D02*
X111937000Y-45696000D01*
X111937000Y-47776000D02*
X111937000Y-49478000D01*
X111977000Y-44020000D02*
X111977000Y-45696000D01*
X111977000Y-47776000D02*
X111977000Y-49452000D01*
X112017000Y-44046000D02*
X112017000Y-45696000D01*
X112017000Y-47776000D02*
X112017000Y-49426000D01*
X112057000Y-44072000D02*
X112057000Y-45696000D01*
X112057000Y-47776000D02*
X112057000Y-49400000D01*
X112097000Y-44100000D02*
X112097000Y-45696000D01*
X112097000Y-47776000D02*
X112097000Y-49372000D01*
X112137000Y-44129000D02*
X112137000Y-45696000D01*
X112137000Y-47776000D02*
X112137000Y-49343000D01*
X112177000Y-44158000D02*
X112177000Y-45696000D01*
X112177000Y-47776000D02*
X112177000Y-49314000D01*
X112217000Y-44188000D02*
X112217000Y-45696000D01*
X112217000Y-47776000D02*
X112217000Y-49284000D01*
X112257000Y-44220000D02*
X112257000Y-45696000D01*
X112257000Y-47776000D02*
X112257000Y-49252000D01*
X112297000Y-44252000D02*
X112297000Y-45696000D01*
X112297000Y-47776000D02*
X112297000Y-49220000D01*
X112337000Y-44286000D02*
X112337000Y-45696000D01*
X112337000Y-47776000D02*
X112337000Y-49186000D01*
X112377000Y-44320000D02*
X112377000Y-45696000D01*
X112377000Y-47776000D02*
X112377000Y-49152000D01*
X112417000Y-44356000D02*
X112417000Y-45696000D01*
X112417000Y-47776000D02*
X112417000Y-49116000D01*
X112457000Y-44393000D02*
X112457000Y-45696000D01*
X112457000Y-47776000D02*
X112457000Y-49079000D01*
X112497000Y-44431000D02*
X112497000Y-45696000D01*
X112497000Y-47776000D02*
X112497000Y-49041000D01*
X112537000Y-44471000D02*
X112537000Y-49001000D01*
X112577000Y-44512000D02*
X112577000Y-48960000D01*
X112617000Y-44554000D02*
X112617000Y-48918000D01*
X112657000Y-44599000D02*
X112657000Y-48873000D01*
X112697000Y-44644000D02*
X112697000Y-48828000D01*
X112737000Y-44692000D02*
X112737000Y-48780000D01*
X112777000Y-44741000D02*
X112777000Y-48731000D01*
X112817000Y-44792000D02*
X112817000Y-48680000D01*
X112857000Y-44846000D02*
X112857000Y-48626000D01*
X112897000Y-44902000D02*
X112897000Y-48570000D01*
X112937000Y-44960000D02*
X112937000Y-48512000D01*
X112977000Y-45022000D02*
X112977000Y-48450000D01*
X113017000Y-45086000D02*
X113017000Y-48386000D01*
X113057000Y-45155000D02*
X113057000Y-48317000D01*
X113097000Y-45227000D02*
X113097000Y-48245000D01*
X113137000Y-45304000D02*
X113137000Y-48168000D01*
X113177000Y-45386000D02*
X113177000Y-48086000D01*
X113217000Y-45474000D02*
X113217000Y-47998000D01*
X113257000Y-45571000D02*
X113257000Y-47901000D01*
X113297000Y-45677000D02*
X113297000Y-47795000D01*
X113337000Y-45796000D02*
X113337000Y-47676000D01*
X113377000Y-45934000D02*
X113377000Y-47538000D01*
X113417000Y-46103000D02*
X113417000Y-47369000D01*
X113457000Y-46334000D02*
X113457000Y-47138000D01*
X106715759Y-44897000D02*
X107345759Y-44897000D01*
X107030759Y-44582000D02*
X107030759Y-45212000D01*
D14*
G04 #@! TO.C,REF\002A\002A*
G36*
X127037043Y-58553835D02*
X127060065Y-58591245D01*
X127095534Y-58650514D01*
X127141996Y-58729118D01*
X127197996Y-58824538D01*
X127262081Y-58934250D01*
X127332796Y-59055734D01*
X127408687Y-59186468D01*
X127488299Y-59323930D01*
X127570178Y-59465598D01*
X127652870Y-59608951D01*
X127734921Y-59751467D01*
X127814876Y-59890624D01*
X127891281Y-60023901D01*
X127962682Y-60148776D01*
X128027624Y-60262727D01*
X128084653Y-60363233D01*
X128132315Y-60447772D01*
X128169155Y-60513822D01*
X128193720Y-60558862D01*
X128204554Y-60580370D01*
X128204951Y-60581714D01*
X128191501Y-60599965D01*
X128154114Y-60627882D01*
X128097235Y-60662725D01*
X128025312Y-60701754D01*
X127950015Y-60738843D01*
X127847560Y-60783817D01*
X127739817Y-60824226D01*
X127623073Y-60860969D01*
X127493618Y-60894942D01*
X127347740Y-60927044D01*
X127181726Y-60958173D01*
X126991866Y-60989227D01*
X126795469Y-61018145D01*
X126624834Y-61043800D01*
X126481545Y-61069198D01*
X126362008Y-61095602D01*
X126262630Y-61124273D01*
X126179818Y-61156473D01*
X126109978Y-61193465D01*
X126049518Y-61236512D01*
X125994845Y-61286875D01*
X125977214Y-61305583D01*
X125939000Y-61349139D01*
X125910732Y-61384682D01*
X125897618Y-61405583D01*
X125897268Y-61407297D01*
X125892680Y-61417806D01*
X125876758Y-61417924D01*
X125846266Y-61406254D01*
X125797968Y-61381396D01*
X125728627Y-61341952D01*
X125680439Y-61313587D01*
X125608583Y-61269247D01*
X125552742Y-61231279D01*
X125516667Y-61202416D01*
X125504113Y-61185388D01*
X125504121Y-61185264D01*
X125511906Y-61169037D01*
X125533892Y-61128400D01*
X125568803Y-61065567D01*
X125615363Y-60982752D01*
X125672295Y-60882172D01*
X125738323Y-60766040D01*
X125812172Y-60636571D01*
X125892564Y-60495980D01*
X125978224Y-60346482D01*
X126067876Y-60190292D01*
X126160243Y-60029624D01*
X126254049Y-59866693D01*
X126348018Y-59703713D01*
X126440874Y-59542900D01*
X126531340Y-59386468D01*
X126618141Y-59236633D01*
X126700000Y-59095608D01*
X126775641Y-58965609D01*
X126843787Y-58848849D01*
X126903163Y-58747545D01*
X126952493Y-58663911D01*
X126990500Y-58600162D01*
X127015907Y-58558511D01*
X127027440Y-58541175D01*
X127027923Y-58540805D01*
X127037043Y-58553835D01*
X127037043Y-58553835D01*
G37*
X127037043Y-58553835D02*
X127060065Y-58591245D01*
X127095534Y-58650514D01*
X127141996Y-58729118D01*
X127197996Y-58824538D01*
X127262081Y-58934250D01*
X127332796Y-59055734D01*
X127408687Y-59186468D01*
X127488299Y-59323930D01*
X127570178Y-59465598D01*
X127652870Y-59608951D01*
X127734921Y-59751467D01*
X127814876Y-59890624D01*
X127891281Y-60023901D01*
X127962682Y-60148776D01*
X128027624Y-60262727D01*
X128084653Y-60363233D01*
X128132315Y-60447772D01*
X128169155Y-60513822D01*
X128193720Y-60558862D01*
X128204554Y-60580370D01*
X128204951Y-60581714D01*
X128191501Y-60599965D01*
X128154114Y-60627882D01*
X128097235Y-60662725D01*
X128025312Y-60701754D01*
X127950015Y-60738843D01*
X127847560Y-60783817D01*
X127739817Y-60824226D01*
X127623073Y-60860969D01*
X127493618Y-60894942D01*
X127347740Y-60927044D01*
X127181726Y-60958173D01*
X126991866Y-60989227D01*
X126795469Y-61018145D01*
X126624834Y-61043800D01*
X126481545Y-61069198D01*
X126362008Y-61095602D01*
X126262630Y-61124273D01*
X126179818Y-61156473D01*
X126109978Y-61193465D01*
X126049518Y-61236512D01*
X125994845Y-61286875D01*
X125977214Y-61305583D01*
X125939000Y-61349139D01*
X125910732Y-61384682D01*
X125897618Y-61405583D01*
X125897268Y-61407297D01*
X125892680Y-61417806D01*
X125876758Y-61417924D01*
X125846266Y-61406254D01*
X125797968Y-61381396D01*
X125728627Y-61341952D01*
X125680439Y-61313587D01*
X125608583Y-61269247D01*
X125552742Y-61231279D01*
X125516667Y-61202416D01*
X125504113Y-61185388D01*
X125504121Y-61185264D01*
X125511906Y-61169037D01*
X125533892Y-61128400D01*
X125568803Y-61065567D01*
X125615363Y-60982752D01*
X125672295Y-60882172D01*
X125738323Y-60766040D01*
X125812172Y-60636571D01*
X125892564Y-60495980D01*
X125978224Y-60346482D01*
X126067876Y-60190292D01*
X126160243Y-60029624D01*
X126254049Y-59866693D01*
X126348018Y-59703713D01*
X126440874Y-59542900D01*
X126531340Y-59386468D01*
X126618141Y-59236633D01*
X126700000Y-59095608D01*
X126775641Y-58965609D01*
X126843787Y-58848849D01*
X126903163Y-58747545D01*
X126952493Y-58663911D01*
X126990500Y-58600162D01*
X127015907Y-58558511D01*
X127027440Y-58541175D01*
X127027923Y-58540805D01*
X127037043Y-58553835D01*
G36*
X128860528Y-61702619D02*
X128871908Y-61721693D01*
X128897488Y-61765421D01*
X128936002Y-61831619D01*
X128986186Y-61918102D01*
X129046775Y-62022685D01*
X129116503Y-62143183D01*
X129194107Y-62277412D01*
X129278320Y-62423187D01*
X129367879Y-62578323D01*
X129459998Y-62738000D01*
X129554076Y-62901117D01*
X129644402Y-63057709D01*
X129729665Y-63205506D01*
X129808557Y-63342240D01*
X129879769Y-63465642D01*
X129941991Y-63573444D01*
X129993913Y-63663377D01*
X130034228Y-63733173D01*
X130061624Y-63780564D01*
X130074507Y-63802786D01*
X130095507Y-63840330D01*
X130106925Y-63863831D01*
X130107551Y-63867920D01*
X130093636Y-63860242D01*
X130054941Y-63838203D01*
X129993487Y-63802971D01*
X129911298Y-63755711D01*
X129810396Y-63697589D01*
X129692805Y-63629771D01*
X129560546Y-63553424D01*
X129415642Y-63469714D01*
X129260117Y-63379806D01*
X129095992Y-63284867D01*
X129033549Y-63248732D01*
X128866487Y-63152083D01*
X128707074Y-63059938D01*
X128557355Y-62973475D01*
X128419376Y-62893871D01*
X128295185Y-62822305D01*
X128186827Y-62759955D01*
X128096348Y-62707998D01*
X128025796Y-62667613D01*
X127977215Y-62639978D01*
X127952654Y-62626272D01*
X127950085Y-62624974D01*
X127957569Y-62613220D01*
X127983614Y-62581795D01*
X128025559Y-62533594D01*
X128080746Y-62471510D01*
X128146517Y-62398439D01*
X128220212Y-62317276D01*
X128299173Y-62230916D01*
X128380740Y-62142253D01*
X128462254Y-62054182D01*
X128541057Y-61969599D01*
X128614490Y-61891397D01*
X128679893Y-61822472D01*
X128734608Y-61765719D01*
X128775977Y-61724032D01*
X128790164Y-61710363D01*
X128837180Y-61666201D01*
X128860528Y-61702619D01*
X128860528Y-61702619D01*
G37*
X128860528Y-61702619D02*
X128871908Y-61721693D01*
X128897488Y-61765421D01*
X128936002Y-61831619D01*
X128986186Y-61918102D01*
X129046775Y-62022685D01*
X129116503Y-62143183D01*
X129194107Y-62277412D01*
X129278320Y-62423187D01*
X129367879Y-62578323D01*
X129459998Y-62738000D01*
X129554076Y-62901117D01*
X129644402Y-63057709D01*
X129729665Y-63205506D01*
X129808557Y-63342240D01*
X129879769Y-63465642D01*
X129941991Y-63573444D01*
X129993913Y-63663377D01*
X130034228Y-63733173D01*
X130061624Y-63780564D01*
X130074507Y-63802786D01*
X130095507Y-63840330D01*
X130106925Y-63863831D01*
X130107551Y-63867920D01*
X130093636Y-63860242D01*
X130054941Y-63838203D01*
X129993487Y-63802971D01*
X129911298Y-63755711D01*
X129810396Y-63697589D01*
X129692805Y-63629771D01*
X129560546Y-63553424D01*
X129415642Y-63469714D01*
X129260117Y-63379806D01*
X129095992Y-63284867D01*
X129033549Y-63248732D01*
X128866487Y-63152083D01*
X128707074Y-63059938D01*
X128557355Y-62973475D01*
X128419376Y-62893871D01*
X128295185Y-62822305D01*
X128186827Y-62759955D01*
X128096348Y-62707998D01*
X128025796Y-62667613D01*
X127977215Y-62639978D01*
X127952654Y-62626272D01*
X127950085Y-62624974D01*
X127957569Y-62613220D01*
X127983614Y-62581795D01*
X128025559Y-62533594D01*
X128080746Y-62471510D01*
X128146517Y-62398439D01*
X128220212Y-62317276D01*
X128299173Y-62230916D01*
X128380740Y-62142253D01*
X128462254Y-62054182D01*
X128541057Y-61969599D01*
X128614490Y-61891397D01*
X128679893Y-61822472D01*
X128734608Y-61765719D01*
X128775977Y-61724032D01*
X128790164Y-61710363D01*
X128837180Y-61666201D01*
X128860528Y-61702619D01*
G36*
X125195094Y-61759158D02*
X125227619Y-61771736D01*
X125277193Y-61796712D01*
X125348374Y-61835876D01*
X125353916Y-61838988D01*
X125419474Y-61876476D01*
X125474798Y-61909319D01*
X125514455Y-61934205D01*
X125533012Y-61947820D01*
X125533531Y-61948487D01*
X125529048Y-61967390D01*
X125508486Y-62009605D01*
X125473183Y-62072832D01*
X125424480Y-62154772D01*
X125363718Y-62253122D01*
X125292236Y-62365585D01*
X125274445Y-62393165D01*
X125228093Y-62469699D01*
X125194342Y-62535556D01*
X125176153Y-62584782D01*
X125174286Y-62594507D01*
X125175115Y-62637312D01*
X125184394Y-62705209D01*
X125200968Y-62793843D01*
X125223680Y-62898859D01*
X125251373Y-63015902D01*
X125282890Y-63140616D01*
X125317075Y-63268645D01*
X125352771Y-63395634D01*
X125388821Y-63517228D01*
X125424068Y-63629072D01*
X125457356Y-63726810D01*
X125487528Y-63806087D01*
X125508561Y-63853122D01*
X125533337Y-63903225D01*
X125556730Y-63951168D01*
X125557997Y-63953793D01*
X125596699Y-64002220D01*
X125653184Y-64034828D01*
X125718939Y-64050454D01*
X125785451Y-64047937D01*
X125844205Y-64026114D01*
X125877258Y-63997382D01*
X125924859Y-63918583D01*
X125959739Y-63820378D01*
X125978877Y-63712779D01*
X125981588Y-63651780D01*
X125970670Y-63537935D01*
X125938624Y-63443660D01*
X125883726Y-63364379D01*
X125866607Y-63346733D01*
X125815661Y-63297235D01*
X125812163Y-62947362D01*
X125808664Y-62597489D01*
X125897818Y-62462531D01*
X125939654Y-62401445D01*
X125979945Y-62346493D01*
X126012943Y-62305336D01*
X126027126Y-62290192D01*
X126067281Y-62252810D01*
X126121665Y-62282098D01*
X126156039Y-62303084D01*
X126174846Y-62319378D01*
X126176049Y-62322307D01*
X126188903Y-62334728D01*
X126210896Y-62343977D01*
X126232150Y-62352313D01*
X126264694Y-62368149D01*
X126311322Y-62393033D01*
X126374829Y-62428509D01*
X126458008Y-62476123D01*
X126563653Y-62537422D01*
X126621062Y-62570932D01*
X126688594Y-62611071D01*
X126732885Y-62639659D01*
X126757855Y-62660039D01*
X126767423Y-62675553D01*
X126765508Y-62689546D01*
X126763911Y-62692796D01*
X126748376Y-62713266D01*
X126715136Y-62751665D01*
X126668062Y-62803696D01*
X126611028Y-62865066D01*
X126561700Y-62917090D01*
X126448030Y-63040567D01*
X126359105Y-63147591D01*
X126294134Y-63239240D01*
X126252321Y-63316588D01*
X126238217Y-63355866D01*
X126232392Y-63390249D01*
X126226375Y-63448899D01*
X126220696Y-63525117D01*
X126215884Y-63612202D01*
X126213619Y-63667268D01*
X126210459Y-63762464D01*
X126209069Y-63832062D01*
X126209858Y-63881409D01*
X126213235Y-63915854D01*
X126219608Y-63940743D01*
X126229387Y-63961425D01*
X126237067Y-63974053D01*
X126281421Y-64022726D01*
X126338574Y-64056645D01*
X126398708Y-64071438D01*
X126443773Y-64066086D01*
X126484576Y-64042930D01*
X126535724Y-64001462D01*
X126590042Y-63948912D01*
X126640357Y-63892516D01*
X126679494Y-63839505D01*
X126693905Y-63813889D01*
X126715491Y-63778814D01*
X126754753Y-63725389D01*
X126808102Y-63657789D01*
X126871952Y-63580190D01*
X126942715Y-63496768D01*
X127016804Y-63411698D01*
X127090632Y-63329155D01*
X127160611Y-63253316D01*
X127223155Y-63188356D01*
X127272260Y-63140669D01*
X127326779Y-63093032D01*
X127372642Y-63057908D01*
X127404811Y-63038949D01*
X127415489Y-63036864D01*
X127431853Y-63045274D01*
X127472671Y-63067846D01*
X127535586Y-63103224D01*
X127618244Y-63150054D01*
X127718289Y-63206981D01*
X127833366Y-63272649D01*
X127961119Y-63345703D01*
X128099194Y-63424788D01*
X128245234Y-63508548D01*
X128396884Y-63595629D01*
X128551790Y-63684676D01*
X128707595Y-63774332D01*
X128861944Y-63863243D01*
X129012482Y-63950054D01*
X129156854Y-64033409D01*
X129292704Y-64111954D01*
X129417677Y-64184333D01*
X129529417Y-64249190D01*
X129625570Y-64305171D01*
X129703779Y-64350920D01*
X129761689Y-64385083D01*
X129796946Y-64406304D01*
X129807165Y-64412963D01*
X129793402Y-64414280D01*
X129750104Y-64415559D01*
X129678714Y-64416796D01*
X129580673Y-64417983D01*
X129457422Y-64419115D01*
X129310403Y-64420186D01*
X129141057Y-64421189D01*
X128950826Y-64422119D01*
X128741151Y-64422968D01*
X128513473Y-64423732D01*
X128269235Y-64424403D01*
X128009877Y-64424976D01*
X127736841Y-64425444D01*
X127451568Y-64425802D01*
X127155500Y-64426042D01*
X126850079Y-64426159D01*
X126721924Y-64426171D01*
X123621970Y-64426171D01*
X123843053Y-64042847D01*
X123889856Y-63961680D01*
X123950102Y-63857166D01*
X124021778Y-63732801D01*
X124102869Y-63592082D01*
X124191362Y-63438503D01*
X124285240Y-63275562D01*
X124382491Y-63106754D01*
X124481100Y-62935575D01*
X124579053Y-62765521D01*
X124603825Y-62722512D01*
X124694152Y-62565857D01*
X124780289Y-62416803D01*
X124860942Y-62277568D01*
X124934816Y-62150371D01*
X125000617Y-62037432D01*
X125057050Y-61940968D01*
X125102821Y-61863200D01*
X125136635Y-61806346D01*
X125157198Y-61772625D01*
X125162953Y-61764040D01*
X125175058Y-61757189D01*
X125195094Y-61759158D01*
X125195094Y-61759158D01*
G37*
X125195094Y-61759158D02*
X125227619Y-61771736D01*
X125277193Y-61796712D01*
X125348374Y-61835876D01*
X125353916Y-61838988D01*
X125419474Y-61876476D01*
X125474798Y-61909319D01*
X125514455Y-61934205D01*
X125533012Y-61947820D01*
X125533531Y-61948487D01*
X125529048Y-61967390D01*
X125508486Y-62009605D01*
X125473183Y-62072832D01*
X125424480Y-62154772D01*
X125363718Y-62253122D01*
X125292236Y-62365585D01*
X125274445Y-62393165D01*
X125228093Y-62469699D01*
X125194342Y-62535556D01*
X125176153Y-62584782D01*
X125174286Y-62594507D01*
X125175115Y-62637312D01*
X125184394Y-62705209D01*
X125200968Y-62793843D01*
X125223680Y-62898859D01*
X125251373Y-63015902D01*
X125282890Y-63140616D01*
X125317075Y-63268645D01*
X125352771Y-63395634D01*
X125388821Y-63517228D01*
X125424068Y-63629072D01*
X125457356Y-63726810D01*
X125487528Y-63806087D01*
X125508561Y-63853122D01*
X125533337Y-63903225D01*
X125556730Y-63951168D01*
X125557997Y-63953793D01*
X125596699Y-64002220D01*
X125653184Y-64034828D01*
X125718939Y-64050454D01*
X125785451Y-64047937D01*
X125844205Y-64026114D01*
X125877258Y-63997382D01*
X125924859Y-63918583D01*
X125959739Y-63820378D01*
X125978877Y-63712779D01*
X125981588Y-63651780D01*
X125970670Y-63537935D01*
X125938624Y-63443660D01*
X125883726Y-63364379D01*
X125866607Y-63346733D01*
X125815661Y-63297235D01*
X125812163Y-62947362D01*
X125808664Y-62597489D01*
X125897818Y-62462531D01*
X125939654Y-62401445D01*
X125979945Y-62346493D01*
X126012943Y-62305336D01*
X126027126Y-62290192D01*
X126067281Y-62252810D01*
X126121665Y-62282098D01*
X126156039Y-62303084D01*
X126174846Y-62319378D01*
X126176049Y-62322307D01*
X126188903Y-62334728D01*
X126210896Y-62343977D01*
X126232150Y-62352313D01*
X126264694Y-62368149D01*
X126311322Y-62393033D01*
X126374829Y-62428509D01*
X126458008Y-62476123D01*
X126563653Y-62537422D01*
X126621062Y-62570932D01*
X126688594Y-62611071D01*
X126732885Y-62639659D01*
X126757855Y-62660039D01*
X126767423Y-62675553D01*
X126765508Y-62689546D01*
X126763911Y-62692796D01*
X126748376Y-62713266D01*
X126715136Y-62751665D01*
X126668062Y-62803696D01*
X126611028Y-62865066D01*
X126561700Y-62917090D01*
X126448030Y-63040567D01*
X126359105Y-63147591D01*
X126294134Y-63239240D01*
X126252321Y-63316588D01*
X126238217Y-63355866D01*
X126232392Y-63390249D01*
X126226375Y-63448899D01*
X126220696Y-63525117D01*
X126215884Y-63612202D01*
X126213619Y-63667268D01*
X126210459Y-63762464D01*
X126209069Y-63832062D01*
X126209858Y-63881409D01*
X126213235Y-63915854D01*
X126219608Y-63940743D01*
X126229387Y-63961425D01*
X126237067Y-63974053D01*
X126281421Y-64022726D01*
X126338574Y-64056645D01*
X126398708Y-64071438D01*
X126443773Y-64066086D01*
X126484576Y-64042930D01*
X126535724Y-64001462D01*
X126590042Y-63948912D01*
X126640357Y-63892516D01*
X126679494Y-63839505D01*
X126693905Y-63813889D01*
X126715491Y-63778814D01*
X126754753Y-63725389D01*
X126808102Y-63657789D01*
X126871952Y-63580190D01*
X126942715Y-63496768D01*
X127016804Y-63411698D01*
X127090632Y-63329155D01*
X127160611Y-63253316D01*
X127223155Y-63188356D01*
X127272260Y-63140669D01*
X127326779Y-63093032D01*
X127372642Y-63057908D01*
X127404811Y-63038949D01*
X127415489Y-63036864D01*
X127431853Y-63045274D01*
X127472671Y-63067846D01*
X127535586Y-63103224D01*
X127618244Y-63150054D01*
X127718289Y-63206981D01*
X127833366Y-63272649D01*
X127961119Y-63345703D01*
X128099194Y-63424788D01*
X128245234Y-63508548D01*
X128396884Y-63595629D01*
X128551790Y-63684676D01*
X128707595Y-63774332D01*
X128861944Y-63863243D01*
X129012482Y-63950054D01*
X129156854Y-64033409D01*
X129292704Y-64111954D01*
X129417677Y-64184333D01*
X129529417Y-64249190D01*
X129625570Y-64305171D01*
X129703779Y-64350920D01*
X129761689Y-64385083D01*
X129796946Y-64406304D01*
X129807165Y-64412963D01*
X129793402Y-64414280D01*
X129750104Y-64415559D01*
X129678714Y-64416796D01*
X129580673Y-64417983D01*
X129457422Y-64419115D01*
X129310403Y-64420186D01*
X129141057Y-64421189D01*
X128950826Y-64422119D01*
X128741151Y-64422968D01*
X128513473Y-64423732D01*
X128269235Y-64424403D01*
X128009877Y-64424976D01*
X127736841Y-64425444D01*
X127451568Y-64425802D01*
X127155500Y-64426042D01*
X126850079Y-64426159D01*
X126721924Y-64426171D01*
X123621970Y-64426171D01*
X123843053Y-64042847D01*
X123889856Y-63961680D01*
X123950102Y-63857166D01*
X124021778Y-63732801D01*
X124102869Y-63592082D01*
X124191362Y-63438503D01*
X124285240Y-63275562D01*
X124382491Y-63106754D01*
X124481100Y-62935575D01*
X124579053Y-62765521D01*
X124603825Y-62722512D01*
X124694152Y-62565857D01*
X124780289Y-62416803D01*
X124860942Y-62277568D01*
X124934816Y-62150371D01*
X125000617Y-62037432D01*
X125057050Y-61940968D01*
X125102821Y-61863200D01*
X125136635Y-61806346D01*
X125157198Y-61772625D01*
X125162953Y-61764040D01*
X125175058Y-61757189D01*
X125195094Y-61759158D01*
D12*
G04 #@! TO.C,D1*
X106453000Y-56681000D02*
X106453000Y-58966000D01*
X107923000Y-56681000D02*
X106453000Y-56681000D01*
X107923000Y-58966000D02*
X107923000Y-56681000D01*
G04 #@! TO.C,D2*
X110463000Y-58966000D02*
X110463000Y-56681000D01*
X110463000Y-56681000D02*
X108993000Y-56681000D01*
X108993000Y-56681000D02*
X108993000Y-58966000D01*
G04 #@! TO.C,D3*
X111533000Y-56681000D02*
X111533000Y-58966000D01*
X113003000Y-56681000D02*
X111533000Y-56681000D01*
X113003000Y-58966000D02*
X113003000Y-56681000D01*
G04 #@! TO.C,D4*
X115543000Y-58966000D02*
X115543000Y-56681000D01*
X115543000Y-56681000D02*
X114073000Y-56681000D01*
X114073000Y-56681000D02*
X114073000Y-58966000D01*
G04 #@! TO.C,D5*
X116613000Y-56681000D02*
X116613000Y-58966000D01*
X118083000Y-56681000D02*
X116613000Y-56681000D01*
X118083000Y-58966000D02*
X118083000Y-56681000D01*
G04 #@! TO.C,J1*
D13*
X116666666Y-50452380D02*
X116666666Y-51166666D01*
X116619047Y-51309523D01*
X116523809Y-51404761D01*
X116380952Y-51452380D01*
X116285714Y-51452380D01*
X117666666Y-51452380D02*
X117095238Y-51452380D01*
X117380952Y-51452380D02*
X117380952Y-50452380D01*
X117285714Y-50595238D01*
X117190476Y-50690476D01*
X117095238Y-50738095D01*
G04 #@! TO.C,C3*
X141581142Y-72302666D02*
X141628761Y-72350285D01*
X141676380Y-72493142D01*
X141676380Y-72588380D01*
X141628761Y-72731238D01*
X141533523Y-72826476D01*
X141438285Y-72874095D01*
X141247809Y-72921714D01*
X141104952Y-72921714D01*
X140914476Y-72874095D01*
X140819238Y-72826476D01*
X140724000Y-72731238D01*
X140676380Y-72588380D01*
X140676380Y-72493142D01*
X140724000Y-72350285D01*
X140771619Y-72302666D01*
X140676380Y-71969333D02*
X140676380Y-71350285D01*
X141057333Y-71683619D01*
X141057333Y-71540761D01*
X141104952Y-71445523D01*
X141152571Y-71397904D01*
X141247809Y-71350285D01*
X141485904Y-71350285D01*
X141581142Y-71397904D01*
X141628761Y-71445523D01*
X141676380Y-71540761D01*
X141676380Y-71826476D01*
X141628761Y-71921714D01*
X141581142Y-71969333D01*
G04 #@! TO.C,C6*
X141581142Y-74842666D02*
X141628761Y-74890285D01*
X141676380Y-75033142D01*
X141676380Y-75128380D01*
X141628761Y-75271238D01*
X141533523Y-75366476D01*
X141438285Y-75414095D01*
X141247809Y-75461714D01*
X141104952Y-75461714D01*
X140914476Y-75414095D01*
X140819238Y-75366476D01*
X140724000Y-75271238D01*
X140676380Y-75128380D01*
X140676380Y-75033142D01*
X140724000Y-74890285D01*
X140771619Y-74842666D01*
X140676380Y-73985523D02*
X140676380Y-74176000D01*
X140724000Y-74271238D01*
X140771619Y-74318857D01*
X140914476Y-74414095D01*
X141104952Y-74461714D01*
X141485904Y-74461714D01*
X141581142Y-74414095D01*
X141628761Y-74366476D01*
X141676380Y-74271238D01*
X141676380Y-74080761D01*
X141628761Y-73985523D01*
X141581142Y-73937904D01*
X141485904Y-73890285D01*
X141247809Y-73890285D01*
X141152571Y-73937904D01*
X141104952Y-73985523D01*
X141057333Y-74080761D01*
X141057333Y-74271238D01*
X141104952Y-74366476D01*
X141152571Y-74414095D01*
X141247809Y-74461714D01*
G04 #@! TO.C,R3*
X141057333Y-68270380D02*
X140724000Y-67794190D01*
X140485904Y-68270380D02*
X140485904Y-67270380D01*
X140866857Y-67270380D01*
X140962095Y-67318000D01*
X141009714Y-67365619D01*
X141057333Y-67460857D01*
X141057333Y-67603714D01*
X141009714Y-67698952D01*
X140962095Y-67746571D01*
X140866857Y-67794190D01*
X140485904Y-67794190D01*
X141390666Y-67270380D02*
X142009714Y-67270380D01*
X141676380Y-67651333D01*
X141819238Y-67651333D01*
X141914476Y-67698952D01*
X141962095Y-67746571D01*
X142009714Y-67841809D01*
X142009714Y-68079904D01*
X141962095Y-68175142D01*
X141914476Y-68222761D01*
X141819238Y-68270380D01*
X141533523Y-68270380D01*
X141438285Y-68222761D01*
X141390666Y-68175142D01*
G04 #@! TO.C,R15*
X110180380Y-70238857D02*
X109704190Y-70572190D01*
X110180380Y-70810285D02*
X109180380Y-70810285D01*
X109180380Y-70429333D01*
X109228000Y-70334095D01*
X109275619Y-70286476D01*
X109370857Y-70238857D01*
X109513714Y-70238857D01*
X109608952Y-70286476D01*
X109656571Y-70334095D01*
X109704190Y-70429333D01*
X109704190Y-70810285D01*
X110180380Y-69286476D02*
X110180380Y-69857904D01*
X110180380Y-69572190D02*
X109180380Y-69572190D01*
X109323238Y-69667428D01*
X109418476Y-69762666D01*
X109466095Y-69857904D01*
X109180380Y-68381714D02*
X109180380Y-68857904D01*
X109656571Y-68905523D01*
X109608952Y-68857904D01*
X109561333Y-68762666D01*
X109561333Y-68524571D01*
X109608952Y-68429333D01*
X109656571Y-68381714D01*
X109751809Y-68334095D01*
X109989904Y-68334095D01*
X110085142Y-68381714D01*
X110132761Y-68429333D01*
X110180380Y-68524571D01*
X110180380Y-68762666D01*
X110132761Y-68857904D01*
X110085142Y-68905523D01*
G04 #@! TO.C,R18*
X117800380Y-70238857D02*
X117324190Y-70572190D01*
X117800380Y-70810285D02*
X116800380Y-70810285D01*
X116800380Y-70429333D01*
X116848000Y-70334095D01*
X116895619Y-70286476D01*
X116990857Y-70238857D01*
X117133714Y-70238857D01*
X117228952Y-70286476D01*
X117276571Y-70334095D01*
X117324190Y-70429333D01*
X117324190Y-70810285D01*
X117800380Y-69286476D02*
X117800380Y-69857904D01*
X117800380Y-69572190D02*
X116800380Y-69572190D01*
X116943238Y-69667428D01*
X117038476Y-69762666D01*
X117086095Y-69857904D01*
X117228952Y-68715047D02*
X117181333Y-68810285D01*
X117133714Y-68857904D01*
X117038476Y-68905523D01*
X116990857Y-68905523D01*
X116895619Y-68857904D01*
X116848000Y-68810285D01*
X116800380Y-68715047D01*
X116800380Y-68524571D01*
X116848000Y-68429333D01*
X116895619Y-68381714D01*
X116990857Y-68334095D01*
X117038476Y-68334095D01*
X117133714Y-68381714D01*
X117181333Y-68429333D01*
X117228952Y-68524571D01*
X117228952Y-68715047D01*
X117276571Y-68810285D01*
X117324190Y-68857904D01*
X117419428Y-68905523D01*
X117609904Y-68905523D01*
X117705142Y-68857904D01*
X117752761Y-68810285D01*
X117800380Y-68715047D01*
X117800380Y-68524571D01*
X117752761Y-68429333D01*
X117705142Y-68381714D01*
X117609904Y-68334095D01*
X117419428Y-68334095D01*
X117324190Y-68381714D01*
X117276571Y-68429333D01*
X117228952Y-68524571D01*
G04 #@! TO.C,R14*
X107640380Y-70238857D02*
X107164190Y-70572190D01*
X107640380Y-70810285D02*
X106640380Y-70810285D01*
X106640380Y-70429333D01*
X106688000Y-70334095D01*
X106735619Y-70286476D01*
X106830857Y-70238857D01*
X106973714Y-70238857D01*
X107068952Y-70286476D01*
X107116571Y-70334095D01*
X107164190Y-70429333D01*
X107164190Y-70810285D01*
X107640380Y-69286476D02*
X107640380Y-69857904D01*
X107640380Y-69572190D02*
X106640380Y-69572190D01*
X106783238Y-69667428D01*
X106878476Y-69762666D01*
X106926095Y-69857904D01*
X106973714Y-68429333D02*
X107640380Y-68429333D01*
X106592761Y-68667428D02*
X107307047Y-68905523D01*
X107307047Y-68286476D01*
G04 #@! TO.C,R17*
X115260380Y-70238857D02*
X114784190Y-70572190D01*
X115260380Y-70810285D02*
X114260380Y-70810285D01*
X114260380Y-70429333D01*
X114308000Y-70334095D01*
X114355619Y-70286476D01*
X114450857Y-70238857D01*
X114593714Y-70238857D01*
X114688952Y-70286476D01*
X114736571Y-70334095D01*
X114784190Y-70429333D01*
X114784190Y-70810285D01*
X115260380Y-69286476D02*
X115260380Y-69857904D01*
X115260380Y-69572190D02*
X114260380Y-69572190D01*
X114403238Y-69667428D01*
X114498476Y-69762666D01*
X114546095Y-69857904D01*
X114260380Y-68953142D02*
X114260380Y-68286476D01*
X115260380Y-68715047D01*
G04 #@! TO.C,R16*
X112720380Y-70238857D02*
X112244190Y-70572190D01*
X112720380Y-70810285D02*
X111720380Y-70810285D01*
X111720380Y-70429333D01*
X111768000Y-70334095D01*
X111815619Y-70286476D01*
X111910857Y-70238857D01*
X112053714Y-70238857D01*
X112148952Y-70286476D01*
X112196571Y-70334095D01*
X112244190Y-70429333D01*
X112244190Y-70810285D01*
X112720380Y-69286476D02*
X112720380Y-69857904D01*
X112720380Y-69572190D02*
X111720380Y-69572190D01*
X111863238Y-69667428D01*
X111958476Y-69762666D01*
X112006095Y-69857904D01*
X111720380Y-68429333D02*
X111720380Y-68619809D01*
X111768000Y-68715047D01*
X111815619Y-68762666D01*
X111958476Y-68857904D01*
X112148952Y-68905523D01*
X112529904Y-68905523D01*
X112625142Y-68857904D01*
X112672761Y-68810285D01*
X112720380Y-68715047D01*
X112720380Y-68524571D01*
X112672761Y-68429333D01*
X112625142Y-68381714D01*
X112529904Y-68334095D01*
X112291809Y-68334095D01*
X112196571Y-68381714D01*
X112148952Y-68429333D01*
X112101333Y-68524571D01*
X112101333Y-68715047D01*
X112148952Y-68810285D01*
X112196571Y-68857904D01*
X112291809Y-68905523D01*
G04 #@! TO.C,C1*
X123277333Y-102465142D02*
X123229714Y-102512761D01*
X123086857Y-102560380D01*
X122991619Y-102560380D01*
X122848761Y-102512761D01*
X122753523Y-102417523D01*
X122705904Y-102322285D01*
X122658285Y-102131809D01*
X122658285Y-101988952D01*
X122705904Y-101798476D01*
X122753523Y-101703238D01*
X122848761Y-101608000D01*
X122991619Y-101560380D01*
X123086857Y-101560380D01*
X123229714Y-101608000D01*
X123277333Y-101655619D01*
X124229714Y-102560380D02*
X123658285Y-102560380D01*
X123944000Y-102560380D02*
X123944000Y-101560380D01*
X123848761Y-101703238D01*
X123753523Y-101798476D01*
X123658285Y-101846095D01*
G04 #@! TO.C,C2*
X130643333Y-68048142D02*
X130595714Y-68095761D01*
X130452857Y-68143380D01*
X130357619Y-68143380D01*
X130214761Y-68095761D01*
X130119523Y-68000523D01*
X130071904Y-67905285D01*
X130024285Y-67714809D01*
X130024285Y-67571952D01*
X130071904Y-67381476D01*
X130119523Y-67286238D01*
X130214761Y-67191000D01*
X130357619Y-67143380D01*
X130452857Y-67143380D01*
X130595714Y-67191000D01*
X130643333Y-67238619D01*
X131024285Y-67238619D02*
X131071904Y-67191000D01*
X131167142Y-67143380D01*
X131405238Y-67143380D01*
X131500476Y-67191000D01*
X131548095Y-67238619D01*
X131595714Y-67333857D01*
X131595714Y-67429095D01*
X131548095Y-67571952D01*
X130976666Y-68143380D01*
X131595714Y-68143380D01*
G04 #@! TO.C,C4*
X123277333Y-105005142D02*
X123229714Y-105052761D01*
X123086857Y-105100380D01*
X122991619Y-105100380D01*
X122848761Y-105052761D01*
X122753523Y-104957523D01*
X122705904Y-104862285D01*
X122658285Y-104671809D01*
X122658285Y-104528952D01*
X122705904Y-104338476D01*
X122753523Y-104243238D01*
X122848761Y-104148000D01*
X122991619Y-104100380D01*
X123086857Y-104100380D01*
X123229714Y-104148000D01*
X123277333Y-104195619D01*
X124134476Y-104433714D02*
X124134476Y-105100380D01*
X123896380Y-104052761D02*
X123658285Y-104767047D01*
X124277333Y-104767047D01*
G04 #@! TO.C,C5*
X130643333Y-65594142D02*
X130595714Y-65641761D01*
X130452857Y-65689380D01*
X130357619Y-65689380D01*
X130214761Y-65641761D01*
X130119523Y-65546523D01*
X130071904Y-65451285D01*
X130024285Y-65260809D01*
X130024285Y-65117952D01*
X130071904Y-64927476D01*
X130119523Y-64832238D01*
X130214761Y-64737000D01*
X130357619Y-64689380D01*
X130452857Y-64689380D01*
X130595714Y-64737000D01*
X130643333Y-64784619D01*
X131548095Y-64689380D02*
X131071904Y-64689380D01*
X131024285Y-65165571D01*
X131071904Y-65117952D01*
X131167142Y-65070333D01*
X131405238Y-65070333D01*
X131500476Y-65117952D01*
X131548095Y-65165571D01*
X131595714Y-65260809D01*
X131595714Y-65498904D01*
X131548095Y-65594142D01*
X131500476Y-65641761D01*
X131405238Y-65689380D01*
X131167142Y-65689380D01*
X131071904Y-65641761D01*
X131024285Y-65594142D01*
G04 #@! TO.C,C7*
X108942142Y-113323666D02*
X108989761Y-113371285D01*
X109037380Y-113514142D01*
X109037380Y-113609380D01*
X108989761Y-113752238D01*
X108894523Y-113847476D01*
X108799285Y-113895095D01*
X108608809Y-113942714D01*
X108465952Y-113942714D01*
X108275476Y-113895095D01*
X108180238Y-113847476D01*
X108085000Y-113752238D01*
X108037380Y-113609380D01*
X108037380Y-113514142D01*
X108085000Y-113371285D01*
X108132619Y-113323666D01*
X108037380Y-112990333D02*
X108037380Y-112323666D01*
X109037380Y-112752238D01*
G04 #@! TO.C,C8*
X132167333Y-102465142D02*
X132119714Y-102512761D01*
X131976857Y-102560380D01*
X131881619Y-102560380D01*
X131738761Y-102512761D01*
X131643523Y-102417523D01*
X131595904Y-102322285D01*
X131548285Y-102131809D01*
X131548285Y-101988952D01*
X131595904Y-101798476D01*
X131643523Y-101703238D01*
X131738761Y-101608000D01*
X131881619Y-101560380D01*
X131976857Y-101560380D01*
X132119714Y-101608000D01*
X132167333Y-101655619D01*
X132738761Y-101988952D02*
X132643523Y-101941333D01*
X132595904Y-101893714D01*
X132548285Y-101798476D01*
X132548285Y-101750857D01*
X132595904Y-101655619D01*
X132643523Y-101608000D01*
X132738761Y-101560380D01*
X132929238Y-101560380D01*
X133024476Y-101608000D01*
X133072095Y-101655619D01*
X133119714Y-101750857D01*
X133119714Y-101798476D01*
X133072095Y-101893714D01*
X133024476Y-101941333D01*
X132929238Y-101988952D01*
X132738761Y-101988952D01*
X132643523Y-102036571D01*
X132595904Y-102084190D01*
X132548285Y-102179428D01*
X132548285Y-102369904D01*
X132595904Y-102465142D01*
X132643523Y-102512761D01*
X132738761Y-102560380D01*
X132929238Y-102560380D01*
X133024476Y-102512761D01*
X133072095Y-102465142D01*
X133119714Y-102369904D01*
X133119714Y-102179428D01*
X133072095Y-102084190D01*
X133024476Y-102036571D01*
X132929238Y-101988952D01*
G04 #@! TO.C,C9*
X123404333Y-92051142D02*
X123356714Y-92098761D01*
X123213857Y-92146380D01*
X123118619Y-92146380D01*
X122975761Y-92098761D01*
X122880523Y-92003523D01*
X122832904Y-91908285D01*
X122785285Y-91717809D01*
X122785285Y-91574952D01*
X122832904Y-91384476D01*
X122880523Y-91289238D01*
X122975761Y-91194000D01*
X123118619Y-91146380D01*
X123213857Y-91146380D01*
X123356714Y-91194000D01*
X123404333Y-91241619D01*
X123880523Y-92146380D02*
X124071000Y-92146380D01*
X124166238Y-92098761D01*
X124213857Y-92051142D01*
X124309095Y-91908285D01*
X124356714Y-91717809D01*
X124356714Y-91336857D01*
X124309095Y-91241619D01*
X124261476Y-91194000D01*
X124166238Y-91146380D01*
X123975761Y-91146380D01*
X123880523Y-91194000D01*
X123832904Y-91241619D01*
X123785285Y-91336857D01*
X123785285Y-91574952D01*
X123832904Y-91670190D01*
X123880523Y-91717809D01*
X123975761Y-91765428D01*
X124166238Y-91765428D01*
X124261476Y-91717809D01*
X124309095Y-91670190D01*
X124356714Y-91574952D01*
G04 #@! TO.C,C10*
X132199142Y-105005142D02*
X132151523Y-105052761D01*
X132008666Y-105100380D01*
X131913428Y-105100380D01*
X131770571Y-105052761D01*
X131675333Y-104957523D01*
X131627714Y-104862285D01*
X131580095Y-104671809D01*
X131580095Y-104528952D01*
X131627714Y-104338476D01*
X131675333Y-104243238D01*
X131770571Y-104148000D01*
X131913428Y-104100380D01*
X132008666Y-104100380D01*
X132151523Y-104148000D01*
X132199142Y-104195619D01*
X133151523Y-105100380D02*
X132580095Y-105100380D01*
X132865809Y-105100380D02*
X132865809Y-104100380D01*
X132770571Y-104243238D01*
X132675333Y-104338476D01*
X132580095Y-104386095D01*
X133770571Y-104100380D02*
X133865809Y-104100380D01*
X133961047Y-104148000D01*
X134008666Y-104195619D01*
X134056285Y-104290857D01*
X134103904Y-104481333D01*
X134103904Y-104719428D01*
X134056285Y-104909904D01*
X134008666Y-105005142D01*
X133961047Y-105052761D01*
X133865809Y-105100380D01*
X133770571Y-105100380D01*
X133675333Y-105052761D01*
X133627714Y-105005142D01*
X133580095Y-104909904D01*
X133532476Y-104719428D01*
X133532476Y-104481333D01*
X133580095Y-104290857D01*
X133627714Y-104195619D01*
X133675333Y-104148000D01*
X133770571Y-104100380D01*
G04 #@! TO.C,C11*
X120007142Y-92051142D02*
X119959523Y-92098761D01*
X119816666Y-92146380D01*
X119721428Y-92146380D01*
X119578571Y-92098761D01*
X119483333Y-92003523D01*
X119435714Y-91908285D01*
X119388095Y-91717809D01*
X119388095Y-91574952D01*
X119435714Y-91384476D01*
X119483333Y-91289238D01*
X119578571Y-91194000D01*
X119721428Y-91146380D01*
X119816666Y-91146380D01*
X119959523Y-91194000D01*
X120007142Y-91241619D01*
X120959523Y-92146380D02*
X120388095Y-92146380D01*
X120673809Y-92146380D02*
X120673809Y-91146380D01*
X120578571Y-91289238D01*
X120483333Y-91384476D01*
X120388095Y-91432095D01*
X121911904Y-92146380D02*
X121340476Y-92146380D01*
X121626190Y-92146380D02*
X121626190Y-91146380D01*
X121530952Y-91289238D01*
X121435714Y-91384476D01*
X121340476Y-91432095D01*
G04 #@! TO.C,C12*
X126103142Y-68937142D02*
X126055523Y-68984761D01*
X125912666Y-69032380D01*
X125817428Y-69032380D01*
X125674571Y-68984761D01*
X125579333Y-68889523D01*
X125531714Y-68794285D01*
X125484095Y-68603809D01*
X125484095Y-68460952D01*
X125531714Y-68270476D01*
X125579333Y-68175238D01*
X125674571Y-68080000D01*
X125817428Y-68032380D01*
X125912666Y-68032380D01*
X126055523Y-68080000D01*
X126103142Y-68127619D01*
X127055523Y-69032380D02*
X126484095Y-69032380D01*
X126769809Y-69032380D02*
X126769809Y-68032380D01*
X126674571Y-68175238D01*
X126579333Y-68270476D01*
X126484095Y-68318095D01*
X127436476Y-68127619D02*
X127484095Y-68080000D01*
X127579333Y-68032380D01*
X127817428Y-68032380D01*
X127912666Y-68080000D01*
X127960285Y-68127619D01*
X128007904Y-68222857D01*
X128007904Y-68318095D01*
X127960285Y-68460952D01*
X127388857Y-69032380D01*
X128007904Y-69032380D01*
G04 #@! TO.C,C13*
X126103142Y-71477142D02*
X126055523Y-71524761D01*
X125912666Y-71572380D01*
X125817428Y-71572380D01*
X125674571Y-71524761D01*
X125579333Y-71429523D01*
X125531714Y-71334285D01*
X125484095Y-71143809D01*
X125484095Y-71000952D01*
X125531714Y-70810476D01*
X125579333Y-70715238D01*
X125674571Y-70620000D01*
X125817428Y-70572380D01*
X125912666Y-70572380D01*
X126055523Y-70620000D01*
X126103142Y-70667619D01*
X127055523Y-71572380D02*
X126484095Y-71572380D01*
X126769809Y-71572380D02*
X126769809Y-70572380D01*
X126674571Y-70715238D01*
X126579333Y-70810476D01*
X126484095Y-70858095D01*
X127388857Y-70572380D02*
X128007904Y-70572380D01*
X127674571Y-70953333D01*
X127817428Y-70953333D01*
X127912666Y-71000952D01*
X127960285Y-71048571D01*
X128007904Y-71143809D01*
X128007904Y-71381904D01*
X127960285Y-71477142D01*
X127912666Y-71524761D01*
X127817428Y-71572380D01*
X127531714Y-71572380D01*
X127436476Y-71524761D01*
X127388857Y-71477142D01*
G04 #@! TO.C,C14*
X136771142Y-51919142D02*
X136723523Y-51966761D01*
X136580666Y-52014380D01*
X136485428Y-52014380D01*
X136342571Y-51966761D01*
X136247333Y-51871523D01*
X136199714Y-51776285D01*
X136152095Y-51585809D01*
X136152095Y-51442952D01*
X136199714Y-51252476D01*
X136247333Y-51157238D01*
X136342571Y-51062000D01*
X136485428Y-51014380D01*
X136580666Y-51014380D01*
X136723523Y-51062000D01*
X136771142Y-51109619D01*
X137723523Y-52014380D02*
X137152095Y-52014380D01*
X137437809Y-52014380D02*
X137437809Y-51014380D01*
X137342571Y-51157238D01*
X137247333Y-51252476D01*
X137152095Y-51300095D01*
X138580666Y-51347714D02*
X138580666Y-52014380D01*
X138342571Y-50966761D02*
X138104476Y-51681047D01*
X138723523Y-51681047D01*
G04 #@! TO.C,C15*
X131437142Y-51919142D02*
X131389523Y-51966761D01*
X131246666Y-52014380D01*
X131151428Y-52014380D01*
X131008571Y-51966761D01*
X130913333Y-51871523D01*
X130865714Y-51776285D01*
X130818095Y-51585809D01*
X130818095Y-51442952D01*
X130865714Y-51252476D01*
X130913333Y-51157238D01*
X131008571Y-51062000D01*
X131151428Y-51014380D01*
X131246666Y-51014380D01*
X131389523Y-51062000D01*
X131437142Y-51109619D01*
X132389523Y-52014380D02*
X131818095Y-52014380D01*
X132103809Y-52014380D02*
X132103809Y-51014380D01*
X132008571Y-51157238D01*
X131913333Y-51252476D01*
X131818095Y-51300095D01*
X133294285Y-51014380D02*
X132818095Y-51014380D01*
X132770476Y-51490571D01*
X132818095Y-51442952D01*
X132913333Y-51395333D01*
X133151428Y-51395333D01*
X133246666Y-51442952D01*
X133294285Y-51490571D01*
X133341904Y-51585809D01*
X133341904Y-51823904D01*
X133294285Y-51919142D01*
X133246666Y-51966761D01*
X133151428Y-52014380D01*
X132913333Y-52014380D01*
X132818095Y-51966761D01*
X132770476Y-51919142D01*
G04 #@! TO.C,C16*
X126103142Y-51919142D02*
X126055523Y-51966761D01*
X125912666Y-52014380D01*
X125817428Y-52014380D01*
X125674571Y-51966761D01*
X125579333Y-51871523D01*
X125531714Y-51776285D01*
X125484095Y-51585809D01*
X125484095Y-51442952D01*
X125531714Y-51252476D01*
X125579333Y-51157238D01*
X125674571Y-51062000D01*
X125817428Y-51014380D01*
X125912666Y-51014380D01*
X126055523Y-51062000D01*
X126103142Y-51109619D01*
X127055523Y-52014380D02*
X126484095Y-52014380D01*
X126769809Y-52014380D02*
X126769809Y-51014380D01*
X126674571Y-51157238D01*
X126579333Y-51252476D01*
X126484095Y-51300095D01*
X127912666Y-51014380D02*
X127722190Y-51014380D01*
X127626952Y-51062000D01*
X127579333Y-51109619D01*
X127484095Y-51252476D01*
X127436476Y-51442952D01*
X127436476Y-51823904D01*
X127484095Y-51919142D01*
X127531714Y-51966761D01*
X127626952Y-52014380D01*
X127817428Y-52014380D01*
X127912666Y-51966761D01*
X127960285Y-51919142D01*
X128007904Y-51823904D01*
X128007904Y-51585809D01*
X127960285Y-51490571D01*
X127912666Y-51442952D01*
X127817428Y-51395333D01*
X127626952Y-51395333D01*
X127531714Y-51442952D01*
X127484095Y-51490571D01*
X127436476Y-51585809D01*
G04 #@! TO.C,C17*
X120769142Y-51919142D02*
X120721523Y-51966761D01*
X120578666Y-52014380D01*
X120483428Y-52014380D01*
X120340571Y-51966761D01*
X120245333Y-51871523D01*
X120197714Y-51776285D01*
X120150095Y-51585809D01*
X120150095Y-51442952D01*
X120197714Y-51252476D01*
X120245333Y-51157238D01*
X120340571Y-51062000D01*
X120483428Y-51014380D01*
X120578666Y-51014380D01*
X120721523Y-51062000D01*
X120769142Y-51109619D01*
X121721523Y-52014380D02*
X121150095Y-52014380D01*
X121435809Y-52014380D02*
X121435809Y-51014380D01*
X121340571Y-51157238D01*
X121245333Y-51252476D01*
X121150095Y-51300095D01*
X122054857Y-51014380D02*
X122721523Y-51014380D01*
X122292952Y-52014380D01*
G04 #@! TO.C,C18*
X113641142Y-97797857D02*
X113688761Y-97845476D01*
X113736380Y-97988333D01*
X113736380Y-98083571D01*
X113688761Y-98226428D01*
X113593523Y-98321666D01*
X113498285Y-98369285D01*
X113307809Y-98416904D01*
X113164952Y-98416904D01*
X112974476Y-98369285D01*
X112879238Y-98321666D01*
X112784000Y-98226428D01*
X112736380Y-98083571D01*
X112736380Y-97988333D01*
X112784000Y-97845476D01*
X112831619Y-97797857D01*
X113736380Y-96845476D02*
X113736380Y-97416904D01*
X113736380Y-97131190D02*
X112736380Y-97131190D01*
X112879238Y-97226428D01*
X112974476Y-97321666D01*
X113022095Y-97416904D01*
X113164952Y-96274047D02*
X113117333Y-96369285D01*
X113069714Y-96416904D01*
X112974476Y-96464523D01*
X112926857Y-96464523D01*
X112831619Y-96416904D01*
X112784000Y-96369285D01*
X112736380Y-96274047D01*
X112736380Y-96083571D01*
X112784000Y-95988333D01*
X112831619Y-95940714D01*
X112926857Y-95893095D01*
X112974476Y-95893095D01*
X113069714Y-95940714D01*
X113117333Y-95988333D01*
X113164952Y-96083571D01*
X113164952Y-96274047D01*
X113212571Y-96369285D01*
X113260190Y-96416904D01*
X113355428Y-96464523D01*
X113545904Y-96464523D01*
X113641142Y-96416904D01*
X113688761Y-96369285D01*
X113736380Y-96274047D01*
X113736380Y-96083571D01*
X113688761Y-95988333D01*
X113641142Y-95940714D01*
X113545904Y-95893095D01*
X113355428Y-95893095D01*
X113260190Y-95940714D01*
X113212571Y-95988333D01*
X113164952Y-96083571D01*
G04 #@! TO.C,J2*
X139620666Y-102068380D02*
X139620666Y-102782666D01*
X139573047Y-102925523D01*
X139477809Y-103020761D01*
X139334952Y-103068380D01*
X139239714Y-103068380D01*
X140049238Y-102163619D02*
X140096857Y-102116000D01*
X140192095Y-102068380D01*
X140430190Y-102068380D01*
X140525428Y-102116000D01*
X140573047Y-102163619D01*
X140620666Y-102258857D01*
X140620666Y-102354095D01*
X140573047Y-102496952D01*
X140001619Y-103068380D01*
X140620666Y-103068380D01*
G04 #@! TO.C,J3*
X113839666Y-117816380D02*
X113839666Y-118530666D01*
X113792047Y-118673523D01*
X113696809Y-118768761D01*
X113553952Y-118816380D01*
X113458714Y-118816380D01*
X114220619Y-117816380D02*
X114839666Y-117816380D01*
X114506333Y-118197333D01*
X114649190Y-118197333D01*
X114744428Y-118244952D01*
X114792047Y-118292571D01*
X114839666Y-118387809D01*
X114839666Y-118625904D01*
X114792047Y-118721142D01*
X114744428Y-118768761D01*
X114649190Y-118816380D01*
X114363476Y-118816380D01*
X114268238Y-118768761D01*
X114220619Y-118721142D01*
G04 #@! TO.C,J4*
X130476666Y-88352380D02*
X130476666Y-89066666D01*
X130429047Y-89209523D01*
X130333809Y-89304761D01*
X130190952Y-89352380D01*
X130095714Y-89352380D01*
X131381428Y-88685714D02*
X131381428Y-89352380D01*
X131143333Y-88304761D02*
X130905238Y-89019047D01*
X131524285Y-89019047D01*
G04 #@! TO.C,J5*
X108124666Y-105116380D02*
X108124666Y-105830666D01*
X108077047Y-105973523D01*
X107981809Y-106068761D01*
X107838952Y-106116380D01*
X107743714Y-106116380D01*
X109077047Y-105116380D02*
X108600857Y-105116380D01*
X108553238Y-105592571D01*
X108600857Y-105544952D01*
X108696095Y-105497333D01*
X108934190Y-105497333D01*
X109029428Y-105544952D01*
X109077047Y-105592571D01*
X109124666Y-105687809D01*
X109124666Y-105925904D01*
X109077047Y-106021142D01*
X109029428Y-106068761D01*
X108934190Y-106116380D01*
X108696095Y-106116380D01*
X108600857Y-106068761D01*
X108553238Y-106021142D01*
G04 #@! TO.C,Q1*
X109553619Y-116554238D02*
X109506000Y-116649476D01*
X109410761Y-116744714D01*
X109267904Y-116887571D01*
X109220285Y-116982809D01*
X109220285Y-117078047D01*
X109458380Y-117030428D02*
X109410761Y-117125666D01*
X109315523Y-117220904D01*
X109125047Y-117268523D01*
X108791714Y-117268523D01*
X108601238Y-117220904D01*
X108506000Y-117125666D01*
X108458380Y-117030428D01*
X108458380Y-116839952D01*
X108506000Y-116744714D01*
X108601238Y-116649476D01*
X108791714Y-116601857D01*
X109125047Y-116601857D01*
X109315523Y-116649476D01*
X109410761Y-116744714D01*
X109458380Y-116839952D01*
X109458380Y-117030428D01*
X109458380Y-115649476D02*
X109458380Y-116220904D01*
X109458380Y-115935190D02*
X108458380Y-115935190D01*
X108601238Y-116030428D01*
X108696476Y-116125666D01*
X108744095Y-116220904D01*
G04 #@! TO.C,R1*
X123277333Y-100020380D02*
X122944000Y-99544190D01*
X122705904Y-100020380D02*
X122705904Y-99020380D01*
X123086857Y-99020380D01*
X123182095Y-99068000D01*
X123229714Y-99115619D01*
X123277333Y-99210857D01*
X123277333Y-99353714D01*
X123229714Y-99448952D01*
X123182095Y-99496571D01*
X123086857Y-99544190D01*
X122705904Y-99544190D01*
X124229714Y-100020380D02*
X123658285Y-100020380D01*
X123944000Y-100020380D02*
X123944000Y-99020380D01*
X123848761Y-99163238D01*
X123753523Y-99258476D01*
X123658285Y-99306095D01*
G04 #@! TO.C,R2*
X130643333Y-63190380D02*
X130310000Y-62714190D01*
X130071904Y-63190380D02*
X130071904Y-62190380D01*
X130452857Y-62190380D01*
X130548095Y-62238000D01*
X130595714Y-62285619D01*
X130643333Y-62380857D01*
X130643333Y-62523714D01*
X130595714Y-62618952D01*
X130548095Y-62666571D01*
X130452857Y-62714190D01*
X130071904Y-62714190D01*
X131024285Y-62285619D02*
X131071904Y-62238000D01*
X131167142Y-62190380D01*
X131405238Y-62190380D01*
X131500476Y-62238000D01*
X131548095Y-62285619D01*
X131595714Y-62380857D01*
X131595714Y-62476095D01*
X131548095Y-62618952D01*
X130976666Y-63190380D01*
X131595714Y-63190380D01*
G04 #@! TO.C,R4*
X109037380Y-108243666D02*
X108561190Y-108577000D01*
X109037380Y-108815095D02*
X108037380Y-108815095D01*
X108037380Y-108434142D01*
X108085000Y-108338904D01*
X108132619Y-108291285D01*
X108227857Y-108243666D01*
X108370714Y-108243666D01*
X108465952Y-108291285D01*
X108513571Y-108338904D01*
X108561190Y-108434142D01*
X108561190Y-108815095D01*
X108370714Y-107386523D02*
X109037380Y-107386523D01*
X107989761Y-107624619D02*
X108704047Y-107862714D01*
X108704047Y-107243666D01*
G04 #@! TO.C,R5*
X131262380Y-77636666D02*
X130786190Y-77970000D01*
X131262380Y-78208095D02*
X130262380Y-78208095D01*
X130262380Y-77827142D01*
X130310000Y-77731904D01*
X130357619Y-77684285D01*
X130452857Y-77636666D01*
X130595714Y-77636666D01*
X130690952Y-77684285D01*
X130738571Y-77731904D01*
X130786190Y-77827142D01*
X130786190Y-78208095D01*
X130262380Y-76731904D02*
X130262380Y-77208095D01*
X130738571Y-77255714D01*
X130690952Y-77208095D01*
X130643333Y-77112857D01*
X130643333Y-76874761D01*
X130690952Y-76779523D01*
X130738571Y-76731904D01*
X130833809Y-76684285D01*
X131071904Y-76684285D01*
X131167142Y-76731904D01*
X131214761Y-76779523D01*
X131262380Y-76874761D01*
X131262380Y-77112857D01*
X131214761Y-77208095D01*
X131167142Y-77255714D01*
G04 #@! TO.C,R6*
X109037380Y-110783666D02*
X108561190Y-111117000D01*
X109037380Y-111355095D02*
X108037380Y-111355095D01*
X108037380Y-110974142D01*
X108085000Y-110878904D01*
X108132619Y-110831285D01*
X108227857Y-110783666D01*
X108370714Y-110783666D01*
X108465952Y-110831285D01*
X108513571Y-110878904D01*
X108561190Y-110974142D01*
X108561190Y-111355095D01*
X108037380Y-109926523D02*
X108037380Y-110117000D01*
X108085000Y-110212238D01*
X108132619Y-110259857D01*
X108275476Y-110355095D01*
X108465952Y-110402714D01*
X108846904Y-110402714D01*
X108942142Y-110355095D01*
X108989761Y-110307476D01*
X109037380Y-110212238D01*
X109037380Y-110021761D01*
X108989761Y-109926523D01*
X108942142Y-109878904D01*
X108846904Y-109831285D01*
X108608809Y-109831285D01*
X108513571Y-109878904D01*
X108465952Y-109926523D01*
X108418333Y-110021761D01*
X108418333Y-110212238D01*
X108465952Y-110307476D01*
X108513571Y-110355095D01*
X108608809Y-110402714D01*
G04 #@! TO.C,R10*
X126436380Y-100210857D02*
X125960190Y-100544190D01*
X126436380Y-100782285D02*
X125436380Y-100782285D01*
X125436380Y-100401333D01*
X125484000Y-100306095D01*
X125531619Y-100258476D01*
X125626857Y-100210857D01*
X125769714Y-100210857D01*
X125864952Y-100258476D01*
X125912571Y-100306095D01*
X125960190Y-100401333D01*
X125960190Y-100782285D01*
X126436380Y-99258476D02*
X126436380Y-99829904D01*
X126436380Y-99544190D02*
X125436380Y-99544190D01*
X125579238Y-99639428D01*
X125674476Y-99734666D01*
X125722095Y-99829904D01*
X125436380Y-98639428D02*
X125436380Y-98544190D01*
X125484000Y-98448952D01*
X125531619Y-98401333D01*
X125626857Y-98353714D01*
X125817333Y-98306095D01*
X126055428Y-98306095D01*
X126245904Y-98353714D01*
X126341142Y-98401333D01*
X126388761Y-98448952D01*
X126436380Y-98544190D01*
X126436380Y-98639428D01*
X126388761Y-98734666D01*
X126341142Y-98782285D01*
X126245904Y-98829904D01*
X126055428Y-98877523D01*
X125817333Y-98877523D01*
X125626857Y-98829904D01*
X125531619Y-98782285D01*
X125484000Y-98734666D01*
X125436380Y-98639428D01*
G04 #@! TO.C,R11*
X117165380Y-93479857D02*
X116689190Y-93813190D01*
X117165380Y-94051285D02*
X116165380Y-94051285D01*
X116165380Y-93670333D01*
X116213000Y-93575095D01*
X116260619Y-93527476D01*
X116355857Y-93479857D01*
X116498714Y-93479857D01*
X116593952Y-93527476D01*
X116641571Y-93575095D01*
X116689190Y-93670333D01*
X116689190Y-94051285D01*
X117165380Y-92527476D02*
X117165380Y-93098904D01*
X117165380Y-92813190D02*
X116165380Y-92813190D01*
X116308238Y-92908428D01*
X116403476Y-93003666D01*
X116451095Y-93098904D01*
X117165380Y-91575095D02*
X117165380Y-92146523D01*
X117165380Y-91860809D02*
X116165380Y-91860809D01*
X116308238Y-91956047D01*
X116403476Y-92051285D01*
X116451095Y-92146523D01*
G04 #@! TO.C,R12*
X133294380Y-109354857D02*
X132818190Y-109688190D01*
X133294380Y-109926285D02*
X132294380Y-109926285D01*
X132294380Y-109545333D01*
X132342000Y-109450095D01*
X132389619Y-109402476D01*
X132484857Y-109354857D01*
X132627714Y-109354857D01*
X132722952Y-109402476D01*
X132770571Y-109450095D01*
X132818190Y-109545333D01*
X132818190Y-109926285D01*
X133294380Y-108402476D02*
X133294380Y-108973904D01*
X133294380Y-108688190D02*
X132294380Y-108688190D01*
X132437238Y-108783428D01*
X132532476Y-108878666D01*
X132580095Y-108973904D01*
X132389619Y-108021523D02*
X132342000Y-107973904D01*
X132294380Y-107878666D01*
X132294380Y-107640571D01*
X132342000Y-107545333D01*
X132389619Y-107497714D01*
X132484857Y-107450095D01*
X132580095Y-107450095D01*
X132722952Y-107497714D01*
X133294380Y-108069142D01*
X133294380Y-107450095D01*
G04 #@! TO.C,R13*
X126103142Y-66492380D02*
X125769809Y-66016190D01*
X125531714Y-66492380D02*
X125531714Y-65492380D01*
X125912666Y-65492380D01*
X126007904Y-65540000D01*
X126055523Y-65587619D01*
X126103142Y-65682857D01*
X126103142Y-65825714D01*
X126055523Y-65920952D01*
X126007904Y-65968571D01*
X125912666Y-66016190D01*
X125531714Y-66016190D01*
X127055523Y-66492380D02*
X126484095Y-66492380D01*
X126769809Y-66492380D02*
X126769809Y-65492380D01*
X126674571Y-65635238D01*
X126579333Y-65730476D01*
X126484095Y-65778095D01*
X127388857Y-65492380D02*
X128007904Y-65492380D01*
X127674571Y-65873333D01*
X127817428Y-65873333D01*
X127912666Y-65920952D01*
X127960285Y-65968571D01*
X128007904Y-66063809D01*
X128007904Y-66301904D01*
X127960285Y-66397142D01*
X127912666Y-66444761D01*
X127817428Y-66492380D01*
X127531714Y-66492380D01*
X127436476Y-66444761D01*
X127388857Y-66397142D01*
G04 #@! TO.C,R19*
X136771142Y-58110380D02*
X136437809Y-57634190D01*
X136199714Y-58110380D02*
X136199714Y-57110380D01*
X136580666Y-57110380D01*
X136675904Y-57158000D01*
X136723523Y-57205619D01*
X136771142Y-57300857D01*
X136771142Y-57443714D01*
X136723523Y-57538952D01*
X136675904Y-57586571D01*
X136580666Y-57634190D01*
X136199714Y-57634190D01*
X137723523Y-58110380D02*
X137152095Y-58110380D01*
X137437809Y-58110380D02*
X137437809Y-57110380D01*
X137342571Y-57253238D01*
X137247333Y-57348476D01*
X137152095Y-57396095D01*
X138199714Y-58110380D02*
X138390190Y-58110380D01*
X138485428Y-58062761D01*
X138533047Y-58015142D01*
X138628285Y-57872285D01*
X138675904Y-57681809D01*
X138675904Y-57300857D01*
X138628285Y-57205619D01*
X138580666Y-57158000D01*
X138485428Y-57110380D01*
X138294952Y-57110380D01*
X138199714Y-57158000D01*
X138152095Y-57205619D01*
X138104476Y-57300857D01*
X138104476Y-57538952D01*
X138152095Y-57634190D01*
X138199714Y-57681809D01*
X138294952Y-57729428D01*
X138485428Y-57729428D01*
X138580666Y-57681809D01*
X138628285Y-57634190D01*
X138675904Y-57538952D01*
G04 #@! TO.C,R20*
X131437142Y-58110380D02*
X131103809Y-57634190D01*
X130865714Y-58110380D02*
X130865714Y-57110380D01*
X131246666Y-57110380D01*
X131341904Y-57158000D01*
X131389523Y-57205619D01*
X131437142Y-57300857D01*
X131437142Y-57443714D01*
X131389523Y-57538952D01*
X131341904Y-57586571D01*
X131246666Y-57634190D01*
X130865714Y-57634190D01*
X131818095Y-57205619D02*
X131865714Y-57158000D01*
X131960952Y-57110380D01*
X132199047Y-57110380D01*
X132294285Y-57158000D01*
X132341904Y-57205619D01*
X132389523Y-57300857D01*
X132389523Y-57396095D01*
X132341904Y-57538952D01*
X131770476Y-58110380D01*
X132389523Y-58110380D01*
X133008571Y-57110380D02*
X133103809Y-57110380D01*
X133199047Y-57158000D01*
X133246666Y-57205619D01*
X133294285Y-57300857D01*
X133341904Y-57491333D01*
X133341904Y-57729428D01*
X133294285Y-57919904D01*
X133246666Y-58015142D01*
X133199047Y-58062761D01*
X133103809Y-58110380D01*
X133008571Y-58110380D01*
X132913333Y-58062761D01*
X132865714Y-58015142D01*
X132818095Y-57919904D01*
X132770476Y-57729428D01*
X132770476Y-57491333D01*
X132818095Y-57300857D01*
X132865714Y-57205619D01*
X132913333Y-57158000D01*
X133008571Y-57110380D01*
G04 #@! TO.C,R21*
X126103142Y-58110380D02*
X125769809Y-57634190D01*
X125531714Y-58110380D02*
X125531714Y-57110380D01*
X125912666Y-57110380D01*
X126007904Y-57158000D01*
X126055523Y-57205619D01*
X126103142Y-57300857D01*
X126103142Y-57443714D01*
X126055523Y-57538952D01*
X126007904Y-57586571D01*
X125912666Y-57634190D01*
X125531714Y-57634190D01*
X126484095Y-57205619D02*
X126531714Y-57158000D01*
X126626952Y-57110380D01*
X126865047Y-57110380D01*
X126960285Y-57158000D01*
X127007904Y-57205619D01*
X127055523Y-57300857D01*
X127055523Y-57396095D01*
X127007904Y-57538952D01*
X126436476Y-58110380D01*
X127055523Y-58110380D01*
X128007904Y-58110380D02*
X127436476Y-58110380D01*
X127722190Y-58110380D02*
X127722190Y-57110380D01*
X127626952Y-57253238D01*
X127531714Y-57348476D01*
X127436476Y-57396095D01*
G04 #@! TO.C,R22*
X116276380Y-97797857D02*
X115800190Y-98131190D01*
X116276380Y-98369285D02*
X115276380Y-98369285D01*
X115276380Y-97988333D01*
X115324000Y-97893095D01*
X115371619Y-97845476D01*
X115466857Y-97797857D01*
X115609714Y-97797857D01*
X115704952Y-97845476D01*
X115752571Y-97893095D01*
X115800190Y-97988333D01*
X115800190Y-98369285D01*
X115371619Y-97416904D02*
X115324000Y-97369285D01*
X115276380Y-97274047D01*
X115276380Y-97035952D01*
X115324000Y-96940714D01*
X115371619Y-96893095D01*
X115466857Y-96845476D01*
X115562095Y-96845476D01*
X115704952Y-96893095D01*
X116276380Y-97464523D01*
X116276380Y-96845476D01*
X115371619Y-96464523D02*
X115324000Y-96416904D01*
X115276380Y-96321666D01*
X115276380Y-96083571D01*
X115324000Y-95988333D01*
X115371619Y-95940714D01*
X115466857Y-95893095D01*
X115562095Y-95893095D01*
X115704952Y-95940714D01*
X116276380Y-96512142D01*
X116276380Y-95893095D01*
G04 #@! TO.C,R23*
X111498142Y-93035380D02*
X111164809Y-92559190D01*
X110926714Y-93035380D02*
X110926714Y-92035380D01*
X111307666Y-92035380D01*
X111402904Y-92083000D01*
X111450523Y-92130619D01*
X111498142Y-92225857D01*
X111498142Y-92368714D01*
X111450523Y-92463952D01*
X111402904Y-92511571D01*
X111307666Y-92559190D01*
X110926714Y-92559190D01*
X111879095Y-92130619D02*
X111926714Y-92083000D01*
X112021952Y-92035380D01*
X112260047Y-92035380D01*
X112355285Y-92083000D01*
X112402904Y-92130619D01*
X112450523Y-92225857D01*
X112450523Y-92321095D01*
X112402904Y-92463952D01*
X111831476Y-93035380D01*
X112450523Y-93035380D01*
X112783857Y-92035380D02*
X113402904Y-92035380D01*
X113069571Y-92416333D01*
X113212428Y-92416333D01*
X113307666Y-92463952D01*
X113355285Y-92511571D01*
X113402904Y-92606809D01*
X113402904Y-92844904D01*
X113355285Y-92940142D01*
X113307666Y-92987761D01*
X113212428Y-93035380D01*
X112926714Y-93035380D01*
X112831476Y-92987761D01*
X112783857Y-92940142D01*
G04 #@! TO.C,R24*
X111196380Y-97667857D02*
X110720190Y-98001190D01*
X111196380Y-98239285D02*
X110196380Y-98239285D01*
X110196380Y-97858333D01*
X110244000Y-97763095D01*
X110291619Y-97715476D01*
X110386857Y-97667857D01*
X110529714Y-97667857D01*
X110624952Y-97715476D01*
X110672571Y-97763095D01*
X110720190Y-97858333D01*
X110720190Y-98239285D01*
X110291619Y-97286904D02*
X110244000Y-97239285D01*
X110196380Y-97144047D01*
X110196380Y-96905952D01*
X110244000Y-96810714D01*
X110291619Y-96763095D01*
X110386857Y-96715476D01*
X110482095Y-96715476D01*
X110624952Y-96763095D01*
X111196380Y-97334523D01*
X111196380Y-96715476D01*
X110529714Y-95858333D02*
X111196380Y-95858333D01*
X110148761Y-96096428D02*
X110863047Y-96334523D01*
X110863047Y-95715476D01*
G04 #@! TO.C,R25*
X114546142Y-105608380D02*
X114212809Y-105132190D01*
X113974714Y-105608380D02*
X113974714Y-104608380D01*
X114355666Y-104608380D01*
X114450904Y-104656000D01*
X114498523Y-104703619D01*
X114546142Y-104798857D01*
X114546142Y-104941714D01*
X114498523Y-105036952D01*
X114450904Y-105084571D01*
X114355666Y-105132190D01*
X113974714Y-105132190D01*
X114927095Y-104703619D02*
X114974714Y-104656000D01*
X115069952Y-104608380D01*
X115308047Y-104608380D01*
X115403285Y-104656000D01*
X115450904Y-104703619D01*
X115498523Y-104798857D01*
X115498523Y-104894095D01*
X115450904Y-105036952D01*
X114879476Y-105608380D01*
X115498523Y-105608380D01*
X116403285Y-104608380D02*
X115927095Y-104608380D01*
X115879476Y-105084571D01*
X115927095Y-105036952D01*
X116022333Y-104989333D01*
X116260428Y-104989333D01*
X116355666Y-105036952D01*
X116403285Y-105084571D01*
X116450904Y-105179809D01*
X116450904Y-105417904D01*
X116403285Y-105513142D01*
X116355666Y-105560761D01*
X116260428Y-105608380D01*
X116022333Y-105608380D01*
X115927095Y-105560761D01*
X115879476Y-105513142D01*
G04 #@! TO.C,U1*
X118110095Y-111720380D02*
X118110095Y-112529904D01*
X118157714Y-112625142D01*
X118205333Y-112672761D01*
X118300571Y-112720380D01*
X118491047Y-112720380D01*
X118586285Y-112672761D01*
X118633904Y-112625142D01*
X118681523Y-112529904D01*
X118681523Y-111720380D01*
X119681523Y-112720380D02*
X119110095Y-112720380D01*
X119395809Y-112720380D02*
X119395809Y-111720380D01*
X119300571Y-111863238D01*
X119205333Y-111958476D01*
X119110095Y-112006095D01*
G04 #@! TO.C,U2*
X129540095Y-74636380D02*
X129540095Y-75445904D01*
X129587714Y-75541142D01*
X129635333Y-75588761D01*
X129730571Y-75636380D01*
X129921047Y-75636380D01*
X130016285Y-75588761D01*
X130063904Y-75541142D01*
X130111523Y-75445904D01*
X130111523Y-74636380D01*
X130540095Y-74731619D02*
X130587714Y-74684000D01*
X130682952Y-74636380D01*
X130921047Y-74636380D01*
X131016285Y-74684000D01*
X131063904Y-74731619D01*
X131111523Y-74826857D01*
X131111523Y-74922095D01*
X131063904Y-75064952D01*
X130492476Y-75636380D01*
X131111523Y-75636380D01*
G04 #@! TO.C,U3*
X137922095Y-81748380D02*
X137922095Y-82557904D01*
X137969714Y-82653142D01*
X138017333Y-82700761D01*
X138112571Y-82748380D01*
X138303047Y-82748380D01*
X138398285Y-82700761D01*
X138445904Y-82653142D01*
X138493523Y-82557904D01*
X138493523Y-81748380D01*
X138874476Y-81748380D02*
X139493523Y-81748380D01*
X139160190Y-82129333D01*
X139303047Y-82129333D01*
X139398285Y-82176952D01*
X139445904Y-82224571D01*
X139493523Y-82319809D01*
X139493523Y-82557904D01*
X139445904Y-82653142D01*
X139398285Y-82700761D01*
X139303047Y-82748380D01*
X139017333Y-82748380D01*
X138922095Y-82700761D01*
X138874476Y-82653142D01*
G04 #@! TO.C,U4*
X127000095Y-111720380D02*
X127000095Y-112529904D01*
X127047714Y-112625142D01*
X127095333Y-112672761D01*
X127190571Y-112720380D01*
X127381047Y-112720380D01*
X127476285Y-112672761D01*
X127523904Y-112625142D01*
X127571523Y-112529904D01*
X127571523Y-111720380D01*
X128476285Y-112053714D02*
X128476285Y-112720380D01*
X128238190Y-111672761D02*
X128000095Y-112387047D01*
X128619142Y-112387047D01*
G04 #@! TO.C,U5*
X129286095Y-96988380D02*
X129286095Y-97797904D01*
X129333714Y-97893142D01*
X129381333Y-97940761D01*
X129476571Y-97988380D01*
X129667047Y-97988380D01*
X129762285Y-97940761D01*
X129809904Y-97893142D01*
X129857523Y-97797904D01*
X129857523Y-96988380D01*
X130809904Y-96988380D02*
X130333714Y-96988380D01*
X130286095Y-97464571D01*
X130333714Y-97416952D01*
X130428952Y-97369333D01*
X130667047Y-97369333D01*
X130762285Y-97416952D01*
X130809904Y-97464571D01*
X130857523Y-97559809D01*
X130857523Y-97797904D01*
X130809904Y-97893142D01*
X130762285Y-97940761D01*
X130667047Y-97988380D01*
X130428952Y-97988380D01*
X130333714Y-97940761D01*
X130286095Y-97893142D01*
G04 #@! TO.C,U6*
X128992380Y-79882904D02*
X129801904Y-79882904D01*
X129897142Y-79835285D01*
X129944761Y-79787666D01*
X129992380Y-79692428D01*
X129992380Y-79501952D01*
X129944761Y-79406714D01*
X129897142Y-79359095D01*
X129801904Y-79311476D01*
X128992380Y-79311476D01*
X128992380Y-78406714D02*
X128992380Y-78597190D01*
X129040000Y-78692428D01*
X129087619Y-78740047D01*
X129230476Y-78835285D01*
X129420952Y-78882904D01*
X129801904Y-78882904D01*
X129897142Y-78835285D01*
X129944761Y-78787666D01*
X129992380Y-78692428D01*
X129992380Y-78501952D01*
X129944761Y-78406714D01*
X129897142Y-78359095D01*
X129801904Y-78311476D01*
X129563809Y-78311476D01*
X129468571Y-78359095D01*
X129420952Y-78406714D01*
X129373333Y-78501952D01*
X129373333Y-78692428D01*
X129420952Y-78787666D01*
X129468571Y-78835285D01*
X129563809Y-78882904D01*
G04 #@! TO.C,R26*
X120769142Y-58364380D02*
X120435809Y-57888190D01*
X120197714Y-58364380D02*
X120197714Y-57364380D01*
X120578666Y-57364380D01*
X120673904Y-57412000D01*
X120721523Y-57459619D01*
X120769142Y-57554857D01*
X120769142Y-57697714D01*
X120721523Y-57792952D01*
X120673904Y-57840571D01*
X120578666Y-57888190D01*
X120197714Y-57888190D01*
X121150095Y-57459619D02*
X121197714Y-57412000D01*
X121292952Y-57364380D01*
X121531047Y-57364380D01*
X121626285Y-57412000D01*
X121673904Y-57459619D01*
X121721523Y-57554857D01*
X121721523Y-57650095D01*
X121673904Y-57792952D01*
X121102476Y-58364380D01*
X121721523Y-58364380D01*
X122578666Y-57364380D02*
X122388190Y-57364380D01*
X122292952Y-57412000D01*
X122245333Y-57459619D01*
X122150095Y-57602476D01*
X122102476Y-57792952D01*
X122102476Y-58173904D01*
X122150095Y-58269142D01*
X122197714Y-58316761D01*
X122292952Y-58364380D01*
X122483428Y-58364380D01*
X122578666Y-58316761D01*
X122626285Y-58269142D01*
X122673904Y-58173904D01*
X122673904Y-57935809D01*
X122626285Y-57840571D01*
X122578666Y-57792952D01*
X122483428Y-57745333D01*
X122292952Y-57745333D01*
X122197714Y-57792952D01*
X122150095Y-57840571D01*
X122102476Y-57935809D01*
G04 #@! TO.C,C19*
X113047542Y-50344342D02*
X112999923Y-50391961D01*
X112857066Y-50439580D01*
X112761828Y-50439580D01*
X112618971Y-50391961D01*
X112523733Y-50296723D01*
X112476114Y-50201485D01*
X112428495Y-50011009D01*
X112428495Y-49868152D01*
X112476114Y-49677676D01*
X112523733Y-49582438D01*
X112618971Y-49487200D01*
X112761828Y-49439580D01*
X112857066Y-49439580D01*
X112999923Y-49487200D01*
X113047542Y-49534819D01*
X113999923Y-50439580D02*
X113428495Y-50439580D01*
X113714209Y-50439580D02*
X113714209Y-49439580D01*
X113618971Y-49582438D01*
X113523733Y-49677676D01*
X113428495Y-49725295D01*
X114476114Y-50439580D02*
X114666590Y-50439580D01*
X114761828Y-50391961D01*
X114809447Y-50344342D01*
X114904685Y-50201485D01*
X114952304Y-50011009D01*
X114952304Y-49630057D01*
X114904685Y-49534819D01*
X114857066Y-49487200D01*
X114761828Y-49439580D01*
X114571352Y-49439580D01*
X114476114Y-49487200D01*
X114428495Y-49534819D01*
X114380876Y-49630057D01*
X114380876Y-49868152D01*
X114428495Y-49963390D01*
X114476114Y-50011009D01*
X114571352Y-50058628D01*
X114761828Y-50058628D01*
X114857066Y-50011009D01*
X114904685Y-49963390D01*
X114952304Y-49868152D01*
G04 #@! TO.C,D1*
X107640380Y-61444095D02*
X106640380Y-61444095D01*
X106640380Y-61206000D01*
X106688000Y-61063142D01*
X106783238Y-60967904D01*
X106878476Y-60920285D01*
X107068952Y-60872666D01*
X107211809Y-60872666D01*
X107402285Y-60920285D01*
X107497523Y-60967904D01*
X107592761Y-61063142D01*
X107640380Y-61206000D01*
X107640380Y-61444095D01*
X107640380Y-59920285D02*
X107640380Y-60491714D01*
X107640380Y-60206000D02*
X106640380Y-60206000D01*
X106783238Y-60301238D01*
X106878476Y-60396476D01*
X106926095Y-60491714D01*
G04 #@! TO.C,D2*
X110180380Y-61444095D02*
X109180380Y-61444095D01*
X109180380Y-61206000D01*
X109228000Y-61063142D01*
X109323238Y-60967904D01*
X109418476Y-60920285D01*
X109608952Y-60872666D01*
X109751809Y-60872666D01*
X109942285Y-60920285D01*
X110037523Y-60967904D01*
X110132761Y-61063142D01*
X110180380Y-61206000D01*
X110180380Y-61444095D01*
X109275619Y-60491714D02*
X109228000Y-60444095D01*
X109180380Y-60348857D01*
X109180380Y-60110761D01*
X109228000Y-60015523D01*
X109275619Y-59967904D01*
X109370857Y-59920285D01*
X109466095Y-59920285D01*
X109608952Y-59967904D01*
X110180380Y-60539333D01*
X110180380Y-59920285D01*
G04 #@! TO.C,D3*
X112720380Y-61444095D02*
X111720380Y-61444095D01*
X111720380Y-61206000D01*
X111768000Y-61063142D01*
X111863238Y-60967904D01*
X111958476Y-60920285D01*
X112148952Y-60872666D01*
X112291809Y-60872666D01*
X112482285Y-60920285D01*
X112577523Y-60967904D01*
X112672761Y-61063142D01*
X112720380Y-61206000D01*
X112720380Y-61444095D01*
X111720380Y-60539333D02*
X111720380Y-59920285D01*
X112101333Y-60253619D01*
X112101333Y-60110761D01*
X112148952Y-60015523D01*
X112196571Y-59967904D01*
X112291809Y-59920285D01*
X112529904Y-59920285D01*
X112625142Y-59967904D01*
X112672761Y-60015523D01*
X112720380Y-60110761D01*
X112720380Y-60396476D01*
X112672761Y-60491714D01*
X112625142Y-60539333D01*
G04 #@! TO.C,D4*
X115260380Y-61444095D02*
X114260380Y-61444095D01*
X114260380Y-61206000D01*
X114308000Y-61063142D01*
X114403238Y-60967904D01*
X114498476Y-60920285D01*
X114688952Y-60872666D01*
X114831809Y-60872666D01*
X115022285Y-60920285D01*
X115117523Y-60967904D01*
X115212761Y-61063142D01*
X115260380Y-61206000D01*
X115260380Y-61444095D01*
X114593714Y-60015523D02*
X115260380Y-60015523D01*
X114212761Y-60253619D02*
X114927047Y-60491714D01*
X114927047Y-59872666D01*
G04 #@! TO.C,D5*
X117800380Y-61444095D02*
X116800380Y-61444095D01*
X116800380Y-61206000D01*
X116848000Y-61063142D01*
X116943238Y-60967904D01*
X117038476Y-60920285D01*
X117228952Y-60872666D01*
X117371809Y-60872666D01*
X117562285Y-60920285D01*
X117657523Y-60967904D01*
X117752761Y-61063142D01*
X117800380Y-61206000D01*
X117800380Y-61444095D01*
X116800380Y-59967904D02*
X116800380Y-60444095D01*
X117276571Y-60491714D01*
X117228952Y-60444095D01*
X117181333Y-60348857D01*
X117181333Y-60110761D01*
X117228952Y-60015523D01*
X117276571Y-59967904D01*
X117371809Y-59920285D01*
X117609904Y-59920285D01*
X117705142Y-59967904D01*
X117752761Y-60015523D01*
X117800380Y-60110761D01*
X117800380Y-60348857D01*
X117752761Y-60444095D01*
X117705142Y-60491714D01*
G04 #@! TD*
M02*
