G04 #@! TF.GenerationSoftware,KiCad,Pcbnew,(5.0.0)*
G04 #@! TF.CreationDate,2018-12-13T19:33:25+01:00*
G04 #@! TF.ProjectId,TrackModBusMaster_piggyback,547261636B4D6F644275734D61737465,rev?*
G04 #@! TF.SameCoordinates,Original*
G04 #@! TF.FileFunction,Legend,Bot*
G04 #@! TF.FilePolarity,Positive*
%FSLAX46Y46*%
G04 Gerber Fmt 4.6, Leading zero omitted, Abs format (unit mm)*
G04 Created by KiCad (PCBNEW (5.0.0)) date 12/13/18 19:33:25*
%MOMM*%
%LPD*%
G01*
G04 APERTURE LIST*
%ADD10C,0.300000*%
%ADD11C,0.500000*%
%ADD12C,0.120000*%
%ADD13C,0.150000*%
G04 APERTURE END LIST*
D10*
X106358571Y-106458000D02*
X106787142Y-105315142D01*
X107215714Y-106458000D01*
X107358571Y-107172285D02*
X105858571Y-107172285D01*
X107215714Y-108743714D02*
X107287142Y-108672285D01*
X107358571Y-108458000D01*
X107358571Y-108315142D01*
X107287142Y-108100857D01*
X107144285Y-107958000D01*
X107001428Y-107886571D01*
X106715714Y-107815142D01*
X106501428Y-107815142D01*
X106215714Y-107886571D01*
X106072857Y-107958000D01*
X105930000Y-108100857D01*
X105858571Y-108315142D01*
X105858571Y-108458000D01*
X105930000Y-108672285D01*
X106001428Y-108743714D01*
X107287142Y-109315142D02*
X107358571Y-109529428D01*
X107358571Y-109886571D01*
X107287142Y-110029428D01*
X107215714Y-110100857D01*
X107072857Y-110172285D01*
X106930000Y-110172285D01*
X106787142Y-110100857D01*
X106715714Y-110029428D01*
X106644285Y-109886571D01*
X106572857Y-109600857D01*
X106501428Y-109458000D01*
X106430000Y-109386571D01*
X106287142Y-109315142D01*
X106144285Y-109315142D01*
X106001428Y-109386571D01*
X105930000Y-109458000D01*
X105858571Y-109600857D01*
X105858571Y-109958000D01*
X105930000Y-110172285D01*
X107358571Y-110815142D02*
X105858571Y-110815142D01*
X105858571Y-111386571D01*
X105930000Y-111529428D01*
X106001428Y-111600857D01*
X106144285Y-111672285D01*
X106358571Y-111672285D01*
X106501428Y-111600857D01*
X106572857Y-111529428D01*
X106644285Y-111386571D01*
X106644285Y-110815142D01*
X141643571Y-52555000D02*
X140143571Y-52555000D01*
X141215000Y-53055000D01*
X140143571Y-53555000D01*
X141643571Y-53555000D01*
X141643571Y-54483571D02*
X141572142Y-54340714D01*
X141500714Y-54269285D01*
X141357857Y-54197857D01*
X140929285Y-54197857D01*
X140786428Y-54269285D01*
X140715000Y-54340714D01*
X140643571Y-54483571D01*
X140643571Y-54697857D01*
X140715000Y-54840714D01*
X140786428Y-54912142D01*
X140929285Y-54983571D01*
X141357857Y-54983571D01*
X141500714Y-54912142D01*
X141572142Y-54840714D01*
X141643571Y-54697857D01*
X141643571Y-54483571D01*
X141643571Y-56269285D02*
X140143571Y-56269285D01*
X141572142Y-56269285D02*
X141643571Y-56126428D01*
X141643571Y-55840714D01*
X141572142Y-55697857D01*
X141500714Y-55626428D01*
X141357857Y-55555000D01*
X140929285Y-55555000D01*
X140786428Y-55626428D01*
X140715000Y-55697857D01*
X140643571Y-55840714D01*
X140643571Y-56126428D01*
X140715000Y-56269285D01*
X140857857Y-57483571D02*
X140929285Y-57697857D01*
X141000714Y-57769285D01*
X141143571Y-57840714D01*
X141357857Y-57840714D01*
X141500714Y-57769285D01*
X141572142Y-57697857D01*
X141643571Y-57555000D01*
X141643571Y-56983571D01*
X140143571Y-56983571D01*
X140143571Y-57483571D01*
X140215000Y-57626428D01*
X140286428Y-57697857D01*
X140429285Y-57769285D01*
X140572142Y-57769285D01*
X140715000Y-57697857D01*
X140786428Y-57626428D01*
X140857857Y-57483571D01*
X140857857Y-56983571D01*
X140643571Y-59126428D02*
X141643571Y-59126428D01*
X140643571Y-58483571D02*
X141429285Y-58483571D01*
X141572142Y-58555000D01*
X141643571Y-58697857D01*
X141643571Y-58912142D01*
X141572142Y-59055000D01*
X141500714Y-59126428D01*
X141572142Y-59769285D02*
X141643571Y-59912142D01*
X141643571Y-60197857D01*
X141572142Y-60340714D01*
X141429285Y-60412142D01*
X141357857Y-60412142D01*
X141215000Y-60340714D01*
X141143571Y-60197857D01*
X141143571Y-59983571D01*
X141072142Y-59840714D01*
X140929285Y-59769285D01*
X140857857Y-59769285D01*
X140715000Y-59840714D01*
X140643571Y-59983571D01*
X140643571Y-60197857D01*
X140715000Y-60340714D01*
X140072142Y-62126428D02*
X142000714Y-60840714D01*
X141572142Y-62555000D02*
X141643571Y-62769285D01*
X141643571Y-63126428D01*
X141572142Y-63269285D01*
X141500714Y-63340714D01*
X141357857Y-63412142D01*
X141215000Y-63412142D01*
X141072142Y-63340714D01*
X141000714Y-63269285D01*
X140929285Y-63126428D01*
X140857857Y-62840714D01*
X140786428Y-62697857D01*
X140715000Y-62626428D01*
X140572142Y-62555000D01*
X140429285Y-62555000D01*
X140286428Y-62626428D01*
X140215000Y-62697857D01*
X140143571Y-62840714D01*
X140143571Y-63197857D01*
X140215000Y-63412142D01*
X141643571Y-64055000D02*
X140143571Y-64055000D01*
X140143571Y-64626428D01*
X140215000Y-64769285D01*
X140286428Y-64840714D01*
X140429285Y-64912142D01*
X140643571Y-64912142D01*
X140786428Y-64840714D01*
X140857857Y-64769285D01*
X140929285Y-64626428D01*
X140929285Y-64055000D01*
X141643571Y-65555000D02*
X140143571Y-65555000D01*
X144193571Y-55733571D02*
X142693571Y-55733571D01*
X143765000Y-56233571D01*
X142693571Y-56733571D01*
X144193571Y-56733571D01*
X144193571Y-58090714D02*
X143407857Y-58090714D01*
X143265000Y-58019285D01*
X143193571Y-57876428D01*
X143193571Y-57590714D01*
X143265000Y-57447857D01*
X144122142Y-58090714D02*
X144193571Y-57947857D01*
X144193571Y-57590714D01*
X144122142Y-57447857D01*
X143979285Y-57376428D01*
X143836428Y-57376428D01*
X143693571Y-57447857D01*
X143622142Y-57590714D01*
X143622142Y-57947857D01*
X143550714Y-58090714D01*
X144122142Y-58733571D02*
X144193571Y-58876428D01*
X144193571Y-59162142D01*
X144122142Y-59305000D01*
X143979285Y-59376428D01*
X143907857Y-59376428D01*
X143765000Y-59305000D01*
X143693571Y-59162142D01*
X143693571Y-58947857D01*
X143622142Y-58805000D01*
X143479285Y-58733571D01*
X143407857Y-58733571D01*
X143265000Y-58805000D01*
X143193571Y-58947857D01*
X143193571Y-59162142D01*
X143265000Y-59305000D01*
X143193571Y-59805000D02*
X143193571Y-60376428D01*
X142693571Y-60019285D02*
X143979285Y-60019285D01*
X144122142Y-60090714D01*
X144193571Y-60233571D01*
X144193571Y-60376428D01*
X144122142Y-61447857D02*
X144193571Y-61305000D01*
X144193571Y-61019285D01*
X144122142Y-60876428D01*
X143979285Y-60805000D01*
X143407857Y-60805000D01*
X143265000Y-60876428D01*
X143193571Y-61019285D01*
X143193571Y-61305000D01*
X143265000Y-61447857D01*
X143407857Y-61519285D01*
X143550714Y-61519285D01*
X143693571Y-60805000D01*
X144193571Y-62162142D02*
X143193571Y-62162142D01*
X143479285Y-62162142D02*
X143336428Y-62233571D01*
X143265000Y-62305000D01*
X143193571Y-62447857D01*
X143193571Y-62590714D01*
D11*
X142605238Y-89344571D02*
X142510000Y-89439809D01*
X142414761Y-89630285D01*
X142414761Y-90106476D01*
X142510000Y-90296952D01*
X142605238Y-90392190D01*
X142795714Y-90487428D01*
X142986190Y-90487428D01*
X143271904Y-90392190D01*
X144414761Y-89249333D01*
X144414761Y-90487428D01*
X144414761Y-98552047D02*
X144414761Y-97409190D01*
X144414761Y-97980619D02*
X142414761Y-97980619D01*
X142700476Y-97790142D01*
X142890952Y-97599666D01*
X142986190Y-97409190D01*
X142414761Y-99790142D02*
X142414761Y-99980619D01*
X142510000Y-100171095D01*
X142605238Y-100266333D01*
X142795714Y-100361571D01*
X143176666Y-100456809D01*
X143652857Y-100456809D01*
X144033809Y-100361571D01*
X144224285Y-100266333D01*
X144319523Y-100171095D01*
X144414761Y-99980619D01*
X144414761Y-99790142D01*
X144319523Y-99599666D01*
X144224285Y-99504428D01*
X144033809Y-99409190D01*
X143652857Y-99313952D01*
X143176666Y-99313952D01*
X142795714Y-99409190D01*
X142605238Y-99504428D01*
X142510000Y-99599666D01*
X142414761Y-99790142D01*
X136794761Y-98425047D02*
X136794761Y-98806000D01*
X136699523Y-98996476D01*
X136604285Y-99091714D01*
X136318571Y-99282190D01*
X135937619Y-99377428D01*
X135175714Y-99377428D01*
X134985238Y-99282190D01*
X134890000Y-99186952D01*
X134794761Y-98996476D01*
X134794761Y-98615523D01*
X134890000Y-98425047D01*
X134985238Y-98329809D01*
X135175714Y-98234571D01*
X135651904Y-98234571D01*
X135842380Y-98329809D01*
X135937619Y-98425047D01*
X136032857Y-98615523D01*
X136032857Y-98996476D01*
X135937619Y-99186952D01*
X135842380Y-99282190D01*
X135651904Y-99377428D01*
X136921761Y-90487428D02*
X136921761Y-89344571D01*
X136921761Y-89916000D02*
X134921761Y-89916000D01*
X135207476Y-89725523D01*
X135397952Y-89535047D01*
X135493190Y-89344571D01*
D12*
G04 #@! TO.C,R9*
X138184000Y-81132000D02*
X139184000Y-81132000D01*
X138184000Y-82952000D02*
X139184000Y-82952000D01*
G04 #@! TO.C,R7*
X133244000Y-87724064D02*
X133244000Y-86519936D01*
X131424000Y-87724064D02*
X131424000Y-86519936D01*
G04 #@! TO.C,R8*
X133964000Y-83914064D02*
X133964000Y-82709936D01*
X135784000Y-83914064D02*
X135784000Y-82709936D01*
G04 #@! TO.C,C20*
X135784000Y-79113000D02*
X135784000Y-78113000D01*
X133964000Y-79113000D02*
X133964000Y-78113000D01*
G04 #@! TO.C,R27*
X139184000Y-83672000D02*
X138184000Y-83672000D01*
X139184000Y-85492000D02*
X138184000Y-85492000D01*
G04 #@! TO.C,R9*
D13*
X142533666Y-82494380D02*
X142867000Y-82018190D01*
X143105095Y-82494380D02*
X143105095Y-81494380D01*
X142724142Y-81494380D01*
X142628904Y-81542000D01*
X142581285Y-81589619D01*
X142533666Y-81684857D01*
X142533666Y-81827714D01*
X142581285Y-81922952D01*
X142628904Y-81970571D01*
X142724142Y-82018190D01*
X143105095Y-82018190D01*
X142057476Y-82494380D02*
X141867000Y-82494380D01*
X141771761Y-82446761D01*
X141724142Y-82399142D01*
X141628904Y-82256285D01*
X141581285Y-82065809D01*
X141581285Y-81684857D01*
X141628904Y-81589619D01*
X141676523Y-81542000D01*
X141771761Y-81494380D01*
X141962238Y-81494380D01*
X142057476Y-81542000D01*
X142105095Y-81589619D01*
X142152714Y-81684857D01*
X142152714Y-81922952D01*
X142105095Y-82018190D01*
X142057476Y-82065809D01*
X141962238Y-82113428D01*
X141771761Y-82113428D01*
X141676523Y-82065809D01*
X141628904Y-82018190D01*
X141581285Y-81922952D01*
G04 #@! TO.C,R7*
X130881380Y-86955333D02*
X130405190Y-86622000D01*
X130881380Y-86383904D02*
X129881380Y-86383904D01*
X129881380Y-86764857D01*
X129929000Y-86860095D01*
X129976619Y-86907714D01*
X130071857Y-86955333D01*
X130214714Y-86955333D01*
X130309952Y-86907714D01*
X130357571Y-86860095D01*
X130405190Y-86764857D01*
X130405190Y-86383904D01*
X129881380Y-87288666D02*
X129881380Y-87955333D01*
X130881380Y-87526761D01*
G04 #@! TO.C,R8*
X133522980Y-81672133D02*
X133046790Y-81338800D01*
X133522980Y-81100704D02*
X132522980Y-81100704D01*
X132522980Y-81481657D01*
X132570600Y-81576895D01*
X132618219Y-81624514D01*
X132713457Y-81672133D01*
X132856314Y-81672133D01*
X132951552Y-81624514D01*
X132999171Y-81576895D01*
X133046790Y-81481657D01*
X133046790Y-81100704D01*
X132951552Y-82243561D02*
X132903933Y-82148323D01*
X132856314Y-82100704D01*
X132761076Y-82053085D01*
X132713457Y-82053085D01*
X132618219Y-82100704D01*
X132570600Y-82148323D01*
X132522980Y-82243561D01*
X132522980Y-82434038D01*
X132570600Y-82529276D01*
X132618219Y-82576895D01*
X132713457Y-82624514D01*
X132761076Y-82624514D01*
X132856314Y-82576895D01*
X132903933Y-82529276D01*
X132951552Y-82434038D01*
X132951552Y-82243561D01*
X132999171Y-82148323D01*
X133046790Y-82100704D01*
X133142028Y-82053085D01*
X133332504Y-82053085D01*
X133427742Y-82100704D01*
X133475361Y-82148323D01*
X133522980Y-82243561D01*
X133522980Y-82434038D01*
X133475361Y-82529276D01*
X133427742Y-82576895D01*
X133332504Y-82624514D01*
X133142028Y-82624514D01*
X133046790Y-82576895D01*
X132999171Y-82529276D01*
X132951552Y-82434038D01*
G04 #@! TO.C,C20*
X133376942Y-77970142D02*
X133424561Y-77922523D01*
X133472180Y-77779666D01*
X133472180Y-77684428D01*
X133424561Y-77541571D01*
X133329323Y-77446333D01*
X133234085Y-77398714D01*
X133043609Y-77351095D01*
X132900752Y-77351095D01*
X132710276Y-77398714D01*
X132615038Y-77446333D01*
X132519800Y-77541571D01*
X132472180Y-77684428D01*
X132472180Y-77779666D01*
X132519800Y-77922523D01*
X132567419Y-77970142D01*
X132567419Y-78351095D02*
X132519800Y-78398714D01*
X132472180Y-78493952D01*
X132472180Y-78732047D01*
X132519800Y-78827285D01*
X132567419Y-78874904D01*
X132662657Y-78922523D01*
X132757895Y-78922523D01*
X132900752Y-78874904D01*
X133472180Y-78303476D01*
X133472180Y-78922523D01*
X132472180Y-79541571D02*
X132472180Y-79636809D01*
X132519800Y-79732047D01*
X132567419Y-79779666D01*
X132662657Y-79827285D01*
X132853133Y-79874904D01*
X133091228Y-79874904D01*
X133281704Y-79827285D01*
X133376942Y-79779666D01*
X133424561Y-79732047D01*
X133472180Y-79636809D01*
X133472180Y-79541571D01*
X133424561Y-79446333D01*
X133376942Y-79398714D01*
X133281704Y-79351095D01*
X133091228Y-79303476D01*
X132853133Y-79303476D01*
X132662657Y-79351095D01*
X132567419Y-79398714D01*
X132519800Y-79446333D01*
X132472180Y-79541571D01*
G04 #@! TO.C,R27*
X143390857Y-85034380D02*
X143724190Y-84558190D01*
X143962285Y-85034380D02*
X143962285Y-84034380D01*
X143581333Y-84034380D01*
X143486095Y-84082000D01*
X143438476Y-84129619D01*
X143390857Y-84224857D01*
X143390857Y-84367714D01*
X143438476Y-84462952D01*
X143486095Y-84510571D01*
X143581333Y-84558190D01*
X143962285Y-84558190D01*
X143009904Y-84129619D02*
X142962285Y-84082000D01*
X142867047Y-84034380D01*
X142628952Y-84034380D01*
X142533714Y-84082000D01*
X142486095Y-84129619D01*
X142438476Y-84224857D01*
X142438476Y-84320095D01*
X142486095Y-84462952D01*
X143057523Y-85034380D01*
X142438476Y-85034380D01*
X142105142Y-84034380D02*
X141438476Y-84034380D01*
X141867047Y-85034380D01*
G04 #@! TO.C,R28*
X110254380Y-105110142D02*
X109778190Y-104776809D01*
X110254380Y-104538714D02*
X109254380Y-104538714D01*
X109254380Y-104919666D01*
X109302000Y-105014904D01*
X109349619Y-105062523D01*
X109444857Y-105110142D01*
X109587714Y-105110142D01*
X109682952Y-105062523D01*
X109730571Y-105014904D01*
X109778190Y-104919666D01*
X109778190Y-104538714D01*
X109349619Y-105491095D02*
X109302000Y-105538714D01*
X109254380Y-105633952D01*
X109254380Y-105872047D01*
X109302000Y-105967285D01*
X109349619Y-106014904D01*
X109444857Y-106062523D01*
X109540095Y-106062523D01*
X109682952Y-106014904D01*
X110254380Y-105443476D01*
X110254380Y-106062523D01*
X109682952Y-106633952D02*
X109635333Y-106538714D01*
X109587714Y-106491095D01*
X109492476Y-106443476D01*
X109444857Y-106443476D01*
X109349619Y-106491095D01*
X109302000Y-106538714D01*
X109254380Y-106633952D01*
X109254380Y-106824428D01*
X109302000Y-106919666D01*
X109349619Y-106967285D01*
X109444857Y-107014904D01*
X109492476Y-107014904D01*
X109587714Y-106967285D01*
X109635333Y-106919666D01*
X109682952Y-106824428D01*
X109682952Y-106633952D01*
X109730571Y-106538714D01*
X109778190Y-106491095D01*
X109873428Y-106443476D01*
X110063904Y-106443476D01*
X110159142Y-106491095D01*
X110206761Y-106538714D01*
X110254380Y-106633952D01*
X110254380Y-106824428D01*
X110206761Y-106919666D01*
X110159142Y-106967285D01*
X110063904Y-107014904D01*
X109873428Y-107014904D01*
X109778190Y-106967285D01*
X109730571Y-106919666D01*
X109682952Y-106824428D01*
G04 #@! TD*
M02*
