G04 #@! TF.GenerationSoftware,KiCad,Pcbnew,(5.0.0)*
G04 #@! TF.CreationDate,2018-12-13T19:33:25+01:00*
G04 #@! TF.ProjectId,TrackModBusMaster_piggyback,547261636B4D6F644275734D61737465,rev?*
G04 #@! TF.SameCoordinates,Original*
G04 #@! TF.FileFunction,Soldermask,Top*
G04 #@! TF.FilePolarity,Negative*
%FSLAX46Y46*%
G04 Gerber Fmt 4.6, Leading zero omitted, Abs format (unit mm)*
G04 Created by KiCad (PCBNEW (5.0.0)) date 12/13/18 19:33:25*
%MOMM*%
%LPD*%
G01*
G04 APERTURE LIST*
%ADD10O,2.100000X2.100000*%
%ADD11R,2.100000X2.100000*%
%ADD12C,0.100000*%
%ADD13C,1.650000*%
%ADD14R,2.127200X2.127200*%
%ADD15O,2.127200X2.127200*%
%ADD16R,1.200000X1.300000*%
%ADD17R,1.950000X1.000000*%
%ADD18R,1.000000X2.400000*%
%ADD19R,2.000000X2.000000*%
%ADD20C,2.000000*%
%ADD21C,1.200000*%
G04 APERTURE END LIST*
D10*
G04 #@! TO.C,J1*
X116840000Y-48260000D03*
X116840000Y-45720000D03*
X119380000Y-48260000D03*
X119380000Y-45720000D03*
X121920000Y-48260000D03*
X121920000Y-45720000D03*
X124460000Y-48260000D03*
X124460000Y-45720000D03*
X127000000Y-48260000D03*
X127000000Y-45720000D03*
X129540000Y-48260000D03*
X129540000Y-45720000D03*
X132080000Y-48260000D03*
X132080000Y-45720000D03*
X134620000Y-48260000D03*
D11*
X134620000Y-45720000D03*
G04 #@! TD*
D12*
G04 #@! TO.C,C3*
G36*
X140351346Y-71062589D02*
X140383380Y-71067341D01*
X140414794Y-71075210D01*
X140445286Y-71086120D01*
X140474561Y-71099966D01*
X140502338Y-71116615D01*
X140528350Y-71135907D01*
X140552345Y-71157655D01*
X140574093Y-71181650D01*
X140593385Y-71207662D01*
X140610034Y-71235439D01*
X140623880Y-71264714D01*
X140634790Y-71295206D01*
X140642659Y-71326620D01*
X140647411Y-71358654D01*
X140649000Y-71391000D01*
X140649000Y-72881000D01*
X140647411Y-72913346D01*
X140642659Y-72945380D01*
X140634790Y-72976794D01*
X140623880Y-73007286D01*
X140610034Y-73036561D01*
X140593385Y-73064338D01*
X140574093Y-73090350D01*
X140552345Y-73114345D01*
X140528350Y-73136093D01*
X140502338Y-73155385D01*
X140474561Y-73172034D01*
X140445286Y-73185880D01*
X140414794Y-73196790D01*
X140383380Y-73204659D01*
X140351346Y-73209411D01*
X140319000Y-73211000D01*
X139329000Y-73211000D01*
X139296654Y-73209411D01*
X139264620Y-73204659D01*
X139233206Y-73196790D01*
X139202714Y-73185880D01*
X139173439Y-73172034D01*
X139145662Y-73155385D01*
X139119650Y-73136093D01*
X139095655Y-73114345D01*
X139073907Y-73090350D01*
X139054615Y-73064338D01*
X139037966Y-73036561D01*
X139024120Y-73007286D01*
X139013210Y-72976794D01*
X139005341Y-72945380D01*
X139000589Y-72913346D01*
X138999000Y-72881000D01*
X138999000Y-71391000D01*
X139000589Y-71358654D01*
X139005341Y-71326620D01*
X139013210Y-71295206D01*
X139024120Y-71264714D01*
X139037966Y-71235439D01*
X139054615Y-71207662D01*
X139073907Y-71181650D01*
X139095655Y-71157655D01*
X139119650Y-71135907D01*
X139145662Y-71116615D01*
X139173439Y-71099966D01*
X139202714Y-71086120D01*
X139233206Y-71075210D01*
X139264620Y-71067341D01*
X139296654Y-71062589D01*
X139329000Y-71061000D01*
X140319000Y-71061000D01*
X140351346Y-71062589D01*
X140351346Y-71062589D01*
G37*
D13*
X139824000Y-72136000D03*
D12*
G36*
X143151346Y-71062589D02*
X143183380Y-71067341D01*
X143214794Y-71075210D01*
X143245286Y-71086120D01*
X143274561Y-71099966D01*
X143302338Y-71116615D01*
X143328350Y-71135907D01*
X143352345Y-71157655D01*
X143374093Y-71181650D01*
X143393385Y-71207662D01*
X143410034Y-71235439D01*
X143423880Y-71264714D01*
X143434790Y-71295206D01*
X143442659Y-71326620D01*
X143447411Y-71358654D01*
X143449000Y-71391000D01*
X143449000Y-72881000D01*
X143447411Y-72913346D01*
X143442659Y-72945380D01*
X143434790Y-72976794D01*
X143423880Y-73007286D01*
X143410034Y-73036561D01*
X143393385Y-73064338D01*
X143374093Y-73090350D01*
X143352345Y-73114345D01*
X143328350Y-73136093D01*
X143302338Y-73155385D01*
X143274561Y-73172034D01*
X143245286Y-73185880D01*
X143214794Y-73196790D01*
X143183380Y-73204659D01*
X143151346Y-73209411D01*
X143119000Y-73211000D01*
X142129000Y-73211000D01*
X142096654Y-73209411D01*
X142064620Y-73204659D01*
X142033206Y-73196790D01*
X142002714Y-73185880D01*
X141973439Y-73172034D01*
X141945662Y-73155385D01*
X141919650Y-73136093D01*
X141895655Y-73114345D01*
X141873907Y-73090350D01*
X141854615Y-73064338D01*
X141837966Y-73036561D01*
X141824120Y-73007286D01*
X141813210Y-72976794D01*
X141805341Y-72945380D01*
X141800589Y-72913346D01*
X141799000Y-72881000D01*
X141799000Y-71391000D01*
X141800589Y-71358654D01*
X141805341Y-71326620D01*
X141813210Y-71295206D01*
X141824120Y-71264714D01*
X141837966Y-71235439D01*
X141854615Y-71207662D01*
X141873907Y-71181650D01*
X141895655Y-71157655D01*
X141919650Y-71135907D01*
X141945662Y-71116615D01*
X141973439Y-71099966D01*
X142002714Y-71086120D01*
X142033206Y-71075210D01*
X142064620Y-71067341D01*
X142096654Y-71062589D01*
X142129000Y-71061000D01*
X143119000Y-71061000D01*
X143151346Y-71062589D01*
X143151346Y-71062589D01*
G37*
D13*
X142624000Y-72136000D03*
G04 #@! TD*
D12*
G04 #@! TO.C,C6*
G36*
X143151346Y-73602589D02*
X143183380Y-73607341D01*
X143214794Y-73615210D01*
X143245286Y-73626120D01*
X143274561Y-73639966D01*
X143302338Y-73656615D01*
X143328350Y-73675907D01*
X143352345Y-73697655D01*
X143374093Y-73721650D01*
X143393385Y-73747662D01*
X143410034Y-73775439D01*
X143423880Y-73804714D01*
X143434790Y-73835206D01*
X143442659Y-73866620D01*
X143447411Y-73898654D01*
X143449000Y-73931000D01*
X143449000Y-75421000D01*
X143447411Y-75453346D01*
X143442659Y-75485380D01*
X143434790Y-75516794D01*
X143423880Y-75547286D01*
X143410034Y-75576561D01*
X143393385Y-75604338D01*
X143374093Y-75630350D01*
X143352345Y-75654345D01*
X143328350Y-75676093D01*
X143302338Y-75695385D01*
X143274561Y-75712034D01*
X143245286Y-75725880D01*
X143214794Y-75736790D01*
X143183380Y-75744659D01*
X143151346Y-75749411D01*
X143119000Y-75751000D01*
X142129000Y-75751000D01*
X142096654Y-75749411D01*
X142064620Y-75744659D01*
X142033206Y-75736790D01*
X142002714Y-75725880D01*
X141973439Y-75712034D01*
X141945662Y-75695385D01*
X141919650Y-75676093D01*
X141895655Y-75654345D01*
X141873907Y-75630350D01*
X141854615Y-75604338D01*
X141837966Y-75576561D01*
X141824120Y-75547286D01*
X141813210Y-75516794D01*
X141805341Y-75485380D01*
X141800589Y-75453346D01*
X141799000Y-75421000D01*
X141799000Y-73931000D01*
X141800589Y-73898654D01*
X141805341Y-73866620D01*
X141813210Y-73835206D01*
X141824120Y-73804714D01*
X141837966Y-73775439D01*
X141854615Y-73747662D01*
X141873907Y-73721650D01*
X141895655Y-73697655D01*
X141919650Y-73675907D01*
X141945662Y-73656615D01*
X141973439Y-73639966D01*
X142002714Y-73626120D01*
X142033206Y-73615210D01*
X142064620Y-73607341D01*
X142096654Y-73602589D01*
X142129000Y-73601000D01*
X143119000Y-73601000D01*
X143151346Y-73602589D01*
X143151346Y-73602589D01*
G37*
D13*
X142624000Y-74676000D03*
D12*
G36*
X140351346Y-73602589D02*
X140383380Y-73607341D01*
X140414794Y-73615210D01*
X140445286Y-73626120D01*
X140474561Y-73639966D01*
X140502338Y-73656615D01*
X140528350Y-73675907D01*
X140552345Y-73697655D01*
X140574093Y-73721650D01*
X140593385Y-73747662D01*
X140610034Y-73775439D01*
X140623880Y-73804714D01*
X140634790Y-73835206D01*
X140642659Y-73866620D01*
X140647411Y-73898654D01*
X140649000Y-73931000D01*
X140649000Y-75421000D01*
X140647411Y-75453346D01*
X140642659Y-75485380D01*
X140634790Y-75516794D01*
X140623880Y-75547286D01*
X140610034Y-75576561D01*
X140593385Y-75604338D01*
X140574093Y-75630350D01*
X140552345Y-75654345D01*
X140528350Y-75676093D01*
X140502338Y-75695385D01*
X140474561Y-75712034D01*
X140445286Y-75725880D01*
X140414794Y-75736790D01*
X140383380Y-75744659D01*
X140351346Y-75749411D01*
X140319000Y-75751000D01*
X139329000Y-75751000D01*
X139296654Y-75749411D01*
X139264620Y-75744659D01*
X139233206Y-75736790D01*
X139202714Y-75725880D01*
X139173439Y-75712034D01*
X139145662Y-75695385D01*
X139119650Y-75676093D01*
X139095655Y-75654345D01*
X139073907Y-75630350D01*
X139054615Y-75604338D01*
X139037966Y-75576561D01*
X139024120Y-75547286D01*
X139013210Y-75516794D01*
X139005341Y-75485380D01*
X139000589Y-75453346D01*
X138999000Y-75421000D01*
X138999000Y-73931000D01*
X139000589Y-73898654D01*
X139005341Y-73866620D01*
X139013210Y-73835206D01*
X139024120Y-73804714D01*
X139037966Y-73775439D01*
X139054615Y-73747662D01*
X139073907Y-73721650D01*
X139095655Y-73697655D01*
X139119650Y-73675907D01*
X139145662Y-73656615D01*
X139173439Y-73639966D01*
X139202714Y-73626120D01*
X139233206Y-73615210D01*
X139264620Y-73607341D01*
X139296654Y-73602589D01*
X139329000Y-73601000D01*
X140319000Y-73601000D01*
X140351346Y-73602589D01*
X140351346Y-73602589D01*
G37*
D13*
X139824000Y-74676000D03*
G04 #@! TD*
D12*
G04 #@! TO.C,R3*
G36*
X143151346Y-68649589D02*
X143183380Y-68654341D01*
X143214794Y-68662210D01*
X143245286Y-68673120D01*
X143274561Y-68686966D01*
X143302338Y-68703615D01*
X143328350Y-68722907D01*
X143352345Y-68744655D01*
X143374093Y-68768650D01*
X143393385Y-68794662D01*
X143410034Y-68822439D01*
X143423880Y-68851714D01*
X143434790Y-68882206D01*
X143442659Y-68913620D01*
X143447411Y-68945654D01*
X143449000Y-68978000D01*
X143449000Y-70468000D01*
X143447411Y-70500346D01*
X143442659Y-70532380D01*
X143434790Y-70563794D01*
X143423880Y-70594286D01*
X143410034Y-70623561D01*
X143393385Y-70651338D01*
X143374093Y-70677350D01*
X143352345Y-70701345D01*
X143328350Y-70723093D01*
X143302338Y-70742385D01*
X143274561Y-70759034D01*
X143245286Y-70772880D01*
X143214794Y-70783790D01*
X143183380Y-70791659D01*
X143151346Y-70796411D01*
X143119000Y-70798000D01*
X142129000Y-70798000D01*
X142096654Y-70796411D01*
X142064620Y-70791659D01*
X142033206Y-70783790D01*
X142002714Y-70772880D01*
X141973439Y-70759034D01*
X141945662Y-70742385D01*
X141919650Y-70723093D01*
X141895655Y-70701345D01*
X141873907Y-70677350D01*
X141854615Y-70651338D01*
X141837966Y-70623561D01*
X141824120Y-70594286D01*
X141813210Y-70563794D01*
X141805341Y-70532380D01*
X141800589Y-70500346D01*
X141799000Y-70468000D01*
X141799000Y-68978000D01*
X141800589Y-68945654D01*
X141805341Y-68913620D01*
X141813210Y-68882206D01*
X141824120Y-68851714D01*
X141837966Y-68822439D01*
X141854615Y-68794662D01*
X141873907Y-68768650D01*
X141895655Y-68744655D01*
X141919650Y-68722907D01*
X141945662Y-68703615D01*
X141973439Y-68686966D01*
X142002714Y-68673120D01*
X142033206Y-68662210D01*
X142064620Y-68654341D01*
X142096654Y-68649589D01*
X142129000Y-68648000D01*
X143119000Y-68648000D01*
X143151346Y-68649589D01*
X143151346Y-68649589D01*
G37*
D13*
X142624000Y-69723000D03*
D12*
G36*
X140351346Y-68649589D02*
X140383380Y-68654341D01*
X140414794Y-68662210D01*
X140445286Y-68673120D01*
X140474561Y-68686966D01*
X140502338Y-68703615D01*
X140528350Y-68722907D01*
X140552345Y-68744655D01*
X140574093Y-68768650D01*
X140593385Y-68794662D01*
X140610034Y-68822439D01*
X140623880Y-68851714D01*
X140634790Y-68882206D01*
X140642659Y-68913620D01*
X140647411Y-68945654D01*
X140649000Y-68978000D01*
X140649000Y-70468000D01*
X140647411Y-70500346D01*
X140642659Y-70532380D01*
X140634790Y-70563794D01*
X140623880Y-70594286D01*
X140610034Y-70623561D01*
X140593385Y-70651338D01*
X140574093Y-70677350D01*
X140552345Y-70701345D01*
X140528350Y-70723093D01*
X140502338Y-70742385D01*
X140474561Y-70759034D01*
X140445286Y-70772880D01*
X140414794Y-70783790D01*
X140383380Y-70791659D01*
X140351346Y-70796411D01*
X140319000Y-70798000D01*
X139329000Y-70798000D01*
X139296654Y-70796411D01*
X139264620Y-70791659D01*
X139233206Y-70783790D01*
X139202714Y-70772880D01*
X139173439Y-70759034D01*
X139145662Y-70742385D01*
X139119650Y-70723093D01*
X139095655Y-70701345D01*
X139073907Y-70677350D01*
X139054615Y-70651338D01*
X139037966Y-70623561D01*
X139024120Y-70594286D01*
X139013210Y-70563794D01*
X139005341Y-70532380D01*
X139000589Y-70500346D01*
X138999000Y-70468000D01*
X138999000Y-68978000D01*
X139000589Y-68945654D01*
X139005341Y-68913620D01*
X139013210Y-68882206D01*
X139024120Y-68851714D01*
X139037966Y-68822439D01*
X139054615Y-68794662D01*
X139073907Y-68768650D01*
X139095655Y-68744655D01*
X139119650Y-68722907D01*
X139145662Y-68703615D01*
X139173439Y-68686966D01*
X139202714Y-68673120D01*
X139233206Y-68662210D01*
X139264620Y-68654341D01*
X139296654Y-68649589D01*
X139329000Y-68648000D01*
X140319000Y-68648000D01*
X140351346Y-68649589D01*
X140351346Y-68649589D01*
G37*
D13*
X139824000Y-69723000D03*
G04 #@! TD*
D12*
G04 #@! TO.C,R15*
G36*
X110505346Y-63562589D02*
X110537380Y-63567341D01*
X110568794Y-63575210D01*
X110599286Y-63586120D01*
X110628561Y-63599966D01*
X110656338Y-63616615D01*
X110682350Y-63635907D01*
X110706345Y-63657655D01*
X110728093Y-63681650D01*
X110747385Y-63707662D01*
X110764034Y-63735439D01*
X110777880Y-63764714D01*
X110788790Y-63795206D01*
X110796659Y-63826620D01*
X110801411Y-63858654D01*
X110803000Y-63891000D01*
X110803000Y-64881000D01*
X110801411Y-64913346D01*
X110796659Y-64945380D01*
X110788790Y-64976794D01*
X110777880Y-65007286D01*
X110764034Y-65036561D01*
X110747385Y-65064338D01*
X110728093Y-65090350D01*
X110706345Y-65114345D01*
X110682350Y-65136093D01*
X110656338Y-65155385D01*
X110628561Y-65172034D01*
X110599286Y-65185880D01*
X110568794Y-65196790D01*
X110537380Y-65204659D01*
X110505346Y-65209411D01*
X110473000Y-65211000D01*
X108983000Y-65211000D01*
X108950654Y-65209411D01*
X108918620Y-65204659D01*
X108887206Y-65196790D01*
X108856714Y-65185880D01*
X108827439Y-65172034D01*
X108799662Y-65155385D01*
X108773650Y-65136093D01*
X108749655Y-65114345D01*
X108727907Y-65090350D01*
X108708615Y-65064338D01*
X108691966Y-65036561D01*
X108678120Y-65007286D01*
X108667210Y-64976794D01*
X108659341Y-64945380D01*
X108654589Y-64913346D01*
X108653000Y-64881000D01*
X108653000Y-63891000D01*
X108654589Y-63858654D01*
X108659341Y-63826620D01*
X108667210Y-63795206D01*
X108678120Y-63764714D01*
X108691966Y-63735439D01*
X108708615Y-63707662D01*
X108727907Y-63681650D01*
X108749655Y-63657655D01*
X108773650Y-63635907D01*
X108799662Y-63616615D01*
X108827439Y-63599966D01*
X108856714Y-63586120D01*
X108887206Y-63575210D01*
X108918620Y-63567341D01*
X108950654Y-63562589D01*
X108983000Y-63561000D01*
X110473000Y-63561000D01*
X110505346Y-63562589D01*
X110505346Y-63562589D01*
G37*
D13*
X109728000Y-64386000D03*
D12*
G36*
X110505346Y-66362589D02*
X110537380Y-66367341D01*
X110568794Y-66375210D01*
X110599286Y-66386120D01*
X110628561Y-66399966D01*
X110656338Y-66416615D01*
X110682350Y-66435907D01*
X110706345Y-66457655D01*
X110728093Y-66481650D01*
X110747385Y-66507662D01*
X110764034Y-66535439D01*
X110777880Y-66564714D01*
X110788790Y-66595206D01*
X110796659Y-66626620D01*
X110801411Y-66658654D01*
X110803000Y-66691000D01*
X110803000Y-67681000D01*
X110801411Y-67713346D01*
X110796659Y-67745380D01*
X110788790Y-67776794D01*
X110777880Y-67807286D01*
X110764034Y-67836561D01*
X110747385Y-67864338D01*
X110728093Y-67890350D01*
X110706345Y-67914345D01*
X110682350Y-67936093D01*
X110656338Y-67955385D01*
X110628561Y-67972034D01*
X110599286Y-67985880D01*
X110568794Y-67996790D01*
X110537380Y-68004659D01*
X110505346Y-68009411D01*
X110473000Y-68011000D01*
X108983000Y-68011000D01*
X108950654Y-68009411D01*
X108918620Y-68004659D01*
X108887206Y-67996790D01*
X108856714Y-67985880D01*
X108827439Y-67972034D01*
X108799662Y-67955385D01*
X108773650Y-67936093D01*
X108749655Y-67914345D01*
X108727907Y-67890350D01*
X108708615Y-67864338D01*
X108691966Y-67836561D01*
X108678120Y-67807286D01*
X108667210Y-67776794D01*
X108659341Y-67745380D01*
X108654589Y-67713346D01*
X108653000Y-67681000D01*
X108653000Y-66691000D01*
X108654589Y-66658654D01*
X108659341Y-66626620D01*
X108667210Y-66595206D01*
X108678120Y-66564714D01*
X108691966Y-66535439D01*
X108708615Y-66507662D01*
X108727907Y-66481650D01*
X108749655Y-66457655D01*
X108773650Y-66435907D01*
X108799662Y-66416615D01*
X108827439Y-66399966D01*
X108856714Y-66386120D01*
X108887206Y-66375210D01*
X108918620Y-66367341D01*
X108950654Y-66362589D01*
X108983000Y-66361000D01*
X110473000Y-66361000D01*
X110505346Y-66362589D01*
X110505346Y-66362589D01*
G37*
D13*
X109728000Y-67186000D03*
G04 #@! TD*
D12*
G04 #@! TO.C,R18*
G36*
X118125346Y-66362589D02*
X118157380Y-66367341D01*
X118188794Y-66375210D01*
X118219286Y-66386120D01*
X118248561Y-66399966D01*
X118276338Y-66416615D01*
X118302350Y-66435907D01*
X118326345Y-66457655D01*
X118348093Y-66481650D01*
X118367385Y-66507662D01*
X118384034Y-66535439D01*
X118397880Y-66564714D01*
X118408790Y-66595206D01*
X118416659Y-66626620D01*
X118421411Y-66658654D01*
X118423000Y-66691000D01*
X118423000Y-67681000D01*
X118421411Y-67713346D01*
X118416659Y-67745380D01*
X118408790Y-67776794D01*
X118397880Y-67807286D01*
X118384034Y-67836561D01*
X118367385Y-67864338D01*
X118348093Y-67890350D01*
X118326345Y-67914345D01*
X118302350Y-67936093D01*
X118276338Y-67955385D01*
X118248561Y-67972034D01*
X118219286Y-67985880D01*
X118188794Y-67996790D01*
X118157380Y-68004659D01*
X118125346Y-68009411D01*
X118093000Y-68011000D01*
X116603000Y-68011000D01*
X116570654Y-68009411D01*
X116538620Y-68004659D01*
X116507206Y-67996790D01*
X116476714Y-67985880D01*
X116447439Y-67972034D01*
X116419662Y-67955385D01*
X116393650Y-67936093D01*
X116369655Y-67914345D01*
X116347907Y-67890350D01*
X116328615Y-67864338D01*
X116311966Y-67836561D01*
X116298120Y-67807286D01*
X116287210Y-67776794D01*
X116279341Y-67745380D01*
X116274589Y-67713346D01*
X116273000Y-67681000D01*
X116273000Y-66691000D01*
X116274589Y-66658654D01*
X116279341Y-66626620D01*
X116287210Y-66595206D01*
X116298120Y-66564714D01*
X116311966Y-66535439D01*
X116328615Y-66507662D01*
X116347907Y-66481650D01*
X116369655Y-66457655D01*
X116393650Y-66435907D01*
X116419662Y-66416615D01*
X116447439Y-66399966D01*
X116476714Y-66386120D01*
X116507206Y-66375210D01*
X116538620Y-66367341D01*
X116570654Y-66362589D01*
X116603000Y-66361000D01*
X118093000Y-66361000D01*
X118125346Y-66362589D01*
X118125346Y-66362589D01*
G37*
D13*
X117348000Y-67186000D03*
D12*
G36*
X118125346Y-63562589D02*
X118157380Y-63567341D01*
X118188794Y-63575210D01*
X118219286Y-63586120D01*
X118248561Y-63599966D01*
X118276338Y-63616615D01*
X118302350Y-63635907D01*
X118326345Y-63657655D01*
X118348093Y-63681650D01*
X118367385Y-63707662D01*
X118384034Y-63735439D01*
X118397880Y-63764714D01*
X118408790Y-63795206D01*
X118416659Y-63826620D01*
X118421411Y-63858654D01*
X118423000Y-63891000D01*
X118423000Y-64881000D01*
X118421411Y-64913346D01*
X118416659Y-64945380D01*
X118408790Y-64976794D01*
X118397880Y-65007286D01*
X118384034Y-65036561D01*
X118367385Y-65064338D01*
X118348093Y-65090350D01*
X118326345Y-65114345D01*
X118302350Y-65136093D01*
X118276338Y-65155385D01*
X118248561Y-65172034D01*
X118219286Y-65185880D01*
X118188794Y-65196790D01*
X118157380Y-65204659D01*
X118125346Y-65209411D01*
X118093000Y-65211000D01*
X116603000Y-65211000D01*
X116570654Y-65209411D01*
X116538620Y-65204659D01*
X116507206Y-65196790D01*
X116476714Y-65185880D01*
X116447439Y-65172034D01*
X116419662Y-65155385D01*
X116393650Y-65136093D01*
X116369655Y-65114345D01*
X116347907Y-65090350D01*
X116328615Y-65064338D01*
X116311966Y-65036561D01*
X116298120Y-65007286D01*
X116287210Y-64976794D01*
X116279341Y-64945380D01*
X116274589Y-64913346D01*
X116273000Y-64881000D01*
X116273000Y-63891000D01*
X116274589Y-63858654D01*
X116279341Y-63826620D01*
X116287210Y-63795206D01*
X116298120Y-63764714D01*
X116311966Y-63735439D01*
X116328615Y-63707662D01*
X116347907Y-63681650D01*
X116369655Y-63657655D01*
X116393650Y-63635907D01*
X116419662Y-63616615D01*
X116447439Y-63599966D01*
X116476714Y-63586120D01*
X116507206Y-63575210D01*
X116538620Y-63567341D01*
X116570654Y-63562589D01*
X116603000Y-63561000D01*
X118093000Y-63561000D01*
X118125346Y-63562589D01*
X118125346Y-63562589D01*
G37*
D13*
X117348000Y-64386000D03*
G04 #@! TD*
D12*
G04 #@! TO.C,R14*
G36*
X107965346Y-63562589D02*
X107997380Y-63567341D01*
X108028794Y-63575210D01*
X108059286Y-63586120D01*
X108088561Y-63599966D01*
X108116338Y-63616615D01*
X108142350Y-63635907D01*
X108166345Y-63657655D01*
X108188093Y-63681650D01*
X108207385Y-63707662D01*
X108224034Y-63735439D01*
X108237880Y-63764714D01*
X108248790Y-63795206D01*
X108256659Y-63826620D01*
X108261411Y-63858654D01*
X108263000Y-63891000D01*
X108263000Y-64881000D01*
X108261411Y-64913346D01*
X108256659Y-64945380D01*
X108248790Y-64976794D01*
X108237880Y-65007286D01*
X108224034Y-65036561D01*
X108207385Y-65064338D01*
X108188093Y-65090350D01*
X108166345Y-65114345D01*
X108142350Y-65136093D01*
X108116338Y-65155385D01*
X108088561Y-65172034D01*
X108059286Y-65185880D01*
X108028794Y-65196790D01*
X107997380Y-65204659D01*
X107965346Y-65209411D01*
X107933000Y-65211000D01*
X106443000Y-65211000D01*
X106410654Y-65209411D01*
X106378620Y-65204659D01*
X106347206Y-65196790D01*
X106316714Y-65185880D01*
X106287439Y-65172034D01*
X106259662Y-65155385D01*
X106233650Y-65136093D01*
X106209655Y-65114345D01*
X106187907Y-65090350D01*
X106168615Y-65064338D01*
X106151966Y-65036561D01*
X106138120Y-65007286D01*
X106127210Y-64976794D01*
X106119341Y-64945380D01*
X106114589Y-64913346D01*
X106113000Y-64881000D01*
X106113000Y-63891000D01*
X106114589Y-63858654D01*
X106119341Y-63826620D01*
X106127210Y-63795206D01*
X106138120Y-63764714D01*
X106151966Y-63735439D01*
X106168615Y-63707662D01*
X106187907Y-63681650D01*
X106209655Y-63657655D01*
X106233650Y-63635907D01*
X106259662Y-63616615D01*
X106287439Y-63599966D01*
X106316714Y-63586120D01*
X106347206Y-63575210D01*
X106378620Y-63567341D01*
X106410654Y-63562589D01*
X106443000Y-63561000D01*
X107933000Y-63561000D01*
X107965346Y-63562589D01*
X107965346Y-63562589D01*
G37*
D13*
X107188000Y-64386000D03*
D12*
G36*
X107965346Y-66362589D02*
X107997380Y-66367341D01*
X108028794Y-66375210D01*
X108059286Y-66386120D01*
X108088561Y-66399966D01*
X108116338Y-66416615D01*
X108142350Y-66435907D01*
X108166345Y-66457655D01*
X108188093Y-66481650D01*
X108207385Y-66507662D01*
X108224034Y-66535439D01*
X108237880Y-66564714D01*
X108248790Y-66595206D01*
X108256659Y-66626620D01*
X108261411Y-66658654D01*
X108263000Y-66691000D01*
X108263000Y-67681000D01*
X108261411Y-67713346D01*
X108256659Y-67745380D01*
X108248790Y-67776794D01*
X108237880Y-67807286D01*
X108224034Y-67836561D01*
X108207385Y-67864338D01*
X108188093Y-67890350D01*
X108166345Y-67914345D01*
X108142350Y-67936093D01*
X108116338Y-67955385D01*
X108088561Y-67972034D01*
X108059286Y-67985880D01*
X108028794Y-67996790D01*
X107997380Y-68004659D01*
X107965346Y-68009411D01*
X107933000Y-68011000D01*
X106443000Y-68011000D01*
X106410654Y-68009411D01*
X106378620Y-68004659D01*
X106347206Y-67996790D01*
X106316714Y-67985880D01*
X106287439Y-67972034D01*
X106259662Y-67955385D01*
X106233650Y-67936093D01*
X106209655Y-67914345D01*
X106187907Y-67890350D01*
X106168615Y-67864338D01*
X106151966Y-67836561D01*
X106138120Y-67807286D01*
X106127210Y-67776794D01*
X106119341Y-67745380D01*
X106114589Y-67713346D01*
X106113000Y-67681000D01*
X106113000Y-66691000D01*
X106114589Y-66658654D01*
X106119341Y-66626620D01*
X106127210Y-66595206D01*
X106138120Y-66564714D01*
X106151966Y-66535439D01*
X106168615Y-66507662D01*
X106187907Y-66481650D01*
X106209655Y-66457655D01*
X106233650Y-66435907D01*
X106259662Y-66416615D01*
X106287439Y-66399966D01*
X106316714Y-66386120D01*
X106347206Y-66375210D01*
X106378620Y-66367341D01*
X106410654Y-66362589D01*
X106443000Y-66361000D01*
X107933000Y-66361000D01*
X107965346Y-66362589D01*
X107965346Y-66362589D01*
G37*
D13*
X107188000Y-67186000D03*
G04 #@! TD*
D12*
G04 #@! TO.C,R17*
G36*
X115585346Y-66362589D02*
X115617380Y-66367341D01*
X115648794Y-66375210D01*
X115679286Y-66386120D01*
X115708561Y-66399966D01*
X115736338Y-66416615D01*
X115762350Y-66435907D01*
X115786345Y-66457655D01*
X115808093Y-66481650D01*
X115827385Y-66507662D01*
X115844034Y-66535439D01*
X115857880Y-66564714D01*
X115868790Y-66595206D01*
X115876659Y-66626620D01*
X115881411Y-66658654D01*
X115883000Y-66691000D01*
X115883000Y-67681000D01*
X115881411Y-67713346D01*
X115876659Y-67745380D01*
X115868790Y-67776794D01*
X115857880Y-67807286D01*
X115844034Y-67836561D01*
X115827385Y-67864338D01*
X115808093Y-67890350D01*
X115786345Y-67914345D01*
X115762350Y-67936093D01*
X115736338Y-67955385D01*
X115708561Y-67972034D01*
X115679286Y-67985880D01*
X115648794Y-67996790D01*
X115617380Y-68004659D01*
X115585346Y-68009411D01*
X115553000Y-68011000D01*
X114063000Y-68011000D01*
X114030654Y-68009411D01*
X113998620Y-68004659D01*
X113967206Y-67996790D01*
X113936714Y-67985880D01*
X113907439Y-67972034D01*
X113879662Y-67955385D01*
X113853650Y-67936093D01*
X113829655Y-67914345D01*
X113807907Y-67890350D01*
X113788615Y-67864338D01*
X113771966Y-67836561D01*
X113758120Y-67807286D01*
X113747210Y-67776794D01*
X113739341Y-67745380D01*
X113734589Y-67713346D01*
X113733000Y-67681000D01*
X113733000Y-66691000D01*
X113734589Y-66658654D01*
X113739341Y-66626620D01*
X113747210Y-66595206D01*
X113758120Y-66564714D01*
X113771966Y-66535439D01*
X113788615Y-66507662D01*
X113807907Y-66481650D01*
X113829655Y-66457655D01*
X113853650Y-66435907D01*
X113879662Y-66416615D01*
X113907439Y-66399966D01*
X113936714Y-66386120D01*
X113967206Y-66375210D01*
X113998620Y-66367341D01*
X114030654Y-66362589D01*
X114063000Y-66361000D01*
X115553000Y-66361000D01*
X115585346Y-66362589D01*
X115585346Y-66362589D01*
G37*
D13*
X114808000Y-67186000D03*
D12*
G36*
X115585346Y-63562589D02*
X115617380Y-63567341D01*
X115648794Y-63575210D01*
X115679286Y-63586120D01*
X115708561Y-63599966D01*
X115736338Y-63616615D01*
X115762350Y-63635907D01*
X115786345Y-63657655D01*
X115808093Y-63681650D01*
X115827385Y-63707662D01*
X115844034Y-63735439D01*
X115857880Y-63764714D01*
X115868790Y-63795206D01*
X115876659Y-63826620D01*
X115881411Y-63858654D01*
X115883000Y-63891000D01*
X115883000Y-64881000D01*
X115881411Y-64913346D01*
X115876659Y-64945380D01*
X115868790Y-64976794D01*
X115857880Y-65007286D01*
X115844034Y-65036561D01*
X115827385Y-65064338D01*
X115808093Y-65090350D01*
X115786345Y-65114345D01*
X115762350Y-65136093D01*
X115736338Y-65155385D01*
X115708561Y-65172034D01*
X115679286Y-65185880D01*
X115648794Y-65196790D01*
X115617380Y-65204659D01*
X115585346Y-65209411D01*
X115553000Y-65211000D01*
X114063000Y-65211000D01*
X114030654Y-65209411D01*
X113998620Y-65204659D01*
X113967206Y-65196790D01*
X113936714Y-65185880D01*
X113907439Y-65172034D01*
X113879662Y-65155385D01*
X113853650Y-65136093D01*
X113829655Y-65114345D01*
X113807907Y-65090350D01*
X113788615Y-65064338D01*
X113771966Y-65036561D01*
X113758120Y-65007286D01*
X113747210Y-64976794D01*
X113739341Y-64945380D01*
X113734589Y-64913346D01*
X113733000Y-64881000D01*
X113733000Y-63891000D01*
X113734589Y-63858654D01*
X113739341Y-63826620D01*
X113747210Y-63795206D01*
X113758120Y-63764714D01*
X113771966Y-63735439D01*
X113788615Y-63707662D01*
X113807907Y-63681650D01*
X113829655Y-63657655D01*
X113853650Y-63635907D01*
X113879662Y-63616615D01*
X113907439Y-63599966D01*
X113936714Y-63586120D01*
X113967206Y-63575210D01*
X113998620Y-63567341D01*
X114030654Y-63562589D01*
X114063000Y-63561000D01*
X115553000Y-63561000D01*
X115585346Y-63562589D01*
X115585346Y-63562589D01*
G37*
D13*
X114808000Y-64386000D03*
G04 #@! TD*
D12*
G04 #@! TO.C,R16*
G36*
X113045346Y-63562589D02*
X113077380Y-63567341D01*
X113108794Y-63575210D01*
X113139286Y-63586120D01*
X113168561Y-63599966D01*
X113196338Y-63616615D01*
X113222350Y-63635907D01*
X113246345Y-63657655D01*
X113268093Y-63681650D01*
X113287385Y-63707662D01*
X113304034Y-63735439D01*
X113317880Y-63764714D01*
X113328790Y-63795206D01*
X113336659Y-63826620D01*
X113341411Y-63858654D01*
X113343000Y-63891000D01*
X113343000Y-64881000D01*
X113341411Y-64913346D01*
X113336659Y-64945380D01*
X113328790Y-64976794D01*
X113317880Y-65007286D01*
X113304034Y-65036561D01*
X113287385Y-65064338D01*
X113268093Y-65090350D01*
X113246345Y-65114345D01*
X113222350Y-65136093D01*
X113196338Y-65155385D01*
X113168561Y-65172034D01*
X113139286Y-65185880D01*
X113108794Y-65196790D01*
X113077380Y-65204659D01*
X113045346Y-65209411D01*
X113013000Y-65211000D01*
X111523000Y-65211000D01*
X111490654Y-65209411D01*
X111458620Y-65204659D01*
X111427206Y-65196790D01*
X111396714Y-65185880D01*
X111367439Y-65172034D01*
X111339662Y-65155385D01*
X111313650Y-65136093D01*
X111289655Y-65114345D01*
X111267907Y-65090350D01*
X111248615Y-65064338D01*
X111231966Y-65036561D01*
X111218120Y-65007286D01*
X111207210Y-64976794D01*
X111199341Y-64945380D01*
X111194589Y-64913346D01*
X111193000Y-64881000D01*
X111193000Y-63891000D01*
X111194589Y-63858654D01*
X111199341Y-63826620D01*
X111207210Y-63795206D01*
X111218120Y-63764714D01*
X111231966Y-63735439D01*
X111248615Y-63707662D01*
X111267907Y-63681650D01*
X111289655Y-63657655D01*
X111313650Y-63635907D01*
X111339662Y-63616615D01*
X111367439Y-63599966D01*
X111396714Y-63586120D01*
X111427206Y-63575210D01*
X111458620Y-63567341D01*
X111490654Y-63562589D01*
X111523000Y-63561000D01*
X113013000Y-63561000D01*
X113045346Y-63562589D01*
X113045346Y-63562589D01*
G37*
D13*
X112268000Y-64386000D03*
D12*
G36*
X113045346Y-66362589D02*
X113077380Y-66367341D01*
X113108794Y-66375210D01*
X113139286Y-66386120D01*
X113168561Y-66399966D01*
X113196338Y-66416615D01*
X113222350Y-66435907D01*
X113246345Y-66457655D01*
X113268093Y-66481650D01*
X113287385Y-66507662D01*
X113304034Y-66535439D01*
X113317880Y-66564714D01*
X113328790Y-66595206D01*
X113336659Y-66626620D01*
X113341411Y-66658654D01*
X113343000Y-66691000D01*
X113343000Y-67681000D01*
X113341411Y-67713346D01*
X113336659Y-67745380D01*
X113328790Y-67776794D01*
X113317880Y-67807286D01*
X113304034Y-67836561D01*
X113287385Y-67864338D01*
X113268093Y-67890350D01*
X113246345Y-67914345D01*
X113222350Y-67936093D01*
X113196338Y-67955385D01*
X113168561Y-67972034D01*
X113139286Y-67985880D01*
X113108794Y-67996790D01*
X113077380Y-68004659D01*
X113045346Y-68009411D01*
X113013000Y-68011000D01*
X111523000Y-68011000D01*
X111490654Y-68009411D01*
X111458620Y-68004659D01*
X111427206Y-67996790D01*
X111396714Y-67985880D01*
X111367439Y-67972034D01*
X111339662Y-67955385D01*
X111313650Y-67936093D01*
X111289655Y-67914345D01*
X111267907Y-67890350D01*
X111248615Y-67864338D01*
X111231966Y-67836561D01*
X111218120Y-67807286D01*
X111207210Y-67776794D01*
X111199341Y-67745380D01*
X111194589Y-67713346D01*
X111193000Y-67681000D01*
X111193000Y-66691000D01*
X111194589Y-66658654D01*
X111199341Y-66626620D01*
X111207210Y-66595206D01*
X111218120Y-66564714D01*
X111231966Y-66535439D01*
X111248615Y-66507662D01*
X111267907Y-66481650D01*
X111289655Y-66457655D01*
X111313650Y-66435907D01*
X111339662Y-66416615D01*
X111367439Y-66399966D01*
X111396714Y-66386120D01*
X111427206Y-66375210D01*
X111458620Y-66367341D01*
X111490654Y-66362589D01*
X111523000Y-66361000D01*
X113013000Y-66361000D01*
X113045346Y-66362589D01*
X113045346Y-66362589D01*
G37*
D13*
X112268000Y-67186000D03*
G04 #@! TD*
D12*
G04 #@! TO.C,C1*
G36*
X122069346Y-101034589D02*
X122101380Y-101039341D01*
X122132794Y-101047210D01*
X122163286Y-101058120D01*
X122192561Y-101071966D01*
X122220338Y-101088615D01*
X122246350Y-101107907D01*
X122270345Y-101129655D01*
X122292093Y-101153650D01*
X122311385Y-101179662D01*
X122328034Y-101207439D01*
X122341880Y-101236714D01*
X122352790Y-101267206D01*
X122360659Y-101298620D01*
X122365411Y-101330654D01*
X122367000Y-101363000D01*
X122367000Y-102853000D01*
X122365411Y-102885346D01*
X122360659Y-102917380D01*
X122352790Y-102948794D01*
X122341880Y-102979286D01*
X122328034Y-103008561D01*
X122311385Y-103036338D01*
X122292093Y-103062350D01*
X122270345Y-103086345D01*
X122246350Y-103108093D01*
X122220338Y-103127385D01*
X122192561Y-103144034D01*
X122163286Y-103157880D01*
X122132794Y-103168790D01*
X122101380Y-103176659D01*
X122069346Y-103181411D01*
X122037000Y-103183000D01*
X121047000Y-103183000D01*
X121014654Y-103181411D01*
X120982620Y-103176659D01*
X120951206Y-103168790D01*
X120920714Y-103157880D01*
X120891439Y-103144034D01*
X120863662Y-103127385D01*
X120837650Y-103108093D01*
X120813655Y-103086345D01*
X120791907Y-103062350D01*
X120772615Y-103036338D01*
X120755966Y-103008561D01*
X120742120Y-102979286D01*
X120731210Y-102948794D01*
X120723341Y-102917380D01*
X120718589Y-102885346D01*
X120717000Y-102853000D01*
X120717000Y-101363000D01*
X120718589Y-101330654D01*
X120723341Y-101298620D01*
X120731210Y-101267206D01*
X120742120Y-101236714D01*
X120755966Y-101207439D01*
X120772615Y-101179662D01*
X120791907Y-101153650D01*
X120813655Y-101129655D01*
X120837650Y-101107907D01*
X120863662Y-101088615D01*
X120891439Y-101071966D01*
X120920714Y-101058120D01*
X120951206Y-101047210D01*
X120982620Y-101039341D01*
X121014654Y-101034589D01*
X121047000Y-101033000D01*
X122037000Y-101033000D01*
X122069346Y-101034589D01*
X122069346Y-101034589D01*
G37*
D13*
X121542000Y-102108000D03*
D12*
G36*
X119269346Y-101034589D02*
X119301380Y-101039341D01*
X119332794Y-101047210D01*
X119363286Y-101058120D01*
X119392561Y-101071966D01*
X119420338Y-101088615D01*
X119446350Y-101107907D01*
X119470345Y-101129655D01*
X119492093Y-101153650D01*
X119511385Y-101179662D01*
X119528034Y-101207439D01*
X119541880Y-101236714D01*
X119552790Y-101267206D01*
X119560659Y-101298620D01*
X119565411Y-101330654D01*
X119567000Y-101363000D01*
X119567000Y-102853000D01*
X119565411Y-102885346D01*
X119560659Y-102917380D01*
X119552790Y-102948794D01*
X119541880Y-102979286D01*
X119528034Y-103008561D01*
X119511385Y-103036338D01*
X119492093Y-103062350D01*
X119470345Y-103086345D01*
X119446350Y-103108093D01*
X119420338Y-103127385D01*
X119392561Y-103144034D01*
X119363286Y-103157880D01*
X119332794Y-103168790D01*
X119301380Y-103176659D01*
X119269346Y-103181411D01*
X119237000Y-103183000D01*
X118247000Y-103183000D01*
X118214654Y-103181411D01*
X118182620Y-103176659D01*
X118151206Y-103168790D01*
X118120714Y-103157880D01*
X118091439Y-103144034D01*
X118063662Y-103127385D01*
X118037650Y-103108093D01*
X118013655Y-103086345D01*
X117991907Y-103062350D01*
X117972615Y-103036338D01*
X117955966Y-103008561D01*
X117942120Y-102979286D01*
X117931210Y-102948794D01*
X117923341Y-102917380D01*
X117918589Y-102885346D01*
X117917000Y-102853000D01*
X117917000Y-101363000D01*
X117918589Y-101330654D01*
X117923341Y-101298620D01*
X117931210Y-101267206D01*
X117942120Y-101236714D01*
X117955966Y-101207439D01*
X117972615Y-101179662D01*
X117991907Y-101153650D01*
X118013655Y-101129655D01*
X118037650Y-101107907D01*
X118063662Y-101088615D01*
X118091439Y-101071966D01*
X118120714Y-101058120D01*
X118151206Y-101047210D01*
X118182620Y-101039341D01*
X118214654Y-101034589D01*
X118247000Y-101033000D01*
X119237000Y-101033000D01*
X119269346Y-101034589D01*
X119269346Y-101034589D01*
G37*
D13*
X118742000Y-102108000D03*
G04 #@! TD*
D12*
G04 #@! TO.C,C2*
G36*
X133173346Y-66617589D02*
X133205380Y-66622341D01*
X133236794Y-66630210D01*
X133267286Y-66641120D01*
X133296561Y-66654966D01*
X133324338Y-66671615D01*
X133350350Y-66690907D01*
X133374345Y-66712655D01*
X133396093Y-66736650D01*
X133415385Y-66762662D01*
X133432034Y-66790439D01*
X133445880Y-66819714D01*
X133456790Y-66850206D01*
X133464659Y-66881620D01*
X133469411Y-66913654D01*
X133471000Y-66946000D01*
X133471000Y-68436000D01*
X133469411Y-68468346D01*
X133464659Y-68500380D01*
X133456790Y-68531794D01*
X133445880Y-68562286D01*
X133432034Y-68591561D01*
X133415385Y-68619338D01*
X133396093Y-68645350D01*
X133374345Y-68669345D01*
X133350350Y-68691093D01*
X133324338Y-68710385D01*
X133296561Y-68727034D01*
X133267286Y-68740880D01*
X133236794Y-68751790D01*
X133205380Y-68759659D01*
X133173346Y-68764411D01*
X133141000Y-68766000D01*
X132151000Y-68766000D01*
X132118654Y-68764411D01*
X132086620Y-68759659D01*
X132055206Y-68751790D01*
X132024714Y-68740880D01*
X131995439Y-68727034D01*
X131967662Y-68710385D01*
X131941650Y-68691093D01*
X131917655Y-68669345D01*
X131895907Y-68645350D01*
X131876615Y-68619338D01*
X131859966Y-68591561D01*
X131846120Y-68562286D01*
X131835210Y-68531794D01*
X131827341Y-68500380D01*
X131822589Y-68468346D01*
X131821000Y-68436000D01*
X131821000Y-66946000D01*
X131822589Y-66913654D01*
X131827341Y-66881620D01*
X131835210Y-66850206D01*
X131846120Y-66819714D01*
X131859966Y-66790439D01*
X131876615Y-66762662D01*
X131895907Y-66736650D01*
X131917655Y-66712655D01*
X131941650Y-66690907D01*
X131967662Y-66671615D01*
X131995439Y-66654966D01*
X132024714Y-66641120D01*
X132055206Y-66630210D01*
X132086620Y-66622341D01*
X132118654Y-66617589D01*
X132151000Y-66616000D01*
X133141000Y-66616000D01*
X133173346Y-66617589D01*
X133173346Y-66617589D01*
G37*
D13*
X132646000Y-67691000D03*
D12*
G36*
X135973346Y-66617589D02*
X136005380Y-66622341D01*
X136036794Y-66630210D01*
X136067286Y-66641120D01*
X136096561Y-66654966D01*
X136124338Y-66671615D01*
X136150350Y-66690907D01*
X136174345Y-66712655D01*
X136196093Y-66736650D01*
X136215385Y-66762662D01*
X136232034Y-66790439D01*
X136245880Y-66819714D01*
X136256790Y-66850206D01*
X136264659Y-66881620D01*
X136269411Y-66913654D01*
X136271000Y-66946000D01*
X136271000Y-68436000D01*
X136269411Y-68468346D01*
X136264659Y-68500380D01*
X136256790Y-68531794D01*
X136245880Y-68562286D01*
X136232034Y-68591561D01*
X136215385Y-68619338D01*
X136196093Y-68645350D01*
X136174345Y-68669345D01*
X136150350Y-68691093D01*
X136124338Y-68710385D01*
X136096561Y-68727034D01*
X136067286Y-68740880D01*
X136036794Y-68751790D01*
X136005380Y-68759659D01*
X135973346Y-68764411D01*
X135941000Y-68766000D01*
X134951000Y-68766000D01*
X134918654Y-68764411D01*
X134886620Y-68759659D01*
X134855206Y-68751790D01*
X134824714Y-68740880D01*
X134795439Y-68727034D01*
X134767662Y-68710385D01*
X134741650Y-68691093D01*
X134717655Y-68669345D01*
X134695907Y-68645350D01*
X134676615Y-68619338D01*
X134659966Y-68591561D01*
X134646120Y-68562286D01*
X134635210Y-68531794D01*
X134627341Y-68500380D01*
X134622589Y-68468346D01*
X134621000Y-68436000D01*
X134621000Y-66946000D01*
X134622589Y-66913654D01*
X134627341Y-66881620D01*
X134635210Y-66850206D01*
X134646120Y-66819714D01*
X134659966Y-66790439D01*
X134676615Y-66762662D01*
X134695907Y-66736650D01*
X134717655Y-66712655D01*
X134741650Y-66690907D01*
X134767662Y-66671615D01*
X134795439Y-66654966D01*
X134824714Y-66641120D01*
X134855206Y-66630210D01*
X134886620Y-66622341D01*
X134918654Y-66617589D01*
X134951000Y-66616000D01*
X135941000Y-66616000D01*
X135973346Y-66617589D01*
X135973346Y-66617589D01*
G37*
D13*
X135446000Y-67691000D03*
G04 #@! TD*
D12*
G04 #@! TO.C,C4*
G36*
X119269346Y-103574589D02*
X119301380Y-103579341D01*
X119332794Y-103587210D01*
X119363286Y-103598120D01*
X119392561Y-103611966D01*
X119420338Y-103628615D01*
X119446350Y-103647907D01*
X119470345Y-103669655D01*
X119492093Y-103693650D01*
X119511385Y-103719662D01*
X119528034Y-103747439D01*
X119541880Y-103776714D01*
X119552790Y-103807206D01*
X119560659Y-103838620D01*
X119565411Y-103870654D01*
X119567000Y-103903000D01*
X119567000Y-105393000D01*
X119565411Y-105425346D01*
X119560659Y-105457380D01*
X119552790Y-105488794D01*
X119541880Y-105519286D01*
X119528034Y-105548561D01*
X119511385Y-105576338D01*
X119492093Y-105602350D01*
X119470345Y-105626345D01*
X119446350Y-105648093D01*
X119420338Y-105667385D01*
X119392561Y-105684034D01*
X119363286Y-105697880D01*
X119332794Y-105708790D01*
X119301380Y-105716659D01*
X119269346Y-105721411D01*
X119237000Y-105723000D01*
X118247000Y-105723000D01*
X118214654Y-105721411D01*
X118182620Y-105716659D01*
X118151206Y-105708790D01*
X118120714Y-105697880D01*
X118091439Y-105684034D01*
X118063662Y-105667385D01*
X118037650Y-105648093D01*
X118013655Y-105626345D01*
X117991907Y-105602350D01*
X117972615Y-105576338D01*
X117955966Y-105548561D01*
X117942120Y-105519286D01*
X117931210Y-105488794D01*
X117923341Y-105457380D01*
X117918589Y-105425346D01*
X117917000Y-105393000D01*
X117917000Y-103903000D01*
X117918589Y-103870654D01*
X117923341Y-103838620D01*
X117931210Y-103807206D01*
X117942120Y-103776714D01*
X117955966Y-103747439D01*
X117972615Y-103719662D01*
X117991907Y-103693650D01*
X118013655Y-103669655D01*
X118037650Y-103647907D01*
X118063662Y-103628615D01*
X118091439Y-103611966D01*
X118120714Y-103598120D01*
X118151206Y-103587210D01*
X118182620Y-103579341D01*
X118214654Y-103574589D01*
X118247000Y-103573000D01*
X119237000Y-103573000D01*
X119269346Y-103574589D01*
X119269346Y-103574589D01*
G37*
D13*
X118742000Y-104648000D03*
D12*
G36*
X122069346Y-103574589D02*
X122101380Y-103579341D01*
X122132794Y-103587210D01*
X122163286Y-103598120D01*
X122192561Y-103611966D01*
X122220338Y-103628615D01*
X122246350Y-103647907D01*
X122270345Y-103669655D01*
X122292093Y-103693650D01*
X122311385Y-103719662D01*
X122328034Y-103747439D01*
X122341880Y-103776714D01*
X122352790Y-103807206D01*
X122360659Y-103838620D01*
X122365411Y-103870654D01*
X122367000Y-103903000D01*
X122367000Y-105393000D01*
X122365411Y-105425346D01*
X122360659Y-105457380D01*
X122352790Y-105488794D01*
X122341880Y-105519286D01*
X122328034Y-105548561D01*
X122311385Y-105576338D01*
X122292093Y-105602350D01*
X122270345Y-105626345D01*
X122246350Y-105648093D01*
X122220338Y-105667385D01*
X122192561Y-105684034D01*
X122163286Y-105697880D01*
X122132794Y-105708790D01*
X122101380Y-105716659D01*
X122069346Y-105721411D01*
X122037000Y-105723000D01*
X121047000Y-105723000D01*
X121014654Y-105721411D01*
X120982620Y-105716659D01*
X120951206Y-105708790D01*
X120920714Y-105697880D01*
X120891439Y-105684034D01*
X120863662Y-105667385D01*
X120837650Y-105648093D01*
X120813655Y-105626345D01*
X120791907Y-105602350D01*
X120772615Y-105576338D01*
X120755966Y-105548561D01*
X120742120Y-105519286D01*
X120731210Y-105488794D01*
X120723341Y-105457380D01*
X120718589Y-105425346D01*
X120717000Y-105393000D01*
X120717000Y-103903000D01*
X120718589Y-103870654D01*
X120723341Y-103838620D01*
X120731210Y-103807206D01*
X120742120Y-103776714D01*
X120755966Y-103747439D01*
X120772615Y-103719662D01*
X120791907Y-103693650D01*
X120813655Y-103669655D01*
X120837650Y-103647907D01*
X120863662Y-103628615D01*
X120891439Y-103611966D01*
X120920714Y-103598120D01*
X120951206Y-103587210D01*
X120982620Y-103579341D01*
X121014654Y-103574589D01*
X121047000Y-103573000D01*
X122037000Y-103573000D01*
X122069346Y-103574589D01*
X122069346Y-103574589D01*
G37*
D13*
X121542000Y-104648000D03*
G04 #@! TD*
D12*
G04 #@! TO.C,C5*
G36*
X135973346Y-64077589D02*
X136005380Y-64082341D01*
X136036794Y-64090210D01*
X136067286Y-64101120D01*
X136096561Y-64114966D01*
X136124338Y-64131615D01*
X136150350Y-64150907D01*
X136174345Y-64172655D01*
X136196093Y-64196650D01*
X136215385Y-64222662D01*
X136232034Y-64250439D01*
X136245880Y-64279714D01*
X136256790Y-64310206D01*
X136264659Y-64341620D01*
X136269411Y-64373654D01*
X136271000Y-64406000D01*
X136271000Y-65896000D01*
X136269411Y-65928346D01*
X136264659Y-65960380D01*
X136256790Y-65991794D01*
X136245880Y-66022286D01*
X136232034Y-66051561D01*
X136215385Y-66079338D01*
X136196093Y-66105350D01*
X136174345Y-66129345D01*
X136150350Y-66151093D01*
X136124338Y-66170385D01*
X136096561Y-66187034D01*
X136067286Y-66200880D01*
X136036794Y-66211790D01*
X136005380Y-66219659D01*
X135973346Y-66224411D01*
X135941000Y-66226000D01*
X134951000Y-66226000D01*
X134918654Y-66224411D01*
X134886620Y-66219659D01*
X134855206Y-66211790D01*
X134824714Y-66200880D01*
X134795439Y-66187034D01*
X134767662Y-66170385D01*
X134741650Y-66151093D01*
X134717655Y-66129345D01*
X134695907Y-66105350D01*
X134676615Y-66079338D01*
X134659966Y-66051561D01*
X134646120Y-66022286D01*
X134635210Y-65991794D01*
X134627341Y-65960380D01*
X134622589Y-65928346D01*
X134621000Y-65896000D01*
X134621000Y-64406000D01*
X134622589Y-64373654D01*
X134627341Y-64341620D01*
X134635210Y-64310206D01*
X134646120Y-64279714D01*
X134659966Y-64250439D01*
X134676615Y-64222662D01*
X134695907Y-64196650D01*
X134717655Y-64172655D01*
X134741650Y-64150907D01*
X134767662Y-64131615D01*
X134795439Y-64114966D01*
X134824714Y-64101120D01*
X134855206Y-64090210D01*
X134886620Y-64082341D01*
X134918654Y-64077589D01*
X134951000Y-64076000D01*
X135941000Y-64076000D01*
X135973346Y-64077589D01*
X135973346Y-64077589D01*
G37*
D13*
X135446000Y-65151000D03*
D12*
G36*
X133173346Y-64077589D02*
X133205380Y-64082341D01*
X133236794Y-64090210D01*
X133267286Y-64101120D01*
X133296561Y-64114966D01*
X133324338Y-64131615D01*
X133350350Y-64150907D01*
X133374345Y-64172655D01*
X133396093Y-64196650D01*
X133415385Y-64222662D01*
X133432034Y-64250439D01*
X133445880Y-64279714D01*
X133456790Y-64310206D01*
X133464659Y-64341620D01*
X133469411Y-64373654D01*
X133471000Y-64406000D01*
X133471000Y-65896000D01*
X133469411Y-65928346D01*
X133464659Y-65960380D01*
X133456790Y-65991794D01*
X133445880Y-66022286D01*
X133432034Y-66051561D01*
X133415385Y-66079338D01*
X133396093Y-66105350D01*
X133374345Y-66129345D01*
X133350350Y-66151093D01*
X133324338Y-66170385D01*
X133296561Y-66187034D01*
X133267286Y-66200880D01*
X133236794Y-66211790D01*
X133205380Y-66219659D01*
X133173346Y-66224411D01*
X133141000Y-66226000D01*
X132151000Y-66226000D01*
X132118654Y-66224411D01*
X132086620Y-66219659D01*
X132055206Y-66211790D01*
X132024714Y-66200880D01*
X131995439Y-66187034D01*
X131967662Y-66170385D01*
X131941650Y-66151093D01*
X131917655Y-66129345D01*
X131895907Y-66105350D01*
X131876615Y-66079338D01*
X131859966Y-66051561D01*
X131846120Y-66022286D01*
X131835210Y-65991794D01*
X131827341Y-65960380D01*
X131822589Y-65928346D01*
X131821000Y-65896000D01*
X131821000Y-64406000D01*
X131822589Y-64373654D01*
X131827341Y-64341620D01*
X131835210Y-64310206D01*
X131846120Y-64279714D01*
X131859966Y-64250439D01*
X131876615Y-64222662D01*
X131895907Y-64196650D01*
X131917655Y-64172655D01*
X131941650Y-64150907D01*
X131967662Y-64131615D01*
X131995439Y-64114966D01*
X132024714Y-64101120D01*
X132055206Y-64090210D01*
X132086620Y-64082341D01*
X132118654Y-64077589D01*
X132151000Y-64076000D01*
X133141000Y-64076000D01*
X133173346Y-64077589D01*
X133173346Y-64077589D01*
G37*
D13*
X132646000Y-65151000D03*
G04 #@! TD*
D12*
G04 #@! TO.C,C7*
G36*
X110633346Y-112083589D02*
X110665380Y-112088341D01*
X110696794Y-112096210D01*
X110727286Y-112107120D01*
X110756561Y-112120966D01*
X110784338Y-112137615D01*
X110810350Y-112156907D01*
X110834345Y-112178655D01*
X110856093Y-112202650D01*
X110875385Y-112228662D01*
X110892034Y-112256439D01*
X110905880Y-112285714D01*
X110916790Y-112316206D01*
X110924659Y-112347620D01*
X110929411Y-112379654D01*
X110931000Y-112412000D01*
X110931000Y-113902000D01*
X110929411Y-113934346D01*
X110924659Y-113966380D01*
X110916790Y-113997794D01*
X110905880Y-114028286D01*
X110892034Y-114057561D01*
X110875385Y-114085338D01*
X110856093Y-114111350D01*
X110834345Y-114135345D01*
X110810350Y-114157093D01*
X110784338Y-114176385D01*
X110756561Y-114193034D01*
X110727286Y-114206880D01*
X110696794Y-114217790D01*
X110665380Y-114225659D01*
X110633346Y-114230411D01*
X110601000Y-114232000D01*
X109611000Y-114232000D01*
X109578654Y-114230411D01*
X109546620Y-114225659D01*
X109515206Y-114217790D01*
X109484714Y-114206880D01*
X109455439Y-114193034D01*
X109427662Y-114176385D01*
X109401650Y-114157093D01*
X109377655Y-114135345D01*
X109355907Y-114111350D01*
X109336615Y-114085338D01*
X109319966Y-114057561D01*
X109306120Y-114028286D01*
X109295210Y-113997794D01*
X109287341Y-113966380D01*
X109282589Y-113934346D01*
X109281000Y-113902000D01*
X109281000Y-112412000D01*
X109282589Y-112379654D01*
X109287341Y-112347620D01*
X109295210Y-112316206D01*
X109306120Y-112285714D01*
X109319966Y-112256439D01*
X109336615Y-112228662D01*
X109355907Y-112202650D01*
X109377655Y-112178655D01*
X109401650Y-112156907D01*
X109427662Y-112137615D01*
X109455439Y-112120966D01*
X109484714Y-112107120D01*
X109515206Y-112096210D01*
X109546620Y-112088341D01*
X109578654Y-112083589D01*
X109611000Y-112082000D01*
X110601000Y-112082000D01*
X110633346Y-112083589D01*
X110633346Y-112083589D01*
G37*
D13*
X110106000Y-113157000D03*
D12*
G36*
X113433346Y-112083589D02*
X113465380Y-112088341D01*
X113496794Y-112096210D01*
X113527286Y-112107120D01*
X113556561Y-112120966D01*
X113584338Y-112137615D01*
X113610350Y-112156907D01*
X113634345Y-112178655D01*
X113656093Y-112202650D01*
X113675385Y-112228662D01*
X113692034Y-112256439D01*
X113705880Y-112285714D01*
X113716790Y-112316206D01*
X113724659Y-112347620D01*
X113729411Y-112379654D01*
X113731000Y-112412000D01*
X113731000Y-113902000D01*
X113729411Y-113934346D01*
X113724659Y-113966380D01*
X113716790Y-113997794D01*
X113705880Y-114028286D01*
X113692034Y-114057561D01*
X113675385Y-114085338D01*
X113656093Y-114111350D01*
X113634345Y-114135345D01*
X113610350Y-114157093D01*
X113584338Y-114176385D01*
X113556561Y-114193034D01*
X113527286Y-114206880D01*
X113496794Y-114217790D01*
X113465380Y-114225659D01*
X113433346Y-114230411D01*
X113401000Y-114232000D01*
X112411000Y-114232000D01*
X112378654Y-114230411D01*
X112346620Y-114225659D01*
X112315206Y-114217790D01*
X112284714Y-114206880D01*
X112255439Y-114193034D01*
X112227662Y-114176385D01*
X112201650Y-114157093D01*
X112177655Y-114135345D01*
X112155907Y-114111350D01*
X112136615Y-114085338D01*
X112119966Y-114057561D01*
X112106120Y-114028286D01*
X112095210Y-113997794D01*
X112087341Y-113966380D01*
X112082589Y-113934346D01*
X112081000Y-113902000D01*
X112081000Y-112412000D01*
X112082589Y-112379654D01*
X112087341Y-112347620D01*
X112095210Y-112316206D01*
X112106120Y-112285714D01*
X112119966Y-112256439D01*
X112136615Y-112228662D01*
X112155907Y-112202650D01*
X112177655Y-112178655D01*
X112201650Y-112156907D01*
X112227662Y-112137615D01*
X112255439Y-112120966D01*
X112284714Y-112107120D01*
X112315206Y-112096210D01*
X112346620Y-112088341D01*
X112378654Y-112083589D01*
X112411000Y-112082000D01*
X113401000Y-112082000D01*
X113433346Y-112083589D01*
X113433346Y-112083589D01*
G37*
D13*
X112906000Y-113157000D03*
G04 #@! TD*
D12*
G04 #@! TO.C,C8*
G36*
X130959346Y-101034589D02*
X130991380Y-101039341D01*
X131022794Y-101047210D01*
X131053286Y-101058120D01*
X131082561Y-101071966D01*
X131110338Y-101088615D01*
X131136350Y-101107907D01*
X131160345Y-101129655D01*
X131182093Y-101153650D01*
X131201385Y-101179662D01*
X131218034Y-101207439D01*
X131231880Y-101236714D01*
X131242790Y-101267206D01*
X131250659Y-101298620D01*
X131255411Y-101330654D01*
X131257000Y-101363000D01*
X131257000Y-102853000D01*
X131255411Y-102885346D01*
X131250659Y-102917380D01*
X131242790Y-102948794D01*
X131231880Y-102979286D01*
X131218034Y-103008561D01*
X131201385Y-103036338D01*
X131182093Y-103062350D01*
X131160345Y-103086345D01*
X131136350Y-103108093D01*
X131110338Y-103127385D01*
X131082561Y-103144034D01*
X131053286Y-103157880D01*
X131022794Y-103168790D01*
X130991380Y-103176659D01*
X130959346Y-103181411D01*
X130927000Y-103183000D01*
X129937000Y-103183000D01*
X129904654Y-103181411D01*
X129872620Y-103176659D01*
X129841206Y-103168790D01*
X129810714Y-103157880D01*
X129781439Y-103144034D01*
X129753662Y-103127385D01*
X129727650Y-103108093D01*
X129703655Y-103086345D01*
X129681907Y-103062350D01*
X129662615Y-103036338D01*
X129645966Y-103008561D01*
X129632120Y-102979286D01*
X129621210Y-102948794D01*
X129613341Y-102917380D01*
X129608589Y-102885346D01*
X129607000Y-102853000D01*
X129607000Y-101363000D01*
X129608589Y-101330654D01*
X129613341Y-101298620D01*
X129621210Y-101267206D01*
X129632120Y-101236714D01*
X129645966Y-101207439D01*
X129662615Y-101179662D01*
X129681907Y-101153650D01*
X129703655Y-101129655D01*
X129727650Y-101107907D01*
X129753662Y-101088615D01*
X129781439Y-101071966D01*
X129810714Y-101058120D01*
X129841206Y-101047210D01*
X129872620Y-101039341D01*
X129904654Y-101034589D01*
X129937000Y-101033000D01*
X130927000Y-101033000D01*
X130959346Y-101034589D01*
X130959346Y-101034589D01*
G37*
D13*
X130432000Y-102108000D03*
D12*
G36*
X128159346Y-101034589D02*
X128191380Y-101039341D01*
X128222794Y-101047210D01*
X128253286Y-101058120D01*
X128282561Y-101071966D01*
X128310338Y-101088615D01*
X128336350Y-101107907D01*
X128360345Y-101129655D01*
X128382093Y-101153650D01*
X128401385Y-101179662D01*
X128418034Y-101207439D01*
X128431880Y-101236714D01*
X128442790Y-101267206D01*
X128450659Y-101298620D01*
X128455411Y-101330654D01*
X128457000Y-101363000D01*
X128457000Y-102853000D01*
X128455411Y-102885346D01*
X128450659Y-102917380D01*
X128442790Y-102948794D01*
X128431880Y-102979286D01*
X128418034Y-103008561D01*
X128401385Y-103036338D01*
X128382093Y-103062350D01*
X128360345Y-103086345D01*
X128336350Y-103108093D01*
X128310338Y-103127385D01*
X128282561Y-103144034D01*
X128253286Y-103157880D01*
X128222794Y-103168790D01*
X128191380Y-103176659D01*
X128159346Y-103181411D01*
X128127000Y-103183000D01*
X127137000Y-103183000D01*
X127104654Y-103181411D01*
X127072620Y-103176659D01*
X127041206Y-103168790D01*
X127010714Y-103157880D01*
X126981439Y-103144034D01*
X126953662Y-103127385D01*
X126927650Y-103108093D01*
X126903655Y-103086345D01*
X126881907Y-103062350D01*
X126862615Y-103036338D01*
X126845966Y-103008561D01*
X126832120Y-102979286D01*
X126821210Y-102948794D01*
X126813341Y-102917380D01*
X126808589Y-102885346D01*
X126807000Y-102853000D01*
X126807000Y-101363000D01*
X126808589Y-101330654D01*
X126813341Y-101298620D01*
X126821210Y-101267206D01*
X126832120Y-101236714D01*
X126845966Y-101207439D01*
X126862615Y-101179662D01*
X126881907Y-101153650D01*
X126903655Y-101129655D01*
X126927650Y-101107907D01*
X126953662Y-101088615D01*
X126981439Y-101071966D01*
X127010714Y-101058120D01*
X127041206Y-101047210D01*
X127072620Y-101039341D01*
X127104654Y-101034589D01*
X127137000Y-101033000D01*
X128127000Y-101033000D01*
X128159346Y-101034589D01*
X128159346Y-101034589D01*
G37*
D13*
X127632000Y-102108000D03*
G04 #@! TD*
D12*
G04 #@! TO.C,C9*
G36*
X124094346Y-95318589D02*
X124126380Y-95323341D01*
X124157794Y-95331210D01*
X124188286Y-95342120D01*
X124217561Y-95355966D01*
X124245338Y-95372615D01*
X124271350Y-95391907D01*
X124295345Y-95413655D01*
X124317093Y-95437650D01*
X124336385Y-95463662D01*
X124353034Y-95491439D01*
X124366880Y-95520714D01*
X124377790Y-95551206D01*
X124385659Y-95582620D01*
X124390411Y-95614654D01*
X124392000Y-95647000D01*
X124392000Y-96637000D01*
X124390411Y-96669346D01*
X124385659Y-96701380D01*
X124377790Y-96732794D01*
X124366880Y-96763286D01*
X124353034Y-96792561D01*
X124336385Y-96820338D01*
X124317093Y-96846350D01*
X124295345Y-96870345D01*
X124271350Y-96892093D01*
X124245338Y-96911385D01*
X124217561Y-96928034D01*
X124188286Y-96941880D01*
X124157794Y-96952790D01*
X124126380Y-96960659D01*
X124094346Y-96965411D01*
X124062000Y-96967000D01*
X122572000Y-96967000D01*
X122539654Y-96965411D01*
X122507620Y-96960659D01*
X122476206Y-96952790D01*
X122445714Y-96941880D01*
X122416439Y-96928034D01*
X122388662Y-96911385D01*
X122362650Y-96892093D01*
X122338655Y-96870345D01*
X122316907Y-96846350D01*
X122297615Y-96820338D01*
X122280966Y-96792561D01*
X122267120Y-96763286D01*
X122256210Y-96732794D01*
X122248341Y-96701380D01*
X122243589Y-96669346D01*
X122242000Y-96637000D01*
X122242000Y-95647000D01*
X122243589Y-95614654D01*
X122248341Y-95582620D01*
X122256210Y-95551206D01*
X122267120Y-95520714D01*
X122280966Y-95491439D01*
X122297615Y-95463662D01*
X122316907Y-95437650D01*
X122338655Y-95413655D01*
X122362650Y-95391907D01*
X122388662Y-95372615D01*
X122416439Y-95355966D01*
X122445714Y-95342120D01*
X122476206Y-95331210D01*
X122507620Y-95323341D01*
X122539654Y-95318589D01*
X122572000Y-95317000D01*
X124062000Y-95317000D01*
X124094346Y-95318589D01*
X124094346Y-95318589D01*
G37*
D13*
X123317000Y-96142000D03*
D12*
G36*
X124094346Y-92518589D02*
X124126380Y-92523341D01*
X124157794Y-92531210D01*
X124188286Y-92542120D01*
X124217561Y-92555966D01*
X124245338Y-92572615D01*
X124271350Y-92591907D01*
X124295345Y-92613655D01*
X124317093Y-92637650D01*
X124336385Y-92663662D01*
X124353034Y-92691439D01*
X124366880Y-92720714D01*
X124377790Y-92751206D01*
X124385659Y-92782620D01*
X124390411Y-92814654D01*
X124392000Y-92847000D01*
X124392000Y-93837000D01*
X124390411Y-93869346D01*
X124385659Y-93901380D01*
X124377790Y-93932794D01*
X124366880Y-93963286D01*
X124353034Y-93992561D01*
X124336385Y-94020338D01*
X124317093Y-94046350D01*
X124295345Y-94070345D01*
X124271350Y-94092093D01*
X124245338Y-94111385D01*
X124217561Y-94128034D01*
X124188286Y-94141880D01*
X124157794Y-94152790D01*
X124126380Y-94160659D01*
X124094346Y-94165411D01*
X124062000Y-94167000D01*
X122572000Y-94167000D01*
X122539654Y-94165411D01*
X122507620Y-94160659D01*
X122476206Y-94152790D01*
X122445714Y-94141880D01*
X122416439Y-94128034D01*
X122388662Y-94111385D01*
X122362650Y-94092093D01*
X122338655Y-94070345D01*
X122316907Y-94046350D01*
X122297615Y-94020338D01*
X122280966Y-93992561D01*
X122267120Y-93963286D01*
X122256210Y-93932794D01*
X122248341Y-93901380D01*
X122243589Y-93869346D01*
X122242000Y-93837000D01*
X122242000Y-92847000D01*
X122243589Y-92814654D01*
X122248341Y-92782620D01*
X122256210Y-92751206D01*
X122267120Y-92720714D01*
X122280966Y-92691439D01*
X122297615Y-92663662D01*
X122316907Y-92637650D01*
X122338655Y-92613655D01*
X122362650Y-92591907D01*
X122388662Y-92572615D01*
X122416439Y-92555966D01*
X122445714Y-92542120D01*
X122476206Y-92531210D01*
X122507620Y-92523341D01*
X122539654Y-92518589D01*
X122572000Y-92517000D01*
X124062000Y-92517000D01*
X124094346Y-92518589D01*
X124094346Y-92518589D01*
G37*
D13*
X123317000Y-93342000D03*
G04 #@! TD*
D12*
G04 #@! TO.C,C10*
G36*
X130959346Y-103574589D02*
X130991380Y-103579341D01*
X131022794Y-103587210D01*
X131053286Y-103598120D01*
X131082561Y-103611966D01*
X131110338Y-103628615D01*
X131136350Y-103647907D01*
X131160345Y-103669655D01*
X131182093Y-103693650D01*
X131201385Y-103719662D01*
X131218034Y-103747439D01*
X131231880Y-103776714D01*
X131242790Y-103807206D01*
X131250659Y-103838620D01*
X131255411Y-103870654D01*
X131257000Y-103903000D01*
X131257000Y-105393000D01*
X131255411Y-105425346D01*
X131250659Y-105457380D01*
X131242790Y-105488794D01*
X131231880Y-105519286D01*
X131218034Y-105548561D01*
X131201385Y-105576338D01*
X131182093Y-105602350D01*
X131160345Y-105626345D01*
X131136350Y-105648093D01*
X131110338Y-105667385D01*
X131082561Y-105684034D01*
X131053286Y-105697880D01*
X131022794Y-105708790D01*
X130991380Y-105716659D01*
X130959346Y-105721411D01*
X130927000Y-105723000D01*
X129937000Y-105723000D01*
X129904654Y-105721411D01*
X129872620Y-105716659D01*
X129841206Y-105708790D01*
X129810714Y-105697880D01*
X129781439Y-105684034D01*
X129753662Y-105667385D01*
X129727650Y-105648093D01*
X129703655Y-105626345D01*
X129681907Y-105602350D01*
X129662615Y-105576338D01*
X129645966Y-105548561D01*
X129632120Y-105519286D01*
X129621210Y-105488794D01*
X129613341Y-105457380D01*
X129608589Y-105425346D01*
X129607000Y-105393000D01*
X129607000Y-103903000D01*
X129608589Y-103870654D01*
X129613341Y-103838620D01*
X129621210Y-103807206D01*
X129632120Y-103776714D01*
X129645966Y-103747439D01*
X129662615Y-103719662D01*
X129681907Y-103693650D01*
X129703655Y-103669655D01*
X129727650Y-103647907D01*
X129753662Y-103628615D01*
X129781439Y-103611966D01*
X129810714Y-103598120D01*
X129841206Y-103587210D01*
X129872620Y-103579341D01*
X129904654Y-103574589D01*
X129937000Y-103573000D01*
X130927000Y-103573000D01*
X130959346Y-103574589D01*
X130959346Y-103574589D01*
G37*
D13*
X130432000Y-104648000D03*
D12*
G36*
X128159346Y-103574589D02*
X128191380Y-103579341D01*
X128222794Y-103587210D01*
X128253286Y-103598120D01*
X128282561Y-103611966D01*
X128310338Y-103628615D01*
X128336350Y-103647907D01*
X128360345Y-103669655D01*
X128382093Y-103693650D01*
X128401385Y-103719662D01*
X128418034Y-103747439D01*
X128431880Y-103776714D01*
X128442790Y-103807206D01*
X128450659Y-103838620D01*
X128455411Y-103870654D01*
X128457000Y-103903000D01*
X128457000Y-105393000D01*
X128455411Y-105425346D01*
X128450659Y-105457380D01*
X128442790Y-105488794D01*
X128431880Y-105519286D01*
X128418034Y-105548561D01*
X128401385Y-105576338D01*
X128382093Y-105602350D01*
X128360345Y-105626345D01*
X128336350Y-105648093D01*
X128310338Y-105667385D01*
X128282561Y-105684034D01*
X128253286Y-105697880D01*
X128222794Y-105708790D01*
X128191380Y-105716659D01*
X128159346Y-105721411D01*
X128127000Y-105723000D01*
X127137000Y-105723000D01*
X127104654Y-105721411D01*
X127072620Y-105716659D01*
X127041206Y-105708790D01*
X127010714Y-105697880D01*
X126981439Y-105684034D01*
X126953662Y-105667385D01*
X126927650Y-105648093D01*
X126903655Y-105626345D01*
X126881907Y-105602350D01*
X126862615Y-105576338D01*
X126845966Y-105548561D01*
X126832120Y-105519286D01*
X126821210Y-105488794D01*
X126813341Y-105457380D01*
X126808589Y-105425346D01*
X126807000Y-105393000D01*
X126807000Y-103903000D01*
X126808589Y-103870654D01*
X126813341Y-103838620D01*
X126821210Y-103807206D01*
X126832120Y-103776714D01*
X126845966Y-103747439D01*
X126862615Y-103719662D01*
X126881907Y-103693650D01*
X126903655Y-103669655D01*
X126927650Y-103647907D01*
X126953662Y-103628615D01*
X126981439Y-103611966D01*
X127010714Y-103598120D01*
X127041206Y-103587210D01*
X127072620Y-103579341D01*
X127104654Y-103574589D01*
X127137000Y-103573000D01*
X128127000Y-103573000D01*
X128159346Y-103574589D01*
X128159346Y-103574589D01*
G37*
D13*
X127632000Y-104648000D03*
G04 #@! TD*
D12*
G04 #@! TO.C,C11*
G36*
X121681346Y-95318589D02*
X121713380Y-95323341D01*
X121744794Y-95331210D01*
X121775286Y-95342120D01*
X121804561Y-95355966D01*
X121832338Y-95372615D01*
X121858350Y-95391907D01*
X121882345Y-95413655D01*
X121904093Y-95437650D01*
X121923385Y-95463662D01*
X121940034Y-95491439D01*
X121953880Y-95520714D01*
X121964790Y-95551206D01*
X121972659Y-95582620D01*
X121977411Y-95614654D01*
X121979000Y-95647000D01*
X121979000Y-96637000D01*
X121977411Y-96669346D01*
X121972659Y-96701380D01*
X121964790Y-96732794D01*
X121953880Y-96763286D01*
X121940034Y-96792561D01*
X121923385Y-96820338D01*
X121904093Y-96846350D01*
X121882345Y-96870345D01*
X121858350Y-96892093D01*
X121832338Y-96911385D01*
X121804561Y-96928034D01*
X121775286Y-96941880D01*
X121744794Y-96952790D01*
X121713380Y-96960659D01*
X121681346Y-96965411D01*
X121649000Y-96967000D01*
X120159000Y-96967000D01*
X120126654Y-96965411D01*
X120094620Y-96960659D01*
X120063206Y-96952790D01*
X120032714Y-96941880D01*
X120003439Y-96928034D01*
X119975662Y-96911385D01*
X119949650Y-96892093D01*
X119925655Y-96870345D01*
X119903907Y-96846350D01*
X119884615Y-96820338D01*
X119867966Y-96792561D01*
X119854120Y-96763286D01*
X119843210Y-96732794D01*
X119835341Y-96701380D01*
X119830589Y-96669346D01*
X119829000Y-96637000D01*
X119829000Y-95647000D01*
X119830589Y-95614654D01*
X119835341Y-95582620D01*
X119843210Y-95551206D01*
X119854120Y-95520714D01*
X119867966Y-95491439D01*
X119884615Y-95463662D01*
X119903907Y-95437650D01*
X119925655Y-95413655D01*
X119949650Y-95391907D01*
X119975662Y-95372615D01*
X120003439Y-95355966D01*
X120032714Y-95342120D01*
X120063206Y-95331210D01*
X120094620Y-95323341D01*
X120126654Y-95318589D01*
X120159000Y-95317000D01*
X121649000Y-95317000D01*
X121681346Y-95318589D01*
X121681346Y-95318589D01*
G37*
D13*
X120904000Y-96142000D03*
D12*
G36*
X121681346Y-92518589D02*
X121713380Y-92523341D01*
X121744794Y-92531210D01*
X121775286Y-92542120D01*
X121804561Y-92555966D01*
X121832338Y-92572615D01*
X121858350Y-92591907D01*
X121882345Y-92613655D01*
X121904093Y-92637650D01*
X121923385Y-92663662D01*
X121940034Y-92691439D01*
X121953880Y-92720714D01*
X121964790Y-92751206D01*
X121972659Y-92782620D01*
X121977411Y-92814654D01*
X121979000Y-92847000D01*
X121979000Y-93837000D01*
X121977411Y-93869346D01*
X121972659Y-93901380D01*
X121964790Y-93932794D01*
X121953880Y-93963286D01*
X121940034Y-93992561D01*
X121923385Y-94020338D01*
X121904093Y-94046350D01*
X121882345Y-94070345D01*
X121858350Y-94092093D01*
X121832338Y-94111385D01*
X121804561Y-94128034D01*
X121775286Y-94141880D01*
X121744794Y-94152790D01*
X121713380Y-94160659D01*
X121681346Y-94165411D01*
X121649000Y-94167000D01*
X120159000Y-94167000D01*
X120126654Y-94165411D01*
X120094620Y-94160659D01*
X120063206Y-94152790D01*
X120032714Y-94141880D01*
X120003439Y-94128034D01*
X119975662Y-94111385D01*
X119949650Y-94092093D01*
X119925655Y-94070345D01*
X119903907Y-94046350D01*
X119884615Y-94020338D01*
X119867966Y-93992561D01*
X119854120Y-93963286D01*
X119843210Y-93932794D01*
X119835341Y-93901380D01*
X119830589Y-93869346D01*
X119829000Y-93837000D01*
X119829000Y-92847000D01*
X119830589Y-92814654D01*
X119835341Y-92782620D01*
X119843210Y-92751206D01*
X119854120Y-92720714D01*
X119867966Y-92691439D01*
X119884615Y-92663662D01*
X119903907Y-92637650D01*
X119925655Y-92613655D01*
X119949650Y-92591907D01*
X119975662Y-92572615D01*
X120003439Y-92555966D01*
X120032714Y-92542120D01*
X120063206Y-92531210D01*
X120094620Y-92523341D01*
X120126654Y-92518589D01*
X120159000Y-92517000D01*
X121649000Y-92517000D01*
X121681346Y-92518589D01*
X121681346Y-92518589D01*
G37*
D13*
X120904000Y-93342000D03*
G04 #@! TD*
D12*
G04 #@! TO.C,C12*
G36*
X124863346Y-67506589D02*
X124895380Y-67511341D01*
X124926794Y-67519210D01*
X124957286Y-67530120D01*
X124986561Y-67543966D01*
X125014338Y-67560615D01*
X125040350Y-67579907D01*
X125064345Y-67601655D01*
X125086093Y-67625650D01*
X125105385Y-67651662D01*
X125122034Y-67679439D01*
X125135880Y-67708714D01*
X125146790Y-67739206D01*
X125154659Y-67770620D01*
X125159411Y-67802654D01*
X125161000Y-67835000D01*
X125161000Y-69325000D01*
X125159411Y-69357346D01*
X125154659Y-69389380D01*
X125146790Y-69420794D01*
X125135880Y-69451286D01*
X125122034Y-69480561D01*
X125105385Y-69508338D01*
X125086093Y-69534350D01*
X125064345Y-69558345D01*
X125040350Y-69580093D01*
X125014338Y-69599385D01*
X124986561Y-69616034D01*
X124957286Y-69629880D01*
X124926794Y-69640790D01*
X124895380Y-69648659D01*
X124863346Y-69653411D01*
X124831000Y-69655000D01*
X123841000Y-69655000D01*
X123808654Y-69653411D01*
X123776620Y-69648659D01*
X123745206Y-69640790D01*
X123714714Y-69629880D01*
X123685439Y-69616034D01*
X123657662Y-69599385D01*
X123631650Y-69580093D01*
X123607655Y-69558345D01*
X123585907Y-69534350D01*
X123566615Y-69508338D01*
X123549966Y-69480561D01*
X123536120Y-69451286D01*
X123525210Y-69420794D01*
X123517341Y-69389380D01*
X123512589Y-69357346D01*
X123511000Y-69325000D01*
X123511000Y-67835000D01*
X123512589Y-67802654D01*
X123517341Y-67770620D01*
X123525210Y-67739206D01*
X123536120Y-67708714D01*
X123549966Y-67679439D01*
X123566615Y-67651662D01*
X123585907Y-67625650D01*
X123607655Y-67601655D01*
X123631650Y-67579907D01*
X123657662Y-67560615D01*
X123685439Y-67543966D01*
X123714714Y-67530120D01*
X123745206Y-67519210D01*
X123776620Y-67511341D01*
X123808654Y-67506589D01*
X123841000Y-67505000D01*
X124831000Y-67505000D01*
X124863346Y-67506589D01*
X124863346Y-67506589D01*
G37*
D13*
X124336000Y-68580000D03*
D12*
G36*
X122063346Y-67506589D02*
X122095380Y-67511341D01*
X122126794Y-67519210D01*
X122157286Y-67530120D01*
X122186561Y-67543966D01*
X122214338Y-67560615D01*
X122240350Y-67579907D01*
X122264345Y-67601655D01*
X122286093Y-67625650D01*
X122305385Y-67651662D01*
X122322034Y-67679439D01*
X122335880Y-67708714D01*
X122346790Y-67739206D01*
X122354659Y-67770620D01*
X122359411Y-67802654D01*
X122361000Y-67835000D01*
X122361000Y-69325000D01*
X122359411Y-69357346D01*
X122354659Y-69389380D01*
X122346790Y-69420794D01*
X122335880Y-69451286D01*
X122322034Y-69480561D01*
X122305385Y-69508338D01*
X122286093Y-69534350D01*
X122264345Y-69558345D01*
X122240350Y-69580093D01*
X122214338Y-69599385D01*
X122186561Y-69616034D01*
X122157286Y-69629880D01*
X122126794Y-69640790D01*
X122095380Y-69648659D01*
X122063346Y-69653411D01*
X122031000Y-69655000D01*
X121041000Y-69655000D01*
X121008654Y-69653411D01*
X120976620Y-69648659D01*
X120945206Y-69640790D01*
X120914714Y-69629880D01*
X120885439Y-69616034D01*
X120857662Y-69599385D01*
X120831650Y-69580093D01*
X120807655Y-69558345D01*
X120785907Y-69534350D01*
X120766615Y-69508338D01*
X120749966Y-69480561D01*
X120736120Y-69451286D01*
X120725210Y-69420794D01*
X120717341Y-69389380D01*
X120712589Y-69357346D01*
X120711000Y-69325000D01*
X120711000Y-67835000D01*
X120712589Y-67802654D01*
X120717341Y-67770620D01*
X120725210Y-67739206D01*
X120736120Y-67708714D01*
X120749966Y-67679439D01*
X120766615Y-67651662D01*
X120785907Y-67625650D01*
X120807655Y-67601655D01*
X120831650Y-67579907D01*
X120857662Y-67560615D01*
X120885439Y-67543966D01*
X120914714Y-67530120D01*
X120945206Y-67519210D01*
X120976620Y-67511341D01*
X121008654Y-67506589D01*
X121041000Y-67505000D01*
X122031000Y-67505000D01*
X122063346Y-67506589D01*
X122063346Y-67506589D01*
G37*
D13*
X121536000Y-68580000D03*
G04 #@! TD*
D12*
G04 #@! TO.C,C13*
G36*
X122063346Y-70046589D02*
X122095380Y-70051341D01*
X122126794Y-70059210D01*
X122157286Y-70070120D01*
X122186561Y-70083966D01*
X122214338Y-70100615D01*
X122240350Y-70119907D01*
X122264345Y-70141655D01*
X122286093Y-70165650D01*
X122305385Y-70191662D01*
X122322034Y-70219439D01*
X122335880Y-70248714D01*
X122346790Y-70279206D01*
X122354659Y-70310620D01*
X122359411Y-70342654D01*
X122361000Y-70375000D01*
X122361000Y-71865000D01*
X122359411Y-71897346D01*
X122354659Y-71929380D01*
X122346790Y-71960794D01*
X122335880Y-71991286D01*
X122322034Y-72020561D01*
X122305385Y-72048338D01*
X122286093Y-72074350D01*
X122264345Y-72098345D01*
X122240350Y-72120093D01*
X122214338Y-72139385D01*
X122186561Y-72156034D01*
X122157286Y-72169880D01*
X122126794Y-72180790D01*
X122095380Y-72188659D01*
X122063346Y-72193411D01*
X122031000Y-72195000D01*
X121041000Y-72195000D01*
X121008654Y-72193411D01*
X120976620Y-72188659D01*
X120945206Y-72180790D01*
X120914714Y-72169880D01*
X120885439Y-72156034D01*
X120857662Y-72139385D01*
X120831650Y-72120093D01*
X120807655Y-72098345D01*
X120785907Y-72074350D01*
X120766615Y-72048338D01*
X120749966Y-72020561D01*
X120736120Y-71991286D01*
X120725210Y-71960794D01*
X120717341Y-71929380D01*
X120712589Y-71897346D01*
X120711000Y-71865000D01*
X120711000Y-70375000D01*
X120712589Y-70342654D01*
X120717341Y-70310620D01*
X120725210Y-70279206D01*
X120736120Y-70248714D01*
X120749966Y-70219439D01*
X120766615Y-70191662D01*
X120785907Y-70165650D01*
X120807655Y-70141655D01*
X120831650Y-70119907D01*
X120857662Y-70100615D01*
X120885439Y-70083966D01*
X120914714Y-70070120D01*
X120945206Y-70059210D01*
X120976620Y-70051341D01*
X121008654Y-70046589D01*
X121041000Y-70045000D01*
X122031000Y-70045000D01*
X122063346Y-70046589D01*
X122063346Y-70046589D01*
G37*
D13*
X121536000Y-71120000D03*
D12*
G36*
X124863346Y-70046589D02*
X124895380Y-70051341D01*
X124926794Y-70059210D01*
X124957286Y-70070120D01*
X124986561Y-70083966D01*
X125014338Y-70100615D01*
X125040350Y-70119907D01*
X125064345Y-70141655D01*
X125086093Y-70165650D01*
X125105385Y-70191662D01*
X125122034Y-70219439D01*
X125135880Y-70248714D01*
X125146790Y-70279206D01*
X125154659Y-70310620D01*
X125159411Y-70342654D01*
X125161000Y-70375000D01*
X125161000Y-71865000D01*
X125159411Y-71897346D01*
X125154659Y-71929380D01*
X125146790Y-71960794D01*
X125135880Y-71991286D01*
X125122034Y-72020561D01*
X125105385Y-72048338D01*
X125086093Y-72074350D01*
X125064345Y-72098345D01*
X125040350Y-72120093D01*
X125014338Y-72139385D01*
X124986561Y-72156034D01*
X124957286Y-72169880D01*
X124926794Y-72180790D01*
X124895380Y-72188659D01*
X124863346Y-72193411D01*
X124831000Y-72195000D01*
X123841000Y-72195000D01*
X123808654Y-72193411D01*
X123776620Y-72188659D01*
X123745206Y-72180790D01*
X123714714Y-72169880D01*
X123685439Y-72156034D01*
X123657662Y-72139385D01*
X123631650Y-72120093D01*
X123607655Y-72098345D01*
X123585907Y-72074350D01*
X123566615Y-72048338D01*
X123549966Y-72020561D01*
X123536120Y-71991286D01*
X123525210Y-71960794D01*
X123517341Y-71929380D01*
X123512589Y-71897346D01*
X123511000Y-71865000D01*
X123511000Y-70375000D01*
X123512589Y-70342654D01*
X123517341Y-70310620D01*
X123525210Y-70279206D01*
X123536120Y-70248714D01*
X123549966Y-70219439D01*
X123566615Y-70191662D01*
X123585907Y-70165650D01*
X123607655Y-70141655D01*
X123631650Y-70119907D01*
X123657662Y-70100615D01*
X123685439Y-70083966D01*
X123714714Y-70070120D01*
X123745206Y-70059210D01*
X123776620Y-70051341D01*
X123808654Y-70046589D01*
X123841000Y-70045000D01*
X124831000Y-70045000D01*
X124863346Y-70046589D01*
X124863346Y-70046589D01*
G37*
D13*
X124336000Y-71120000D03*
G04 #@! TD*
D12*
G04 #@! TO.C,C14*
G36*
X139341346Y-52266589D02*
X139373380Y-52271341D01*
X139404794Y-52279210D01*
X139435286Y-52290120D01*
X139464561Y-52303966D01*
X139492338Y-52320615D01*
X139518350Y-52339907D01*
X139542345Y-52361655D01*
X139564093Y-52385650D01*
X139583385Y-52411662D01*
X139600034Y-52439439D01*
X139613880Y-52468714D01*
X139624790Y-52499206D01*
X139632659Y-52530620D01*
X139637411Y-52562654D01*
X139639000Y-52595000D01*
X139639000Y-54085000D01*
X139637411Y-54117346D01*
X139632659Y-54149380D01*
X139624790Y-54180794D01*
X139613880Y-54211286D01*
X139600034Y-54240561D01*
X139583385Y-54268338D01*
X139564093Y-54294350D01*
X139542345Y-54318345D01*
X139518350Y-54340093D01*
X139492338Y-54359385D01*
X139464561Y-54376034D01*
X139435286Y-54389880D01*
X139404794Y-54400790D01*
X139373380Y-54408659D01*
X139341346Y-54413411D01*
X139309000Y-54415000D01*
X138319000Y-54415000D01*
X138286654Y-54413411D01*
X138254620Y-54408659D01*
X138223206Y-54400790D01*
X138192714Y-54389880D01*
X138163439Y-54376034D01*
X138135662Y-54359385D01*
X138109650Y-54340093D01*
X138085655Y-54318345D01*
X138063907Y-54294350D01*
X138044615Y-54268338D01*
X138027966Y-54240561D01*
X138014120Y-54211286D01*
X138003210Y-54180794D01*
X137995341Y-54149380D01*
X137990589Y-54117346D01*
X137989000Y-54085000D01*
X137989000Y-52595000D01*
X137990589Y-52562654D01*
X137995341Y-52530620D01*
X138003210Y-52499206D01*
X138014120Y-52468714D01*
X138027966Y-52439439D01*
X138044615Y-52411662D01*
X138063907Y-52385650D01*
X138085655Y-52361655D01*
X138109650Y-52339907D01*
X138135662Y-52320615D01*
X138163439Y-52303966D01*
X138192714Y-52290120D01*
X138223206Y-52279210D01*
X138254620Y-52271341D01*
X138286654Y-52266589D01*
X138319000Y-52265000D01*
X139309000Y-52265000D01*
X139341346Y-52266589D01*
X139341346Y-52266589D01*
G37*
D13*
X138814000Y-53340000D03*
D12*
G36*
X136541346Y-52266589D02*
X136573380Y-52271341D01*
X136604794Y-52279210D01*
X136635286Y-52290120D01*
X136664561Y-52303966D01*
X136692338Y-52320615D01*
X136718350Y-52339907D01*
X136742345Y-52361655D01*
X136764093Y-52385650D01*
X136783385Y-52411662D01*
X136800034Y-52439439D01*
X136813880Y-52468714D01*
X136824790Y-52499206D01*
X136832659Y-52530620D01*
X136837411Y-52562654D01*
X136839000Y-52595000D01*
X136839000Y-54085000D01*
X136837411Y-54117346D01*
X136832659Y-54149380D01*
X136824790Y-54180794D01*
X136813880Y-54211286D01*
X136800034Y-54240561D01*
X136783385Y-54268338D01*
X136764093Y-54294350D01*
X136742345Y-54318345D01*
X136718350Y-54340093D01*
X136692338Y-54359385D01*
X136664561Y-54376034D01*
X136635286Y-54389880D01*
X136604794Y-54400790D01*
X136573380Y-54408659D01*
X136541346Y-54413411D01*
X136509000Y-54415000D01*
X135519000Y-54415000D01*
X135486654Y-54413411D01*
X135454620Y-54408659D01*
X135423206Y-54400790D01*
X135392714Y-54389880D01*
X135363439Y-54376034D01*
X135335662Y-54359385D01*
X135309650Y-54340093D01*
X135285655Y-54318345D01*
X135263907Y-54294350D01*
X135244615Y-54268338D01*
X135227966Y-54240561D01*
X135214120Y-54211286D01*
X135203210Y-54180794D01*
X135195341Y-54149380D01*
X135190589Y-54117346D01*
X135189000Y-54085000D01*
X135189000Y-52595000D01*
X135190589Y-52562654D01*
X135195341Y-52530620D01*
X135203210Y-52499206D01*
X135214120Y-52468714D01*
X135227966Y-52439439D01*
X135244615Y-52411662D01*
X135263907Y-52385650D01*
X135285655Y-52361655D01*
X135309650Y-52339907D01*
X135335662Y-52320615D01*
X135363439Y-52303966D01*
X135392714Y-52290120D01*
X135423206Y-52279210D01*
X135454620Y-52271341D01*
X135486654Y-52266589D01*
X135519000Y-52265000D01*
X136509000Y-52265000D01*
X136541346Y-52266589D01*
X136541346Y-52266589D01*
G37*
D13*
X136014000Y-53340000D03*
G04 #@! TD*
D12*
G04 #@! TO.C,C15*
G36*
X131207346Y-52266589D02*
X131239380Y-52271341D01*
X131270794Y-52279210D01*
X131301286Y-52290120D01*
X131330561Y-52303966D01*
X131358338Y-52320615D01*
X131384350Y-52339907D01*
X131408345Y-52361655D01*
X131430093Y-52385650D01*
X131449385Y-52411662D01*
X131466034Y-52439439D01*
X131479880Y-52468714D01*
X131490790Y-52499206D01*
X131498659Y-52530620D01*
X131503411Y-52562654D01*
X131505000Y-52595000D01*
X131505000Y-54085000D01*
X131503411Y-54117346D01*
X131498659Y-54149380D01*
X131490790Y-54180794D01*
X131479880Y-54211286D01*
X131466034Y-54240561D01*
X131449385Y-54268338D01*
X131430093Y-54294350D01*
X131408345Y-54318345D01*
X131384350Y-54340093D01*
X131358338Y-54359385D01*
X131330561Y-54376034D01*
X131301286Y-54389880D01*
X131270794Y-54400790D01*
X131239380Y-54408659D01*
X131207346Y-54413411D01*
X131175000Y-54415000D01*
X130185000Y-54415000D01*
X130152654Y-54413411D01*
X130120620Y-54408659D01*
X130089206Y-54400790D01*
X130058714Y-54389880D01*
X130029439Y-54376034D01*
X130001662Y-54359385D01*
X129975650Y-54340093D01*
X129951655Y-54318345D01*
X129929907Y-54294350D01*
X129910615Y-54268338D01*
X129893966Y-54240561D01*
X129880120Y-54211286D01*
X129869210Y-54180794D01*
X129861341Y-54149380D01*
X129856589Y-54117346D01*
X129855000Y-54085000D01*
X129855000Y-52595000D01*
X129856589Y-52562654D01*
X129861341Y-52530620D01*
X129869210Y-52499206D01*
X129880120Y-52468714D01*
X129893966Y-52439439D01*
X129910615Y-52411662D01*
X129929907Y-52385650D01*
X129951655Y-52361655D01*
X129975650Y-52339907D01*
X130001662Y-52320615D01*
X130029439Y-52303966D01*
X130058714Y-52290120D01*
X130089206Y-52279210D01*
X130120620Y-52271341D01*
X130152654Y-52266589D01*
X130185000Y-52265000D01*
X131175000Y-52265000D01*
X131207346Y-52266589D01*
X131207346Y-52266589D01*
G37*
D13*
X130680000Y-53340000D03*
D12*
G36*
X134007346Y-52266589D02*
X134039380Y-52271341D01*
X134070794Y-52279210D01*
X134101286Y-52290120D01*
X134130561Y-52303966D01*
X134158338Y-52320615D01*
X134184350Y-52339907D01*
X134208345Y-52361655D01*
X134230093Y-52385650D01*
X134249385Y-52411662D01*
X134266034Y-52439439D01*
X134279880Y-52468714D01*
X134290790Y-52499206D01*
X134298659Y-52530620D01*
X134303411Y-52562654D01*
X134305000Y-52595000D01*
X134305000Y-54085000D01*
X134303411Y-54117346D01*
X134298659Y-54149380D01*
X134290790Y-54180794D01*
X134279880Y-54211286D01*
X134266034Y-54240561D01*
X134249385Y-54268338D01*
X134230093Y-54294350D01*
X134208345Y-54318345D01*
X134184350Y-54340093D01*
X134158338Y-54359385D01*
X134130561Y-54376034D01*
X134101286Y-54389880D01*
X134070794Y-54400790D01*
X134039380Y-54408659D01*
X134007346Y-54413411D01*
X133975000Y-54415000D01*
X132985000Y-54415000D01*
X132952654Y-54413411D01*
X132920620Y-54408659D01*
X132889206Y-54400790D01*
X132858714Y-54389880D01*
X132829439Y-54376034D01*
X132801662Y-54359385D01*
X132775650Y-54340093D01*
X132751655Y-54318345D01*
X132729907Y-54294350D01*
X132710615Y-54268338D01*
X132693966Y-54240561D01*
X132680120Y-54211286D01*
X132669210Y-54180794D01*
X132661341Y-54149380D01*
X132656589Y-54117346D01*
X132655000Y-54085000D01*
X132655000Y-52595000D01*
X132656589Y-52562654D01*
X132661341Y-52530620D01*
X132669210Y-52499206D01*
X132680120Y-52468714D01*
X132693966Y-52439439D01*
X132710615Y-52411662D01*
X132729907Y-52385650D01*
X132751655Y-52361655D01*
X132775650Y-52339907D01*
X132801662Y-52320615D01*
X132829439Y-52303966D01*
X132858714Y-52290120D01*
X132889206Y-52279210D01*
X132920620Y-52271341D01*
X132952654Y-52266589D01*
X132985000Y-52265000D01*
X133975000Y-52265000D01*
X134007346Y-52266589D01*
X134007346Y-52266589D01*
G37*
D13*
X133480000Y-53340000D03*
G04 #@! TD*
D12*
G04 #@! TO.C,C16*
G36*
X125873346Y-52266589D02*
X125905380Y-52271341D01*
X125936794Y-52279210D01*
X125967286Y-52290120D01*
X125996561Y-52303966D01*
X126024338Y-52320615D01*
X126050350Y-52339907D01*
X126074345Y-52361655D01*
X126096093Y-52385650D01*
X126115385Y-52411662D01*
X126132034Y-52439439D01*
X126145880Y-52468714D01*
X126156790Y-52499206D01*
X126164659Y-52530620D01*
X126169411Y-52562654D01*
X126171000Y-52595000D01*
X126171000Y-54085000D01*
X126169411Y-54117346D01*
X126164659Y-54149380D01*
X126156790Y-54180794D01*
X126145880Y-54211286D01*
X126132034Y-54240561D01*
X126115385Y-54268338D01*
X126096093Y-54294350D01*
X126074345Y-54318345D01*
X126050350Y-54340093D01*
X126024338Y-54359385D01*
X125996561Y-54376034D01*
X125967286Y-54389880D01*
X125936794Y-54400790D01*
X125905380Y-54408659D01*
X125873346Y-54413411D01*
X125841000Y-54415000D01*
X124851000Y-54415000D01*
X124818654Y-54413411D01*
X124786620Y-54408659D01*
X124755206Y-54400790D01*
X124724714Y-54389880D01*
X124695439Y-54376034D01*
X124667662Y-54359385D01*
X124641650Y-54340093D01*
X124617655Y-54318345D01*
X124595907Y-54294350D01*
X124576615Y-54268338D01*
X124559966Y-54240561D01*
X124546120Y-54211286D01*
X124535210Y-54180794D01*
X124527341Y-54149380D01*
X124522589Y-54117346D01*
X124521000Y-54085000D01*
X124521000Y-52595000D01*
X124522589Y-52562654D01*
X124527341Y-52530620D01*
X124535210Y-52499206D01*
X124546120Y-52468714D01*
X124559966Y-52439439D01*
X124576615Y-52411662D01*
X124595907Y-52385650D01*
X124617655Y-52361655D01*
X124641650Y-52339907D01*
X124667662Y-52320615D01*
X124695439Y-52303966D01*
X124724714Y-52290120D01*
X124755206Y-52279210D01*
X124786620Y-52271341D01*
X124818654Y-52266589D01*
X124851000Y-52265000D01*
X125841000Y-52265000D01*
X125873346Y-52266589D01*
X125873346Y-52266589D01*
G37*
D13*
X125346000Y-53340000D03*
D12*
G36*
X128673346Y-52266589D02*
X128705380Y-52271341D01*
X128736794Y-52279210D01*
X128767286Y-52290120D01*
X128796561Y-52303966D01*
X128824338Y-52320615D01*
X128850350Y-52339907D01*
X128874345Y-52361655D01*
X128896093Y-52385650D01*
X128915385Y-52411662D01*
X128932034Y-52439439D01*
X128945880Y-52468714D01*
X128956790Y-52499206D01*
X128964659Y-52530620D01*
X128969411Y-52562654D01*
X128971000Y-52595000D01*
X128971000Y-54085000D01*
X128969411Y-54117346D01*
X128964659Y-54149380D01*
X128956790Y-54180794D01*
X128945880Y-54211286D01*
X128932034Y-54240561D01*
X128915385Y-54268338D01*
X128896093Y-54294350D01*
X128874345Y-54318345D01*
X128850350Y-54340093D01*
X128824338Y-54359385D01*
X128796561Y-54376034D01*
X128767286Y-54389880D01*
X128736794Y-54400790D01*
X128705380Y-54408659D01*
X128673346Y-54413411D01*
X128641000Y-54415000D01*
X127651000Y-54415000D01*
X127618654Y-54413411D01*
X127586620Y-54408659D01*
X127555206Y-54400790D01*
X127524714Y-54389880D01*
X127495439Y-54376034D01*
X127467662Y-54359385D01*
X127441650Y-54340093D01*
X127417655Y-54318345D01*
X127395907Y-54294350D01*
X127376615Y-54268338D01*
X127359966Y-54240561D01*
X127346120Y-54211286D01*
X127335210Y-54180794D01*
X127327341Y-54149380D01*
X127322589Y-54117346D01*
X127321000Y-54085000D01*
X127321000Y-52595000D01*
X127322589Y-52562654D01*
X127327341Y-52530620D01*
X127335210Y-52499206D01*
X127346120Y-52468714D01*
X127359966Y-52439439D01*
X127376615Y-52411662D01*
X127395907Y-52385650D01*
X127417655Y-52361655D01*
X127441650Y-52339907D01*
X127467662Y-52320615D01*
X127495439Y-52303966D01*
X127524714Y-52290120D01*
X127555206Y-52279210D01*
X127586620Y-52271341D01*
X127618654Y-52266589D01*
X127651000Y-52265000D01*
X128641000Y-52265000D01*
X128673346Y-52266589D01*
X128673346Y-52266589D01*
G37*
D13*
X128146000Y-53340000D03*
G04 #@! TD*
D12*
G04 #@! TO.C,C17*
G36*
X123339346Y-52266589D02*
X123371380Y-52271341D01*
X123402794Y-52279210D01*
X123433286Y-52290120D01*
X123462561Y-52303966D01*
X123490338Y-52320615D01*
X123516350Y-52339907D01*
X123540345Y-52361655D01*
X123562093Y-52385650D01*
X123581385Y-52411662D01*
X123598034Y-52439439D01*
X123611880Y-52468714D01*
X123622790Y-52499206D01*
X123630659Y-52530620D01*
X123635411Y-52562654D01*
X123637000Y-52595000D01*
X123637000Y-54085000D01*
X123635411Y-54117346D01*
X123630659Y-54149380D01*
X123622790Y-54180794D01*
X123611880Y-54211286D01*
X123598034Y-54240561D01*
X123581385Y-54268338D01*
X123562093Y-54294350D01*
X123540345Y-54318345D01*
X123516350Y-54340093D01*
X123490338Y-54359385D01*
X123462561Y-54376034D01*
X123433286Y-54389880D01*
X123402794Y-54400790D01*
X123371380Y-54408659D01*
X123339346Y-54413411D01*
X123307000Y-54415000D01*
X122317000Y-54415000D01*
X122284654Y-54413411D01*
X122252620Y-54408659D01*
X122221206Y-54400790D01*
X122190714Y-54389880D01*
X122161439Y-54376034D01*
X122133662Y-54359385D01*
X122107650Y-54340093D01*
X122083655Y-54318345D01*
X122061907Y-54294350D01*
X122042615Y-54268338D01*
X122025966Y-54240561D01*
X122012120Y-54211286D01*
X122001210Y-54180794D01*
X121993341Y-54149380D01*
X121988589Y-54117346D01*
X121987000Y-54085000D01*
X121987000Y-52595000D01*
X121988589Y-52562654D01*
X121993341Y-52530620D01*
X122001210Y-52499206D01*
X122012120Y-52468714D01*
X122025966Y-52439439D01*
X122042615Y-52411662D01*
X122061907Y-52385650D01*
X122083655Y-52361655D01*
X122107650Y-52339907D01*
X122133662Y-52320615D01*
X122161439Y-52303966D01*
X122190714Y-52290120D01*
X122221206Y-52279210D01*
X122252620Y-52271341D01*
X122284654Y-52266589D01*
X122317000Y-52265000D01*
X123307000Y-52265000D01*
X123339346Y-52266589D01*
X123339346Y-52266589D01*
G37*
D13*
X122812000Y-53340000D03*
D12*
G36*
X120539346Y-52266589D02*
X120571380Y-52271341D01*
X120602794Y-52279210D01*
X120633286Y-52290120D01*
X120662561Y-52303966D01*
X120690338Y-52320615D01*
X120716350Y-52339907D01*
X120740345Y-52361655D01*
X120762093Y-52385650D01*
X120781385Y-52411662D01*
X120798034Y-52439439D01*
X120811880Y-52468714D01*
X120822790Y-52499206D01*
X120830659Y-52530620D01*
X120835411Y-52562654D01*
X120837000Y-52595000D01*
X120837000Y-54085000D01*
X120835411Y-54117346D01*
X120830659Y-54149380D01*
X120822790Y-54180794D01*
X120811880Y-54211286D01*
X120798034Y-54240561D01*
X120781385Y-54268338D01*
X120762093Y-54294350D01*
X120740345Y-54318345D01*
X120716350Y-54340093D01*
X120690338Y-54359385D01*
X120662561Y-54376034D01*
X120633286Y-54389880D01*
X120602794Y-54400790D01*
X120571380Y-54408659D01*
X120539346Y-54413411D01*
X120507000Y-54415000D01*
X119517000Y-54415000D01*
X119484654Y-54413411D01*
X119452620Y-54408659D01*
X119421206Y-54400790D01*
X119390714Y-54389880D01*
X119361439Y-54376034D01*
X119333662Y-54359385D01*
X119307650Y-54340093D01*
X119283655Y-54318345D01*
X119261907Y-54294350D01*
X119242615Y-54268338D01*
X119225966Y-54240561D01*
X119212120Y-54211286D01*
X119201210Y-54180794D01*
X119193341Y-54149380D01*
X119188589Y-54117346D01*
X119187000Y-54085000D01*
X119187000Y-52595000D01*
X119188589Y-52562654D01*
X119193341Y-52530620D01*
X119201210Y-52499206D01*
X119212120Y-52468714D01*
X119225966Y-52439439D01*
X119242615Y-52411662D01*
X119261907Y-52385650D01*
X119283655Y-52361655D01*
X119307650Y-52339907D01*
X119333662Y-52320615D01*
X119361439Y-52303966D01*
X119390714Y-52290120D01*
X119421206Y-52279210D01*
X119452620Y-52271341D01*
X119484654Y-52266589D01*
X119517000Y-52265000D01*
X120507000Y-52265000D01*
X120539346Y-52266589D01*
X120539346Y-52266589D01*
G37*
D13*
X120012000Y-53340000D03*
G04 #@! TD*
D12*
G04 #@! TO.C,C18*
G36*
X114061346Y-101541589D02*
X114093380Y-101546341D01*
X114124794Y-101554210D01*
X114155286Y-101565120D01*
X114184561Y-101578966D01*
X114212338Y-101595615D01*
X114238350Y-101614907D01*
X114262345Y-101636655D01*
X114284093Y-101660650D01*
X114303385Y-101686662D01*
X114320034Y-101714439D01*
X114333880Y-101743714D01*
X114344790Y-101774206D01*
X114352659Y-101805620D01*
X114357411Y-101837654D01*
X114359000Y-101870000D01*
X114359000Y-102860000D01*
X114357411Y-102892346D01*
X114352659Y-102924380D01*
X114344790Y-102955794D01*
X114333880Y-102986286D01*
X114320034Y-103015561D01*
X114303385Y-103043338D01*
X114284093Y-103069350D01*
X114262345Y-103093345D01*
X114238350Y-103115093D01*
X114212338Y-103134385D01*
X114184561Y-103151034D01*
X114155286Y-103164880D01*
X114124794Y-103175790D01*
X114093380Y-103183659D01*
X114061346Y-103188411D01*
X114029000Y-103190000D01*
X112539000Y-103190000D01*
X112506654Y-103188411D01*
X112474620Y-103183659D01*
X112443206Y-103175790D01*
X112412714Y-103164880D01*
X112383439Y-103151034D01*
X112355662Y-103134385D01*
X112329650Y-103115093D01*
X112305655Y-103093345D01*
X112283907Y-103069350D01*
X112264615Y-103043338D01*
X112247966Y-103015561D01*
X112234120Y-102986286D01*
X112223210Y-102955794D01*
X112215341Y-102924380D01*
X112210589Y-102892346D01*
X112209000Y-102860000D01*
X112209000Y-101870000D01*
X112210589Y-101837654D01*
X112215341Y-101805620D01*
X112223210Y-101774206D01*
X112234120Y-101743714D01*
X112247966Y-101714439D01*
X112264615Y-101686662D01*
X112283907Y-101660650D01*
X112305655Y-101636655D01*
X112329650Y-101614907D01*
X112355662Y-101595615D01*
X112383439Y-101578966D01*
X112412714Y-101565120D01*
X112443206Y-101554210D01*
X112474620Y-101546341D01*
X112506654Y-101541589D01*
X112539000Y-101540000D01*
X114029000Y-101540000D01*
X114061346Y-101541589D01*
X114061346Y-101541589D01*
G37*
D13*
X113284000Y-102365000D03*
D12*
G36*
X114061346Y-98741589D02*
X114093380Y-98746341D01*
X114124794Y-98754210D01*
X114155286Y-98765120D01*
X114184561Y-98778966D01*
X114212338Y-98795615D01*
X114238350Y-98814907D01*
X114262345Y-98836655D01*
X114284093Y-98860650D01*
X114303385Y-98886662D01*
X114320034Y-98914439D01*
X114333880Y-98943714D01*
X114344790Y-98974206D01*
X114352659Y-99005620D01*
X114357411Y-99037654D01*
X114359000Y-99070000D01*
X114359000Y-100060000D01*
X114357411Y-100092346D01*
X114352659Y-100124380D01*
X114344790Y-100155794D01*
X114333880Y-100186286D01*
X114320034Y-100215561D01*
X114303385Y-100243338D01*
X114284093Y-100269350D01*
X114262345Y-100293345D01*
X114238350Y-100315093D01*
X114212338Y-100334385D01*
X114184561Y-100351034D01*
X114155286Y-100364880D01*
X114124794Y-100375790D01*
X114093380Y-100383659D01*
X114061346Y-100388411D01*
X114029000Y-100390000D01*
X112539000Y-100390000D01*
X112506654Y-100388411D01*
X112474620Y-100383659D01*
X112443206Y-100375790D01*
X112412714Y-100364880D01*
X112383439Y-100351034D01*
X112355662Y-100334385D01*
X112329650Y-100315093D01*
X112305655Y-100293345D01*
X112283907Y-100269350D01*
X112264615Y-100243338D01*
X112247966Y-100215561D01*
X112234120Y-100186286D01*
X112223210Y-100155794D01*
X112215341Y-100124380D01*
X112210589Y-100092346D01*
X112209000Y-100060000D01*
X112209000Y-99070000D01*
X112210589Y-99037654D01*
X112215341Y-99005620D01*
X112223210Y-98974206D01*
X112234120Y-98943714D01*
X112247966Y-98914439D01*
X112264615Y-98886662D01*
X112283907Y-98860650D01*
X112305655Y-98836655D01*
X112329650Y-98814907D01*
X112355662Y-98795615D01*
X112383439Y-98778966D01*
X112412714Y-98765120D01*
X112443206Y-98754210D01*
X112474620Y-98746341D01*
X112506654Y-98741589D01*
X112539000Y-98740000D01*
X114029000Y-98740000D01*
X114061346Y-98741589D01*
X114061346Y-98741589D01*
G37*
D13*
X113284000Y-99565000D03*
G04 #@! TD*
D14*
G04 #@! TO.C,J2*
X138684000Y-88646000D03*
D15*
X141224000Y-88646000D03*
X138684000Y-91186000D03*
X141224000Y-91186000D03*
X138684000Y-93726000D03*
X141224000Y-93726000D03*
X138684000Y-96266000D03*
X141224000Y-96266000D03*
X138684000Y-98806000D03*
X141224000Y-98806000D03*
G04 #@! TD*
D11*
G04 #@! TO.C,J3*
X134620000Y-114300000D03*
D10*
X134620000Y-116840000D03*
X132080000Y-114300000D03*
X132080000Y-116840000D03*
X129540000Y-114300000D03*
X129540000Y-116840000D03*
X127000000Y-114300000D03*
X127000000Y-116840000D03*
X124460000Y-114300000D03*
X124460000Y-116840000D03*
X121920000Y-114300000D03*
X121920000Y-116840000D03*
X119380000Y-114300000D03*
X119380000Y-116840000D03*
X116840000Y-114300000D03*
X116840000Y-116840000D03*
G04 #@! TD*
D11*
G04 #@! TO.C,J4*
X128143000Y-89281000D03*
D10*
X125603000Y-89281000D03*
X123063000Y-89281000D03*
X120523000Y-89281000D03*
X117983000Y-89281000D03*
X115443000Y-89281000D03*
X112903000Y-89281000D03*
X110363000Y-89281000D03*
G04 #@! TD*
G04 #@! TO.C,J5*
X106680000Y-85725000D03*
X106680000Y-88265000D03*
X106680000Y-90805000D03*
X106680000Y-93345000D03*
X106680000Y-95885000D03*
X106680000Y-98425000D03*
X106680000Y-100965000D03*
D11*
X106680000Y-103505000D03*
G04 #@! TD*
D16*
G04 #@! TO.C,Q1*
X110556000Y-117459000D03*
X112456000Y-117459000D03*
X111506000Y-115459000D03*
G04 #@! TD*
D12*
G04 #@! TO.C,R1*
G36*
X119269346Y-98494589D02*
X119301380Y-98499341D01*
X119332794Y-98507210D01*
X119363286Y-98518120D01*
X119392561Y-98531966D01*
X119420338Y-98548615D01*
X119446350Y-98567907D01*
X119470345Y-98589655D01*
X119492093Y-98613650D01*
X119511385Y-98639662D01*
X119528034Y-98667439D01*
X119541880Y-98696714D01*
X119552790Y-98727206D01*
X119560659Y-98758620D01*
X119565411Y-98790654D01*
X119567000Y-98823000D01*
X119567000Y-100313000D01*
X119565411Y-100345346D01*
X119560659Y-100377380D01*
X119552790Y-100408794D01*
X119541880Y-100439286D01*
X119528034Y-100468561D01*
X119511385Y-100496338D01*
X119492093Y-100522350D01*
X119470345Y-100546345D01*
X119446350Y-100568093D01*
X119420338Y-100587385D01*
X119392561Y-100604034D01*
X119363286Y-100617880D01*
X119332794Y-100628790D01*
X119301380Y-100636659D01*
X119269346Y-100641411D01*
X119237000Y-100643000D01*
X118247000Y-100643000D01*
X118214654Y-100641411D01*
X118182620Y-100636659D01*
X118151206Y-100628790D01*
X118120714Y-100617880D01*
X118091439Y-100604034D01*
X118063662Y-100587385D01*
X118037650Y-100568093D01*
X118013655Y-100546345D01*
X117991907Y-100522350D01*
X117972615Y-100496338D01*
X117955966Y-100468561D01*
X117942120Y-100439286D01*
X117931210Y-100408794D01*
X117923341Y-100377380D01*
X117918589Y-100345346D01*
X117917000Y-100313000D01*
X117917000Y-98823000D01*
X117918589Y-98790654D01*
X117923341Y-98758620D01*
X117931210Y-98727206D01*
X117942120Y-98696714D01*
X117955966Y-98667439D01*
X117972615Y-98639662D01*
X117991907Y-98613650D01*
X118013655Y-98589655D01*
X118037650Y-98567907D01*
X118063662Y-98548615D01*
X118091439Y-98531966D01*
X118120714Y-98518120D01*
X118151206Y-98507210D01*
X118182620Y-98499341D01*
X118214654Y-98494589D01*
X118247000Y-98493000D01*
X119237000Y-98493000D01*
X119269346Y-98494589D01*
X119269346Y-98494589D01*
G37*
D13*
X118742000Y-99568000D03*
D12*
G36*
X122069346Y-98494589D02*
X122101380Y-98499341D01*
X122132794Y-98507210D01*
X122163286Y-98518120D01*
X122192561Y-98531966D01*
X122220338Y-98548615D01*
X122246350Y-98567907D01*
X122270345Y-98589655D01*
X122292093Y-98613650D01*
X122311385Y-98639662D01*
X122328034Y-98667439D01*
X122341880Y-98696714D01*
X122352790Y-98727206D01*
X122360659Y-98758620D01*
X122365411Y-98790654D01*
X122367000Y-98823000D01*
X122367000Y-100313000D01*
X122365411Y-100345346D01*
X122360659Y-100377380D01*
X122352790Y-100408794D01*
X122341880Y-100439286D01*
X122328034Y-100468561D01*
X122311385Y-100496338D01*
X122292093Y-100522350D01*
X122270345Y-100546345D01*
X122246350Y-100568093D01*
X122220338Y-100587385D01*
X122192561Y-100604034D01*
X122163286Y-100617880D01*
X122132794Y-100628790D01*
X122101380Y-100636659D01*
X122069346Y-100641411D01*
X122037000Y-100643000D01*
X121047000Y-100643000D01*
X121014654Y-100641411D01*
X120982620Y-100636659D01*
X120951206Y-100628790D01*
X120920714Y-100617880D01*
X120891439Y-100604034D01*
X120863662Y-100587385D01*
X120837650Y-100568093D01*
X120813655Y-100546345D01*
X120791907Y-100522350D01*
X120772615Y-100496338D01*
X120755966Y-100468561D01*
X120742120Y-100439286D01*
X120731210Y-100408794D01*
X120723341Y-100377380D01*
X120718589Y-100345346D01*
X120717000Y-100313000D01*
X120717000Y-98823000D01*
X120718589Y-98790654D01*
X120723341Y-98758620D01*
X120731210Y-98727206D01*
X120742120Y-98696714D01*
X120755966Y-98667439D01*
X120772615Y-98639662D01*
X120791907Y-98613650D01*
X120813655Y-98589655D01*
X120837650Y-98567907D01*
X120863662Y-98548615D01*
X120891439Y-98531966D01*
X120920714Y-98518120D01*
X120951206Y-98507210D01*
X120982620Y-98499341D01*
X121014654Y-98494589D01*
X121047000Y-98493000D01*
X122037000Y-98493000D01*
X122069346Y-98494589D01*
X122069346Y-98494589D01*
G37*
D13*
X121542000Y-99568000D03*
G04 #@! TD*
D12*
G04 #@! TO.C,R2*
G36*
X133239346Y-61664589D02*
X133271380Y-61669341D01*
X133302794Y-61677210D01*
X133333286Y-61688120D01*
X133362561Y-61701966D01*
X133390338Y-61718615D01*
X133416350Y-61737907D01*
X133440345Y-61759655D01*
X133462093Y-61783650D01*
X133481385Y-61809662D01*
X133498034Y-61837439D01*
X133511880Y-61866714D01*
X133522790Y-61897206D01*
X133530659Y-61928620D01*
X133535411Y-61960654D01*
X133537000Y-61993000D01*
X133537000Y-63483000D01*
X133535411Y-63515346D01*
X133530659Y-63547380D01*
X133522790Y-63578794D01*
X133511880Y-63609286D01*
X133498034Y-63638561D01*
X133481385Y-63666338D01*
X133462093Y-63692350D01*
X133440345Y-63716345D01*
X133416350Y-63738093D01*
X133390338Y-63757385D01*
X133362561Y-63774034D01*
X133333286Y-63787880D01*
X133302794Y-63798790D01*
X133271380Y-63806659D01*
X133239346Y-63811411D01*
X133207000Y-63813000D01*
X132217000Y-63813000D01*
X132184654Y-63811411D01*
X132152620Y-63806659D01*
X132121206Y-63798790D01*
X132090714Y-63787880D01*
X132061439Y-63774034D01*
X132033662Y-63757385D01*
X132007650Y-63738093D01*
X131983655Y-63716345D01*
X131961907Y-63692350D01*
X131942615Y-63666338D01*
X131925966Y-63638561D01*
X131912120Y-63609286D01*
X131901210Y-63578794D01*
X131893341Y-63547380D01*
X131888589Y-63515346D01*
X131887000Y-63483000D01*
X131887000Y-61993000D01*
X131888589Y-61960654D01*
X131893341Y-61928620D01*
X131901210Y-61897206D01*
X131912120Y-61866714D01*
X131925966Y-61837439D01*
X131942615Y-61809662D01*
X131961907Y-61783650D01*
X131983655Y-61759655D01*
X132007650Y-61737907D01*
X132033662Y-61718615D01*
X132061439Y-61701966D01*
X132090714Y-61688120D01*
X132121206Y-61677210D01*
X132152620Y-61669341D01*
X132184654Y-61664589D01*
X132217000Y-61663000D01*
X133207000Y-61663000D01*
X133239346Y-61664589D01*
X133239346Y-61664589D01*
G37*
D13*
X132712000Y-62738000D03*
D12*
G36*
X136039346Y-61664589D02*
X136071380Y-61669341D01*
X136102794Y-61677210D01*
X136133286Y-61688120D01*
X136162561Y-61701966D01*
X136190338Y-61718615D01*
X136216350Y-61737907D01*
X136240345Y-61759655D01*
X136262093Y-61783650D01*
X136281385Y-61809662D01*
X136298034Y-61837439D01*
X136311880Y-61866714D01*
X136322790Y-61897206D01*
X136330659Y-61928620D01*
X136335411Y-61960654D01*
X136337000Y-61993000D01*
X136337000Y-63483000D01*
X136335411Y-63515346D01*
X136330659Y-63547380D01*
X136322790Y-63578794D01*
X136311880Y-63609286D01*
X136298034Y-63638561D01*
X136281385Y-63666338D01*
X136262093Y-63692350D01*
X136240345Y-63716345D01*
X136216350Y-63738093D01*
X136190338Y-63757385D01*
X136162561Y-63774034D01*
X136133286Y-63787880D01*
X136102794Y-63798790D01*
X136071380Y-63806659D01*
X136039346Y-63811411D01*
X136007000Y-63813000D01*
X135017000Y-63813000D01*
X134984654Y-63811411D01*
X134952620Y-63806659D01*
X134921206Y-63798790D01*
X134890714Y-63787880D01*
X134861439Y-63774034D01*
X134833662Y-63757385D01*
X134807650Y-63738093D01*
X134783655Y-63716345D01*
X134761907Y-63692350D01*
X134742615Y-63666338D01*
X134725966Y-63638561D01*
X134712120Y-63609286D01*
X134701210Y-63578794D01*
X134693341Y-63547380D01*
X134688589Y-63515346D01*
X134687000Y-63483000D01*
X134687000Y-61993000D01*
X134688589Y-61960654D01*
X134693341Y-61928620D01*
X134701210Y-61897206D01*
X134712120Y-61866714D01*
X134725966Y-61837439D01*
X134742615Y-61809662D01*
X134761907Y-61783650D01*
X134783655Y-61759655D01*
X134807650Y-61737907D01*
X134833662Y-61718615D01*
X134861439Y-61701966D01*
X134890714Y-61688120D01*
X134921206Y-61677210D01*
X134952620Y-61669341D01*
X134984654Y-61664589D01*
X135017000Y-61663000D01*
X136007000Y-61663000D01*
X136039346Y-61664589D01*
X136039346Y-61664589D01*
G37*
D13*
X135512000Y-62738000D03*
G04 #@! TD*
D12*
G04 #@! TO.C,R4*
G36*
X110633346Y-107003589D02*
X110665380Y-107008341D01*
X110696794Y-107016210D01*
X110727286Y-107027120D01*
X110756561Y-107040966D01*
X110784338Y-107057615D01*
X110810350Y-107076907D01*
X110834345Y-107098655D01*
X110856093Y-107122650D01*
X110875385Y-107148662D01*
X110892034Y-107176439D01*
X110905880Y-107205714D01*
X110916790Y-107236206D01*
X110924659Y-107267620D01*
X110929411Y-107299654D01*
X110931000Y-107332000D01*
X110931000Y-108822000D01*
X110929411Y-108854346D01*
X110924659Y-108886380D01*
X110916790Y-108917794D01*
X110905880Y-108948286D01*
X110892034Y-108977561D01*
X110875385Y-109005338D01*
X110856093Y-109031350D01*
X110834345Y-109055345D01*
X110810350Y-109077093D01*
X110784338Y-109096385D01*
X110756561Y-109113034D01*
X110727286Y-109126880D01*
X110696794Y-109137790D01*
X110665380Y-109145659D01*
X110633346Y-109150411D01*
X110601000Y-109152000D01*
X109611000Y-109152000D01*
X109578654Y-109150411D01*
X109546620Y-109145659D01*
X109515206Y-109137790D01*
X109484714Y-109126880D01*
X109455439Y-109113034D01*
X109427662Y-109096385D01*
X109401650Y-109077093D01*
X109377655Y-109055345D01*
X109355907Y-109031350D01*
X109336615Y-109005338D01*
X109319966Y-108977561D01*
X109306120Y-108948286D01*
X109295210Y-108917794D01*
X109287341Y-108886380D01*
X109282589Y-108854346D01*
X109281000Y-108822000D01*
X109281000Y-107332000D01*
X109282589Y-107299654D01*
X109287341Y-107267620D01*
X109295210Y-107236206D01*
X109306120Y-107205714D01*
X109319966Y-107176439D01*
X109336615Y-107148662D01*
X109355907Y-107122650D01*
X109377655Y-107098655D01*
X109401650Y-107076907D01*
X109427662Y-107057615D01*
X109455439Y-107040966D01*
X109484714Y-107027120D01*
X109515206Y-107016210D01*
X109546620Y-107008341D01*
X109578654Y-107003589D01*
X109611000Y-107002000D01*
X110601000Y-107002000D01*
X110633346Y-107003589D01*
X110633346Y-107003589D01*
G37*
D13*
X110106000Y-108077000D03*
D12*
G36*
X113433346Y-107003589D02*
X113465380Y-107008341D01*
X113496794Y-107016210D01*
X113527286Y-107027120D01*
X113556561Y-107040966D01*
X113584338Y-107057615D01*
X113610350Y-107076907D01*
X113634345Y-107098655D01*
X113656093Y-107122650D01*
X113675385Y-107148662D01*
X113692034Y-107176439D01*
X113705880Y-107205714D01*
X113716790Y-107236206D01*
X113724659Y-107267620D01*
X113729411Y-107299654D01*
X113731000Y-107332000D01*
X113731000Y-108822000D01*
X113729411Y-108854346D01*
X113724659Y-108886380D01*
X113716790Y-108917794D01*
X113705880Y-108948286D01*
X113692034Y-108977561D01*
X113675385Y-109005338D01*
X113656093Y-109031350D01*
X113634345Y-109055345D01*
X113610350Y-109077093D01*
X113584338Y-109096385D01*
X113556561Y-109113034D01*
X113527286Y-109126880D01*
X113496794Y-109137790D01*
X113465380Y-109145659D01*
X113433346Y-109150411D01*
X113401000Y-109152000D01*
X112411000Y-109152000D01*
X112378654Y-109150411D01*
X112346620Y-109145659D01*
X112315206Y-109137790D01*
X112284714Y-109126880D01*
X112255439Y-109113034D01*
X112227662Y-109096385D01*
X112201650Y-109077093D01*
X112177655Y-109055345D01*
X112155907Y-109031350D01*
X112136615Y-109005338D01*
X112119966Y-108977561D01*
X112106120Y-108948286D01*
X112095210Y-108917794D01*
X112087341Y-108886380D01*
X112082589Y-108854346D01*
X112081000Y-108822000D01*
X112081000Y-107332000D01*
X112082589Y-107299654D01*
X112087341Y-107267620D01*
X112095210Y-107236206D01*
X112106120Y-107205714D01*
X112119966Y-107176439D01*
X112136615Y-107148662D01*
X112155907Y-107122650D01*
X112177655Y-107098655D01*
X112201650Y-107076907D01*
X112227662Y-107057615D01*
X112255439Y-107040966D01*
X112284714Y-107027120D01*
X112315206Y-107016210D01*
X112346620Y-107008341D01*
X112378654Y-107003589D01*
X112411000Y-107002000D01*
X113401000Y-107002000D01*
X113433346Y-107003589D01*
X113433346Y-107003589D01*
G37*
D13*
X112906000Y-108077000D03*
G04 #@! TD*
D12*
G04 #@! TO.C,R5*
G36*
X133365346Y-75246589D02*
X133397380Y-75251341D01*
X133428794Y-75259210D01*
X133459286Y-75270120D01*
X133488561Y-75283966D01*
X133516338Y-75300615D01*
X133542350Y-75319907D01*
X133566345Y-75341655D01*
X133588093Y-75365650D01*
X133607385Y-75391662D01*
X133624034Y-75419439D01*
X133637880Y-75448714D01*
X133648790Y-75479206D01*
X133656659Y-75510620D01*
X133661411Y-75542654D01*
X133663000Y-75575000D01*
X133663000Y-76565000D01*
X133661411Y-76597346D01*
X133656659Y-76629380D01*
X133648790Y-76660794D01*
X133637880Y-76691286D01*
X133624034Y-76720561D01*
X133607385Y-76748338D01*
X133588093Y-76774350D01*
X133566345Y-76798345D01*
X133542350Y-76820093D01*
X133516338Y-76839385D01*
X133488561Y-76856034D01*
X133459286Y-76869880D01*
X133428794Y-76880790D01*
X133397380Y-76888659D01*
X133365346Y-76893411D01*
X133333000Y-76895000D01*
X131843000Y-76895000D01*
X131810654Y-76893411D01*
X131778620Y-76888659D01*
X131747206Y-76880790D01*
X131716714Y-76869880D01*
X131687439Y-76856034D01*
X131659662Y-76839385D01*
X131633650Y-76820093D01*
X131609655Y-76798345D01*
X131587907Y-76774350D01*
X131568615Y-76748338D01*
X131551966Y-76720561D01*
X131538120Y-76691286D01*
X131527210Y-76660794D01*
X131519341Y-76629380D01*
X131514589Y-76597346D01*
X131513000Y-76565000D01*
X131513000Y-75575000D01*
X131514589Y-75542654D01*
X131519341Y-75510620D01*
X131527210Y-75479206D01*
X131538120Y-75448714D01*
X131551966Y-75419439D01*
X131568615Y-75391662D01*
X131587907Y-75365650D01*
X131609655Y-75341655D01*
X131633650Y-75319907D01*
X131659662Y-75300615D01*
X131687439Y-75283966D01*
X131716714Y-75270120D01*
X131747206Y-75259210D01*
X131778620Y-75251341D01*
X131810654Y-75246589D01*
X131843000Y-75245000D01*
X133333000Y-75245000D01*
X133365346Y-75246589D01*
X133365346Y-75246589D01*
G37*
D13*
X132588000Y-76070000D03*
D12*
G36*
X133365346Y-78046589D02*
X133397380Y-78051341D01*
X133428794Y-78059210D01*
X133459286Y-78070120D01*
X133488561Y-78083966D01*
X133516338Y-78100615D01*
X133542350Y-78119907D01*
X133566345Y-78141655D01*
X133588093Y-78165650D01*
X133607385Y-78191662D01*
X133624034Y-78219439D01*
X133637880Y-78248714D01*
X133648790Y-78279206D01*
X133656659Y-78310620D01*
X133661411Y-78342654D01*
X133663000Y-78375000D01*
X133663000Y-79365000D01*
X133661411Y-79397346D01*
X133656659Y-79429380D01*
X133648790Y-79460794D01*
X133637880Y-79491286D01*
X133624034Y-79520561D01*
X133607385Y-79548338D01*
X133588093Y-79574350D01*
X133566345Y-79598345D01*
X133542350Y-79620093D01*
X133516338Y-79639385D01*
X133488561Y-79656034D01*
X133459286Y-79669880D01*
X133428794Y-79680790D01*
X133397380Y-79688659D01*
X133365346Y-79693411D01*
X133333000Y-79695000D01*
X131843000Y-79695000D01*
X131810654Y-79693411D01*
X131778620Y-79688659D01*
X131747206Y-79680790D01*
X131716714Y-79669880D01*
X131687439Y-79656034D01*
X131659662Y-79639385D01*
X131633650Y-79620093D01*
X131609655Y-79598345D01*
X131587907Y-79574350D01*
X131568615Y-79548338D01*
X131551966Y-79520561D01*
X131538120Y-79491286D01*
X131527210Y-79460794D01*
X131519341Y-79429380D01*
X131514589Y-79397346D01*
X131513000Y-79365000D01*
X131513000Y-78375000D01*
X131514589Y-78342654D01*
X131519341Y-78310620D01*
X131527210Y-78279206D01*
X131538120Y-78248714D01*
X131551966Y-78219439D01*
X131568615Y-78191662D01*
X131587907Y-78165650D01*
X131609655Y-78141655D01*
X131633650Y-78119907D01*
X131659662Y-78100615D01*
X131687439Y-78083966D01*
X131716714Y-78070120D01*
X131747206Y-78059210D01*
X131778620Y-78051341D01*
X131810654Y-78046589D01*
X131843000Y-78045000D01*
X133333000Y-78045000D01*
X133365346Y-78046589D01*
X133365346Y-78046589D01*
G37*
D13*
X132588000Y-78870000D03*
G04 #@! TD*
D12*
G04 #@! TO.C,R6*
G36*
X113433346Y-109543589D02*
X113465380Y-109548341D01*
X113496794Y-109556210D01*
X113527286Y-109567120D01*
X113556561Y-109580966D01*
X113584338Y-109597615D01*
X113610350Y-109616907D01*
X113634345Y-109638655D01*
X113656093Y-109662650D01*
X113675385Y-109688662D01*
X113692034Y-109716439D01*
X113705880Y-109745714D01*
X113716790Y-109776206D01*
X113724659Y-109807620D01*
X113729411Y-109839654D01*
X113731000Y-109872000D01*
X113731000Y-111362000D01*
X113729411Y-111394346D01*
X113724659Y-111426380D01*
X113716790Y-111457794D01*
X113705880Y-111488286D01*
X113692034Y-111517561D01*
X113675385Y-111545338D01*
X113656093Y-111571350D01*
X113634345Y-111595345D01*
X113610350Y-111617093D01*
X113584338Y-111636385D01*
X113556561Y-111653034D01*
X113527286Y-111666880D01*
X113496794Y-111677790D01*
X113465380Y-111685659D01*
X113433346Y-111690411D01*
X113401000Y-111692000D01*
X112411000Y-111692000D01*
X112378654Y-111690411D01*
X112346620Y-111685659D01*
X112315206Y-111677790D01*
X112284714Y-111666880D01*
X112255439Y-111653034D01*
X112227662Y-111636385D01*
X112201650Y-111617093D01*
X112177655Y-111595345D01*
X112155907Y-111571350D01*
X112136615Y-111545338D01*
X112119966Y-111517561D01*
X112106120Y-111488286D01*
X112095210Y-111457794D01*
X112087341Y-111426380D01*
X112082589Y-111394346D01*
X112081000Y-111362000D01*
X112081000Y-109872000D01*
X112082589Y-109839654D01*
X112087341Y-109807620D01*
X112095210Y-109776206D01*
X112106120Y-109745714D01*
X112119966Y-109716439D01*
X112136615Y-109688662D01*
X112155907Y-109662650D01*
X112177655Y-109638655D01*
X112201650Y-109616907D01*
X112227662Y-109597615D01*
X112255439Y-109580966D01*
X112284714Y-109567120D01*
X112315206Y-109556210D01*
X112346620Y-109548341D01*
X112378654Y-109543589D01*
X112411000Y-109542000D01*
X113401000Y-109542000D01*
X113433346Y-109543589D01*
X113433346Y-109543589D01*
G37*
D13*
X112906000Y-110617000D03*
D12*
G36*
X110633346Y-109543589D02*
X110665380Y-109548341D01*
X110696794Y-109556210D01*
X110727286Y-109567120D01*
X110756561Y-109580966D01*
X110784338Y-109597615D01*
X110810350Y-109616907D01*
X110834345Y-109638655D01*
X110856093Y-109662650D01*
X110875385Y-109688662D01*
X110892034Y-109716439D01*
X110905880Y-109745714D01*
X110916790Y-109776206D01*
X110924659Y-109807620D01*
X110929411Y-109839654D01*
X110931000Y-109872000D01*
X110931000Y-111362000D01*
X110929411Y-111394346D01*
X110924659Y-111426380D01*
X110916790Y-111457794D01*
X110905880Y-111488286D01*
X110892034Y-111517561D01*
X110875385Y-111545338D01*
X110856093Y-111571350D01*
X110834345Y-111595345D01*
X110810350Y-111617093D01*
X110784338Y-111636385D01*
X110756561Y-111653034D01*
X110727286Y-111666880D01*
X110696794Y-111677790D01*
X110665380Y-111685659D01*
X110633346Y-111690411D01*
X110601000Y-111692000D01*
X109611000Y-111692000D01*
X109578654Y-111690411D01*
X109546620Y-111685659D01*
X109515206Y-111677790D01*
X109484714Y-111666880D01*
X109455439Y-111653034D01*
X109427662Y-111636385D01*
X109401650Y-111617093D01*
X109377655Y-111595345D01*
X109355907Y-111571350D01*
X109336615Y-111545338D01*
X109319966Y-111517561D01*
X109306120Y-111488286D01*
X109295210Y-111457794D01*
X109287341Y-111426380D01*
X109282589Y-111394346D01*
X109281000Y-111362000D01*
X109281000Y-109872000D01*
X109282589Y-109839654D01*
X109287341Y-109807620D01*
X109295210Y-109776206D01*
X109306120Y-109745714D01*
X109319966Y-109716439D01*
X109336615Y-109688662D01*
X109355907Y-109662650D01*
X109377655Y-109638655D01*
X109401650Y-109616907D01*
X109427662Y-109597615D01*
X109455439Y-109580966D01*
X109484714Y-109567120D01*
X109515206Y-109556210D01*
X109546620Y-109548341D01*
X109578654Y-109543589D01*
X109611000Y-109542000D01*
X110601000Y-109542000D01*
X110633346Y-109543589D01*
X110633346Y-109543589D01*
G37*
D13*
X110106000Y-110617000D03*
G04 #@! TD*
D12*
G04 #@! TO.C,R10*
G36*
X128159346Y-98494589D02*
X128191380Y-98499341D01*
X128222794Y-98507210D01*
X128253286Y-98518120D01*
X128282561Y-98531966D01*
X128310338Y-98548615D01*
X128336350Y-98567907D01*
X128360345Y-98589655D01*
X128382093Y-98613650D01*
X128401385Y-98639662D01*
X128418034Y-98667439D01*
X128431880Y-98696714D01*
X128442790Y-98727206D01*
X128450659Y-98758620D01*
X128455411Y-98790654D01*
X128457000Y-98823000D01*
X128457000Y-100313000D01*
X128455411Y-100345346D01*
X128450659Y-100377380D01*
X128442790Y-100408794D01*
X128431880Y-100439286D01*
X128418034Y-100468561D01*
X128401385Y-100496338D01*
X128382093Y-100522350D01*
X128360345Y-100546345D01*
X128336350Y-100568093D01*
X128310338Y-100587385D01*
X128282561Y-100604034D01*
X128253286Y-100617880D01*
X128222794Y-100628790D01*
X128191380Y-100636659D01*
X128159346Y-100641411D01*
X128127000Y-100643000D01*
X127137000Y-100643000D01*
X127104654Y-100641411D01*
X127072620Y-100636659D01*
X127041206Y-100628790D01*
X127010714Y-100617880D01*
X126981439Y-100604034D01*
X126953662Y-100587385D01*
X126927650Y-100568093D01*
X126903655Y-100546345D01*
X126881907Y-100522350D01*
X126862615Y-100496338D01*
X126845966Y-100468561D01*
X126832120Y-100439286D01*
X126821210Y-100408794D01*
X126813341Y-100377380D01*
X126808589Y-100345346D01*
X126807000Y-100313000D01*
X126807000Y-98823000D01*
X126808589Y-98790654D01*
X126813341Y-98758620D01*
X126821210Y-98727206D01*
X126832120Y-98696714D01*
X126845966Y-98667439D01*
X126862615Y-98639662D01*
X126881907Y-98613650D01*
X126903655Y-98589655D01*
X126927650Y-98567907D01*
X126953662Y-98548615D01*
X126981439Y-98531966D01*
X127010714Y-98518120D01*
X127041206Y-98507210D01*
X127072620Y-98499341D01*
X127104654Y-98494589D01*
X127137000Y-98493000D01*
X128127000Y-98493000D01*
X128159346Y-98494589D01*
X128159346Y-98494589D01*
G37*
D13*
X127632000Y-99568000D03*
D12*
G36*
X130959346Y-98494589D02*
X130991380Y-98499341D01*
X131022794Y-98507210D01*
X131053286Y-98518120D01*
X131082561Y-98531966D01*
X131110338Y-98548615D01*
X131136350Y-98567907D01*
X131160345Y-98589655D01*
X131182093Y-98613650D01*
X131201385Y-98639662D01*
X131218034Y-98667439D01*
X131231880Y-98696714D01*
X131242790Y-98727206D01*
X131250659Y-98758620D01*
X131255411Y-98790654D01*
X131257000Y-98823000D01*
X131257000Y-100313000D01*
X131255411Y-100345346D01*
X131250659Y-100377380D01*
X131242790Y-100408794D01*
X131231880Y-100439286D01*
X131218034Y-100468561D01*
X131201385Y-100496338D01*
X131182093Y-100522350D01*
X131160345Y-100546345D01*
X131136350Y-100568093D01*
X131110338Y-100587385D01*
X131082561Y-100604034D01*
X131053286Y-100617880D01*
X131022794Y-100628790D01*
X130991380Y-100636659D01*
X130959346Y-100641411D01*
X130927000Y-100643000D01*
X129937000Y-100643000D01*
X129904654Y-100641411D01*
X129872620Y-100636659D01*
X129841206Y-100628790D01*
X129810714Y-100617880D01*
X129781439Y-100604034D01*
X129753662Y-100587385D01*
X129727650Y-100568093D01*
X129703655Y-100546345D01*
X129681907Y-100522350D01*
X129662615Y-100496338D01*
X129645966Y-100468561D01*
X129632120Y-100439286D01*
X129621210Y-100408794D01*
X129613341Y-100377380D01*
X129608589Y-100345346D01*
X129607000Y-100313000D01*
X129607000Y-98823000D01*
X129608589Y-98790654D01*
X129613341Y-98758620D01*
X129621210Y-98727206D01*
X129632120Y-98696714D01*
X129645966Y-98667439D01*
X129662615Y-98639662D01*
X129681907Y-98613650D01*
X129703655Y-98589655D01*
X129727650Y-98567907D01*
X129753662Y-98548615D01*
X129781439Y-98531966D01*
X129810714Y-98518120D01*
X129841206Y-98507210D01*
X129872620Y-98499341D01*
X129904654Y-98494589D01*
X129937000Y-98493000D01*
X130927000Y-98493000D01*
X130959346Y-98494589D01*
X130959346Y-98494589D01*
G37*
D13*
X130432000Y-99568000D03*
G04 #@! TD*
D12*
G04 #@! TO.C,R11*
G36*
X119268346Y-95318589D02*
X119300380Y-95323341D01*
X119331794Y-95331210D01*
X119362286Y-95342120D01*
X119391561Y-95355966D01*
X119419338Y-95372615D01*
X119445350Y-95391907D01*
X119469345Y-95413655D01*
X119491093Y-95437650D01*
X119510385Y-95463662D01*
X119527034Y-95491439D01*
X119540880Y-95520714D01*
X119551790Y-95551206D01*
X119559659Y-95582620D01*
X119564411Y-95614654D01*
X119566000Y-95647000D01*
X119566000Y-96637000D01*
X119564411Y-96669346D01*
X119559659Y-96701380D01*
X119551790Y-96732794D01*
X119540880Y-96763286D01*
X119527034Y-96792561D01*
X119510385Y-96820338D01*
X119491093Y-96846350D01*
X119469345Y-96870345D01*
X119445350Y-96892093D01*
X119419338Y-96911385D01*
X119391561Y-96928034D01*
X119362286Y-96941880D01*
X119331794Y-96952790D01*
X119300380Y-96960659D01*
X119268346Y-96965411D01*
X119236000Y-96967000D01*
X117746000Y-96967000D01*
X117713654Y-96965411D01*
X117681620Y-96960659D01*
X117650206Y-96952790D01*
X117619714Y-96941880D01*
X117590439Y-96928034D01*
X117562662Y-96911385D01*
X117536650Y-96892093D01*
X117512655Y-96870345D01*
X117490907Y-96846350D01*
X117471615Y-96820338D01*
X117454966Y-96792561D01*
X117441120Y-96763286D01*
X117430210Y-96732794D01*
X117422341Y-96701380D01*
X117417589Y-96669346D01*
X117416000Y-96637000D01*
X117416000Y-95647000D01*
X117417589Y-95614654D01*
X117422341Y-95582620D01*
X117430210Y-95551206D01*
X117441120Y-95520714D01*
X117454966Y-95491439D01*
X117471615Y-95463662D01*
X117490907Y-95437650D01*
X117512655Y-95413655D01*
X117536650Y-95391907D01*
X117562662Y-95372615D01*
X117590439Y-95355966D01*
X117619714Y-95342120D01*
X117650206Y-95331210D01*
X117681620Y-95323341D01*
X117713654Y-95318589D01*
X117746000Y-95317000D01*
X119236000Y-95317000D01*
X119268346Y-95318589D01*
X119268346Y-95318589D01*
G37*
D13*
X118491000Y-96142000D03*
D12*
G36*
X119268346Y-92518589D02*
X119300380Y-92523341D01*
X119331794Y-92531210D01*
X119362286Y-92542120D01*
X119391561Y-92555966D01*
X119419338Y-92572615D01*
X119445350Y-92591907D01*
X119469345Y-92613655D01*
X119491093Y-92637650D01*
X119510385Y-92663662D01*
X119527034Y-92691439D01*
X119540880Y-92720714D01*
X119551790Y-92751206D01*
X119559659Y-92782620D01*
X119564411Y-92814654D01*
X119566000Y-92847000D01*
X119566000Y-93837000D01*
X119564411Y-93869346D01*
X119559659Y-93901380D01*
X119551790Y-93932794D01*
X119540880Y-93963286D01*
X119527034Y-93992561D01*
X119510385Y-94020338D01*
X119491093Y-94046350D01*
X119469345Y-94070345D01*
X119445350Y-94092093D01*
X119419338Y-94111385D01*
X119391561Y-94128034D01*
X119362286Y-94141880D01*
X119331794Y-94152790D01*
X119300380Y-94160659D01*
X119268346Y-94165411D01*
X119236000Y-94167000D01*
X117746000Y-94167000D01*
X117713654Y-94165411D01*
X117681620Y-94160659D01*
X117650206Y-94152790D01*
X117619714Y-94141880D01*
X117590439Y-94128034D01*
X117562662Y-94111385D01*
X117536650Y-94092093D01*
X117512655Y-94070345D01*
X117490907Y-94046350D01*
X117471615Y-94020338D01*
X117454966Y-93992561D01*
X117441120Y-93963286D01*
X117430210Y-93932794D01*
X117422341Y-93901380D01*
X117417589Y-93869346D01*
X117416000Y-93837000D01*
X117416000Y-92847000D01*
X117417589Y-92814654D01*
X117422341Y-92782620D01*
X117430210Y-92751206D01*
X117441120Y-92720714D01*
X117454966Y-92691439D01*
X117471615Y-92663662D01*
X117490907Y-92637650D01*
X117512655Y-92613655D01*
X117536650Y-92591907D01*
X117562662Y-92572615D01*
X117590439Y-92555966D01*
X117619714Y-92542120D01*
X117650206Y-92531210D01*
X117681620Y-92523341D01*
X117713654Y-92518589D01*
X117746000Y-92517000D01*
X119236000Y-92517000D01*
X119268346Y-92518589D01*
X119268346Y-92518589D01*
G37*
D13*
X118491000Y-93342000D03*
G04 #@! TD*
D12*
G04 #@! TO.C,R12*
G36*
X135397346Y-110177589D02*
X135429380Y-110182341D01*
X135460794Y-110190210D01*
X135491286Y-110201120D01*
X135520561Y-110214966D01*
X135548338Y-110231615D01*
X135574350Y-110250907D01*
X135598345Y-110272655D01*
X135620093Y-110296650D01*
X135639385Y-110322662D01*
X135656034Y-110350439D01*
X135669880Y-110379714D01*
X135680790Y-110410206D01*
X135688659Y-110441620D01*
X135693411Y-110473654D01*
X135695000Y-110506000D01*
X135695000Y-111496000D01*
X135693411Y-111528346D01*
X135688659Y-111560380D01*
X135680790Y-111591794D01*
X135669880Y-111622286D01*
X135656034Y-111651561D01*
X135639385Y-111679338D01*
X135620093Y-111705350D01*
X135598345Y-111729345D01*
X135574350Y-111751093D01*
X135548338Y-111770385D01*
X135520561Y-111787034D01*
X135491286Y-111800880D01*
X135460794Y-111811790D01*
X135429380Y-111819659D01*
X135397346Y-111824411D01*
X135365000Y-111826000D01*
X133875000Y-111826000D01*
X133842654Y-111824411D01*
X133810620Y-111819659D01*
X133779206Y-111811790D01*
X133748714Y-111800880D01*
X133719439Y-111787034D01*
X133691662Y-111770385D01*
X133665650Y-111751093D01*
X133641655Y-111729345D01*
X133619907Y-111705350D01*
X133600615Y-111679338D01*
X133583966Y-111651561D01*
X133570120Y-111622286D01*
X133559210Y-111591794D01*
X133551341Y-111560380D01*
X133546589Y-111528346D01*
X133545000Y-111496000D01*
X133545000Y-110506000D01*
X133546589Y-110473654D01*
X133551341Y-110441620D01*
X133559210Y-110410206D01*
X133570120Y-110379714D01*
X133583966Y-110350439D01*
X133600615Y-110322662D01*
X133619907Y-110296650D01*
X133641655Y-110272655D01*
X133665650Y-110250907D01*
X133691662Y-110231615D01*
X133719439Y-110214966D01*
X133748714Y-110201120D01*
X133779206Y-110190210D01*
X133810620Y-110182341D01*
X133842654Y-110177589D01*
X133875000Y-110176000D01*
X135365000Y-110176000D01*
X135397346Y-110177589D01*
X135397346Y-110177589D01*
G37*
D13*
X134620000Y-111001000D03*
D12*
G36*
X135397346Y-107377589D02*
X135429380Y-107382341D01*
X135460794Y-107390210D01*
X135491286Y-107401120D01*
X135520561Y-107414966D01*
X135548338Y-107431615D01*
X135574350Y-107450907D01*
X135598345Y-107472655D01*
X135620093Y-107496650D01*
X135639385Y-107522662D01*
X135656034Y-107550439D01*
X135669880Y-107579714D01*
X135680790Y-107610206D01*
X135688659Y-107641620D01*
X135693411Y-107673654D01*
X135695000Y-107706000D01*
X135695000Y-108696000D01*
X135693411Y-108728346D01*
X135688659Y-108760380D01*
X135680790Y-108791794D01*
X135669880Y-108822286D01*
X135656034Y-108851561D01*
X135639385Y-108879338D01*
X135620093Y-108905350D01*
X135598345Y-108929345D01*
X135574350Y-108951093D01*
X135548338Y-108970385D01*
X135520561Y-108987034D01*
X135491286Y-109000880D01*
X135460794Y-109011790D01*
X135429380Y-109019659D01*
X135397346Y-109024411D01*
X135365000Y-109026000D01*
X133875000Y-109026000D01*
X133842654Y-109024411D01*
X133810620Y-109019659D01*
X133779206Y-109011790D01*
X133748714Y-109000880D01*
X133719439Y-108987034D01*
X133691662Y-108970385D01*
X133665650Y-108951093D01*
X133641655Y-108929345D01*
X133619907Y-108905350D01*
X133600615Y-108879338D01*
X133583966Y-108851561D01*
X133570120Y-108822286D01*
X133559210Y-108791794D01*
X133551341Y-108760380D01*
X133546589Y-108728346D01*
X133545000Y-108696000D01*
X133545000Y-107706000D01*
X133546589Y-107673654D01*
X133551341Y-107641620D01*
X133559210Y-107610206D01*
X133570120Y-107579714D01*
X133583966Y-107550439D01*
X133600615Y-107522662D01*
X133619907Y-107496650D01*
X133641655Y-107472655D01*
X133665650Y-107450907D01*
X133691662Y-107431615D01*
X133719439Y-107414966D01*
X133748714Y-107401120D01*
X133779206Y-107390210D01*
X133810620Y-107382341D01*
X133842654Y-107377589D01*
X133875000Y-107376000D01*
X135365000Y-107376000D01*
X135397346Y-107377589D01*
X135397346Y-107377589D01*
G37*
D13*
X134620000Y-108201000D03*
G04 #@! TD*
D12*
G04 #@! TO.C,R13*
G36*
X122063346Y-64966589D02*
X122095380Y-64971341D01*
X122126794Y-64979210D01*
X122157286Y-64990120D01*
X122186561Y-65003966D01*
X122214338Y-65020615D01*
X122240350Y-65039907D01*
X122264345Y-65061655D01*
X122286093Y-65085650D01*
X122305385Y-65111662D01*
X122322034Y-65139439D01*
X122335880Y-65168714D01*
X122346790Y-65199206D01*
X122354659Y-65230620D01*
X122359411Y-65262654D01*
X122361000Y-65295000D01*
X122361000Y-66785000D01*
X122359411Y-66817346D01*
X122354659Y-66849380D01*
X122346790Y-66880794D01*
X122335880Y-66911286D01*
X122322034Y-66940561D01*
X122305385Y-66968338D01*
X122286093Y-66994350D01*
X122264345Y-67018345D01*
X122240350Y-67040093D01*
X122214338Y-67059385D01*
X122186561Y-67076034D01*
X122157286Y-67089880D01*
X122126794Y-67100790D01*
X122095380Y-67108659D01*
X122063346Y-67113411D01*
X122031000Y-67115000D01*
X121041000Y-67115000D01*
X121008654Y-67113411D01*
X120976620Y-67108659D01*
X120945206Y-67100790D01*
X120914714Y-67089880D01*
X120885439Y-67076034D01*
X120857662Y-67059385D01*
X120831650Y-67040093D01*
X120807655Y-67018345D01*
X120785907Y-66994350D01*
X120766615Y-66968338D01*
X120749966Y-66940561D01*
X120736120Y-66911286D01*
X120725210Y-66880794D01*
X120717341Y-66849380D01*
X120712589Y-66817346D01*
X120711000Y-66785000D01*
X120711000Y-65295000D01*
X120712589Y-65262654D01*
X120717341Y-65230620D01*
X120725210Y-65199206D01*
X120736120Y-65168714D01*
X120749966Y-65139439D01*
X120766615Y-65111662D01*
X120785907Y-65085650D01*
X120807655Y-65061655D01*
X120831650Y-65039907D01*
X120857662Y-65020615D01*
X120885439Y-65003966D01*
X120914714Y-64990120D01*
X120945206Y-64979210D01*
X120976620Y-64971341D01*
X121008654Y-64966589D01*
X121041000Y-64965000D01*
X122031000Y-64965000D01*
X122063346Y-64966589D01*
X122063346Y-64966589D01*
G37*
D13*
X121536000Y-66040000D03*
D12*
G36*
X124863346Y-64966589D02*
X124895380Y-64971341D01*
X124926794Y-64979210D01*
X124957286Y-64990120D01*
X124986561Y-65003966D01*
X125014338Y-65020615D01*
X125040350Y-65039907D01*
X125064345Y-65061655D01*
X125086093Y-65085650D01*
X125105385Y-65111662D01*
X125122034Y-65139439D01*
X125135880Y-65168714D01*
X125146790Y-65199206D01*
X125154659Y-65230620D01*
X125159411Y-65262654D01*
X125161000Y-65295000D01*
X125161000Y-66785000D01*
X125159411Y-66817346D01*
X125154659Y-66849380D01*
X125146790Y-66880794D01*
X125135880Y-66911286D01*
X125122034Y-66940561D01*
X125105385Y-66968338D01*
X125086093Y-66994350D01*
X125064345Y-67018345D01*
X125040350Y-67040093D01*
X125014338Y-67059385D01*
X124986561Y-67076034D01*
X124957286Y-67089880D01*
X124926794Y-67100790D01*
X124895380Y-67108659D01*
X124863346Y-67113411D01*
X124831000Y-67115000D01*
X123841000Y-67115000D01*
X123808654Y-67113411D01*
X123776620Y-67108659D01*
X123745206Y-67100790D01*
X123714714Y-67089880D01*
X123685439Y-67076034D01*
X123657662Y-67059385D01*
X123631650Y-67040093D01*
X123607655Y-67018345D01*
X123585907Y-66994350D01*
X123566615Y-66968338D01*
X123549966Y-66940561D01*
X123536120Y-66911286D01*
X123525210Y-66880794D01*
X123517341Y-66849380D01*
X123512589Y-66817346D01*
X123511000Y-66785000D01*
X123511000Y-65295000D01*
X123512589Y-65262654D01*
X123517341Y-65230620D01*
X123525210Y-65199206D01*
X123536120Y-65168714D01*
X123549966Y-65139439D01*
X123566615Y-65111662D01*
X123585907Y-65085650D01*
X123607655Y-65061655D01*
X123631650Y-65039907D01*
X123657662Y-65020615D01*
X123685439Y-65003966D01*
X123714714Y-64990120D01*
X123745206Y-64979210D01*
X123776620Y-64971341D01*
X123808654Y-64966589D01*
X123841000Y-64965000D01*
X124831000Y-64965000D01*
X124863346Y-64966589D01*
X124863346Y-64966589D01*
G37*
D13*
X124336000Y-66040000D03*
G04 #@! TD*
D12*
G04 #@! TO.C,R19*
G36*
X139341346Y-54806589D02*
X139373380Y-54811341D01*
X139404794Y-54819210D01*
X139435286Y-54830120D01*
X139464561Y-54843966D01*
X139492338Y-54860615D01*
X139518350Y-54879907D01*
X139542345Y-54901655D01*
X139564093Y-54925650D01*
X139583385Y-54951662D01*
X139600034Y-54979439D01*
X139613880Y-55008714D01*
X139624790Y-55039206D01*
X139632659Y-55070620D01*
X139637411Y-55102654D01*
X139639000Y-55135000D01*
X139639000Y-56625000D01*
X139637411Y-56657346D01*
X139632659Y-56689380D01*
X139624790Y-56720794D01*
X139613880Y-56751286D01*
X139600034Y-56780561D01*
X139583385Y-56808338D01*
X139564093Y-56834350D01*
X139542345Y-56858345D01*
X139518350Y-56880093D01*
X139492338Y-56899385D01*
X139464561Y-56916034D01*
X139435286Y-56929880D01*
X139404794Y-56940790D01*
X139373380Y-56948659D01*
X139341346Y-56953411D01*
X139309000Y-56955000D01*
X138319000Y-56955000D01*
X138286654Y-56953411D01*
X138254620Y-56948659D01*
X138223206Y-56940790D01*
X138192714Y-56929880D01*
X138163439Y-56916034D01*
X138135662Y-56899385D01*
X138109650Y-56880093D01*
X138085655Y-56858345D01*
X138063907Y-56834350D01*
X138044615Y-56808338D01*
X138027966Y-56780561D01*
X138014120Y-56751286D01*
X138003210Y-56720794D01*
X137995341Y-56689380D01*
X137990589Y-56657346D01*
X137989000Y-56625000D01*
X137989000Y-55135000D01*
X137990589Y-55102654D01*
X137995341Y-55070620D01*
X138003210Y-55039206D01*
X138014120Y-55008714D01*
X138027966Y-54979439D01*
X138044615Y-54951662D01*
X138063907Y-54925650D01*
X138085655Y-54901655D01*
X138109650Y-54879907D01*
X138135662Y-54860615D01*
X138163439Y-54843966D01*
X138192714Y-54830120D01*
X138223206Y-54819210D01*
X138254620Y-54811341D01*
X138286654Y-54806589D01*
X138319000Y-54805000D01*
X139309000Y-54805000D01*
X139341346Y-54806589D01*
X139341346Y-54806589D01*
G37*
D13*
X138814000Y-55880000D03*
D12*
G36*
X136541346Y-54806589D02*
X136573380Y-54811341D01*
X136604794Y-54819210D01*
X136635286Y-54830120D01*
X136664561Y-54843966D01*
X136692338Y-54860615D01*
X136718350Y-54879907D01*
X136742345Y-54901655D01*
X136764093Y-54925650D01*
X136783385Y-54951662D01*
X136800034Y-54979439D01*
X136813880Y-55008714D01*
X136824790Y-55039206D01*
X136832659Y-55070620D01*
X136837411Y-55102654D01*
X136839000Y-55135000D01*
X136839000Y-56625000D01*
X136837411Y-56657346D01*
X136832659Y-56689380D01*
X136824790Y-56720794D01*
X136813880Y-56751286D01*
X136800034Y-56780561D01*
X136783385Y-56808338D01*
X136764093Y-56834350D01*
X136742345Y-56858345D01*
X136718350Y-56880093D01*
X136692338Y-56899385D01*
X136664561Y-56916034D01*
X136635286Y-56929880D01*
X136604794Y-56940790D01*
X136573380Y-56948659D01*
X136541346Y-56953411D01*
X136509000Y-56955000D01*
X135519000Y-56955000D01*
X135486654Y-56953411D01*
X135454620Y-56948659D01*
X135423206Y-56940790D01*
X135392714Y-56929880D01*
X135363439Y-56916034D01*
X135335662Y-56899385D01*
X135309650Y-56880093D01*
X135285655Y-56858345D01*
X135263907Y-56834350D01*
X135244615Y-56808338D01*
X135227966Y-56780561D01*
X135214120Y-56751286D01*
X135203210Y-56720794D01*
X135195341Y-56689380D01*
X135190589Y-56657346D01*
X135189000Y-56625000D01*
X135189000Y-55135000D01*
X135190589Y-55102654D01*
X135195341Y-55070620D01*
X135203210Y-55039206D01*
X135214120Y-55008714D01*
X135227966Y-54979439D01*
X135244615Y-54951662D01*
X135263907Y-54925650D01*
X135285655Y-54901655D01*
X135309650Y-54879907D01*
X135335662Y-54860615D01*
X135363439Y-54843966D01*
X135392714Y-54830120D01*
X135423206Y-54819210D01*
X135454620Y-54811341D01*
X135486654Y-54806589D01*
X135519000Y-54805000D01*
X136509000Y-54805000D01*
X136541346Y-54806589D01*
X136541346Y-54806589D01*
G37*
D13*
X136014000Y-55880000D03*
G04 #@! TD*
D12*
G04 #@! TO.C,R20*
G36*
X134007346Y-54806589D02*
X134039380Y-54811341D01*
X134070794Y-54819210D01*
X134101286Y-54830120D01*
X134130561Y-54843966D01*
X134158338Y-54860615D01*
X134184350Y-54879907D01*
X134208345Y-54901655D01*
X134230093Y-54925650D01*
X134249385Y-54951662D01*
X134266034Y-54979439D01*
X134279880Y-55008714D01*
X134290790Y-55039206D01*
X134298659Y-55070620D01*
X134303411Y-55102654D01*
X134305000Y-55135000D01*
X134305000Y-56625000D01*
X134303411Y-56657346D01*
X134298659Y-56689380D01*
X134290790Y-56720794D01*
X134279880Y-56751286D01*
X134266034Y-56780561D01*
X134249385Y-56808338D01*
X134230093Y-56834350D01*
X134208345Y-56858345D01*
X134184350Y-56880093D01*
X134158338Y-56899385D01*
X134130561Y-56916034D01*
X134101286Y-56929880D01*
X134070794Y-56940790D01*
X134039380Y-56948659D01*
X134007346Y-56953411D01*
X133975000Y-56955000D01*
X132985000Y-56955000D01*
X132952654Y-56953411D01*
X132920620Y-56948659D01*
X132889206Y-56940790D01*
X132858714Y-56929880D01*
X132829439Y-56916034D01*
X132801662Y-56899385D01*
X132775650Y-56880093D01*
X132751655Y-56858345D01*
X132729907Y-56834350D01*
X132710615Y-56808338D01*
X132693966Y-56780561D01*
X132680120Y-56751286D01*
X132669210Y-56720794D01*
X132661341Y-56689380D01*
X132656589Y-56657346D01*
X132655000Y-56625000D01*
X132655000Y-55135000D01*
X132656589Y-55102654D01*
X132661341Y-55070620D01*
X132669210Y-55039206D01*
X132680120Y-55008714D01*
X132693966Y-54979439D01*
X132710615Y-54951662D01*
X132729907Y-54925650D01*
X132751655Y-54901655D01*
X132775650Y-54879907D01*
X132801662Y-54860615D01*
X132829439Y-54843966D01*
X132858714Y-54830120D01*
X132889206Y-54819210D01*
X132920620Y-54811341D01*
X132952654Y-54806589D01*
X132985000Y-54805000D01*
X133975000Y-54805000D01*
X134007346Y-54806589D01*
X134007346Y-54806589D01*
G37*
D13*
X133480000Y-55880000D03*
D12*
G36*
X131207346Y-54806589D02*
X131239380Y-54811341D01*
X131270794Y-54819210D01*
X131301286Y-54830120D01*
X131330561Y-54843966D01*
X131358338Y-54860615D01*
X131384350Y-54879907D01*
X131408345Y-54901655D01*
X131430093Y-54925650D01*
X131449385Y-54951662D01*
X131466034Y-54979439D01*
X131479880Y-55008714D01*
X131490790Y-55039206D01*
X131498659Y-55070620D01*
X131503411Y-55102654D01*
X131505000Y-55135000D01*
X131505000Y-56625000D01*
X131503411Y-56657346D01*
X131498659Y-56689380D01*
X131490790Y-56720794D01*
X131479880Y-56751286D01*
X131466034Y-56780561D01*
X131449385Y-56808338D01*
X131430093Y-56834350D01*
X131408345Y-56858345D01*
X131384350Y-56880093D01*
X131358338Y-56899385D01*
X131330561Y-56916034D01*
X131301286Y-56929880D01*
X131270794Y-56940790D01*
X131239380Y-56948659D01*
X131207346Y-56953411D01*
X131175000Y-56955000D01*
X130185000Y-56955000D01*
X130152654Y-56953411D01*
X130120620Y-56948659D01*
X130089206Y-56940790D01*
X130058714Y-56929880D01*
X130029439Y-56916034D01*
X130001662Y-56899385D01*
X129975650Y-56880093D01*
X129951655Y-56858345D01*
X129929907Y-56834350D01*
X129910615Y-56808338D01*
X129893966Y-56780561D01*
X129880120Y-56751286D01*
X129869210Y-56720794D01*
X129861341Y-56689380D01*
X129856589Y-56657346D01*
X129855000Y-56625000D01*
X129855000Y-55135000D01*
X129856589Y-55102654D01*
X129861341Y-55070620D01*
X129869210Y-55039206D01*
X129880120Y-55008714D01*
X129893966Y-54979439D01*
X129910615Y-54951662D01*
X129929907Y-54925650D01*
X129951655Y-54901655D01*
X129975650Y-54879907D01*
X130001662Y-54860615D01*
X130029439Y-54843966D01*
X130058714Y-54830120D01*
X130089206Y-54819210D01*
X130120620Y-54811341D01*
X130152654Y-54806589D01*
X130185000Y-54805000D01*
X131175000Y-54805000D01*
X131207346Y-54806589D01*
X131207346Y-54806589D01*
G37*
D13*
X130680000Y-55880000D03*
G04 #@! TD*
D12*
G04 #@! TO.C,R21*
G36*
X128673346Y-54806589D02*
X128705380Y-54811341D01*
X128736794Y-54819210D01*
X128767286Y-54830120D01*
X128796561Y-54843966D01*
X128824338Y-54860615D01*
X128850350Y-54879907D01*
X128874345Y-54901655D01*
X128896093Y-54925650D01*
X128915385Y-54951662D01*
X128932034Y-54979439D01*
X128945880Y-55008714D01*
X128956790Y-55039206D01*
X128964659Y-55070620D01*
X128969411Y-55102654D01*
X128971000Y-55135000D01*
X128971000Y-56625000D01*
X128969411Y-56657346D01*
X128964659Y-56689380D01*
X128956790Y-56720794D01*
X128945880Y-56751286D01*
X128932034Y-56780561D01*
X128915385Y-56808338D01*
X128896093Y-56834350D01*
X128874345Y-56858345D01*
X128850350Y-56880093D01*
X128824338Y-56899385D01*
X128796561Y-56916034D01*
X128767286Y-56929880D01*
X128736794Y-56940790D01*
X128705380Y-56948659D01*
X128673346Y-56953411D01*
X128641000Y-56955000D01*
X127651000Y-56955000D01*
X127618654Y-56953411D01*
X127586620Y-56948659D01*
X127555206Y-56940790D01*
X127524714Y-56929880D01*
X127495439Y-56916034D01*
X127467662Y-56899385D01*
X127441650Y-56880093D01*
X127417655Y-56858345D01*
X127395907Y-56834350D01*
X127376615Y-56808338D01*
X127359966Y-56780561D01*
X127346120Y-56751286D01*
X127335210Y-56720794D01*
X127327341Y-56689380D01*
X127322589Y-56657346D01*
X127321000Y-56625000D01*
X127321000Y-55135000D01*
X127322589Y-55102654D01*
X127327341Y-55070620D01*
X127335210Y-55039206D01*
X127346120Y-55008714D01*
X127359966Y-54979439D01*
X127376615Y-54951662D01*
X127395907Y-54925650D01*
X127417655Y-54901655D01*
X127441650Y-54879907D01*
X127467662Y-54860615D01*
X127495439Y-54843966D01*
X127524714Y-54830120D01*
X127555206Y-54819210D01*
X127586620Y-54811341D01*
X127618654Y-54806589D01*
X127651000Y-54805000D01*
X128641000Y-54805000D01*
X128673346Y-54806589D01*
X128673346Y-54806589D01*
G37*
D13*
X128146000Y-55880000D03*
D12*
G36*
X125873346Y-54806589D02*
X125905380Y-54811341D01*
X125936794Y-54819210D01*
X125967286Y-54830120D01*
X125996561Y-54843966D01*
X126024338Y-54860615D01*
X126050350Y-54879907D01*
X126074345Y-54901655D01*
X126096093Y-54925650D01*
X126115385Y-54951662D01*
X126132034Y-54979439D01*
X126145880Y-55008714D01*
X126156790Y-55039206D01*
X126164659Y-55070620D01*
X126169411Y-55102654D01*
X126171000Y-55135000D01*
X126171000Y-56625000D01*
X126169411Y-56657346D01*
X126164659Y-56689380D01*
X126156790Y-56720794D01*
X126145880Y-56751286D01*
X126132034Y-56780561D01*
X126115385Y-56808338D01*
X126096093Y-56834350D01*
X126074345Y-56858345D01*
X126050350Y-56880093D01*
X126024338Y-56899385D01*
X125996561Y-56916034D01*
X125967286Y-56929880D01*
X125936794Y-56940790D01*
X125905380Y-56948659D01*
X125873346Y-56953411D01*
X125841000Y-56955000D01*
X124851000Y-56955000D01*
X124818654Y-56953411D01*
X124786620Y-56948659D01*
X124755206Y-56940790D01*
X124724714Y-56929880D01*
X124695439Y-56916034D01*
X124667662Y-56899385D01*
X124641650Y-56880093D01*
X124617655Y-56858345D01*
X124595907Y-56834350D01*
X124576615Y-56808338D01*
X124559966Y-56780561D01*
X124546120Y-56751286D01*
X124535210Y-56720794D01*
X124527341Y-56689380D01*
X124522589Y-56657346D01*
X124521000Y-56625000D01*
X124521000Y-55135000D01*
X124522589Y-55102654D01*
X124527341Y-55070620D01*
X124535210Y-55039206D01*
X124546120Y-55008714D01*
X124559966Y-54979439D01*
X124576615Y-54951662D01*
X124595907Y-54925650D01*
X124617655Y-54901655D01*
X124641650Y-54879907D01*
X124667662Y-54860615D01*
X124695439Y-54843966D01*
X124724714Y-54830120D01*
X124755206Y-54819210D01*
X124786620Y-54811341D01*
X124818654Y-54806589D01*
X124851000Y-54805000D01*
X125841000Y-54805000D01*
X125873346Y-54806589D01*
X125873346Y-54806589D01*
G37*
D13*
X125346000Y-55880000D03*
G04 #@! TD*
D12*
G04 #@! TO.C,R22*
G36*
X116601346Y-101541589D02*
X116633380Y-101546341D01*
X116664794Y-101554210D01*
X116695286Y-101565120D01*
X116724561Y-101578966D01*
X116752338Y-101595615D01*
X116778350Y-101614907D01*
X116802345Y-101636655D01*
X116824093Y-101660650D01*
X116843385Y-101686662D01*
X116860034Y-101714439D01*
X116873880Y-101743714D01*
X116884790Y-101774206D01*
X116892659Y-101805620D01*
X116897411Y-101837654D01*
X116899000Y-101870000D01*
X116899000Y-102860000D01*
X116897411Y-102892346D01*
X116892659Y-102924380D01*
X116884790Y-102955794D01*
X116873880Y-102986286D01*
X116860034Y-103015561D01*
X116843385Y-103043338D01*
X116824093Y-103069350D01*
X116802345Y-103093345D01*
X116778350Y-103115093D01*
X116752338Y-103134385D01*
X116724561Y-103151034D01*
X116695286Y-103164880D01*
X116664794Y-103175790D01*
X116633380Y-103183659D01*
X116601346Y-103188411D01*
X116569000Y-103190000D01*
X115079000Y-103190000D01*
X115046654Y-103188411D01*
X115014620Y-103183659D01*
X114983206Y-103175790D01*
X114952714Y-103164880D01*
X114923439Y-103151034D01*
X114895662Y-103134385D01*
X114869650Y-103115093D01*
X114845655Y-103093345D01*
X114823907Y-103069350D01*
X114804615Y-103043338D01*
X114787966Y-103015561D01*
X114774120Y-102986286D01*
X114763210Y-102955794D01*
X114755341Y-102924380D01*
X114750589Y-102892346D01*
X114749000Y-102860000D01*
X114749000Y-101870000D01*
X114750589Y-101837654D01*
X114755341Y-101805620D01*
X114763210Y-101774206D01*
X114774120Y-101743714D01*
X114787966Y-101714439D01*
X114804615Y-101686662D01*
X114823907Y-101660650D01*
X114845655Y-101636655D01*
X114869650Y-101614907D01*
X114895662Y-101595615D01*
X114923439Y-101578966D01*
X114952714Y-101565120D01*
X114983206Y-101554210D01*
X115014620Y-101546341D01*
X115046654Y-101541589D01*
X115079000Y-101540000D01*
X116569000Y-101540000D01*
X116601346Y-101541589D01*
X116601346Y-101541589D01*
G37*
D13*
X115824000Y-102365000D03*
D12*
G36*
X116601346Y-98741589D02*
X116633380Y-98746341D01*
X116664794Y-98754210D01*
X116695286Y-98765120D01*
X116724561Y-98778966D01*
X116752338Y-98795615D01*
X116778350Y-98814907D01*
X116802345Y-98836655D01*
X116824093Y-98860650D01*
X116843385Y-98886662D01*
X116860034Y-98914439D01*
X116873880Y-98943714D01*
X116884790Y-98974206D01*
X116892659Y-99005620D01*
X116897411Y-99037654D01*
X116899000Y-99070000D01*
X116899000Y-100060000D01*
X116897411Y-100092346D01*
X116892659Y-100124380D01*
X116884790Y-100155794D01*
X116873880Y-100186286D01*
X116860034Y-100215561D01*
X116843385Y-100243338D01*
X116824093Y-100269350D01*
X116802345Y-100293345D01*
X116778350Y-100315093D01*
X116752338Y-100334385D01*
X116724561Y-100351034D01*
X116695286Y-100364880D01*
X116664794Y-100375790D01*
X116633380Y-100383659D01*
X116601346Y-100388411D01*
X116569000Y-100390000D01*
X115079000Y-100390000D01*
X115046654Y-100388411D01*
X115014620Y-100383659D01*
X114983206Y-100375790D01*
X114952714Y-100364880D01*
X114923439Y-100351034D01*
X114895662Y-100334385D01*
X114869650Y-100315093D01*
X114845655Y-100293345D01*
X114823907Y-100269350D01*
X114804615Y-100243338D01*
X114787966Y-100215561D01*
X114774120Y-100186286D01*
X114763210Y-100155794D01*
X114755341Y-100124380D01*
X114750589Y-100092346D01*
X114749000Y-100060000D01*
X114749000Y-99070000D01*
X114750589Y-99037654D01*
X114755341Y-99005620D01*
X114763210Y-98974206D01*
X114774120Y-98943714D01*
X114787966Y-98914439D01*
X114804615Y-98886662D01*
X114823907Y-98860650D01*
X114845655Y-98836655D01*
X114869650Y-98814907D01*
X114895662Y-98795615D01*
X114923439Y-98778966D01*
X114952714Y-98765120D01*
X114983206Y-98754210D01*
X115014620Y-98746341D01*
X115046654Y-98741589D01*
X115079000Y-98740000D01*
X116569000Y-98740000D01*
X116601346Y-98741589D01*
X116601346Y-98741589D01*
G37*
D13*
X115824000Y-99565000D03*
G04 #@! TD*
D12*
G04 #@! TO.C,R23*
G36*
X111268346Y-93287589D02*
X111300380Y-93292341D01*
X111331794Y-93300210D01*
X111362286Y-93311120D01*
X111391561Y-93324966D01*
X111419338Y-93341615D01*
X111445350Y-93360907D01*
X111469345Y-93382655D01*
X111491093Y-93406650D01*
X111510385Y-93432662D01*
X111527034Y-93460439D01*
X111540880Y-93489714D01*
X111551790Y-93520206D01*
X111559659Y-93551620D01*
X111564411Y-93583654D01*
X111566000Y-93616000D01*
X111566000Y-95106000D01*
X111564411Y-95138346D01*
X111559659Y-95170380D01*
X111551790Y-95201794D01*
X111540880Y-95232286D01*
X111527034Y-95261561D01*
X111510385Y-95289338D01*
X111491093Y-95315350D01*
X111469345Y-95339345D01*
X111445350Y-95361093D01*
X111419338Y-95380385D01*
X111391561Y-95397034D01*
X111362286Y-95410880D01*
X111331794Y-95421790D01*
X111300380Y-95429659D01*
X111268346Y-95434411D01*
X111236000Y-95436000D01*
X110246000Y-95436000D01*
X110213654Y-95434411D01*
X110181620Y-95429659D01*
X110150206Y-95421790D01*
X110119714Y-95410880D01*
X110090439Y-95397034D01*
X110062662Y-95380385D01*
X110036650Y-95361093D01*
X110012655Y-95339345D01*
X109990907Y-95315350D01*
X109971615Y-95289338D01*
X109954966Y-95261561D01*
X109941120Y-95232286D01*
X109930210Y-95201794D01*
X109922341Y-95170380D01*
X109917589Y-95138346D01*
X109916000Y-95106000D01*
X109916000Y-93616000D01*
X109917589Y-93583654D01*
X109922341Y-93551620D01*
X109930210Y-93520206D01*
X109941120Y-93489714D01*
X109954966Y-93460439D01*
X109971615Y-93432662D01*
X109990907Y-93406650D01*
X110012655Y-93382655D01*
X110036650Y-93360907D01*
X110062662Y-93341615D01*
X110090439Y-93324966D01*
X110119714Y-93311120D01*
X110150206Y-93300210D01*
X110181620Y-93292341D01*
X110213654Y-93287589D01*
X110246000Y-93286000D01*
X111236000Y-93286000D01*
X111268346Y-93287589D01*
X111268346Y-93287589D01*
G37*
D13*
X110741000Y-94361000D03*
D12*
G36*
X114068346Y-93287589D02*
X114100380Y-93292341D01*
X114131794Y-93300210D01*
X114162286Y-93311120D01*
X114191561Y-93324966D01*
X114219338Y-93341615D01*
X114245350Y-93360907D01*
X114269345Y-93382655D01*
X114291093Y-93406650D01*
X114310385Y-93432662D01*
X114327034Y-93460439D01*
X114340880Y-93489714D01*
X114351790Y-93520206D01*
X114359659Y-93551620D01*
X114364411Y-93583654D01*
X114366000Y-93616000D01*
X114366000Y-95106000D01*
X114364411Y-95138346D01*
X114359659Y-95170380D01*
X114351790Y-95201794D01*
X114340880Y-95232286D01*
X114327034Y-95261561D01*
X114310385Y-95289338D01*
X114291093Y-95315350D01*
X114269345Y-95339345D01*
X114245350Y-95361093D01*
X114219338Y-95380385D01*
X114191561Y-95397034D01*
X114162286Y-95410880D01*
X114131794Y-95421790D01*
X114100380Y-95429659D01*
X114068346Y-95434411D01*
X114036000Y-95436000D01*
X113046000Y-95436000D01*
X113013654Y-95434411D01*
X112981620Y-95429659D01*
X112950206Y-95421790D01*
X112919714Y-95410880D01*
X112890439Y-95397034D01*
X112862662Y-95380385D01*
X112836650Y-95361093D01*
X112812655Y-95339345D01*
X112790907Y-95315350D01*
X112771615Y-95289338D01*
X112754966Y-95261561D01*
X112741120Y-95232286D01*
X112730210Y-95201794D01*
X112722341Y-95170380D01*
X112717589Y-95138346D01*
X112716000Y-95106000D01*
X112716000Y-93616000D01*
X112717589Y-93583654D01*
X112722341Y-93551620D01*
X112730210Y-93520206D01*
X112741120Y-93489714D01*
X112754966Y-93460439D01*
X112771615Y-93432662D01*
X112790907Y-93406650D01*
X112812655Y-93382655D01*
X112836650Y-93360907D01*
X112862662Y-93341615D01*
X112890439Y-93324966D01*
X112919714Y-93311120D01*
X112950206Y-93300210D01*
X112981620Y-93292341D01*
X113013654Y-93287589D01*
X113046000Y-93286000D01*
X114036000Y-93286000D01*
X114068346Y-93287589D01*
X114068346Y-93287589D01*
G37*
D13*
X113541000Y-94361000D03*
G04 #@! TD*
D12*
G04 #@! TO.C,R24*
G36*
X111521346Y-98741589D02*
X111553380Y-98746341D01*
X111584794Y-98754210D01*
X111615286Y-98765120D01*
X111644561Y-98778966D01*
X111672338Y-98795615D01*
X111698350Y-98814907D01*
X111722345Y-98836655D01*
X111744093Y-98860650D01*
X111763385Y-98886662D01*
X111780034Y-98914439D01*
X111793880Y-98943714D01*
X111804790Y-98974206D01*
X111812659Y-99005620D01*
X111817411Y-99037654D01*
X111819000Y-99070000D01*
X111819000Y-100060000D01*
X111817411Y-100092346D01*
X111812659Y-100124380D01*
X111804790Y-100155794D01*
X111793880Y-100186286D01*
X111780034Y-100215561D01*
X111763385Y-100243338D01*
X111744093Y-100269350D01*
X111722345Y-100293345D01*
X111698350Y-100315093D01*
X111672338Y-100334385D01*
X111644561Y-100351034D01*
X111615286Y-100364880D01*
X111584794Y-100375790D01*
X111553380Y-100383659D01*
X111521346Y-100388411D01*
X111489000Y-100390000D01*
X109999000Y-100390000D01*
X109966654Y-100388411D01*
X109934620Y-100383659D01*
X109903206Y-100375790D01*
X109872714Y-100364880D01*
X109843439Y-100351034D01*
X109815662Y-100334385D01*
X109789650Y-100315093D01*
X109765655Y-100293345D01*
X109743907Y-100269350D01*
X109724615Y-100243338D01*
X109707966Y-100215561D01*
X109694120Y-100186286D01*
X109683210Y-100155794D01*
X109675341Y-100124380D01*
X109670589Y-100092346D01*
X109669000Y-100060000D01*
X109669000Y-99070000D01*
X109670589Y-99037654D01*
X109675341Y-99005620D01*
X109683210Y-98974206D01*
X109694120Y-98943714D01*
X109707966Y-98914439D01*
X109724615Y-98886662D01*
X109743907Y-98860650D01*
X109765655Y-98836655D01*
X109789650Y-98814907D01*
X109815662Y-98795615D01*
X109843439Y-98778966D01*
X109872714Y-98765120D01*
X109903206Y-98754210D01*
X109934620Y-98746341D01*
X109966654Y-98741589D01*
X109999000Y-98740000D01*
X111489000Y-98740000D01*
X111521346Y-98741589D01*
X111521346Y-98741589D01*
G37*
D13*
X110744000Y-99565000D03*
D12*
G36*
X111521346Y-101541589D02*
X111553380Y-101546341D01*
X111584794Y-101554210D01*
X111615286Y-101565120D01*
X111644561Y-101578966D01*
X111672338Y-101595615D01*
X111698350Y-101614907D01*
X111722345Y-101636655D01*
X111744093Y-101660650D01*
X111763385Y-101686662D01*
X111780034Y-101714439D01*
X111793880Y-101743714D01*
X111804790Y-101774206D01*
X111812659Y-101805620D01*
X111817411Y-101837654D01*
X111819000Y-101870000D01*
X111819000Y-102860000D01*
X111817411Y-102892346D01*
X111812659Y-102924380D01*
X111804790Y-102955794D01*
X111793880Y-102986286D01*
X111780034Y-103015561D01*
X111763385Y-103043338D01*
X111744093Y-103069350D01*
X111722345Y-103093345D01*
X111698350Y-103115093D01*
X111672338Y-103134385D01*
X111644561Y-103151034D01*
X111615286Y-103164880D01*
X111584794Y-103175790D01*
X111553380Y-103183659D01*
X111521346Y-103188411D01*
X111489000Y-103190000D01*
X109999000Y-103190000D01*
X109966654Y-103188411D01*
X109934620Y-103183659D01*
X109903206Y-103175790D01*
X109872714Y-103164880D01*
X109843439Y-103151034D01*
X109815662Y-103134385D01*
X109789650Y-103115093D01*
X109765655Y-103093345D01*
X109743907Y-103069350D01*
X109724615Y-103043338D01*
X109707966Y-103015561D01*
X109694120Y-102986286D01*
X109683210Y-102955794D01*
X109675341Y-102924380D01*
X109670589Y-102892346D01*
X109669000Y-102860000D01*
X109669000Y-101870000D01*
X109670589Y-101837654D01*
X109675341Y-101805620D01*
X109683210Y-101774206D01*
X109694120Y-101743714D01*
X109707966Y-101714439D01*
X109724615Y-101686662D01*
X109743907Y-101660650D01*
X109765655Y-101636655D01*
X109789650Y-101614907D01*
X109815662Y-101595615D01*
X109843439Y-101578966D01*
X109872714Y-101565120D01*
X109903206Y-101554210D01*
X109934620Y-101546341D01*
X109966654Y-101541589D01*
X109999000Y-101540000D01*
X111489000Y-101540000D01*
X111521346Y-101541589D01*
X111521346Y-101541589D01*
G37*
D13*
X110744000Y-102365000D03*
G04 #@! TD*
D12*
G04 #@! TO.C,R25*
G36*
X113433346Y-104463589D02*
X113465380Y-104468341D01*
X113496794Y-104476210D01*
X113527286Y-104487120D01*
X113556561Y-104500966D01*
X113584338Y-104517615D01*
X113610350Y-104536907D01*
X113634345Y-104558655D01*
X113656093Y-104582650D01*
X113675385Y-104608662D01*
X113692034Y-104636439D01*
X113705880Y-104665714D01*
X113716790Y-104696206D01*
X113724659Y-104727620D01*
X113729411Y-104759654D01*
X113731000Y-104792000D01*
X113731000Y-106282000D01*
X113729411Y-106314346D01*
X113724659Y-106346380D01*
X113716790Y-106377794D01*
X113705880Y-106408286D01*
X113692034Y-106437561D01*
X113675385Y-106465338D01*
X113656093Y-106491350D01*
X113634345Y-106515345D01*
X113610350Y-106537093D01*
X113584338Y-106556385D01*
X113556561Y-106573034D01*
X113527286Y-106586880D01*
X113496794Y-106597790D01*
X113465380Y-106605659D01*
X113433346Y-106610411D01*
X113401000Y-106612000D01*
X112411000Y-106612000D01*
X112378654Y-106610411D01*
X112346620Y-106605659D01*
X112315206Y-106597790D01*
X112284714Y-106586880D01*
X112255439Y-106573034D01*
X112227662Y-106556385D01*
X112201650Y-106537093D01*
X112177655Y-106515345D01*
X112155907Y-106491350D01*
X112136615Y-106465338D01*
X112119966Y-106437561D01*
X112106120Y-106408286D01*
X112095210Y-106377794D01*
X112087341Y-106346380D01*
X112082589Y-106314346D01*
X112081000Y-106282000D01*
X112081000Y-104792000D01*
X112082589Y-104759654D01*
X112087341Y-104727620D01*
X112095210Y-104696206D01*
X112106120Y-104665714D01*
X112119966Y-104636439D01*
X112136615Y-104608662D01*
X112155907Y-104582650D01*
X112177655Y-104558655D01*
X112201650Y-104536907D01*
X112227662Y-104517615D01*
X112255439Y-104500966D01*
X112284714Y-104487120D01*
X112315206Y-104476210D01*
X112346620Y-104468341D01*
X112378654Y-104463589D01*
X112411000Y-104462000D01*
X113401000Y-104462000D01*
X113433346Y-104463589D01*
X113433346Y-104463589D01*
G37*
D13*
X112906000Y-105537000D03*
D12*
G36*
X110633346Y-104463589D02*
X110665380Y-104468341D01*
X110696794Y-104476210D01*
X110727286Y-104487120D01*
X110756561Y-104500966D01*
X110784338Y-104517615D01*
X110810350Y-104536907D01*
X110834345Y-104558655D01*
X110856093Y-104582650D01*
X110875385Y-104608662D01*
X110892034Y-104636439D01*
X110905880Y-104665714D01*
X110916790Y-104696206D01*
X110924659Y-104727620D01*
X110929411Y-104759654D01*
X110931000Y-104792000D01*
X110931000Y-106282000D01*
X110929411Y-106314346D01*
X110924659Y-106346380D01*
X110916790Y-106377794D01*
X110905880Y-106408286D01*
X110892034Y-106437561D01*
X110875385Y-106465338D01*
X110856093Y-106491350D01*
X110834345Y-106515345D01*
X110810350Y-106537093D01*
X110784338Y-106556385D01*
X110756561Y-106573034D01*
X110727286Y-106586880D01*
X110696794Y-106597790D01*
X110665380Y-106605659D01*
X110633346Y-106610411D01*
X110601000Y-106612000D01*
X109611000Y-106612000D01*
X109578654Y-106610411D01*
X109546620Y-106605659D01*
X109515206Y-106597790D01*
X109484714Y-106586880D01*
X109455439Y-106573034D01*
X109427662Y-106556385D01*
X109401650Y-106537093D01*
X109377655Y-106515345D01*
X109355907Y-106491350D01*
X109336615Y-106465338D01*
X109319966Y-106437561D01*
X109306120Y-106408286D01*
X109295210Y-106377794D01*
X109287341Y-106346380D01*
X109282589Y-106314346D01*
X109281000Y-106282000D01*
X109281000Y-104792000D01*
X109282589Y-104759654D01*
X109287341Y-104727620D01*
X109295210Y-104696206D01*
X109306120Y-104665714D01*
X109319966Y-104636439D01*
X109336615Y-104608662D01*
X109355907Y-104582650D01*
X109377655Y-104558655D01*
X109401650Y-104536907D01*
X109427662Y-104517615D01*
X109455439Y-104500966D01*
X109484714Y-104487120D01*
X109515206Y-104476210D01*
X109546620Y-104468341D01*
X109578654Y-104463589D01*
X109611000Y-104462000D01*
X110601000Y-104462000D01*
X110633346Y-104463589D01*
X110633346Y-104463589D01*
G37*
D13*
X110106000Y-105537000D03*
G04 #@! TD*
D17*
G04 #@! TO.C,U1*
X116172000Y-106807000D03*
X116172000Y-108077000D03*
X116172000Y-109347000D03*
X116172000Y-110617000D03*
X121572000Y-110617000D03*
X121572000Y-109347000D03*
X121572000Y-108077000D03*
X121572000Y-106807000D03*
G04 #@! TD*
G04 #@! TO.C,U2*
X130650000Y-69977000D03*
X130650000Y-71247000D03*
X130650000Y-72517000D03*
X130650000Y-73787000D03*
X136050000Y-73787000D03*
X136050000Y-72517000D03*
X136050000Y-71247000D03*
X136050000Y-69977000D03*
G04 #@! TD*
G04 #@! TO.C,U3*
X141384000Y-76835000D03*
X141384000Y-78105000D03*
X141384000Y-79375000D03*
X141384000Y-80645000D03*
X135984000Y-80645000D03*
X135984000Y-79375000D03*
X135984000Y-78105000D03*
X135984000Y-76835000D03*
G04 #@! TD*
G04 #@! TO.C,U4*
X125062000Y-106807000D03*
X125062000Y-108077000D03*
X125062000Y-109347000D03*
X125062000Y-110617000D03*
X130462000Y-110617000D03*
X130462000Y-109347000D03*
X130462000Y-108077000D03*
X130462000Y-106807000D03*
G04 #@! TD*
G04 #@! TO.C,U5*
X132875000Y-92202000D03*
X132875000Y-93472000D03*
X132875000Y-94742000D03*
X132875000Y-96012000D03*
X127475000Y-96012000D03*
X127475000Y-94742000D03*
X127475000Y-93472000D03*
X127475000Y-92202000D03*
G04 #@! TD*
D18*
G04 #@! TO.C,U6*
X111125000Y-84202000D03*
X112395000Y-84202000D03*
X113665000Y-84202000D03*
X114935000Y-84202000D03*
X116205000Y-84202000D03*
X117475000Y-84202000D03*
X118745000Y-84202000D03*
X120015000Y-84202000D03*
X121285000Y-84202000D03*
X122555000Y-84202000D03*
X123825000Y-84202000D03*
X125095000Y-84202000D03*
X126365000Y-84202000D03*
X127635000Y-84202000D03*
X127635000Y-74802000D03*
X126365000Y-74802000D03*
X125095000Y-74802000D03*
X123825000Y-74802000D03*
X122555000Y-74802000D03*
X121285000Y-74802000D03*
X120015000Y-74802000D03*
X118745000Y-74802000D03*
X117475000Y-74802000D03*
X116205000Y-74802000D03*
X114935000Y-74802000D03*
X113665000Y-74802000D03*
X112395000Y-74802000D03*
X111125000Y-74802000D03*
G04 #@! TD*
D12*
G04 #@! TO.C,R26*
G36*
X123339346Y-54806589D02*
X123371380Y-54811341D01*
X123402794Y-54819210D01*
X123433286Y-54830120D01*
X123462561Y-54843966D01*
X123490338Y-54860615D01*
X123516350Y-54879907D01*
X123540345Y-54901655D01*
X123562093Y-54925650D01*
X123581385Y-54951662D01*
X123598034Y-54979439D01*
X123611880Y-55008714D01*
X123622790Y-55039206D01*
X123630659Y-55070620D01*
X123635411Y-55102654D01*
X123637000Y-55135000D01*
X123637000Y-56625000D01*
X123635411Y-56657346D01*
X123630659Y-56689380D01*
X123622790Y-56720794D01*
X123611880Y-56751286D01*
X123598034Y-56780561D01*
X123581385Y-56808338D01*
X123562093Y-56834350D01*
X123540345Y-56858345D01*
X123516350Y-56880093D01*
X123490338Y-56899385D01*
X123462561Y-56916034D01*
X123433286Y-56929880D01*
X123402794Y-56940790D01*
X123371380Y-56948659D01*
X123339346Y-56953411D01*
X123307000Y-56955000D01*
X122317000Y-56955000D01*
X122284654Y-56953411D01*
X122252620Y-56948659D01*
X122221206Y-56940790D01*
X122190714Y-56929880D01*
X122161439Y-56916034D01*
X122133662Y-56899385D01*
X122107650Y-56880093D01*
X122083655Y-56858345D01*
X122061907Y-56834350D01*
X122042615Y-56808338D01*
X122025966Y-56780561D01*
X122012120Y-56751286D01*
X122001210Y-56720794D01*
X121993341Y-56689380D01*
X121988589Y-56657346D01*
X121987000Y-56625000D01*
X121987000Y-55135000D01*
X121988589Y-55102654D01*
X121993341Y-55070620D01*
X122001210Y-55039206D01*
X122012120Y-55008714D01*
X122025966Y-54979439D01*
X122042615Y-54951662D01*
X122061907Y-54925650D01*
X122083655Y-54901655D01*
X122107650Y-54879907D01*
X122133662Y-54860615D01*
X122161439Y-54843966D01*
X122190714Y-54830120D01*
X122221206Y-54819210D01*
X122252620Y-54811341D01*
X122284654Y-54806589D01*
X122317000Y-54805000D01*
X123307000Y-54805000D01*
X123339346Y-54806589D01*
X123339346Y-54806589D01*
G37*
D13*
X122812000Y-55880000D03*
D12*
G36*
X120539346Y-54806589D02*
X120571380Y-54811341D01*
X120602794Y-54819210D01*
X120633286Y-54830120D01*
X120662561Y-54843966D01*
X120690338Y-54860615D01*
X120716350Y-54879907D01*
X120740345Y-54901655D01*
X120762093Y-54925650D01*
X120781385Y-54951662D01*
X120798034Y-54979439D01*
X120811880Y-55008714D01*
X120822790Y-55039206D01*
X120830659Y-55070620D01*
X120835411Y-55102654D01*
X120837000Y-55135000D01*
X120837000Y-56625000D01*
X120835411Y-56657346D01*
X120830659Y-56689380D01*
X120822790Y-56720794D01*
X120811880Y-56751286D01*
X120798034Y-56780561D01*
X120781385Y-56808338D01*
X120762093Y-56834350D01*
X120740345Y-56858345D01*
X120716350Y-56880093D01*
X120690338Y-56899385D01*
X120662561Y-56916034D01*
X120633286Y-56929880D01*
X120602794Y-56940790D01*
X120571380Y-56948659D01*
X120539346Y-56953411D01*
X120507000Y-56955000D01*
X119517000Y-56955000D01*
X119484654Y-56953411D01*
X119452620Y-56948659D01*
X119421206Y-56940790D01*
X119390714Y-56929880D01*
X119361439Y-56916034D01*
X119333662Y-56899385D01*
X119307650Y-56880093D01*
X119283655Y-56858345D01*
X119261907Y-56834350D01*
X119242615Y-56808338D01*
X119225966Y-56780561D01*
X119212120Y-56751286D01*
X119201210Y-56720794D01*
X119193341Y-56689380D01*
X119188589Y-56657346D01*
X119187000Y-56625000D01*
X119187000Y-55135000D01*
X119188589Y-55102654D01*
X119193341Y-55070620D01*
X119201210Y-55039206D01*
X119212120Y-55008714D01*
X119225966Y-54979439D01*
X119242615Y-54951662D01*
X119261907Y-54925650D01*
X119283655Y-54901655D01*
X119307650Y-54879907D01*
X119333662Y-54860615D01*
X119361439Y-54843966D01*
X119390714Y-54830120D01*
X119421206Y-54819210D01*
X119452620Y-54811341D01*
X119484654Y-54806589D01*
X119517000Y-54805000D01*
X120507000Y-54805000D01*
X120539346Y-54806589D01*
X120539346Y-54806589D01*
G37*
D13*
X120012000Y-55880000D03*
G04 #@! TD*
D19*
G04 #@! TO.C,C19*
X108966000Y-46736000D03*
D20*
X111466000Y-46736000D03*
G04 #@! TD*
D12*
G04 #@! TO.C,D1*
G36*
X107517405Y-58392445D02*
X107546527Y-58396764D01*
X107575085Y-58403918D01*
X107602805Y-58413836D01*
X107629419Y-58426424D01*
X107654671Y-58441559D01*
X107678318Y-58459097D01*
X107700132Y-58478868D01*
X107719903Y-58500682D01*
X107737441Y-58524329D01*
X107752576Y-58549581D01*
X107765164Y-58576195D01*
X107775082Y-58603915D01*
X107782236Y-58632473D01*
X107786555Y-58661595D01*
X107788000Y-58691000D01*
X107788000Y-59291000D01*
X107786555Y-59320405D01*
X107782236Y-59349527D01*
X107775082Y-59378085D01*
X107765164Y-59405805D01*
X107752576Y-59432419D01*
X107737441Y-59457671D01*
X107719903Y-59481318D01*
X107700132Y-59503132D01*
X107678318Y-59522903D01*
X107654671Y-59540441D01*
X107629419Y-59555576D01*
X107602805Y-59568164D01*
X107575085Y-59578082D01*
X107546527Y-59585236D01*
X107517405Y-59589555D01*
X107488000Y-59591000D01*
X106888000Y-59591000D01*
X106858595Y-59589555D01*
X106829473Y-59585236D01*
X106800915Y-59578082D01*
X106773195Y-59568164D01*
X106746581Y-59555576D01*
X106721329Y-59540441D01*
X106697682Y-59522903D01*
X106675868Y-59503132D01*
X106656097Y-59481318D01*
X106638559Y-59457671D01*
X106623424Y-59432419D01*
X106610836Y-59405805D01*
X106600918Y-59378085D01*
X106593764Y-59349527D01*
X106589445Y-59320405D01*
X106588000Y-59291000D01*
X106588000Y-58691000D01*
X106589445Y-58661595D01*
X106593764Y-58632473D01*
X106600918Y-58603915D01*
X106610836Y-58576195D01*
X106623424Y-58549581D01*
X106638559Y-58524329D01*
X106656097Y-58500682D01*
X106675868Y-58478868D01*
X106697682Y-58459097D01*
X106721329Y-58441559D01*
X106746581Y-58426424D01*
X106773195Y-58413836D01*
X106800915Y-58403918D01*
X106829473Y-58396764D01*
X106858595Y-58392445D01*
X106888000Y-58391000D01*
X107488000Y-58391000D01*
X107517405Y-58392445D01*
X107517405Y-58392445D01*
G37*
D21*
X107188000Y-58991000D03*
D12*
G36*
X107517405Y-56742445D02*
X107546527Y-56746764D01*
X107575085Y-56753918D01*
X107602805Y-56763836D01*
X107629419Y-56776424D01*
X107654671Y-56791559D01*
X107678318Y-56809097D01*
X107700132Y-56828868D01*
X107719903Y-56850682D01*
X107737441Y-56874329D01*
X107752576Y-56899581D01*
X107765164Y-56926195D01*
X107775082Y-56953915D01*
X107782236Y-56982473D01*
X107786555Y-57011595D01*
X107788000Y-57041000D01*
X107788000Y-57641000D01*
X107786555Y-57670405D01*
X107782236Y-57699527D01*
X107775082Y-57728085D01*
X107765164Y-57755805D01*
X107752576Y-57782419D01*
X107737441Y-57807671D01*
X107719903Y-57831318D01*
X107700132Y-57853132D01*
X107678318Y-57872903D01*
X107654671Y-57890441D01*
X107629419Y-57905576D01*
X107602805Y-57918164D01*
X107575085Y-57928082D01*
X107546527Y-57935236D01*
X107517405Y-57939555D01*
X107488000Y-57941000D01*
X106888000Y-57941000D01*
X106858595Y-57939555D01*
X106829473Y-57935236D01*
X106800915Y-57928082D01*
X106773195Y-57918164D01*
X106746581Y-57905576D01*
X106721329Y-57890441D01*
X106697682Y-57872903D01*
X106675868Y-57853132D01*
X106656097Y-57831318D01*
X106638559Y-57807671D01*
X106623424Y-57782419D01*
X106610836Y-57755805D01*
X106600918Y-57728085D01*
X106593764Y-57699527D01*
X106589445Y-57670405D01*
X106588000Y-57641000D01*
X106588000Y-57041000D01*
X106589445Y-57011595D01*
X106593764Y-56982473D01*
X106600918Y-56953915D01*
X106610836Y-56926195D01*
X106623424Y-56899581D01*
X106638559Y-56874329D01*
X106656097Y-56850682D01*
X106675868Y-56828868D01*
X106697682Y-56809097D01*
X106721329Y-56791559D01*
X106746581Y-56776424D01*
X106773195Y-56763836D01*
X106800915Y-56753918D01*
X106829473Y-56746764D01*
X106858595Y-56742445D01*
X106888000Y-56741000D01*
X107488000Y-56741000D01*
X107517405Y-56742445D01*
X107517405Y-56742445D01*
G37*
D21*
X107188000Y-57341000D03*
G04 #@! TD*
D12*
G04 #@! TO.C,D2*
G36*
X110057405Y-56742445D02*
X110086527Y-56746764D01*
X110115085Y-56753918D01*
X110142805Y-56763836D01*
X110169419Y-56776424D01*
X110194671Y-56791559D01*
X110218318Y-56809097D01*
X110240132Y-56828868D01*
X110259903Y-56850682D01*
X110277441Y-56874329D01*
X110292576Y-56899581D01*
X110305164Y-56926195D01*
X110315082Y-56953915D01*
X110322236Y-56982473D01*
X110326555Y-57011595D01*
X110328000Y-57041000D01*
X110328000Y-57641000D01*
X110326555Y-57670405D01*
X110322236Y-57699527D01*
X110315082Y-57728085D01*
X110305164Y-57755805D01*
X110292576Y-57782419D01*
X110277441Y-57807671D01*
X110259903Y-57831318D01*
X110240132Y-57853132D01*
X110218318Y-57872903D01*
X110194671Y-57890441D01*
X110169419Y-57905576D01*
X110142805Y-57918164D01*
X110115085Y-57928082D01*
X110086527Y-57935236D01*
X110057405Y-57939555D01*
X110028000Y-57941000D01*
X109428000Y-57941000D01*
X109398595Y-57939555D01*
X109369473Y-57935236D01*
X109340915Y-57928082D01*
X109313195Y-57918164D01*
X109286581Y-57905576D01*
X109261329Y-57890441D01*
X109237682Y-57872903D01*
X109215868Y-57853132D01*
X109196097Y-57831318D01*
X109178559Y-57807671D01*
X109163424Y-57782419D01*
X109150836Y-57755805D01*
X109140918Y-57728085D01*
X109133764Y-57699527D01*
X109129445Y-57670405D01*
X109128000Y-57641000D01*
X109128000Y-57041000D01*
X109129445Y-57011595D01*
X109133764Y-56982473D01*
X109140918Y-56953915D01*
X109150836Y-56926195D01*
X109163424Y-56899581D01*
X109178559Y-56874329D01*
X109196097Y-56850682D01*
X109215868Y-56828868D01*
X109237682Y-56809097D01*
X109261329Y-56791559D01*
X109286581Y-56776424D01*
X109313195Y-56763836D01*
X109340915Y-56753918D01*
X109369473Y-56746764D01*
X109398595Y-56742445D01*
X109428000Y-56741000D01*
X110028000Y-56741000D01*
X110057405Y-56742445D01*
X110057405Y-56742445D01*
G37*
D21*
X109728000Y-57341000D03*
D12*
G36*
X110057405Y-58392445D02*
X110086527Y-58396764D01*
X110115085Y-58403918D01*
X110142805Y-58413836D01*
X110169419Y-58426424D01*
X110194671Y-58441559D01*
X110218318Y-58459097D01*
X110240132Y-58478868D01*
X110259903Y-58500682D01*
X110277441Y-58524329D01*
X110292576Y-58549581D01*
X110305164Y-58576195D01*
X110315082Y-58603915D01*
X110322236Y-58632473D01*
X110326555Y-58661595D01*
X110328000Y-58691000D01*
X110328000Y-59291000D01*
X110326555Y-59320405D01*
X110322236Y-59349527D01*
X110315082Y-59378085D01*
X110305164Y-59405805D01*
X110292576Y-59432419D01*
X110277441Y-59457671D01*
X110259903Y-59481318D01*
X110240132Y-59503132D01*
X110218318Y-59522903D01*
X110194671Y-59540441D01*
X110169419Y-59555576D01*
X110142805Y-59568164D01*
X110115085Y-59578082D01*
X110086527Y-59585236D01*
X110057405Y-59589555D01*
X110028000Y-59591000D01*
X109428000Y-59591000D01*
X109398595Y-59589555D01*
X109369473Y-59585236D01*
X109340915Y-59578082D01*
X109313195Y-59568164D01*
X109286581Y-59555576D01*
X109261329Y-59540441D01*
X109237682Y-59522903D01*
X109215868Y-59503132D01*
X109196097Y-59481318D01*
X109178559Y-59457671D01*
X109163424Y-59432419D01*
X109150836Y-59405805D01*
X109140918Y-59378085D01*
X109133764Y-59349527D01*
X109129445Y-59320405D01*
X109128000Y-59291000D01*
X109128000Y-58691000D01*
X109129445Y-58661595D01*
X109133764Y-58632473D01*
X109140918Y-58603915D01*
X109150836Y-58576195D01*
X109163424Y-58549581D01*
X109178559Y-58524329D01*
X109196097Y-58500682D01*
X109215868Y-58478868D01*
X109237682Y-58459097D01*
X109261329Y-58441559D01*
X109286581Y-58426424D01*
X109313195Y-58413836D01*
X109340915Y-58403918D01*
X109369473Y-58396764D01*
X109398595Y-58392445D01*
X109428000Y-58391000D01*
X110028000Y-58391000D01*
X110057405Y-58392445D01*
X110057405Y-58392445D01*
G37*
D21*
X109728000Y-58991000D03*
G04 #@! TD*
D12*
G04 #@! TO.C,D3*
G36*
X112597405Y-58392445D02*
X112626527Y-58396764D01*
X112655085Y-58403918D01*
X112682805Y-58413836D01*
X112709419Y-58426424D01*
X112734671Y-58441559D01*
X112758318Y-58459097D01*
X112780132Y-58478868D01*
X112799903Y-58500682D01*
X112817441Y-58524329D01*
X112832576Y-58549581D01*
X112845164Y-58576195D01*
X112855082Y-58603915D01*
X112862236Y-58632473D01*
X112866555Y-58661595D01*
X112868000Y-58691000D01*
X112868000Y-59291000D01*
X112866555Y-59320405D01*
X112862236Y-59349527D01*
X112855082Y-59378085D01*
X112845164Y-59405805D01*
X112832576Y-59432419D01*
X112817441Y-59457671D01*
X112799903Y-59481318D01*
X112780132Y-59503132D01*
X112758318Y-59522903D01*
X112734671Y-59540441D01*
X112709419Y-59555576D01*
X112682805Y-59568164D01*
X112655085Y-59578082D01*
X112626527Y-59585236D01*
X112597405Y-59589555D01*
X112568000Y-59591000D01*
X111968000Y-59591000D01*
X111938595Y-59589555D01*
X111909473Y-59585236D01*
X111880915Y-59578082D01*
X111853195Y-59568164D01*
X111826581Y-59555576D01*
X111801329Y-59540441D01*
X111777682Y-59522903D01*
X111755868Y-59503132D01*
X111736097Y-59481318D01*
X111718559Y-59457671D01*
X111703424Y-59432419D01*
X111690836Y-59405805D01*
X111680918Y-59378085D01*
X111673764Y-59349527D01*
X111669445Y-59320405D01*
X111668000Y-59291000D01*
X111668000Y-58691000D01*
X111669445Y-58661595D01*
X111673764Y-58632473D01*
X111680918Y-58603915D01*
X111690836Y-58576195D01*
X111703424Y-58549581D01*
X111718559Y-58524329D01*
X111736097Y-58500682D01*
X111755868Y-58478868D01*
X111777682Y-58459097D01*
X111801329Y-58441559D01*
X111826581Y-58426424D01*
X111853195Y-58413836D01*
X111880915Y-58403918D01*
X111909473Y-58396764D01*
X111938595Y-58392445D01*
X111968000Y-58391000D01*
X112568000Y-58391000D01*
X112597405Y-58392445D01*
X112597405Y-58392445D01*
G37*
D21*
X112268000Y-58991000D03*
D12*
G36*
X112597405Y-56742445D02*
X112626527Y-56746764D01*
X112655085Y-56753918D01*
X112682805Y-56763836D01*
X112709419Y-56776424D01*
X112734671Y-56791559D01*
X112758318Y-56809097D01*
X112780132Y-56828868D01*
X112799903Y-56850682D01*
X112817441Y-56874329D01*
X112832576Y-56899581D01*
X112845164Y-56926195D01*
X112855082Y-56953915D01*
X112862236Y-56982473D01*
X112866555Y-57011595D01*
X112868000Y-57041000D01*
X112868000Y-57641000D01*
X112866555Y-57670405D01*
X112862236Y-57699527D01*
X112855082Y-57728085D01*
X112845164Y-57755805D01*
X112832576Y-57782419D01*
X112817441Y-57807671D01*
X112799903Y-57831318D01*
X112780132Y-57853132D01*
X112758318Y-57872903D01*
X112734671Y-57890441D01*
X112709419Y-57905576D01*
X112682805Y-57918164D01*
X112655085Y-57928082D01*
X112626527Y-57935236D01*
X112597405Y-57939555D01*
X112568000Y-57941000D01*
X111968000Y-57941000D01*
X111938595Y-57939555D01*
X111909473Y-57935236D01*
X111880915Y-57928082D01*
X111853195Y-57918164D01*
X111826581Y-57905576D01*
X111801329Y-57890441D01*
X111777682Y-57872903D01*
X111755868Y-57853132D01*
X111736097Y-57831318D01*
X111718559Y-57807671D01*
X111703424Y-57782419D01*
X111690836Y-57755805D01*
X111680918Y-57728085D01*
X111673764Y-57699527D01*
X111669445Y-57670405D01*
X111668000Y-57641000D01*
X111668000Y-57041000D01*
X111669445Y-57011595D01*
X111673764Y-56982473D01*
X111680918Y-56953915D01*
X111690836Y-56926195D01*
X111703424Y-56899581D01*
X111718559Y-56874329D01*
X111736097Y-56850682D01*
X111755868Y-56828868D01*
X111777682Y-56809097D01*
X111801329Y-56791559D01*
X111826581Y-56776424D01*
X111853195Y-56763836D01*
X111880915Y-56753918D01*
X111909473Y-56746764D01*
X111938595Y-56742445D01*
X111968000Y-56741000D01*
X112568000Y-56741000D01*
X112597405Y-56742445D01*
X112597405Y-56742445D01*
G37*
D21*
X112268000Y-57341000D03*
G04 #@! TD*
D12*
G04 #@! TO.C,D4*
G36*
X115137405Y-56742445D02*
X115166527Y-56746764D01*
X115195085Y-56753918D01*
X115222805Y-56763836D01*
X115249419Y-56776424D01*
X115274671Y-56791559D01*
X115298318Y-56809097D01*
X115320132Y-56828868D01*
X115339903Y-56850682D01*
X115357441Y-56874329D01*
X115372576Y-56899581D01*
X115385164Y-56926195D01*
X115395082Y-56953915D01*
X115402236Y-56982473D01*
X115406555Y-57011595D01*
X115408000Y-57041000D01*
X115408000Y-57641000D01*
X115406555Y-57670405D01*
X115402236Y-57699527D01*
X115395082Y-57728085D01*
X115385164Y-57755805D01*
X115372576Y-57782419D01*
X115357441Y-57807671D01*
X115339903Y-57831318D01*
X115320132Y-57853132D01*
X115298318Y-57872903D01*
X115274671Y-57890441D01*
X115249419Y-57905576D01*
X115222805Y-57918164D01*
X115195085Y-57928082D01*
X115166527Y-57935236D01*
X115137405Y-57939555D01*
X115108000Y-57941000D01*
X114508000Y-57941000D01*
X114478595Y-57939555D01*
X114449473Y-57935236D01*
X114420915Y-57928082D01*
X114393195Y-57918164D01*
X114366581Y-57905576D01*
X114341329Y-57890441D01*
X114317682Y-57872903D01*
X114295868Y-57853132D01*
X114276097Y-57831318D01*
X114258559Y-57807671D01*
X114243424Y-57782419D01*
X114230836Y-57755805D01*
X114220918Y-57728085D01*
X114213764Y-57699527D01*
X114209445Y-57670405D01*
X114208000Y-57641000D01*
X114208000Y-57041000D01*
X114209445Y-57011595D01*
X114213764Y-56982473D01*
X114220918Y-56953915D01*
X114230836Y-56926195D01*
X114243424Y-56899581D01*
X114258559Y-56874329D01*
X114276097Y-56850682D01*
X114295868Y-56828868D01*
X114317682Y-56809097D01*
X114341329Y-56791559D01*
X114366581Y-56776424D01*
X114393195Y-56763836D01*
X114420915Y-56753918D01*
X114449473Y-56746764D01*
X114478595Y-56742445D01*
X114508000Y-56741000D01*
X115108000Y-56741000D01*
X115137405Y-56742445D01*
X115137405Y-56742445D01*
G37*
D21*
X114808000Y-57341000D03*
D12*
G36*
X115137405Y-58392445D02*
X115166527Y-58396764D01*
X115195085Y-58403918D01*
X115222805Y-58413836D01*
X115249419Y-58426424D01*
X115274671Y-58441559D01*
X115298318Y-58459097D01*
X115320132Y-58478868D01*
X115339903Y-58500682D01*
X115357441Y-58524329D01*
X115372576Y-58549581D01*
X115385164Y-58576195D01*
X115395082Y-58603915D01*
X115402236Y-58632473D01*
X115406555Y-58661595D01*
X115408000Y-58691000D01*
X115408000Y-59291000D01*
X115406555Y-59320405D01*
X115402236Y-59349527D01*
X115395082Y-59378085D01*
X115385164Y-59405805D01*
X115372576Y-59432419D01*
X115357441Y-59457671D01*
X115339903Y-59481318D01*
X115320132Y-59503132D01*
X115298318Y-59522903D01*
X115274671Y-59540441D01*
X115249419Y-59555576D01*
X115222805Y-59568164D01*
X115195085Y-59578082D01*
X115166527Y-59585236D01*
X115137405Y-59589555D01*
X115108000Y-59591000D01*
X114508000Y-59591000D01*
X114478595Y-59589555D01*
X114449473Y-59585236D01*
X114420915Y-59578082D01*
X114393195Y-59568164D01*
X114366581Y-59555576D01*
X114341329Y-59540441D01*
X114317682Y-59522903D01*
X114295868Y-59503132D01*
X114276097Y-59481318D01*
X114258559Y-59457671D01*
X114243424Y-59432419D01*
X114230836Y-59405805D01*
X114220918Y-59378085D01*
X114213764Y-59349527D01*
X114209445Y-59320405D01*
X114208000Y-59291000D01*
X114208000Y-58691000D01*
X114209445Y-58661595D01*
X114213764Y-58632473D01*
X114220918Y-58603915D01*
X114230836Y-58576195D01*
X114243424Y-58549581D01*
X114258559Y-58524329D01*
X114276097Y-58500682D01*
X114295868Y-58478868D01*
X114317682Y-58459097D01*
X114341329Y-58441559D01*
X114366581Y-58426424D01*
X114393195Y-58413836D01*
X114420915Y-58403918D01*
X114449473Y-58396764D01*
X114478595Y-58392445D01*
X114508000Y-58391000D01*
X115108000Y-58391000D01*
X115137405Y-58392445D01*
X115137405Y-58392445D01*
G37*
D21*
X114808000Y-58991000D03*
G04 #@! TD*
D12*
G04 #@! TO.C,D5*
G36*
X117677405Y-58392445D02*
X117706527Y-58396764D01*
X117735085Y-58403918D01*
X117762805Y-58413836D01*
X117789419Y-58426424D01*
X117814671Y-58441559D01*
X117838318Y-58459097D01*
X117860132Y-58478868D01*
X117879903Y-58500682D01*
X117897441Y-58524329D01*
X117912576Y-58549581D01*
X117925164Y-58576195D01*
X117935082Y-58603915D01*
X117942236Y-58632473D01*
X117946555Y-58661595D01*
X117948000Y-58691000D01*
X117948000Y-59291000D01*
X117946555Y-59320405D01*
X117942236Y-59349527D01*
X117935082Y-59378085D01*
X117925164Y-59405805D01*
X117912576Y-59432419D01*
X117897441Y-59457671D01*
X117879903Y-59481318D01*
X117860132Y-59503132D01*
X117838318Y-59522903D01*
X117814671Y-59540441D01*
X117789419Y-59555576D01*
X117762805Y-59568164D01*
X117735085Y-59578082D01*
X117706527Y-59585236D01*
X117677405Y-59589555D01*
X117648000Y-59591000D01*
X117048000Y-59591000D01*
X117018595Y-59589555D01*
X116989473Y-59585236D01*
X116960915Y-59578082D01*
X116933195Y-59568164D01*
X116906581Y-59555576D01*
X116881329Y-59540441D01*
X116857682Y-59522903D01*
X116835868Y-59503132D01*
X116816097Y-59481318D01*
X116798559Y-59457671D01*
X116783424Y-59432419D01*
X116770836Y-59405805D01*
X116760918Y-59378085D01*
X116753764Y-59349527D01*
X116749445Y-59320405D01*
X116748000Y-59291000D01*
X116748000Y-58691000D01*
X116749445Y-58661595D01*
X116753764Y-58632473D01*
X116760918Y-58603915D01*
X116770836Y-58576195D01*
X116783424Y-58549581D01*
X116798559Y-58524329D01*
X116816097Y-58500682D01*
X116835868Y-58478868D01*
X116857682Y-58459097D01*
X116881329Y-58441559D01*
X116906581Y-58426424D01*
X116933195Y-58413836D01*
X116960915Y-58403918D01*
X116989473Y-58396764D01*
X117018595Y-58392445D01*
X117048000Y-58391000D01*
X117648000Y-58391000D01*
X117677405Y-58392445D01*
X117677405Y-58392445D01*
G37*
D21*
X117348000Y-58991000D03*
D12*
G36*
X117677405Y-56742445D02*
X117706527Y-56746764D01*
X117735085Y-56753918D01*
X117762805Y-56763836D01*
X117789419Y-56776424D01*
X117814671Y-56791559D01*
X117838318Y-56809097D01*
X117860132Y-56828868D01*
X117879903Y-56850682D01*
X117897441Y-56874329D01*
X117912576Y-56899581D01*
X117925164Y-56926195D01*
X117935082Y-56953915D01*
X117942236Y-56982473D01*
X117946555Y-57011595D01*
X117948000Y-57041000D01*
X117948000Y-57641000D01*
X117946555Y-57670405D01*
X117942236Y-57699527D01*
X117935082Y-57728085D01*
X117925164Y-57755805D01*
X117912576Y-57782419D01*
X117897441Y-57807671D01*
X117879903Y-57831318D01*
X117860132Y-57853132D01*
X117838318Y-57872903D01*
X117814671Y-57890441D01*
X117789419Y-57905576D01*
X117762805Y-57918164D01*
X117735085Y-57928082D01*
X117706527Y-57935236D01*
X117677405Y-57939555D01*
X117648000Y-57941000D01*
X117048000Y-57941000D01*
X117018595Y-57939555D01*
X116989473Y-57935236D01*
X116960915Y-57928082D01*
X116933195Y-57918164D01*
X116906581Y-57905576D01*
X116881329Y-57890441D01*
X116857682Y-57872903D01*
X116835868Y-57853132D01*
X116816097Y-57831318D01*
X116798559Y-57807671D01*
X116783424Y-57782419D01*
X116770836Y-57755805D01*
X116760918Y-57728085D01*
X116753764Y-57699527D01*
X116749445Y-57670405D01*
X116748000Y-57641000D01*
X116748000Y-57041000D01*
X116749445Y-57011595D01*
X116753764Y-56982473D01*
X116760918Y-56953915D01*
X116770836Y-56926195D01*
X116783424Y-56899581D01*
X116798559Y-56874329D01*
X116816097Y-56850682D01*
X116835868Y-56828868D01*
X116857682Y-56809097D01*
X116881329Y-56791559D01*
X116906581Y-56776424D01*
X116933195Y-56763836D01*
X116960915Y-56753918D01*
X116989473Y-56746764D01*
X117018595Y-56742445D01*
X117048000Y-56741000D01*
X117648000Y-56741000D01*
X117677405Y-56742445D01*
X117677405Y-56742445D01*
G37*
D21*
X117348000Y-57341000D03*
G04 #@! TD*
M02*
