M48
;DRILL file {KiCad (5.0.0-rc2-dev-444-g2974a2c10)} date 06/15/18 13:30:22
;FORMAT={-:-/ absolute / inch / decimal}
FMAT,2
INCH,TZ
T1C0.0236
T2C0.0315
T3C0.0394
T4C0.0400
T5C0.0512
T6C0.1260
%
G90
G05
M72
T1
X19.1Y-7.93
X19.19Y-7.877
X19.3Y-7.8224
X19.4Y-7.7679
X19.5Y-7.7134
X19.6Y-7.6589
X19.7Y-7.6043
X19.8Y-7.5498
T2
X18.02Y-8.0982
X18.02Y-8.3982
X16.04Y-8.0982
X16.04Y-8.3982
X20.14Y-8.0982
X20.14Y-8.3982
X18.17Y-8.0982
X18.17Y-8.3982
X14.07Y-8.0982
X14.07Y-8.3982
X16.2Y-8.0982
X16.2Y-8.3982
X14.23Y-8.0982
X14.23Y-8.3982
X19.99Y-8.0982
X19.99Y-8.3982
T3
X18.5039Y-7.3862
X18.5039Y-7.4953
X18.5039Y-7.6043
X18.5039Y-7.7134
X18.5039Y-7.8224
X18.5039Y-7.9315
X18.5039Y-8.0406
X18.5039Y-8.1496
X18.6157Y-7.4407
X18.6157Y-7.5498
X18.6157Y-7.6589
X18.6157Y-7.7679
X18.6157Y-7.877
X18.6157Y-7.986
X18.6157Y-8.0951
X15.61Y-7.14
X15.61Y-7.4353
X16.5354Y-7.3862
X16.5354Y-7.4953
X16.5354Y-7.6043
X16.5354Y-7.7134
X16.5354Y-7.8224
X16.5354Y-7.9315
X16.5354Y-8.0406
X16.5354Y-8.1496
X16.6472Y-7.4407
X16.6472Y-7.5498
X16.6472Y-7.6589
X16.6472Y-7.7679
X16.6472Y-7.877
X16.6472Y-7.986
X16.6472Y-8.0951
X14.5669Y-7.3862
X14.5669Y-7.4953
X14.5669Y-7.6043
X14.5669Y-7.7134
X14.5669Y-7.8224
X14.5669Y-7.9315
X14.5669Y-8.0406
X14.5669Y-8.1496
X14.6787Y-7.4407
X14.6787Y-7.5498
X14.6787Y-7.6589
X14.6787Y-7.7679
X14.6787Y-7.877
X14.6787Y-7.986
X14.6787Y-8.0951
X20.4724Y-7.3862
X20.4724Y-7.4953
X20.4724Y-7.6043
X20.4724Y-7.7134
X20.4724Y-7.8224
X20.4724Y-7.9315
X20.4724Y-8.0406
X20.4724Y-8.1496
X20.5843Y-7.4407
X20.5843Y-7.5498
X20.5843Y-7.6589
X20.5843Y-7.7679
X20.5843Y-7.877
X20.5843Y-7.986
X20.5843Y-8.0951
T4
X19.3Y-8.7
X19.3Y-8.8
X19.4Y-8.7
X19.4Y-8.8
X19.5Y-8.7
X19.5Y-8.8
X19.6Y-8.7
X19.6Y-8.8
X19.7Y-8.7
X19.7Y-8.8
T5
X20.315Y-8.8189
X20.515Y-8.8189
X20.715Y-8.8189
X18.3465Y-8.8189
X18.5465Y-8.8189
X18.7465Y-8.8189
X14.4094Y-8.8189
X14.6094Y-8.8189
X14.8094Y-8.8189
X16.378Y-8.8189
X16.578Y-8.8189
X16.778Y-8.8189
T6
X16.5913Y-7.1124
X16.5913Y-8.4234
X14.6228Y-7.1124
X14.6228Y-8.4234
X20.5283Y-7.1124
X20.5283Y-8.4234
X18.5598Y-7.1124
X18.5598Y-8.4234
T0
M30
