G04 #@! TF.GenerationSoftware,KiCad,Pcbnew,(5.0.0-rc2-dev-444-g2974a2c10)*
G04 #@! TF.CreationDate,2018-05-11T00:11:58+02:00*
G04 #@! TF.ProjectId,TrackAmplifier,547261636B416D706C69666965722E6B,rev?*
G04 #@! TF.SameCoordinates,Original*
G04 #@! TF.FileFunction,Soldermask,Bot*
G04 #@! TF.FilePolarity,Negative*
%FSLAX46Y46*%
G04 Gerber Fmt 4.6, Leading zero omitted, Abs format (unit mm)*
G04 Created by KiCad (PCBNEW (5.0.0-rc2-dev-444-g2974a2c10)) date 05/11/18 00:11:58*
%MOMM*%
%LPD*%
G01*
G04 APERTURE LIST*
%ADD10R,2.900000X2.900000*%
%ADD11C,2.900000*%
%ADD12O,3.900000X3.900000*%
%ADD13O,2.300000X2.800000*%
%ADD14R,2.400000X2.000000*%
%ADD15O,2.400000X2.000000*%
%ADD16C,5.400000*%
%ADD17R,2.100000X2.900000*%
%ADD18O,2.100000X2.900000*%
%ADD19R,1.620000X2.200000*%
%ADD20R,2.000000X2.000000*%
%ADD21C,2.000000*%
%ADD22R,2.200000X1.620000*%
%ADD23C,1.700000*%
%ADD24R,1.700000X1.700000*%
%ADD25C,7.800000*%
%ADD26C,1.200000*%
%ADD27R,2.400000X2.400000*%
%ADD28C,2.400000*%
G04 APERTURE END LIST*
D10*
X84544000Y-114843800D03*
D11*
X64544000Y-114843800D03*
X84544000Y-102343800D03*
X64544000Y-102343800D03*
D10*
X64605000Y-55230000D03*
D11*
X84605000Y-55230000D03*
X64605000Y-67730000D03*
X84605000Y-67730000D03*
D12*
X137320000Y-97360000D03*
D13*
X145820000Y-77760000D03*
X144120000Y-80900000D03*
X142420000Y-77760000D03*
X140720000Y-80900000D03*
X139020000Y-77760000D03*
X137320000Y-80900000D03*
X135620000Y-77760000D03*
X133920000Y-80900000D03*
X132220000Y-77760000D03*
X130520000Y-80900000D03*
X128820000Y-77760000D03*
D14*
X59800000Y-94390000D03*
D15*
X59800000Y-91620000D03*
X59800000Y-88850000D03*
X59800000Y-86080000D03*
X59800000Y-83310000D03*
X59800000Y-80540000D03*
X59800000Y-77770000D03*
X59800000Y-75000000D03*
X56960000Y-93005000D03*
X56960000Y-90235000D03*
X56960000Y-87465000D03*
X56960000Y-84695000D03*
X56960000Y-81925000D03*
X56960000Y-79155000D03*
X56960000Y-76385000D03*
D16*
X59500000Y-101345000D03*
X59500000Y-68045000D03*
D17*
X132423000Y-53325000D03*
D18*
X134963000Y-53325000D03*
X137503000Y-53325000D03*
X140043000Y-53325000D03*
X142583000Y-53325000D03*
X145123000Y-53325000D03*
D19*
X142235000Y-87615000D03*
X139375000Y-87615000D03*
X139375000Y-85075000D03*
X142235000Y-85075000D03*
D20*
X111595000Y-61580000D03*
D21*
X111595000Y-59080000D03*
D22*
X149060000Y-80790000D03*
X149060000Y-77930000D03*
D19*
X131440000Y-85075000D03*
X128580000Y-85075000D03*
D23*
X119596000Y-96505000D03*
X120866000Y-95235000D03*
D24*
X120866000Y-97775000D03*
D25*
X137317013Y-97367015D03*
D26*
X134542013Y-97367015D03*
X135354792Y-95404794D03*
X137317013Y-94592015D03*
X139279234Y-95404794D03*
X140092013Y-97367015D03*
X139279234Y-99329236D03*
X137317013Y-100142015D03*
X135354792Y-99329236D03*
D27*
X127470000Y-62977000D03*
D28*
X122470000Y-62977000D03*
M02*
