M48
;DRILL file {KiCad (5.0.0-rc2-dev-444-g2974a2c10)} date 05/11/18 00:12:03
;FORMAT={-:-/ absolute / inch / decimal}
FMAT,2
INCH,TZ
T1C0.0118
T2C0.0197
T3C0.0236
T4C0.0295
T5C0.0315
T6C0.0394
T7C0.0433
T8C0.0472
T9C0.0512
T10C0.1260
T11C0.1457
T12C0.1378
%
G90
G05
M72
T1
X2.4335Y-3.0844
X2.4335Y-3.4094
X2.4335Y-3.4944
X2.5185Y-3.1544
X2.5185Y-3.2544
X3.7315Y-4.3944
X3.7685Y-4.3944
X4.3063Y-4.3944
T2
X5.2969Y-3.8333
X5.3289Y-3.7561
X5.3289Y-3.9106
X5.4062Y-3.7241
X5.4062Y-3.9426
X5.4834Y-3.7561
X5.4834Y-3.9106
X5.5154Y-3.8333
T3
X2.6685Y-3.1981
X2.6985Y-2.9744
X2.6985Y-3.0294
X2.7272Y-3.6807
X2.8135Y-3.6394
X2.8435Y-3.6894
X2.8932Y-2.9344
X2.8935Y-3.7044
X3.0135Y-2.9344
X3.0885Y-3.2194
X3.1385Y-3.005
X3.1435Y-3.1744
X3.1435Y-3.3893
X3.1635Y-2.8994
X3.2435Y-3.6844
X3.3435Y-3.0094
X3.3435Y-3.6994
X3.3885Y-2.3644
X3.4235Y-3.0994
X3.4835Y-3.7694
X3.4935Y-2.3655
X3.5185Y-3.4244
X3.5185Y-3.5244
X3.5185Y-3.9994
X3.5292Y-2.9881
X3.5935Y-2.3655
X3.5935Y-3.6894
X3.6685Y-3.5194
X3.6935Y-2.3655
X3.7185Y-2.7494
X3.7185Y-3.9994
X3.7315Y-4.6494
X3.7935Y-2.3655
X3.8435Y-2.9494
X3.8585Y-2.1794
X3.8585Y-2.5594
X3.8635Y-3.8194
X3.8685Y-4.2244
X3.8776Y-3.2983
X3.8785Y-3.6894
X3.8811Y-3.3988
X3.9185Y-3.9994
X3.9285Y-3.1494
X3.9285Y-3.2994
X3.9285Y-3.7444
X3.9685Y-2.1794
X3.9685Y-2.5594
X3.9785Y-3.7444
X3.9785Y-3.8194
X4.0435Y-4.1694
X4.0735Y-2.1794
X4.0735Y-2.5594
X4.0835Y-3.5494
X4.0835Y-3.7694
X4.1735Y-2.1794
X4.1735Y-2.2744
X4.1735Y-2.3644
X4.1735Y-2.4644
X4.1735Y-2.5594
X4.2635Y-2.9894
X4.2685Y-3.4994
X4.2685Y-3.9994
X4.3085Y-2.9494
X4.3235Y-4.5494
X4.3285Y-3.7994
X4.3685Y-3.9994
X4.3885Y-4.5494
X4.4185Y-4.2244
X4.4385Y-3.7994
X4.4685Y-3.4994
X4.5685Y-3.4994
X4.5985Y-4.2244
X4.6135Y-3.9044
X4.6435Y-2.6294
X4.7385Y-3.6494
X5.2335Y-2.7544
X5.2935Y-2.8694
X5.4185Y-2.8694
X5.5185Y-2.7544
X5.6685Y-2.7544
X5.6685Y-2.8694
X5.8235Y-2.7894
T4
X4.7085Y-3.7994
X4.7585Y-3.7494
X4.7585Y-3.8494
T5
X4.3935Y-2.326
X4.3935Y-2.4244
T6
X5.2135Y-2.0994
X5.3135Y-2.0994
X5.4135Y-2.0994
X5.5135Y-2.0994
X5.6135Y-2.0994
X5.7135Y-2.0994
X4.8217Y-2.4794
X5.0185Y-2.4794
X2.2425Y-3.0073
X2.2425Y-3.1163
X2.2425Y-3.2254
X2.2425Y-3.3344
X2.2425Y-3.4435
X2.2425Y-3.5526
X2.2425Y-3.6616
X2.3543Y-2.9528
X2.3543Y-3.0618
X2.3543Y-3.1709
X2.3543Y-3.2799
X2.3543Y-3.389
X2.3543Y-3.498
X2.3543Y-3.6071
X2.3543Y-3.7161
T7
X5.0717Y-3.0732
X5.1386Y-3.1732
X5.2055Y-3.0732
X5.2724Y-3.1732
X5.3394Y-3.0732
X5.4063Y-3.1732
X5.4732Y-3.0732
X5.5402Y-3.1732
X5.6071Y-3.0732
X5.674Y-3.1732
X5.7409Y-3.0732
T8
X2.9935Y-2.1744
X2.9935Y-2.6744
X2.9935Y-4.0244
X2.9935Y-4.5244
X4.4685Y-2.0744
X4.7935Y-2.1494
X4.9685Y-3.6744
X4.9685Y-3.9994
X4.9685Y-4.3244
X5.2435Y-3.6744
X5.2435Y-3.9994
X5.2435Y-4.3244
X5.5685Y-3.6744
X5.5685Y-3.9994
X5.5685Y-4.3244
X5.9185Y-3.6744
X5.9185Y-3.9994
X5.9185Y-4.3244
T9
X2.5411Y-4.0293
X2.5411Y-4.5214
X3.3285Y-4.0293
X3.3285Y-4.5214
X2.5435Y-2.1744
X2.5435Y-2.6665
X3.3309Y-2.1744
X3.3309Y-2.6665
T10
X2.3425Y-2.6789
X2.3425Y-3.99
T11
X5.4062Y-3.8333
T12
X5.4063Y-3.8331
T0
M30
