G04 #@! TF.GenerationSoftware,KiCad,Pcbnew,(5.1.9)-1*
G04 #@! TF.CreationDate,2022-12-30T13:41:52+01:00*
G04 #@! TF.ProjectId,FallerCarSystem_v2,46616c6c-6572-4436-9172-53797374656d,rev?*
G04 #@! TF.SameCoordinates,Original*
G04 #@! TF.FileFunction,Copper,L1,Top*
G04 #@! TF.FilePolarity,Positive*
%FSLAX46Y46*%
G04 Gerber Fmt 4.6, Leading zero omitted, Abs format (unit mm)*
G04 Created by KiCad (PCBNEW (5.1.9)-1) date 2022-12-30 13:41:52*
%MOMM*%
%LPD*%
G01*
G04 APERTURE LIST*
G04 #@! TA.AperFunction,ComponentPad*
%ADD10C,0.500000*%
G04 #@! TD*
G04 #@! TA.AperFunction,SMDPad,CuDef*
%ADD11R,2.500000X2.500000*%
G04 #@! TD*
G04 #@! TA.AperFunction,ComponentPad*
%ADD12C,0.400000*%
G04 #@! TD*
G04 #@! TA.AperFunction,SMDPad,CuDef*
%ADD13R,1.360000X1.460000*%
G04 #@! TD*
G04 #@! TA.AperFunction,SMDPad,CuDef*
%ADD14R,0.750000X0.300000*%
G04 #@! TD*
G04 #@! TA.AperFunction,SMDPad,CuDef*
%ADD15R,0.500000X1.000000*%
G04 #@! TD*
G04 #@! TA.AperFunction,SMDPad,CuDef*
%ADD16R,1.000000X0.500000*%
G04 #@! TD*
G04 #@! TA.AperFunction,SMDPad,CuDef*
%ADD17R,1.800000X2.500000*%
G04 #@! TD*
G04 #@! TA.AperFunction,SMDPad,CuDef*
%ADD18R,2.700000X2.700000*%
G04 #@! TD*
G04 #@! TA.AperFunction,ViaPad*
%ADD19C,0.800000*%
G04 #@! TD*
G04 #@! TA.AperFunction,ViaPad*
%ADD20C,0.400000*%
G04 #@! TD*
G04 #@! TA.AperFunction,Conductor*
%ADD21C,0.300000*%
G04 #@! TD*
G04 #@! TA.AperFunction,Conductor*
%ADD22C,0.127000*%
G04 #@! TD*
G04 #@! TA.AperFunction,Conductor*
%ADD23C,0.200000*%
G04 #@! TD*
G04 APERTURE END LIST*
D10*
X156470000Y-64542000D03*
X158470000Y-64542000D03*
X156470000Y-66542000D03*
X158470000Y-66542000D03*
D11*
X157470000Y-65542000D03*
G04 #@! TA.AperFunction,SMDPad,CuDef*
G36*
G01*
X158595000Y-67129500D02*
X158595000Y-67829500D01*
G75*
G02*
X158532500Y-67892000I-62500J0D01*
G01*
X158407500Y-67892000D01*
G75*
G02*
X158345000Y-67829500I0J62500D01*
G01*
X158345000Y-67129500D01*
G75*
G02*
X158407500Y-67067000I62500J0D01*
G01*
X158532500Y-67067000D01*
G75*
G02*
X158595000Y-67129500I0J-62500D01*
G01*
G37*
G04 #@! TD.AperFunction*
G04 #@! TA.AperFunction,SMDPad,CuDef*
G36*
G01*
X158095000Y-67129500D02*
X158095000Y-67829500D01*
G75*
G02*
X158032500Y-67892000I-62500J0D01*
G01*
X157907500Y-67892000D01*
G75*
G02*
X157845000Y-67829500I0J62500D01*
G01*
X157845000Y-67129500D01*
G75*
G02*
X157907500Y-67067000I62500J0D01*
G01*
X158032500Y-67067000D01*
G75*
G02*
X158095000Y-67129500I0J-62500D01*
G01*
G37*
G04 #@! TD.AperFunction*
G04 #@! TA.AperFunction,SMDPad,CuDef*
G36*
G01*
X157595000Y-67129500D02*
X157595000Y-67829500D01*
G75*
G02*
X157532500Y-67892000I-62500J0D01*
G01*
X157407500Y-67892000D01*
G75*
G02*
X157345000Y-67829500I0J62500D01*
G01*
X157345000Y-67129500D01*
G75*
G02*
X157407500Y-67067000I62500J0D01*
G01*
X157532500Y-67067000D01*
G75*
G02*
X157595000Y-67129500I0J-62500D01*
G01*
G37*
G04 #@! TD.AperFunction*
G04 #@! TA.AperFunction,SMDPad,CuDef*
G36*
G01*
X157095000Y-67129500D02*
X157095000Y-67829500D01*
G75*
G02*
X157032500Y-67892000I-62500J0D01*
G01*
X156907500Y-67892000D01*
G75*
G02*
X156845000Y-67829500I0J62500D01*
G01*
X156845000Y-67129500D01*
G75*
G02*
X156907500Y-67067000I62500J0D01*
G01*
X157032500Y-67067000D01*
G75*
G02*
X157095000Y-67129500I0J-62500D01*
G01*
G37*
G04 #@! TD.AperFunction*
G04 #@! TA.AperFunction,SMDPad,CuDef*
G36*
G01*
X156595000Y-67129500D02*
X156595000Y-67829500D01*
G75*
G02*
X156532500Y-67892000I-62500J0D01*
G01*
X156407500Y-67892000D01*
G75*
G02*
X156345000Y-67829500I0J62500D01*
G01*
X156345000Y-67129500D01*
G75*
G02*
X156407500Y-67067000I62500J0D01*
G01*
X156532500Y-67067000D01*
G75*
G02*
X156595000Y-67129500I0J-62500D01*
G01*
G37*
G04 #@! TD.AperFunction*
G04 #@! TA.AperFunction,SMDPad,CuDef*
G36*
G01*
X155945000Y-66479500D02*
X155945000Y-66604500D01*
G75*
G02*
X155882500Y-66667000I-62500J0D01*
G01*
X155182500Y-66667000D01*
G75*
G02*
X155120000Y-66604500I0J62500D01*
G01*
X155120000Y-66479500D01*
G75*
G02*
X155182500Y-66417000I62500J0D01*
G01*
X155882500Y-66417000D01*
G75*
G02*
X155945000Y-66479500I0J-62500D01*
G01*
G37*
G04 #@! TD.AperFunction*
G04 #@! TA.AperFunction,SMDPad,CuDef*
G36*
G01*
X155945000Y-65979500D02*
X155945000Y-66104500D01*
G75*
G02*
X155882500Y-66167000I-62500J0D01*
G01*
X155182500Y-66167000D01*
G75*
G02*
X155120000Y-66104500I0J62500D01*
G01*
X155120000Y-65979500D01*
G75*
G02*
X155182500Y-65917000I62500J0D01*
G01*
X155882500Y-65917000D01*
G75*
G02*
X155945000Y-65979500I0J-62500D01*
G01*
G37*
G04 #@! TD.AperFunction*
G04 #@! TA.AperFunction,SMDPad,CuDef*
G36*
G01*
X155945000Y-65479500D02*
X155945000Y-65604500D01*
G75*
G02*
X155882500Y-65667000I-62500J0D01*
G01*
X155182500Y-65667000D01*
G75*
G02*
X155120000Y-65604500I0J62500D01*
G01*
X155120000Y-65479500D01*
G75*
G02*
X155182500Y-65417000I62500J0D01*
G01*
X155882500Y-65417000D01*
G75*
G02*
X155945000Y-65479500I0J-62500D01*
G01*
G37*
G04 #@! TD.AperFunction*
G04 #@! TA.AperFunction,SMDPad,CuDef*
G36*
G01*
X155945000Y-64979500D02*
X155945000Y-65104500D01*
G75*
G02*
X155882500Y-65167000I-62500J0D01*
G01*
X155182500Y-65167000D01*
G75*
G02*
X155120000Y-65104500I0J62500D01*
G01*
X155120000Y-64979500D01*
G75*
G02*
X155182500Y-64917000I62500J0D01*
G01*
X155882500Y-64917000D01*
G75*
G02*
X155945000Y-64979500I0J-62500D01*
G01*
G37*
G04 #@! TD.AperFunction*
G04 #@! TA.AperFunction,SMDPad,CuDef*
G36*
G01*
X155945000Y-64479500D02*
X155945000Y-64604500D01*
G75*
G02*
X155882500Y-64667000I-62500J0D01*
G01*
X155182500Y-64667000D01*
G75*
G02*
X155120000Y-64604500I0J62500D01*
G01*
X155120000Y-64479500D01*
G75*
G02*
X155182500Y-64417000I62500J0D01*
G01*
X155882500Y-64417000D01*
G75*
G02*
X155945000Y-64479500I0J-62500D01*
G01*
G37*
G04 #@! TD.AperFunction*
G04 #@! TA.AperFunction,SMDPad,CuDef*
G36*
G01*
X156595000Y-63254500D02*
X156595000Y-63954500D01*
G75*
G02*
X156532500Y-64017000I-62500J0D01*
G01*
X156407500Y-64017000D01*
G75*
G02*
X156345000Y-63954500I0J62500D01*
G01*
X156345000Y-63254500D01*
G75*
G02*
X156407500Y-63192000I62500J0D01*
G01*
X156532500Y-63192000D01*
G75*
G02*
X156595000Y-63254500I0J-62500D01*
G01*
G37*
G04 #@! TD.AperFunction*
G04 #@! TA.AperFunction,SMDPad,CuDef*
G36*
G01*
X157095000Y-63254500D02*
X157095000Y-63954500D01*
G75*
G02*
X157032500Y-64017000I-62500J0D01*
G01*
X156907500Y-64017000D01*
G75*
G02*
X156845000Y-63954500I0J62500D01*
G01*
X156845000Y-63254500D01*
G75*
G02*
X156907500Y-63192000I62500J0D01*
G01*
X157032500Y-63192000D01*
G75*
G02*
X157095000Y-63254500I0J-62500D01*
G01*
G37*
G04 #@! TD.AperFunction*
G04 #@! TA.AperFunction,SMDPad,CuDef*
G36*
G01*
X157595000Y-63254500D02*
X157595000Y-63954500D01*
G75*
G02*
X157532500Y-64017000I-62500J0D01*
G01*
X157407500Y-64017000D01*
G75*
G02*
X157345000Y-63954500I0J62500D01*
G01*
X157345000Y-63254500D01*
G75*
G02*
X157407500Y-63192000I62500J0D01*
G01*
X157532500Y-63192000D01*
G75*
G02*
X157595000Y-63254500I0J-62500D01*
G01*
G37*
G04 #@! TD.AperFunction*
G04 #@! TA.AperFunction,SMDPad,CuDef*
G36*
G01*
X158095000Y-63254500D02*
X158095000Y-63954500D01*
G75*
G02*
X158032500Y-64017000I-62500J0D01*
G01*
X157907500Y-64017000D01*
G75*
G02*
X157845000Y-63954500I0J62500D01*
G01*
X157845000Y-63254500D01*
G75*
G02*
X157907500Y-63192000I62500J0D01*
G01*
X158032500Y-63192000D01*
G75*
G02*
X158095000Y-63254500I0J-62500D01*
G01*
G37*
G04 #@! TD.AperFunction*
G04 #@! TA.AperFunction,SMDPad,CuDef*
G36*
G01*
X158595000Y-63254500D02*
X158595000Y-63954500D01*
G75*
G02*
X158532500Y-64017000I-62500J0D01*
G01*
X158407500Y-64017000D01*
G75*
G02*
X158345000Y-63954500I0J62500D01*
G01*
X158345000Y-63254500D01*
G75*
G02*
X158407500Y-63192000I62500J0D01*
G01*
X158532500Y-63192000D01*
G75*
G02*
X158595000Y-63254500I0J-62500D01*
G01*
G37*
G04 #@! TD.AperFunction*
G04 #@! TA.AperFunction,SMDPad,CuDef*
G36*
G01*
X159820000Y-64479500D02*
X159820000Y-64604500D01*
G75*
G02*
X159757500Y-64667000I-62500J0D01*
G01*
X159057500Y-64667000D01*
G75*
G02*
X158995000Y-64604500I0J62500D01*
G01*
X158995000Y-64479500D01*
G75*
G02*
X159057500Y-64417000I62500J0D01*
G01*
X159757500Y-64417000D01*
G75*
G02*
X159820000Y-64479500I0J-62500D01*
G01*
G37*
G04 #@! TD.AperFunction*
G04 #@! TA.AperFunction,SMDPad,CuDef*
G36*
G01*
X159820000Y-64979500D02*
X159820000Y-65104500D01*
G75*
G02*
X159757500Y-65167000I-62500J0D01*
G01*
X159057500Y-65167000D01*
G75*
G02*
X158995000Y-65104500I0J62500D01*
G01*
X158995000Y-64979500D01*
G75*
G02*
X159057500Y-64917000I62500J0D01*
G01*
X159757500Y-64917000D01*
G75*
G02*
X159820000Y-64979500I0J-62500D01*
G01*
G37*
G04 #@! TD.AperFunction*
G04 #@! TA.AperFunction,SMDPad,CuDef*
G36*
G01*
X159820000Y-65479500D02*
X159820000Y-65604500D01*
G75*
G02*
X159757500Y-65667000I-62500J0D01*
G01*
X159057500Y-65667000D01*
G75*
G02*
X158995000Y-65604500I0J62500D01*
G01*
X158995000Y-65479500D01*
G75*
G02*
X159057500Y-65417000I62500J0D01*
G01*
X159757500Y-65417000D01*
G75*
G02*
X159820000Y-65479500I0J-62500D01*
G01*
G37*
G04 #@! TD.AperFunction*
G04 #@! TA.AperFunction,SMDPad,CuDef*
G36*
G01*
X159820000Y-65979500D02*
X159820000Y-66104500D01*
G75*
G02*
X159757500Y-66167000I-62500J0D01*
G01*
X159057500Y-66167000D01*
G75*
G02*
X158995000Y-66104500I0J62500D01*
G01*
X158995000Y-65979500D01*
G75*
G02*
X159057500Y-65917000I62500J0D01*
G01*
X159757500Y-65917000D01*
G75*
G02*
X159820000Y-65979500I0J-62500D01*
G01*
G37*
G04 #@! TD.AperFunction*
G04 #@! TA.AperFunction,SMDPad,CuDef*
G36*
G01*
X159820000Y-66479500D02*
X159820000Y-66604500D01*
G75*
G02*
X159757500Y-66667000I-62500J0D01*
G01*
X159057500Y-66667000D01*
G75*
G02*
X158995000Y-66604500I0J62500D01*
G01*
X158995000Y-66479500D01*
G75*
G02*
X159057500Y-66417000I62500J0D01*
G01*
X159757500Y-66417000D01*
G75*
G02*
X159820000Y-66479500I0J-62500D01*
G01*
G37*
G04 #@! TD.AperFunction*
D12*
X151884800Y-64422400D03*
X151884800Y-65422400D03*
X150984800Y-65422400D03*
X150984800Y-64422400D03*
D13*
X151434800Y-64922400D03*
D14*
X152934800Y-64172400D03*
X152934800Y-64672400D03*
X152934800Y-65172400D03*
X152934800Y-65672400D03*
X149934800Y-65672400D03*
X149934800Y-65172400D03*
X149934800Y-64672400D03*
X149934800Y-64172400D03*
D15*
X151511000Y-55943500D03*
X149479000Y-55943500D03*
X150495000Y-55943500D03*
X144589500Y-55943500D03*
X145542000Y-55943500D03*
X146494500Y-55943500D03*
X147447000Y-55943500D03*
X148399500Y-55943500D03*
X155803600Y-55943500D03*
X156895800Y-55943500D03*
D16*
X161417000Y-67665600D03*
D15*
X154711400Y-55943500D03*
X151765000Y-69240400D03*
X150749000Y-69240400D03*
D16*
X161417000Y-63754000D03*
X161417000Y-62738000D03*
X161417000Y-66751200D03*
X161417000Y-65836800D03*
X141351000Y-59817000D03*
X141351000Y-60833000D03*
X141351000Y-61849000D03*
X141351000Y-62865000D03*
X141351000Y-63881000D03*
X141351000Y-64897000D03*
X141351000Y-65913000D03*
X141351000Y-66929000D03*
X141351000Y-67945000D03*
X141351000Y-68961000D03*
D15*
X144653000Y-69240400D03*
X145669000Y-69240400D03*
D16*
X141351000Y-57785000D03*
X141351000Y-58801000D03*
X141351000Y-55753000D03*
X141351000Y-56769000D03*
D15*
X148717000Y-69240400D03*
X149733000Y-69240400D03*
X146685000Y-69240400D03*
X147701000Y-69240400D03*
G04 #@! TA.AperFunction,SMDPad,CuDef*
G36*
G01*
X154413800Y-65368200D02*
X154043800Y-65368200D01*
G75*
G02*
X153908800Y-65233200I0J135000D01*
G01*
X153908800Y-64963200D01*
G75*
G02*
X154043800Y-64828200I135000J0D01*
G01*
X154413800Y-64828200D01*
G75*
G02*
X154548800Y-64963200I0J-135000D01*
G01*
X154548800Y-65233200D01*
G75*
G02*
X154413800Y-65368200I-135000J0D01*
G01*
G37*
G04 #@! TD.AperFunction*
G04 #@! TA.AperFunction,SMDPad,CuDef*
G36*
G01*
X154413800Y-66388200D02*
X154043800Y-66388200D01*
G75*
G02*
X153908800Y-66253200I0J135000D01*
G01*
X153908800Y-65983200D01*
G75*
G02*
X154043800Y-65848200I135000J0D01*
G01*
X154413800Y-65848200D01*
G75*
G02*
X154548800Y-65983200I0J-135000D01*
G01*
X154548800Y-66253200D01*
G75*
G02*
X154413800Y-66388200I-135000J0D01*
G01*
G37*
G04 #@! TD.AperFunction*
G04 #@! TA.AperFunction,SMDPad,CuDef*
G36*
G01*
X154043800Y-63892400D02*
X154413800Y-63892400D01*
G75*
G02*
X154548800Y-64027400I0J-135000D01*
G01*
X154548800Y-64297400D01*
G75*
G02*
X154413800Y-64432400I-135000J0D01*
G01*
X154043800Y-64432400D01*
G75*
G02*
X153908800Y-64297400I0J135000D01*
G01*
X153908800Y-64027400D01*
G75*
G02*
X154043800Y-63892400I135000J0D01*
G01*
G37*
G04 #@! TD.AperFunction*
G04 #@! TA.AperFunction,SMDPad,CuDef*
G36*
G01*
X154043800Y-62872400D02*
X154413800Y-62872400D01*
G75*
G02*
X154548800Y-63007400I0J-135000D01*
G01*
X154548800Y-63277400D01*
G75*
G02*
X154413800Y-63412400I-135000J0D01*
G01*
X154043800Y-63412400D01*
G75*
G02*
X153908800Y-63277400I0J135000D01*
G01*
X153908800Y-63007400D01*
G75*
G02*
X154043800Y-62872400I135000J0D01*
G01*
G37*
G04 #@! TD.AperFunction*
G04 #@! TA.AperFunction,SMDPad,CuDef*
G36*
G01*
X150934000Y-62136000D02*
X150934000Y-63086000D01*
G75*
G02*
X150684000Y-63336000I-250000J0D01*
G01*
X150184000Y-63336000D01*
G75*
G02*
X149934000Y-63086000I0J250000D01*
G01*
X149934000Y-62136000D01*
G75*
G02*
X150184000Y-61886000I250000J0D01*
G01*
X150684000Y-61886000D01*
G75*
G02*
X150934000Y-62136000I0J-250000D01*
G01*
G37*
G04 #@! TD.AperFunction*
G04 #@! TA.AperFunction,SMDPad,CuDef*
G36*
G01*
X152834000Y-62136000D02*
X152834000Y-63086000D01*
G75*
G02*
X152584000Y-63336000I-250000J0D01*
G01*
X152084000Y-63336000D01*
G75*
G02*
X151834000Y-63086000I0J250000D01*
G01*
X151834000Y-62136000D01*
G75*
G02*
X152084000Y-61886000I250000J0D01*
G01*
X152584000Y-61886000D01*
G75*
G02*
X152834000Y-62136000I0J-250000D01*
G01*
G37*
G04 #@! TD.AperFunction*
G04 #@! TA.AperFunction,SMDPad,CuDef*
G36*
G01*
X155633000Y-68663800D02*
X155633000Y-69613800D01*
G75*
G02*
X155383000Y-69863800I-250000J0D01*
G01*
X154883000Y-69863800D01*
G75*
G02*
X154633000Y-69613800I0J250000D01*
G01*
X154633000Y-68663800D01*
G75*
G02*
X154883000Y-68413800I250000J0D01*
G01*
X155383000Y-68413800D01*
G75*
G02*
X155633000Y-68663800I0J-250000D01*
G01*
G37*
G04 #@! TD.AperFunction*
G04 #@! TA.AperFunction,SMDPad,CuDef*
G36*
G01*
X157533000Y-68663800D02*
X157533000Y-69613800D01*
G75*
G02*
X157283000Y-69863800I-250000J0D01*
G01*
X156783000Y-69863800D01*
G75*
G02*
X156533000Y-69613800I0J250000D01*
G01*
X156533000Y-68663800D01*
G75*
G02*
X156783000Y-68413800I250000J0D01*
G01*
X157283000Y-68413800D01*
G75*
G02*
X157533000Y-68663800I0J-250000D01*
G01*
G37*
G04 #@! TD.AperFunction*
G04 #@! TA.AperFunction,SMDPad,CuDef*
G36*
G01*
X157485500Y-58641000D02*
X157485500Y-57691000D01*
G75*
G02*
X157735500Y-57441000I250000J0D01*
G01*
X158235500Y-57441000D01*
G75*
G02*
X158485500Y-57691000I0J-250000D01*
G01*
X158485500Y-58641000D01*
G75*
G02*
X158235500Y-58891000I-250000J0D01*
G01*
X157735500Y-58891000D01*
G75*
G02*
X157485500Y-58641000I0J250000D01*
G01*
G37*
G04 #@! TD.AperFunction*
G04 #@! TA.AperFunction,SMDPad,CuDef*
G36*
G01*
X155585500Y-58641000D02*
X155585500Y-57691000D01*
G75*
G02*
X155835500Y-57441000I250000J0D01*
G01*
X156335500Y-57441000D01*
G75*
G02*
X156585500Y-57691000I0J-250000D01*
G01*
X156585500Y-58641000D01*
G75*
G02*
X156335500Y-58891000I-250000J0D01*
G01*
X155835500Y-58891000D01*
G75*
G02*
X155585500Y-58641000I0J250000D01*
G01*
G37*
G04 #@! TD.AperFunction*
G04 #@! TA.AperFunction,SMDPad,CuDef*
G36*
G01*
X153789400Y-67850600D02*
X152839400Y-67850600D01*
G75*
G02*
X152589400Y-67600600I0J250000D01*
G01*
X152589400Y-67100600D01*
G75*
G02*
X152839400Y-66850600I250000J0D01*
G01*
X153789400Y-66850600D01*
G75*
G02*
X154039400Y-67100600I0J-250000D01*
G01*
X154039400Y-67600600D01*
G75*
G02*
X153789400Y-67850600I-250000J0D01*
G01*
G37*
G04 #@! TD.AperFunction*
G04 #@! TA.AperFunction,SMDPad,CuDef*
G36*
G01*
X153789400Y-69750600D02*
X152839400Y-69750600D01*
G75*
G02*
X152589400Y-69500600I0J250000D01*
G01*
X152589400Y-69000600D01*
G75*
G02*
X152839400Y-68750600I250000J0D01*
G01*
X153789400Y-68750600D01*
G75*
G02*
X154039400Y-69000600I0J-250000D01*
G01*
X154039400Y-69500600D01*
G75*
G02*
X153789400Y-69750600I-250000J0D01*
G01*
G37*
G04 #@! TD.AperFunction*
D17*
X160528000Y-56706000D03*
X160528000Y-60706000D03*
G04 #@! TA.AperFunction,SMDPad,CuDef*
G36*
G01*
X155321500Y-59581000D02*
X155321500Y-59926000D01*
G75*
G02*
X155174000Y-60073500I-147500J0D01*
G01*
X154879000Y-60073500D01*
G75*
G02*
X154731500Y-59926000I0J147500D01*
G01*
X154731500Y-59581000D01*
G75*
G02*
X154879000Y-59433500I147500J0D01*
G01*
X155174000Y-59433500D01*
G75*
G02*
X155321500Y-59581000I0J-147500D01*
G01*
G37*
G04 #@! TD.AperFunction*
G04 #@! TA.AperFunction,SMDPad,CuDef*
G36*
G01*
X156291500Y-59581000D02*
X156291500Y-59926000D01*
G75*
G02*
X156144000Y-60073500I-147500J0D01*
G01*
X155849000Y-60073500D01*
G75*
G02*
X155701500Y-59926000I0J147500D01*
G01*
X155701500Y-59581000D01*
G75*
G02*
X155849000Y-59433500I147500J0D01*
G01*
X156144000Y-59433500D01*
G75*
G02*
X156291500Y-59581000I0J-147500D01*
G01*
G37*
G04 #@! TD.AperFunction*
G04 #@! TA.AperFunction,SMDPad,CuDef*
G36*
G01*
X155321500Y-61867000D02*
X155321500Y-62212000D01*
G75*
G02*
X155174000Y-62359500I-147500J0D01*
G01*
X154879000Y-62359500D01*
G75*
G02*
X154731500Y-62212000I0J147500D01*
G01*
X154731500Y-61867000D01*
G75*
G02*
X154879000Y-61719500I147500J0D01*
G01*
X155174000Y-61719500D01*
G75*
G02*
X155321500Y-61867000I0J-147500D01*
G01*
G37*
G04 #@! TD.AperFunction*
G04 #@! TA.AperFunction,SMDPad,CuDef*
G36*
G01*
X156291500Y-61867000D02*
X156291500Y-62212000D01*
G75*
G02*
X156144000Y-62359500I-147500J0D01*
G01*
X155849000Y-62359500D01*
G75*
G02*
X155701500Y-62212000I0J147500D01*
G01*
X155701500Y-61867000D01*
G75*
G02*
X155849000Y-61719500I147500J0D01*
G01*
X156144000Y-61719500D01*
G75*
G02*
X156291500Y-61867000I0J-147500D01*
G01*
G37*
G04 #@! TD.AperFunction*
G04 #@! TA.AperFunction,SMDPad,CuDef*
G36*
G01*
X155321500Y-60724000D02*
X155321500Y-61069000D01*
G75*
G02*
X155174000Y-61216500I-147500J0D01*
G01*
X154879000Y-61216500D01*
G75*
G02*
X154731500Y-61069000I0J147500D01*
G01*
X154731500Y-60724000D01*
G75*
G02*
X154879000Y-60576500I147500J0D01*
G01*
X155174000Y-60576500D01*
G75*
G02*
X155321500Y-60724000I0J-147500D01*
G01*
G37*
G04 #@! TD.AperFunction*
G04 #@! TA.AperFunction,SMDPad,CuDef*
G36*
G01*
X156291500Y-60724000D02*
X156291500Y-61069000D01*
G75*
G02*
X156144000Y-61216500I-147500J0D01*
G01*
X155849000Y-61216500D01*
G75*
G02*
X155701500Y-61069000I0J147500D01*
G01*
X155701500Y-60724000D01*
G75*
G02*
X155849000Y-60576500I147500J0D01*
G01*
X156144000Y-60576500D01*
G75*
G02*
X156291500Y-60724000I0J-147500D01*
G01*
G37*
G04 #@! TD.AperFunction*
G04 #@! TA.AperFunction,SMDPad,CuDef*
G36*
G01*
X152405500Y-58469500D02*
X152775500Y-58469500D01*
G75*
G02*
X152910500Y-58604500I0J-135000D01*
G01*
X152910500Y-58874500D01*
G75*
G02*
X152775500Y-59009500I-135000J0D01*
G01*
X152405500Y-59009500D01*
G75*
G02*
X152270500Y-58874500I0J135000D01*
G01*
X152270500Y-58604500D01*
G75*
G02*
X152405500Y-58469500I135000J0D01*
G01*
G37*
G04 #@! TD.AperFunction*
G04 #@! TA.AperFunction,SMDPad,CuDef*
G36*
G01*
X152405500Y-57449500D02*
X152775500Y-57449500D01*
G75*
G02*
X152910500Y-57584500I0J-135000D01*
G01*
X152910500Y-57854500D01*
G75*
G02*
X152775500Y-57989500I-135000J0D01*
G01*
X152405500Y-57989500D01*
G75*
G02*
X152270500Y-57854500I0J135000D01*
G01*
X152270500Y-57584500D01*
G75*
G02*
X152405500Y-57449500I135000J0D01*
G01*
G37*
G04 #@! TD.AperFunction*
G04 #@! TA.AperFunction,SMDPad,CuDef*
G36*
G01*
X152405500Y-56437500D02*
X152775500Y-56437500D01*
G75*
G02*
X152910500Y-56572500I0J-135000D01*
G01*
X152910500Y-56842500D01*
G75*
G02*
X152775500Y-56977500I-135000J0D01*
G01*
X152405500Y-56977500D01*
G75*
G02*
X152270500Y-56842500I0J135000D01*
G01*
X152270500Y-56572500D01*
G75*
G02*
X152405500Y-56437500I135000J0D01*
G01*
G37*
G04 #@! TD.AperFunction*
G04 #@! TA.AperFunction,SMDPad,CuDef*
G36*
G01*
X152405500Y-55417500D02*
X152775500Y-55417500D01*
G75*
G02*
X152910500Y-55552500I0J-135000D01*
G01*
X152910500Y-55822500D01*
G75*
G02*
X152775500Y-55957500I-135000J0D01*
G01*
X152405500Y-55957500D01*
G75*
G02*
X152270500Y-55822500I0J135000D01*
G01*
X152270500Y-55552500D01*
G75*
G02*
X152405500Y-55417500I135000J0D01*
G01*
G37*
G04 #@! TD.AperFunction*
G04 #@! TA.AperFunction,SMDPad,CuDef*
G36*
G01*
X145401000Y-57970000D02*
X145401000Y-57600000D01*
G75*
G02*
X145536000Y-57465000I135000J0D01*
G01*
X145806000Y-57465000D01*
G75*
G02*
X145941000Y-57600000I0J-135000D01*
G01*
X145941000Y-57970000D01*
G75*
G02*
X145806000Y-58105000I-135000J0D01*
G01*
X145536000Y-58105000D01*
G75*
G02*
X145401000Y-57970000I0J135000D01*
G01*
G37*
G04 #@! TD.AperFunction*
G04 #@! TA.AperFunction,SMDPad,CuDef*
G36*
G01*
X144381000Y-57970000D02*
X144381000Y-57600000D01*
G75*
G02*
X144516000Y-57465000I135000J0D01*
G01*
X144786000Y-57465000D01*
G75*
G02*
X144921000Y-57600000I0J-135000D01*
G01*
X144921000Y-57970000D01*
G75*
G02*
X144786000Y-58105000I-135000J0D01*
G01*
X144516000Y-58105000D01*
G75*
G02*
X144381000Y-57970000I0J135000D01*
G01*
G37*
G04 #@! TD.AperFunction*
G04 #@! TA.AperFunction,SMDPad,CuDef*
G36*
G01*
X151326000Y-58482200D02*
X151696000Y-58482200D01*
G75*
G02*
X151831000Y-58617200I0J-135000D01*
G01*
X151831000Y-58887200D01*
G75*
G02*
X151696000Y-59022200I-135000J0D01*
G01*
X151326000Y-59022200D01*
G75*
G02*
X151191000Y-58887200I0J135000D01*
G01*
X151191000Y-58617200D01*
G75*
G02*
X151326000Y-58482200I135000J0D01*
G01*
G37*
G04 #@! TD.AperFunction*
G04 #@! TA.AperFunction,SMDPad,CuDef*
G36*
G01*
X151326000Y-57462200D02*
X151696000Y-57462200D01*
G75*
G02*
X151831000Y-57597200I0J-135000D01*
G01*
X151831000Y-57867200D01*
G75*
G02*
X151696000Y-58002200I-135000J0D01*
G01*
X151326000Y-58002200D01*
G75*
G02*
X151191000Y-57867200I0J135000D01*
G01*
X151191000Y-57597200D01*
G75*
G02*
X151326000Y-57462200I135000J0D01*
G01*
G37*
G04 #@! TD.AperFunction*
G04 #@! TA.AperFunction,SMDPad,CuDef*
G36*
G01*
X149471800Y-58482200D02*
X149841800Y-58482200D01*
G75*
G02*
X149976800Y-58617200I0J-135000D01*
G01*
X149976800Y-58887200D01*
G75*
G02*
X149841800Y-59022200I-135000J0D01*
G01*
X149471800Y-59022200D01*
G75*
G02*
X149336800Y-58887200I0J135000D01*
G01*
X149336800Y-58617200D01*
G75*
G02*
X149471800Y-58482200I135000J0D01*
G01*
G37*
G04 #@! TD.AperFunction*
G04 #@! TA.AperFunction,SMDPad,CuDef*
G36*
G01*
X149471800Y-57462200D02*
X149841800Y-57462200D01*
G75*
G02*
X149976800Y-57597200I0J-135000D01*
G01*
X149976800Y-57867200D01*
G75*
G02*
X149841800Y-58002200I-135000J0D01*
G01*
X149471800Y-58002200D01*
G75*
G02*
X149336800Y-57867200I0J135000D01*
G01*
X149336800Y-57597200D01*
G75*
G02*
X149471800Y-57462200I135000J0D01*
G01*
G37*
G04 #@! TD.AperFunction*
G04 #@! TA.AperFunction,SMDPad,CuDef*
G36*
G01*
X160770600Y-64648500D02*
X160770600Y-65018500D01*
G75*
G02*
X160635600Y-65153500I-135000J0D01*
G01*
X160365600Y-65153500D01*
G75*
G02*
X160230600Y-65018500I0J135000D01*
G01*
X160230600Y-64648500D01*
G75*
G02*
X160365600Y-64513500I135000J0D01*
G01*
X160635600Y-64513500D01*
G75*
G02*
X160770600Y-64648500I0J-135000D01*
G01*
G37*
G04 #@! TD.AperFunction*
G04 #@! TA.AperFunction,SMDPad,CuDef*
G36*
G01*
X161790600Y-64648500D02*
X161790600Y-65018500D01*
G75*
G02*
X161655600Y-65153500I-135000J0D01*
G01*
X161385600Y-65153500D01*
G75*
G02*
X161250600Y-65018500I0J135000D01*
G01*
X161250600Y-64648500D01*
G75*
G02*
X161385600Y-64513500I135000J0D01*
G01*
X161655600Y-64513500D01*
G75*
G02*
X161790600Y-64648500I0J-135000D01*
G01*
G37*
G04 #@! TD.AperFunction*
G04 #@! TA.AperFunction,SMDPad,CuDef*
G36*
G01*
X148449000Y-65272500D02*
X148449000Y-64902500D01*
G75*
G02*
X148584000Y-64767500I135000J0D01*
G01*
X148854000Y-64767500D01*
G75*
G02*
X148989000Y-64902500I0J-135000D01*
G01*
X148989000Y-65272500D01*
G75*
G02*
X148854000Y-65407500I-135000J0D01*
G01*
X148584000Y-65407500D01*
G75*
G02*
X148449000Y-65272500I0J135000D01*
G01*
G37*
G04 #@! TD.AperFunction*
G04 #@! TA.AperFunction,SMDPad,CuDef*
G36*
G01*
X147429000Y-65272500D02*
X147429000Y-64902500D01*
G75*
G02*
X147564000Y-64767500I135000J0D01*
G01*
X147834000Y-64767500D01*
G75*
G02*
X147969000Y-64902500I0J-135000D01*
G01*
X147969000Y-65272500D01*
G75*
G02*
X147834000Y-65407500I-135000J0D01*
G01*
X147564000Y-65407500D01*
G75*
G02*
X147429000Y-65272500I0J135000D01*
G01*
G37*
G04 #@! TD.AperFunction*
G04 #@! TA.AperFunction,SMDPad,CuDef*
G36*
G01*
X153485000Y-57449500D02*
X153855000Y-57449500D01*
G75*
G02*
X153990000Y-57584500I0J-135000D01*
G01*
X153990000Y-57854500D01*
G75*
G02*
X153855000Y-57989500I-135000J0D01*
G01*
X153485000Y-57989500D01*
G75*
G02*
X153350000Y-57854500I0J135000D01*
G01*
X153350000Y-57584500D01*
G75*
G02*
X153485000Y-57449500I135000J0D01*
G01*
G37*
G04 #@! TD.AperFunction*
G04 #@! TA.AperFunction,SMDPad,CuDef*
G36*
G01*
X153485000Y-58469500D02*
X153855000Y-58469500D01*
G75*
G02*
X153990000Y-58604500I0J-135000D01*
G01*
X153990000Y-58874500D01*
G75*
G02*
X153855000Y-59009500I-135000J0D01*
G01*
X153485000Y-59009500D01*
G75*
G02*
X153350000Y-58874500I0J135000D01*
G01*
X153350000Y-58604500D01*
G75*
G02*
X153485000Y-58469500I135000J0D01*
G01*
G37*
G04 #@! TD.AperFunction*
G04 #@! TA.AperFunction,SMDPad,CuDef*
G36*
G01*
X155023400Y-57722800D02*
X154653400Y-57722800D01*
G75*
G02*
X154518400Y-57587800I0J135000D01*
G01*
X154518400Y-57317800D01*
G75*
G02*
X154653400Y-57182800I135000J0D01*
G01*
X155023400Y-57182800D01*
G75*
G02*
X155158400Y-57317800I0J-135000D01*
G01*
X155158400Y-57587800D01*
G75*
G02*
X155023400Y-57722800I-135000J0D01*
G01*
G37*
G04 #@! TD.AperFunction*
G04 #@! TA.AperFunction,SMDPad,CuDef*
G36*
G01*
X155023400Y-58742800D02*
X154653400Y-58742800D01*
G75*
G02*
X154518400Y-58607800I0J135000D01*
G01*
X154518400Y-58337800D01*
G75*
G02*
X154653400Y-58202800I135000J0D01*
G01*
X155023400Y-58202800D01*
G75*
G02*
X155158400Y-58337800I0J-135000D01*
G01*
X155158400Y-58607800D01*
G75*
G02*
X155023400Y-58742800I-135000J0D01*
G01*
G37*
G04 #@! TD.AperFunction*
G04 #@! TA.AperFunction,SMDPad,CuDef*
G36*
G01*
X157494000Y-59568500D02*
X157494000Y-59938500D01*
G75*
G02*
X157359000Y-60073500I-135000J0D01*
G01*
X157089000Y-60073500D01*
G75*
G02*
X156954000Y-59938500I0J135000D01*
G01*
X156954000Y-59568500D01*
G75*
G02*
X157089000Y-59433500I135000J0D01*
G01*
X157359000Y-59433500D01*
G75*
G02*
X157494000Y-59568500I0J-135000D01*
G01*
G37*
G04 #@! TD.AperFunction*
G04 #@! TA.AperFunction,SMDPad,CuDef*
G36*
G01*
X158514000Y-59568500D02*
X158514000Y-59938500D01*
G75*
G02*
X158379000Y-60073500I-135000J0D01*
G01*
X158109000Y-60073500D01*
G75*
G02*
X157974000Y-59938500I0J135000D01*
G01*
X157974000Y-59568500D01*
G75*
G02*
X158109000Y-59433500I135000J0D01*
G01*
X158379000Y-59433500D01*
G75*
G02*
X158514000Y-59568500I0J-135000D01*
G01*
G37*
G04 #@! TD.AperFunction*
G04 #@! TA.AperFunction,SMDPad,CuDef*
G36*
G01*
X157494000Y-61854500D02*
X157494000Y-62224500D01*
G75*
G02*
X157359000Y-62359500I-135000J0D01*
G01*
X157089000Y-62359500D01*
G75*
G02*
X156954000Y-62224500I0J135000D01*
G01*
X156954000Y-61854500D01*
G75*
G02*
X157089000Y-61719500I135000J0D01*
G01*
X157359000Y-61719500D01*
G75*
G02*
X157494000Y-61854500I0J-135000D01*
G01*
G37*
G04 #@! TD.AperFunction*
G04 #@! TA.AperFunction,SMDPad,CuDef*
G36*
G01*
X158514000Y-61854500D02*
X158514000Y-62224500D01*
G75*
G02*
X158379000Y-62359500I-135000J0D01*
G01*
X158109000Y-62359500D01*
G75*
G02*
X157974000Y-62224500I0J135000D01*
G01*
X157974000Y-61854500D01*
G75*
G02*
X158109000Y-61719500I135000J0D01*
G01*
X158379000Y-61719500D01*
G75*
G02*
X158514000Y-61854500I0J-135000D01*
G01*
G37*
G04 #@! TD.AperFunction*
G04 #@! TA.AperFunction,SMDPad,CuDef*
G36*
G01*
X157494000Y-60711500D02*
X157494000Y-61081500D01*
G75*
G02*
X157359000Y-61216500I-135000J0D01*
G01*
X157089000Y-61216500D01*
G75*
G02*
X156954000Y-61081500I0J135000D01*
G01*
X156954000Y-60711500D01*
G75*
G02*
X157089000Y-60576500I135000J0D01*
G01*
X157359000Y-60576500D01*
G75*
G02*
X157494000Y-60711500I0J-135000D01*
G01*
G37*
G04 #@! TD.AperFunction*
G04 #@! TA.AperFunction,SMDPad,CuDef*
G36*
G01*
X158514000Y-60711500D02*
X158514000Y-61081500D01*
G75*
G02*
X158379000Y-61216500I-135000J0D01*
G01*
X158109000Y-61216500D01*
G75*
G02*
X157974000Y-61081500I0J135000D01*
G01*
X157974000Y-60711500D01*
G75*
G02*
X158109000Y-60576500I135000J0D01*
G01*
X158379000Y-60576500D01*
G75*
G02*
X158514000Y-60711500I0J-135000D01*
G01*
G37*
G04 #@! TD.AperFunction*
G04 #@! TA.AperFunction,SMDPad,CuDef*
G36*
G01*
X150564000Y-67702400D02*
X150934000Y-67702400D01*
G75*
G02*
X151069000Y-67837400I0J-135000D01*
G01*
X151069000Y-68107400D01*
G75*
G02*
X150934000Y-68242400I-135000J0D01*
G01*
X150564000Y-68242400D01*
G75*
G02*
X150429000Y-68107400I0J135000D01*
G01*
X150429000Y-67837400D01*
G75*
G02*
X150564000Y-67702400I135000J0D01*
G01*
G37*
G04 #@! TD.AperFunction*
G04 #@! TA.AperFunction,SMDPad,CuDef*
G36*
G01*
X150564000Y-66682400D02*
X150934000Y-66682400D01*
G75*
G02*
X151069000Y-66817400I0J-135000D01*
G01*
X151069000Y-67087400D01*
G75*
G02*
X150934000Y-67222400I-135000J0D01*
G01*
X150564000Y-67222400D01*
G75*
G02*
X150429000Y-67087400I0J135000D01*
G01*
X150429000Y-66817400D01*
G75*
G02*
X150564000Y-66682400I135000J0D01*
G01*
G37*
G04 #@! TD.AperFunction*
G04 #@! TA.AperFunction,SMDPad,CuDef*
G36*
G01*
X143369000Y-60002000D02*
X143369000Y-59632000D01*
G75*
G02*
X143504000Y-59497000I135000J0D01*
G01*
X143774000Y-59497000D01*
G75*
G02*
X143909000Y-59632000I0J-135000D01*
G01*
X143909000Y-60002000D01*
G75*
G02*
X143774000Y-60137000I-135000J0D01*
G01*
X143504000Y-60137000D01*
G75*
G02*
X143369000Y-60002000I0J135000D01*
G01*
G37*
G04 #@! TD.AperFunction*
G04 #@! TA.AperFunction,SMDPad,CuDef*
G36*
G01*
X142349000Y-60002000D02*
X142349000Y-59632000D01*
G75*
G02*
X142484000Y-59497000I135000J0D01*
G01*
X142754000Y-59497000D01*
G75*
G02*
X142889000Y-59632000I0J-135000D01*
G01*
X142889000Y-60002000D01*
G75*
G02*
X142754000Y-60137000I-135000J0D01*
G01*
X142484000Y-60137000D01*
G75*
G02*
X142349000Y-60002000I0J135000D01*
G01*
G37*
G04 #@! TD.AperFunction*
G04 #@! TA.AperFunction,SMDPad,CuDef*
G36*
G01*
X143369000Y-62034000D02*
X143369000Y-61664000D01*
G75*
G02*
X143504000Y-61529000I135000J0D01*
G01*
X143774000Y-61529000D01*
G75*
G02*
X143909000Y-61664000I0J-135000D01*
G01*
X143909000Y-62034000D01*
G75*
G02*
X143774000Y-62169000I-135000J0D01*
G01*
X143504000Y-62169000D01*
G75*
G02*
X143369000Y-62034000I0J135000D01*
G01*
G37*
G04 #@! TD.AperFunction*
G04 #@! TA.AperFunction,SMDPad,CuDef*
G36*
G01*
X142349000Y-62034000D02*
X142349000Y-61664000D01*
G75*
G02*
X142484000Y-61529000I135000J0D01*
G01*
X142754000Y-61529000D01*
G75*
G02*
X142889000Y-61664000I0J-135000D01*
G01*
X142889000Y-62034000D01*
G75*
G02*
X142754000Y-62169000I-135000J0D01*
G01*
X142484000Y-62169000D01*
G75*
G02*
X142349000Y-62034000I0J135000D01*
G01*
G37*
G04 #@! TD.AperFunction*
G04 #@! TA.AperFunction,SMDPad,CuDef*
G36*
G01*
X143369000Y-64066000D02*
X143369000Y-63696000D01*
G75*
G02*
X143504000Y-63561000I135000J0D01*
G01*
X143774000Y-63561000D01*
G75*
G02*
X143909000Y-63696000I0J-135000D01*
G01*
X143909000Y-64066000D01*
G75*
G02*
X143774000Y-64201000I-135000J0D01*
G01*
X143504000Y-64201000D01*
G75*
G02*
X143369000Y-64066000I0J135000D01*
G01*
G37*
G04 #@! TD.AperFunction*
G04 #@! TA.AperFunction,SMDPad,CuDef*
G36*
G01*
X142349000Y-64066000D02*
X142349000Y-63696000D01*
G75*
G02*
X142484000Y-63561000I135000J0D01*
G01*
X142754000Y-63561000D01*
G75*
G02*
X142889000Y-63696000I0J-135000D01*
G01*
X142889000Y-64066000D01*
G75*
G02*
X142754000Y-64201000I-135000J0D01*
G01*
X142484000Y-64201000D01*
G75*
G02*
X142349000Y-64066000I0J135000D01*
G01*
G37*
G04 #@! TD.AperFunction*
G04 #@! TA.AperFunction,SMDPad,CuDef*
G36*
G01*
X143369000Y-66098000D02*
X143369000Y-65728000D01*
G75*
G02*
X143504000Y-65593000I135000J0D01*
G01*
X143774000Y-65593000D01*
G75*
G02*
X143909000Y-65728000I0J-135000D01*
G01*
X143909000Y-66098000D01*
G75*
G02*
X143774000Y-66233000I-135000J0D01*
G01*
X143504000Y-66233000D01*
G75*
G02*
X143369000Y-66098000I0J135000D01*
G01*
G37*
G04 #@! TD.AperFunction*
G04 #@! TA.AperFunction,SMDPad,CuDef*
G36*
G01*
X142349000Y-66098000D02*
X142349000Y-65728000D01*
G75*
G02*
X142484000Y-65593000I135000J0D01*
G01*
X142754000Y-65593000D01*
G75*
G02*
X142889000Y-65728000I0J-135000D01*
G01*
X142889000Y-66098000D01*
G75*
G02*
X142754000Y-66233000I-135000J0D01*
G01*
X142484000Y-66233000D01*
G75*
G02*
X142349000Y-66098000I0J135000D01*
G01*
G37*
G04 #@! TD.AperFunction*
G04 #@! TA.AperFunction,SMDPad,CuDef*
G36*
G01*
X143369000Y-68130000D02*
X143369000Y-67760000D01*
G75*
G02*
X143504000Y-67625000I135000J0D01*
G01*
X143774000Y-67625000D01*
G75*
G02*
X143909000Y-67760000I0J-135000D01*
G01*
X143909000Y-68130000D01*
G75*
G02*
X143774000Y-68265000I-135000J0D01*
G01*
X143504000Y-68265000D01*
G75*
G02*
X143369000Y-68130000I0J135000D01*
G01*
G37*
G04 #@! TD.AperFunction*
G04 #@! TA.AperFunction,SMDPad,CuDef*
G36*
G01*
X142349000Y-68130000D02*
X142349000Y-67760000D01*
G75*
G02*
X142484000Y-67625000I135000J0D01*
G01*
X142754000Y-67625000D01*
G75*
G02*
X142889000Y-67760000I0J-135000D01*
G01*
X142889000Y-68130000D01*
G75*
G02*
X142754000Y-68265000I-135000J0D01*
G01*
X142484000Y-68265000D01*
G75*
G02*
X142349000Y-68130000I0J135000D01*
G01*
G37*
G04 #@! TD.AperFunction*
G04 #@! TA.AperFunction,SMDPad,CuDef*
G36*
G01*
X144838000Y-67197000D02*
X144468000Y-67197000D01*
G75*
G02*
X144333000Y-67062000I0J135000D01*
G01*
X144333000Y-66792000D01*
G75*
G02*
X144468000Y-66657000I135000J0D01*
G01*
X144838000Y-66657000D01*
G75*
G02*
X144973000Y-66792000I0J-135000D01*
G01*
X144973000Y-67062000D01*
G75*
G02*
X144838000Y-67197000I-135000J0D01*
G01*
G37*
G04 #@! TD.AperFunction*
G04 #@! TA.AperFunction,SMDPad,CuDef*
G36*
G01*
X144838000Y-68217000D02*
X144468000Y-68217000D01*
G75*
G02*
X144333000Y-68082000I0J135000D01*
G01*
X144333000Y-67812000D01*
G75*
G02*
X144468000Y-67677000I135000J0D01*
G01*
X144838000Y-67677000D01*
G75*
G02*
X144973000Y-67812000I0J-135000D01*
G01*
X144973000Y-68082000D01*
G75*
G02*
X144838000Y-68217000I-135000J0D01*
G01*
G37*
G04 #@! TD.AperFunction*
G04 #@! TA.AperFunction,SMDPad,CuDef*
G36*
G01*
X143369000Y-57970000D02*
X143369000Y-57600000D01*
G75*
G02*
X143504000Y-57465000I135000J0D01*
G01*
X143774000Y-57465000D01*
G75*
G02*
X143909000Y-57600000I0J-135000D01*
G01*
X143909000Y-57970000D01*
G75*
G02*
X143774000Y-58105000I-135000J0D01*
G01*
X143504000Y-58105000D01*
G75*
G02*
X143369000Y-57970000I0J135000D01*
G01*
G37*
G04 #@! TD.AperFunction*
G04 #@! TA.AperFunction,SMDPad,CuDef*
G36*
G01*
X142349000Y-57970000D02*
X142349000Y-57600000D01*
G75*
G02*
X142484000Y-57465000I135000J0D01*
G01*
X142754000Y-57465000D01*
G75*
G02*
X142889000Y-57600000I0J-135000D01*
G01*
X142889000Y-57970000D01*
G75*
G02*
X142754000Y-58105000I-135000J0D01*
G01*
X142484000Y-58105000D01*
G75*
G02*
X142349000Y-57970000I0J135000D01*
G01*
G37*
G04 #@! TD.AperFunction*
G04 #@! TA.AperFunction,SMDPad,CuDef*
G36*
G01*
X142349000Y-55938000D02*
X142349000Y-55568000D01*
G75*
G02*
X142484000Y-55433000I135000J0D01*
G01*
X142754000Y-55433000D01*
G75*
G02*
X142889000Y-55568000I0J-135000D01*
G01*
X142889000Y-55938000D01*
G75*
G02*
X142754000Y-56073000I-135000J0D01*
G01*
X142484000Y-56073000D01*
G75*
G02*
X142349000Y-55938000I0J135000D01*
G01*
G37*
G04 #@! TD.AperFunction*
G04 #@! TA.AperFunction,SMDPad,CuDef*
G36*
G01*
X143369000Y-55938000D02*
X143369000Y-55568000D01*
G75*
G02*
X143504000Y-55433000I135000J0D01*
G01*
X143774000Y-55433000D01*
G75*
G02*
X143909000Y-55568000I0J-135000D01*
G01*
X143909000Y-55938000D01*
G75*
G02*
X143774000Y-56073000I-135000J0D01*
G01*
X143504000Y-56073000D01*
G75*
G02*
X143369000Y-55938000I0J135000D01*
G01*
G37*
G04 #@! TD.AperFunction*
G04 #@! TA.AperFunction,SMDPad,CuDef*
G36*
G01*
X148902000Y-67222400D02*
X148532000Y-67222400D01*
G75*
G02*
X148397000Y-67087400I0J135000D01*
G01*
X148397000Y-66817400D01*
G75*
G02*
X148532000Y-66682400I135000J0D01*
G01*
X148902000Y-66682400D01*
G75*
G02*
X149037000Y-66817400I0J-135000D01*
G01*
X149037000Y-67087400D01*
G75*
G02*
X148902000Y-67222400I-135000J0D01*
G01*
G37*
G04 #@! TD.AperFunction*
G04 #@! TA.AperFunction,SMDPad,CuDef*
G36*
G01*
X148902000Y-68242400D02*
X148532000Y-68242400D01*
G75*
G02*
X148397000Y-68107400I0J135000D01*
G01*
X148397000Y-67837400D01*
G75*
G02*
X148532000Y-67702400I135000J0D01*
G01*
X148902000Y-67702400D01*
G75*
G02*
X149037000Y-67837400I0J-135000D01*
G01*
X149037000Y-68107400D01*
G75*
G02*
X148902000Y-68242400I-135000J0D01*
G01*
G37*
G04 #@! TD.AperFunction*
G04 #@! TA.AperFunction,SMDPad,CuDef*
G36*
G01*
X146870000Y-67222400D02*
X146500000Y-67222400D01*
G75*
G02*
X146365000Y-67087400I0J135000D01*
G01*
X146365000Y-66817400D01*
G75*
G02*
X146500000Y-66682400I135000J0D01*
G01*
X146870000Y-66682400D01*
G75*
G02*
X147005000Y-66817400I0J-135000D01*
G01*
X147005000Y-67087400D01*
G75*
G02*
X146870000Y-67222400I-135000J0D01*
G01*
G37*
G04 #@! TD.AperFunction*
G04 #@! TA.AperFunction,SMDPad,CuDef*
G36*
G01*
X146870000Y-68242400D02*
X146500000Y-68242400D01*
G75*
G02*
X146365000Y-68107400I0J135000D01*
G01*
X146365000Y-67837400D01*
G75*
G02*
X146500000Y-67702400I135000J0D01*
G01*
X146870000Y-67702400D01*
G75*
G02*
X147005000Y-67837400I0J-135000D01*
G01*
X147005000Y-68107400D01*
G75*
G02*
X146870000Y-68242400I-135000J0D01*
G01*
G37*
G04 #@! TD.AperFunction*
G04 #@! TA.AperFunction,SMDPad,CuDef*
G36*
G01*
X147962500Y-58162000D02*
X147962500Y-57662000D01*
G75*
G02*
X148187500Y-57437000I225000J0D01*
G01*
X148637500Y-57437000D01*
G75*
G02*
X148862500Y-57662000I0J-225000D01*
G01*
X148862500Y-58162000D01*
G75*
G02*
X148637500Y-58387000I-225000J0D01*
G01*
X148187500Y-58387000D01*
G75*
G02*
X147962500Y-58162000I0J225000D01*
G01*
G37*
G04 #@! TD.AperFunction*
G04 #@! TA.AperFunction,SMDPad,CuDef*
G36*
G01*
X146412500Y-58162000D02*
X146412500Y-57662000D01*
G75*
G02*
X146637500Y-57437000I225000J0D01*
G01*
X147087500Y-57437000D01*
G75*
G02*
X147312500Y-57662000I0J-225000D01*
G01*
X147312500Y-58162000D01*
G75*
G02*
X147087500Y-58387000I-225000J0D01*
G01*
X146637500Y-58387000D01*
G75*
G02*
X146412500Y-58162000I0J225000D01*
G01*
G37*
G04 #@! TD.AperFunction*
G04 #@! TA.AperFunction,SMDPad,CuDef*
G36*
G01*
X150957400Y-60608400D02*
X150957400Y-61108400D01*
G75*
G02*
X150732400Y-61333400I-225000J0D01*
G01*
X150282400Y-61333400D01*
G75*
G02*
X150057400Y-61108400I0J225000D01*
G01*
X150057400Y-60608400D01*
G75*
G02*
X150282400Y-60383400I225000J0D01*
G01*
X150732400Y-60383400D01*
G75*
G02*
X150957400Y-60608400I0J-225000D01*
G01*
G37*
G04 #@! TD.AperFunction*
G04 #@! TA.AperFunction,SMDPad,CuDef*
G36*
G01*
X152507400Y-60608400D02*
X152507400Y-61108400D01*
G75*
G02*
X152282400Y-61333400I-225000J0D01*
G01*
X151832400Y-61333400D01*
G75*
G02*
X151607400Y-61108400I0J225000D01*
G01*
X151607400Y-60608400D01*
G75*
G02*
X151832400Y-60383400I225000J0D01*
G01*
X152282400Y-60383400D01*
G75*
G02*
X152507400Y-60608400I0J-225000D01*
G01*
G37*
G04 #@! TD.AperFunction*
G04 #@! TA.AperFunction,SMDPad,CuDef*
G36*
G01*
X144335000Y-61038500D02*
X144335000Y-60913500D01*
G75*
G02*
X144397500Y-60851000I62500J0D01*
G01*
X145072500Y-60851000D01*
G75*
G02*
X145135000Y-60913500I0J-62500D01*
G01*
X145135000Y-61038500D01*
G75*
G02*
X145072500Y-61101000I-62500J0D01*
G01*
X144397500Y-61101000D01*
G75*
G02*
X144335000Y-61038500I0J62500D01*
G01*
G37*
G04 #@! TD.AperFunction*
G04 #@! TA.AperFunction,SMDPad,CuDef*
G36*
G01*
X144335000Y-61538500D02*
X144335000Y-61413500D01*
G75*
G02*
X144397500Y-61351000I62500J0D01*
G01*
X145072500Y-61351000D01*
G75*
G02*
X145135000Y-61413500I0J-62500D01*
G01*
X145135000Y-61538500D01*
G75*
G02*
X145072500Y-61601000I-62500J0D01*
G01*
X144397500Y-61601000D01*
G75*
G02*
X144335000Y-61538500I0J62500D01*
G01*
G37*
G04 #@! TD.AperFunction*
G04 #@! TA.AperFunction,SMDPad,CuDef*
G36*
G01*
X144335000Y-62038500D02*
X144335000Y-61913500D01*
G75*
G02*
X144397500Y-61851000I62500J0D01*
G01*
X145072500Y-61851000D01*
G75*
G02*
X145135000Y-61913500I0J-62500D01*
G01*
X145135000Y-62038500D01*
G75*
G02*
X145072500Y-62101000I-62500J0D01*
G01*
X144397500Y-62101000D01*
G75*
G02*
X144335000Y-62038500I0J62500D01*
G01*
G37*
G04 #@! TD.AperFunction*
G04 #@! TA.AperFunction,SMDPad,CuDef*
G36*
G01*
X144335000Y-62538500D02*
X144335000Y-62413500D01*
G75*
G02*
X144397500Y-62351000I62500J0D01*
G01*
X145072500Y-62351000D01*
G75*
G02*
X145135000Y-62413500I0J-62500D01*
G01*
X145135000Y-62538500D01*
G75*
G02*
X145072500Y-62601000I-62500J0D01*
G01*
X144397500Y-62601000D01*
G75*
G02*
X144335000Y-62538500I0J62500D01*
G01*
G37*
G04 #@! TD.AperFunction*
G04 #@! TA.AperFunction,SMDPad,CuDef*
G36*
G01*
X144335000Y-63038500D02*
X144335000Y-62913500D01*
G75*
G02*
X144397500Y-62851000I62500J0D01*
G01*
X145072500Y-62851000D01*
G75*
G02*
X145135000Y-62913500I0J-62500D01*
G01*
X145135000Y-63038500D01*
G75*
G02*
X145072500Y-63101000I-62500J0D01*
G01*
X144397500Y-63101000D01*
G75*
G02*
X144335000Y-63038500I0J62500D01*
G01*
G37*
G04 #@! TD.AperFunction*
G04 #@! TA.AperFunction,SMDPad,CuDef*
G36*
G01*
X145560000Y-64263500D02*
X145560000Y-63588500D01*
G75*
G02*
X145622500Y-63526000I62500J0D01*
G01*
X145747500Y-63526000D01*
G75*
G02*
X145810000Y-63588500I0J-62500D01*
G01*
X145810000Y-64263500D01*
G75*
G02*
X145747500Y-64326000I-62500J0D01*
G01*
X145622500Y-64326000D01*
G75*
G02*
X145560000Y-64263500I0J62500D01*
G01*
G37*
G04 #@! TD.AperFunction*
G04 #@! TA.AperFunction,SMDPad,CuDef*
G36*
G01*
X146060000Y-64263500D02*
X146060000Y-63588500D01*
G75*
G02*
X146122500Y-63526000I62500J0D01*
G01*
X146247500Y-63526000D01*
G75*
G02*
X146310000Y-63588500I0J-62500D01*
G01*
X146310000Y-64263500D01*
G75*
G02*
X146247500Y-64326000I-62500J0D01*
G01*
X146122500Y-64326000D01*
G75*
G02*
X146060000Y-64263500I0J62500D01*
G01*
G37*
G04 #@! TD.AperFunction*
G04 #@! TA.AperFunction,SMDPad,CuDef*
G36*
G01*
X146560000Y-64263500D02*
X146560000Y-63588500D01*
G75*
G02*
X146622500Y-63526000I62500J0D01*
G01*
X146747500Y-63526000D01*
G75*
G02*
X146810000Y-63588500I0J-62500D01*
G01*
X146810000Y-64263500D01*
G75*
G02*
X146747500Y-64326000I-62500J0D01*
G01*
X146622500Y-64326000D01*
G75*
G02*
X146560000Y-64263500I0J62500D01*
G01*
G37*
G04 #@! TD.AperFunction*
G04 #@! TA.AperFunction,SMDPad,CuDef*
G36*
G01*
X147060000Y-64263500D02*
X147060000Y-63588500D01*
G75*
G02*
X147122500Y-63526000I62500J0D01*
G01*
X147247500Y-63526000D01*
G75*
G02*
X147310000Y-63588500I0J-62500D01*
G01*
X147310000Y-64263500D01*
G75*
G02*
X147247500Y-64326000I-62500J0D01*
G01*
X147122500Y-64326000D01*
G75*
G02*
X147060000Y-64263500I0J62500D01*
G01*
G37*
G04 #@! TD.AperFunction*
G04 #@! TA.AperFunction,SMDPad,CuDef*
G36*
G01*
X147560000Y-64263500D02*
X147560000Y-63588500D01*
G75*
G02*
X147622500Y-63526000I62500J0D01*
G01*
X147747500Y-63526000D01*
G75*
G02*
X147810000Y-63588500I0J-62500D01*
G01*
X147810000Y-64263500D01*
G75*
G02*
X147747500Y-64326000I-62500J0D01*
G01*
X147622500Y-64326000D01*
G75*
G02*
X147560000Y-64263500I0J62500D01*
G01*
G37*
G04 #@! TD.AperFunction*
G04 #@! TA.AperFunction,SMDPad,CuDef*
G36*
G01*
X148235000Y-63038500D02*
X148235000Y-62913500D01*
G75*
G02*
X148297500Y-62851000I62500J0D01*
G01*
X148972500Y-62851000D01*
G75*
G02*
X149035000Y-62913500I0J-62500D01*
G01*
X149035000Y-63038500D01*
G75*
G02*
X148972500Y-63101000I-62500J0D01*
G01*
X148297500Y-63101000D01*
G75*
G02*
X148235000Y-63038500I0J62500D01*
G01*
G37*
G04 #@! TD.AperFunction*
G04 #@! TA.AperFunction,SMDPad,CuDef*
G36*
G01*
X148235000Y-62538500D02*
X148235000Y-62413500D01*
G75*
G02*
X148297500Y-62351000I62500J0D01*
G01*
X148972500Y-62351000D01*
G75*
G02*
X149035000Y-62413500I0J-62500D01*
G01*
X149035000Y-62538500D01*
G75*
G02*
X148972500Y-62601000I-62500J0D01*
G01*
X148297500Y-62601000D01*
G75*
G02*
X148235000Y-62538500I0J62500D01*
G01*
G37*
G04 #@! TD.AperFunction*
G04 #@! TA.AperFunction,SMDPad,CuDef*
G36*
G01*
X148235000Y-62038500D02*
X148235000Y-61913500D01*
G75*
G02*
X148297500Y-61851000I62500J0D01*
G01*
X148972500Y-61851000D01*
G75*
G02*
X149035000Y-61913500I0J-62500D01*
G01*
X149035000Y-62038500D01*
G75*
G02*
X148972500Y-62101000I-62500J0D01*
G01*
X148297500Y-62101000D01*
G75*
G02*
X148235000Y-62038500I0J62500D01*
G01*
G37*
G04 #@! TD.AperFunction*
G04 #@! TA.AperFunction,SMDPad,CuDef*
G36*
G01*
X148235000Y-61538500D02*
X148235000Y-61413500D01*
G75*
G02*
X148297500Y-61351000I62500J0D01*
G01*
X148972500Y-61351000D01*
G75*
G02*
X149035000Y-61413500I0J-62500D01*
G01*
X149035000Y-61538500D01*
G75*
G02*
X148972500Y-61601000I-62500J0D01*
G01*
X148297500Y-61601000D01*
G75*
G02*
X148235000Y-61538500I0J62500D01*
G01*
G37*
G04 #@! TD.AperFunction*
G04 #@! TA.AperFunction,SMDPad,CuDef*
G36*
G01*
X148235000Y-61038500D02*
X148235000Y-60913500D01*
G75*
G02*
X148297500Y-60851000I62500J0D01*
G01*
X148972500Y-60851000D01*
G75*
G02*
X149035000Y-60913500I0J-62500D01*
G01*
X149035000Y-61038500D01*
G75*
G02*
X148972500Y-61101000I-62500J0D01*
G01*
X148297500Y-61101000D01*
G75*
G02*
X148235000Y-61038500I0J62500D01*
G01*
G37*
G04 #@! TD.AperFunction*
G04 #@! TA.AperFunction,SMDPad,CuDef*
G36*
G01*
X147560000Y-60363500D02*
X147560000Y-59688500D01*
G75*
G02*
X147622500Y-59626000I62500J0D01*
G01*
X147747500Y-59626000D01*
G75*
G02*
X147810000Y-59688500I0J-62500D01*
G01*
X147810000Y-60363500D01*
G75*
G02*
X147747500Y-60426000I-62500J0D01*
G01*
X147622500Y-60426000D01*
G75*
G02*
X147560000Y-60363500I0J62500D01*
G01*
G37*
G04 #@! TD.AperFunction*
G04 #@! TA.AperFunction,SMDPad,CuDef*
G36*
G01*
X147060000Y-60363500D02*
X147060000Y-59688500D01*
G75*
G02*
X147122500Y-59626000I62500J0D01*
G01*
X147247500Y-59626000D01*
G75*
G02*
X147310000Y-59688500I0J-62500D01*
G01*
X147310000Y-60363500D01*
G75*
G02*
X147247500Y-60426000I-62500J0D01*
G01*
X147122500Y-60426000D01*
G75*
G02*
X147060000Y-60363500I0J62500D01*
G01*
G37*
G04 #@! TD.AperFunction*
G04 #@! TA.AperFunction,SMDPad,CuDef*
G36*
G01*
X146560000Y-60363500D02*
X146560000Y-59688500D01*
G75*
G02*
X146622500Y-59626000I62500J0D01*
G01*
X146747500Y-59626000D01*
G75*
G02*
X146810000Y-59688500I0J-62500D01*
G01*
X146810000Y-60363500D01*
G75*
G02*
X146747500Y-60426000I-62500J0D01*
G01*
X146622500Y-60426000D01*
G75*
G02*
X146560000Y-60363500I0J62500D01*
G01*
G37*
G04 #@! TD.AperFunction*
G04 #@! TA.AperFunction,SMDPad,CuDef*
G36*
G01*
X146060000Y-60363500D02*
X146060000Y-59688500D01*
G75*
G02*
X146122500Y-59626000I62500J0D01*
G01*
X146247500Y-59626000D01*
G75*
G02*
X146310000Y-59688500I0J-62500D01*
G01*
X146310000Y-60363500D01*
G75*
G02*
X146247500Y-60426000I-62500J0D01*
G01*
X146122500Y-60426000D01*
G75*
G02*
X146060000Y-60363500I0J62500D01*
G01*
G37*
G04 #@! TD.AperFunction*
G04 #@! TA.AperFunction,SMDPad,CuDef*
G36*
G01*
X145560000Y-60363500D02*
X145560000Y-59688500D01*
G75*
G02*
X145622500Y-59626000I62500J0D01*
G01*
X145747500Y-59626000D01*
G75*
G02*
X145810000Y-59688500I0J-62500D01*
G01*
X145810000Y-60363500D01*
G75*
G02*
X145747500Y-60426000I-62500J0D01*
G01*
X145622500Y-60426000D01*
G75*
G02*
X145560000Y-60363500I0J62500D01*
G01*
G37*
G04 #@! TD.AperFunction*
D18*
X146685000Y-61976000D03*
D10*
X145585000Y-60876000D03*
X147785000Y-60876000D03*
X145585000Y-63076000D03*
X147785000Y-63076000D03*
G04 #@! TA.AperFunction,SMDPad,CuDef*
G36*
G01*
X161495400Y-68663800D02*
X161495400Y-69613800D01*
G75*
G02*
X161245400Y-69863800I-250000J0D01*
G01*
X160745400Y-69863800D01*
G75*
G02*
X160495400Y-69613800I0J250000D01*
G01*
X160495400Y-68663800D01*
G75*
G02*
X160745400Y-68413800I250000J0D01*
G01*
X161245400Y-68413800D01*
G75*
G02*
X161495400Y-68663800I0J-250000D01*
G01*
G37*
G04 #@! TD.AperFunction*
G04 #@! TA.AperFunction,SMDPad,CuDef*
G36*
G01*
X159595400Y-68663800D02*
X159595400Y-69613800D01*
G75*
G02*
X159345400Y-69863800I-250000J0D01*
G01*
X158845400Y-69863800D01*
G75*
G02*
X158595400Y-69613800I0J250000D01*
G01*
X158595400Y-68663800D01*
G75*
G02*
X158845400Y-68413800I250000J0D01*
G01*
X159345400Y-68413800D01*
G75*
G02*
X159595400Y-68663800I0J-250000D01*
G01*
G37*
G04 #@! TD.AperFunction*
D19*
X158068086Y-68406077D03*
X159595390Y-63331314D03*
D20*
X158597600Y-59105800D03*
X153974800Y-62458600D03*
X144776363Y-56883990D03*
X143713200Y-56896000D03*
D19*
X160528000Y-58674000D03*
X148467954Y-59088115D03*
D20*
X146320610Y-56905990D03*
D19*
X150774400Y-59823300D03*
D20*
X152149251Y-56188077D03*
X150933884Y-56184800D03*
X154314026Y-57983728D03*
X142494000Y-56794400D03*
X142494000Y-58775600D03*
X142494000Y-60807600D03*
X142494000Y-62839600D03*
X142494000Y-64922400D03*
X142494000Y-66954400D03*
X142494000Y-68986400D03*
X145669000Y-68072000D03*
X147701000Y-68072000D03*
X149733000Y-68122800D03*
X147701000Y-66192400D03*
X150495000Y-57683400D03*
X161953966Y-64820800D03*
X160127202Y-69133198D03*
X156083000Y-69138800D03*
D19*
X151891986Y-66497200D03*
X159976042Y-62483020D03*
X157988000Y-55943500D03*
X153668981Y-56896000D03*
X146862800Y-58978800D03*
X152349200Y-59740800D03*
D20*
X149098000Y-65887600D03*
X149100779Y-64312004D03*
D19*
X155625800Y-67437000D03*
X160172400Y-67259200D03*
D21*
X156085500Y-57736700D02*
X156085500Y-58166000D01*
X153974800Y-59044300D02*
X153670000Y-58739500D01*
X153974800Y-59486800D02*
X153974800Y-59044300D01*
X153974800Y-61391800D02*
X153974800Y-59486800D01*
X153365021Y-62001579D02*
X153974800Y-61391800D01*
X152934800Y-63839733D02*
X153365021Y-63409512D01*
X152934800Y-64172400D02*
X152934800Y-63839733D01*
X153365021Y-63409512D02*
X153365021Y-62001579D01*
X153999290Y-59019810D02*
X153974800Y-59044300D01*
X155194062Y-59019810D02*
X153999290Y-59019810D01*
X156047872Y-58166000D02*
X155194062Y-59019810D01*
X156085500Y-58166000D02*
X156047872Y-58166000D01*
X156085500Y-58166000D02*
X156085500Y-57152500D01*
X155803600Y-56870600D02*
X155803600Y-55943500D01*
X156085500Y-57152500D02*
X155803600Y-56870600D01*
D22*
X152590500Y-56707500D02*
X152590500Y-57719500D01*
X152079990Y-58230010D02*
X152590500Y-57719500D01*
X152079990Y-58963552D02*
X152079990Y-58230010D01*
X151810742Y-59232800D02*
X152079990Y-58963552D01*
X149733529Y-62000871D02*
X149733529Y-59862073D01*
X149733529Y-59862073D02*
X150362802Y-59232800D01*
X149258400Y-62476000D02*
X149733529Y-62000871D01*
X148635000Y-62476000D02*
X149258400Y-62476000D01*
X151434800Y-59981800D02*
X151434800Y-59232800D01*
X152311400Y-60858400D02*
X151434800Y-59981800D01*
X151434800Y-59232800D02*
X151810742Y-59232800D01*
X150362802Y-59232800D02*
X151434800Y-59232800D01*
X155026500Y-62039500D02*
X155026500Y-60896500D01*
X155026500Y-59753500D02*
X155026500Y-60896500D01*
X159407500Y-66042000D02*
X159407500Y-65542000D01*
X159407500Y-65042000D02*
X159407500Y-65542000D01*
D21*
X156970000Y-67479500D02*
X157470000Y-67479500D01*
D22*
X160147000Y-60325000D02*
X160528000Y-60706000D01*
D21*
X159562800Y-60706000D02*
X160528000Y-60706000D01*
X157649500Y-67479500D02*
X157970000Y-67479500D01*
X157470000Y-67479500D02*
X157649500Y-67479500D01*
D23*
X157970000Y-67479500D02*
X157970000Y-68308000D01*
D21*
X157033000Y-69138800D02*
X157058400Y-69164200D01*
X157765723Y-68406077D02*
X158068086Y-68406077D01*
X157033000Y-69138800D02*
X157765723Y-68406077D01*
D22*
X157970000Y-68308000D02*
X158068077Y-68406077D01*
X158068077Y-68406077D02*
X158068086Y-68406077D01*
D21*
X160018076Y-63754000D02*
X159595390Y-63331314D01*
X161417000Y-63754000D02*
X160018076Y-63754000D01*
X159299032Y-63034956D02*
X159595390Y-63331314D01*
X159299032Y-60868168D02*
X159299032Y-63034956D01*
X159562800Y-60706000D02*
X159461200Y-60706000D01*
D22*
X161010600Y-64490600D02*
X161417000Y-64084200D01*
X160807400Y-65379600D02*
X161010600Y-65176400D01*
X160121600Y-65379600D02*
X160807400Y-65379600D01*
X159959200Y-65542000D02*
X160121600Y-65379600D01*
X161417000Y-64084200D02*
X161417000Y-63754000D01*
X161010600Y-65176400D02*
X161010600Y-64490600D01*
X159407500Y-65542000D02*
X159959200Y-65542000D01*
X156970000Y-63604500D02*
X156970000Y-62990000D01*
X156970000Y-62990000D02*
X156768800Y-62788800D01*
X156768800Y-62788800D02*
X155244800Y-62788800D01*
X155026500Y-62570500D02*
X155026500Y-62039500D01*
X155244800Y-62788800D02*
X155026500Y-62570500D01*
X155026500Y-62039500D02*
X154393900Y-62039500D01*
X154393900Y-62039500D02*
X153974800Y-62458600D01*
X158597600Y-59105800D02*
X158902400Y-59105800D01*
X158902400Y-59105800D02*
X159131000Y-59334400D01*
X159131000Y-60528200D02*
X159385000Y-60782200D01*
X159131000Y-59334400D02*
X159131000Y-60528200D01*
D21*
X159385000Y-60782200D02*
X159299032Y-60868168D01*
X159461200Y-60706000D02*
X159385000Y-60782200D01*
D22*
X156103899Y-59860899D02*
X157116601Y-59860899D01*
X155996500Y-59753500D02*
X156103899Y-59860899D01*
X157116601Y-59860899D02*
X157224000Y-59753500D01*
X155996500Y-62039500D02*
X157224000Y-62039500D01*
X157224000Y-60896500D02*
X155996500Y-60896500D01*
X151511000Y-55943500D02*
X151511000Y-57732200D01*
X149479000Y-57554400D02*
X149656800Y-57732200D01*
X149479000Y-55943500D02*
X149479000Y-57554400D01*
X144140490Y-57274490D02*
X144651000Y-57785000D01*
X143178490Y-58295314D02*
X143178490Y-57465168D01*
X143178490Y-57465168D02*
X143369168Y-57274490D01*
X144735000Y-59851824D02*
X143178490Y-58295314D01*
X144735000Y-60976000D02*
X144735000Y-59851824D01*
X144589500Y-56697127D02*
X144776363Y-56883990D01*
X144589500Y-55943500D02*
X144589500Y-56697127D01*
X143713200Y-57251600D02*
X143690310Y-57274490D01*
X143713200Y-56896000D02*
X143713200Y-57251600D01*
X143690310Y-57274490D02*
X144140490Y-57274490D01*
X143369168Y-57274490D02*
X143690310Y-57274490D01*
X147675600Y-59436000D02*
X147675600Y-60016600D01*
X147503010Y-59263410D02*
X147675600Y-59436000D01*
X147447000Y-55943500D02*
X147503010Y-55999510D01*
X147675600Y-60016600D02*
X147685000Y-60026000D01*
X147503010Y-55999510D02*
X147503010Y-59263410D01*
X148635000Y-60218188D02*
X148635000Y-60976000D01*
X147929611Y-59512799D02*
X148635000Y-60218188D01*
X147929611Y-59330786D02*
X147929611Y-59512799D01*
X147771990Y-57489888D02*
X147771990Y-59173166D01*
X147771990Y-59173166D02*
X147929611Y-59330786D01*
X148399500Y-55943500D02*
X148399500Y-56862378D01*
X148399500Y-56862378D02*
X147771990Y-57489888D01*
D21*
X159407500Y-66542000D02*
X159407500Y-67474100D01*
X159407500Y-67474100D02*
X159402100Y-67479500D01*
X158470000Y-67479500D02*
X159402100Y-67479500D01*
X159402100Y-67682700D02*
X159402100Y-67479500D01*
X159842200Y-68122800D02*
X159402100Y-67682700D01*
X160985200Y-68122800D02*
X159842200Y-68122800D01*
X160995400Y-68133000D02*
X160985200Y-68122800D01*
X160995400Y-69138800D02*
X160995400Y-68133000D01*
X161264600Y-68122800D02*
X161417000Y-67970400D01*
X161417000Y-67970400D02*
X161417000Y-67665600D01*
X160807400Y-68122800D02*
X161264600Y-68122800D01*
D22*
X150749000Y-69240400D02*
X150749000Y-67972400D01*
X147923800Y-63926000D02*
X147685000Y-63926000D01*
X148159510Y-64161710D02*
X147923800Y-63926000D01*
X148159510Y-65614568D02*
X148159510Y-64161710D01*
X150517342Y-67972400D02*
X148159510Y-65614568D01*
X150749000Y-67972400D02*
X150517342Y-67972400D01*
X141351000Y-59817000D02*
X142619000Y-59817000D01*
X142619000Y-61849000D02*
X141351000Y-61849000D01*
X141351000Y-63881000D02*
X142619000Y-63881000D01*
X142619000Y-65913000D02*
X141351000Y-65913000D01*
X141351000Y-67945000D02*
X142619000Y-67945000D01*
X144653000Y-69240400D02*
X144653000Y-67947000D01*
X141351000Y-57785000D02*
X142619000Y-57785000D01*
X141351000Y-55753000D02*
X142619000Y-55753000D01*
X148717000Y-69240400D02*
X148717000Y-67972400D01*
X146685000Y-69240400D02*
X146685000Y-67972400D01*
X155532500Y-65542000D02*
X154950000Y-65542000D01*
X154838400Y-65430400D02*
X154838400Y-65205424D01*
X154950000Y-65542000D02*
X154838400Y-65430400D01*
X154731176Y-65098200D02*
X154228800Y-65098200D01*
X154838400Y-65205424D02*
X154731176Y-65098200D01*
X149098000Y-61976000D02*
X148635000Y-61976000D01*
X149479520Y-61594480D02*
X149098000Y-61976000D01*
X149479520Y-59756858D02*
X149479520Y-61594480D01*
X150308378Y-58928000D02*
X149479520Y-59756858D01*
X150876000Y-58928000D02*
X150308378Y-58928000D01*
X151051800Y-58752200D02*
X150876000Y-58928000D01*
X151511000Y-58752200D02*
X151051800Y-58752200D01*
X149090000Y-61476000D02*
X148635000Y-61476000D01*
X149225510Y-61340490D02*
X149090000Y-61476000D01*
X149225510Y-58863490D02*
X149225510Y-61340490D01*
X149336800Y-58752200D02*
X149225510Y-58863490D01*
X149656800Y-58752200D02*
X149336800Y-58752200D01*
X154863800Y-64363600D02*
X154662600Y-64162400D01*
X154863800Y-64871600D02*
X154863800Y-64363600D01*
X154662600Y-64162400D02*
X154228800Y-64162400D01*
X155034200Y-65042000D02*
X154863800Y-64871600D01*
X155532500Y-65042000D02*
X155034200Y-65042000D01*
X160437100Y-64770000D02*
X160500600Y-64833500D01*
X160096200Y-64770000D02*
X160437100Y-64770000D01*
X159868200Y-64542000D02*
X160096200Y-64770000D01*
X159407500Y-64542000D02*
X159868200Y-64542000D01*
X148635000Y-65003500D02*
X148719000Y-65087500D01*
X148635000Y-62976000D02*
X148635000Y-65003500D01*
X148803900Y-65172400D02*
X148719000Y-65087500D01*
X149934800Y-65172400D02*
X148803900Y-65172400D01*
X153670000Y-57719500D02*
X154014900Y-57719500D01*
X154281600Y-57452800D02*
X154736800Y-57452800D01*
X154014900Y-57719500D02*
X154281600Y-57452800D01*
X153159490Y-58230010D02*
X153670000Y-57719500D01*
X153159490Y-59009332D02*
X153159490Y-58230010D01*
X153378920Y-59228762D02*
X153159490Y-59009332D01*
X153024510Y-63268468D02*
X153024510Y-61707090D01*
X152934800Y-64672400D02*
X152432800Y-64672400D01*
X152369299Y-63923679D02*
X153024510Y-63268468D01*
X153378920Y-61352680D02*
X153378920Y-59228762D01*
X152369299Y-64608899D02*
X152369299Y-63923679D01*
X153024510Y-61707090D02*
X153378920Y-61352680D01*
X152432800Y-64672400D02*
X152369299Y-64608899D01*
X144076800Y-61476000D02*
X144735000Y-61476000D01*
X143639000Y-61038200D02*
X144076800Y-61476000D01*
X143639000Y-59817000D02*
X143639000Y-61038200D01*
X143766000Y-61976000D02*
X143639000Y-61849000D01*
X144735000Y-61976000D02*
X143766000Y-61976000D01*
X144076800Y-62476000D02*
X144735000Y-62476000D01*
X143639000Y-62913800D02*
X144076800Y-62476000D01*
X143639000Y-63881000D02*
X143639000Y-62913800D01*
X143639000Y-64996600D02*
X143639000Y-65913000D01*
X144735000Y-63900600D02*
X143639000Y-64996600D01*
X144735000Y-62976000D02*
X144735000Y-63900600D01*
X145420800Y-63926000D02*
X145685000Y-63926000D01*
X144099510Y-65247290D02*
X145420800Y-63926000D01*
X144099510Y-67484490D02*
X144099510Y-65247290D01*
X143639000Y-67945000D02*
X144099510Y-67484490D01*
X144653000Y-66370200D02*
X146185000Y-64838200D01*
X146185000Y-64838200D02*
X146185000Y-63926000D01*
X144653000Y-66927000D02*
X144653000Y-66370200D01*
X145268400Y-60026000D02*
X145685000Y-60026000D01*
X143639000Y-58396600D02*
X145268400Y-60026000D01*
X143639000Y-57785000D02*
X143639000Y-58396600D01*
X146685000Y-63926000D02*
X146685000Y-66682400D01*
X146685000Y-66682400D02*
X146685000Y-66952400D01*
X147764858Y-66952400D02*
X148717000Y-66952400D01*
X147085099Y-66272641D02*
X147764858Y-66952400D01*
X147085099Y-64768301D02*
X147085099Y-66272641D01*
X147185000Y-64668400D02*
X147085099Y-64768301D01*
X147185000Y-63926000D02*
X147185000Y-64668400D01*
D21*
X160528000Y-56706000D02*
X160528000Y-58674000D01*
X148412500Y-59032661D02*
X148467954Y-59088115D01*
X148412500Y-57912000D02*
X148412500Y-59032661D01*
X146494500Y-56732100D02*
X146320610Y-56905990D01*
X146494500Y-55943500D02*
X146494500Y-56732100D01*
D22*
X150734800Y-65672400D02*
X150984800Y-65422400D01*
X149934800Y-65672400D02*
X150734800Y-65672400D01*
X152590500Y-55943500D02*
X152349200Y-56184800D01*
X152590500Y-55687500D02*
X152590500Y-55943500D01*
X150495000Y-55943500D02*
X150736300Y-56184800D01*
X150736300Y-56184800D02*
X150933884Y-56184800D01*
X154736800Y-58406502D02*
X154314026Y-57983728D01*
X154736800Y-58472800D02*
X154736800Y-58406502D01*
D21*
X150507400Y-60090300D02*
X150774400Y-59823300D01*
X150507400Y-61556600D02*
X150507400Y-60090300D01*
X150434000Y-61630000D02*
X150507400Y-61556600D01*
X150434000Y-62611000D02*
X150434000Y-61630000D01*
D23*
X147185000Y-60876000D02*
X147785000Y-60876000D01*
X147185000Y-60026000D02*
X147185000Y-60876000D01*
D22*
X156470000Y-63604500D02*
X156470000Y-64542000D01*
X156470000Y-64542000D02*
X157470000Y-65542000D01*
X155532500Y-64542000D02*
X156470000Y-64542000D01*
X142468600Y-56769000D02*
X142494000Y-56794400D01*
X141351000Y-56769000D02*
X142468600Y-56769000D01*
X142468600Y-58801000D02*
X142494000Y-58775600D01*
X141351000Y-58801000D02*
X142468600Y-58801000D01*
X142468600Y-60833000D02*
X142494000Y-60807600D01*
X141351000Y-60833000D02*
X142468600Y-60833000D01*
X142468600Y-62865000D02*
X142494000Y-62839600D01*
X141351000Y-62865000D02*
X142468600Y-62865000D01*
X142468600Y-64897000D02*
X142494000Y-64922400D01*
X141351000Y-64897000D02*
X142468600Y-64897000D01*
X142468600Y-66929000D02*
X142494000Y-66954400D01*
X141351000Y-66929000D02*
X142468600Y-66929000D01*
X142468600Y-68961000D02*
X142494000Y-68986400D01*
X141351000Y-68961000D02*
X142468600Y-68961000D01*
X145669000Y-69240400D02*
X145669000Y-68072000D01*
X147701000Y-69240400D02*
X147701000Y-68072000D01*
X149733000Y-69240400D02*
X149733000Y-68122800D01*
X147699000Y-66190400D02*
X147701000Y-66192400D01*
X147699000Y-65087500D02*
X147699000Y-66190400D01*
X150495000Y-55943500D02*
X150495000Y-57683400D01*
D21*
X159486600Y-69138800D02*
X159512000Y-69113400D01*
D22*
X155532500Y-63533700D02*
X155532500Y-64542000D01*
X155141200Y-63142400D02*
X155532500Y-63533700D01*
X154228800Y-63142400D02*
X155141200Y-63142400D01*
X154228800Y-66118200D02*
X153642600Y-66118200D01*
X153314400Y-66446400D02*
X153314400Y-67350600D01*
X153642600Y-66118200D02*
X153314400Y-66446400D01*
D21*
X159171600Y-69164200D02*
X159197000Y-69138800D01*
D22*
X161520600Y-64833500D02*
X161941266Y-64833500D01*
X161941266Y-64833500D02*
X161953966Y-64820800D01*
D21*
X160121600Y-69138800D02*
X160127202Y-69133198D01*
X155133000Y-69138800D02*
X156083000Y-69138800D01*
X161520600Y-65733200D02*
X161417000Y-65836800D01*
X161520600Y-64833500D02*
X161520600Y-65733200D01*
X159101002Y-69133198D02*
X159095400Y-69138800D01*
X160127202Y-69133198D02*
X159101002Y-69133198D01*
X153314400Y-67350600D02*
X152461000Y-66497200D01*
X152461000Y-66497200D02*
X151891986Y-66497200D01*
D22*
X151436786Y-66952400D02*
X151891986Y-66497200D01*
X150749000Y-66952400D02*
X151436786Y-66952400D01*
D21*
X160231022Y-62738000D02*
X159976042Y-62483020D01*
X161417000Y-62738000D02*
X160231022Y-62738000D01*
X157988000Y-55943500D02*
X157988000Y-58163500D01*
X157988000Y-58163500D02*
X157985500Y-58166000D01*
X156895800Y-55943500D02*
X157988000Y-55943500D01*
X146862500Y-57912000D02*
X146304000Y-57912000D01*
X146177000Y-57785000D02*
X145671000Y-57785000D01*
X146304000Y-57912000D02*
X146177000Y-57785000D01*
X146862500Y-58978500D02*
X146862800Y-58978800D01*
X146862500Y-57912000D02*
X146862500Y-58978500D01*
X145643600Y-57757600D02*
X145671000Y-57785000D01*
X145643600Y-56946800D02*
X145643600Y-57757600D01*
X145542000Y-56845200D02*
X145643600Y-56946800D01*
X145542000Y-55943500D02*
X145542000Y-56845200D01*
X149934800Y-64672400D02*
X149934800Y-64172400D01*
D23*
X146685000Y-59156600D02*
X146685000Y-60026000D01*
X146862800Y-58978800D02*
X146685000Y-59156600D01*
D21*
X152371190Y-59762790D02*
X152349200Y-59740800D01*
X153038410Y-59762790D02*
X152371190Y-59762790D01*
X153038410Y-61134390D02*
X153038410Y-59762790D01*
X152334000Y-61838800D02*
X153038410Y-61134390D01*
X152334000Y-62611000D02*
X152334000Y-61838800D01*
X152590500Y-59067700D02*
X152590500Y-58739500D01*
X153038410Y-59515610D02*
X152590500Y-59067700D01*
X153038410Y-59762790D02*
X153038410Y-59515610D01*
D22*
X149098000Y-66081742D02*
X149098000Y-65887600D01*
X150429168Y-67412910D02*
X149098000Y-66081742D01*
X150969852Y-67412910D02*
X150429168Y-67412910D01*
X151765000Y-68208058D02*
X150969852Y-67412910D01*
X151765000Y-69240400D02*
X151765000Y-68208058D01*
X149100779Y-64312004D02*
X149100779Y-64569579D01*
X149203600Y-64672400D02*
X149934800Y-64672400D01*
X149100779Y-64569579D02*
X149203600Y-64672400D01*
D21*
X151282400Y-62865000D02*
X151536400Y-62611000D01*
X151282400Y-63474600D02*
X151282400Y-62865000D01*
X151053800Y-63703200D02*
X151282400Y-63474600D01*
X150139400Y-63703200D02*
X151053800Y-63703200D01*
X151536400Y-62611000D02*
X152334000Y-62611000D01*
X149934800Y-63907800D02*
X150139400Y-63703200D01*
X149934800Y-64172400D02*
X149934800Y-63907800D01*
X153668981Y-56896000D02*
X153668981Y-56414419D01*
X154139900Y-55943500D02*
X154711400Y-55943500D01*
X153668981Y-56414419D02*
X154139900Y-55943500D01*
D22*
X144187099Y-56634001D02*
X143639000Y-56085902D01*
X144187099Y-56963499D02*
X144187099Y-56634001D01*
X144244081Y-57020481D02*
X144187099Y-56963499D01*
X144245705Y-57020481D02*
X144244081Y-57020481D01*
X144920832Y-57274490D02*
X144499714Y-57274490D01*
X145135600Y-57489258D02*
X144920832Y-57274490D01*
X144499714Y-57274490D02*
X144245705Y-57020481D01*
X145135600Y-58576600D02*
X145135600Y-57489258D01*
X146185000Y-59626000D02*
X145135600Y-58576600D01*
X143639000Y-56085902D02*
X143639000Y-55753000D01*
X146185000Y-60026000D02*
X146185000Y-59626000D01*
X155532500Y-66042000D02*
X155532500Y-66542000D01*
X155532500Y-66542000D02*
X155532500Y-67165900D01*
X155033300Y-67165900D02*
X155532500Y-67165900D01*
X153771600Y-68427600D02*
X155033300Y-67165900D01*
X153492200Y-68427600D02*
X153771600Y-68427600D01*
X153314400Y-68605400D02*
X153492200Y-68427600D01*
X153314400Y-69250600D02*
X153314400Y-68605400D01*
D21*
X155668300Y-67479500D02*
X155625800Y-67437000D01*
X156470000Y-67479500D02*
X155668300Y-67479500D01*
X160147000Y-67284600D02*
X160172400Y-67259200D01*
X160172400Y-67259200D02*
X160629600Y-66802000D01*
X161366200Y-66802000D02*
X161417000Y-66751200D01*
X160629600Y-66802000D02*
X161366200Y-66802000D01*
D22*
X158244000Y-59753500D02*
X158704510Y-60214010D01*
X158958521Y-61233637D02*
X158958521Y-63115979D01*
X158958521Y-63115979D02*
X158470000Y-63604500D01*
X158704510Y-60214010D02*
X158704510Y-60979626D01*
X158704510Y-60979626D02*
X158958521Y-61233637D01*
X157855575Y-63001490D02*
X157802698Y-63001490D01*
X158244000Y-62613065D02*
X157855575Y-63001490D01*
X157470000Y-63334188D02*
X157470000Y-63604500D01*
X157802698Y-63001490D02*
X157470000Y-63334188D01*
X158244000Y-62039500D02*
X158244000Y-62613065D01*
X158704510Y-62525866D02*
X157970000Y-63260376D01*
X157970000Y-63260376D02*
X157970000Y-63604500D01*
X158244000Y-60896500D02*
X158704510Y-61357010D01*
X158704510Y-61357010D02*
X158704510Y-62525866D01*
M02*
