G04 #@! TF.GenerationSoftware,KiCad,Pcbnew,(5.1.9)-1*
G04 #@! TF.CreationDate,2022-12-29T17:40:02+01:00*
G04 #@! TF.ProjectId,FallerCarSystem_v2,46616c6c-6572-4436-9172-53797374656d,rev?*
G04 #@! TF.SameCoordinates,Original*
G04 #@! TF.FileFunction,Soldermask,Top*
G04 #@! TF.FilePolarity,Negative*
%FSLAX46Y46*%
G04 Gerber Fmt 4.6, Leading zero omitted, Abs format (unit mm)*
G04 Created by KiCad (PCBNEW (5.1.9)-1) date 2022-12-29 17:40:02*
%MOMM*%
%LPD*%
G01*
G04 APERTURE LIST*
%ADD10R,2.500000X2.500000*%
%ADD11R,1.360000X1.460000*%
%ADD12R,0.750000X0.300000*%
%ADD13R,0.500000X1.000000*%
%ADD14R,1.000000X0.500000*%
%ADD15R,1.800000X2.500000*%
%ADD16R,2.700000X2.700000*%
G04 APERTURE END LIST*
D10*
X157470000Y-65542000D03*
G36*
G01*
X158595000Y-67129500D02*
X158595000Y-67829500D01*
G75*
G02*
X158532500Y-67892000I-62500J0D01*
G01*
X158407500Y-67892000D01*
G75*
G02*
X158345000Y-67829500I0J62500D01*
G01*
X158345000Y-67129500D01*
G75*
G02*
X158407500Y-67067000I62500J0D01*
G01*
X158532500Y-67067000D01*
G75*
G02*
X158595000Y-67129500I0J-62500D01*
G01*
G37*
G36*
G01*
X158095000Y-67129500D02*
X158095000Y-67829500D01*
G75*
G02*
X158032500Y-67892000I-62500J0D01*
G01*
X157907500Y-67892000D01*
G75*
G02*
X157845000Y-67829500I0J62500D01*
G01*
X157845000Y-67129500D01*
G75*
G02*
X157907500Y-67067000I62500J0D01*
G01*
X158032500Y-67067000D01*
G75*
G02*
X158095000Y-67129500I0J-62500D01*
G01*
G37*
G36*
G01*
X157595000Y-67129500D02*
X157595000Y-67829500D01*
G75*
G02*
X157532500Y-67892000I-62500J0D01*
G01*
X157407500Y-67892000D01*
G75*
G02*
X157345000Y-67829500I0J62500D01*
G01*
X157345000Y-67129500D01*
G75*
G02*
X157407500Y-67067000I62500J0D01*
G01*
X157532500Y-67067000D01*
G75*
G02*
X157595000Y-67129500I0J-62500D01*
G01*
G37*
G36*
G01*
X157095000Y-67129500D02*
X157095000Y-67829500D01*
G75*
G02*
X157032500Y-67892000I-62500J0D01*
G01*
X156907500Y-67892000D01*
G75*
G02*
X156845000Y-67829500I0J62500D01*
G01*
X156845000Y-67129500D01*
G75*
G02*
X156907500Y-67067000I62500J0D01*
G01*
X157032500Y-67067000D01*
G75*
G02*
X157095000Y-67129500I0J-62500D01*
G01*
G37*
G36*
G01*
X156595000Y-67129500D02*
X156595000Y-67829500D01*
G75*
G02*
X156532500Y-67892000I-62500J0D01*
G01*
X156407500Y-67892000D01*
G75*
G02*
X156345000Y-67829500I0J62500D01*
G01*
X156345000Y-67129500D01*
G75*
G02*
X156407500Y-67067000I62500J0D01*
G01*
X156532500Y-67067000D01*
G75*
G02*
X156595000Y-67129500I0J-62500D01*
G01*
G37*
G36*
G01*
X155945000Y-66479500D02*
X155945000Y-66604500D01*
G75*
G02*
X155882500Y-66667000I-62500J0D01*
G01*
X155182500Y-66667000D01*
G75*
G02*
X155120000Y-66604500I0J62500D01*
G01*
X155120000Y-66479500D01*
G75*
G02*
X155182500Y-66417000I62500J0D01*
G01*
X155882500Y-66417000D01*
G75*
G02*
X155945000Y-66479500I0J-62500D01*
G01*
G37*
G36*
G01*
X155945000Y-65979500D02*
X155945000Y-66104500D01*
G75*
G02*
X155882500Y-66167000I-62500J0D01*
G01*
X155182500Y-66167000D01*
G75*
G02*
X155120000Y-66104500I0J62500D01*
G01*
X155120000Y-65979500D01*
G75*
G02*
X155182500Y-65917000I62500J0D01*
G01*
X155882500Y-65917000D01*
G75*
G02*
X155945000Y-65979500I0J-62500D01*
G01*
G37*
G36*
G01*
X155945000Y-65479500D02*
X155945000Y-65604500D01*
G75*
G02*
X155882500Y-65667000I-62500J0D01*
G01*
X155182500Y-65667000D01*
G75*
G02*
X155120000Y-65604500I0J62500D01*
G01*
X155120000Y-65479500D01*
G75*
G02*
X155182500Y-65417000I62500J0D01*
G01*
X155882500Y-65417000D01*
G75*
G02*
X155945000Y-65479500I0J-62500D01*
G01*
G37*
G36*
G01*
X155945000Y-64979500D02*
X155945000Y-65104500D01*
G75*
G02*
X155882500Y-65167000I-62500J0D01*
G01*
X155182500Y-65167000D01*
G75*
G02*
X155120000Y-65104500I0J62500D01*
G01*
X155120000Y-64979500D01*
G75*
G02*
X155182500Y-64917000I62500J0D01*
G01*
X155882500Y-64917000D01*
G75*
G02*
X155945000Y-64979500I0J-62500D01*
G01*
G37*
G36*
G01*
X155945000Y-64479500D02*
X155945000Y-64604500D01*
G75*
G02*
X155882500Y-64667000I-62500J0D01*
G01*
X155182500Y-64667000D01*
G75*
G02*
X155120000Y-64604500I0J62500D01*
G01*
X155120000Y-64479500D01*
G75*
G02*
X155182500Y-64417000I62500J0D01*
G01*
X155882500Y-64417000D01*
G75*
G02*
X155945000Y-64479500I0J-62500D01*
G01*
G37*
G36*
G01*
X156595000Y-63254500D02*
X156595000Y-63954500D01*
G75*
G02*
X156532500Y-64017000I-62500J0D01*
G01*
X156407500Y-64017000D01*
G75*
G02*
X156345000Y-63954500I0J62500D01*
G01*
X156345000Y-63254500D01*
G75*
G02*
X156407500Y-63192000I62500J0D01*
G01*
X156532500Y-63192000D01*
G75*
G02*
X156595000Y-63254500I0J-62500D01*
G01*
G37*
G36*
G01*
X157095000Y-63254500D02*
X157095000Y-63954500D01*
G75*
G02*
X157032500Y-64017000I-62500J0D01*
G01*
X156907500Y-64017000D01*
G75*
G02*
X156845000Y-63954500I0J62500D01*
G01*
X156845000Y-63254500D01*
G75*
G02*
X156907500Y-63192000I62500J0D01*
G01*
X157032500Y-63192000D01*
G75*
G02*
X157095000Y-63254500I0J-62500D01*
G01*
G37*
G36*
G01*
X157595000Y-63254500D02*
X157595000Y-63954500D01*
G75*
G02*
X157532500Y-64017000I-62500J0D01*
G01*
X157407500Y-64017000D01*
G75*
G02*
X157345000Y-63954500I0J62500D01*
G01*
X157345000Y-63254500D01*
G75*
G02*
X157407500Y-63192000I62500J0D01*
G01*
X157532500Y-63192000D01*
G75*
G02*
X157595000Y-63254500I0J-62500D01*
G01*
G37*
G36*
G01*
X158095000Y-63254500D02*
X158095000Y-63954500D01*
G75*
G02*
X158032500Y-64017000I-62500J0D01*
G01*
X157907500Y-64017000D01*
G75*
G02*
X157845000Y-63954500I0J62500D01*
G01*
X157845000Y-63254500D01*
G75*
G02*
X157907500Y-63192000I62500J0D01*
G01*
X158032500Y-63192000D01*
G75*
G02*
X158095000Y-63254500I0J-62500D01*
G01*
G37*
G36*
G01*
X158595000Y-63254500D02*
X158595000Y-63954500D01*
G75*
G02*
X158532500Y-64017000I-62500J0D01*
G01*
X158407500Y-64017000D01*
G75*
G02*
X158345000Y-63954500I0J62500D01*
G01*
X158345000Y-63254500D01*
G75*
G02*
X158407500Y-63192000I62500J0D01*
G01*
X158532500Y-63192000D01*
G75*
G02*
X158595000Y-63254500I0J-62500D01*
G01*
G37*
G36*
G01*
X159820000Y-64479500D02*
X159820000Y-64604500D01*
G75*
G02*
X159757500Y-64667000I-62500J0D01*
G01*
X159057500Y-64667000D01*
G75*
G02*
X158995000Y-64604500I0J62500D01*
G01*
X158995000Y-64479500D01*
G75*
G02*
X159057500Y-64417000I62500J0D01*
G01*
X159757500Y-64417000D01*
G75*
G02*
X159820000Y-64479500I0J-62500D01*
G01*
G37*
G36*
G01*
X159820000Y-64979500D02*
X159820000Y-65104500D01*
G75*
G02*
X159757500Y-65167000I-62500J0D01*
G01*
X159057500Y-65167000D01*
G75*
G02*
X158995000Y-65104500I0J62500D01*
G01*
X158995000Y-64979500D01*
G75*
G02*
X159057500Y-64917000I62500J0D01*
G01*
X159757500Y-64917000D01*
G75*
G02*
X159820000Y-64979500I0J-62500D01*
G01*
G37*
G36*
G01*
X159820000Y-65479500D02*
X159820000Y-65604500D01*
G75*
G02*
X159757500Y-65667000I-62500J0D01*
G01*
X159057500Y-65667000D01*
G75*
G02*
X158995000Y-65604500I0J62500D01*
G01*
X158995000Y-65479500D01*
G75*
G02*
X159057500Y-65417000I62500J0D01*
G01*
X159757500Y-65417000D01*
G75*
G02*
X159820000Y-65479500I0J-62500D01*
G01*
G37*
G36*
G01*
X159820000Y-65979500D02*
X159820000Y-66104500D01*
G75*
G02*
X159757500Y-66167000I-62500J0D01*
G01*
X159057500Y-66167000D01*
G75*
G02*
X158995000Y-66104500I0J62500D01*
G01*
X158995000Y-65979500D01*
G75*
G02*
X159057500Y-65917000I62500J0D01*
G01*
X159757500Y-65917000D01*
G75*
G02*
X159820000Y-65979500I0J-62500D01*
G01*
G37*
G36*
G01*
X159820000Y-66479500D02*
X159820000Y-66604500D01*
G75*
G02*
X159757500Y-66667000I-62500J0D01*
G01*
X159057500Y-66667000D01*
G75*
G02*
X158995000Y-66604500I0J62500D01*
G01*
X158995000Y-66479500D01*
G75*
G02*
X159057500Y-66417000I62500J0D01*
G01*
X159757500Y-66417000D01*
G75*
G02*
X159820000Y-66479500I0J-62500D01*
G01*
G37*
D11*
X151434800Y-64922400D03*
D12*
X152934800Y-64172400D03*
X152934800Y-64672400D03*
X152934800Y-65172400D03*
X152934800Y-65672400D03*
X149934800Y-65672400D03*
X149934800Y-65172400D03*
X149934800Y-64672400D03*
X149934800Y-64172400D03*
D13*
X151511000Y-55943500D03*
X149479000Y-55943500D03*
X150495000Y-55943500D03*
X144589500Y-55943500D03*
X145542000Y-55943500D03*
X146494500Y-55943500D03*
X147447000Y-55943500D03*
X148399500Y-55943500D03*
X155803600Y-55943500D03*
X156895800Y-55943500D03*
D14*
X161417000Y-67665600D03*
D13*
X154711400Y-55943500D03*
X151765000Y-69240400D03*
X150749000Y-69240400D03*
D14*
X161417000Y-63754000D03*
X161417000Y-62738000D03*
X161417000Y-66751200D03*
X161417000Y-65836800D03*
X141351000Y-59817000D03*
X141351000Y-60833000D03*
X141351000Y-61849000D03*
X141351000Y-62865000D03*
X141351000Y-63881000D03*
X141351000Y-64897000D03*
X141351000Y-65913000D03*
X141351000Y-66929000D03*
X141351000Y-67945000D03*
X141351000Y-68961000D03*
D13*
X144653000Y-69240400D03*
X145669000Y-69240400D03*
D14*
X141351000Y-57785000D03*
X141351000Y-58801000D03*
X141351000Y-55753000D03*
X141351000Y-56769000D03*
D13*
X148717000Y-69240400D03*
X149733000Y-69240400D03*
X146685000Y-69240400D03*
X147701000Y-69240400D03*
G36*
G01*
X154413800Y-65368200D02*
X154043800Y-65368200D01*
G75*
G02*
X153908800Y-65233200I0J135000D01*
G01*
X153908800Y-64963200D01*
G75*
G02*
X154043800Y-64828200I135000J0D01*
G01*
X154413800Y-64828200D01*
G75*
G02*
X154548800Y-64963200I0J-135000D01*
G01*
X154548800Y-65233200D01*
G75*
G02*
X154413800Y-65368200I-135000J0D01*
G01*
G37*
G36*
G01*
X154413800Y-66388200D02*
X154043800Y-66388200D01*
G75*
G02*
X153908800Y-66253200I0J135000D01*
G01*
X153908800Y-65983200D01*
G75*
G02*
X154043800Y-65848200I135000J0D01*
G01*
X154413800Y-65848200D01*
G75*
G02*
X154548800Y-65983200I0J-135000D01*
G01*
X154548800Y-66253200D01*
G75*
G02*
X154413800Y-66388200I-135000J0D01*
G01*
G37*
G36*
G01*
X154043800Y-63892400D02*
X154413800Y-63892400D01*
G75*
G02*
X154548800Y-64027400I0J-135000D01*
G01*
X154548800Y-64297400D01*
G75*
G02*
X154413800Y-64432400I-135000J0D01*
G01*
X154043800Y-64432400D01*
G75*
G02*
X153908800Y-64297400I0J135000D01*
G01*
X153908800Y-64027400D01*
G75*
G02*
X154043800Y-63892400I135000J0D01*
G01*
G37*
G36*
G01*
X154043800Y-62872400D02*
X154413800Y-62872400D01*
G75*
G02*
X154548800Y-63007400I0J-135000D01*
G01*
X154548800Y-63277400D01*
G75*
G02*
X154413800Y-63412400I-135000J0D01*
G01*
X154043800Y-63412400D01*
G75*
G02*
X153908800Y-63277400I0J135000D01*
G01*
X153908800Y-63007400D01*
G75*
G02*
X154043800Y-62872400I135000J0D01*
G01*
G37*
G36*
G01*
X150934000Y-62136000D02*
X150934000Y-63086000D01*
G75*
G02*
X150684000Y-63336000I-250000J0D01*
G01*
X150184000Y-63336000D01*
G75*
G02*
X149934000Y-63086000I0J250000D01*
G01*
X149934000Y-62136000D01*
G75*
G02*
X150184000Y-61886000I250000J0D01*
G01*
X150684000Y-61886000D01*
G75*
G02*
X150934000Y-62136000I0J-250000D01*
G01*
G37*
G36*
G01*
X152834000Y-62136000D02*
X152834000Y-63086000D01*
G75*
G02*
X152584000Y-63336000I-250000J0D01*
G01*
X152084000Y-63336000D01*
G75*
G02*
X151834000Y-63086000I0J250000D01*
G01*
X151834000Y-62136000D01*
G75*
G02*
X152084000Y-61886000I250000J0D01*
G01*
X152584000Y-61886000D01*
G75*
G02*
X152834000Y-62136000I0J-250000D01*
G01*
G37*
G36*
G01*
X155633000Y-68663800D02*
X155633000Y-69613800D01*
G75*
G02*
X155383000Y-69863800I-250000J0D01*
G01*
X154883000Y-69863800D01*
G75*
G02*
X154633000Y-69613800I0J250000D01*
G01*
X154633000Y-68663800D01*
G75*
G02*
X154883000Y-68413800I250000J0D01*
G01*
X155383000Y-68413800D01*
G75*
G02*
X155633000Y-68663800I0J-250000D01*
G01*
G37*
G36*
G01*
X157533000Y-68663800D02*
X157533000Y-69613800D01*
G75*
G02*
X157283000Y-69863800I-250000J0D01*
G01*
X156783000Y-69863800D01*
G75*
G02*
X156533000Y-69613800I0J250000D01*
G01*
X156533000Y-68663800D01*
G75*
G02*
X156783000Y-68413800I250000J0D01*
G01*
X157283000Y-68413800D01*
G75*
G02*
X157533000Y-68663800I0J-250000D01*
G01*
G37*
G36*
G01*
X157485500Y-58641000D02*
X157485500Y-57691000D01*
G75*
G02*
X157735500Y-57441000I250000J0D01*
G01*
X158235500Y-57441000D01*
G75*
G02*
X158485500Y-57691000I0J-250000D01*
G01*
X158485500Y-58641000D01*
G75*
G02*
X158235500Y-58891000I-250000J0D01*
G01*
X157735500Y-58891000D01*
G75*
G02*
X157485500Y-58641000I0J250000D01*
G01*
G37*
G36*
G01*
X155585500Y-58641000D02*
X155585500Y-57691000D01*
G75*
G02*
X155835500Y-57441000I250000J0D01*
G01*
X156335500Y-57441000D01*
G75*
G02*
X156585500Y-57691000I0J-250000D01*
G01*
X156585500Y-58641000D01*
G75*
G02*
X156335500Y-58891000I-250000J0D01*
G01*
X155835500Y-58891000D01*
G75*
G02*
X155585500Y-58641000I0J250000D01*
G01*
G37*
G36*
G01*
X153789400Y-67850600D02*
X152839400Y-67850600D01*
G75*
G02*
X152589400Y-67600600I0J250000D01*
G01*
X152589400Y-67100600D01*
G75*
G02*
X152839400Y-66850600I250000J0D01*
G01*
X153789400Y-66850600D01*
G75*
G02*
X154039400Y-67100600I0J-250000D01*
G01*
X154039400Y-67600600D01*
G75*
G02*
X153789400Y-67850600I-250000J0D01*
G01*
G37*
G36*
G01*
X153789400Y-69750600D02*
X152839400Y-69750600D01*
G75*
G02*
X152589400Y-69500600I0J250000D01*
G01*
X152589400Y-69000600D01*
G75*
G02*
X152839400Y-68750600I250000J0D01*
G01*
X153789400Y-68750600D01*
G75*
G02*
X154039400Y-69000600I0J-250000D01*
G01*
X154039400Y-69500600D01*
G75*
G02*
X153789400Y-69750600I-250000J0D01*
G01*
G37*
D15*
X160528000Y-56706000D03*
X160528000Y-60706000D03*
G36*
G01*
X155321500Y-59581000D02*
X155321500Y-59926000D01*
G75*
G02*
X155174000Y-60073500I-147500J0D01*
G01*
X154879000Y-60073500D01*
G75*
G02*
X154731500Y-59926000I0J147500D01*
G01*
X154731500Y-59581000D01*
G75*
G02*
X154879000Y-59433500I147500J0D01*
G01*
X155174000Y-59433500D01*
G75*
G02*
X155321500Y-59581000I0J-147500D01*
G01*
G37*
G36*
G01*
X156291500Y-59581000D02*
X156291500Y-59926000D01*
G75*
G02*
X156144000Y-60073500I-147500J0D01*
G01*
X155849000Y-60073500D01*
G75*
G02*
X155701500Y-59926000I0J147500D01*
G01*
X155701500Y-59581000D01*
G75*
G02*
X155849000Y-59433500I147500J0D01*
G01*
X156144000Y-59433500D01*
G75*
G02*
X156291500Y-59581000I0J-147500D01*
G01*
G37*
G36*
G01*
X155321500Y-61867000D02*
X155321500Y-62212000D01*
G75*
G02*
X155174000Y-62359500I-147500J0D01*
G01*
X154879000Y-62359500D01*
G75*
G02*
X154731500Y-62212000I0J147500D01*
G01*
X154731500Y-61867000D01*
G75*
G02*
X154879000Y-61719500I147500J0D01*
G01*
X155174000Y-61719500D01*
G75*
G02*
X155321500Y-61867000I0J-147500D01*
G01*
G37*
G36*
G01*
X156291500Y-61867000D02*
X156291500Y-62212000D01*
G75*
G02*
X156144000Y-62359500I-147500J0D01*
G01*
X155849000Y-62359500D01*
G75*
G02*
X155701500Y-62212000I0J147500D01*
G01*
X155701500Y-61867000D01*
G75*
G02*
X155849000Y-61719500I147500J0D01*
G01*
X156144000Y-61719500D01*
G75*
G02*
X156291500Y-61867000I0J-147500D01*
G01*
G37*
G36*
G01*
X155321500Y-60724000D02*
X155321500Y-61069000D01*
G75*
G02*
X155174000Y-61216500I-147500J0D01*
G01*
X154879000Y-61216500D01*
G75*
G02*
X154731500Y-61069000I0J147500D01*
G01*
X154731500Y-60724000D01*
G75*
G02*
X154879000Y-60576500I147500J0D01*
G01*
X155174000Y-60576500D01*
G75*
G02*
X155321500Y-60724000I0J-147500D01*
G01*
G37*
G36*
G01*
X156291500Y-60724000D02*
X156291500Y-61069000D01*
G75*
G02*
X156144000Y-61216500I-147500J0D01*
G01*
X155849000Y-61216500D01*
G75*
G02*
X155701500Y-61069000I0J147500D01*
G01*
X155701500Y-60724000D01*
G75*
G02*
X155849000Y-60576500I147500J0D01*
G01*
X156144000Y-60576500D01*
G75*
G02*
X156291500Y-60724000I0J-147500D01*
G01*
G37*
G36*
G01*
X152405500Y-58469500D02*
X152775500Y-58469500D01*
G75*
G02*
X152910500Y-58604500I0J-135000D01*
G01*
X152910500Y-58874500D01*
G75*
G02*
X152775500Y-59009500I-135000J0D01*
G01*
X152405500Y-59009500D01*
G75*
G02*
X152270500Y-58874500I0J135000D01*
G01*
X152270500Y-58604500D01*
G75*
G02*
X152405500Y-58469500I135000J0D01*
G01*
G37*
G36*
G01*
X152405500Y-57449500D02*
X152775500Y-57449500D01*
G75*
G02*
X152910500Y-57584500I0J-135000D01*
G01*
X152910500Y-57854500D01*
G75*
G02*
X152775500Y-57989500I-135000J0D01*
G01*
X152405500Y-57989500D01*
G75*
G02*
X152270500Y-57854500I0J135000D01*
G01*
X152270500Y-57584500D01*
G75*
G02*
X152405500Y-57449500I135000J0D01*
G01*
G37*
G36*
G01*
X152405500Y-56437500D02*
X152775500Y-56437500D01*
G75*
G02*
X152910500Y-56572500I0J-135000D01*
G01*
X152910500Y-56842500D01*
G75*
G02*
X152775500Y-56977500I-135000J0D01*
G01*
X152405500Y-56977500D01*
G75*
G02*
X152270500Y-56842500I0J135000D01*
G01*
X152270500Y-56572500D01*
G75*
G02*
X152405500Y-56437500I135000J0D01*
G01*
G37*
G36*
G01*
X152405500Y-55417500D02*
X152775500Y-55417500D01*
G75*
G02*
X152910500Y-55552500I0J-135000D01*
G01*
X152910500Y-55822500D01*
G75*
G02*
X152775500Y-55957500I-135000J0D01*
G01*
X152405500Y-55957500D01*
G75*
G02*
X152270500Y-55822500I0J135000D01*
G01*
X152270500Y-55552500D01*
G75*
G02*
X152405500Y-55417500I135000J0D01*
G01*
G37*
G36*
G01*
X145401000Y-57970000D02*
X145401000Y-57600000D01*
G75*
G02*
X145536000Y-57465000I135000J0D01*
G01*
X145806000Y-57465000D01*
G75*
G02*
X145941000Y-57600000I0J-135000D01*
G01*
X145941000Y-57970000D01*
G75*
G02*
X145806000Y-58105000I-135000J0D01*
G01*
X145536000Y-58105000D01*
G75*
G02*
X145401000Y-57970000I0J135000D01*
G01*
G37*
G36*
G01*
X144381000Y-57970000D02*
X144381000Y-57600000D01*
G75*
G02*
X144516000Y-57465000I135000J0D01*
G01*
X144786000Y-57465000D01*
G75*
G02*
X144921000Y-57600000I0J-135000D01*
G01*
X144921000Y-57970000D01*
G75*
G02*
X144786000Y-58105000I-135000J0D01*
G01*
X144516000Y-58105000D01*
G75*
G02*
X144381000Y-57970000I0J135000D01*
G01*
G37*
G36*
G01*
X151326000Y-58482200D02*
X151696000Y-58482200D01*
G75*
G02*
X151831000Y-58617200I0J-135000D01*
G01*
X151831000Y-58887200D01*
G75*
G02*
X151696000Y-59022200I-135000J0D01*
G01*
X151326000Y-59022200D01*
G75*
G02*
X151191000Y-58887200I0J135000D01*
G01*
X151191000Y-58617200D01*
G75*
G02*
X151326000Y-58482200I135000J0D01*
G01*
G37*
G36*
G01*
X151326000Y-57462200D02*
X151696000Y-57462200D01*
G75*
G02*
X151831000Y-57597200I0J-135000D01*
G01*
X151831000Y-57867200D01*
G75*
G02*
X151696000Y-58002200I-135000J0D01*
G01*
X151326000Y-58002200D01*
G75*
G02*
X151191000Y-57867200I0J135000D01*
G01*
X151191000Y-57597200D01*
G75*
G02*
X151326000Y-57462200I135000J0D01*
G01*
G37*
G36*
G01*
X149471800Y-58482200D02*
X149841800Y-58482200D01*
G75*
G02*
X149976800Y-58617200I0J-135000D01*
G01*
X149976800Y-58887200D01*
G75*
G02*
X149841800Y-59022200I-135000J0D01*
G01*
X149471800Y-59022200D01*
G75*
G02*
X149336800Y-58887200I0J135000D01*
G01*
X149336800Y-58617200D01*
G75*
G02*
X149471800Y-58482200I135000J0D01*
G01*
G37*
G36*
G01*
X149471800Y-57462200D02*
X149841800Y-57462200D01*
G75*
G02*
X149976800Y-57597200I0J-135000D01*
G01*
X149976800Y-57867200D01*
G75*
G02*
X149841800Y-58002200I-135000J0D01*
G01*
X149471800Y-58002200D01*
G75*
G02*
X149336800Y-57867200I0J135000D01*
G01*
X149336800Y-57597200D01*
G75*
G02*
X149471800Y-57462200I135000J0D01*
G01*
G37*
G36*
G01*
X160770600Y-64648500D02*
X160770600Y-65018500D01*
G75*
G02*
X160635600Y-65153500I-135000J0D01*
G01*
X160365600Y-65153500D01*
G75*
G02*
X160230600Y-65018500I0J135000D01*
G01*
X160230600Y-64648500D01*
G75*
G02*
X160365600Y-64513500I135000J0D01*
G01*
X160635600Y-64513500D01*
G75*
G02*
X160770600Y-64648500I0J-135000D01*
G01*
G37*
G36*
G01*
X161790600Y-64648500D02*
X161790600Y-65018500D01*
G75*
G02*
X161655600Y-65153500I-135000J0D01*
G01*
X161385600Y-65153500D01*
G75*
G02*
X161250600Y-65018500I0J135000D01*
G01*
X161250600Y-64648500D01*
G75*
G02*
X161385600Y-64513500I135000J0D01*
G01*
X161655600Y-64513500D01*
G75*
G02*
X161790600Y-64648500I0J-135000D01*
G01*
G37*
G36*
G01*
X148449000Y-65272500D02*
X148449000Y-64902500D01*
G75*
G02*
X148584000Y-64767500I135000J0D01*
G01*
X148854000Y-64767500D01*
G75*
G02*
X148989000Y-64902500I0J-135000D01*
G01*
X148989000Y-65272500D01*
G75*
G02*
X148854000Y-65407500I-135000J0D01*
G01*
X148584000Y-65407500D01*
G75*
G02*
X148449000Y-65272500I0J135000D01*
G01*
G37*
G36*
G01*
X147429000Y-65272500D02*
X147429000Y-64902500D01*
G75*
G02*
X147564000Y-64767500I135000J0D01*
G01*
X147834000Y-64767500D01*
G75*
G02*
X147969000Y-64902500I0J-135000D01*
G01*
X147969000Y-65272500D01*
G75*
G02*
X147834000Y-65407500I-135000J0D01*
G01*
X147564000Y-65407500D01*
G75*
G02*
X147429000Y-65272500I0J135000D01*
G01*
G37*
G36*
G01*
X153485000Y-57449500D02*
X153855000Y-57449500D01*
G75*
G02*
X153990000Y-57584500I0J-135000D01*
G01*
X153990000Y-57854500D01*
G75*
G02*
X153855000Y-57989500I-135000J0D01*
G01*
X153485000Y-57989500D01*
G75*
G02*
X153350000Y-57854500I0J135000D01*
G01*
X153350000Y-57584500D01*
G75*
G02*
X153485000Y-57449500I135000J0D01*
G01*
G37*
G36*
G01*
X153485000Y-58469500D02*
X153855000Y-58469500D01*
G75*
G02*
X153990000Y-58604500I0J-135000D01*
G01*
X153990000Y-58874500D01*
G75*
G02*
X153855000Y-59009500I-135000J0D01*
G01*
X153485000Y-59009500D01*
G75*
G02*
X153350000Y-58874500I0J135000D01*
G01*
X153350000Y-58604500D01*
G75*
G02*
X153485000Y-58469500I135000J0D01*
G01*
G37*
G36*
G01*
X155023400Y-57722800D02*
X154653400Y-57722800D01*
G75*
G02*
X154518400Y-57587800I0J135000D01*
G01*
X154518400Y-57317800D01*
G75*
G02*
X154653400Y-57182800I135000J0D01*
G01*
X155023400Y-57182800D01*
G75*
G02*
X155158400Y-57317800I0J-135000D01*
G01*
X155158400Y-57587800D01*
G75*
G02*
X155023400Y-57722800I-135000J0D01*
G01*
G37*
G36*
G01*
X155023400Y-58742800D02*
X154653400Y-58742800D01*
G75*
G02*
X154518400Y-58607800I0J135000D01*
G01*
X154518400Y-58337800D01*
G75*
G02*
X154653400Y-58202800I135000J0D01*
G01*
X155023400Y-58202800D01*
G75*
G02*
X155158400Y-58337800I0J-135000D01*
G01*
X155158400Y-58607800D01*
G75*
G02*
X155023400Y-58742800I-135000J0D01*
G01*
G37*
G36*
G01*
X157494000Y-59568500D02*
X157494000Y-59938500D01*
G75*
G02*
X157359000Y-60073500I-135000J0D01*
G01*
X157089000Y-60073500D01*
G75*
G02*
X156954000Y-59938500I0J135000D01*
G01*
X156954000Y-59568500D01*
G75*
G02*
X157089000Y-59433500I135000J0D01*
G01*
X157359000Y-59433500D01*
G75*
G02*
X157494000Y-59568500I0J-135000D01*
G01*
G37*
G36*
G01*
X158514000Y-59568500D02*
X158514000Y-59938500D01*
G75*
G02*
X158379000Y-60073500I-135000J0D01*
G01*
X158109000Y-60073500D01*
G75*
G02*
X157974000Y-59938500I0J135000D01*
G01*
X157974000Y-59568500D01*
G75*
G02*
X158109000Y-59433500I135000J0D01*
G01*
X158379000Y-59433500D01*
G75*
G02*
X158514000Y-59568500I0J-135000D01*
G01*
G37*
G36*
G01*
X157494000Y-61854500D02*
X157494000Y-62224500D01*
G75*
G02*
X157359000Y-62359500I-135000J0D01*
G01*
X157089000Y-62359500D01*
G75*
G02*
X156954000Y-62224500I0J135000D01*
G01*
X156954000Y-61854500D01*
G75*
G02*
X157089000Y-61719500I135000J0D01*
G01*
X157359000Y-61719500D01*
G75*
G02*
X157494000Y-61854500I0J-135000D01*
G01*
G37*
G36*
G01*
X158514000Y-61854500D02*
X158514000Y-62224500D01*
G75*
G02*
X158379000Y-62359500I-135000J0D01*
G01*
X158109000Y-62359500D01*
G75*
G02*
X157974000Y-62224500I0J135000D01*
G01*
X157974000Y-61854500D01*
G75*
G02*
X158109000Y-61719500I135000J0D01*
G01*
X158379000Y-61719500D01*
G75*
G02*
X158514000Y-61854500I0J-135000D01*
G01*
G37*
G36*
G01*
X157494000Y-60711500D02*
X157494000Y-61081500D01*
G75*
G02*
X157359000Y-61216500I-135000J0D01*
G01*
X157089000Y-61216500D01*
G75*
G02*
X156954000Y-61081500I0J135000D01*
G01*
X156954000Y-60711500D01*
G75*
G02*
X157089000Y-60576500I135000J0D01*
G01*
X157359000Y-60576500D01*
G75*
G02*
X157494000Y-60711500I0J-135000D01*
G01*
G37*
G36*
G01*
X158514000Y-60711500D02*
X158514000Y-61081500D01*
G75*
G02*
X158379000Y-61216500I-135000J0D01*
G01*
X158109000Y-61216500D01*
G75*
G02*
X157974000Y-61081500I0J135000D01*
G01*
X157974000Y-60711500D01*
G75*
G02*
X158109000Y-60576500I135000J0D01*
G01*
X158379000Y-60576500D01*
G75*
G02*
X158514000Y-60711500I0J-135000D01*
G01*
G37*
G36*
G01*
X150564000Y-67702400D02*
X150934000Y-67702400D01*
G75*
G02*
X151069000Y-67837400I0J-135000D01*
G01*
X151069000Y-68107400D01*
G75*
G02*
X150934000Y-68242400I-135000J0D01*
G01*
X150564000Y-68242400D01*
G75*
G02*
X150429000Y-68107400I0J135000D01*
G01*
X150429000Y-67837400D01*
G75*
G02*
X150564000Y-67702400I135000J0D01*
G01*
G37*
G36*
G01*
X150564000Y-66682400D02*
X150934000Y-66682400D01*
G75*
G02*
X151069000Y-66817400I0J-135000D01*
G01*
X151069000Y-67087400D01*
G75*
G02*
X150934000Y-67222400I-135000J0D01*
G01*
X150564000Y-67222400D01*
G75*
G02*
X150429000Y-67087400I0J135000D01*
G01*
X150429000Y-66817400D01*
G75*
G02*
X150564000Y-66682400I135000J0D01*
G01*
G37*
G36*
G01*
X143369000Y-60002000D02*
X143369000Y-59632000D01*
G75*
G02*
X143504000Y-59497000I135000J0D01*
G01*
X143774000Y-59497000D01*
G75*
G02*
X143909000Y-59632000I0J-135000D01*
G01*
X143909000Y-60002000D01*
G75*
G02*
X143774000Y-60137000I-135000J0D01*
G01*
X143504000Y-60137000D01*
G75*
G02*
X143369000Y-60002000I0J135000D01*
G01*
G37*
G36*
G01*
X142349000Y-60002000D02*
X142349000Y-59632000D01*
G75*
G02*
X142484000Y-59497000I135000J0D01*
G01*
X142754000Y-59497000D01*
G75*
G02*
X142889000Y-59632000I0J-135000D01*
G01*
X142889000Y-60002000D01*
G75*
G02*
X142754000Y-60137000I-135000J0D01*
G01*
X142484000Y-60137000D01*
G75*
G02*
X142349000Y-60002000I0J135000D01*
G01*
G37*
G36*
G01*
X143369000Y-62034000D02*
X143369000Y-61664000D01*
G75*
G02*
X143504000Y-61529000I135000J0D01*
G01*
X143774000Y-61529000D01*
G75*
G02*
X143909000Y-61664000I0J-135000D01*
G01*
X143909000Y-62034000D01*
G75*
G02*
X143774000Y-62169000I-135000J0D01*
G01*
X143504000Y-62169000D01*
G75*
G02*
X143369000Y-62034000I0J135000D01*
G01*
G37*
G36*
G01*
X142349000Y-62034000D02*
X142349000Y-61664000D01*
G75*
G02*
X142484000Y-61529000I135000J0D01*
G01*
X142754000Y-61529000D01*
G75*
G02*
X142889000Y-61664000I0J-135000D01*
G01*
X142889000Y-62034000D01*
G75*
G02*
X142754000Y-62169000I-135000J0D01*
G01*
X142484000Y-62169000D01*
G75*
G02*
X142349000Y-62034000I0J135000D01*
G01*
G37*
G36*
G01*
X143369000Y-64066000D02*
X143369000Y-63696000D01*
G75*
G02*
X143504000Y-63561000I135000J0D01*
G01*
X143774000Y-63561000D01*
G75*
G02*
X143909000Y-63696000I0J-135000D01*
G01*
X143909000Y-64066000D01*
G75*
G02*
X143774000Y-64201000I-135000J0D01*
G01*
X143504000Y-64201000D01*
G75*
G02*
X143369000Y-64066000I0J135000D01*
G01*
G37*
G36*
G01*
X142349000Y-64066000D02*
X142349000Y-63696000D01*
G75*
G02*
X142484000Y-63561000I135000J0D01*
G01*
X142754000Y-63561000D01*
G75*
G02*
X142889000Y-63696000I0J-135000D01*
G01*
X142889000Y-64066000D01*
G75*
G02*
X142754000Y-64201000I-135000J0D01*
G01*
X142484000Y-64201000D01*
G75*
G02*
X142349000Y-64066000I0J135000D01*
G01*
G37*
G36*
G01*
X143369000Y-66098000D02*
X143369000Y-65728000D01*
G75*
G02*
X143504000Y-65593000I135000J0D01*
G01*
X143774000Y-65593000D01*
G75*
G02*
X143909000Y-65728000I0J-135000D01*
G01*
X143909000Y-66098000D01*
G75*
G02*
X143774000Y-66233000I-135000J0D01*
G01*
X143504000Y-66233000D01*
G75*
G02*
X143369000Y-66098000I0J135000D01*
G01*
G37*
G36*
G01*
X142349000Y-66098000D02*
X142349000Y-65728000D01*
G75*
G02*
X142484000Y-65593000I135000J0D01*
G01*
X142754000Y-65593000D01*
G75*
G02*
X142889000Y-65728000I0J-135000D01*
G01*
X142889000Y-66098000D01*
G75*
G02*
X142754000Y-66233000I-135000J0D01*
G01*
X142484000Y-66233000D01*
G75*
G02*
X142349000Y-66098000I0J135000D01*
G01*
G37*
G36*
G01*
X143369000Y-68130000D02*
X143369000Y-67760000D01*
G75*
G02*
X143504000Y-67625000I135000J0D01*
G01*
X143774000Y-67625000D01*
G75*
G02*
X143909000Y-67760000I0J-135000D01*
G01*
X143909000Y-68130000D01*
G75*
G02*
X143774000Y-68265000I-135000J0D01*
G01*
X143504000Y-68265000D01*
G75*
G02*
X143369000Y-68130000I0J135000D01*
G01*
G37*
G36*
G01*
X142349000Y-68130000D02*
X142349000Y-67760000D01*
G75*
G02*
X142484000Y-67625000I135000J0D01*
G01*
X142754000Y-67625000D01*
G75*
G02*
X142889000Y-67760000I0J-135000D01*
G01*
X142889000Y-68130000D01*
G75*
G02*
X142754000Y-68265000I-135000J0D01*
G01*
X142484000Y-68265000D01*
G75*
G02*
X142349000Y-68130000I0J135000D01*
G01*
G37*
G36*
G01*
X144838000Y-67197000D02*
X144468000Y-67197000D01*
G75*
G02*
X144333000Y-67062000I0J135000D01*
G01*
X144333000Y-66792000D01*
G75*
G02*
X144468000Y-66657000I135000J0D01*
G01*
X144838000Y-66657000D01*
G75*
G02*
X144973000Y-66792000I0J-135000D01*
G01*
X144973000Y-67062000D01*
G75*
G02*
X144838000Y-67197000I-135000J0D01*
G01*
G37*
G36*
G01*
X144838000Y-68217000D02*
X144468000Y-68217000D01*
G75*
G02*
X144333000Y-68082000I0J135000D01*
G01*
X144333000Y-67812000D01*
G75*
G02*
X144468000Y-67677000I135000J0D01*
G01*
X144838000Y-67677000D01*
G75*
G02*
X144973000Y-67812000I0J-135000D01*
G01*
X144973000Y-68082000D01*
G75*
G02*
X144838000Y-68217000I-135000J0D01*
G01*
G37*
G36*
G01*
X143369000Y-57970000D02*
X143369000Y-57600000D01*
G75*
G02*
X143504000Y-57465000I135000J0D01*
G01*
X143774000Y-57465000D01*
G75*
G02*
X143909000Y-57600000I0J-135000D01*
G01*
X143909000Y-57970000D01*
G75*
G02*
X143774000Y-58105000I-135000J0D01*
G01*
X143504000Y-58105000D01*
G75*
G02*
X143369000Y-57970000I0J135000D01*
G01*
G37*
G36*
G01*
X142349000Y-57970000D02*
X142349000Y-57600000D01*
G75*
G02*
X142484000Y-57465000I135000J0D01*
G01*
X142754000Y-57465000D01*
G75*
G02*
X142889000Y-57600000I0J-135000D01*
G01*
X142889000Y-57970000D01*
G75*
G02*
X142754000Y-58105000I-135000J0D01*
G01*
X142484000Y-58105000D01*
G75*
G02*
X142349000Y-57970000I0J135000D01*
G01*
G37*
G36*
G01*
X142349000Y-55938000D02*
X142349000Y-55568000D01*
G75*
G02*
X142484000Y-55433000I135000J0D01*
G01*
X142754000Y-55433000D01*
G75*
G02*
X142889000Y-55568000I0J-135000D01*
G01*
X142889000Y-55938000D01*
G75*
G02*
X142754000Y-56073000I-135000J0D01*
G01*
X142484000Y-56073000D01*
G75*
G02*
X142349000Y-55938000I0J135000D01*
G01*
G37*
G36*
G01*
X143369000Y-55938000D02*
X143369000Y-55568000D01*
G75*
G02*
X143504000Y-55433000I135000J0D01*
G01*
X143774000Y-55433000D01*
G75*
G02*
X143909000Y-55568000I0J-135000D01*
G01*
X143909000Y-55938000D01*
G75*
G02*
X143774000Y-56073000I-135000J0D01*
G01*
X143504000Y-56073000D01*
G75*
G02*
X143369000Y-55938000I0J135000D01*
G01*
G37*
G36*
G01*
X148902000Y-67222400D02*
X148532000Y-67222400D01*
G75*
G02*
X148397000Y-67087400I0J135000D01*
G01*
X148397000Y-66817400D01*
G75*
G02*
X148532000Y-66682400I135000J0D01*
G01*
X148902000Y-66682400D01*
G75*
G02*
X149037000Y-66817400I0J-135000D01*
G01*
X149037000Y-67087400D01*
G75*
G02*
X148902000Y-67222400I-135000J0D01*
G01*
G37*
G36*
G01*
X148902000Y-68242400D02*
X148532000Y-68242400D01*
G75*
G02*
X148397000Y-68107400I0J135000D01*
G01*
X148397000Y-67837400D01*
G75*
G02*
X148532000Y-67702400I135000J0D01*
G01*
X148902000Y-67702400D01*
G75*
G02*
X149037000Y-67837400I0J-135000D01*
G01*
X149037000Y-68107400D01*
G75*
G02*
X148902000Y-68242400I-135000J0D01*
G01*
G37*
G36*
G01*
X146870000Y-67222400D02*
X146500000Y-67222400D01*
G75*
G02*
X146365000Y-67087400I0J135000D01*
G01*
X146365000Y-66817400D01*
G75*
G02*
X146500000Y-66682400I135000J0D01*
G01*
X146870000Y-66682400D01*
G75*
G02*
X147005000Y-66817400I0J-135000D01*
G01*
X147005000Y-67087400D01*
G75*
G02*
X146870000Y-67222400I-135000J0D01*
G01*
G37*
G36*
G01*
X146870000Y-68242400D02*
X146500000Y-68242400D01*
G75*
G02*
X146365000Y-68107400I0J135000D01*
G01*
X146365000Y-67837400D01*
G75*
G02*
X146500000Y-67702400I135000J0D01*
G01*
X146870000Y-67702400D01*
G75*
G02*
X147005000Y-67837400I0J-135000D01*
G01*
X147005000Y-68107400D01*
G75*
G02*
X146870000Y-68242400I-135000J0D01*
G01*
G37*
G36*
G01*
X147962500Y-58162000D02*
X147962500Y-57662000D01*
G75*
G02*
X148187500Y-57437000I225000J0D01*
G01*
X148637500Y-57437000D01*
G75*
G02*
X148862500Y-57662000I0J-225000D01*
G01*
X148862500Y-58162000D01*
G75*
G02*
X148637500Y-58387000I-225000J0D01*
G01*
X148187500Y-58387000D01*
G75*
G02*
X147962500Y-58162000I0J225000D01*
G01*
G37*
G36*
G01*
X146412500Y-58162000D02*
X146412500Y-57662000D01*
G75*
G02*
X146637500Y-57437000I225000J0D01*
G01*
X147087500Y-57437000D01*
G75*
G02*
X147312500Y-57662000I0J-225000D01*
G01*
X147312500Y-58162000D01*
G75*
G02*
X147087500Y-58387000I-225000J0D01*
G01*
X146637500Y-58387000D01*
G75*
G02*
X146412500Y-58162000I0J225000D01*
G01*
G37*
G36*
G01*
X150957400Y-60608400D02*
X150957400Y-61108400D01*
G75*
G02*
X150732400Y-61333400I-225000J0D01*
G01*
X150282400Y-61333400D01*
G75*
G02*
X150057400Y-61108400I0J225000D01*
G01*
X150057400Y-60608400D01*
G75*
G02*
X150282400Y-60383400I225000J0D01*
G01*
X150732400Y-60383400D01*
G75*
G02*
X150957400Y-60608400I0J-225000D01*
G01*
G37*
G36*
G01*
X152507400Y-60608400D02*
X152507400Y-61108400D01*
G75*
G02*
X152282400Y-61333400I-225000J0D01*
G01*
X151832400Y-61333400D01*
G75*
G02*
X151607400Y-61108400I0J225000D01*
G01*
X151607400Y-60608400D01*
G75*
G02*
X151832400Y-60383400I225000J0D01*
G01*
X152282400Y-60383400D01*
G75*
G02*
X152507400Y-60608400I0J-225000D01*
G01*
G37*
G36*
G01*
X144335000Y-61038500D02*
X144335000Y-60913500D01*
G75*
G02*
X144397500Y-60851000I62500J0D01*
G01*
X145072500Y-60851000D01*
G75*
G02*
X145135000Y-60913500I0J-62500D01*
G01*
X145135000Y-61038500D01*
G75*
G02*
X145072500Y-61101000I-62500J0D01*
G01*
X144397500Y-61101000D01*
G75*
G02*
X144335000Y-61038500I0J62500D01*
G01*
G37*
G36*
G01*
X144335000Y-61538500D02*
X144335000Y-61413500D01*
G75*
G02*
X144397500Y-61351000I62500J0D01*
G01*
X145072500Y-61351000D01*
G75*
G02*
X145135000Y-61413500I0J-62500D01*
G01*
X145135000Y-61538500D01*
G75*
G02*
X145072500Y-61601000I-62500J0D01*
G01*
X144397500Y-61601000D01*
G75*
G02*
X144335000Y-61538500I0J62500D01*
G01*
G37*
G36*
G01*
X144335000Y-62038500D02*
X144335000Y-61913500D01*
G75*
G02*
X144397500Y-61851000I62500J0D01*
G01*
X145072500Y-61851000D01*
G75*
G02*
X145135000Y-61913500I0J-62500D01*
G01*
X145135000Y-62038500D01*
G75*
G02*
X145072500Y-62101000I-62500J0D01*
G01*
X144397500Y-62101000D01*
G75*
G02*
X144335000Y-62038500I0J62500D01*
G01*
G37*
G36*
G01*
X144335000Y-62538500D02*
X144335000Y-62413500D01*
G75*
G02*
X144397500Y-62351000I62500J0D01*
G01*
X145072500Y-62351000D01*
G75*
G02*
X145135000Y-62413500I0J-62500D01*
G01*
X145135000Y-62538500D01*
G75*
G02*
X145072500Y-62601000I-62500J0D01*
G01*
X144397500Y-62601000D01*
G75*
G02*
X144335000Y-62538500I0J62500D01*
G01*
G37*
G36*
G01*
X144335000Y-63038500D02*
X144335000Y-62913500D01*
G75*
G02*
X144397500Y-62851000I62500J0D01*
G01*
X145072500Y-62851000D01*
G75*
G02*
X145135000Y-62913500I0J-62500D01*
G01*
X145135000Y-63038500D01*
G75*
G02*
X145072500Y-63101000I-62500J0D01*
G01*
X144397500Y-63101000D01*
G75*
G02*
X144335000Y-63038500I0J62500D01*
G01*
G37*
G36*
G01*
X145560000Y-64263500D02*
X145560000Y-63588500D01*
G75*
G02*
X145622500Y-63526000I62500J0D01*
G01*
X145747500Y-63526000D01*
G75*
G02*
X145810000Y-63588500I0J-62500D01*
G01*
X145810000Y-64263500D01*
G75*
G02*
X145747500Y-64326000I-62500J0D01*
G01*
X145622500Y-64326000D01*
G75*
G02*
X145560000Y-64263500I0J62500D01*
G01*
G37*
G36*
G01*
X146060000Y-64263500D02*
X146060000Y-63588500D01*
G75*
G02*
X146122500Y-63526000I62500J0D01*
G01*
X146247500Y-63526000D01*
G75*
G02*
X146310000Y-63588500I0J-62500D01*
G01*
X146310000Y-64263500D01*
G75*
G02*
X146247500Y-64326000I-62500J0D01*
G01*
X146122500Y-64326000D01*
G75*
G02*
X146060000Y-64263500I0J62500D01*
G01*
G37*
G36*
G01*
X146560000Y-64263500D02*
X146560000Y-63588500D01*
G75*
G02*
X146622500Y-63526000I62500J0D01*
G01*
X146747500Y-63526000D01*
G75*
G02*
X146810000Y-63588500I0J-62500D01*
G01*
X146810000Y-64263500D01*
G75*
G02*
X146747500Y-64326000I-62500J0D01*
G01*
X146622500Y-64326000D01*
G75*
G02*
X146560000Y-64263500I0J62500D01*
G01*
G37*
G36*
G01*
X147060000Y-64263500D02*
X147060000Y-63588500D01*
G75*
G02*
X147122500Y-63526000I62500J0D01*
G01*
X147247500Y-63526000D01*
G75*
G02*
X147310000Y-63588500I0J-62500D01*
G01*
X147310000Y-64263500D01*
G75*
G02*
X147247500Y-64326000I-62500J0D01*
G01*
X147122500Y-64326000D01*
G75*
G02*
X147060000Y-64263500I0J62500D01*
G01*
G37*
G36*
G01*
X147560000Y-64263500D02*
X147560000Y-63588500D01*
G75*
G02*
X147622500Y-63526000I62500J0D01*
G01*
X147747500Y-63526000D01*
G75*
G02*
X147810000Y-63588500I0J-62500D01*
G01*
X147810000Y-64263500D01*
G75*
G02*
X147747500Y-64326000I-62500J0D01*
G01*
X147622500Y-64326000D01*
G75*
G02*
X147560000Y-64263500I0J62500D01*
G01*
G37*
G36*
G01*
X148235000Y-63038500D02*
X148235000Y-62913500D01*
G75*
G02*
X148297500Y-62851000I62500J0D01*
G01*
X148972500Y-62851000D01*
G75*
G02*
X149035000Y-62913500I0J-62500D01*
G01*
X149035000Y-63038500D01*
G75*
G02*
X148972500Y-63101000I-62500J0D01*
G01*
X148297500Y-63101000D01*
G75*
G02*
X148235000Y-63038500I0J62500D01*
G01*
G37*
G36*
G01*
X148235000Y-62538500D02*
X148235000Y-62413500D01*
G75*
G02*
X148297500Y-62351000I62500J0D01*
G01*
X148972500Y-62351000D01*
G75*
G02*
X149035000Y-62413500I0J-62500D01*
G01*
X149035000Y-62538500D01*
G75*
G02*
X148972500Y-62601000I-62500J0D01*
G01*
X148297500Y-62601000D01*
G75*
G02*
X148235000Y-62538500I0J62500D01*
G01*
G37*
G36*
G01*
X148235000Y-62038500D02*
X148235000Y-61913500D01*
G75*
G02*
X148297500Y-61851000I62500J0D01*
G01*
X148972500Y-61851000D01*
G75*
G02*
X149035000Y-61913500I0J-62500D01*
G01*
X149035000Y-62038500D01*
G75*
G02*
X148972500Y-62101000I-62500J0D01*
G01*
X148297500Y-62101000D01*
G75*
G02*
X148235000Y-62038500I0J62500D01*
G01*
G37*
G36*
G01*
X148235000Y-61538500D02*
X148235000Y-61413500D01*
G75*
G02*
X148297500Y-61351000I62500J0D01*
G01*
X148972500Y-61351000D01*
G75*
G02*
X149035000Y-61413500I0J-62500D01*
G01*
X149035000Y-61538500D01*
G75*
G02*
X148972500Y-61601000I-62500J0D01*
G01*
X148297500Y-61601000D01*
G75*
G02*
X148235000Y-61538500I0J62500D01*
G01*
G37*
G36*
G01*
X148235000Y-61038500D02*
X148235000Y-60913500D01*
G75*
G02*
X148297500Y-60851000I62500J0D01*
G01*
X148972500Y-60851000D01*
G75*
G02*
X149035000Y-60913500I0J-62500D01*
G01*
X149035000Y-61038500D01*
G75*
G02*
X148972500Y-61101000I-62500J0D01*
G01*
X148297500Y-61101000D01*
G75*
G02*
X148235000Y-61038500I0J62500D01*
G01*
G37*
G36*
G01*
X147560000Y-60363500D02*
X147560000Y-59688500D01*
G75*
G02*
X147622500Y-59626000I62500J0D01*
G01*
X147747500Y-59626000D01*
G75*
G02*
X147810000Y-59688500I0J-62500D01*
G01*
X147810000Y-60363500D01*
G75*
G02*
X147747500Y-60426000I-62500J0D01*
G01*
X147622500Y-60426000D01*
G75*
G02*
X147560000Y-60363500I0J62500D01*
G01*
G37*
G36*
G01*
X147060000Y-60363500D02*
X147060000Y-59688500D01*
G75*
G02*
X147122500Y-59626000I62500J0D01*
G01*
X147247500Y-59626000D01*
G75*
G02*
X147310000Y-59688500I0J-62500D01*
G01*
X147310000Y-60363500D01*
G75*
G02*
X147247500Y-60426000I-62500J0D01*
G01*
X147122500Y-60426000D01*
G75*
G02*
X147060000Y-60363500I0J62500D01*
G01*
G37*
G36*
G01*
X146560000Y-60363500D02*
X146560000Y-59688500D01*
G75*
G02*
X146622500Y-59626000I62500J0D01*
G01*
X146747500Y-59626000D01*
G75*
G02*
X146810000Y-59688500I0J-62500D01*
G01*
X146810000Y-60363500D01*
G75*
G02*
X146747500Y-60426000I-62500J0D01*
G01*
X146622500Y-60426000D01*
G75*
G02*
X146560000Y-60363500I0J62500D01*
G01*
G37*
G36*
G01*
X146060000Y-60363500D02*
X146060000Y-59688500D01*
G75*
G02*
X146122500Y-59626000I62500J0D01*
G01*
X146247500Y-59626000D01*
G75*
G02*
X146310000Y-59688500I0J-62500D01*
G01*
X146310000Y-60363500D01*
G75*
G02*
X146247500Y-60426000I-62500J0D01*
G01*
X146122500Y-60426000D01*
G75*
G02*
X146060000Y-60363500I0J62500D01*
G01*
G37*
G36*
G01*
X145560000Y-60363500D02*
X145560000Y-59688500D01*
G75*
G02*
X145622500Y-59626000I62500J0D01*
G01*
X145747500Y-59626000D01*
G75*
G02*
X145810000Y-59688500I0J-62500D01*
G01*
X145810000Y-60363500D01*
G75*
G02*
X145747500Y-60426000I-62500J0D01*
G01*
X145622500Y-60426000D01*
G75*
G02*
X145560000Y-60363500I0J62500D01*
G01*
G37*
D16*
X146685000Y-61976000D03*
G36*
G01*
X161495400Y-68663800D02*
X161495400Y-69613800D01*
G75*
G02*
X161245400Y-69863800I-250000J0D01*
G01*
X160745400Y-69863800D01*
G75*
G02*
X160495400Y-69613800I0J250000D01*
G01*
X160495400Y-68663800D01*
G75*
G02*
X160745400Y-68413800I250000J0D01*
G01*
X161245400Y-68413800D01*
G75*
G02*
X161495400Y-68663800I0J-250000D01*
G01*
G37*
G36*
G01*
X159595400Y-68663800D02*
X159595400Y-69613800D01*
G75*
G02*
X159345400Y-69863800I-250000J0D01*
G01*
X158845400Y-69863800D01*
G75*
G02*
X158595400Y-69613800I0J250000D01*
G01*
X158595400Y-68663800D01*
G75*
G02*
X158845400Y-68413800I250000J0D01*
G01*
X159345400Y-68413800D01*
G75*
G02*
X159595400Y-68663800I0J-250000D01*
G01*
G37*
M02*
