M48
; DRILL file {KiCad (5.1.9)-1} date 12/30/22 13:42:05
; FORMAT={-:-/ absolute / metric / decimal}
; #@! TF.CreationDate,2022-12-30T13:42:05+01:00
; #@! TF.GenerationSoftware,Kicad,Pcbnew,(5.1.9)-1
; #@! TF.FileFunction,Plated,1,2,PTH
FMAT,2
METRIC
T1C0.200
T2C0.400
%
G90
G05
T1
X142.494Y-56.794
X142.494Y-58.776
X142.494Y-60.808
X142.494Y-62.84
X142.494Y-64.922
X142.494Y-66.954
X142.494Y-68.986
X143.713Y-56.896
X144.776Y-56.884
X145.585Y-60.876
X145.585Y-63.076
X145.669Y-68.072
X146.321Y-56.906
X147.701Y-66.192
X147.701Y-68.072
X147.785Y-60.876
X147.785Y-63.076
X149.098Y-65.888
X149.101Y-64.312
X149.733Y-68.123
X150.495Y-57.683
X150.934Y-56.185
X150.985Y-64.422
X150.985Y-65.422
X151.885Y-64.422
X151.885Y-65.422
X152.149Y-56.188
X153.975Y-62.459
X154.314Y-57.984
X156.083Y-69.139
X156.47Y-64.542
X156.47Y-66.542
X158.47Y-64.542
X158.47Y-66.542
X158.598Y-59.106
X160.127Y-69.133
X161.954Y-64.821
T2
X146.863Y-58.979
X148.468Y-59.088
X150.774Y-59.823
X151.892Y-66.497
X152.349Y-59.741
X153.669Y-56.896
X155.626Y-67.437
X157.988Y-55.944
X158.068Y-68.406
X159.595Y-63.331
X159.976Y-62.483
X160.172Y-67.259
X160.528Y-58.674
T0
M30
