%FSLAX45Y45*%
G04 Gerber Fmt 4.5, Leading zero omitted, Abs format (unit mm)*
G04 Created by KiCad (PCBNEW (5.1.9)-1) date 2022-12-30 13:42:07*
%MOMM*%
%LPD*%
G01*
G04 APERTURE LIST*
%TA.AperFunction,Profile*%
%ADD10C,0.050000*%
%TD*%
%ADD11C,0.200000*%
%ADD12C,0.300000*%
G04 APERTURE END LIST*
D10*
X14046200Y-7011800D02*
X14046200Y-5511800D01*
X14046200Y-7011800D02*
X16230600Y-7011800D01*
X16230600Y-5511800D02*
X16230600Y-7011800D01*
X14046200Y-5511800D02*
X16230600Y-5511800D01*
D11*
X14239400Y-5669440D02*
X14259400Y-5689440D01*
X14259400Y-5669440D02*
X14239400Y-5689440D01*
X14239400Y-5867560D02*
X14259400Y-5887560D01*
X14259400Y-5867560D02*
X14239400Y-5887560D01*
X14239400Y-6070760D02*
X14259400Y-6090760D01*
X14259400Y-6070760D02*
X14239400Y-6090760D01*
X14239400Y-6273960D02*
X14259400Y-6293960D01*
X14259400Y-6273960D02*
X14239400Y-6293960D01*
X14239400Y-6482240D02*
X14259400Y-6502240D01*
X14259400Y-6482240D02*
X14239400Y-6502240D01*
X14239400Y-6685440D02*
X14259400Y-6705440D01*
X14259400Y-6685440D02*
X14239400Y-6705440D01*
X14239400Y-6888640D02*
X14259400Y-6908640D01*
X14259400Y-6888640D02*
X14239400Y-6908640D01*
X14361320Y-5679600D02*
X14381320Y-5699600D01*
X14381320Y-5679600D02*
X14361320Y-5699600D01*
X14467636Y-5678399D02*
X14487636Y-5698399D01*
X14487636Y-5678399D02*
X14467636Y-5698399D01*
X14548500Y-6077600D02*
X14568500Y-6097600D01*
X14568500Y-6077600D02*
X14548500Y-6097600D01*
X14548500Y-6297600D02*
X14568500Y-6317600D01*
X14568500Y-6297600D02*
X14548500Y-6317600D01*
X14556900Y-6797200D02*
X14576900Y-6817200D01*
X14576900Y-6797200D02*
X14556900Y-6817200D01*
X14622061Y-5680599D02*
X14642061Y-5700599D01*
X14642061Y-5680599D02*
X14622061Y-5700599D01*
X14760100Y-6609240D02*
X14780100Y-6629240D01*
X14780100Y-6609240D02*
X14760100Y-6629240D01*
X14760100Y-6797200D02*
X14780100Y-6817200D01*
X14780100Y-6797200D02*
X14760100Y-6817200D01*
X14768500Y-6077600D02*
X14788500Y-6097600D01*
X14788500Y-6077600D02*
X14768500Y-6097600D01*
X14768500Y-6297600D02*
X14788500Y-6317600D01*
X14788500Y-6297600D02*
X14768500Y-6317600D01*
X14899800Y-6578760D02*
X14919800Y-6598760D01*
X14919800Y-6578760D02*
X14899800Y-6598760D01*
X14900078Y-6421200D02*
X14920078Y-6441200D01*
X14920078Y-6421200D02*
X14900078Y-6441200D01*
X14963300Y-6802280D02*
X14983300Y-6822280D01*
X14983300Y-6802280D02*
X14963300Y-6822280D01*
X15039500Y-5758340D02*
X15059500Y-5778340D01*
X15059500Y-5758340D02*
X15039500Y-5778340D01*
X15083388Y-5608480D02*
X15103388Y-5628480D01*
X15103388Y-5608480D02*
X15083388Y-5628480D01*
X15088480Y-6432240D02*
X15108480Y-6452240D01*
X15108480Y-6432240D02*
X15088480Y-6452240D01*
X15088480Y-6532240D02*
X15108480Y-6552240D01*
X15108480Y-6532240D02*
X15088480Y-6552240D01*
X15178480Y-6432240D02*
X15198480Y-6452240D01*
X15198480Y-6432240D02*
X15178480Y-6452240D01*
X15178480Y-6532240D02*
X15198480Y-6552240D01*
X15198480Y-6532240D02*
X15178480Y-6552240D01*
X15204925Y-5608808D02*
X15224925Y-5628808D01*
X15224925Y-5608808D02*
X15204925Y-5628808D01*
X15387480Y-6235860D02*
X15407480Y-6255860D01*
X15407480Y-6235860D02*
X15387480Y-6255860D01*
X15421403Y-5788373D02*
X15441403Y-5808373D01*
X15441403Y-5788373D02*
X15421403Y-5808373D01*
X15598300Y-6903880D02*
X15618300Y-6923880D01*
X15618300Y-6903880D02*
X15598300Y-6923880D01*
X15637000Y-6444200D02*
X15657000Y-6464200D01*
X15657000Y-6444200D02*
X15637000Y-6464200D01*
X15637000Y-6644200D02*
X15657000Y-6664200D01*
X15657000Y-6644200D02*
X15637000Y-6664200D01*
X15837000Y-6444200D02*
X15857000Y-6464200D01*
X15857000Y-6444200D02*
X15837000Y-6464200D01*
X15837000Y-6644200D02*
X15857000Y-6664200D01*
X15857000Y-6644200D02*
X15837000Y-6664200D01*
X15849760Y-5900580D02*
X15869760Y-5920580D01*
X15869760Y-5900580D02*
X15849760Y-5920580D01*
X16002720Y-6903320D02*
X16022720Y-6923320D01*
X16022720Y-6903320D02*
X16002720Y-6923320D01*
X16185397Y-6472080D02*
X16205397Y-6492080D01*
X16205397Y-6472080D02*
X16185397Y-6492080D01*
X14706280Y-5897880D02*
G75*
G03*
X14706280Y-5897880I-20000J0D01*
G01*
X14866795Y-5908811D02*
G75*
G03*
X14866795Y-5908811I-20000J0D01*
G01*
X15097440Y-5982330D02*
G75*
G03*
X15097440Y-5982330I-20000J0D01*
G01*
X15209199Y-6649720D02*
G75*
G03*
X15209199Y-6649720I-20000J0D01*
G01*
X15254920Y-5974080D02*
G75*
G03*
X15254920Y-5974080I-20000J0D01*
G01*
X15386898Y-5689600D02*
G75*
G03*
X15386898Y-5689600I-20000J0D01*
G01*
X15582580Y-6743700D02*
G75*
G03*
X15582580Y-6743700I-20000J0D01*
G01*
X15818800Y-5594350D02*
G75*
G03*
X15818800Y-5594350I-20000J0D01*
G01*
X15826809Y-6840608D02*
G75*
G03*
X15826809Y-6840608I-20000J0D01*
G01*
X15979539Y-6333131D02*
G75*
G03*
X15979539Y-6333131I-20000J0D01*
G01*
X16017604Y-6248302D02*
G75*
G03*
X16017604Y-6248302I-20000J0D01*
G01*
X16037240Y-6725920D02*
G75*
G03*
X16037240Y-6725920I-20000J0D01*
G01*
X16072800Y-5867400D02*
G75*
G03*
X16072800Y-5867400I-20000J0D01*
G01*
D12*
X14330128Y-7480014D02*
X14330128Y-7180014D01*
X14401557Y-7180014D01*
X14444414Y-7194300D01*
X14472986Y-7222871D01*
X14487271Y-7251443D01*
X14501557Y-7308586D01*
X14501557Y-7351443D01*
X14487271Y-7408586D01*
X14472986Y-7437157D01*
X14444414Y-7465729D01*
X14401557Y-7480014D01*
X14330128Y-7480014D01*
X14630128Y-7480014D02*
X14630128Y-7280014D01*
X14630128Y-7337157D02*
X14644414Y-7308586D01*
X14658700Y-7294300D01*
X14687271Y-7280014D01*
X14715843Y-7280014D01*
X14815843Y-7480014D02*
X14815843Y-7280014D01*
X14815843Y-7180014D02*
X14801557Y-7194300D01*
X14815843Y-7208586D01*
X14830128Y-7194300D01*
X14815843Y-7180014D01*
X14815843Y-7208586D01*
X15001557Y-7480014D02*
X14972986Y-7465729D01*
X14958700Y-7437157D01*
X14958700Y-7180014D01*
X15158700Y-7480014D02*
X15130128Y-7465729D01*
X15115843Y-7437157D01*
X15115843Y-7180014D01*
X15501557Y-7480014D02*
X15501557Y-7180014D01*
X15601557Y-7394300D01*
X15701557Y-7180014D01*
X15701557Y-7480014D01*
X15972986Y-7480014D02*
X15972986Y-7322871D01*
X15958700Y-7294300D01*
X15930128Y-7280014D01*
X15872986Y-7280014D01*
X15844414Y-7294300D01*
X15972986Y-7465729D02*
X15944414Y-7480014D01*
X15872986Y-7480014D01*
X15844414Y-7465729D01*
X15830128Y-7437157D01*
X15830128Y-7408586D01*
X15844414Y-7380014D01*
X15872986Y-7365729D01*
X15944414Y-7365729D01*
X15972986Y-7351443D01*
X16115843Y-7280014D02*
X16115843Y-7580014D01*
X16115843Y-7294300D02*
X16144414Y-7280014D01*
X16201557Y-7280014D01*
X16230128Y-7294300D01*
X16244414Y-7308586D01*
X16258700Y-7337157D01*
X16258700Y-7422871D01*
X16244414Y-7451443D01*
X16230128Y-7465729D01*
X16201557Y-7480014D01*
X16144414Y-7480014D01*
X16115843Y-7465729D01*
X16387271Y-7451443D02*
X16401557Y-7465729D01*
X16387271Y-7480014D01*
X16372986Y-7465729D01*
X16387271Y-7451443D01*
X16387271Y-7480014D01*
X16387271Y-7294300D02*
X16401557Y-7308586D01*
X16387271Y-7322871D01*
X16372986Y-7308586D01*
X16387271Y-7294300D01*
X16387271Y-7322871D01*
X14023700Y-7964300D02*
X14043700Y-7984300D01*
X14043700Y-7964300D02*
X14023700Y-7984300D01*
X14387271Y-7810014D02*
X14415843Y-7810014D01*
X14444414Y-7824300D01*
X14458700Y-7838586D01*
X14472986Y-7867157D01*
X14487271Y-7924300D01*
X14487271Y-7995729D01*
X14472986Y-8052871D01*
X14458700Y-8081443D01*
X14444414Y-8095729D01*
X14415843Y-8110014D01*
X14387271Y-8110014D01*
X14358700Y-8095729D01*
X14344414Y-8081443D01*
X14330128Y-8052871D01*
X14315843Y-7995729D01*
X14315843Y-7924300D01*
X14330128Y-7867157D01*
X14344414Y-7838586D01*
X14358700Y-7824300D01*
X14387271Y-7810014D01*
X14615843Y-8081443D02*
X14630128Y-8095729D01*
X14615843Y-8110014D01*
X14601557Y-8095729D01*
X14615843Y-8081443D01*
X14615843Y-8110014D01*
X14744414Y-7838586D02*
X14758700Y-7824300D01*
X14787271Y-7810014D01*
X14858700Y-7810014D01*
X14887271Y-7824300D01*
X14901557Y-7838586D01*
X14915843Y-7867157D01*
X14915843Y-7895729D01*
X14901557Y-7938586D01*
X14730128Y-8110014D01*
X14915843Y-8110014D01*
X15101557Y-7810014D02*
X15130128Y-7810014D01*
X15158700Y-7824300D01*
X15172986Y-7838586D01*
X15187271Y-7867157D01*
X15201557Y-7924300D01*
X15201557Y-7995729D01*
X15187271Y-8052871D01*
X15172986Y-8081443D01*
X15158700Y-8095729D01*
X15130128Y-8110014D01*
X15101557Y-8110014D01*
X15072986Y-8095729D01*
X15058700Y-8081443D01*
X15044414Y-8052871D01*
X15030128Y-7995729D01*
X15030128Y-7924300D01*
X15044414Y-7867157D01*
X15058700Y-7838586D01*
X15072986Y-7824300D01*
X15101557Y-7810014D01*
X15330128Y-8110014D02*
X15330128Y-7910014D01*
X15330128Y-7938586D02*
X15344414Y-7924300D01*
X15372986Y-7910014D01*
X15415843Y-7910014D01*
X15444414Y-7924300D01*
X15458700Y-7952871D01*
X15458700Y-8110014D01*
X15458700Y-7952871D02*
X15472986Y-7924300D01*
X15501557Y-7910014D01*
X15544414Y-7910014D01*
X15572986Y-7924300D01*
X15587271Y-7952871D01*
X15587271Y-8110014D01*
X15730128Y-8110014D02*
X15730128Y-7910014D01*
X15730128Y-7938586D02*
X15744414Y-7924300D01*
X15772986Y-7910014D01*
X15815843Y-7910014D01*
X15844414Y-7924300D01*
X15858700Y-7952871D01*
X15858700Y-8110014D01*
X15858700Y-7952871D02*
X15872986Y-7924300D01*
X15901557Y-7910014D01*
X15944414Y-7910014D01*
X15972986Y-7924300D01*
X15987271Y-7952871D01*
X15987271Y-8110014D01*
X16572986Y-7795729D02*
X16315843Y-8181443D01*
X16958700Y-7810014D02*
X16987271Y-7810014D01*
X17015843Y-7824300D01*
X17030128Y-7838586D01*
X17044414Y-7867157D01*
X17058700Y-7924300D01*
X17058700Y-7995729D01*
X17044414Y-8052871D01*
X17030128Y-8081443D01*
X17015843Y-8095729D01*
X16987271Y-8110014D01*
X16958700Y-8110014D01*
X16930128Y-8095729D01*
X16915843Y-8081443D01*
X16901557Y-8052871D01*
X16887271Y-7995729D01*
X16887271Y-7924300D01*
X16901557Y-7867157D01*
X16915843Y-7838586D01*
X16930128Y-7824300D01*
X16958700Y-7810014D01*
X17187271Y-8081443D02*
X17201557Y-8095729D01*
X17187271Y-8110014D01*
X17172986Y-8095729D01*
X17187271Y-8081443D01*
X17187271Y-8110014D01*
X17387271Y-7810014D02*
X17415843Y-7810014D01*
X17444414Y-7824300D01*
X17458700Y-7838586D01*
X17472986Y-7867157D01*
X17487271Y-7924300D01*
X17487271Y-7995729D01*
X17472986Y-8052871D01*
X17458700Y-8081443D01*
X17444414Y-8095729D01*
X17415843Y-8110014D01*
X17387271Y-8110014D01*
X17358700Y-8095729D01*
X17344414Y-8081443D01*
X17330128Y-8052871D01*
X17315843Y-7995729D01*
X17315843Y-7924300D01*
X17330128Y-7867157D01*
X17344414Y-7838586D01*
X17358700Y-7824300D01*
X17387271Y-7810014D01*
X17672986Y-7810014D02*
X17701557Y-7810014D01*
X17730128Y-7824300D01*
X17744414Y-7838586D01*
X17758700Y-7867157D01*
X17772986Y-7924300D01*
X17772986Y-7995729D01*
X17758700Y-8052871D01*
X17744414Y-8081443D01*
X17730128Y-8095729D01*
X17701557Y-8110014D01*
X17672986Y-8110014D01*
X17644414Y-8095729D01*
X17630128Y-8081443D01*
X17615843Y-8052871D01*
X17601557Y-7995729D01*
X17601557Y-7924300D01*
X17615843Y-7867157D01*
X17630128Y-7838586D01*
X17644414Y-7824300D01*
X17672986Y-7810014D01*
X17944414Y-7938586D02*
X17915843Y-7924300D01*
X17901557Y-7910014D01*
X17887271Y-7881443D01*
X17887271Y-7867157D01*
X17901557Y-7838586D01*
X17915843Y-7824300D01*
X17944414Y-7810014D01*
X18001557Y-7810014D01*
X18030128Y-7824300D01*
X18044414Y-7838586D01*
X18058700Y-7867157D01*
X18058700Y-7881443D01*
X18044414Y-7910014D01*
X18030128Y-7924300D01*
X18001557Y-7938586D01*
X17944414Y-7938586D01*
X17915843Y-7952871D01*
X17901557Y-7967157D01*
X17887271Y-7995729D01*
X17887271Y-8052871D01*
X17901557Y-8081443D01*
X17915843Y-8095729D01*
X17944414Y-8110014D01*
X18001557Y-8110014D01*
X18030128Y-8095729D01*
X18044414Y-8081443D01*
X18058700Y-8052871D01*
X18058700Y-7995729D01*
X18044414Y-7967157D01*
X18030128Y-7952871D01*
X18001557Y-7938586D01*
X18172986Y-7810014D02*
X18172986Y-7867157D01*
X18287271Y-7810014D02*
X18287271Y-7867157D01*
X18730128Y-8224300D02*
X18715843Y-8210014D01*
X18687271Y-8167157D01*
X18672986Y-8138586D01*
X18658700Y-8095729D01*
X18644414Y-8024300D01*
X18644414Y-7967157D01*
X18658700Y-7895729D01*
X18672986Y-7852871D01*
X18687271Y-7824300D01*
X18715843Y-7781443D01*
X18730128Y-7767157D01*
X18815843Y-7810014D02*
X19001557Y-7810014D01*
X18901557Y-7924300D01*
X18944414Y-7924300D01*
X18972986Y-7938586D01*
X18987271Y-7952871D01*
X19001557Y-7981443D01*
X19001557Y-8052871D01*
X18987271Y-8081443D01*
X18972986Y-8095729D01*
X18944414Y-8110014D01*
X18858700Y-8110014D01*
X18830128Y-8095729D01*
X18815843Y-8081443D01*
X19101557Y-7810014D02*
X19301557Y-7810014D01*
X19172986Y-8110014D01*
X19644414Y-8110014D02*
X19644414Y-7810014D01*
X19772986Y-8110014D02*
X19772986Y-7952871D01*
X19758700Y-7924300D01*
X19730128Y-7910014D01*
X19687271Y-7910014D01*
X19658700Y-7924300D01*
X19644414Y-7938586D01*
X19958700Y-8110014D02*
X19930128Y-8095729D01*
X19915843Y-8081443D01*
X19901557Y-8052871D01*
X19901557Y-7967157D01*
X19915843Y-7938586D01*
X19930128Y-7924300D01*
X19958700Y-7910014D01*
X20001557Y-7910014D01*
X20030128Y-7924300D01*
X20044414Y-7938586D01*
X20058700Y-7967157D01*
X20058700Y-8052871D01*
X20044414Y-8081443D01*
X20030128Y-8095729D01*
X20001557Y-8110014D01*
X19958700Y-8110014D01*
X20230128Y-8110014D02*
X20201557Y-8095729D01*
X20187271Y-8067157D01*
X20187271Y-7810014D01*
X20458700Y-8095729D02*
X20430128Y-8110014D01*
X20372986Y-8110014D01*
X20344414Y-8095729D01*
X20330128Y-8067157D01*
X20330128Y-7952871D01*
X20344414Y-7924300D01*
X20372986Y-7910014D01*
X20430128Y-7910014D01*
X20458700Y-7924300D01*
X20472986Y-7952871D01*
X20472986Y-7981443D01*
X20330128Y-8010014D01*
X20587271Y-8095729D02*
X20615843Y-8110014D01*
X20672986Y-8110014D01*
X20701557Y-8095729D01*
X20715843Y-8067157D01*
X20715843Y-8052871D01*
X20701557Y-8024300D01*
X20672986Y-8010014D01*
X20630128Y-8010014D01*
X20601557Y-7995729D01*
X20587271Y-7967157D01*
X20587271Y-7952871D01*
X20601557Y-7924300D01*
X20630128Y-7910014D01*
X20672986Y-7910014D01*
X20701557Y-7924300D01*
X20815843Y-8224300D02*
X20830128Y-8210014D01*
X20858700Y-8167157D01*
X20872986Y-8138586D01*
X20887271Y-8095729D01*
X20901557Y-8024300D01*
X20901557Y-7967157D01*
X20887271Y-7895729D01*
X20872986Y-7852871D01*
X20858700Y-7824300D01*
X20830128Y-7781443D01*
X20815843Y-7767157D01*
X14043700Y-8370300D02*
G75*
G03*
X14043700Y-8370300I-20000J0D01*
G01*
X14387271Y-8206014D02*
X14415843Y-8206014D01*
X14444414Y-8220300D01*
X14458700Y-8234586D01*
X14472986Y-8263157D01*
X14487271Y-8320300D01*
X14487271Y-8391729D01*
X14472986Y-8448872D01*
X14458700Y-8477443D01*
X14444414Y-8491729D01*
X14415843Y-8506014D01*
X14387271Y-8506014D01*
X14358700Y-8491729D01*
X14344414Y-8477443D01*
X14330128Y-8448872D01*
X14315843Y-8391729D01*
X14315843Y-8320300D01*
X14330128Y-8263157D01*
X14344414Y-8234586D01*
X14358700Y-8220300D01*
X14387271Y-8206014D01*
X14615843Y-8477443D02*
X14630128Y-8491729D01*
X14615843Y-8506014D01*
X14601557Y-8491729D01*
X14615843Y-8477443D01*
X14615843Y-8506014D01*
X14887271Y-8306014D02*
X14887271Y-8506014D01*
X14815843Y-8191729D02*
X14744414Y-8406014D01*
X14930128Y-8406014D01*
X15101557Y-8206014D02*
X15130128Y-8206014D01*
X15158700Y-8220300D01*
X15172986Y-8234586D01*
X15187271Y-8263157D01*
X15201557Y-8320300D01*
X15201557Y-8391729D01*
X15187271Y-8448872D01*
X15172986Y-8477443D01*
X15158700Y-8491729D01*
X15130128Y-8506014D01*
X15101557Y-8506014D01*
X15072986Y-8491729D01*
X15058700Y-8477443D01*
X15044414Y-8448872D01*
X15030128Y-8391729D01*
X15030128Y-8320300D01*
X15044414Y-8263157D01*
X15058700Y-8234586D01*
X15072986Y-8220300D01*
X15101557Y-8206014D01*
X15330128Y-8506014D02*
X15330128Y-8306014D01*
X15330128Y-8334586D02*
X15344414Y-8320300D01*
X15372986Y-8306014D01*
X15415843Y-8306014D01*
X15444414Y-8320300D01*
X15458700Y-8348871D01*
X15458700Y-8506014D01*
X15458700Y-8348871D02*
X15472986Y-8320300D01*
X15501557Y-8306014D01*
X15544414Y-8306014D01*
X15572986Y-8320300D01*
X15587271Y-8348871D01*
X15587271Y-8506014D01*
X15730128Y-8506014D02*
X15730128Y-8306014D01*
X15730128Y-8334586D02*
X15744414Y-8320300D01*
X15772986Y-8306014D01*
X15815843Y-8306014D01*
X15844414Y-8320300D01*
X15858700Y-8348871D01*
X15858700Y-8506014D01*
X15858700Y-8348871D02*
X15872986Y-8320300D01*
X15901557Y-8306014D01*
X15944414Y-8306014D01*
X15972986Y-8320300D01*
X15987271Y-8348871D01*
X15987271Y-8506014D01*
X16572986Y-8191729D02*
X16315843Y-8577443D01*
X16958700Y-8206014D02*
X16987271Y-8206014D01*
X17015843Y-8220300D01*
X17030128Y-8234586D01*
X17044414Y-8263157D01*
X17058700Y-8320300D01*
X17058700Y-8391729D01*
X17044414Y-8448872D01*
X17030128Y-8477443D01*
X17015843Y-8491729D01*
X16987271Y-8506014D01*
X16958700Y-8506014D01*
X16930128Y-8491729D01*
X16915843Y-8477443D01*
X16901557Y-8448872D01*
X16887271Y-8391729D01*
X16887271Y-8320300D01*
X16901557Y-8263157D01*
X16915843Y-8234586D01*
X16930128Y-8220300D01*
X16958700Y-8206014D01*
X17187271Y-8477443D02*
X17201557Y-8491729D01*
X17187271Y-8506014D01*
X17172986Y-8491729D01*
X17187271Y-8477443D01*
X17187271Y-8506014D01*
X17387271Y-8206014D02*
X17415843Y-8206014D01*
X17444414Y-8220300D01*
X17458700Y-8234586D01*
X17472986Y-8263157D01*
X17487271Y-8320300D01*
X17487271Y-8391729D01*
X17472986Y-8448872D01*
X17458700Y-8477443D01*
X17444414Y-8491729D01*
X17415843Y-8506014D01*
X17387271Y-8506014D01*
X17358700Y-8491729D01*
X17344414Y-8477443D01*
X17330128Y-8448872D01*
X17315843Y-8391729D01*
X17315843Y-8320300D01*
X17330128Y-8263157D01*
X17344414Y-8234586D01*
X17358700Y-8220300D01*
X17387271Y-8206014D01*
X17772986Y-8506014D02*
X17601557Y-8506014D01*
X17687271Y-8506014D02*
X17687271Y-8206014D01*
X17658700Y-8248871D01*
X17630128Y-8277443D01*
X17601557Y-8291729D01*
X18030128Y-8206014D02*
X17972986Y-8206014D01*
X17944414Y-8220300D01*
X17930128Y-8234586D01*
X17901557Y-8277443D01*
X17887271Y-8334586D01*
X17887271Y-8448872D01*
X17901557Y-8477443D01*
X17915843Y-8491729D01*
X17944414Y-8506014D01*
X18001557Y-8506014D01*
X18030128Y-8491729D01*
X18044414Y-8477443D01*
X18058700Y-8448872D01*
X18058700Y-8377443D01*
X18044414Y-8348871D01*
X18030128Y-8334586D01*
X18001557Y-8320300D01*
X17944414Y-8320300D01*
X17915843Y-8334586D01*
X17901557Y-8348871D01*
X17887271Y-8377443D01*
X18172986Y-8206014D02*
X18172986Y-8263157D01*
X18287271Y-8206014D02*
X18287271Y-8263157D01*
X18730128Y-8620300D02*
X18715843Y-8606014D01*
X18687271Y-8563157D01*
X18672986Y-8534586D01*
X18658700Y-8491729D01*
X18644414Y-8420300D01*
X18644414Y-8363157D01*
X18658700Y-8291729D01*
X18672986Y-8248871D01*
X18687271Y-8220300D01*
X18715843Y-8177443D01*
X18730128Y-8163157D01*
X19001557Y-8506014D02*
X18830128Y-8506014D01*
X18915843Y-8506014D02*
X18915843Y-8206014D01*
X18887271Y-8248871D01*
X18858700Y-8277443D01*
X18830128Y-8291729D01*
X19101557Y-8206014D02*
X19287271Y-8206014D01*
X19187271Y-8320300D01*
X19230128Y-8320300D01*
X19258700Y-8334586D01*
X19272986Y-8348871D01*
X19287271Y-8377443D01*
X19287271Y-8448872D01*
X19272986Y-8477443D01*
X19258700Y-8491729D01*
X19230128Y-8506014D01*
X19144414Y-8506014D01*
X19115843Y-8491729D01*
X19101557Y-8477443D01*
X19644414Y-8506014D02*
X19644414Y-8206014D01*
X19772986Y-8506014D02*
X19772986Y-8348871D01*
X19758700Y-8320300D01*
X19730128Y-8306014D01*
X19687271Y-8306014D01*
X19658700Y-8320300D01*
X19644414Y-8334586D01*
X19958700Y-8506014D02*
X19930128Y-8491729D01*
X19915843Y-8477443D01*
X19901557Y-8448872D01*
X19901557Y-8363157D01*
X19915843Y-8334586D01*
X19930128Y-8320300D01*
X19958700Y-8306014D01*
X20001557Y-8306014D01*
X20030128Y-8320300D01*
X20044414Y-8334586D01*
X20058700Y-8363157D01*
X20058700Y-8448872D01*
X20044414Y-8477443D01*
X20030128Y-8491729D01*
X20001557Y-8506014D01*
X19958700Y-8506014D01*
X20230128Y-8506014D02*
X20201557Y-8491729D01*
X20187271Y-8463157D01*
X20187271Y-8206014D01*
X20458700Y-8491729D02*
X20430128Y-8506014D01*
X20372986Y-8506014D01*
X20344414Y-8491729D01*
X20330128Y-8463157D01*
X20330128Y-8348871D01*
X20344414Y-8320300D01*
X20372986Y-8306014D01*
X20430128Y-8306014D01*
X20458700Y-8320300D01*
X20472986Y-8348871D01*
X20472986Y-8377443D01*
X20330128Y-8406014D01*
X20587271Y-8491729D02*
X20615843Y-8506014D01*
X20672986Y-8506014D01*
X20701557Y-8491729D01*
X20715843Y-8463157D01*
X20715843Y-8448872D01*
X20701557Y-8420300D01*
X20672986Y-8406014D01*
X20630128Y-8406014D01*
X20601557Y-8391729D01*
X20587271Y-8363157D01*
X20587271Y-8348871D01*
X20601557Y-8320300D01*
X20630128Y-8306014D01*
X20672986Y-8306014D01*
X20701557Y-8320300D01*
X20815843Y-8620300D02*
X20830128Y-8606014D01*
X20858700Y-8563157D01*
X20872986Y-8534586D01*
X20887271Y-8491729D01*
X20901557Y-8420300D01*
X20901557Y-8363157D01*
X20887271Y-8291729D01*
X20872986Y-8248871D01*
X20858700Y-8220300D01*
X20830128Y-8177443D01*
X20815843Y-8163157D01*
M02*
