G04 #@! TF.GenerationSoftware,KiCad,Pcbnew,(5.1.9)-1*
G04 #@! TF.CreationDate,2022-12-30T13:41:52+01:00*
G04 #@! TF.ProjectId,FallerCarSystem_v2,46616c6c-6572-4436-9172-53797374656d,rev?*
G04 #@! TF.SameCoordinates,Original*
G04 #@! TF.FileFunction,Copper,L2,Bot*
G04 #@! TF.FilePolarity,Positive*
%FSLAX46Y46*%
G04 Gerber Fmt 4.6, Leading zero omitted, Abs format (unit mm)*
G04 Created by KiCad (PCBNEW (5.1.9)-1) date 2022-12-30 13:41:52*
%MOMM*%
%LPD*%
G01*
G04 APERTURE LIST*
G04 #@! TA.AperFunction,SMDPad,CuDef*
%ADD10R,2.500000X2.500000*%
G04 #@! TD*
G04 #@! TA.AperFunction,ComponentPad*
%ADD11C,0.500000*%
G04 #@! TD*
G04 #@! TA.AperFunction,SMDPad,CuDef*
%ADD12R,1.360000X1.460000*%
G04 #@! TD*
G04 #@! TA.AperFunction,ComponentPad*
%ADD13C,0.400000*%
G04 #@! TD*
G04 #@! TA.AperFunction,SMDPad,CuDef*
%ADD14R,2.700000X2.700000*%
G04 #@! TD*
G04 #@! TA.AperFunction,ViaPad*
%ADD15C,0.800000*%
G04 #@! TD*
G04 #@! TA.AperFunction,ViaPad*
%ADD16C,0.400000*%
G04 #@! TD*
G04 #@! TA.AperFunction,Conductor*
%ADD17C,0.300000*%
G04 #@! TD*
G04 #@! TA.AperFunction,Conductor*
%ADD18C,0.127000*%
G04 #@! TD*
G04 #@! TA.AperFunction,Conductor*
%ADD19C,0.254000*%
G04 #@! TD*
G04 #@! TA.AperFunction,Conductor*
%ADD20C,0.100000*%
G04 #@! TD*
G04 APERTURE END LIST*
D10*
X157470000Y-65542000D03*
D11*
X156470000Y-64542000D03*
X158470000Y-64542000D03*
X156470000Y-66542000D03*
X158470000Y-66542000D03*
D12*
X151434800Y-64922400D03*
D13*
X151884800Y-64422400D03*
X151884800Y-65422400D03*
X150984800Y-65422400D03*
X150984800Y-64422400D03*
D11*
X145585000Y-60876000D03*
X147785000Y-60876000D03*
X145585000Y-63076000D03*
X147785000Y-63076000D03*
D14*
X146685000Y-61976000D03*
D15*
X158068086Y-68406077D03*
X159595390Y-63331314D03*
D16*
X158597600Y-59105800D03*
X153974800Y-62458600D03*
X144776363Y-56883990D03*
X143713200Y-56896000D03*
D15*
X160528000Y-58674000D03*
X148467954Y-59088115D03*
D16*
X146320610Y-56905990D03*
D15*
X150774400Y-59823300D03*
D16*
X152149251Y-56188077D03*
X150933884Y-56184800D03*
X154314026Y-57983728D03*
X142494000Y-56794400D03*
X142494000Y-58775600D03*
X142494000Y-60807600D03*
X142494000Y-62839600D03*
X142494000Y-64922400D03*
X142494000Y-66954400D03*
X142494000Y-68986400D03*
X145669000Y-68072000D03*
X147701000Y-68072000D03*
X149733000Y-68122800D03*
X147701000Y-66192400D03*
X150495000Y-57683400D03*
X161953966Y-64820800D03*
X160127202Y-69133198D03*
X156083000Y-69138800D03*
D15*
X151891986Y-66497200D03*
X159976042Y-62483020D03*
X157988000Y-55943500D03*
X153668981Y-56896000D03*
X146862800Y-58978800D03*
X152349200Y-59740800D03*
D16*
X149098000Y-65887600D03*
X149100779Y-64312004D03*
D15*
X155625800Y-67437000D03*
X160172400Y-67259200D03*
D17*
X158068086Y-68406077D02*
X159595390Y-66878773D01*
X159595390Y-66878773D02*
X159595390Y-63331314D01*
D18*
X158597600Y-59105800D02*
X155244800Y-62458600D01*
X155244800Y-62458600D02*
X153974800Y-62458600D01*
X143725210Y-56883990D02*
X143713200Y-56896000D01*
X144776363Y-56883990D02*
X143725210Y-56883990D01*
D17*
X151434800Y-64922400D02*
X151434800Y-63449200D01*
X151434800Y-64922400D02*
X151434800Y-66395600D01*
X151434800Y-64922400D02*
X152755600Y-64922400D01*
D18*
X152349200Y-56184800D02*
X150933884Y-56184800D01*
D17*
X151434800Y-64922400D02*
X149936200Y-64922400D01*
X148945600Y-56896000D02*
X153668981Y-56896000D01*
X146862800Y-58978800D02*
X148945600Y-56896000D01*
X153668981Y-58421019D02*
X153668981Y-56896000D01*
X152349200Y-59740800D02*
X153668981Y-58421019D01*
D18*
X149098000Y-64314783D02*
X149100779Y-64312004D01*
X149098000Y-65887600D02*
X149098000Y-64314783D01*
D17*
X158301599Y-69130001D02*
X160172400Y-67259200D01*
X157826801Y-69130001D02*
X158301599Y-69130001D01*
X156133800Y-67437000D02*
X157826801Y-69130001D01*
X155625800Y-67437000D02*
X156133800Y-67437000D01*
D19*
X161954001Y-69766000D02*
X140814000Y-69766000D01*
X140814000Y-67365397D01*
X154898800Y-67365397D01*
X154898800Y-67508603D01*
X154926738Y-67649058D01*
X154981541Y-67781364D01*
X155061102Y-67900436D01*
X155162364Y-68001698D01*
X155281436Y-68081259D01*
X155413742Y-68136062D01*
X155554197Y-68164000D01*
X155697403Y-68164000D01*
X155837858Y-68136062D01*
X155970164Y-68081259D01*
X156050081Y-68027860D01*
X157472950Y-69450730D01*
X157487880Y-69468922D01*
X157560512Y-69528530D01*
X157643378Y-69572823D01*
X157733293Y-69600098D01*
X157803378Y-69607001D01*
X157803386Y-69607001D01*
X157826801Y-69609307D01*
X157850216Y-69607001D01*
X158278184Y-69607001D01*
X158301599Y-69609307D01*
X158325014Y-69607001D01*
X158325022Y-69607001D01*
X158395107Y-69600098D01*
X158485022Y-69572823D01*
X158567888Y-69528530D01*
X158640520Y-69468922D01*
X158655454Y-69450725D01*
X160119980Y-67986200D01*
X160244003Y-67986200D01*
X160384458Y-67958262D01*
X160516764Y-67903459D01*
X160635836Y-67823898D01*
X160737098Y-67722636D01*
X160816659Y-67603564D01*
X160871462Y-67471258D01*
X160899400Y-67330803D01*
X160899400Y-67187597D01*
X160871462Y-67047142D01*
X160816659Y-66914836D01*
X160737098Y-66795764D01*
X160635836Y-66694502D01*
X160516764Y-66614941D01*
X160384458Y-66560138D01*
X160244003Y-66532200D01*
X160100797Y-66532200D01*
X160072390Y-66537850D01*
X160072390Y-63882448D01*
X160160088Y-63794750D01*
X160239649Y-63675678D01*
X160294452Y-63543372D01*
X160322390Y-63402917D01*
X160322390Y-63259711D01*
X160294452Y-63119256D01*
X160239649Y-62986950D01*
X160160088Y-62867878D01*
X160058826Y-62766616D01*
X159939754Y-62687055D01*
X159807448Y-62632252D01*
X159666993Y-62604314D01*
X159523787Y-62604314D01*
X159383332Y-62632252D01*
X159251026Y-62687055D01*
X159131954Y-62766616D01*
X159030692Y-62867878D01*
X158951131Y-62986950D01*
X158896328Y-63119256D01*
X158868390Y-63259711D01*
X158868390Y-63402917D01*
X158896328Y-63543372D01*
X158951131Y-63675678D01*
X158971758Y-63706549D01*
X158964180Y-63702498D01*
X158844482Y-63666188D01*
X158720000Y-63653928D01*
X157755750Y-63657000D01*
X157597000Y-63815750D01*
X157597000Y-64394680D01*
X157584887Y-64455998D01*
X157585116Y-64630328D01*
X157597000Y-64689665D01*
X157597000Y-65415000D01*
X157617000Y-65415000D01*
X157617000Y-65669000D01*
X157597000Y-65669000D01*
X157597000Y-65689000D01*
X157343000Y-65689000D01*
X157343000Y-65669000D01*
X156617320Y-65669000D01*
X156556002Y-65656887D01*
X156381672Y-65657116D01*
X156322335Y-65669000D01*
X155743750Y-65669000D01*
X155585000Y-65827750D01*
X155582189Y-66710000D01*
X155554197Y-66710000D01*
X155413742Y-66737938D01*
X155281436Y-66792741D01*
X155162364Y-66872302D01*
X155061102Y-66973564D01*
X154981541Y-67092636D01*
X154926738Y-67224942D01*
X154898800Y-67365397D01*
X140814000Y-67365397D01*
X140814000Y-65835695D01*
X148571000Y-65835695D01*
X148571000Y-65939505D01*
X148591252Y-66041320D01*
X148630979Y-66137228D01*
X148688652Y-66223543D01*
X148762057Y-66296948D01*
X148848372Y-66354621D01*
X148944280Y-66394348D01*
X149046095Y-66414600D01*
X149149905Y-66414600D01*
X149251720Y-66394348D01*
X149347628Y-66354621D01*
X149433943Y-66296948D01*
X149507348Y-66223543D01*
X149565021Y-66137228D01*
X149604748Y-66041320D01*
X149625000Y-65939505D01*
X149625000Y-65835695D01*
X149604748Y-65733880D01*
X149565021Y-65637972D01*
X149507348Y-65551657D01*
X149488500Y-65532809D01*
X149488500Y-64669574D01*
X149510127Y-64647947D01*
X149567800Y-64561632D01*
X149607527Y-64465724D01*
X149627779Y-64363909D01*
X149627779Y-64260099D01*
X149614314Y-64192400D01*
X150116728Y-64192400D01*
X150119800Y-64636650D01*
X150205122Y-64721972D01*
X150225872Y-64780192D01*
X150265669Y-64854647D01*
X150369927Y-64851559D01*
X150302139Y-64919347D01*
X150305192Y-64922400D01*
X150302139Y-64925453D01*
X150369927Y-64993241D01*
X150265669Y-64990153D01*
X150200545Y-65127405D01*
X150119800Y-65208150D01*
X150116728Y-65652400D01*
X150128988Y-65776882D01*
X150165298Y-65896580D01*
X150224263Y-66006894D01*
X150303615Y-66103585D01*
X150400306Y-66182937D01*
X150510620Y-66241902D01*
X150630318Y-66278212D01*
X150754800Y-66290472D01*
X151149050Y-66287400D01*
X151206684Y-66229766D01*
X151342592Y-66181328D01*
X151417047Y-66141531D01*
X151414982Y-66071826D01*
X151434800Y-66052008D01*
X151454618Y-66071826D01*
X151452553Y-66141531D01*
X151601154Y-66212040D01*
X151660011Y-66226861D01*
X151720550Y-66287400D01*
X152114800Y-66290472D01*
X152239282Y-66278212D01*
X152358980Y-66241902D01*
X152469294Y-66182937D01*
X152565985Y-66103585D01*
X152645337Y-66006894D01*
X152704302Y-65896580D01*
X152740612Y-65776882D01*
X152752872Y-65652400D01*
X152749800Y-65208150D01*
X152664478Y-65122828D01*
X152643728Y-65064608D01*
X152603931Y-64990153D01*
X152499673Y-64993241D01*
X152567461Y-64925453D01*
X152564408Y-64922400D01*
X152567461Y-64919347D01*
X152499673Y-64851559D01*
X152603931Y-64854647D01*
X152669055Y-64717395D01*
X152749800Y-64636650D01*
X152752183Y-64292000D01*
X155581928Y-64292000D01*
X155585000Y-65256250D01*
X155743750Y-65415000D01*
X156322680Y-65415000D01*
X156383998Y-65427113D01*
X156558328Y-65426884D01*
X156617665Y-65415000D01*
X157343000Y-65415000D01*
X157343000Y-64689320D01*
X157355113Y-64628002D01*
X157354884Y-64453672D01*
X157343000Y-64394335D01*
X157343000Y-63815750D01*
X157184250Y-63657000D01*
X156220000Y-63653928D01*
X156095518Y-63666188D01*
X155975820Y-63702498D01*
X155865506Y-63761463D01*
X155768815Y-63840815D01*
X155689463Y-63937506D01*
X155630498Y-64047820D01*
X155594188Y-64167518D01*
X155581928Y-64292000D01*
X152752183Y-64292000D01*
X152752872Y-64192400D01*
X152740612Y-64067918D01*
X152704302Y-63948220D01*
X152645337Y-63837906D01*
X152565985Y-63741215D01*
X152469294Y-63661863D01*
X152358980Y-63602898D01*
X152239282Y-63566588D01*
X152114800Y-63554328D01*
X151720550Y-63557400D01*
X151662916Y-63615034D01*
X151527008Y-63663472D01*
X151452553Y-63703269D01*
X151454618Y-63772974D01*
X151434800Y-63792792D01*
X151414982Y-63772974D01*
X151417047Y-63703269D01*
X151268446Y-63632760D01*
X151209589Y-63617939D01*
X151149050Y-63557400D01*
X150754800Y-63554328D01*
X150630318Y-63566588D01*
X150510620Y-63602898D01*
X150400306Y-63661863D01*
X150303615Y-63741215D01*
X150224263Y-63837906D01*
X150165298Y-63948220D01*
X150128988Y-64067918D01*
X150116728Y-64192400D01*
X149614314Y-64192400D01*
X149607527Y-64158284D01*
X149567800Y-64062376D01*
X149510127Y-63976061D01*
X149436722Y-63902656D01*
X149350407Y-63844983D01*
X149254499Y-63805256D01*
X149152684Y-63785004D01*
X149048874Y-63785004D01*
X148947059Y-63805256D01*
X148851151Y-63844983D01*
X148764836Y-63902656D01*
X148691431Y-63976061D01*
X148633758Y-64062376D01*
X148594031Y-64158284D01*
X148573779Y-64260099D01*
X148573779Y-64363909D01*
X148594031Y-64465724D01*
X148633758Y-64561632D01*
X148691431Y-64647947D01*
X148707501Y-64664017D01*
X148707500Y-65532809D01*
X148688652Y-65551657D01*
X148630979Y-65637972D01*
X148591252Y-65733880D01*
X148571000Y-65835695D01*
X140814000Y-65835695D01*
X140814000Y-63326000D01*
X144696928Y-63326000D01*
X144709188Y-63450482D01*
X144745498Y-63570180D01*
X144804463Y-63680494D01*
X144883815Y-63777185D01*
X144980506Y-63856537D01*
X145090820Y-63915502D01*
X145210518Y-63951812D01*
X145335000Y-63964072D01*
X146399250Y-63961000D01*
X146558000Y-63802250D01*
X146558000Y-62103000D01*
X146812000Y-62103000D01*
X146812000Y-63802250D01*
X146970750Y-63961000D01*
X148035000Y-63964072D01*
X148159482Y-63951812D01*
X148279180Y-63915502D01*
X148389494Y-63856537D01*
X148486185Y-63777185D01*
X148565537Y-63680494D01*
X148624502Y-63570180D01*
X148660812Y-63450482D01*
X148673072Y-63326000D01*
X148670419Y-62406695D01*
X153447800Y-62406695D01*
X153447800Y-62510505D01*
X153468052Y-62612320D01*
X153507779Y-62708228D01*
X153565452Y-62794543D01*
X153638857Y-62867948D01*
X153725172Y-62925621D01*
X153821080Y-62965348D01*
X153922895Y-62985600D01*
X154026705Y-62985600D01*
X154128520Y-62965348D01*
X154224428Y-62925621D01*
X154310743Y-62867948D01*
X154329591Y-62849100D01*
X155225622Y-62849100D01*
X155244800Y-62850989D01*
X155263978Y-62849100D01*
X155321351Y-62843449D01*
X155394961Y-62821120D01*
X155462800Y-62784860D01*
X155522261Y-62736061D01*
X155534490Y-62721160D01*
X158622850Y-59632800D01*
X158649505Y-59632800D01*
X158751320Y-59612548D01*
X158847228Y-59572821D01*
X158933543Y-59515148D01*
X159006948Y-59441743D01*
X159064621Y-59355428D01*
X159104348Y-59259520D01*
X159124600Y-59157705D01*
X159124600Y-59053895D01*
X159104348Y-58952080D01*
X159064621Y-58856172D01*
X159006948Y-58769857D01*
X158933543Y-58696452D01*
X158847228Y-58638779D01*
X158751320Y-58599052D01*
X158649505Y-58578800D01*
X158545695Y-58578800D01*
X158443880Y-58599052D01*
X158347972Y-58638779D01*
X158261657Y-58696452D01*
X158188252Y-58769857D01*
X158130579Y-58856172D01*
X158090852Y-58952080D01*
X158070600Y-59053895D01*
X158070600Y-59080550D01*
X155083050Y-62068100D01*
X154329591Y-62068100D01*
X154310743Y-62049252D01*
X154224428Y-61991579D01*
X154128520Y-61951852D01*
X154026705Y-61931600D01*
X153922895Y-61931600D01*
X153821080Y-61951852D01*
X153725172Y-61991579D01*
X153638857Y-62049252D01*
X153565452Y-62122657D01*
X153507779Y-62208972D01*
X153468052Y-62304880D01*
X153447800Y-62406695D01*
X148670419Y-62406695D01*
X148670000Y-62261750D01*
X148511250Y-62103000D01*
X146812000Y-62103000D01*
X146558000Y-62103000D01*
X144858750Y-62103000D01*
X144700000Y-62261750D01*
X144696928Y-63326000D01*
X140814000Y-63326000D01*
X140814000Y-60626000D01*
X144696928Y-60626000D01*
X144700000Y-61690250D01*
X144858750Y-61849000D01*
X146558000Y-61849000D01*
X146558000Y-60149750D01*
X146812000Y-60149750D01*
X146812000Y-61849000D01*
X148511250Y-61849000D01*
X148670000Y-61690250D01*
X148673072Y-60626000D01*
X148660812Y-60501518D01*
X148624502Y-60381820D01*
X148565537Y-60271506D01*
X148486185Y-60174815D01*
X148389494Y-60095463D01*
X148279180Y-60036498D01*
X148159482Y-60000188D01*
X148035000Y-59987928D01*
X146970750Y-59991000D01*
X146812000Y-60149750D01*
X146558000Y-60149750D01*
X146399250Y-59991000D01*
X145335000Y-59987928D01*
X145210518Y-60000188D01*
X145090820Y-60036498D01*
X144980506Y-60095463D01*
X144883815Y-60174815D01*
X144804463Y-60271506D01*
X144745498Y-60381820D01*
X144709188Y-60501518D01*
X144696928Y-60626000D01*
X140814000Y-60626000D01*
X140814000Y-58907197D01*
X146135800Y-58907197D01*
X146135800Y-59050403D01*
X146163738Y-59190858D01*
X146218541Y-59323164D01*
X146298102Y-59442236D01*
X146399364Y-59543498D01*
X146518436Y-59623059D01*
X146650742Y-59677862D01*
X146791197Y-59705800D01*
X146934403Y-59705800D01*
X147074858Y-59677862D01*
X147207164Y-59623059D01*
X147326236Y-59543498D01*
X147427498Y-59442236D01*
X147507059Y-59323164D01*
X147561862Y-59190858D01*
X147589800Y-59050403D01*
X147589800Y-58926379D01*
X149143180Y-57373000D01*
X153117847Y-57373000D01*
X153191982Y-57447135D01*
X153191981Y-58223439D01*
X152401621Y-59013800D01*
X152277597Y-59013800D01*
X152137142Y-59041738D01*
X152004836Y-59096541D01*
X151885764Y-59176102D01*
X151784502Y-59277364D01*
X151704941Y-59396436D01*
X151650138Y-59528742D01*
X151622200Y-59669197D01*
X151622200Y-59812403D01*
X151650138Y-59952858D01*
X151704941Y-60085164D01*
X151784502Y-60204236D01*
X151885764Y-60305498D01*
X152004836Y-60385059D01*
X152137142Y-60439862D01*
X152277597Y-60467800D01*
X152420803Y-60467800D01*
X152561258Y-60439862D01*
X152693564Y-60385059D01*
X152812636Y-60305498D01*
X152913898Y-60204236D01*
X152993459Y-60085164D01*
X153048262Y-59952858D01*
X153076200Y-59812403D01*
X153076200Y-59688379D01*
X153989710Y-58774870D01*
X154007902Y-58759940D01*
X154067510Y-58687308D01*
X154111803Y-58604442D01*
X154139078Y-58514527D01*
X154145981Y-58444442D01*
X154145981Y-58444435D01*
X154148287Y-58421020D01*
X154145981Y-58397605D01*
X154145981Y-57447134D01*
X154233679Y-57359436D01*
X154313240Y-57240364D01*
X154368043Y-57108058D01*
X154395981Y-56967603D01*
X154395981Y-56824397D01*
X154368043Y-56683942D01*
X154313240Y-56551636D01*
X154233679Y-56432564D01*
X154132417Y-56331302D01*
X154013345Y-56251741D01*
X153881039Y-56196938D01*
X153740584Y-56169000D01*
X153597378Y-56169000D01*
X153456923Y-56196938D01*
X153324617Y-56251741D01*
X153205545Y-56331302D01*
X153117847Y-56419000D01*
X148969014Y-56419000D01*
X148945599Y-56416694D01*
X148922184Y-56419000D01*
X148922177Y-56419000D01*
X148852092Y-56425903D01*
X148762177Y-56453178D01*
X148679311Y-56497471D01*
X148606679Y-56557079D01*
X148591749Y-56575271D01*
X146915221Y-58251800D01*
X146791197Y-58251800D01*
X146650742Y-58279738D01*
X146518436Y-58334541D01*
X146399364Y-58414102D01*
X146298102Y-58515364D01*
X146218541Y-58634436D01*
X146163738Y-58766742D01*
X146135800Y-58907197D01*
X140814000Y-58907197D01*
X140814000Y-56844095D01*
X143186200Y-56844095D01*
X143186200Y-56947905D01*
X143206452Y-57049720D01*
X143246179Y-57145628D01*
X143303852Y-57231943D01*
X143377257Y-57305348D01*
X143463572Y-57363021D01*
X143559480Y-57402748D01*
X143661295Y-57423000D01*
X143765105Y-57423000D01*
X143866920Y-57402748D01*
X143962828Y-57363021D01*
X144049143Y-57305348D01*
X144080001Y-57274490D01*
X144421572Y-57274490D01*
X144440420Y-57293338D01*
X144526735Y-57351011D01*
X144622643Y-57390738D01*
X144724458Y-57410990D01*
X144828268Y-57410990D01*
X144930083Y-57390738D01*
X145025991Y-57351011D01*
X145112306Y-57293338D01*
X145185711Y-57219933D01*
X145243384Y-57133618D01*
X145283111Y-57037710D01*
X145303363Y-56935895D01*
X145303363Y-56832085D01*
X145283111Y-56730270D01*
X145243384Y-56634362D01*
X145185711Y-56548047D01*
X145112306Y-56474642D01*
X145025991Y-56416969D01*
X144930083Y-56377242D01*
X144828268Y-56356990D01*
X144724458Y-56356990D01*
X144622643Y-56377242D01*
X144526735Y-56416969D01*
X144440420Y-56474642D01*
X144421572Y-56493490D01*
X144055981Y-56493490D01*
X144049143Y-56486652D01*
X143962828Y-56428979D01*
X143866920Y-56389252D01*
X143765105Y-56369000D01*
X143661295Y-56369000D01*
X143559480Y-56389252D01*
X143463572Y-56428979D01*
X143377257Y-56486652D01*
X143303852Y-56560057D01*
X143246179Y-56646372D01*
X143206452Y-56742280D01*
X143186200Y-56844095D01*
X140814000Y-56844095D01*
X140814000Y-55470000D01*
X161954000Y-55470000D01*
X161954001Y-69766000D01*
G04 #@! TA.AperFunction,Conductor*
D20*
G36*
X161954001Y-69766000D02*
G01*
X140814000Y-69766000D01*
X140814000Y-67365397D01*
X154898800Y-67365397D01*
X154898800Y-67508603D01*
X154926738Y-67649058D01*
X154981541Y-67781364D01*
X155061102Y-67900436D01*
X155162364Y-68001698D01*
X155281436Y-68081259D01*
X155413742Y-68136062D01*
X155554197Y-68164000D01*
X155697403Y-68164000D01*
X155837858Y-68136062D01*
X155970164Y-68081259D01*
X156050081Y-68027860D01*
X157472950Y-69450730D01*
X157487880Y-69468922D01*
X157560512Y-69528530D01*
X157643378Y-69572823D01*
X157733293Y-69600098D01*
X157803378Y-69607001D01*
X157803386Y-69607001D01*
X157826801Y-69609307D01*
X157850216Y-69607001D01*
X158278184Y-69607001D01*
X158301599Y-69609307D01*
X158325014Y-69607001D01*
X158325022Y-69607001D01*
X158395107Y-69600098D01*
X158485022Y-69572823D01*
X158567888Y-69528530D01*
X158640520Y-69468922D01*
X158655454Y-69450725D01*
X160119980Y-67986200D01*
X160244003Y-67986200D01*
X160384458Y-67958262D01*
X160516764Y-67903459D01*
X160635836Y-67823898D01*
X160737098Y-67722636D01*
X160816659Y-67603564D01*
X160871462Y-67471258D01*
X160899400Y-67330803D01*
X160899400Y-67187597D01*
X160871462Y-67047142D01*
X160816659Y-66914836D01*
X160737098Y-66795764D01*
X160635836Y-66694502D01*
X160516764Y-66614941D01*
X160384458Y-66560138D01*
X160244003Y-66532200D01*
X160100797Y-66532200D01*
X160072390Y-66537850D01*
X160072390Y-63882448D01*
X160160088Y-63794750D01*
X160239649Y-63675678D01*
X160294452Y-63543372D01*
X160322390Y-63402917D01*
X160322390Y-63259711D01*
X160294452Y-63119256D01*
X160239649Y-62986950D01*
X160160088Y-62867878D01*
X160058826Y-62766616D01*
X159939754Y-62687055D01*
X159807448Y-62632252D01*
X159666993Y-62604314D01*
X159523787Y-62604314D01*
X159383332Y-62632252D01*
X159251026Y-62687055D01*
X159131954Y-62766616D01*
X159030692Y-62867878D01*
X158951131Y-62986950D01*
X158896328Y-63119256D01*
X158868390Y-63259711D01*
X158868390Y-63402917D01*
X158896328Y-63543372D01*
X158951131Y-63675678D01*
X158971758Y-63706549D01*
X158964180Y-63702498D01*
X158844482Y-63666188D01*
X158720000Y-63653928D01*
X157755750Y-63657000D01*
X157597000Y-63815750D01*
X157597000Y-64394680D01*
X157584887Y-64455998D01*
X157585116Y-64630328D01*
X157597000Y-64689665D01*
X157597000Y-65415000D01*
X157617000Y-65415000D01*
X157617000Y-65669000D01*
X157597000Y-65669000D01*
X157597000Y-65689000D01*
X157343000Y-65689000D01*
X157343000Y-65669000D01*
X156617320Y-65669000D01*
X156556002Y-65656887D01*
X156381672Y-65657116D01*
X156322335Y-65669000D01*
X155743750Y-65669000D01*
X155585000Y-65827750D01*
X155582189Y-66710000D01*
X155554197Y-66710000D01*
X155413742Y-66737938D01*
X155281436Y-66792741D01*
X155162364Y-66872302D01*
X155061102Y-66973564D01*
X154981541Y-67092636D01*
X154926738Y-67224942D01*
X154898800Y-67365397D01*
X140814000Y-67365397D01*
X140814000Y-65835695D01*
X148571000Y-65835695D01*
X148571000Y-65939505D01*
X148591252Y-66041320D01*
X148630979Y-66137228D01*
X148688652Y-66223543D01*
X148762057Y-66296948D01*
X148848372Y-66354621D01*
X148944280Y-66394348D01*
X149046095Y-66414600D01*
X149149905Y-66414600D01*
X149251720Y-66394348D01*
X149347628Y-66354621D01*
X149433943Y-66296948D01*
X149507348Y-66223543D01*
X149565021Y-66137228D01*
X149604748Y-66041320D01*
X149625000Y-65939505D01*
X149625000Y-65835695D01*
X149604748Y-65733880D01*
X149565021Y-65637972D01*
X149507348Y-65551657D01*
X149488500Y-65532809D01*
X149488500Y-64669574D01*
X149510127Y-64647947D01*
X149567800Y-64561632D01*
X149607527Y-64465724D01*
X149627779Y-64363909D01*
X149627779Y-64260099D01*
X149614314Y-64192400D01*
X150116728Y-64192400D01*
X150119800Y-64636650D01*
X150205122Y-64721972D01*
X150225872Y-64780192D01*
X150265669Y-64854647D01*
X150369927Y-64851559D01*
X150302139Y-64919347D01*
X150305192Y-64922400D01*
X150302139Y-64925453D01*
X150369927Y-64993241D01*
X150265669Y-64990153D01*
X150200545Y-65127405D01*
X150119800Y-65208150D01*
X150116728Y-65652400D01*
X150128988Y-65776882D01*
X150165298Y-65896580D01*
X150224263Y-66006894D01*
X150303615Y-66103585D01*
X150400306Y-66182937D01*
X150510620Y-66241902D01*
X150630318Y-66278212D01*
X150754800Y-66290472D01*
X151149050Y-66287400D01*
X151206684Y-66229766D01*
X151342592Y-66181328D01*
X151417047Y-66141531D01*
X151414982Y-66071826D01*
X151434800Y-66052008D01*
X151454618Y-66071826D01*
X151452553Y-66141531D01*
X151601154Y-66212040D01*
X151660011Y-66226861D01*
X151720550Y-66287400D01*
X152114800Y-66290472D01*
X152239282Y-66278212D01*
X152358980Y-66241902D01*
X152469294Y-66182937D01*
X152565985Y-66103585D01*
X152645337Y-66006894D01*
X152704302Y-65896580D01*
X152740612Y-65776882D01*
X152752872Y-65652400D01*
X152749800Y-65208150D01*
X152664478Y-65122828D01*
X152643728Y-65064608D01*
X152603931Y-64990153D01*
X152499673Y-64993241D01*
X152567461Y-64925453D01*
X152564408Y-64922400D01*
X152567461Y-64919347D01*
X152499673Y-64851559D01*
X152603931Y-64854647D01*
X152669055Y-64717395D01*
X152749800Y-64636650D01*
X152752183Y-64292000D01*
X155581928Y-64292000D01*
X155585000Y-65256250D01*
X155743750Y-65415000D01*
X156322680Y-65415000D01*
X156383998Y-65427113D01*
X156558328Y-65426884D01*
X156617665Y-65415000D01*
X157343000Y-65415000D01*
X157343000Y-64689320D01*
X157355113Y-64628002D01*
X157354884Y-64453672D01*
X157343000Y-64394335D01*
X157343000Y-63815750D01*
X157184250Y-63657000D01*
X156220000Y-63653928D01*
X156095518Y-63666188D01*
X155975820Y-63702498D01*
X155865506Y-63761463D01*
X155768815Y-63840815D01*
X155689463Y-63937506D01*
X155630498Y-64047820D01*
X155594188Y-64167518D01*
X155581928Y-64292000D01*
X152752183Y-64292000D01*
X152752872Y-64192400D01*
X152740612Y-64067918D01*
X152704302Y-63948220D01*
X152645337Y-63837906D01*
X152565985Y-63741215D01*
X152469294Y-63661863D01*
X152358980Y-63602898D01*
X152239282Y-63566588D01*
X152114800Y-63554328D01*
X151720550Y-63557400D01*
X151662916Y-63615034D01*
X151527008Y-63663472D01*
X151452553Y-63703269D01*
X151454618Y-63772974D01*
X151434800Y-63792792D01*
X151414982Y-63772974D01*
X151417047Y-63703269D01*
X151268446Y-63632760D01*
X151209589Y-63617939D01*
X151149050Y-63557400D01*
X150754800Y-63554328D01*
X150630318Y-63566588D01*
X150510620Y-63602898D01*
X150400306Y-63661863D01*
X150303615Y-63741215D01*
X150224263Y-63837906D01*
X150165298Y-63948220D01*
X150128988Y-64067918D01*
X150116728Y-64192400D01*
X149614314Y-64192400D01*
X149607527Y-64158284D01*
X149567800Y-64062376D01*
X149510127Y-63976061D01*
X149436722Y-63902656D01*
X149350407Y-63844983D01*
X149254499Y-63805256D01*
X149152684Y-63785004D01*
X149048874Y-63785004D01*
X148947059Y-63805256D01*
X148851151Y-63844983D01*
X148764836Y-63902656D01*
X148691431Y-63976061D01*
X148633758Y-64062376D01*
X148594031Y-64158284D01*
X148573779Y-64260099D01*
X148573779Y-64363909D01*
X148594031Y-64465724D01*
X148633758Y-64561632D01*
X148691431Y-64647947D01*
X148707501Y-64664017D01*
X148707500Y-65532809D01*
X148688652Y-65551657D01*
X148630979Y-65637972D01*
X148591252Y-65733880D01*
X148571000Y-65835695D01*
X140814000Y-65835695D01*
X140814000Y-63326000D01*
X144696928Y-63326000D01*
X144709188Y-63450482D01*
X144745498Y-63570180D01*
X144804463Y-63680494D01*
X144883815Y-63777185D01*
X144980506Y-63856537D01*
X145090820Y-63915502D01*
X145210518Y-63951812D01*
X145335000Y-63964072D01*
X146399250Y-63961000D01*
X146558000Y-63802250D01*
X146558000Y-62103000D01*
X146812000Y-62103000D01*
X146812000Y-63802250D01*
X146970750Y-63961000D01*
X148035000Y-63964072D01*
X148159482Y-63951812D01*
X148279180Y-63915502D01*
X148389494Y-63856537D01*
X148486185Y-63777185D01*
X148565537Y-63680494D01*
X148624502Y-63570180D01*
X148660812Y-63450482D01*
X148673072Y-63326000D01*
X148670419Y-62406695D01*
X153447800Y-62406695D01*
X153447800Y-62510505D01*
X153468052Y-62612320D01*
X153507779Y-62708228D01*
X153565452Y-62794543D01*
X153638857Y-62867948D01*
X153725172Y-62925621D01*
X153821080Y-62965348D01*
X153922895Y-62985600D01*
X154026705Y-62985600D01*
X154128520Y-62965348D01*
X154224428Y-62925621D01*
X154310743Y-62867948D01*
X154329591Y-62849100D01*
X155225622Y-62849100D01*
X155244800Y-62850989D01*
X155263978Y-62849100D01*
X155321351Y-62843449D01*
X155394961Y-62821120D01*
X155462800Y-62784860D01*
X155522261Y-62736061D01*
X155534490Y-62721160D01*
X158622850Y-59632800D01*
X158649505Y-59632800D01*
X158751320Y-59612548D01*
X158847228Y-59572821D01*
X158933543Y-59515148D01*
X159006948Y-59441743D01*
X159064621Y-59355428D01*
X159104348Y-59259520D01*
X159124600Y-59157705D01*
X159124600Y-59053895D01*
X159104348Y-58952080D01*
X159064621Y-58856172D01*
X159006948Y-58769857D01*
X158933543Y-58696452D01*
X158847228Y-58638779D01*
X158751320Y-58599052D01*
X158649505Y-58578800D01*
X158545695Y-58578800D01*
X158443880Y-58599052D01*
X158347972Y-58638779D01*
X158261657Y-58696452D01*
X158188252Y-58769857D01*
X158130579Y-58856172D01*
X158090852Y-58952080D01*
X158070600Y-59053895D01*
X158070600Y-59080550D01*
X155083050Y-62068100D01*
X154329591Y-62068100D01*
X154310743Y-62049252D01*
X154224428Y-61991579D01*
X154128520Y-61951852D01*
X154026705Y-61931600D01*
X153922895Y-61931600D01*
X153821080Y-61951852D01*
X153725172Y-61991579D01*
X153638857Y-62049252D01*
X153565452Y-62122657D01*
X153507779Y-62208972D01*
X153468052Y-62304880D01*
X153447800Y-62406695D01*
X148670419Y-62406695D01*
X148670000Y-62261750D01*
X148511250Y-62103000D01*
X146812000Y-62103000D01*
X146558000Y-62103000D01*
X144858750Y-62103000D01*
X144700000Y-62261750D01*
X144696928Y-63326000D01*
X140814000Y-63326000D01*
X140814000Y-60626000D01*
X144696928Y-60626000D01*
X144700000Y-61690250D01*
X144858750Y-61849000D01*
X146558000Y-61849000D01*
X146558000Y-60149750D01*
X146812000Y-60149750D01*
X146812000Y-61849000D01*
X148511250Y-61849000D01*
X148670000Y-61690250D01*
X148673072Y-60626000D01*
X148660812Y-60501518D01*
X148624502Y-60381820D01*
X148565537Y-60271506D01*
X148486185Y-60174815D01*
X148389494Y-60095463D01*
X148279180Y-60036498D01*
X148159482Y-60000188D01*
X148035000Y-59987928D01*
X146970750Y-59991000D01*
X146812000Y-60149750D01*
X146558000Y-60149750D01*
X146399250Y-59991000D01*
X145335000Y-59987928D01*
X145210518Y-60000188D01*
X145090820Y-60036498D01*
X144980506Y-60095463D01*
X144883815Y-60174815D01*
X144804463Y-60271506D01*
X144745498Y-60381820D01*
X144709188Y-60501518D01*
X144696928Y-60626000D01*
X140814000Y-60626000D01*
X140814000Y-58907197D01*
X146135800Y-58907197D01*
X146135800Y-59050403D01*
X146163738Y-59190858D01*
X146218541Y-59323164D01*
X146298102Y-59442236D01*
X146399364Y-59543498D01*
X146518436Y-59623059D01*
X146650742Y-59677862D01*
X146791197Y-59705800D01*
X146934403Y-59705800D01*
X147074858Y-59677862D01*
X147207164Y-59623059D01*
X147326236Y-59543498D01*
X147427498Y-59442236D01*
X147507059Y-59323164D01*
X147561862Y-59190858D01*
X147589800Y-59050403D01*
X147589800Y-58926379D01*
X149143180Y-57373000D01*
X153117847Y-57373000D01*
X153191982Y-57447135D01*
X153191981Y-58223439D01*
X152401621Y-59013800D01*
X152277597Y-59013800D01*
X152137142Y-59041738D01*
X152004836Y-59096541D01*
X151885764Y-59176102D01*
X151784502Y-59277364D01*
X151704941Y-59396436D01*
X151650138Y-59528742D01*
X151622200Y-59669197D01*
X151622200Y-59812403D01*
X151650138Y-59952858D01*
X151704941Y-60085164D01*
X151784502Y-60204236D01*
X151885764Y-60305498D01*
X152004836Y-60385059D01*
X152137142Y-60439862D01*
X152277597Y-60467800D01*
X152420803Y-60467800D01*
X152561258Y-60439862D01*
X152693564Y-60385059D01*
X152812636Y-60305498D01*
X152913898Y-60204236D01*
X152993459Y-60085164D01*
X153048262Y-59952858D01*
X153076200Y-59812403D01*
X153076200Y-59688379D01*
X153989710Y-58774870D01*
X154007902Y-58759940D01*
X154067510Y-58687308D01*
X154111803Y-58604442D01*
X154139078Y-58514527D01*
X154145981Y-58444442D01*
X154145981Y-58444435D01*
X154148287Y-58421020D01*
X154145981Y-58397605D01*
X154145981Y-57447134D01*
X154233679Y-57359436D01*
X154313240Y-57240364D01*
X154368043Y-57108058D01*
X154395981Y-56967603D01*
X154395981Y-56824397D01*
X154368043Y-56683942D01*
X154313240Y-56551636D01*
X154233679Y-56432564D01*
X154132417Y-56331302D01*
X154013345Y-56251741D01*
X153881039Y-56196938D01*
X153740584Y-56169000D01*
X153597378Y-56169000D01*
X153456923Y-56196938D01*
X153324617Y-56251741D01*
X153205545Y-56331302D01*
X153117847Y-56419000D01*
X148969014Y-56419000D01*
X148945599Y-56416694D01*
X148922184Y-56419000D01*
X148922177Y-56419000D01*
X148852092Y-56425903D01*
X148762177Y-56453178D01*
X148679311Y-56497471D01*
X148606679Y-56557079D01*
X148591749Y-56575271D01*
X146915221Y-58251800D01*
X146791197Y-58251800D01*
X146650742Y-58279738D01*
X146518436Y-58334541D01*
X146399364Y-58414102D01*
X146298102Y-58515364D01*
X146218541Y-58634436D01*
X146163738Y-58766742D01*
X146135800Y-58907197D01*
X140814000Y-58907197D01*
X140814000Y-56844095D01*
X143186200Y-56844095D01*
X143186200Y-56947905D01*
X143206452Y-57049720D01*
X143246179Y-57145628D01*
X143303852Y-57231943D01*
X143377257Y-57305348D01*
X143463572Y-57363021D01*
X143559480Y-57402748D01*
X143661295Y-57423000D01*
X143765105Y-57423000D01*
X143866920Y-57402748D01*
X143962828Y-57363021D01*
X144049143Y-57305348D01*
X144080001Y-57274490D01*
X144421572Y-57274490D01*
X144440420Y-57293338D01*
X144526735Y-57351011D01*
X144622643Y-57390738D01*
X144724458Y-57410990D01*
X144828268Y-57410990D01*
X144930083Y-57390738D01*
X145025991Y-57351011D01*
X145112306Y-57293338D01*
X145185711Y-57219933D01*
X145243384Y-57133618D01*
X145283111Y-57037710D01*
X145303363Y-56935895D01*
X145303363Y-56832085D01*
X145283111Y-56730270D01*
X145243384Y-56634362D01*
X145185711Y-56548047D01*
X145112306Y-56474642D01*
X145025991Y-56416969D01*
X144930083Y-56377242D01*
X144828268Y-56356990D01*
X144724458Y-56356990D01*
X144622643Y-56377242D01*
X144526735Y-56416969D01*
X144440420Y-56474642D01*
X144421572Y-56493490D01*
X144055981Y-56493490D01*
X144049143Y-56486652D01*
X143962828Y-56428979D01*
X143866920Y-56389252D01*
X143765105Y-56369000D01*
X143661295Y-56369000D01*
X143559480Y-56389252D01*
X143463572Y-56428979D01*
X143377257Y-56486652D01*
X143303852Y-56560057D01*
X143246179Y-56646372D01*
X143206452Y-56742280D01*
X143186200Y-56844095D01*
X140814000Y-56844095D01*
X140814000Y-55470000D01*
X161954000Y-55470000D01*
X161954001Y-69766000D01*
G37*
G04 #@! TD.AperFunction*
M02*
