%FSLAX45Y45*%
G04 Gerber Fmt 4.5, Leading zero omitted, Abs format (unit mm)*
G04 Created by KiCad (PCBNEW (5.1.9)-1) date 2022-12-30 13:42:07*
%MOMM*%
%LPD*%
G01*
G04 APERTURE LIST*
%TA.AperFunction,Profile*%
%ADD10C,0.050000*%
%TD*%
%ADD11C,0.200000*%
%ADD12C,0.300000*%
G04 APERTURE END LIST*
D10*
X14046200Y-7011800D02*
X14046200Y-5511800D01*
X14046200Y-7011800D02*
X16230600Y-7011800D01*
X16230600Y-5511800D02*
X16230600Y-7011800D01*
X14046200Y-5511800D02*
X16230600Y-5511800D01*
D11*
D12*
X14330128Y-7480014D02*
X14330128Y-7180014D01*
X14401557Y-7180014D01*
X14444414Y-7194300D01*
X14472986Y-7222871D01*
X14487271Y-7251443D01*
X14501557Y-7308586D01*
X14501557Y-7351443D01*
X14487271Y-7408586D01*
X14472986Y-7437157D01*
X14444414Y-7465729D01*
X14401557Y-7480014D01*
X14330128Y-7480014D01*
X14630128Y-7480014D02*
X14630128Y-7280014D01*
X14630128Y-7337157D02*
X14644414Y-7308586D01*
X14658700Y-7294300D01*
X14687271Y-7280014D01*
X14715843Y-7280014D01*
X14815843Y-7480014D02*
X14815843Y-7280014D01*
X14815843Y-7180014D02*
X14801557Y-7194300D01*
X14815843Y-7208586D01*
X14830128Y-7194300D01*
X14815843Y-7180014D01*
X14815843Y-7208586D01*
X15001557Y-7480014D02*
X14972986Y-7465729D01*
X14958700Y-7437157D01*
X14958700Y-7180014D01*
X15158700Y-7480014D02*
X15130128Y-7465729D01*
X15115843Y-7437157D01*
X15115843Y-7180014D01*
X15501557Y-7480014D02*
X15501557Y-7180014D01*
X15601557Y-7394300D01*
X15701557Y-7180014D01*
X15701557Y-7480014D01*
X15972986Y-7480014D02*
X15972986Y-7322871D01*
X15958700Y-7294300D01*
X15930128Y-7280014D01*
X15872986Y-7280014D01*
X15844414Y-7294300D01*
X15972986Y-7465729D02*
X15944414Y-7480014D01*
X15872986Y-7480014D01*
X15844414Y-7465729D01*
X15830128Y-7437157D01*
X15830128Y-7408586D01*
X15844414Y-7380014D01*
X15872986Y-7365729D01*
X15944414Y-7365729D01*
X15972986Y-7351443D01*
X16115843Y-7280014D02*
X16115843Y-7580014D01*
X16115843Y-7294300D02*
X16144414Y-7280014D01*
X16201557Y-7280014D01*
X16230128Y-7294300D01*
X16244414Y-7308586D01*
X16258700Y-7337157D01*
X16258700Y-7422871D01*
X16244414Y-7451443D01*
X16230128Y-7465729D01*
X16201557Y-7480014D01*
X16144414Y-7480014D01*
X16115843Y-7465729D01*
X16387271Y-7451443D02*
X16401557Y-7465729D01*
X16387271Y-7480014D01*
X16372986Y-7465729D01*
X16387271Y-7451443D01*
X16387271Y-7480014D01*
X16387271Y-7294300D02*
X16401557Y-7308586D01*
X16387271Y-7322871D01*
X16372986Y-7308586D01*
X16387271Y-7294300D01*
X16387271Y-7322871D01*
M02*
