G04 #@! TF.GenerationSoftware,KiCad,Pcbnew,(5.0.0)*
G04 #@! TF.CreationDate,2018-12-13T19:23:09+01:00*
G04 #@! TF.ProjectId,TrackAmplifier,547261636B416D706C69666965722E6B,rev?*
G04 #@! TF.SameCoordinates,Original*
G04 #@! TF.FileFunction,Copper,L2,Bot,Signal*
G04 #@! TF.FilePolarity,Positive*
%FSLAX46Y46*%
G04 Gerber Fmt 4.6, Leading zero omitted, Abs format (unit mm)*
G04 Created by KiCad (PCBNEW (5.0.0)) date 12/13/18 19:23:09*
%MOMM*%
%LPD*%
G01*
G04 APERTURE LIST*
G04 #@! TA.AperFunction,NonConductor*
%ADD10C,0.150000*%
G04 #@! TD*
G04 #@! TA.AperFunction,NonConductor*
%ADD11C,0.300000*%
G04 #@! TD*
G04 #@! TA.AperFunction,ComponentPad*
%ADD12R,2.500000X2.500000*%
G04 #@! TD*
G04 #@! TA.AperFunction,ComponentPad*
%ADD13C,2.500000*%
G04 #@! TD*
G04 #@! TA.AperFunction,ComponentPad*
%ADD14O,1.900000X2.400000*%
G04 #@! TD*
G04 #@! TA.AperFunction,ComponentPad*
%ADD15R,2.000000X1.600000*%
G04 #@! TD*
G04 #@! TA.AperFunction,ComponentPad*
%ADD16O,2.000000X1.600000*%
G04 #@! TD*
G04 #@! TA.AperFunction,ComponentPad*
%ADD17C,5.000000*%
G04 #@! TD*
G04 #@! TA.AperFunction,ComponentPad*
%ADD18R,1.700000X2.500000*%
G04 #@! TD*
G04 #@! TA.AperFunction,ComponentPad*
%ADD19O,1.700000X2.500000*%
G04 #@! TD*
G04 #@! TA.AperFunction,SMDPad,CuDef*
%ADD20R,1.220000X1.800000*%
G04 #@! TD*
G04 #@! TA.AperFunction,ComponentPad*
%ADD21R,1.600000X1.600000*%
G04 #@! TD*
G04 #@! TA.AperFunction,ComponentPad*
%ADD22C,1.600000*%
G04 #@! TD*
G04 #@! TA.AperFunction,SMDPad,CuDef*
%ADD23R,1.800000X1.220000*%
G04 #@! TD*
G04 #@! TA.AperFunction,ComponentPad*
%ADD24C,1.300000*%
G04 #@! TD*
G04 #@! TA.AperFunction,ComponentPad*
%ADD25R,1.300000X1.300000*%
G04 #@! TD*
G04 #@! TA.AperFunction,ComponentPad*
%ADD26C,7.400000*%
G04 #@! TD*
G04 #@! TA.AperFunction,ComponentPad*
%ADD27C,0.800000*%
G04 #@! TD*
G04 #@! TA.AperFunction,ComponentPad*
%ADD28R,2.000000X2.000000*%
G04 #@! TD*
G04 #@! TA.AperFunction,ComponentPad*
%ADD29C,2.000000*%
G04 #@! TD*
G04 #@! TA.AperFunction,Conductor*
%ADD30C,0.100000*%
G04 #@! TD*
G04 #@! TA.AperFunction,SMDPad,CuDef*
%ADD31C,1.925000*%
G04 #@! TD*
G04 #@! TA.AperFunction,SMDPad,CuDef*
%ADD32C,1.250000*%
G04 #@! TD*
G04 #@! TA.AperFunction,SMDPad,CuDef*
%ADD33R,6.200000X5.700000*%
G04 #@! TD*
G04 #@! TA.AperFunction,ComponentPad*
%ADD34R,1.800000X1.717500*%
G04 #@! TD*
G04 #@! TA.AperFunction,ComponentPad*
%ADD35O,1.800000X1.717500*%
G04 #@! TD*
G04 #@! TA.AperFunction,SMDPad,CuDef*
%ADD36C,0.800000*%
G04 #@! TD*
G04 #@! TA.AperFunction,ViaPad*
%ADD37C,1.000000*%
G04 #@! TD*
G04 #@! TA.AperFunction,ViaPad*
%ADD38C,0.600000*%
G04 #@! TD*
G04 #@! TA.AperFunction,ViaPad*
%ADD39C,2.000000*%
G04 #@! TD*
G04 #@! TA.AperFunction,Conductor*
%ADD40C,1.000000*%
G04 #@! TD*
G04 #@! TA.AperFunction,Conductor*
%ADD41C,0.750000*%
G04 #@! TD*
G04 #@! TA.AperFunction,Conductor*
%ADD42C,0.500000*%
G04 #@! TD*
G04 #@! TA.AperFunction,Conductor*
%ADD43C,2.000000*%
G04 #@! TD*
G04 #@! TA.AperFunction,Conductor*
%ADD44C,0.250000*%
G04 #@! TD*
G04 #@! TA.AperFunction,Conductor*
%ADD45C,0.254000*%
G04 #@! TD*
G04 APERTURE END LIST*
D10*
X59858333Y-61032380D02*
X59858333Y-61746666D01*
X59905952Y-61889523D01*
X60001190Y-61984761D01*
X60144047Y-62032380D01*
X60239285Y-62032380D01*
X58858333Y-62032380D02*
X59429761Y-62032380D01*
X59144047Y-62032380D02*
X59144047Y-61032380D01*
X59239285Y-61175238D01*
X59334523Y-61270476D01*
X59429761Y-61318095D01*
D11*
X149500000Y-112503571D02*
X149500000Y-113575000D01*
X149571428Y-113789285D01*
X149714285Y-113932142D01*
X149928571Y-114003571D01*
X150071428Y-114003571D01*
X148857142Y-113932142D02*
X148642857Y-114003571D01*
X148285714Y-114003571D01*
X148142857Y-113932142D01*
X148071428Y-113860714D01*
X148000000Y-113717857D01*
X148000000Y-113575000D01*
X148071428Y-113432142D01*
X148142857Y-113360714D01*
X148285714Y-113289285D01*
X148571428Y-113217857D01*
X148714285Y-113146428D01*
X148785714Y-113075000D01*
X148857142Y-112932142D01*
X148857142Y-112789285D01*
X148785714Y-112646428D01*
X148714285Y-112575000D01*
X148571428Y-112503571D01*
X148214285Y-112503571D01*
X148000000Y-112575000D01*
X147357142Y-114003571D02*
X147357142Y-112503571D01*
X146142857Y-113217857D02*
X146642857Y-113217857D01*
X146642857Y-114003571D02*
X146642857Y-112503571D01*
X145928571Y-112503571D01*
X144285714Y-112646428D02*
X144214285Y-112575000D01*
X144071428Y-112503571D01*
X143714285Y-112503571D01*
X143571428Y-112575000D01*
X143500000Y-112646428D01*
X143428571Y-112789285D01*
X143428571Y-112932142D01*
X143500000Y-113146428D01*
X144357142Y-114003571D01*
X143428571Y-114003571D01*
X142500000Y-112503571D02*
X142357142Y-112503571D01*
X142214285Y-112575000D01*
X142142857Y-112646428D01*
X142071428Y-112789285D01*
X142000000Y-113075000D01*
X142000000Y-113432142D01*
X142071428Y-113717857D01*
X142142857Y-113860714D01*
X142214285Y-113932142D01*
X142357142Y-114003571D01*
X142500000Y-114003571D01*
X142642857Y-113932142D01*
X142714285Y-113860714D01*
X142785714Y-113717857D01*
X142857142Y-113432142D01*
X142857142Y-113075000D01*
X142785714Y-112789285D01*
X142714285Y-112646428D01*
X142642857Y-112575000D01*
X142500000Y-112503571D01*
X140571428Y-114003571D02*
X141428571Y-114003571D01*
X141000000Y-114003571D02*
X141000000Y-112503571D01*
X141142857Y-112717857D01*
X141285714Y-112860714D01*
X141428571Y-112932142D01*
X139857142Y-114003571D02*
X139571428Y-114003571D01*
X139428571Y-113932142D01*
X139357142Y-113860714D01*
X139214285Y-113646428D01*
X139142857Y-113360714D01*
X139142857Y-112789285D01*
X139214285Y-112646428D01*
X139285714Y-112575000D01*
X139428571Y-112503571D01*
X139714285Y-112503571D01*
X139857142Y-112575000D01*
X139928571Y-112646428D01*
X140000000Y-112789285D01*
X140000000Y-113146428D01*
X139928571Y-113289285D01*
X139857142Y-113360714D01*
X139714285Y-113432142D01*
X139428571Y-113432142D01*
X139285714Y-113360714D01*
X139214285Y-113289285D01*
X139142857Y-113146428D01*
X152142857Y-115053571D02*
X151285714Y-115053571D01*
X151714285Y-116553571D02*
X151714285Y-115053571D01*
X150785714Y-116553571D02*
X150785714Y-115553571D01*
X150785714Y-115839285D02*
X150714285Y-115696428D01*
X150642857Y-115625000D01*
X150500000Y-115553571D01*
X150357142Y-115553571D01*
X149214285Y-116553571D02*
X149214285Y-115767857D01*
X149285714Y-115625000D01*
X149428571Y-115553571D01*
X149714285Y-115553571D01*
X149857142Y-115625000D01*
X149214285Y-116482142D02*
X149357142Y-116553571D01*
X149714285Y-116553571D01*
X149857142Y-116482142D01*
X149928571Y-116339285D01*
X149928571Y-116196428D01*
X149857142Y-116053571D01*
X149714285Y-115982142D01*
X149357142Y-115982142D01*
X149214285Y-115910714D01*
X147857142Y-116482142D02*
X148000000Y-116553571D01*
X148285714Y-116553571D01*
X148428571Y-116482142D01*
X148500000Y-116410714D01*
X148571428Y-116267857D01*
X148571428Y-115839285D01*
X148500000Y-115696428D01*
X148428571Y-115625000D01*
X148285714Y-115553571D01*
X148000000Y-115553571D01*
X147857142Y-115625000D01*
X147214285Y-116553571D02*
X147214285Y-115053571D01*
X147071428Y-115982142D02*
X146642857Y-116553571D01*
X146642857Y-115553571D02*
X147214285Y-116125000D01*
X146071428Y-116125000D02*
X145357142Y-116125000D01*
X146214285Y-116553571D02*
X145714285Y-115053571D01*
X145214285Y-116553571D01*
X144714285Y-116553571D02*
X144714285Y-115553571D01*
X144714285Y-115696428D02*
X144642857Y-115625000D01*
X144500000Y-115553571D01*
X144285714Y-115553571D01*
X144142857Y-115625000D01*
X144071428Y-115767857D01*
X144071428Y-116553571D01*
X144071428Y-115767857D02*
X144000000Y-115625000D01*
X143857142Y-115553571D01*
X143642857Y-115553571D01*
X143500000Y-115625000D01*
X143428571Y-115767857D01*
X143428571Y-116553571D01*
X142714285Y-115553571D02*
X142714285Y-117053571D01*
X142714285Y-115625000D02*
X142571428Y-115553571D01*
X142285714Y-115553571D01*
X142142857Y-115625000D01*
X142071428Y-115696428D01*
X142000000Y-115839285D01*
X142000000Y-116267857D01*
X142071428Y-116410714D01*
X142142857Y-116482142D01*
X142285714Y-116553571D01*
X142571428Y-116553571D01*
X142714285Y-116482142D01*
X140428571Y-115053571D02*
X139928571Y-116553571D01*
X139428571Y-115053571D01*
X139000000Y-115196428D02*
X138928571Y-115125000D01*
X138785714Y-115053571D01*
X138428571Y-115053571D01*
X138285714Y-115125000D01*
X138214285Y-115196428D01*
X138142857Y-115339285D01*
X138142857Y-115482142D01*
X138214285Y-115696428D01*
X139071428Y-116553571D01*
X138142857Y-116553571D01*
X137500000Y-116410714D02*
X137428571Y-116482142D01*
X137500000Y-116553571D01*
X137571428Y-116482142D01*
X137500000Y-116410714D01*
X137500000Y-116553571D01*
X136500000Y-115053571D02*
X136357142Y-115053571D01*
X136214285Y-115125000D01*
X136142857Y-115196428D01*
X136071428Y-115339285D01*
X136000000Y-115625000D01*
X136000000Y-115982142D01*
X136071428Y-116267857D01*
X136142857Y-116410714D01*
X136214285Y-116482142D01*
X136357142Y-116553571D01*
X136500000Y-116553571D01*
X136642857Y-116482142D01*
X136714285Y-116410714D01*
X136785714Y-116267857D01*
X136857142Y-115982142D01*
X136857142Y-115625000D01*
X136785714Y-115339285D01*
X136714285Y-115196428D01*
X136642857Y-115125000D01*
X136500000Y-115053571D01*
D12*
G04 #@! TO.P,FL1,1*
G04 #@! TO.N,OCC2*
X84544000Y-114843800D03*
D13*
G04 #@! TO.P,FL1,2*
G04 #@! TO.N,PWMO1*
X64544000Y-114843800D03*
G04 #@! TO.P,FL1,3*
G04 #@! TO.N,PWM2*
X84544000Y-102343800D03*
G04 #@! TO.P,FL1,4*
G04 #@! TO.N,PWMO2*
X64544000Y-102343800D03*
G04 #@! TD*
D12*
G04 #@! TO.P,FL2,1*
G04 #@! TO.N,Net-(FL2-Pad1)*
X64605000Y-55230000D03*
D13*
G04 #@! TO.P,FL2,2*
G04 #@! TO.N,Vbus_flt*
X84605000Y-55230000D03*
G04 #@! TO.P,FL2,3*
G04 #@! TO.N,GNDD*
X64605000Y-67730000D03*
G04 #@! TO.P,FL2,4*
G04 #@! TO.N,GND*
X84605000Y-67730000D03*
G04 #@! TD*
D14*
G04 #@! TO.P,U4,1*
G04 #@! TO.N,Net-(C17-Pad1)*
X145820000Y-77760000D03*
G04 #@! TO.P,U4,2*
G04 #@! TO.N,OCC1*
X144120000Y-80900000D03*
G04 #@! TO.P,U4,3*
G04 #@! TO.N,DIR*
X142420000Y-77760000D03*
G04 #@! TO.P,U4,4*
G04 #@! TO.N,BRK*
X140720000Y-80900000D03*
G04 #@! TO.P,U4,5*
G04 #@! TO.N,PWM*
X139020000Y-77760000D03*
G04 #@! TO.P,U4,6*
G04 #@! TO.N,Net-(C6-Pad1)*
X137320000Y-80900000D03*
G04 #@! TO.P,U4,7*
G04 #@! TO.N,GND*
X135620000Y-77760000D03*
G04 #@! TO.P,U4,8*
G04 #@! TO.N,CSEN*
X133920000Y-80900000D03*
G04 #@! TO.P,U4,9*
G04 #@! TO.N,THFLG*
X132220000Y-77760000D03*
G04 #@! TO.P,U4,10*
G04 #@! TO.N,PWM2*
X130520000Y-80900000D03*
G04 #@! TO.P,U4,11*
G04 #@! TO.N,Net-(C18-Pad2)*
X128820000Y-77760000D03*
G04 #@! TD*
D15*
G04 #@! TO.P,J1,1*
G04 #@! TO.N,PWMO2*
X59800000Y-94390000D03*
D16*
G04 #@! TO.P,J1,2*
G04 #@! TO.N,GNDD*
X59800000Y-91620000D03*
G04 #@! TO.P,J1,3*
G04 #@! TO.N,TX_B*
X59800000Y-88850000D03*
G04 #@! TO.P,J1,4*
G04 #@! TO.N,RX_B*
X59800000Y-86080000D03*
G04 #@! TO.P,J1,5*
G04 #@! TO.N,Sync_B*
X59800000Y-83310000D03*
G04 #@! TO.P,J1,6*
G04 #@! TO.N,Reset_B*
X59800000Y-80540000D03*
G04 #@! TO.P,J1,7*
G04 #@! TO.N,ID_R*
X59800000Y-77770000D03*
G04 #@! TO.P,J1,8*
G04 #@! TO.N,GNDD*
X59800000Y-75000000D03*
G04 #@! TO.P,J1,9*
G04 #@! TO.N,PWMO1*
X56960000Y-93005000D03*
G04 #@! TO.P,J1,10*
G04 #@! TO.N,Net-(FL2-Pad1)*
X56960000Y-90235000D03*
G04 #@! TO.P,J1,11*
G04 #@! TO.N,TX_A*
X56960000Y-87465000D03*
G04 #@! TO.P,J1,12*
G04 #@! TO.N,RX_A*
X56960000Y-84695000D03*
G04 #@! TO.P,J1,13*
G04 #@! TO.N,Sync_A*
X56960000Y-81925000D03*
G04 #@! TO.P,J1,14*
G04 #@! TO.N,Reset_A*
X56960000Y-79155000D03*
G04 #@! TO.P,J1,15*
G04 #@! TO.N,Net-(FL2-Pad1)*
X56960000Y-76385000D03*
D17*
G04 #@! TO.P,J1,0*
G04 #@! TO.N,GNDD*
X59500000Y-101345000D03*
X59500000Y-68045000D03*
G04 #@! TD*
D18*
G04 #@! TO.P,J2,1*
G04 #@! TO.N,VPP*
X132423000Y-53325000D03*
D19*
G04 #@! TO.P,J2,2*
G04 #@! TO.N,+5V*
X134963000Y-53325000D03*
G04 #@! TO.P,J2,3*
G04 #@! TO.N,GND*
X137503000Y-53325000D03*
G04 #@! TO.P,J2,4*
G04 #@! TO.N,ICSPDAT*
X140043000Y-53325000D03*
G04 #@! TO.P,J2,5*
G04 #@! TO.N,ICSPCLK*
X142583000Y-53325000D03*
G04 #@! TO.P,J2,6*
G04 #@! TO.N,Net-(J2-Pad6)*
X145123000Y-53325000D03*
G04 #@! TD*
D20*
G04 #@! TO.P,C8,1*
G04 #@! TO.N,GND*
X142235000Y-87615000D03*
G04 #@! TO.P,C8,2*
G04 #@! TO.N,Net-(C6-Pad1)*
X139375000Y-87615000D03*
G04 #@! TD*
G04 #@! TO.P,C9,2*
G04 #@! TO.N,Net-(C6-Pad1)*
X139375000Y-85075000D03*
G04 #@! TO.P,C9,1*
G04 #@! TO.N,GND*
X142235000Y-85075000D03*
G04 #@! TD*
D21*
G04 #@! TO.P,C16,1*
G04 #@! TO.N,+5V*
X111468000Y-60310000D03*
D22*
G04 #@! TO.P,C16,2*
G04 #@! TO.N,GND*
X113968000Y-60310000D03*
G04 #@! TD*
D23*
G04 #@! TO.P,C17,2*
G04 #@! TO.N,OCC1*
X149060000Y-80790000D03*
G04 #@! TO.P,C17,1*
G04 #@! TO.N,Net-(C17-Pad1)*
X149060000Y-77930000D03*
G04 #@! TD*
D20*
G04 #@! TO.P,C18,1*
G04 #@! TO.N,PWM2*
X131440000Y-85075000D03*
G04 #@! TO.P,C18,2*
G04 #@! TO.N,Net-(C18-Pad2)*
X128580000Y-85075000D03*
G04 #@! TD*
G04 #@! TO.P,R20,1*
G04 #@! TO.N,Net-(R16-Pad1)*
X87498000Y-111618000D03*
G04 #@! TO.P,R20,2*
G04 #@! TO.N,OCC2*
X84638000Y-111618000D03*
G04 #@! TD*
G04 #@! TO.P,R21,2*
G04 #@! TO.N,Net-(R21-Pad2)*
X87498000Y-106030000D03*
G04 #@! TO.P,R21,1*
G04 #@! TO.N,PWM2*
X84638000Y-106030000D03*
G04 #@! TD*
D24*
G04 #@! TO.P,U11,2*
G04 #@! TO.N,Net-(R37-Pad1)*
X119850000Y-96505000D03*
G04 #@! TO.P,U11,3*
G04 #@! TO.N,GND*
X121120000Y-95235000D03*
D25*
G04 #@! TO.P,U11,1*
G04 #@! TO.N,Net-(C34-Pad2)*
X121120000Y-97775000D03*
G04 #@! TD*
D26*
G04 #@! TO.P,MK1,1*
G04 #@! TO.N,N/C*
X137317013Y-97367015D03*
D27*
X134542013Y-97367015D03*
X135354792Y-95404794D03*
X137317013Y-94592015D03*
X139279234Y-95404794D03*
X140092013Y-97367015D03*
X139279234Y-99329236D03*
X137317013Y-100142015D03*
X135354792Y-99329236D03*
G04 #@! TD*
D20*
G04 #@! TO.P,R38,2*
G04 #@! TO.N,GND*
X92451000Y-106030000D03*
G04 #@! TO.P,R38,1*
G04 #@! TO.N,Net-(R21-Pad2)*
X89591000Y-106030000D03*
G04 #@! TD*
D28*
G04 #@! TO.P,C6,1*
G04 #@! TO.N,Net-(C6-Pad1)*
X127470000Y-62977000D03*
D29*
G04 #@! TO.P,C6,2*
G04 #@! TO.N,GND*
X122470000Y-62977000D03*
G04 #@! TD*
D30*
G04 #@! TO.N,Net-(C6-Pad1)*
G04 #@! TO.C,F1*
G36*
X128165505Y-52252204D02*
X128189773Y-52255804D01*
X128213572Y-52261765D01*
X128236671Y-52270030D01*
X128258850Y-52280520D01*
X128279893Y-52293132D01*
X128299599Y-52307747D01*
X128317777Y-52324223D01*
X128334253Y-52342401D01*
X128348868Y-52362107D01*
X128361480Y-52383150D01*
X128371970Y-52405329D01*
X128380235Y-52428428D01*
X128386196Y-52452227D01*
X128389796Y-52476495D01*
X128391000Y-52500999D01*
X128391000Y-57451001D01*
X128389796Y-57475505D01*
X128386196Y-57499773D01*
X128380235Y-57523572D01*
X128371970Y-57546671D01*
X128361480Y-57568850D01*
X128348868Y-57589893D01*
X128334253Y-57609599D01*
X128317777Y-57627777D01*
X128299599Y-57644253D01*
X128279893Y-57658868D01*
X128258850Y-57671480D01*
X128236671Y-57681970D01*
X128213572Y-57690235D01*
X128189773Y-57696196D01*
X128165505Y-57699796D01*
X128141001Y-57701000D01*
X126715999Y-57701000D01*
X126691495Y-57699796D01*
X126667227Y-57696196D01*
X126643428Y-57690235D01*
X126620329Y-57681970D01*
X126598150Y-57671480D01*
X126577107Y-57658868D01*
X126557401Y-57644253D01*
X126539223Y-57627777D01*
X126522747Y-57609599D01*
X126508132Y-57589893D01*
X126495520Y-57568850D01*
X126485030Y-57546671D01*
X126476765Y-57523572D01*
X126470804Y-57499773D01*
X126467204Y-57475505D01*
X126466000Y-57451001D01*
X126466000Y-52500999D01*
X126467204Y-52476495D01*
X126470804Y-52452227D01*
X126476765Y-52428428D01*
X126485030Y-52405329D01*
X126495520Y-52383150D01*
X126508132Y-52362107D01*
X126522747Y-52342401D01*
X126539223Y-52324223D01*
X126557401Y-52307747D01*
X126577107Y-52293132D01*
X126598150Y-52280520D01*
X126620329Y-52270030D01*
X126643428Y-52261765D01*
X126667227Y-52255804D01*
X126691495Y-52252204D01*
X126715999Y-52251000D01*
X128141001Y-52251000D01*
X128165505Y-52252204D01*
X128165505Y-52252204D01*
G37*
D31*
G04 #@! TD*
G04 #@! TO.P,F1,1*
G04 #@! TO.N,Net-(C6-Pad1)*
X127428500Y-54976000D03*
D30*
G04 #@! TO.N,Vbus_flt*
G04 #@! TO.C,F1*
G36*
X121390505Y-52252204D02*
X121414773Y-52255804D01*
X121438572Y-52261765D01*
X121461671Y-52270030D01*
X121483850Y-52280520D01*
X121504893Y-52293132D01*
X121524599Y-52307747D01*
X121542777Y-52324223D01*
X121559253Y-52342401D01*
X121573868Y-52362107D01*
X121586480Y-52383150D01*
X121596970Y-52405329D01*
X121605235Y-52428428D01*
X121611196Y-52452227D01*
X121614796Y-52476495D01*
X121616000Y-52500999D01*
X121616000Y-57451001D01*
X121614796Y-57475505D01*
X121611196Y-57499773D01*
X121605235Y-57523572D01*
X121596970Y-57546671D01*
X121586480Y-57568850D01*
X121573868Y-57589893D01*
X121559253Y-57609599D01*
X121542777Y-57627777D01*
X121524599Y-57644253D01*
X121504893Y-57658868D01*
X121483850Y-57671480D01*
X121461671Y-57681970D01*
X121438572Y-57690235D01*
X121414773Y-57696196D01*
X121390505Y-57699796D01*
X121366001Y-57701000D01*
X119940999Y-57701000D01*
X119916495Y-57699796D01*
X119892227Y-57696196D01*
X119868428Y-57690235D01*
X119845329Y-57681970D01*
X119823150Y-57671480D01*
X119802107Y-57658868D01*
X119782401Y-57644253D01*
X119764223Y-57627777D01*
X119747747Y-57609599D01*
X119733132Y-57589893D01*
X119720520Y-57568850D01*
X119710030Y-57546671D01*
X119701765Y-57523572D01*
X119695804Y-57499773D01*
X119692204Y-57475505D01*
X119691000Y-57451001D01*
X119691000Y-52500999D01*
X119692204Y-52476495D01*
X119695804Y-52452227D01*
X119701765Y-52428428D01*
X119710030Y-52405329D01*
X119720520Y-52383150D01*
X119733132Y-52362107D01*
X119747747Y-52342401D01*
X119764223Y-52324223D01*
X119782401Y-52307747D01*
X119802107Y-52293132D01*
X119823150Y-52280520D01*
X119845329Y-52270030D01*
X119868428Y-52261765D01*
X119892227Y-52255804D01*
X119916495Y-52252204D01*
X119940999Y-52251000D01*
X121366001Y-52251000D01*
X121390505Y-52252204D01*
X121390505Y-52252204D01*
G37*
D31*
G04 #@! TD*
G04 #@! TO.P,F1,2*
G04 #@! TO.N,Vbus_flt*
X120653500Y-54976000D03*
D30*
G04 #@! TO.N,GND*
G04 #@! TO.C,R16*
G36*
X92820504Y-110744204D02*
X92844773Y-110747804D01*
X92868571Y-110753765D01*
X92891671Y-110762030D01*
X92913849Y-110772520D01*
X92934893Y-110785133D01*
X92954598Y-110799747D01*
X92972777Y-110816223D01*
X92989253Y-110834402D01*
X93003867Y-110854107D01*
X93016480Y-110875151D01*
X93026970Y-110897329D01*
X93035235Y-110920429D01*
X93041196Y-110944227D01*
X93044796Y-110968496D01*
X93046000Y-110993000D01*
X93046000Y-112243000D01*
X93044796Y-112267504D01*
X93041196Y-112291773D01*
X93035235Y-112315571D01*
X93026970Y-112338671D01*
X93016480Y-112360849D01*
X93003867Y-112381893D01*
X92989253Y-112401598D01*
X92972777Y-112419777D01*
X92954598Y-112436253D01*
X92934893Y-112450867D01*
X92913849Y-112463480D01*
X92891671Y-112473970D01*
X92868571Y-112482235D01*
X92844773Y-112488196D01*
X92820504Y-112491796D01*
X92796000Y-112493000D01*
X92046000Y-112493000D01*
X92021496Y-112491796D01*
X91997227Y-112488196D01*
X91973429Y-112482235D01*
X91950329Y-112473970D01*
X91928151Y-112463480D01*
X91907107Y-112450867D01*
X91887402Y-112436253D01*
X91869223Y-112419777D01*
X91852747Y-112401598D01*
X91838133Y-112381893D01*
X91825520Y-112360849D01*
X91815030Y-112338671D01*
X91806765Y-112315571D01*
X91800804Y-112291773D01*
X91797204Y-112267504D01*
X91796000Y-112243000D01*
X91796000Y-110993000D01*
X91797204Y-110968496D01*
X91800804Y-110944227D01*
X91806765Y-110920429D01*
X91815030Y-110897329D01*
X91825520Y-110875151D01*
X91838133Y-110854107D01*
X91852747Y-110834402D01*
X91869223Y-110816223D01*
X91887402Y-110799747D01*
X91907107Y-110785133D01*
X91928151Y-110772520D01*
X91950329Y-110762030D01*
X91973429Y-110753765D01*
X91997227Y-110747804D01*
X92021496Y-110744204D01*
X92046000Y-110743000D01*
X92796000Y-110743000D01*
X92820504Y-110744204D01*
X92820504Y-110744204D01*
G37*
D32*
G04 #@! TD*
G04 #@! TO.P,R16,2*
G04 #@! TO.N,GND*
X92421000Y-111618000D03*
D30*
G04 #@! TO.N,Net-(R16-Pad1)*
G04 #@! TO.C,R16*
G36*
X90020504Y-110744204D02*
X90044773Y-110747804D01*
X90068571Y-110753765D01*
X90091671Y-110762030D01*
X90113849Y-110772520D01*
X90134893Y-110785133D01*
X90154598Y-110799747D01*
X90172777Y-110816223D01*
X90189253Y-110834402D01*
X90203867Y-110854107D01*
X90216480Y-110875151D01*
X90226970Y-110897329D01*
X90235235Y-110920429D01*
X90241196Y-110944227D01*
X90244796Y-110968496D01*
X90246000Y-110993000D01*
X90246000Y-112243000D01*
X90244796Y-112267504D01*
X90241196Y-112291773D01*
X90235235Y-112315571D01*
X90226970Y-112338671D01*
X90216480Y-112360849D01*
X90203867Y-112381893D01*
X90189253Y-112401598D01*
X90172777Y-112419777D01*
X90154598Y-112436253D01*
X90134893Y-112450867D01*
X90113849Y-112463480D01*
X90091671Y-112473970D01*
X90068571Y-112482235D01*
X90044773Y-112488196D01*
X90020504Y-112491796D01*
X89996000Y-112493000D01*
X89246000Y-112493000D01*
X89221496Y-112491796D01*
X89197227Y-112488196D01*
X89173429Y-112482235D01*
X89150329Y-112473970D01*
X89128151Y-112463480D01*
X89107107Y-112450867D01*
X89087402Y-112436253D01*
X89069223Y-112419777D01*
X89052747Y-112401598D01*
X89038133Y-112381893D01*
X89025520Y-112360849D01*
X89015030Y-112338671D01*
X89006765Y-112315571D01*
X89000804Y-112291773D01*
X88997204Y-112267504D01*
X88996000Y-112243000D01*
X88996000Y-110993000D01*
X88997204Y-110968496D01*
X89000804Y-110944227D01*
X89006765Y-110920429D01*
X89015030Y-110897329D01*
X89025520Y-110875151D01*
X89038133Y-110854107D01*
X89052747Y-110834402D01*
X89069223Y-110816223D01*
X89087402Y-110799747D01*
X89107107Y-110785133D01*
X89128151Y-110772520D01*
X89150329Y-110762030D01*
X89173429Y-110753765D01*
X89197227Y-110747804D01*
X89221496Y-110744204D01*
X89246000Y-110743000D01*
X89996000Y-110743000D01*
X90020504Y-110744204D01*
X90020504Y-110744204D01*
G37*
D32*
G04 #@! TD*
G04 #@! TO.P,R16,1*
G04 #@! TO.N,Net-(R16-Pad1)*
X89621000Y-111618000D03*
D30*
G04 #@! TO.N,Net-(R43-Pad2)*
G04 #@! TO.C,R43*
G36*
X90534504Y-88011204D02*
X90558773Y-88014804D01*
X90582571Y-88020765D01*
X90605671Y-88029030D01*
X90627849Y-88039520D01*
X90648893Y-88052133D01*
X90668598Y-88066747D01*
X90686777Y-88083223D01*
X90703253Y-88101402D01*
X90717867Y-88121107D01*
X90730480Y-88142151D01*
X90740970Y-88164329D01*
X90749235Y-88187429D01*
X90755196Y-88211227D01*
X90758796Y-88235496D01*
X90760000Y-88260000D01*
X90760000Y-89510000D01*
X90758796Y-89534504D01*
X90755196Y-89558773D01*
X90749235Y-89582571D01*
X90740970Y-89605671D01*
X90730480Y-89627849D01*
X90717867Y-89648893D01*
X90703253Y-89668598D01*
X90686777Y-89686777D01*
X90668598Y-89703253D01*
X90648893Y-89717867D01*
X90627849Y-89730480D01*
X90605671Y-89740970D01*
X90582571Y-89749235D01*
X90558773Y-89755196D01*
X90534504Y-89758796D01*
X90510000Y-89760000D01*
X89760000Y-89760000D01*
X89735496Y-89758796D01*
X89711227Y-89755196D01*
X89687429Y-89749235D01*
X89664329Y-89740970D01*
X89642151Y-89730480D01*
X89621107Y-89717867D01*
X89601402Y-89703253D01*
X89583223Y-89686777D01*
X89566747Y-89668598D01*
X89552133Y-89648893D01*
X89539520Y-89627849D01*
X89529030Y-89605671D01*
X89520765Y-89582571D01*
X89514804Y-89558773D01*
X89511204Y-89534504D01*
X89510000Y-89510000D01*
X89510000Y-88260000D01*
X89511204Y-88235496D01*
X89514804Y-88211227D01*
X89520765Y-88187429D01*
X89529030Y-88164329D01*
X89539520Y-88142151D01*
X89552133Y-88121107D01*
X89566747Y-88101402D01*
X89583223Y-88083223D01*
X89601402Y-88066747D01*
X89621107Y-88052133D01*
X89642151Y-88039520D01*
X89664329Y-88029030D01*
X89687429Y-88020765D01*
X89711227Y-88014804D01*
X89735496Y-88011204D01*
X89760000Y-88010000D01*
X90510000Y-88010000D01*
X90534504Y-88011204D01*
X90534504Y-88011204D01*
G37*
D32*
G04 #@! TD*
G04 #@! TO.P,R43,2*
G04 #@! TO.N,Net-(R43-Pad2)*
X90135000Y-88885000D03*
D30*
G04 #@! TO.N,Net-(D13-Pad2)*
G04 #@! TO.C,R43*
G36*
X87734504Y-88011204D02*
X87758773Y-88014804D01*
X87782571Y-88020765D01*
X87805671Y-88029030D01*
X87827849Y-88039520D01*
X87848893Y-88052133D01*
X87868598Y-88066747D01*
X87886777Y-88083223D01*
X87903253Y-88101402D01*
X87917867Y-88121107D01*
X87930480Y-88142151D01*
X87940970Y-88164329D01*
X87949235Y-88187429D01*
X87955196Y-88211227D01*
X87958796Y-88235496D01*
X87960000Y-88260000D01*
X87960000Y-89510000D01*
X87958796Y-89534504D01*
X87955196Y-89558773D01*
X87949235Y-89582571D01*
X87940970Y-89605671D01*
X87930480Y-89627849D01*
X87917867Y-89648893D01*
X87903253Y-89668598D01*
X87886777Y-89686777D01*
X87868598Y-89703253D01*
X87848893Y-89717867D01*
X87827849Y-89730480D01*
X87805671Y-89740970D01*
X87782571Y-89749235D01*
X87758773Y-89755196D01*
X87734504Y-89758796D01*
X87710000Y-89760000D01*
X86960000Y-89760000D01*
X86935496Y-89758796D01*
X86911227Y-89755196D01*
X86887429Y-89749235D01*
X86864329Y-89740970D01*
X86842151Y-89730480D01*
X86821107Y-89717867D01*
X86801402Y-89703253D01*
X86783223Y-89686777D01*
X86766747Y-89668598D01*
X86752133Y-89648893D01*
X86739520Y-89627849D01*
X86729030Y-89605671D01*
X86720765Y-89582571D01*
X86714804Y-89558773D01*
X86711204Y-89534504D01*
X86710000Y-89510000D01*
X86710000Y-88260000D01*
X86711204Y-88235496D01*
X86714804Y-88211227D01*
X86720765Y-88187429D01*
X86729030Y-88164329D01*
X86739520Y-88142151D01*
X86752133Y-88121107D01*
X86766747Y-88101402D01*
X86783223Y-88083223D01*
X86801402Y-88066747D01*
X86821107Y-88052133D01*
X86842151Y-88039520D01*
X86864329Y-88029030D01*
X86887429Y-88020765D01*
X86911227Y-88014804D01*
X86935496Y-88011204D01*
X86960000Y-88010000D01*
X87710000Y-88010000D01*
X87734504Y-88011204D01*
X87734504Y-88011204D01*
G37*
D32*
G04 #@! TD*
G04 #@! TO.P,R43,1*
G04 #@! TO.N,Net-(D13-Pad2)*
X87335000Y-88885000D03*
D30*
G04 #@! TO.N,Net-(D16-Pad2)*
G04 #@! TO.C,R46*
G36*
X87734504Y-83566204D02*
X87758773Y-83569804D01*
X87782571Y-83575765D01*
X87805671Y-83584030D01*
X87827849Y-83594520D01*
X87848893Y-83607133D01*
X87868598Y-83621747D01*
X87886777Y-83638223D01*
X87903253Y-83656402D01*
X87917867Y-83676107D01*
X87930480Y-83697151D01*
X87940970Y-83719329D01*
X87949235Y-83742429D01*
X87955196Y-83766227D01*
X87958796Y-83790496D01*
X87960000Y-83815000D01*
X87960000Y-85065000D01*
X87958796Y-85089504D01*
X87955196Y-85113773D01*
X87949235Y-85137571D01*
X87940970Y-85160671D01*
X87930480Y-85182849D01*
X87917867Y-85203893D01*
X87903253Y-85223598D01*
X87886777Y-85241777D01*
X87868598Y-85258253D01*
X87848893Y-85272867D01*
X87827849Y-85285480D01*
X87805671Y-85295970D01*
X87782571Y-85304235D01*
X87758773Y-85310196D01*
X87734504Y-85313796D01*
X87710000Y-85315000D01*
X86960000Y-85315000D01*
X86935496Y-85313796D01*
X86911227Y-85310196D01*
X86887429Y-85304235D01*
X86864329Y-85295970D01*
X86842151Y-85285480D01*
X86821107Y-85272867D01*
X86801402Y-85258253D01*
X86783223Y-85241777D01*
X86766747Y-85223598D01*
X86752133Y-85203893D01*
X86739520Y-85182849D01*
X86729030Y-85160671D01*
X86720765Y-85137571D01*
X86714804Y-85113773D01*
X86711204Y-85089504D01*
X86710000Y-85065000D01*
X86710000Y-83815000D01*
X86711204Y-83790496D01*
X86714804Y-83766227D01*
X86720765Y-83742429D01*
X86729030Y-83719329D01*
X86739520Y-83697151D01*
X86752133Y-83676107D01*
X86766747Y-83656402D01*
X86783223Y-83638223D01*
X86801402Y-83621747D01*
X86821107Y-83607133D01*
X86842151Y-83594520D01*
X86864329Y-83584030D01*
X86887429Y-83575765D01*
X86911227Y-83569804D01*
X86935496Y-83566204D01*
X86960000Y-83565000D01*
X87710000Y-83565000D01*
X87734504Y-83566204D01*
X87734504Y-83566204D01*
G37*
D32*
G04 #@! TD*
G04 #@! TO.P,R46,1*
G04 #@! TO.N,Net-(D16-Pad2)*
X87335000Y-84440000D03*
D30*
G04 #@! TO.N,Net-(R46-Pad2)*
G04 #@! TO.C,R46*
G36*
X90534504Y-83566204D02*
X90558773Y-83569804D01*
X90582571Y-83575765D01*
X90605671Y-83584030D01*
X90627849Y-83594520D01*
X90648893Y-83607133D01*
X90668598Y-83621747D01*
X90686777Y-83638223D01*
X90703253Y-83656402D01*
X90717867Y-83676107D01*
X90730480Y-83697151D01*
X90740970Y-83719329D01*
X90749235Y-83742429D01*
X90755196Y-83766227D01*
X90758796Y-83790496D01*
X90760000Y-83815000D01*
X90760000Y-85065000D01*
X90758796Y-85089504D01*
X90755196Y-85113773D01*
X90749235Y-85137571D01*
X90740970Y-85160671D01*
X90730480Y-85182849D01*
X90717867Y-85203893D01*
X90703253Y-85223598D01*
X90686777Y-85241777D01*
X90668598Y-85258253D01*
X90648893Y-85272867D01*
X90627849Y-85285480D01*
X90605671Y-85295970D01*
X90582571Y-85304235D01*
X90558773Y-85310196D01*
X90534504Y-85313796D01*
X90510000Y-85315000D01*
X89760000Y-85315000D01*
X89735496Y-85313796D01*
X89711227Y-85310196D01*
X89687429Y-85304235D01*
X89664329Y-85295970D01*
X89642151Y-85285480D01*
X89621107Y-85272867D01*
X89601402Y-85258253D01*
X89583223Y-85241777D01*
X89566747Y-85223598D01*
X89552133Y-85203893D01*
X89539520Y-85182849D01*
X89529030Y-85160671D01*
X89520765Y-85137571D01*
X89514804Y-85113773D01*
X89511204Y-85089504D01*
X89510000Y-85065000D01*
X89510000Y-83815000D01*
X89511204Y-83790496D01*
X89514804Y-83766227D01*
X89520765Y-83742429D01*
X89529030Y-83719329D01*
X89539520Y-83697151D01*
X89552133Y-83676107D01*
X89566747Y-83656402D01*
X89583223Y-83638223D01*
X89601402Y-83621747D01*
X89621107Y-83607133D01*
X89642151Y-83594520D01*
X89664329Y-83584030D01*
X89687429Y-83575765D01*
X89711227Y-83569804D01*
X89735496Y-83566204D01*
X89760000Y-83565000D01*
X90510000Y-83565000D01*
X90534504Y-83566204D01*
X90534504Y-83566204D01*
G37*
D32*
G04 #@! TD*
G04 #@! TO.P,R46,2*
G04 #@! TO.N,Net-(R46-Pad2)*
X90135000Y-84440000D03*
D33*
G04 #@! TO.P,U3,4*
G04 #@! TO.N,GND*
X89556667Y-61457000D03*
D34*
G04 #@! TO.P,U3,1*
G04 #@! TO.N,Net-(C21-Pad1)*
X96990000Y-59167000D03*
D35*
G04 #@! TO.P,U3,2*
G04 #@! TO.N,GND*
X96990000Y-61457000D03*
G04 #@! TO.P,U3,3*
G04 #@! TO.N,+5V*
X96990000Y-63747000D03*
G04 #@! TD*
D30*
G04 #@! TO.N,GND*
G04 #@! TO.C,D13*
G36*
X83811603Y-88485963D02*
X83831018Y-88488843D01*
X83850057Y-88493612D01*
X83868537Y-88500224D01*
X83886279Y-88508616D01*
X83903114Y-88518706D01*
X83918879Y-88530398D01*
X83933421Y-88543579D01*
X83946602Y-88558121D01*
X83958294Y-88573886D01*
X83968384Y-88590721D01*
X83976776Y-88608463D01*
X83983388Y-88626943D01*
X83988157Y-88645982D01*
X83991037Y-88665397D01*
X83992000Y-88685000D01*
X83992000Y-89085000D01*
X83991037Y-89104603D01*
X83988157Y-89124018D01*
X83983388Y-89143057D01*
X83976776Y-89161537D01*
X83968384Y-89179279D01*
X83958294Y-89196114D01*
X83946602Y-89211879D01*
X83933421Y-89226421D01*
X83918879Y-89239602D01*
X83903114Y-89251294D01*
X83886279Y-89261384D01*
X83868537Y-89269776D01*
X83850057Y-89276388D01*
X83831018Y-89281157D01*
X83811603Y-89284037D01*
X83792000Y-89285000D01*
X83392000Y-89285000D01*
X83372397Y-89284037D01*
X83352982Y-89281157D01*
X83333943Y-89276388D01*
X83315463Y-89269776D01*
X83297721Y-89261384D01*
X83280886Y-89251294D01*
X83265121Y-89239602D01*
X83250579Y-89226421D01*
X83237398Y-89211879D01*
X83225706Y-89196114D01*
X83215616Y-89179279D01*
X83207224Y-89161537D01*
X83200612Y-89143057D01*
X83195843Y-89124018D01*
X83192963Y-89104603D01*
X83192000Y-89085000D01*
X83192000Y-88685000D01*
X83192963Y-88665397D01*
X83195843Y-88645982D01*
X83200612Y-88626943D01*
X83207224Y-88608463D01*
X83215616Y-88590721D01*
X83225706Y-88573886D01*
X83237398Y-88558121D01*
X83250579Y-88543579D01*
X83265121Y-88530398D01*
X83280886Y-88518706D01*
X83297721Y-88508616D01*
X83315463Y-88500224D01*
X83333943Y-88493612D01*
X83352982Y-88488843D01*
X83372397Y-88485963D01*
X83392000Y-88485000D01*
X83792000Y-88485000D01*
X83811603Y-88485963D01*
X83811603Y-88485963D01*
G37*
D36*
G04 #@! TD*
G04 #@! TO.P,D13,1*
G04 #@! TO.N,GND*
X83592000Y-88885000D03*
D30*
G04 #@! TO.N,Net-(D13-Pad2)*
G04 #@! TO.C,D13*
G36*
X85461603Y-88485963D02*
X85481018Y-88488843D01*
X85500057Y-88493612D01*
X85518537Y-88500224D01*
X85536279Y-88508616D01*
X85553114Y-88518706D01*
X85568879Y-88530398D01*
X85583421Y-88543579D01*
X85596602Y-88558121D01*
X85608294Y-88573886D01*
X85618384Y-88590721D01*
X85626776Y-88608463D01*
X85633388Y-88626943D01*
X85638157Y-88645982D01*
X85641037Y-88665397D01*
X85642000Y-88685000D01*
X85642000Y-89085000D01*
X85641037Y-89104603D01*
X85638157Y-89124018D01*
X85633388Y-89143057D01*
X85626776Y-89161537D01*
X85618384Y-89179279D01*
X85608294Y-89196114D01*
X85596602Y-89211879D01*
X85583421Y-89226421D01*
X85568879Y-89239602D01*
X85553114Y-89251294D01*
X85536279Y-89261384D01*
X85518537Y-89269776D01*
X85500057Y-89276388D01*
X85481018Y-89281157D01*
X85461603Y-89284037D01*
X85442000Y-89285000D01*
X85042000Y-89285000D01*
X85022397Y-89284037D01*
X85002982Y-89281157D01*
X84983943Y-89276388D01*
X84965463Y-89269776D01*
X84947721Y-89261384D01*
X84930886Y-89251294D01*
X84915121Y-89239602D01*
X84900579Y-89226421D01*
X84887398Y-89211879D01*
X84875706Y-89196114D01*
X84865616Y-89179279D01*
X84857224Y-89161537D01*
X84850612Y-89143057D01*
X84845843Y-89124018D01*
X84842963Y-89104603D01*
X84842000Y-89085000D01*
X84842000Y-88685000D01*
X84842963Y-88665397D01*
X84845843Y-88645982D01*
X84850612Y-88626943D01*
X84857224Y-88608463D01*
X84865616Y-88590721D01*
X84875706Y-88573886D01*
X84887398Y-88558121D01*
X84900579Y-88543579D01*
X84915121Y-88530398D01*
X84930886Y-88518706D01*
X84947721Y-88508616D01*
X84965463Y-88500224D01*
X84983943Y-88493612D01*
X85002982Y-88488843D01*
X85022397Y-88485963D01*
X85042000Y-88485000D01*
X85442000Y-88485000D01*
X85461603Y-88485963D01*
X85461603Y-88485963D01*
G37*
D36*
G04 #@! TD*
G04 #@! TO.P,D13,2*
G04 #@! TO.N,Net-(D13-Pad2)*
X85242000Y-88885000D03*
D30*
G04 #@! TO.N,Net-(D16-Pad2)*
G04 #@! TO.C,D16*
G36*
X85461603Y-84040963D02*
X85481018Y-84043843D01*
X85500057Y-84048612D01*
X85518537Y-84055224D01*
X85536279Y-84063616D01*
X85553114Y-84073706D01*
X85568879Y-84085398D01*
X85583421Y-84098579D01*
X85596602Y-84113121D01*
X85608294Y-84128886D01*
X85618384Y-84145721D01*
X85626776Y-84163463D01*
X85633388Y-84181943D01*
X85638157Y-84200982D01*
X85641037Y-84220397D01*
X85642000Y-84240000D01*
X85642000Y-84640000D01*
X85641037Y-84659603D01*
X85638157Y-84679018D01*
X85633388Y-84698057D01*
X85626776Y-84716537D01*
X85618384Y-84734279D01*
X85608294Y-84751114D01*
X85596602Y-84766879D01*
X85583421Y-84781421D01*
X85568879Y-84794602D01*
X85553114Y-84806294D01*
X85536279Y-84816384D01*
X85518537Y-84824776D01*
X85500057Y-84831388D01*
X85481018Y-84836157D01*
X85461603Y-84839037D01*
X85442000Y-84840000D01*
X85042000Y-84840000D01*
X85022397Y-84839037D01*
X85002982Y-84836157D01*
X84983943Y-84831388D01*
X84965463Y-84824776D01*
X84947721Y-84816384D01*
X84930886Y-84806294D01*
X84915121Y-84794602D01*
X84900579Y-84781421D01*
X84887398Y-84766879D01*
X84875706Y-84751114D01*
X84865616Y-84734279D01*
X84857224Y-84716537D01*
X84850612Y-84698057D01*
X84845843Y-84679018D01*
X84842963Y-84659603D01*
X84842000Y-84640000D01*
X84842000Y-84240000D01*
X84842963Y-84220397D01*
X84845843Y-84200982D01*
X84850612Y-84181943D01*
X84857224Y-84163463D01*
X84865616Y-84145721D01*
X84875706Y-84128886D01*
X84887398Y-84113121D01*
X84900579Y-84098579D01*
X84915121Y-84085398D01*
X84930886Y-84073706D01*
X84947721Y-84063616D01*
X84965463Y-84055224D01*
X84983943Y-84048612D01*
X85002982Y-84043843D01*
X85022397Y-84040963D01*
X85042000Y-84040000D01*
X85442000Y-84040000D01*
X85461603Y-84040963D01*
X85461603Y-84040963D01*
G37*
D36*
G04 #@! TD*
G04 #@! TO.P,D16,2*
G04 #@! TO.N,Net-(D16-Pad2)*
X85242000Y-84440000D03*
D30*
G04 #@! TO.N,GND*
G04 #@! TO.C,D16*
G36*
X83811603Y-84040963D02*
X83831018Y-84043843D01*
X83850057Y-84048612D01*
X83868537Y-84055224D01*
X83886279Y-84063616D01*
X83903114Y-84073706D01*
X83918879Y-84085398D01*
X83933421Y-84098579D01*
X83946602Y-84113121D01*
X83958294Y-84128886D01*
X83968384Y-84145721D01*
X83976776Y-84163463D01*
X83983388Y-84181943D01*
X83988157Y-84200982D01*
X83991037Y-84220397D01*
X83992000Y-84240000D01*
X83992000Y-84640000D01*
X83991037Y-84659603D01*
X83988157Y-84679018D01*
X83983388Y-84698057D01*
X83976776Y-84716537D01*
X83968384Y-84734279D01*
X83958294Y-84751114D01*
X83946602Y-84766879D01*
X83933421Y-84781421D01*
X83918879Y-84794602D01*
X83903114Y-84806294D01*
X83886279Y-84816384D01*
X83868537Y-84824776D01*
X83850057Y-84831388D01*
X83831018Y-84836157D01*
X83811603Y-84839037D01*
X83792000Y-84840000D01*
X83392000Y-84840000D01*
X83372397Y-84839037D01*
X83352982Y-84836157D01*
X83333943Y-84831388D01*
X83315463Y-84824776D01*
X83297721Y-84816384D01*
X83280886Y-84806294D01*
X83265121Y-84794602D01*
X83250579Y-84781421D01*
X83237398Y-84766879D01*
X83225706Y-84751114D01*
X83215616Y-84734279D01*
X83207224Y-84716537D01*
X83200612Y-84698057D01*
X83195843Y-84679018D01*
X83192963Y-84659603D01*
X83192000Y-84640000D01*
X83192000Y-84240000D01*
X83192963Y-84220397D01*
X83195843Y-84200982D01*
X83200612Y-84181943D01*
X83207224Y-84163463D01*
X83215616Y-84145721D01*
X83225706Y-84128886D01*
X83237398Y-84113121D01*
X83250579Y-84098579D01*
X83265121Y-84085398D01*
X83280886Y-84073706D01*
X83297721Y-84063616D01*
X83315463Y-84055224D01*
X83333943Y-84048612D01*
X83352982Y-84043843D01*
X83372397Y-84040963D01*
X83392000Y-84040000D01*
X83792000Y-84040000D01*
X83811603Y-84040963D01*
X83811603Y-84040963D01*
G37*
D36*
G04 #@! TD*
G04 #@! TO.P,D16,1*
G04 #@! TO.N,GND*
X83592000Y-84440000D03*
D37*
G04 #@! TO.N,GND*
X137630000Y-72883000D03*
X143980000Y-72883000D03*
X134455000Y-72883000D03*
D38*
X63970000Y-82662000D03*
D37*
X67780000Y-81232000D03*
X94450000Y-69835000D03*
X89641780Y-75897980D03*
X108420000Y-88885000D03*
X113500000Y-88885000D03*
X117945000Y-66787000D03*
X117183002Y-99172000D03*
X108801004Y-101585000D03*
X88481000Y-95743000D03*
X71463000Y-92441000D03*
D38*
X63970000Y-80122000D03*
D37*
X79718000Y-76327011D03*
X82385000Y-93584000D03*
X98580000Y-86329998D03*
X109944000Y-96505000D03*
D39*
X150330000Y-93330000D03*
X141440000Y-93330000D03*
X133185000Y-93330000D03*
X126200000Y-93330000D03*
X126200000Y-109840000D03*
X133185000Y-109840000D03*
X141440000Y-109840000D03*
X150330000Y-109840000D03*
X126200000Y-101585000D03*
X133185000Y-101585000D03*
X141440000Y-101585000D03*
X150330000Y-101585000D03*
D37*
X73487960Y-74534000D03*
X106134000Y-109466000D03*
X78575000Y-81740000D03*
X86576000Y-86218000D03*
X93434000Y-101585000D03*
X91529000Y-109205000D03*
X149695000Y-67295000D03*
X69177000Y-93457000D03*
G04 #@! TO.N,+5V*
X143979994Y-69962006D03*
X140170000Y-69962000D03*
X132931004Y-69962000D03*
D39*
G04 #@! TO.N,PWM2*
X120866000Y-113142000D03*
D37*
G04 #@! TO.N,BMF*
X100165000Y-104633000D03*
X100165000Y-97140000D03*
G04 #@! TO.N,OCC*
X113881000Y-101585000D03*
X99784000Y-83805010D03*
X99784000Y-79995000D03*
X99784006Y-93457000D03*
G04 #@! TO.N,ID*
X80353000Y-73645000D03*
X76543000Y-74534000D03*
X68542000Y-75550000D03*
X93815000Y-76439000D03*
G04 #@! TO.N,RST*
X111087000Y-74915000D03*
X97625000Y-74915000D03*
G04 #@! TO.N,Net-(R8-Pad1)*
X84925000Y-76439000D03*
X68542000Y-76947000D03*
G04 #@! TO.N,TX_ENA*
X91275000Y-93711000D03*
X72225000Y-93711000D03*
G04 #@! TO.N,CSEN*
X120358000Y-92695000D03*
X116040000Y-88885000D03*
D38*
G04 #@! TO.N,Reset_B*
X61811000Y-78344000D03*
D37*
G04 #@! TO.N,SYNC*
X79845000Y-86088970D03*
X79845000Y-80630000D03*
D38*
G04 #@! TO.N,TX_A*
X61811000Y-88758000D03*
D37*
G04 #@! TO.N,TX*
X73495000Y-94092000D03*
X84925022Y-93965000D03*
D38*
G04 #@! TO.N,RX_A*
X61811000Y-86599000D03*
D37*
G04 #@! TO.N,TEMP*
X103721000Y-90155000D03*
X112738000Y-96505000D03*
G04 #@! TO.N,VREF*
X95593000Y-113142000D03*
X92418000Y-87996000D03*
G04 #@! TO.N,Net-(C6-Pad1)*
X119662000Y-68311000D03*
G04 #@! TO.N,Vlm*
X98490522Y-83777298D03*
X108293000Y-75931000D03*
G04 #@! TO.N,THFLG*
X103721000Y-95743000D03*
X98641000Y-90663006D03*
G04 #@! TO.N,Net-(R16-Pad1)*
X87465000Y-109586000D03*
G04 #@! TO.N,Net-(R21-Pad2)*
X87465000Y-108316000D03*
G04 #@! TO.N,Net-(R43-Pad2)*
X93815000Y-88885000D03*
G04 #@! TO.N,Net-(R46-Pad2)*
X93817521Y-85072479D03*
G04 #@! TD*
D40*
G04 #@! TO.N,GND*
X142235000Y-85075000D02*
X142235000Y-87615000D01*
D41*
X142202000Y-85042000D02*
X142235000Y-85075000D01*
D42*
X134455000Y-72883000D02*
X137630000Y-72883000D01*
X137630000Y-72883000D02*
X143980000Y-72883000D01*
D40*
X144107000Y-85075000D02*
X144234000Y-84948000D01*
X142235000Y-85075000D02*
X144107000Y-85075000D01*
D43*
X135620000Y-76036000D02*
X135620000Y-78060000D01*
X149441000Y-84948000D02*
X151600000Y-82789000D01*
X151600000Y-82789000D02*
X151600000Y-76058000D01*
X151600000Y-76058000D02*
X150457000Y-74915000D01*
X150457000Y-74915000D02*
X136741000Y-74915000D01*
X136741000Y-74915000D02*
X135620000Y-76036000D01*
D40*
X144488000Y-86726000D02*
X146266000Y-84948000D01*
X144234000Y-86726000D02*
X144488000Y-86726000D01*
D43*
X146266000Y-84948000D02*
X149441000Y-84948000D01*
X144234000Y-84948000D02*
X146266000Y-84948000D01*
X144234000Y-86726000D02*
X144234000Y-84948000D01*
D40*
X144234000Y-90282000D02*
X144361000Y-90282000D01*
D43*
X144234000Y-90282000D02*
X144234000Y-86726000D01*
X144234000Y-92822000D02*
X144234000Y-90282000D01*
D40*
X144361000Y-90282000D02*
X146393000Y-92314000D01*
X141440000Y-92949000D02*
X141440000Y-93330000D01*
X144361000Y-90282000D02*
X144107000Y-90282000D01*
X144107000Y-90282000D02*
X141440000Y-92949000D01*
D42*
X148425000Y-67295000D02*
X149695000Y-67295000D01*
X143980000Y-72883000D02*
X143980000Y-71740000D01*
X143980000Y-71740000D02*
X148425000Y-67295000D01*
G04 #@! TO.N,+5V*
X143979994Y-69962006D02*
X140170006Y-69962006D01*
X140170006Y-69962006D02*
X140170000Y-69962000D01*
X139462894Y-69962000D02*
X132931004Y-69962000D01*
X140170000Y-69962000D02*
X139462894Y-69962000D01*
D40*
G04 #@! TO.N,OCC1*
X143820000Y-80900000D02*
X144120000Y-80600000D01*
X144310000Y-80790000D02*
X144120000Y-80600000D01*
X149060000Y-80790000D02*
X144310000Y-80790000D01*
G04 #@! TO.N,Net-(C17-Pad1)*
X145950000Y-77930000D02*
X145820000Y-78060000D01*
X149060000Y-77930000D02*
X145950000Y-77930000D01*
G04 #@! TO.N,PWM2*
X131440000Y-81520000D02*
X130520000Y-80600000D01*
X131440000Y-85075000D02*
X131440000Y-81520000D01*
D43*
X81626200Y-102343800D02*
X84544000Y-102343800D01*
X120866000Y-116444000D02*
X119088000Y-118222000D01*
X120866000Y-113142000D02*
X120866000Y-116444000D01*
X119088000Y-118222000D02*
X81750000Y-118222000D01*
X81750000Y-118222000D02*
X79718000Y-116190000D01*
X79718000Y-116190000D02*
X79718000Y-104252000D01*
X79718000Y-104252000D02*
X81626200Y-102343800D01*
D42*
X84544000Y-105936000D02*
X84638000Y-106030000D01*
X84544000Y-102343800D02*
X84544000Y-105936000D01*
D40*
G04 #@! TO.N,Net-(C18-Pad2)*
X128580000Y-78300000D02*
X128820000Y-78060000D01*
X128580000Y-85075000D02*
X128580000Y-78300000D01*
D42*
G04 #@! TO.N,BMF*
X100165000Y-104633000D02*
X100165000Y-97140000D01*
G04 #@! TO.N,OCC*
X99784000Y-83805010D02*
X99784000Y-79995000D01*
X113881000Y-101585000D02*
X111341000Y-99045000D01*
X111341000Y-99045000D02*
X105372006Y-99045000D01*
X100284005Y-93956999D02*
X99784006Y-93457000D01*
X105372006Y-99045000D02*
X100284005Y-93956999D01*
G04 #@! TO.N,ID*
X69249106Y-75550000D02*
X68542000Y-75550000D01*
X69630106Y-75931000D02*
X69249106Y-75550000D01*
X76543000Y-74534000D02*
X75146000Y-75931000D01*
X75146000Y-75931000D02*
X69630106Y-75931000D01*
X93315001Y-75939001D02*
X93815000Y-76439000D01*
X80353000Y-73645000D02*
X91021000Y-73645000D01*
X91021000Y-73645000D02*
X93315001Y-75939001D01*
G04 #@! TO.N,RST*
X111087000Y-74915000D02*
X97625000Y-74915000D01*
G04 #@! TO.N,OCC2*
X84544000Y-111712000D02*
X84638000Y-111618000D01*
X84544000Y-114843800D02*
X84544000Y-111712000D01*
G04 #@! TO.N,Net-(R8-Pad1)*
X69249106Y-76947000D02*
X68542000Y-76947000D01*
X76035000Y-76947000D02*
X69249106Y-76947000D01*
X78067000Y-74915000D02*
X76035000Y-76947000D01*
X84925000Y-76439000D02*
X83401000Y-74915000D01*
X83401000Y-74915000D02*
X78067000Y-74915000D01*
G04 #@! TO.N,TX_ENA*
X72225000Y-94418106D02*
X72225000Y-93711000D01*
X72225000Y-94727000D02*
X72225000Y-94418106D01*
X74765000Y-97267000D02*
X72225000Y-94727000D01*
X90640000Y-97267000D02*
X74765000Y-97267000D01*
X91275000Y-93711000D02*
X91275000Y-96632000D01*
X91275000Y-96632000D02*
X90640000Y-97267000D01*
G04 #@! TO.N,CSEN*
X120358000Y-92695000D02*
X116548000Y-88885000D01*
X116548000Y-88885000D02*
X116040000Y-88885000D01*
G04 #@! TO.N,Reset_B*
X61811000Y-78729000D02*
X61811000Y-78344000D01*
X59800000Y-80540000D02*
X60000000Y-80540000D01*
X60000000Y-80540000D02*
X61811000Y-78729000D01*
G04 #@! TO.N,SYNC*
X79845000Y-86088970D02*
X79845000Y-80630000D01*
G04 #@! TO.N,TX_A*
X61811000Y-88123000D02*
X61811000Y-88758000D01*
X56960000Y-87465000D02*
X61153000Y-87465000D01*
X61153000Y-87465000D02*
X61811000Y-88123000D01*
G04 #@! TO.N,TX*
X84425023Y-94464999D02*
X84925022Y-93965000D01*
X83274022Y-95616000D02*
X84425023Y-94464999D01*
X73495000Y-94092000D02*
X75019000Y-95616000D01*
X75019000Y-95616000D02*
X83274022Y-95616000D01*
G04 #@! TO.N,RX_A*
X61811000Y-86174736D02*
X61811000Y-86599000D01*
X61811000Y-85202000D02*
X61811000Y-86174736D01*
X56960000Y-84695000D02*
X61304000Y-84695000D01*
X61304000Y-84695000D02*
X61811000Y-85202000D01*
D43*
G04 #@! TO.N,Vbus_flt*
X120526500Y-55230000D02*
X120780500Y-54976000D01*
D40*
X84605000Y-55230000D02*
X120526500Y-55230000D01*
D43*
G04 #@! TO.N,GNDD*
X60527000Y-101345000D02*
X59500000Y-101345000D01*
X62319000Y-99553000D02*
X60527000Y-101345000D01*
X62319000Y-92441000D02*
X62319000Y-99553000D01*
X59800000Y-91620000D02*
X61498000Y-91620000D01*
X61498000Y-91620000D02*
X62319000Y-92441000D01*
X59815000Y-67730000D02*
X59500000Y-68045000D01*
D40*
X64605000Y-67730000D02*
X64605000Y-67803000D01*
D43*
X64290000Y-68045000D02*
X64605000Y-67730000D01*
X59500000Y-68045000D02*
X64290000Y-68045000D01*
X59800000Y-68345000D02*
X59500000Y-68045000D01*
X59800000Y-75000000D02*
X59800000Y-68345000D01*
D42*
G04 #@! TO.N,TEMP*
X103721000Y-90155000D02*
X106388000Y-90155000D01*
X112238001Y-96005001D02*
X112738000Y-96505000D01*
X106388000Y-90155000D02*
X112238001Y-96005001D01*
G04 #@! TO.N,VREF*
X95593000Y-113142000D02*
X95593000Y-92060001D01*
X92418000Y-88885001D02*
X92418000Y-88703106D01*
X92418000Y-88703106D02*
X92418000Y-87996000D01*
X95593000Y-92060001D02*
X92418000Y-88885001D01*
D40*
G04 #@! TO.N,Net-(C6-Pad1)*
X138740000Y-85075000D02*
X137320000Y-85075000D01*
D43*
X137320000Y-85075000D02*
X137320000Y-80600000D01*
D40*
X137765000Y-87615000D02*
X137320000Y-87615000D01*
D43*
X137320000Y-87615000D02*
X137320000Y-85075000D01*
D42*
X139375000Y-85075000D02*
X137320000Y-85075000D01*
D43*
X137320000Y-88560000D02*
X137320000Y-87615000D01*
X127470000Y-73010000D02*
X125565000Y-74915000D01*
X125565000Y-74915000D02*
X125565000Y-88377000D01*
X125565000Y-88377000D02*
X127343000Y-90155000D01*
X127343000Y-90155000D02*
X135725000Y-90155000D01*
X135725000Y-90155000D02*
X137320000Y-88560000D01*
D40*
X139375000Y-85075000D02*
X139375000Y-87615000D01*
D43*
X127470000Y-55017500D02*
X127428500Y-54976000D01*
D40*
X127470000Y-62977000D02*
X127470000Y-55017500D01*
D42*
X127343000Y-68311000D02*
X127470000Y-68184000D01*
X119662000Y-68311000D02*
X127343000Y-68311000D01*
D43*
X127470000Y-63485000D02*
X127470000Y-68184000D01*
X127470000Y-68184000D02*
X127470000Y-73010000D01*
D42*
G04 #@! TO.N,Vlm*
X107585894Y-75931000D02*
X108293000Y-75931000D01*
X98490522Y-77732478D02*
X100292000Y-75931000D01*
X100292000Y-75931000D02*
X107585894Y-75931000D01*
X98490522Y-83777298D02*
X98490522Y-77732478D01*
G04 #@! TO.N,THFLG*
X98641006Y-90663006D02*
X98641000Y-90663006D01*
X103721000Y-95743000D02*
X98641006Y-90663006D01*
G04 #@! TO.N,Net-(D13-Pad2)*
X87335000Y-88885000D02*
X85204500Y-88885000D01*
G04 #@! TO.N,Net-(D16-Pad2)*
X87335000Y-84440000D02*
X85204500Y-84440000D01*
G04 #@! TO.N,Net-(R16-Pad1)*
X87498000Y-111618000D02*
X89621000Y-111618000D01*
D44*
X87465000Y-111585000D02*
X87498000Y-111618000D01*
X87465000Y-109586000D02*
X87465000Y-111585000D01*
D42*
G04 #@! TO.N,Net-(R21-Pad2)*
X87498000Y-106030000D02*
X89591000Y-106030000D01*
D44*
X87465000Y-106063000D02*
X87498000Y-106030000D01*
X87465000Y-108316000D02*
X87465000Y-106063000D01*
D42*
G04 #@! TO.N,Net-(R43-Pad2)*
X90135000Y-88885000D02*
X90135000Y-87612000D01*
X90135000Y-87612000D02*
X91148000Y-86599000D01*
X91148000Y-86599000D02*
X93053000Y-86599000D01*
X93815000Y-87361000D02*
X93815000Y-88885000D01*
X93053000Y-86599000D02*
X93815000Y-87361000D01*
G04 #@! TO.N,Net-(R46-Pad2)*
X93185042Y-84440000D02*
X93817521Y-85072479D01*
X90135000Y-84440000D02*
X93185042Y-84440000D01*
G04 #@! TD*
D45*
G04 #@! TO.N,GND*
G36*
X154293600Y-52831691D02*
X154293601Y-118816908D01*
X153820509Y-119290000D01*
X120340782Y-119290000D01*
X120357988Y-119264250D01*
X121908252Y-117713986D01*
X122044769Y-117622769D01*
X122236470Y-117335868D01*
X122406136Y-117081946D01*
X122533031Y-116444000D01*
X122501000Y-116282969D01*
X122501000Y-112816778D01*
X122438167Y-112665086D01*
X122406136Y-112504055D01*
X122314919Y-112367539D01*
X122252086Y-112215847D01*
X122135986Y-112099747D01*
X122044769Y-111963231D01*
X121908253Y-111872014D01*
X121792153Y-111755914D01*
X121640459Y-111693080D01*
X121503944Y-111601864D01*
X121342915Y-111569833D01*
X121258821Y-111535000D01*
X134929286Y-111535000D01*
X134929286Y-117905000D01*
X153070715Y-117905000D01*
X153070715Y-111535000D01*
X134929286Y-111535000D01*
X121258821Y-111535000D01*
X121191222Y-111507000D01*
X121027031Y-111507000D01*
X120866000Y-111474969D01*
X120704969Y-111507000D01*
X120540778Y-111507000D01*
X120389086Y-111569833D01*
X120228055Y-111601864D01*
X120091539Y-111693081D01*
X119939847Y-111755914D01*
X119823747Y-111872014D01*
X119687231Y-111963231D01*
X119596014Y-112099747D01*
X119479914Y-112215847D01*
X119417080Y-112367541D01*
X119325864Y-112504056D01*
X119293833Y-112665085D01*
X119231000Y-112816778D01*
X119231000Y-112980970D01*
X119231001Y-115766761D01*
X118410762Y-116587000D01*
X90894000Y-116587000D01*
X90894000Y-111903750D01*
X91161000Y-111903750D01*
X91161000Y-112619310D01*
X91257673Y-112852699D01*
X91436302Y-113031327D01*
X91669691Y-113128000D01*
X92135250Y-113128000D01*
X92294000Y-112969250D01*
X92294000Y-111745000D01*
X92548000Y-111745000D01*
X92548000Y-112969250D01*
X92706750Y-113128000D01*
X93172309Y-113128000D01*
X93405698Y-113031327D01*
X93584327Y-112852699D01*
X93681000Y-112619310D01*
X93681000Y-111903750D01*
X93522250Y-111745000D01*
X92548000Y-111745000D01*
X92294000Y-111745000D01*
X91319750Y-111745000D01*
X91161000Y-111903750D01*
X90894000Y-111903750D01*
X90894000Y-110616690D01*
X91161000Y-110616690D01*
X91161000Y-111332250D01*
X91319750Y-111491000D01*
X92294000Y-111491000D01*
X92294000Y-110266750D01*
X92548000Y-110266750D01*
X92548000Y-111491000D01*
X93522250Y-111491000D01*
X93681000Y-111332250D01*
X93681000Y-110616690D01*
X93584327Y-110383301D01*
X93405698Y-110204673D01*
X93172309Y-110108000D01*
X92706750Y-110108000D01*
X92548000Y-110266750D01*
X92294000Y-110266750D01*
X92135250Y-110108000D01*
X91669691Y-110108000D01*
X91436302Y-110204673D01*
X91257673Y-110383301D01*
X91161000Y-110616690D01*
X90894000Y-110616690D01*
X90894000Y-106315750D01*
X91206000Y-106315750D01*
X91206000Y-107056310D01*
X91302673Y-107289699D01*
X91481302Y-107468327D01*
X91714691Y-107565000D01*
X92165250Y-107565000D01*
X92324000Y-107406250D01*
X92324000Y-106157000D01*
X92578000Y-106157000D01*
X92578000Y-107406250D01*
X92736750Y-107565000D01*
X93187309Y-107565000D01*
X93420698Y-107468327D01*
X93599327Y-107289699D01*
X93696000Y-107056310D01*
X93696000Y-106315750D01*
X93537250Y-106157000D01*
X92578000Y-106157000D01*
X92324000Y-106157000D01*
X91364750Y-106157000D01*
X91206000Y-106315750D01*
X90894000Y-106315750D01*
X90894000Y-105003690D01*
X91206000Y-105003690D01*
X91206000Y-105744250D01*
X91364750Y-105903000D01*
X92324000Y-105903000D01*
X92324000Y-104653750D01*
X92578000Y-104653750D01*
X92578000Y-105903000D01*
X93537250Y-105903000D01*
X93696000Y-105744250D01*
X93696000Y-105003690D01*
X93599327Y-104770301D01*
X93420698Y-104591673D01*
X93187309Y-104495000D01*
X92736750Y-104495000D01*
X92578000Y-104653750D01*
X92324000Y-104653750D01*
X92165250Y-104495000D01*
X91714691Y-104495000D01*
X91481302Y-104591673D01*
X91302673Y-104770301D01*
X91206000Y-105003690D01*
X90894000Y-105003690D01*
X90894000Y-98118815D01*
X90985310Y-98100652D01*
X91278049Y-97905049D01*
X91327425Y-97831154D01*
X91839156Y-97319423D01*
X91913049Y-97270049D01*
X91985820Y-97161141D01*
X92108652Y-96977310D01*
X92119715Y-96921690D01*
X92160000Y-96719165D01*
X92160000Y-96719161D01*
X92177337Y-96632000D01*
X92160000Y-96544839D01*
X92160000Y-94431133D01*
X92237207Y-94353926D01*
X92410000Y-93936766D01*
X92410000Y-93485234D01*
X92237207Y-93068074D01*
X91917926Y-92748793D01*
X91500766Y-92576000D01*
X91049234Y-92576000D01*
X90632074Y-92748793D01*
X90312793Y-93068074D01*
X90140000Y-93485234D01*
X90140000Y-93936766D01*
X90312793Y-94353926D01*
X90390000Y-94431133D01*
X90390001Y-96265421D01*
X90273422Y-96382000D01*
X83720580Y-96382000D01*
X83912071Y-96254049D01*
X83961447Y-96180153D01*
X85041601Y-95100000D01*
X85150788Y-95100000D01*
X85567948Y-94927207D01*
X85887229Y-94607926D01*
X86060022Y-94190766D01*
X86060022Y-93739234D01*
X85887229Y-93322074D01*
X85567948Y-93002793D01*
X85150788Y-92830000D01*
X84699256Y-92830000D01*
X84282096Y-93002793D01*
X83962815Y-93322074D01*
X83790022Y-93739234D01*
X83790022Y-93848421D01*
X82907444Y-94731000D01*
X75385579Y-94731000D01*
X74630000Y-93975422D01*
X74630000Y-93866234D01*
X74457207Y-93449074D01*
X74137926Y-93129793D01*
X73720766Y-92957000D01*
X73269234Y-92957000D01*
X73132691Y-93013558D01*
X72867926Y-92748793D01*
X72450766Y-92576000D01*
X71999234Y-92576000D01*
X71582074Y-92748793D01*
X71262793Y-93068074D01*
X71090000Y-93485234D01*
X71090000Y-93936766D01*
X71262793Y-94353926D01*
X71340000Y-94431133D01*
X71340000Y-94639839D01*
X71322663Y-94727000D01*
X71340000Y-94814161D01*
X71340000Y-94814164D01*
X71391348Y-95072309D01*
X71586951Y-95365049D01*
X71660847Y-95414425D01*
X73267973Y-97021552D01*
X65367000Y-97014008D01*
X65367000Y-89266000D01*
X65357333Y-89217399D01*
X65329803Y-89176197D01*
X65321651Y-89170750D01*
X82557000Y-89170750D01*
X82557000Y-89411310D01*
X82653673Y-89644699D01*
X82832302Y-89823327D01*
X83065691Y-89920000D01*
X83306250Y-89920000D01*
X83465000Y-89761250D01*
X83465000Y-89012000D01*
X82715750Y-89012000D01*
X82557000Y-89170750D01*
X65321651Y-89170750D01*
X65288601Y-89148667D01*
X65239007Y-89139004D01*
X63462000Y-89152893D01*
X63462000Y-88358690D01*
X82557000Y-88358690D01*
X82557000Y-88599250D01*
X82715750Y-88758000D01*
X83465000Y-88758000D01*
X83465000Y-88008750D01*
X83719000Y-88008750D01*
X83719000Y-88758000D01*
X83739000Y-88758000D01*
X83739000Y-89012000D01*
X83719000Y-89012000D01*
X83719000Y-89761250D01*
X83877750Y-89920000D01*
X84118309Y-89920000D01*
X84351698Y-89823327D01*
X84471558Y-89703467D01*
X84717699Y-89867932D01*
X85042000Y-89932440D01*
X85442000Y-89932440D01*
X85766301Y-89867932D01*
X85912868Y-89770000D01*
X86114278Y-89770000D01*
X86130874Y-89853435D01*
X86325414Y-90144586D01*
X86616565Y-90339126D01*
X86960000Y-90407440D01*
X87710000Y-90407440D01*
X88053435Y-90339126D01*
X88344586Y-90144586D01*
X88539126Y-89853435D01*
X88607440Y-89510000D01*
X88607440Y-88260000D01*
X88539126Y-87916565D01*
X88344586Y-87625414D01*
X88053435Y-87430874D01*
X87710000Y-87362560D01*
X86960000Y-87362560D01*
X86616565Y-87430874D01*
X86325414Y-87625414D01*
X86130874Y-87916565D01*
X86114278Y-88000000D01*
X85912868Y-88000000D01*
X85766301Y-87902068D01*
X85442000Y-87837560D01*
X85042000Y-87837560D01*
X84717699Y-87902068D01*
X84471558Y-88066533D01*
X84351698Y-87946673D01*
X84118309Y-87850000D01*
X83877750Y-87850000D01*
X83719000Y-88008750D01*
X83465000Y-88008750D01*
X83306250Y-87850000D01*
X83065691Y-87850000D01*
X82832302Y-87946673D01*
X82653673Y-88125301D01*
X82557000Y-88358690D01*
X63462000Y-88358690D01*
X63462000Y-80404234D01*
X78710000Y-80404234D01*
X78710000Y-80855766D01*
X78882793Y-81272926D01*
X78960001Y-81350134D01*
X78960000Y-85368837D01*
X78882793Y-85446044D01*
X78710000Y-85863204D01*
X78710000Y-86314736D01*
X78882793Y-86731896D01*
X79202074Y-87051177D01*
X79619234Y-87223970D01*
X80070766Y-87223970D01*
X80487926Y-87051177D01*
X80807207Y-86731896D01*
X80980000Y-86314736D01*
X80980000Y-85863204D01*
X80807207Y-85446044D01*
X80730000Y-85368837D01*
X80730000Y-84725750D01*
X82557000Y-84725750D01*
X82557000Y-84966310D01*
X82653673Y-85199699D01*
X82832302Y-85378327D01*
X83065691Y-85475000D01*
X83306250Y-85475000D01*
X83465000Y-85316250D01*
X83465000Y-84567000D01*
X82715750Y-84567000D01*
X82557000Y-84725750D01*
X80730000Y-84725750D01*
X80730000Y-83913690D01*
X82557000Y-83913690D01*
X82557000Y-84154250D01*
X82715750Y-84313000D01*
X83465000Y-84313000D01*
X83465000Y-83563750D01*
X83719000Y-83563750D01*
X83719000Y-84313000D01*
X83739000Y-84313000D01*
X83739000Y-84567000D01*
X83719000Y-84567000D01*
X83719000Y-85316250D01*
X83877750Y-85475000D01*
X84118309Y-85475000D01*
X84351698Y-85378327D01*
X84471558Y-85258467D01*
X84717699Y-85422932D01*
X85042000Y-85487440D01*
X85442000Y-85487440D01*
X85766301Y-85422932D01*
X85912868Y-85325000D01*
X86114278Y-85325000D01*
X86130874Y-85408435D01*
X86325414Y-85699586D01*
X86616565Y-85894126D01*
X86960000Y-85962440D01*
X87710000Y-85962440D01*
X88053435Y-85894126D01*
X88344586Y-85699586D01*
X88539126Y-85408435D01*
X88607440Y-85065000D01*
X88607440Y-83815000D01*
X88862560Y-83815000D01*
X88862560Y-85065000D01*
X88930874Y-85408435D01*
X89125414Y-85699586D01*
X89416565Y-85894126D01*
X89760000Y-85962440D01*
X90508956Y-85962440D01*
X90460577Y-86034844D01*
X89570845Y-86924577D01*
X89496952Y-86973951D01*
X89447578Y-87047844D01*
X89447576Y-87047846D01*
X89301348Y-87266691D01*
X89246025Y-87544825D01*
X89125414Y-87625414D01*
X88930874Y-87916565D01*
X88862560Y-88260000D01*
X88862560Y-89510000D01*
X88930874Y-89853435D01*
X89125414Y-90144586D01*
X89416565Y-90339126D01*
X89760000Y-90407440D01*
X90510000Y-90407440D01*
X90853435Y-90339126D01*
X91144586Y-90144586D01*
X91339126Y-89853435D01*
X91407440Y-89510000D01*
X91407440Y-88522191D01*
X91455793Y-88638926D01*
X91533000Y-88716133D01*
X91533000Y-88797840D01*
X91515663Y-88885001D01*
X91533000Y-88972162D01*
X91533000Y-88972165D01*
X91584348Y-89230310D01*
X91779951Y-89523050D01*
X91853847Y-89572426D01*
X94708001Y-92426581D01*
X94708000Y-112421867D01*
X94630793Y-112499074D01*
X94458000Y-112916234D01*
X94458000Y-113367766D01*
X94630793Y-113784926D01*
X94950074Y-114104207D01*
X95367234Y-114277000D01*
X95818766Y-114277000D01*
X96235926Y-114104207D01*
X96555207Y-113784926D01*
X96728000Y-113367766D01*
X96728000Y-112916234D01*
X96555207Y-112499074D01*
X96478000Y-112421867D01*
X96478000Y-96914234D01*
X99030000Y-96914234D01*
X99030000Y-97365766D01*
X99202793Y-97782926D01*
X99280001Y-97860134D01*
X99280000Y-103912867D01*
X99202793Y-103990074D01*
X99030000Y-104407234D01*
X99030000Y-104858766D01*
X99202793Y-105275926D01*
X99522074Y-105595207D01*
X99939234Y-105768000D01*
X100390766Y-105768000D01*
X100807926Y-105595207D01*
X101127207Y-105275926D01*
X101300000Y-104858766D01*
X101300000Y-104407234D01*
X101127207Y-103990074D01*
X101050000Y-103912867D01*
X101050000Y-97860133D01*
X101127207Y-97782926D01*
X101300000Y-97365766D01*
X101300000Y-96914234D01*
X101127207Y-96497074D01*
X100807926Y-96177793D01*
X100390766Y-96005000D01*
X99939234Y-96005000D01*
X99522074Y-96177793D01*
X99202793Y-96497074D01*
X99030000Y-96914234D01*
X96478000Y-96914234D01*
X96478000Y-92147160D01*
X96495337Y-92060000D01*
X96478000Y-91972841D01*
X96478000Y-91972836D01*
X96426652Y-91714691D01*
X96315276Y-91548006D01*
X96280424Y-91495846D01*
X96280423Y-91495845D01*
X96231049Y-91421952D01*
X96157156Y-91372578D01*
X95221818Y-90437240D01*
X97506000Y-90437240D01*
X97506000Y-90888772D01*
X97678793Y-91305932D01*
X97998074Y-91625213D01*
X98415234Y-91798006D01*
X98524428Y-91798006D01*
X99197744Y-92471322D01*
X99141080Y-92494793D01*
X98821799Y-92814074D01*
X98649006Y-93231234D01*
X98649006Y-93682766D01*
X98821799Y-94099926D01*
X99141080Y-94419207D01*
X99558240Y-94592000D01*
X99667428Y-94592000D01*
X104684583Y-99609156D01*
X104733957Y-99683049D01*
X104807850Y-99732423D01*
X104807851Y-99732424D01*
X104942801Y-99822595D01*
X105026696Y-99878652D01*
X105284841Y-99930000D01*
X105284844Y-99930000D01*
X105372005Y-99947337D01*
X105459166Y-99930000D01*
X110974422Y-99930000D01*
X112746000Y-101701579D01*
X112746000Y-101810766D01*
X112918793Y-102227926D01*
X113238074Y-102547207D01*
X113655234Y-102720000D01*
X114106766Y-102720000D01*
X114523926Y-102547207D01*
X114843207Y-102227926D01*
X115016000Y-101810766D01*
X115016000Y-101359234D01*
X114843207Y-100942074D01*
X114523926Y-100622793D01*
X114106766Y-100450000D01*
X113997579Y-100450000D01*
X112028425Y-98480847D01*
X111979049Y-98406951D01*
X111686310Y-98211348D01*
X111428165Y-98160000D01*
X111428161Y-98160000D01*
X111341000Y-98142663D01*
X111253839Y-98160000D01*
X105738585Y-98160000D01*
X104307262Y-96728678D01*
X104363926Y-96705207D01*
X104683207Y-96385926D01*
X104856000Y-95968766D01*
X104856000Y-95517234D01*
X104683207Y-95100074D01*
X104363926Y-94780793D01*
X103946766Y-94608000D01*
X103837579Y-94608000D01*
X99776000Y-90546422D01*
X99776000Y-90437240D01*
X99603207Y-90020080D01*
X99512361Y-89929234D01*
X102586000Y-89929234D01*
X102586000Y-90380766D01*
X102758793Y-90797926D01*
X103078074Y-91117207D01*
X103495234Y-91290000D01*
X103946766Y-91290000D01*
X104363926Y-91117207D01*
X104441133Y-91040000D01*
X106021422Y-91040000D01*
X111603000Y-96621579D01*
X111603000Y-96730766D01*
X111775793Y-97147926D01*
X112095074Y-97467207D01*
X112512234Y-97640000D01*
X112963766Y-97640000D01*
X113380926Y-97467207D01*
X113700207Y-97147926D01*
X113873000Y-96730766D01*
X113873000Y-96279234D01*
X113860642Y-96249398D01*
X118565000Y-96249398D01*
X118565000Y-96760602D01*
X118760629Y-97232894D01*
X119122106Y-97594371D01*
X119594398Y-97790000D01*
X119822560Y-97790000D01*
X119822560Y-98425000D01*
X119871843Y-98672765D01*
X120012191Y-98882809D01*
X120222235Y-99023157D01*
X120470000Y-99072440D01*
X121770000Y-99072440D01*
X122017765Y-99023157D01*
X122227809Y-98882809D01*
X122368157Y-98672765D01*
X122417440Y-98425000D01*
X122417440Y-97125000D01*
X122368157Y-96877235D01*
X122227809Y-96667191D01*
X122017765Y-96526843D01*
X121906595Y-96504730D01*
X132982013Y-96504730D01*
X132982013Y-98229300D01*
X133641977Y-99822595D01*
X134861433Y-101042051D01*
X136454728Y-101702015D01*
X138179298Y-101702015D01*
X139772593Y-101042051D01*
X140992049Y-99822595D01*
X141652013Y-98229300D01*
X141652013Y-96504730D01*
X140992049Y-94911435D01*
X139772593Y-93691979D01*
X138179298Y-93032015D01*
X136454728Y-93032015D01*
X134861433Y-93691979D01*
X133641977Y-94911435D01*
X132982013Y-96504730D01*
X121906595Y-96504730D01*
X121770000Y-96477560D01*
X121511046Y-96477560D01*
X121783729Y-96364611D01*
X121839410Y-96134016D01*
X121120000Y-95414605D01*
X121105858Y-95428748D01*
X120926253Y-95249143D01*
X120940395Y-95235000D01*
X121299605Y-95235000D01*
X122019016Y-95954410D01*
X122249611Y-95898729D01*
X122417622Y-95415922D01*
X122388083Y-94905572D01*
X122249611Y-94571271D01*
X122019016Y-94515590D01*
X121299605Y-95235000D01*
X120940395Y-95235000D01*
X120220984Y-94515590D01*
X119990389Y-94571271D01*
X119822378Y-95054078D01*
X119831982Y-95220000D01*
X119594398Y-95220000D01*
X119122106Y-95415629D01*
X118760629Y-95777106D01*
X118565000Y-96249398D01*
X113860642Y-96249398D01*
X113700207Y-95862074D01*
X113380926Y-95542793D01*
X112963766Y-95370000D01*
X112854579Y-95370000D01*
X111820563Y-94335984D01*
X120400590Y-94335984D01*
X121120000Y-95055395D01*
X121839410Y-94335984D01*
X121783729Y-94105389D01*
X121300922Y-93937378D01*
X120790572Y-93966917D01*
X120456271Y-94105389D01*
X120400590Y-94335984D01*
X111820563Y-94335984D01*
X107075425Y-89590847D01*
X107026049Y-89516951D01*
X106733310Y-89321348D01*
X106475165Y-89270000D01*
X106475161Y-89270000D01*
X106388000Y-89252663D01*
X106300839Y-89270000D01*
X104441133Y-89270000D01*
X104363926Y-89192793D01*
X103946766Y-89020000D01*
X103495234Y-89020000D01*
X103078074Y-89192793D01*
X102758793Y-89512074D01*
X102586000Y-89929234D01*
X99512361Y-89929234D01*
X99283926Y-89700799D01*
X98866766Y-89528006D01*
X98415234Y-89528006D01*
X97998074Y-89700799D01*
X97678793Y-90020080D01*
X97506000Y-90437240D01*
X95221818Y-90437240D01*
X94544855Y-89760278D01*
X94777207Y-89527926D01*
X94950000Y-89110766D01*
X94950000Y-88659234D01*
X114905000Y-88659234D01*
X114905000Y-89110766D01*
X115077793Y-89527926D01*
X115397074Y-89847207D01*
X115814234Y-90020000D01*
X116265766Y-90020000D01*
X116382902Y-89971481D01*
X119223000Y-92811579D01*
X119223000Y-92920766D01*
X119395793Y-93337926D01*
X119715074Y-93657207D01*
X120132234Y-93830000D01*
X120583766Y-93830000D01*
X121000926Y-93657207D01*
X121320207Y-93337926D01*
X121493000Y-92920766D01*
X121493000Y-92469234D01*
X121320207Y-92052074D01*
X121000926Y-91732793D01*
X120583766Y-91560000D01*
X120474579Y-91560000D01*
X117235425Y-88320847D01*
X117186049Y-88246951D01*
X116893310Y-88051348D01*
X116791163Y-88031030D01*
X116682926Y-87922793D01*
X116265766Y-87750000D01*
X115814234Y-87750000D01*
X115397074Y-87922793D01*
X115077793Y-88242074D01*
X114905000Y-88659234D01*
X94950000Y-88659234D01*
X94777207Y-88242074D01*
X94700000Y-88164867D01*
X94700000Y-87448161D01*
X94717337Y-87361000D01*
X94700000Y-87273839D01*
X94700000Y-87273835D01*
X94648652Y-87015690D01*
X94600957Y-86944310D01*
X94502424Y-86796845D01*
X94502423Y-86796844D01*
X94453049Y-86722951D01*
X94379156Y-86673577D01*
X93913057Y-86207479D01*
X94043287Y-86207479D01*
X94460447Y-86034686D01*
X94779728Y-85715405D01*
X94952521Y-85298245D01*
X94952521Y-84846713D01*
X94779728Y-84429553D01*
X94460447Y-84110272D01*
X94043287Y-83937479D01*
X93934099Y-83937479D01*
X93872467Y-83875846D01*
X93823091Y-83801951D01*
X93530352Y-83606348D01*
X93272207Y-83555000D01*
X93272203Y-83555000D01*
X93185042Y-83537663D01*
X93097881Y-83555000D01*
X91355722Y-83555000D01*
X91339126Y-83471565D01*
X91144586Y-83180414D01*
X90853435Y-82985874D01*
X90510000Y-82917560D01*
X89760000Y-82917560D01*
X89416565Y-82985874D01*
X89125414Y-83180414D01*
X88930874Y-83471565D01*
X88862560Y-83815000D01*
X88607440Y-83815000D01*
X88539126Y-83471565D01*
X88344586Y-83180414D01*
X88053435Y-82985874D01*
X87710000Y-82917560D01*
X86960000Y-82917560D01*
X86616565Y-82985874D01*
X86325414Y-83180414D01*
X86130874Y-83471565D01*
X86114278Y-83555000D01*
X85912868Y-83555000D01*
X85766301Y-83457068D01*
X85442000Y-83392560D01*
X85042000Y-83392560D01*
X84717699Y-83457068D01*
X84471558Y-83621533D01*
X84351698Y-83501673D01*
X84118309Y-83405000D01*
X83877750Y-83405000D01*
X83719000Y-83563750D01*
X83465000Y-83563750D01*
X83306250Y-83405000D01*
X83065691Y-83405000D01*
X82832302Y-83501673D01*
X82653673Y-83680301D01*
X82557000Y-83913690D01*
X80730000Y-83913690D01*
X80730000Y-81350133D01*
X80807207Y-81272926D01*
X80980000Y-80855766D01*
X80980000Y-80404234D01*
X80807207Y-79987074D01*
X80487926Y-79667793D01*
X80070766Y-79495000D01*
X79619234Y-79495000D01*
X79202074Y-79667793D01*
X78882793Y-79987074D01*
X78710000Y-80404234D01*
X63462000Y-80404234D01*
X63462000Y-75324234D01*
X67407000Y-75324234D01*
X67407000Y-75775766D01*
X67579793Y-76192926D01*
X67635367Y-76248500D01*
X67579793Y-76304074D01*
X67407000Y-76721234D01*
X67407000Y-77172766D01*
X67579793Y-77589926D01*
X67899074Y-77909207D01*
X68316234Y-78082000D01*
X68767766Y-78082000D01*
X69184926Y-77909207D01*
X69262133Y-77832000D01*
X75947839Y-77832000D01*
X76035000Y-77849337D01*
X76122161Y-77832000D01*
X76122165Y-77832000D01*
X76380310Y-77780652D01*
X76673049Y-77585049D01*
X76722425Y-77511153D01*
X78433579Y-75800000D01*
X83034422Y-75800000D01*
X83790000Y-76555579D01*
X83790000Y-76664766D01*
X83962793Y-77081926D01*
X84282074Y-77401207D01*
X84699234Y-77574000D01*
X85150766Y-77574000D01*
X85567926Y-77401207D01*
X85887207Y-77081926D01*
X86060000Y-76664766D01*
X86060000Y-76213234D01*
X85887207Y-75796074D01*
X85567926Y-75476793D01*
X85150766Y-75304000D01*
X85041579Y-75304000D01*
X84267578Y-74530000D01*
X90654422Y-74530000D01*
X92680000Y-76555579D01*
X92680000Y-76664766D01*
X92852793Y-77081926D01*
X93172074Y-77401207D01*
X93589234Y-77574000D01*
X94040766Y-77574000D01*
X94457926Y-77401207D01*
X94777207Y-77081926D01*
X94950000Y-76664766D01*
X94950000Y-76213234D01*
X94777207Y-75796074D01*
X94457926Y-75476793D01*
X94040766Y-75304000D01*
X93931579Y-75304000D01*
X93316813Y-74689234D01*
X96490000Y-74689234D01*
X96490000Y-75140766D01*
X96662793Y-75557926D01*
X96982074Y-75877207D01*
X97399234Y-76050000D01*
X97850766Y-76050000D01*
X98267926Y-75877207D01*
X98345133Y-75800000D01*
X99171421Y-75800000D01*
X97926367Y-77045055D01*
X97852474Y-77094429D01*
X97803100Y-77168322D01*
X97803098Y-77168324D01*
X97656870Y-77387169D01*
X97588185Y-77732478D01*
X97605523Y-77819643D01*
X97605522Y-83057165D01*
X97528315Y-83134372D01*
X97355522Y-83551532D01*
X97355522Y-84003064D01*
X97528315Y-84420224D01*
X97847596Y-84739505D01*
X98264756Y-84912298D01*
X98716288Y-84912298D01*
X99119245Y-84745388D01*
X99141074Y-84767217D01*
X99558234Y-84940010D01*
X100009766Y-84940010D01*
X100426926Y-84767217D01*
X100746207Y-84447936D01*
X100919000Y-84030776D01*
X100919000Y-83579244D01*
X100746207Y-83162084D01*
X100669000Y-83084877D01*
X100669000Y-80715133D01*
X100746207Y-80637926D01*
X100919000Y-80220766D01*
X100919000Y-79769234D01*
X100746207Y-79352074D01*
X100426926Y-79032793D01*
X100009766Y-78860000D01*
X99558234Y-78860000D01*
X99375522Y-78935682D01*
X99375522Y-78099056D01*
X100658579Y-76816000D01*
X107572867Y-76816000D01*
X107650074Y-76893207D01*
X108067234Y-77066000D01*
X108518766Y-77066000D01*
X108935926Y-76893207D01*
X109255207Y-76573926D01*
X109428000Y-76156766D01*
X109428000Y-75800000D01*
X110366867Y-75800000D01*
X110444074Y-75877207D01*
X110861234Y-76050000D01*
X111312766Y-76050000D01*
X111729926Y-75877207D01*
X112049207Y-75557926D01*
X112222000Y-75140766D01*
X112222000Y-74689234D01*
X112049207Y-74272074D01*
X111729926Y-73952793D01*
X111312766Y-73780000D01*
X110861234Y-73780000D01*
X110444074Y-73952793D01*
X110366867Y-74030000D01*
X98345133Y-74030000D01*
X98267926Y-73952793D01*
X97850766Y-73780000D01*
X97399234Y-73780000D01*
X96982074Y-73952793D01*
X96662793Y-74272074D01*
X96490000Y-74689234D01*
X93316813Y-74689234D01*
X91708425Y-73080847D01*
X91659049Y-73006951D01*
X91366310Y-72811348D01*
X91108165Y-72760000D01*
X91108161Y-72760000D01*
X91021000Y-72742663D01*
X90933839Y-72760000D01*
X81073133Y-72760000D01*
X80995926Y-72682793D01*
X80578766Y-72510000D01*
X80127234Y-72510000D01*
X79710074Y-72682793D01*
X79390793Y-73002074D01*
X79218000Y-73419234D01*
X79218000Y-73870766D01*
X79283957Y-74030000D01*
X78154161Y-74030000D01*
X78067000Y-74012663D01*
X77979839Y-74030000D01*
X77979835Y-74030000D01*
X77721690Y-74081348D01*
X77613864Y-74153395D01*
X77505207Y-73891074D01*
X77185926Y-73571793D01*
X76768766Y-73399000D01*
X76317234Y-73399000D01*
X75900074Y-73571793D01*
X75580793Y-73891074D01*
X75408000Y-74308234D01*
X75408000Y-74417421D01*
X74779422Y-75046000D01*
X69996684Y-75046000D01*
X69936531Y-74985847D01*
X69887155Y-74911951D01*
X69594416Y-74716348D01*
X69336271Y-74665000D01*
X69336267Y-74665000D01*
X69249106Y-74647663D01*
X69245511Y-74648378D01*
X69184926Y-74587793D01*
X68767766Y-74415000D01*
X68316234Y-74415000D01*
X67899074Y-74587793D01*
X67579793Y-74907074D01*
X67407000Y-75324234D01*
X63462000Y-75324234D01*
X63462000Y-71867000D01*
X74130000Y-71867000D01*
X74178601Y-71857333D01*
X74219803Y-71829803D01*
X74247333Y-71788601D01*
X74257000Y-71740000D01*
X74257000Y-69063320D01*
X83451285Y-69063320D01*
X83580533Y-69356123D01*
X84280806Y-69624388D01*
X85030435Y-69604250D01*
X85629467Y-69356123D01*
X85758715Y-69063320D01*
X84605000Y-67909605D01*
X83451285Y-69063320D01*
X74257000Y-69063320D01*
X74257000Y-67405806D01*
X82710612Y-67405806D01*
X82730750Y-68155435D01*
X82978877Y-68754467D01*
X83271680Y-68883715D01*
X84425395Y-67730000D01*
X84784605Y-67730000D01*
X85938320Y-68883715D01*
X86231123Y-68754467D01*
X86499388Y-68054194D01*
X86479250Y-67304565D01*
X86231123Y-66705533D01*
X85938320Y-66576285D01*
X84784605Y-67730000D01*
X84425395Y-67730000D01*
X83271680Y-66576285D01*
X82978877Y-66705533D01*
X82710612Y-67405806D01*
X74257000Y-67405806D01*
X74257000Y-66396680D01*
X83451285Y-66396680D01*
X84605000Y-67550395D01*
X85758715Y-66396680D01*
X85629467Y-66103877D01*
X84929194Y-65835612D01*
X84179565Y-65855750D01*
X83580533Y-66103877D01*
X83451285Y-66396680D01*
X74257000Y-66396680D01*
X74257000Y-61742750D01*
X85821667Y-61742750D01*
X85821667Y-64433309D01*
X85918340Y-64666698D01*
X86096968Y-64845327D01*
X86330357Y-64942000D01*
X89270917Y-64942000D01*
X89429667Y-64783250D01*
X89429667Y-61584000D01*
X89683667Y-61584000D01*
X89683667Y-64783250D01*
X89842417Y-64942000D01*
X92782977Y-64942000D01*
X93016366Y-64845327D01*
X93194994Y-64666698D01*
X93291667Y-64433309D01*
X93291667Y-63747000D01*
X95425736Y-63747000D01*
X95541669Y-64329832D01*
X95871816Y-64823934D01*
X96365918Y-65154081D01*
X96801631Y-65240750D01*
X97178369Y-65240750D01*
X97614082Y-65154081D01*
X98108184Y-64823934D01*
X98438331Y-64329832D01*
X98478173Y-64129532D01*
X121497073Y-64129532D01*
X121595736Y-64396387D01*
X122205461Y-64622908D01*
X122855460Y-64598856D01*
X123344264Y-64396387D01*
X123442927Y-64129532D01*
X122470000Y-63156605D01*
X121497073Y-64129532D01*
X98478173Y-64129532D01*
X98554264Y-63747000D01*
X98438331Y-63164168D01*
X98136512Y-62712461D01*
X120824092Y-62712461D01*
X120848144Y-63362460D01*
X121050613Y-63851264D01*
X121317468Y-63949927D01*
X122290395Y-62977000D01*
X122649605Y-62977000D01*
X123622532Y-63949927D01*
X123889387Y-63851264D01*
X124115908Y-63241539D01*
X124091856Y-62591540D01*
X123889387Y-62102736D01*
X123622532Y-62004073D01*
X122649605Y-62977000D01*
X122290395Y-62977000D01*
X121317468Y-62004073D01*
X121050613Y-62102736D01*
X120824092Y-62712461D01*
X98136512Y-62712461D01*
X98108184Y-62670066D01*
X97978619Y-62583494D01*
X98287174Y-62263490D01*
X98477411Y-61824468D01*
X121497073Y-61824468D01*
X122470000Y-62797395D01*
X123442927Y-61824468D01*
X123344264Y-61557613D01*
X122734539Y-61331092D01*
X122084540Y-61355144D01*
X121595736Y-61557613D01*
X121497073Y-61824468D01*
X98477411Y-61824468D01*
X98481400Y-61815264D01*
X98360195Y-61584000D01*
X97117000Y-61584000D01*
X97117000Y-61604000D01*
X96863000Y-61604000D01*
X96863000Y-61584000D01*
X95619805Y-61584000D01*
X95498600Y-61815264D01*
X95692826Y-62263490D01*
X96001381Y-62583494D01*
X95871816Y-62670066D01*
X95541669Y-63164168D01*
X95425736Y-63747000D01*
X93291667Y-63747000D01*
X93291667Y-61742750D01*
X93132917Y-61584000D01*
X89683667Y-61584000D01*
X89429667Y-61584000D01*
X85980417Y-61584000D01*
X85821667Y-61742750D01*
X74257000Y-61742750D01*
X74257000Y-58480691D01*
X85821667Y-58480691D01*
X85821667Y-61171250D01*
X85980417Y-61330000D01*
X89429667Y-61330000D01*
X89429667Y-58130750D01*
X89683667Y-58130750D01*
X89683667Y-61330000D01*
X93132917Y-61330000D01*
X93291667Y-61171250D01*
X93291667Y-58480691D01*
X93220240Y-58308250D01*
X95442560Y-58308250D01*
X95442560Y-60025750D01*
X95491843Y-60273515D01*
X95632191Y-60483559D01*
X95766969Y-60573616D01*
X95692826Y-60650510D01*
X95498600Y-61098736D01*
X95619805Y-61330000D01*
X96863000Y-61330000D01*
X96863000Y-61310000D01*
X97117000Y-61310000D01*
X97117000Y-61330000D01*
X98360195Y-61330000D01*
X98481400Y-61098736D01*
X98287174Y-60650510D01*
X98213031Y-60573616D01*
X98347809Y-60483559D01*
X98488157Y-60273515D01*
X98537440Y-60025750D01*
X98537440Y-59510000D01*
X110020560Y-59510000D01*
X110020560Y-61110000D01*
X110069843Y-61357765D01*
X110210191Y-61567809D01*
X110420235Y-61708157D01*
X110668000Y-61757440D01*
X112268000Y-61757440D01*
X112515765Y-61708157D01*
X112725809Y-61567809D01*
X112866157Y-61357765D01*
X112874117Y-61317745D01*
X113139861Y-61317745D01*
X113213995Y-61563864D01*
X113751223Y-61756965D01*
X114321454Y-61729778D01*
X114722005Y-61563864D01*
X114796139Y-61317745D01*
X113968000Y-60489605D01*
X113139861Y-61317745D01*
X112874117Y-61317745D01*
X112912693Y-61123813D01*
X112960255Y-61138139D01*
X113788395Y-60310000D01*
X114147605Y-60310000D01*
X114975745Y-61138139D01*
X115221864Y-61064005D01*
X115414965Y-60526777D01*
X115387778Y-59956546D01*
X115221864Y-59555995D01*
X114975745Y-59481861D01*
X114147605Y-60310000D01*
X113788395Y-60310000D01*
X112960255Y-59481861D01*
X112912693Y-59496187D01*
X112874118Y-59302255D01*
X113139861Y-59302255D01*
X113968000Y-60130395D01*
X114796139Y-59302255D01*
X114722005Y-59056136D01*
X114184777Y-58863035D01*
X113614546Y-58890222D01*
X113213995Y-59056136D01*
X113139861Y-59302255D01*
X112874118Y-59302255D01*
X112866157Y-59262235D01*
X112725809Y-59052191D01*
X112515765Y-58911843D01*
X112268000Y-58862560D01*
X110668000Y-58862560D01*
X110420235Y-58911843D01*
X110210191Y-59052191D01*
X110069843Y-59262235D01*
X110020560Y-59510000D01*
X98537440Y-59510000D01*
X98537440Y-58308250D01*
X98488157Y-58060485D01*
X98347809Y-57850441D01*
X98137765Y-57710093D01*
X97890000Y-57660810D01*
X96090000Y-57660810D01*
X95842235Y-57710093D01*
X95632191Y-57850441D01*
X95491843Y-58060485D01*
X95442560Y-58308250D01*
X93220240Y-58308250D01*
X93194994Y-58247302D01*
X93016366Y-58068673D01*
X92782977Y-57972000D01*
X89842417Y-57972000D01*
X89683667Y-58130750D01*
X89429667Y-58130750D01*
X89270917Y-57972000D01*
X86330357Y-57972000D01*
X86096968Y-58068673D01*
X85918340Y-58247302D01*
X85821667Y-58480691D01*
X74257000Y-58480691D01*
X74257000Y-54855050D01*
X82720000Y-54855050D01*
X82720000Y-55604950D01*
X83006974Y-56297767D01*
X83537233Y-56828026D01*
X84230050Y-57115000D01*
X84979950Y-57115000D01*
X85672767Y-56828026D01*
X86135793Y-56365000D01*
X118961000Y-56365000D01*
X118961000Y-58278000D01*
X118970667Y-58326601D01*
X118998197Y-58367803D01*
X119039399Y-58395333D01*
X119088000Y-58405000D01*
X126335001Y-58405000D01*
X126335000Y-61356413D01*
X126222235Y-61378843D01*
X126012191Y-61519191D01*
X125871843Y-61729235D01*
X125822560Y-61977000D01*
X125822560Y-63977000D01*
X125835000Y-64039541D01*
X125835001Y-67426000D01*
X120382133Y-67426000D01*
X120304926Y-67348793D01*
X119887766Y-67176000D01*
X119436234Y-67176000D01*
X119019074Y-67348793D01*
X118699793Y-67668074D01*
X118527000Y-68085234D01*
X118527000Y-68536766D01*
X118699793Y-68953926D01*
X119019074Y-69273207D01*
X119436234Y-69446000D01*
X119887766Y-69446000D01*
X120304926Y-69273207D01*
X120382133Y-69196000D01*
X125835000Y-69196000D01*
X125835001Y-71613000D01*
X123914000Y-71613000D01*
X123865399Y-71622667D01*
X123824197Y-71650197D01*
X123796667Y-71691399D01*
X123787000Y-71740000D01*
X123787000Y-91806000D01*
X123796667Y-91854601D01*
X123824197Y-91895803D01*
X123865399Y-91923333D01*
X123914000Y-91933000D01*
X153124000Y-91933000D01*
X153172601Y-91923333D01*
X153213803Y-91895803D01*
X153241333Y-91854601D01*
X153251000Y-91806000D01*
X153251000Y-71740000D01*
X153241333Y-71691399D01*
X153213803Y-71650197D01*
X153172601Y-71622667D01*
X153124000Y-71613000D01*
X129105000Y-71613000D01*
X129105000Y-69736234D01*
X131796004Y-69736234D01*
X131796004Y-70187766D01*
X131968797Y-70604926D01*
X132288078Y-70924207D01*
X132705238Y-71097000D01*
X133156770Y-71097000D01*
X133573930Y-70924207D01*
X133651137Y-70847000D01*
X139449867Y-70847000D01*
X139527074Y-70924207D01*
X139944234Y-71097000D01*
X140395766Y-71097000D01*
X140812926Y-70924207D01*
X140890127Y-70847006D01*
X143259861Y-70847006D01*
X143337068Y-70924213D01*
X143754228Y-71097006D01*
X144205760Y-71097006D01*
X144622920Y-70924213D01*
X144942201Y-70604932D01*
X145114994Y-70187772D01*
X145114994Y-69736240D01*
X144942201Y-69319080D01*
X144622920Y-68999799D01*
X144205760Y-68827006D01*
X143754228Y-68827006D01*
X143337068Y-68999799D01*
X143259861Y-69077006D01*
X140890139Y-69077006D01*
X140812926Y-68999793D01*
X140395766Y-68827000D01*
X139944234Y-68827000D01*
X139527074Y-68999793D01*
X139449867Y-69077000D01*
X133651137Y-69077000D01*
X133573930Y-68999793D01*
X133156770Y-68827000D01*
X132705238Y-68827000D01*
X132288078Y-68999793D01*
X131968797Y-69319074D01*
X131796004Y-69736234D01*
X129105000Y-69736234D01*
X129105000Y-64039541D01*
X129117440Y-63977000D01*
X129117440Y-61977000D01*
X129068157Y-61729235D01*
X128927809Y-61519191D01*
X128717765Y-61378843D01*
X128605000Y-61356413D01*
X128605000Y-58405000D01*
X128994000Y-58405000D01*
X129042601Y-58395333D01*
X129083803Y-58367803D01*
X129111333Y-58326601D01*
X129121000Y-58278000D01*
X129121000Y-55098093D01*
X129137031Y-55017500D01*
X129121000Y-54936907D01*
X129121000Y-52075000D01*
X130925560Y-52075000D01*
X130925560Y-54575000D01*
X130974843Y-54822765D01*
X131115191Y-55032809D01*
X131325235Y-55173157D01*
X131573000Y-55222440D01*
X133273000Y-55222440D01*
X133520765Y-55173157D01*
X133730809Y-55032809D01*
X133871157Y-54822765D01*
X133880184Y-54777381D01*
X133892375Y-54795625D01*
X134383583Y-55123839D01*
X134963000Y-55239092D01*
X135542418Y-55123839D01*
X136033625Y-54795625D01*
X136240232Y-54486416D01*
X136542749Y-54864856D01*
X137052048Y-55145562D01*
X137146110Y-55166476D01*
X137376000Y-55045155D01*
X137376000Y-53452000D01*
X137356000Y-53452000D01*
X137356000Y-53198000D01*
X137376000Y-53198000D01*
X137376000Y-51604845D01*
X137630000Y-51604845D01*
X137630000Y-53198000D01*
X137650000Y-53198000D01*
X137650000Y-53452000D01*
X137630000Y-53452000D01*
X137630000Y-55045155D01*
X137859890Y-55166476D01*
X137953952Y-55145562D01*
X138463251Y-54864856D01*
X138765768Y-54486416D01*
X138972375Y-54795625D01*
X139463583Y-55123839D01*
X140043000Y-55239092D01*
X140622418Y-55123839D01*
X141113625Y-54795625D01*
X141313000Y-54497239D01*
X141512375Y-54795625D01*
X142003583Y-55123839D01*
X142583000Y-55239092D01*
X143162418Y-55123839D01*
X143653625Y-54795625D01*
X143853000Y-54497239D01*
X144052375Y-54795625D01*
X144543583Y-55123839D01*
X145123000Y-55239092D01*
X145702418Y-55123839D01*
X146193625Y-54795625D01*
X146521839Y-54304418D01*
X146608000Y-53871255D01*
X146608000Y-52778744D01*
X146521839Y-52345582D01*
X146193625Y-51854375D01*
X145702417Y-51526161D01*
X145123000Y-51410908D01*
X144543582Y-51526161D01*
X144052375Y-51854375D01*
X143853000Y-52152761D01*
X143653625Y-51854375D01*
X143162417Y-51526161D01*
X142583000Y-51410908D01*
X142003582Y-51526161D01*
X141512375Y-51854375D01*
X141313000Y-52152761D01*
X141113625Y-51854375D01*
X140622417Y-51526161D01*
X140043000Y-51410908D01*
X139463582Y-51526161D01*
X138972375Y-51854375D01*
X138765769Y-52163584D01*
X138463251Y-51785144D01*
X137953952Y-51504438D01*
X137859890Y-51483524D01*
X137630000Y-51604845D01*
X137376000Y-51604845D01*
X137146110Y-51483524D01*
X137052048Y-51504438D01*
X136542749Y-51785144D01*
X136240232Y-52163584D01*
X136033625Y-51854375D01*
X135542417Y-51526161D01*
X134963000Y-51410908D01*
X134383582Y-51526161D01*
X133892375Y-51854375D01*
X133880184Y-51872619D01*
X133871157Y-51827235D01*
X133730809Y-51617191D01*
X133520765Y-51476843D01*
X133273000Y-51427560D01*
X131573000Y-51427560D01*
X131325235Y-51476843D01*
X131115191Y-51617191D01*
X130974843Y-51827235D01*
X130925560Y-52075000D01*
X129121000Y-52075000D01*
X129121000Y-51674000D01*
X129111333Y-51625399D01*
X129083803Y-51584197D01*
X129042601Y-51556667D01*
X128994000Y-51547000D01*
X119088000Y-51547000D01*
X119039399Y-51556667D01*
X118998197Y-51584197D01*
X118970667Y-51625399D01*
X118961000Y-51674000D01*
X118961000Y-54095000D01*
X86135793Y-54095000D01*
X85672767Y-53631974D01*
X84979950Y-53345000D01*
X84230050Y-53345000D01*
X83537233Y-53631974D01*
X83006974Y-54162233D01*
X82720000Y-54855050D01*
X74257000Y-54855050D01*
X74257000Y-50707600D01*
X152169510Y-50707600D01*
X154293600Y-52831691D01*
X154293600Y-52831691D01*
G37*
X154293600Y-52831691D02*
X154293601Y-118816908D01*
X153820509Y-119290000D01*
X120340782Y-119290000D01*
X120357988Y-119264250D01*
X121908252Y-117713986D01*
X122044769Y-117622769D01*
X122236470Y-117335868D01*
X122406136Y-117081946D01*
X122533031Y-116444000D01*
X122501000Y-116282969D01*
X122501000Y-112816778D01*
X122438167Y-112665086D01*
X122406136Y-112504055D01*
X122314919Y-112367539D01*
X122252086Y-112215847D01*
X122135986Y-112099747D01*
X122044769Y-111963231D01*
X121908253Y-111872014D01*
X121792153Y-111755914D01*
X121640459Y-111693080D01*
X121503944Y-111601864D01*
X121342915Y-111569833D01*
X121258821Y-111535000D01*
X134929286Y-111535000D01*
X134929286Y-117905000D01*
X153070715Y-117905000D01*
X153070715Y-111535000D01*
X134929286Y-111535000D01*
X121258821Y-111535000D01*
X121191222Y-111507000D01*
X121027031Y-111507000D01*
X120866000Y-111474969D01*
X120704969Y-111507000D01*
X120540778Y-111507000D01*
X120389086Y-111569833D01*
X120228055Y-111601864D01*
X120091539Y-111693081D01*
X119939847Y-111755914D01*
X119823747Y-111872014D01*
X119687231Y-111963231D01*
X119596014Y-112099747D01*
X119479914Y-112215847D01*
X119417080Y-112367541D01*
X119325864Y-112504056D01*
X119293833Y-112665085D01*
X119231000Y-112816778D01*
X119231000Y-112980970D01*
X119231001Y-115766761D01*
X118410762Y-116587000D01*
X90894000Y-116587000D01*
X90894000Y-111903750D01*
X91161000Y-111903750D01*
X91161000Y-112619310D01*
X91257673Y-112852699D01*
X91436302Y-113031327D01*
X91669691Y-113128000D01*
X92135250Y-113128000D01*
X92294000Y-112969250D01*
X92294000Y-111745000D01*
X92548000Y-111745000D01*
X92548000Y-112969250D01*
X92706750Y-113128000D01*
X93172309Y-113128000D01*
X93405698Y-113031327D01*
X93584327Y-112852699D01*
X93681000Y-112619310D01*
X93681000Y-111903750D01*
X93522250Y-111745000D01*
X92548000Y-111745000D01*
X92294000Y-111745000D01*
X91319750Y-111745000D01*
X91161000Y-111903750D01*
X90894000Y-111903750D01*
X90894000Y-110616690D01*
X91161000Y-110616690D01*
X91161000Y-111332250D01*
X91319750Y-111491000D01*
X92294000Y-111491000D01*
X92294000Y-110266750D01*
X92548000Y-110266750D01*
X92548000Y-111491000D01*
X93522250Y-111491000D01*
X93681000Y-111332250D01*
X93681000Y-110616690D01*
X93584327Y-110383301D01*
X93405698Y-110204673D01*
X93172309Y-110108000D01*
X92706750Y-110108000D01*
X92548000Y-110266750D01*
X92294000Y-110266750D01*
X92135250Y-110108000D01*
X91669691Y-110108000D01*
X91436302Y-110204673D01*
X91257673Y-110383301D01*
X91161000Y-110616690D01*
X90894000Y-110616690D01*
X90894000Y-106315750D01*
X91206000Y-106315750D01*
X91206000Y-107056310D01*
X91302673Y-107289699D01*
X91481302Y-107468327D01*
X91714691Y-107565000D01*
X92165250Y-107565000D01*
X92324000Y-107406250D01*
X92324000Y-106157000D01*
X92578000Y-106157000D01*
X92578000Y-107406250D01*
X92736750Y-107565000D01*
X93187309Y-107565000D01*
X93420698Y-107468327D01*
X93599327Y-107289699D01*
X93696000Y-107056310D01*
X93696000Y-106315750D01*
X93537250Y-106157000D01*
X92578000Y-106157000D01*
X92324000Y-106157000D01*
X91364750Y-106157000D01*
X91206000Y-106315750D01*
X90894000Y-106315750D01*
X90894000Y-105003690D01*
X91206000Y-105003690D01*
X91206000Y-105744250D01*
X91364750Y-105903000D01*
X92324000Y-105903000D01*
X92324000Y-104653750D01*
X92578000Y-104653750D01*
X92578000Y-105903000D01*
X93537250Y-105903000D01*
X93696000Y-105744250D01*
X93696000Y-105003690D01*
X93599327Y-104770301D01*
X93420698Y-104591673D01*
X93187309Y-104495000D01*
X92736750Y-104495000D01*
X92578000Y-104653750D01*
X92324000Y-104653750D01*
X92165250Y-104495000D01*
X91714691Y-104495000D01*
X91481302Y-104591673D01*
X91302673Y-104770301D01*
X91206000Y-105003690D01*
X90894000Y-105003690D01*
X90894000Y-98118815D01*
X90985310Y-98100652D01*
X91278049Y-97905049D01*
X91327425Y-97831154D01*
X91839156Y-97319423D01*
X91913049Y-97270049D01*
X91985820Y-97161141D01*
X92108652Y-96977310D01*
X92119715Y-96921690D01*
X92160000Y-96719165D01*
X92160000Y-96719161D01*
X92177337Y-96632000D01*
X92160000Y-96544839D01*
X92160000Y-94431133D01*
X92237207Y-94353926D01*
X92410000Y-93936766D01*
X92410000Y-93485234D01*
X92237207Y-93068074D01*
X91917926Y-92748793D01*
X91500766Y-92576000D01*
X91049234Y-92576000D01*
X90632074Y-92748793D01*
X90312793Y-93068074D01*
X90140000Y-93485234D01*
X90140000Y-93936766D01*
X90312793Y-94353926D01*
X90390000Y-94431133D01*
X90390001Y-96265421D01*
X90273422Y-96382000D01*
X83720580Y-96382000D01*
X83912071Y-96254049D01*
X83961447Y-96180153D01*
X85041601Y-95100000D01*
X85150788Y-95100000D01*
X85567948Y-94927207D01*
X85887229Y-94607926D01*
X86060022Y-94190766D01*
X86060022Y-93739234D01*
X85887229Y-93322074D01*
X85567948Y-93002793D01*
X85150788Y-92830000D01*
X84699256Y-92830000D01*
X84282096Y-93002793D01*
X83962815Y-93322074D01*
X83790022Y-93739234D01*
X83790022Y-93848421D01*
X82907444Y-94731000D01*
X75385579Y-94731000D01*
X74630000Y-93975422D01*
X74630000Y-93866234D01*
X74457207Y-93449074D01*
X74137926Y-93129793D01*
X73720766Y-92957000D01*
X73269234Y-92957000D01*
X73132691Y-93013558D01*
X72867926Y-92748793D01*
X72450766Y-92576000D01*
X71999234Y-92576000D01*
X71582074Y-92748793D01*
X71262793Y-93068074D01*
X71090000Y-93485234D01*
X71090000Y-93936766D01*
X71262793Y-94353926D01*
X71340000Y-94431133D01*
X71340000Y-94639839D01*
X71322663Y-94727000D01*
X71340000Y-94814161D01*
X71340000Y-94814164D01*
X71391348Y-95072309D01*
X71586951Y-95365049D01*
X71660847Y-95414425D01*
X73267973Y-97021552D01*
X65367000Y-97014008D01*
X65367000Y-89266000D01*
X65357333Y-89217399D01*
X65329803Y-89176197D01*
X65321651Y-89170750D01*
X82557000Y-89170750D01*
X82557000Y-89411310D01*
X82653673Y-89644699D01*
X82832302Y-89823327D01*
X83065691Y-89920000D01*
X83306250Y-89920000D01*
X83465000Y-89761250D01*
X83465000Y-89012000D01*
X82715750Y-89012000D01*
X82557000Y-89170750D01*
X65321651Y-89170750D01*
X65288601Y-89148667D01*
X65239007Y-89139004D01*
X63462000Y-89152893D01*
X63462000Y-88358690D01*
X82557000Y-88358690D01*
X82557000Y-88599250D01*
X82715750Y-88758000D01*
X83465000Y-88758000D01*
X83465000Y-88008750D01*
X83719000Y-88008750D01*
X83719000Y-88758000D01*
X83739000Y-88758000D01*
X83739000Y-89012000D01*
X83719000Y-89012000D01*
X83719000Y-89761250D01*
X83877750Y-89920000D01*
X84118309Y-89920000D01*
X84351698Y-89823327D01*
X84471558Y-89703467D01*
X84717699Y-89867932D01*
X85042000Y-89932440D01*
X85442000Y-89932440D01*
X85766301Y-89867932D01*
X85912868Y-89770000D01*
X86114278Y-89770000D01*
X86130874Y-89853435D01*
X86325414Y-90144586D01*
X86616565Y-90339126D01*
X86960000Y-90407440D01*
X87710000Y-90407440D01*
X88053435Y-90339126D01*
X88344586Y-90144586D01*
X88539126Y-89853435D01*
X88607440Y-89510000D01*
X88607440Y-88260000D01*
X88539126Y-87916565D01*
X88344586Y-87625414D01*
X88053435Y-87430874D01*
X87710000Y-87362560D01*
X86960000Y-87362560D01*
X86616565Y-87430874D01*
X86325414Y-87625414D01*
X86130874Y-87916565D01*
X86114278Y-88000000D01*
X85912868Y-88000000D01*
X85766301Y-87902068D01*
X85442000Y-87837560D01*
X85042000Y-87837560D01*
X84717699Y-87902068D01*
X84471558Y-88066533D01*
X84351698Y-87946673D01*
X84118309Y-87850000D01*
X83877750Y-87850000D01*
X83719000Y-88008750D01*
X83465000Y-88008750D01*
X83306250Y-87850000D01*
X83065691Y-87850000D01*
X82832302Y-87946673D01*
X82653673Y-88125301D01*
X82557000Y-88358690D01*
X63462000Y-88358690D01*
X63462000Y-80404234D01*
X78710000Y-80404234D01*
X78710000Y-80855766D01*
X78882793Y-81272926D01*
X78960001Y-81350134D01*
X78960000Y-85368837D01*
X78882793Y-85446044D01*
X78710000Y-85863204D01*
X78710000Y-86314736D01*
X78882793Y-86731896D01*
X79202074Y-87051177D01*
X79619234Y-87223970D01*
X80070766Y-87223970D01*
X80487926Y-87051177D01*
X80807207Y-86731896D01*
X80980000Y-86314736D01*
X80980000Y-85863204D01*
X80807207Y-85446044D01*
X80730000Y-85368837D01*
X80730000Y-84725750D01*
X82557000Y-84725750D01*
X82557000Y-84966310D01*
X82653673Y-85199699D01*
X82832302Y-85378327D01*
X83065691Y-85475000D01*
X83306250Y-85475000D01*
X83465000Y-85316250D01*
X83465000Y-84567000D01*
X82715750Y-84567000D01*
X82557000Y-84725750D01*
X80730000Y-84725750D01*
X80730000Y-83913690D01*
X82557000Y-83913690D01*
X82557000Y-84154250D01*
X82715750Y-84313000D01*
X83465000Y-84313000D01*
X83465000Y-83563750D01*
X83719000Y-83563750D01*
X83719000Y-84313000D01*
X83739000Y-84313000D01*
X83739000Y-84567000D01*
X83719000Y-84567000D01*
X83719000Y-85316250D01*
X83877750Y-85475000D01*
X84118309Y-85475000D01*
X84351698Y-85378327D01*
X84471558Y-85258467D01*
X84717699Y-85422932D01*
X85042000Y-85487440D01*
X85442000Y-85487440D01*
X85766301Y-85422932D01*
X85912868Y-85325000D01*
X86114278Y-85325000D01*
X86130874Y-85408435D01*
X86325414Y-85699586D01*
X86616565Y-85894126D01*
X86960000Y-85962440D01*
X87710000Y-85962440D01*
X88053435Y-85894126D01*
X88344586Y-85699586D01*
X88539126Y-85408435D01*
X88607440Y-85065000D01*
X88607440Y-83815000D01*
X88862560Y-83815000D01*
X88862560Y-85065000D01*
X88930874Y-85408435D01*
X89125414Y-85699586D01*
X89416565Y-85894126D01*
X89760000Y-85962440D01*
X90508956Y-85962440D01*
X90460577Y-86034844D01*
X89570845Y-86924577D01*
X89496952Y-86973951D01*
X89447578Y-87047844D01*
X89447576Y-87047846D01*
X89301348Y-87266691D01*
X89246025Y-87544825D01*
X89125414Y-87625414D01*
X88930874Y-87916565D01*
X88862560Y-88260000D01*
X88862560Y-89510000D01*
X88930874Y-89853435D01*
X89125414Y-90144586D01*
X89416565Y-90339126D01*
X89760000Y-90407440D01*
X90510000Y-90407440D01*
X90853435Y-90339126D01*
X91144586Y-90144586D01*
X91339126Y-89853435D01*
X91407440Y-89510000D01*
X91407440Y-88522191D01*
X91455793Y-88638926D01*
X91533000Y-88716133D01*
X91533000Y-88797840D01*
X91515663Y-88885001D01*
X91533000Y-88972162D01*
X91533000Y-88972165D01*
X91584348Y-89230310D01*
X91779951Y-89523050D01*
X91853847Y-89572426D01*
X94708001Y-92426581D01*
X94708000Y-112421867D01*
X94630793Y-112499074D01*
X94458000Y-112916234D01*
X94458000Y-113367766D01*
X94630793Y-113784926D01*
X94950074Y-114104207D01*
X95367234Y-114277000D01*
X95818766Y-114277000D01*
X96235926Y-114104207D01*
X96555207Y-113784926D01*
X96728000Y-113367766D01*
X96728000Y-112916234D01*
X96555207Y-112499074D01*
X96478000Y-112421867D01*
X96478000Y-96914234D01*
X99030000Y-96914234D01*
X99030000Y-97365766D01*
X99202793Y-97782926D01*
X99280001Y-97860134D01*
X99280000Y-103912867D01*
X99202793Y-103990074D01*
X99030000Y-104407234D01*
X99030000Y-104858766D01*
X99202793Y-105275926D01*
X99522074Y-105595207D01*
X99939234Y-105768000D01*
X100390766Y-105768000D01*
X100807926Y-105595207D01*
X101127207Y-105275926D01*
X101300000Y-104858766D01*
X101300000Y-104407234D01*
X101127207Y-103990074D01*
X101050000Y-103912867D01*
X101050000Y-97860133D01*
X101127207Y-97782926D01*
X101300000Y-97365766D01*
X101300000Y-96914234D01*
X101127207Y-96497074D01*
X100807926Y-96177793D01*
X100390766Y-96005000D01*
X99939234Y-96005000D01*
X99522074Y-96177793D01*
X99202793Y-96497074D01*
X99030000Y-96914234D01*
X96478000Y-96914234D01*
X96478000Y-92147160D01*
X96495337Y-92060000D01*
X96478000Y-91972841D01*
X96478000Y-91972836D01*
X96426652Y-91714691D01*
X96315276Y-91548006D01*
X96280424Y-91495846D01*
X96280423Y-91495845D01*
X96231049Y-91421952D01*
X96157156Y-91372578D01*
X95221818Y-90437240D01*
X97506000Y-90437240D01*
X97506000Y-90888772D01*
X97678793Y-91305932D01*
X97998074Y-91625213D01*
X98415234Y-91798006D01*
X98524428Y-91798006D01*
X99197744Y-92471322D01*
X99141080Y-92494793D01*
X98821799Y-92814074D01*
X98649006Y-93231234D01*
X98649006Y-93682766D01*
X98821799Y-94099926D01*
X99141080Y-94419207D01*
X99558240Y-94592000D01*
X99667428Y-94592000D01*
X104684583Y-99609156D01*
X104733957Y-99683049D01*
X104807850Y-99732423D01*
X104807851Y-99732424D01*
X104942801Y-99822595D01*
X105026696Y-99878652D01*
X105284841Y-99930000D01*
X105284844Y-99930000D01*
X105372005Y-99947337D01*
X105459166Y-99930000D01*
X110974422Y-99930000D01*
X112746000Y-101701579D01*
X112746000Y-101810766D01*
X112918793Y-102227926D01*
X113238074Y-102547207D01*
X113655234Y-102720000D01*
X114106766Y-102720000D01*
X114523926Y-102547207D01*
X114843207Y-102227926D01*
X115016000Y-101810766D01*
X115016000Y-101359234D01*
X114843207Y-100942074D01*
X114523926Y-100622793D01*
X114106766Y-100450000D01*
X113997579Y-100450000D01*
X112028425Y-98480847D01*
X111979049Y-98406951D01*
X111686310Y-98211348D01*
X111428165Y-98160000D01*
X111428161Y-98160000D01*
X111341000Y-98142663D01*
X111253839Y-98160000D01*
X105738585Y-98160000D01*
X104307262Y-96728678D01*
X104363926Y-96705207D01*
X104683207Y-96385926D01*
X104856000Y-95968766D01*
X104856000Y-95517234D01*
X104683207Y-95100074D01*
X104363926Y-94780793D01*
X103946766Y-94608000D01*
X103837579Y-94608000D01*
X99776000Y-90546422D01*
X99776000Y-90437240D01*
X99603207Y-90020080D01*
X99512361Y-89929234D01*
X102586000Y-89929234D01*
X102586000Y-90380766D01*
X102758793Y-90797926D01*
X103078074Y-91117207D01*
X103495234Y-91290000D01*
X103946766Y-91290000D01*
X104363926Y-91117207D01*
X104441133Y-91040000D01*
X106021422Y-91040000D01*
X111603000Y-96621579D01*
X111603000Y-96730766D01*
X111775793Y-97147926D01*
X112095074Y-97467207D01*
X112512234Y-97640000D01*
X112963766Y-97640000D01*
X113380926Y-97467207D01*
X113700207Y-97147926D01*
X113873000Y-96730766D01*
X113873000Y-96279234D01*
X113860642Y-96249398D01*
X118565000Y-96249398D01*
X118565000Y-96760602D01*
X118760629Y-97232894D01*
X119122106Y-97594371D01*
X119594398Y-97790000D01*
X119822560Y-97790000D01*
X119822560Y-98425000D01*
X119871843Y-98672765D01*
X120012191Y-98882809D01*
X120222235Y-99023157D01*
X120470000Y-99072440D01*
X121770000Y-99072440D01*
X122017765Y-99023157D01*
X122227809Y-98882809D01*
X122368157Y-98672765D01*
X122417440Y-98425000D01*
X122417440Y-97125000D01*
X122368157Y-96877235D01*
X122227809Y-96667191D01*
X122017765Y-96526843D01*
X121906595Y-96504730D01*
X132982013Y-96504730D01*
X132982013Y-98229300D01*
X133641977Y-99822595D01*
X134861433Y-101042051D01*
X136454728Y-101702015D01*
X138179298Y-101702015D01*
X139772593Y-101042051D01*
X140992049Y-99822595D01*
X141652013Y-98229300D01*
X141652013Y-96504730D01*
X140992049Y-94911435D01*
X139772593Y-93691979D01*
X138179298Y-93032015D01*
X136454728Y-93032015D01*
X134861433Y-93691979D01*
X133641977Y-94911435D01*
X132982013Y-96504730D01*
X121906595Y-96504730D01*
X121770000Y-96477560D01*
X121511046Y-96477560D01*
X121783729Y-96364611D01*
X121839410Y-96134016D01*
X121120000Y-95414605D01*
X121105858Y-95428748D01*
X120926253Y-95249143D01*
X120940395Y-95235000D01*
X121299605Y-95235000D01*
X122019016Y-95954410D01*
X122249611Y-95898729D01*
X122417622Y-95415922D01*
X122388083Y-94905572D01*
X122249611Y-94571271D01*
X122019016Y-94515590D01*
X121299605Y-95235000D01*
X120940395Y-95235000D01*
X120220984Y-94515590D01*
X119990389Y-94571271D01*
X119822378Y-95054078D01*
X119831982Y-95220000D01*
X119594398Y-95220000D01*
X119122106Y-95415629D01*
X118760629Y-95777106D01*
X118565000Y-96249398D01*
X113860642Y-96249398D01*
X113700207Y-95862074D01*
X113380926Y-95542793D01*
X112963766Y-95370000D01*
X112854579Y-95370000D01*
X111820563Y-94335984D01*
X120400590Y-94335984D01*
X121120000Y-95055395D01*
X121839410Y-94335984D01*
X121783729Y-94105389D01*
X121300922Y-93937378D01*
X120790572Y-93966917D01*
X120456271Y-94105389D01*
X120400590Y-94335984D01*
X111820563Y-94335984D01*
X107075425Y-89590847D01*
X107026049Y-89516951D01*
X106733310Y-89321348D01*
X106475165Y-89270000D01*
X106475161Y-89270000D01*
X106388000Y-89252663D01*
X106300839Y-89270000D01*
X104441133Y-89270000D01*
X104363926Y-89192793D01*
X103946766Y-89020000D01*
X103495234Y-89020000D01*
X103078074Y-89192793D01*
X102758793Y-89512074D01*
X102586000Y-89929234D01*
X99512361Y-89929234D01*
X99283926Y-89700799D01*
X98866766Y-89528006D01*
X98415234Y-89528006D01*
X97998074Y-89700799D01*
X97678793Y-90020080D01*
X97506000Y-90437240D01*
X95221818Y-90437240D01*
X94544855Y-89760278D01*
X94777207Y-89527926D01*
X94950000Y-89110766D01*
X94950000Y-88659234D01*
X114905000Y-88659234D01*
X114905000Y-89110766D01*
X115077793Y-89527926D01*
X115397074Y-89847207D01*
X115814234Y-90020000D01*
X116265766Y-90020000D01*
X116382902Y-89971481D01*
X119223000Y-92811579D01*
X119223000Y-92920766D01*
X119395793Y-93337926D01*
X119715074Y-93657207D01*
X120132234Y-93830000D01*
X120583766Y-93830000D01*
X121000926Y-93657207D01*
X121320207Y-93337926D01*
X121493000Y-92920766D01*
X121493000Y-92469234D01*
X121320207Y-92052074D01*
X121000926Y-91732793D01*
X120583766Y-91560000D01*
X120474579Y-91560000D01*
X117235425Y-88320847D01*
X117186049Y-88246951D01*
X116893310Y-88051348D01*
X116791163Y-88031030D01*
X116682926Y-87922793D01*
X116265766Y-87750000D01*
X115814234Y-87750000D01*
X115397074Y-87922793D01*
X115077793Y-88242074D01*
X114905000Y-88659234D01*
X94950000Y-88659234D01*
X94777207Y-88242074D01*
X94700000Y-88164867D01*
X94700000Y-87448161D01*
X94717337Y-87361000D01*
X94700000Y-87273839D01*
X94700000Y-87273835D01*
X94648652Y-87015690D01*
X94600957Y-86944310D01*
X94502424Y-86796845D01*
X94502423Y-86796844D01*
X94453049Y-86722951D01*
X94379156Y-86673577D01*
X93913057Y-86207479D01*
X94043287Y-86207479D01*
X94460447Y-86034686D01*
X94779728Y-85715405D01*
X94952521Y-85298245D01*
X94952521Y-84846713D01*
X94779728Y-84429553D01*
X94460447Y-84110272D01*
X94043287Y-83937479D01*
X93934099Y-83937479D01*
X93872467Y-83875846D01*
X93823091Y-83801951D01*
X93530352Y-83606348D01*
X93272207Y-83555000D01*
X93272203Y-83555000D01*
X93185042Y-83537663D01*
X93097881Y-83555000D01*
X91355722Y-83555000D01*
X91339126Y-83471565D01*
X91144586Y-83180414D01*
X90853435Y-82985874D01*
X90510000Y-82917560D01*
X89760000Y-82917560D01*
X89416565Y-82985874D01*
X89125414Y-83180414D01*
X88930874Y-83471565D01*
X88862560Y-83815000D01*
X88607440Y-83815000D01*
X88539126Y-83471565D01*
X88344586Y-83180414D01*
X88053435Y-82985874D01*
X87710000Y-82917560D01*
X86960000Y-82917560D01*
X86616565Y-82985874D01*
X86325414Y-83180414D01*
X86130874Y-83471565D01*
X86114278Y-83555000D01*
X85912868Y-83555000D01*
X85766301Y-83457068D01*
X85442000Y-83392560D01*
X85042000Y-83392560D01*
X84717699Y-83457068D01*
X84471558Y-83621533D01*
X84351698Y-83501673D01*
X84118309Y-83405000D01*
X83877750Y-83405000D01*
X83719000Y-83563750D01*
X83465000Y-83563750D01*
X83306250Y-83405000D01*
X83065691Y-83405000D01*
X82832302Y-83501673D01*
X82653673Y-83680301D01*
X82557000Y-83913690D01*
X80730000Y-83913690D01*
X80730000Y-81350133D01*
X80807207Y-81272926D01*
X80980000Y-80855766D01*
X80980000Y-80404234D01*
X80807207Y-79987074D01*
X80487926Y-79667793D01*
X80070766Y-79495000D01*
X79619234Y-79495000D01*
X79202074Y-79667793D01*
X78882793Y-79987074D01*
X78710000Y-80404234D01*
X63462000Y-80404234D01*
X63462000Y-75324234D01*
X67407000Y-75324234D01*
X67407000Y-75775766D01*
X67579793Y-76192926D01*
X67635367Y-76248500D01*
X67579793Y-76304074D01*
X67407000Y-76721234D01*
X67407000Y-77172766D01*
X67579793Y-77589926D01*
X67899074Y-77909207D01*
X68316234Y-78082000D01*
X68767766Y-78082000D01*
X69184926Y-77909207D01*
X69262133Y-77832000D01*
X75947839Y-77832000D01*
X76035000Y-77849337D01*
X76122161Y-77832000D01*
X76122165Y-77832000D01*
X76380310Y-77780652D01*
X76673049Y-77585049D01*
X76722425Y-77511153D01*
X78433579Y-75800000D01*
X83034422Y-75800000D01*
X83790000Y-76555579D01*
X83790000Y-76664766D01*
X83962793Y-77081926D01*
X84282074Y-77401207D01*
X84699234Y-77574000D01*
X85150766Y-77574000D01*
X85567926Y-77401207D01*
X85887207Y-77081926D01*
X86060000Y-76664766D01*
X86060000Y-76213234D01*
X85887207Y-75796074D01*
X85567926Y-75476793D01*
X85150766Y-75304000D01*
X85041579Y-75304000D01*
X84267578Y-74530000D01*
X90654422Y-74530000D01*
X92680000Y-76555579D01*
X92680000Y-76664766D01*
X92852793Y-77081926D01*
X93172074Y-77401207D01*
X93589234Y-77574000D01*
X94040766Y-77574000D01*
X94457926Y-77401207D01*
X94777207Y-77081926D01*
X94950000Y-76664766D01*
X94950000Y-76213234D01*
X94777207Y-75796074D01*
X94457926Y-75476793D01*
X94040766Y-75304000D01*
X93931579Y-75304000D01*
X93316813Y-74689234D01*
X96490000Y-74689234D01*
X96490000Y-75140766D01*
X96662793Y-75557926D01*
X96982074Y-75877207D01*
X97399234Y-76050000D01*
X97850766Y-76050000D01*
X98267926Y-75877207D01*
X98345133Y-75800000D01*
X99171421Y-75800000D01*
X97926367Y-77045055D01*
X97852474Y-77094429D01*
X97803100Y-77168322D01*
X97803098Y-77168324D01*
X97656870Y-77387169D01*
X97588185Y-77732478D01*
X97605523Y-77819643D01*
X97605522Y-83057165D01*
X97528315Y-83134372D01*
X97355522Y-83551532D01*
X97355522Y-84003064D01*
X97528315Y-84420224D01*
X97847596Y-84739505D01*
X98264756Y-84912298D01*
X98716288Y-84912298D01*
X99119245Y-84745388D01*
X99141074Y-84767217D01*
X99558234Y-84940010D01*
X100009766Y-84940010D01*
X100426926Y-84767217D01*
X100746207Y-84447936D01*
X100919000Y-84030776D01*
X100919000Y-83579244D01*
X100746207Y-83162084D01*
X100669000Y-83084877D01*
X100669000Y-80715133D01*
X100746207Y-80637926D01*
X100919000Y-80220766D01*
X100919000Y-79769234D01*
X100746207Y-79352074D01*
X100426926Y-79032793D01*
X100009766Y-78860000D01*
X99558234Y-78860000D01*
X99375522Y-78935682D01*
X99375522Y-78099056D01*
X100658579Y-76816000D01*
X107572867Y-76816000D01*
X107650074Y-76893207D01*
X108067234Y-77066000D01*
X108518766Y-77066000D01*
X108935926Y-76893207D01*
X109255207Y-76573926D01*
X109428000Y-76156766D01*
X109428000Y-75800000D01*
X110366867Y-75800000D01*
X110444074Y-75877207D01*
X110861234Y-76050000D01*
X111312766Y-76050000D01*
X111729926Y-75877207D01*
X112049207Y-75557926D01*
X112222000Y-75140766D01*
X112222000Y-74689234D01*
X112049207Y-74272074D01*
X111729926Y-73952793D01*
X111312766Y-73780000D01*
X110861234Y-73780000D01*
X110444074Y-73952793D01*
X110366867Y-74030000D01*
X98345133Y-74030000D01*
X98267926Y-73952793D01*
X97850766Y-73780000D01*
X97399234Y-73780000D01*
X96982074Y-73952793D01*
X96662793Y-74272074D01*
X96490000Y-74689234D01*
X93316813Y-74689234D01*
X91708425Y-73080847D01*
X91659049Y-73006951D01*
X91366310Y-72811348D01*
X91108165Y-72760000D01*
X91108161Y-72760000D01*
X91021000Y-72742663D01*
X90933839Y-72760000D01*
X81073133Y-72760000D01*
X80995926Y-72682793D01*
X80578766Y-72510000D01*
X80127234Y-72510000D01*
X79710074Y-72682793D01*
X79390793Y-73002074D01*
X79218000Y-73419234D01*
X79218000Y-73870766D01*
X79283957Y-74030000D01*
X78154161Y-74030000D01*
X78067000Y-74012663D01*
X77979839Y-74030000D01*
X77979835Y-74030000D01*
X77721690Y-74081348D01*
X77613864Y-74153395D01*
X77505207Y-73891074D01*
X77185926Y-73571793D01*
X76768766Y-73399000D01*
X76317234Y-73399000D01*
X75900074Y-73571793D01*
X75580793Y-73891074D01*
X75408000Y-74308234D01*
X75408000Y-74417421D01*
X74779422Y-75046000D01*
X69996684Y-75046000D01*
X69936531Y-74985847D01*
X69887155Y-74911951D01*
X69594416Y-74716348D01*
X69336271Y-74665000D01*
X69336267Y-74665000D01*
X69249106Y-74647663D01*
X69245511Y-74648378D01*
X69184926Y-74587793D01*
X68767766Y-74415000D01*
X68316234Y-74415000D01*
X67899074Y-74587793D01*
X67579793Y-74907074D01*
X67407000Y-75324234D01*
X63462000Y-75324234D01*
X63462000Y-71867000D01*
X74130000Y-71867000D01*
X74178601Y-71857333D01*
X74219803Y-71829803D01*
X74247333Y-71788601D01*
X74257000Y-71740000D01*
X74257000Y-69063320D01*
X83451285Y-69063320D01*
X83580533Y-69356123D01*
X84280806Y-69624388D01*
X85030435Y-69604250D01*
X85629467Y-69356123D01*
X85758715Y-69063320D01*
X84605000Y-67909605D01*
X83451285Y-69063320D01*
X74257000Y-69063320D01*
X74257000Y-67405806D01*
X82710612Y-67405806D01*
X82730750Y-68155435D01*
X82978877Y-68754467D01*
X83271680Y-68883715D01*
X84425395Y-67730000D01*
X84784605Y-67730000D01*
X85938320Y-68883715D01*
X86231123Y-68754467D01*
X86499388Y-68054194D01*
X86479250Y-67304565D01*
X86231123Y-66705533D01*
X85938320Y-66576285D01*
X84784605Y-67730000D01*
X84425395Y-67730000D01*
X83271680Y-66576285D01*
X82978877Y-66705533D01*
X82710612Y-67405806D01*
X74257000Y-67405806D01*
X74257000Y-66396680D01*
X83451285Y-66396680D01*
X84605000Y-67550395D01*
X85758715Y-66396680D01*
X85629467Y-66103877D01*
X84929194Y-65835612D01*
X84179565Y-65855750D01*
X83580533Y-66103877D01*
X83451285Y-66396680D01*
X74257000Y-66396680D01*
X74257000Y-61742750D01*
X85821667Y-61742750D01*
X85821667Y-64433309D01*
X85918340Y-64666698D01*
X86096968Y-64845327D01*
X86330357Y-64942000D01*
X89270917Y-64942000D01*
X89429667Y-64783250D01*
X89429667Y-61584000D01*
X89683667Y-61584000D01*
X89683667Y-64783250D01*
X89842417Y-64942000D01*
X92782977Y-64942000D01*
X93016366Y-64845327D01*
X93194994Y-64666698D01*
X93291667Y-64433309D01*
X93291667Y-63747000D01*
X95425736Y-63747000D01*
X95541669Y-64329832D01*
X95871816Y-64823934D01*
X96365918Y-65154081D01*
X96801631Y-65240750D01*
X97178369Y-65240750D01*
X97614082Y-65154081D01*
X98108184Y-64823934D01*
X98438331Y-64329832D01*
X98478173Y-64129532D01*
X121497073Y-64129532D01*
X121595736Y-64396387D01*
X122205461Y-64622908D01*
X122855460Y-64598856D01*
X123344264Y-64396387D01*
X123442927Y-64129532D01*
X122470000Y-63156605D01*
X121497073Y-64129532D01*
X98478173Y-64129532D01*
X98554264Y-63747000D01*
X98438331Y-63164168D01*
X98136512Y-62712461D01*
X120824092Y-62712461D01*
X120848144Y-63362460D01*
X121050613Y-63851264D01*
X121317468Y-63949927D01*
X122290395Y-62977000D01*
X122649605Y-62977000D01*
X123622532Y-63949927D01*
X123889387Y-63851264D01*
X124115908Y-63241539D01*
X124091856Y-62591540D01*
X123889387Y-62102736D01*
X123622532Y-62004073D01*
X122649605Y-62977000D01*
X122290395Y-62977000D01*
X121317468Y-62004073D01*
X121050613Y-62102736D01*
X120824092Y-62712461D01*
X98136512Y-62712461D01*
X98108184Y-62670066D01*
X97978619Y-62583494D01*
X98287174Y-62263490D01*
X98477411Y-61824468D01*
X121497073Y-61824468D01*
X122470000Y-62797395D01*
X123442927Y-61824468D01*
X123344264Y-61557613D01*
X122734539Y-61331092D01*
X122084540Y-61355144D01*
X121595736Y-61557613D01*
X121497073Y-61824468D01*
X98477411Y-61824468D01*
X98481400Y-61815264D01*
X98360195Y-61584000D01*
X97117000Y-61584000D01*
X97117000Y-61604000D01*
X96863000Y-61604000D01*
X96863000Y-61584000D01*
X95619805Y-61584000D01*
X95498600Y-61815264D01*
X95692826Y-62263490D01*
X96001381Y-62583494D01*
X95871816Y-62670066D01*
X95541669Y-63164168D01*
X95425736Y-63747000D01*
X93291667Y-63747000D01*
X93291667Y-61742750D01*
X93132917Y-61584000D01*
X89683667Y-61584000D01*
X89429667Y-61584000D01*
X85980417Y-61584000D01*
X85821667Y-61742750D01*
X74257000Y-61742750D01*
X74257000Y-58480691D01*
X85821667Y-58480691D01*
X85821667Y-61171250D01*
X85980417Y-61330000D01*
X89429667Y-61330000D01*
X89429667Y-58130750D01*
X89683667Y-58130750D01*
X89683667Y-61330000D01*
X93132917Y-61330000D01*
X93291667Y-61171250D01*
X93291667Y-58480691D01*
X93220240Y-58308250D01*
X95442560Y-58308250D01*
X95442560Y-60025750D01*
X95491843Y-60273515D01*
X95632191Y-60483559D01*
X95766969Y-60573616D01*
X95692826Y-60650510D01*
X95498600Y-61098736D01*
X95619805Y-61330000D01*
X96863000Y-61330000D01*
X96863000Y-61310000D01*
X97117000Y-61310000D01*
X97117000Y-61330000D01*
X98360195Y-61330000D01*
X98481400Y-61098736D01*
X98287174Y-60650510D01*
X98213031Y-60573616D01*
X98347809Y-60483559D01*
X98488157Y-60273515D01*
X98537440Y-60025750D01*
X98537440Y-59510000D01*
X110020560Y-59510000D01*
X110020560Y-61110000D01*
X110069843Y-61357765D01*
X110210191Y-61567809D01*
X110420235Y-61708157D01*
X110668000Y-61757440D01*
X112268000Y-61757440D01*
X112515765Y-61708157D01*
X112725809Y-61567809D01*
X112866157Y-61357765D01*
X112874117Y-61317745D01*
X113139861Y-61317745D01*
X113213995Y-61563864D01*
X113751223Y-61756965D01*
X114321454Y-61729778D01*
X114722005Y-61563864D01*
X114796139Y-61317745D01*
X113968000Y-60489605D01*
X113139861Y-61317745D01*
X112874117Y-61317745D01*
X112912693Y-61123813D01*
X112960255Y-61138139D01*
X113788395Y-60310000D01*
X114147605Y-60310000D01*
X114975745Y-61138139D01*
X115221864Y-61064005D01*
X115414965Y-60526777D01*
X115387778Y-59956546D01*
X115221864Y-59555995D01*
X114975745Y-59481861D01*
X114147605Y-60310000D01*
X113788395Y-60310000D01*
X112960255Y-59481861D01*
X112912693Y-59496187D01*
X112874118Y-59302255D01*
X113139861Y-59302255D01*
X113968000Y-60130395D01*
X114796139Y-59302255D01*
X114722005Y-59056136D01*
X114184777Y-58863035D01*
X113614546Y-58890222D01*
X113213995Y-59056136D01*
X113139861Y-59302255D01*
X112874118Y-59302255D01*
X112866157Y-59262235D01*
X112725809Y-59052191D01*
X112515765Y-58911843D01*
X112268000Y-58862560D01*
X110668000Y-58862560D01*
X110420235Y-58911843D01*
X110210191Y-59052191D01*
X110069843Y-59262235D01*
X110020560Y-59510000D01*
X98537440Y-59510000D01*
X98537440Y-58308250D01*
X98488157Y-58060485D01*
X98347809Y-57850441D01*
X98137765Y-57710093D01*
X97890000Y-57660810D01*
X96090000Y-57660810D01*
X95842235Y-57710093D01*
X95632191Y-57850441D01*
X95491843Y-58060485D01*
X95442560Y-58308250D01*
X93220240Y-58308250D01*
X93194994Y-58247302D01*
X93016366Y-58068673D01*
X92782977Y-57972000D01*
X89842417Y-57972000D01*
X89683667Y-58130750D01*
X89429667Y-58130750D01*
X89270917Y-57972000D01*
X86330357Y-57972000D01*
X86096968Y-58068673D01*
X85918340Y-58247302D01*
X85821667Y-58480691D01*
X74257000Y-58480691D01*
X74257000Y-54855050D01*
X82720000Y-54855050D01*
X82720000Y-55604950D01*
X83006974Y-56297767D01*
X83537233Y-56828026D01*
X84230050Y-57115000D01*
X84979950Y-57115000D01*
X85672767Y-56828026D01*
X86135793Y-56365000D01*
X118961000Y-56365000D01*
X118961000Y-58278000D01*
X118970667Y-58326601D01*
X118998197Y-58367803D01*
X119039399Y-58395333D01*
X119088000Y-58405000D01*
X126335001Y-58405000D01*
X126335000Y-61356413D01*
X126222235Y-61378843D01*
X126012191Y-61519191D01*
X125871843Y-61729235D01*
X125822560Y-61977000D01*
X125822560Y-63977000D01*
X125835000Y-64039541D01*
X125835001Y-67426000D01*
X120382133Y-67426000D01*
X120304926Y-67348793D01*
X119887766Y-67176000D01*
X119436234Y-67176000D01*
X119019074Y-67348793D01*
X118699793Y-67668074D01*
X118527000Y-68085234D01*
X118527000Y-68536766D01*
X118699793Y-68953926D01*
X119019074Y-69273207D01*
X119436234Y-69446000D01*
X119887766Y-69446000D01*
X120304926Y-69273207D01*
X120382133Y-69196000D01*
X125835000Y-69196000D01*
X125835001Y-71613000D01*
X123914000Y-71613000D01*
X123865399Y-71622667D01*
X123824197Y-71650197D01*
X123796667Y-71691399D01*
X123787000Y-71740000D01*
X123787000Y-91806000D01*
X123796667Y-91854601D01*
X123824197Y-91895803D01*
X123865399Y-91923333D01*
X123914000Y-91933000D01*
X153124000Y-91933000D01*
X153172601Y-91923333D01*
X153213803Y-91895803D01*
X153241333Y-91854601D01*
X153251000Y-91806000D01*
X153251000Y-71740000D01*
X153241333Y-71691399D01*
X153213803Y-71650197D01*
X153172601Y-71622667D01*
X153124000Y-71613000D01*
X129105000Y-71613000D01*
X129105000Y-69736234D01*
X131796004Y-69736234D01*
X131796004Y-70187766D01*
X131968797Y-70604926D01*
X132288078Y-70924207D01*
X132705238Y-71097000D01*
X133156770Y-71097000D01*
X133573930Y-70924207D01*
X133651137Y-70847000D01*
X139449867Y-70847000D01*
X139527074Y-70924207D01*
X139944234Y-71097000D01*
X140395766Y-71097000D01*
X140812926Y-70924207D01*
X140890127Y-70847006D01*
X143259861Y-70847006D01*
X143337068Y-70924213D01*
X143754228Y-71097006D01*
X144205760Y-71097006D01*
X144622920Y-70924213D01*
X144942201Y-70604932D01*
X145114994Y-70187772D01*
X145114994Y-69736240D01*
X144942201Y-69319080D01*
X144622920Y-68999799D01*
X144205760Y-68827006D01*
X143754228Y-68827006D01*
X143337068Y-68999799D01*
X143259861Y-69077006D01*
X140890139Y-69077006D01*
X140812926Y-68999793D01*
X140395766Y-68827000D01*
X139944234Y-68827000D01*
X139527074Y-68999793D01*
X139449867Y-69077000D01*
X133651137Y-69077000D01*
X133573930Y-68999793D01*
X133156770Y-68827000D01*
X132705238Y-68827000D01*
X132288078Y-68999793D01*
X131968797Y-69319074D01*
X131796004Y-69736234D01*
X129105000Y-69736234D01*
X129105000Y-64039541D01*
X129117440Y-63977000D01*
X129117440Y-61977000D01*
X129068157Y-61729235D01*
X128927809Y-61519191D01*
X128717765Y-61378843D01*
X128605000Y-61356413D01*
X128605000Y-58405000D01*
X128994000Y-58405000D01*
X129042601Y-58395333D01*
X129083803Y-58367803D01*
X129111333Y-58326601D01*
X129121000Y-58278000D01*
X129121000Y-55098093D01*
X129137031Y-55017500D01*
X129121000Y-54936907D01*
X129121000Y-52075000D01*
X130925560Y-52075000D01*
X130925560Y-54575000D01*
X130974843Y-54822765D01*
X131115191Y-55032809D01*
X131325235Y-55173157D01*
X131573000Y-55222440D01*
X133273000Y-55222440D01*
X133520765Y-55173157D01*
X133730809Y-55032809D01*
X133871157Y-54822765D01*
X133880184Y-54777381D01*
X133892375Y-54795625D01*
X134383583Y-55123839D01*
X134963000Y-55239092D01*
X135542418Y-55123839D01*
X136033625Y-54795625D01*
X136240232Y-54486416D01*
X136542749Y-54864856D01*
X137052048Y-55145562D01*
X137146110Y-55166476D01*
X137376000Y-55045155D01*
X137376000Y-53452000D01*
X137356000Y-53452000D01*
X137356000Y-53198000D01*
X137376000Y-53198000D01*
X137376000Y-51604845D01*
X137630000Y-51604845D01*
X137630000Y-53198000D01*
X137650000Y-53198000D01*
X137650000Y-53452000D01*
X137630000Y-53452000D01*
X137630000Y-55045155D01*
X137859890Y-55166476D01*
X137953952Y-55145562D01*
X138463251Y-54864856D01*
X138765768Y-54486416D01*
X138972375Y-54795625D01*
X139463583Y-55123839D01*
X140043000Y-55239092D01*
X140622418Y-55123839D01*
X141113625Y-54795625D01*
X141313000Y-54497239D01*
X141512375Y-54795625D01*
X142003583Y-55123839D01*
X142583000Y-55239092D01*
X143162418Y-55123839D01*
X143653625Y-54795625D01*
X143853000Y-54497239D01*
X144052375Y-54795625D01*
X144543583Y-55123839D01*
X145123000Y-55239092D01*
X145702418Y-55123839D01*
X146193625Y-54795625D01*
X146521839Y-54304418D01*
X146608000Y-53871255D01*
X146608000Y-52778744D01*
X146521839Y-52345582D01*
X146193625Y-51854375D01*
X145702417Y-51526161D01*
X145123000Y-51410908D01*
X144543582Y-51526161D01*
X144052375Y-51854375D01*
X143853000Y-52152761D01*
X143653625Y-51854375D01*
X143162417Y-51526161D01*
X142583000Y-51410908D01*
X142003582Y-51526161D01*
X141512375Y-51854375D01*
X141313000Y-52152761D01*
X141113625Y-51854375D01*
X140622417Y-51526161D01*
X140043000Y-51410908D01*
X139463582Y-51526161D01*
X138972375Y-51854375D01*
X138765769Y-52163584D01*
X138463251Y-51785144D01*
X137953952Y-51504438D01*
X137859890Y-51483524D01*
X137630000Y-51604845D01*
X137376000Y-51604845D01*
X137146110Y-51483524D01*
X137052048Y-51504438D01*
X136542749Y-51785144D01*
X136240232Y-52163584D01*
X136033625Y-51854375D01*
X135542417Y-51526161D01*
X134963000Y-51410908D01*
X134383582Y-51526161D01*
X133892375Y-51854375D01*
X133880184Y-51872619D01*
X133871157Y-51827235D01*
X133730809Y-51617191D01*
X133520765Y-51476843D01*
X133273000Y-51427560D01*
X131573000Y-51427560D01*
X131325235Y-51476843D01*
X131115191Y-51617191D01*
X130974843Y-51827235D01*
X130925560Y-52075000D01*
X129121000Y-52075000D01*
X129121000Y-51674000D01*
X129111333Y-51625399D01*
X129083803Y-51584197D01*
X129042601Y-51556667D01*
X128994000Y-51547000D01*
X119088000Y-51547000D01*
X119039399Y-51556667D01*
X118998197Y-51584197D01*
X118970667Y-51625399D01*
X118961000Y-51674000D01*
X118961000Y-54095000D01*
X86135793Y-54095000D01*
X85672767Y-53631974D01*
X84979950Y-53345000D01*
X84230050Y-53345000D01*
X83537233Y-53631974D01*
X83006974Y-54162233D01*
X82720000Y-54855050D01*
X74257000Y-54855050D01*
X74257000Y-50707600D01*
X152169510Y-50707600D01*
X154293600Y-52831691D01*
G04 #@! TO.N,GNDD*
G36*
X67653000Y-69708000D02*
X62204720Y-69708000D01*
X62471397Y-69063320D01*
X63451285Y-69063320D01*
X63580533Y-69356123D01*
X64280806Y-69624388D01*
X65030435Y-69604250D01*
X65629467Y-69356123D01*
X65758715Y-69063320D01*
X64605000Y-67909605D01*
X63451285Y-69063320D01*
X62471397Y-69063320D01*
X62635294Y-68667108D01*
X62634705Y-67419928D01*
X62628856Y-67405806D01*
X62710612Y-67405806D01*
X62730750Y-68155435D01*
X62978877Y-68754467D01*
X63271680Y-68883715D01*
X64425395Y-67730000D01*
X64784605Y-67730000D01*
X65938320Y-68883715D01*
X66231123Y-68754467D01*
X66499388Y-68054194D01*
X66479250Y-67304565D01*
X66231123Y-66705533D01*
X65938320Y-66576285D01*
X64784605Y-67730000D01*
X64425395Y-67730000D01*
X63271680Y-66576285D01*
X62978877Y-66705533D01*
X62710612Y-67405806D01*
X62628856Y-67405806D01*
X62210863Y-66396680D01*
X63451285Y-66396680D01*
X64605000Y-67550395D01*
X65758715Y-66396680D01*
X65629467Y-66103877D01*
X64929194Y-65835612D01*
X64179565Y-65855750D01*
X63580533Y-66103877D01*
X63451285Y-66396680D01*
X62210863Y-66396680D01*
X62158564Y-66270421D01*
X61735880Y-65988725D01*
X59679605Y-68045000D01*
X59693748Y-68059143D01*
X59514143Y-68238748D01*
X59500000Y-68224605D01*
X57443725Y-70280880D01*
X57520043Y-70395394D01*
X57502667Y-70421399D01*
X57493000Y-70470000D01*
X57493000Y-74988125D01*
X57301333Y-74950000D01*
X56618667Y-74950000D01*
X56200091Y-75033260D01*
X55725423Y-75350423D01*
X55408260Y-75825091D01*
X55296887Y-76385000D01*
X55408260Y-76944909D01*
X55725423Y-77419577D01*
X56200091Y-77736740D01*
X56367300Y-77770000D01*
X56200091Y-77803260D01*
X55725423Y-78120423D01*
X55408260Y-78595091D01*
X55296887Y-79155000D01*
X55408260Y-79714909D01*
X55725423Y-80189577D01*
X56200091Y-80506740D01*
X56367300Y-80540000D01*
X56200091Y-80573260D01*
X55725423Y-80890423D01*
X55408260Y-81365091D01*
X55296887Y-81925000D01*
X55408260Y-82484909D01*
X55725423Y-82959577D01*
X56200091Y-83276740D01*
X56367300Y-83310000D01*
X56200091Y-83343260D01*
X55725423Y-83660423D01*
X55408260Y-84135091D01*
X55296887Y-84695000D01*
X55408260Y-85254909D01*
X55725423Y-85729577D01*
X56200091Y-86046740D01*
X56367300Y-86080000D01*
X56200091Y-86113260D01*
X55725423Y-86430423D01*
X55408260Y-86905091D01*
X55296887Y-87465000D01*
X55408260Y-88024909D01*
X55725423Y-88499577D01*
X56200091Y-88816740D01*
X56367300Y-88850000D01*
X56200091Y-88883260D01*
X55725423Y-89200423D01*
X55408260Y-89675091D01*
X55296887Y-90235000D01*
X55408260Y-90794909D01*
X55725423Y-91269577D01*
X56200091Y-91586740D01*
X56367300Y-91620000D01*
X56200091Y-91653260D01*
X55725423Y-91970423D01*
X55408260Y-92445091D01*
X55296887Y-93005000D01*
X55408260Y-93564909D01*
X55725423Y-94039577D01*
X56200091Y-94356740D01*
X56618667Y-94440000D01*
X57301333Y-94440000D01*
X57719909Y-94356740D01*
X58152560Y-94067652D01*
X58152560Y-95190000D01*
X58201843Y-95437765D01*
X58342191Y-95647809D01*
X58552235Y-95788157D01*
X58800000Y-95837440D01*
X60800000Y-95837440D01*
X61047765Y-95788157D01*
X61257809Y-95647809D01*
X61303000Y-95580176D01*
X61303000Y-98729082D01*
X61274579Y-98686436D01*
X60122108Y-98209706D01*
X58874928Y-98210295D01*
X57725421Y-98686436D01*
X57443725Y-99109120D01*
X59500000Y-101165395D01*
X59514143Y-101151253D01*
X59693748Y-101330858D01*
X59679605Y-101345000D01*
X59693748Y-101359143D01*
X59514143Y-101538748D01*
X59500000Y-101524605D01*
X57443725Y-103580880D01*
X57725421Y-104003564D01*
X58877892Y-104480294D01*
X60125072Y-104479705D01*
X61274579Y-104003564D01*
X61303000Y-103960918D01*
X61303000Y-119290000D01*
X52834091Y-119290000D01*
X50710000Y-117165910D01*
X50710000Y-100722892D01*
X56364706Y-100722892D01*
X56365295Y-101970072D01*
X56841436Y-103119579D01*
X57264120Y-103401275D01*
X59320395Y-101345000D01*
X57264120Y-99288725D01*
X56841436Y-99570421D01*
X56364706Y-100722892D01*
X50710000Y-100722892D01*
X50710000Y-67422892D01*
X56364706Y-67422892D01*
X56365295Y-68670072D01*
X56841436Y-69819579D01*
X57264120Y-70101275D01*
X59320395Y-68045000D01*
X57264120Y-65988725D01*
X56841436Y-66270421D01*
X56364706Y-67422892D01*
X50710000Y-67422892D01*
X50710000Y-65809120D01*
X57443725Y-65809120D01*
X59500000Y-67865395D01*
X61556275Y-65809120D01*
X61274579Y-65386436D01*
X60122108Y-64909706D01*
X58874928Y-64910295D01*
X57725421Y-65386436D01*
X57443725Y-65809120D01*
X50710000Y-65809120D01*
X50710000Y-60187500D01*
X57957857Y-60187500D01*
X57957857Y-63107500D01*
X61092143Y-63107500D01*
X61092143Y-60187500D01*
X57957857Y-60187500D01*
X50710000Y-60187500D01*
X50710000Y-53980000D01*
X62707560Y-53980000D01*
X62707560Y-56480000D01*
X62756843Y-56727765D01*
X62897191Y-56937809D01*
X63107235Y-57078157D01*
X63355000Y-57127440D01*
X65855000Y-57127440D01*
X66102765Y-57078157D01*
X66312809Y-56937809D01*
X66453157Y-56727765D01*
X66502440Y-56480000D01*
X66502440Y-53980000D01*
X66453157Y-53732235D01*
X66312809Y-53522191D01*
X66102765Y-53381843D01*
X65855000Y-53332560D01*
X63355000Y-53332560D01*
X63107235Y-53381843D01*
X62897191Y-53522191D01*
X62756843Y-53732235D01*
X62707560Y-53980000D01*
X50710000Y-53980000D01*
X50710000Y-52831690D01*
X52834091Y-50707600D01*
X67653000Y-50707600D01*
X67653000Y-69708000D01*
X67653000Y-69708000D01*
G37*
X67653000Y-69708000D02*
X62204720Y-69708000D01*
X62471397Y-69063320D01*
X63451285Y-69063320D01*
X63580533Y-69356123D01*
X64280806Y-69624388D01*
X65030435Y-69604250D01*
X65629467Y-69356123D01*
X65758715Y-69063320D01*
X64605000Y-67909605D01*
X63451285Y-69063320D01*
X62471397Y-69063320D01*
X62635294Y-68667108D01*
X62634705Y-67419928D01*
X62628856Y-67405806D01*
X62710612Y-67405806D01*
X62730750Y-68155435D01*
X62978877Y-68754467D01*
X63271680Y-68883715D01*
X64425395Y-67730000D01*
X64784605Y-67730000D01*
X65938320Y-68883715D01*
X66231123Y-68754467D01*
X66499388Y-68054194D01*
X66479250Y-67304565D01*
X66231123Y-66705533D01*
X65938320Y-66576285D01*
X64784605Y-67730000D01*
X64425395Y-67730000D01*
X63271680Y-66576285D01*
X62978877Y-66705533D01*
X62710612Y-67405806D01*
X62628856Y-67405806D01*
X62210863Y-66396680D01*
X63451285Y-66396680D01*
X64605000Y-67550395D01*
X65758715Y-66396680D01*
X65629467Y-66103877D01*
X64929194Y-65835612D01*
X64179565Y-65855750D01*
X63580533Y-66103877D01*
X63451285Y-66396680D01*
X62210863Y-66396680D01*
X62158564Y-66270421D01*
X61735880Y-65988725D01*
X59679605Y-68045000D01*
X59693748Y-68059143D01*
X59514143Y-68238748D01*
X59500000Y-68224605D01*
X57443725Y-70280880D01*
X57520043Y-70395394D01*
X57502667Y-70421399D01*
X57493000Y-70470000D01*
X57493000Y-74988125D01*
X57301333Y-74950000D01*
X56618667Y-74950000D01*
X56200091Y-75033260D01*
X55725423Y-75350423D01*
X55408260Y-75825091D01*
X55296887Y-76385000D01*
X55408260Y-76944909D01*
X55725423Y-77419577D01*
X56200091Y-77736740D01*
X56367300Y-77770000D01*
X56200091Y-77803260D01*
X55725423Y-78120423D01*
X55408260Y-78595091D01*
X55296887Y-79155000D01*
X55408260Y-79714909D01*
X55725423Y-80189577D01*
X56200091Y-80506740D01*
X56367300Y-80540000D01*
X56200091Y-80573260D01*
X55725423Y-80890423D01*
X55408260Y-81365091D01*
X55296887Y-81925000D01*
X55408260Y-82484909D01*
X55725423Y-82959577D01*
X56200091Y-83276740D01*
X56367300Y-83310000D01*
X56200091Y-83343260D01*
X55725423Y-83660423D01*
X55408260Y-84135091D01*
X55296887Y-84695000D01*
X55408260Y-85254909D01*
X55725423Y-85729577D01*
X56200091Y-86046740D01*
X56367300Y-86080000D01*
X56200091Y-86113260D01*
X55725423Y-86430423D01*
X55408260Y-86905091D01*
X55296887Y-87465000D01*
X55408260Y-88024909D01*
X55725423Y-88499577D01*
X56200091Y-88816740D01*
X56367300Y-88850000D01*
X56200091Y-88883260D01*
X55725423Y-89200423D01*
X55408260Y-89675091D01*
X55296887Y-90235000D01*
X55408260Y-90794909D01*
X55725423Y-91269577D01*
X56200091Y-91586740D01*
X56367300Y-91620000D01*
X56200091Y-91653260D01*
X55725423Y-91970423D01*
X55408260Y-92445091D01*
X55296887Y-93005000D01*
X55408260Y-93564909D01*
X55725423Y-94039577D01*
X56200091Y-94356740D01*
X56618667Y-94440000D01*
X57301333Y-94440000D01*
X57719909Y-94356740D01*
X58152560Y-94067652D01*
X58152560Y-95190000D01*
X58201843Y-95437765D01*
X58342191Y-95647809D01*
X58552235Y-95788157D01*
X58800000Y-95837440D01*
X60800000Y-95837440D01*
X61047765Y-95788157D01*
X61257809Y-95647809D01*
X61303000Y-95580176D01*
X61303000Y-98729082D01*
X61274579Y-98686436D01*
X60122108Y-98209706D01*
X58874928Y-98210295D01*
X57725421Y-98686436D01*
X57443725Y-99109120D01*
X59500000Y-101165395D01*
X59514143Y-101151253D01*
X59693748Y-101330858D01*
X59679605Y-101345000D01*
X59693748Y-101359143D01*
X59514143Y-101538748D01*
X59500000Y-101524605D01*
X57443725Y-103580880D01*
X57725421Y-104003564D01*
X58877892Y-104480294D01*
X60125072Y-104479705D01*
X61274579Y-104003564D01*
X61303000Y-103960918D01*
X61303000Y-119290000D01*
X52834091Y-119290000D01*
X50710000Y-117165910D01*
X50710000Y-100722892D01*
X56364706Y-100722892D01*
X56365295Y-101970072D01*
X56841436Y-103119579D01*
X57264120Y-103401275D01*
X59320395Y-101345000D01*
X57264120Y-99288725D01*
X56841436Y-99570421D01*
X56364706Y-100722892D01*
X50710000Y-100722892D01*
X50710000Y-67422892D01*
X56364706Y-67422892D01*
X56365295Y-68670072D01*
X56841436Y-69819579D01*
X57264120Y-70101275D01*
X59320395Y-68045000D01*
X57264120Y-65988725D01*
X56841436Y-66270421D01*
X56364706Y-67422892D01*
X50710000Y-67422892D01*
X50710000Y-65809120D01*
X57443725Y-65809120D01*
X59500000Y-67865395D01*
X61556275Y-65809120D01*
X61274579Y-65386436D01*
X60122108Y-64909706D01*
X58874928Y-64910295D01*
X57725421Y-65386436D01*
X57443725Y-65809120D01*
X50710000Y-65809120D01*
X50710000Y-60187500D01*
X57957857Y-60187500D01*
X57957857Y-63107500D01*
X61092143Y-63107500D01*
X61092143Y-60187500D01*
X57957857Y-60187500D01*
X50710000Y-60187500D01*
X50710000Y-53980000D01*
X62707560Y-53980000D01*
X62707560Y-56480000D01*
X62756843Y-56727765D01*
X62897191Y-56937809D01*
X63107235Y-57078157D01*
X63355000Y-57127440D01*
X65855000Y-57127440D01*
X66102765Y-57078157D01*
X66312809Y-56937809D01*
X66453157Y-56727765D01*
X66502440Y-56480000D01*
X66502440Y-53980000D01*
X66453157Y-53732235D01*
X66312809Y-53522191D01*
X66102765Y-53381843D01*
X65855000Y-53332560D01*
X63355000Y-53332560D01*
X63107235Y-53381843D01*
X62897191Y-53522191D01*
X62756843Y-53732235D01*
X62707560Y-53980000D01*
X50710000Y-53980000D01*
X50710000Y-52831690D01*
X52834091Y-50707600D01*
X67653000Y-50707600D01*
X67653000Y-69708000D01*
G36*
X61303000Y-91807220D02*
X61269916Y-91747002D01*
X61303000Y-91747002D01*
X61303000Y-91807220D01*
X61303000Y-91807220D01*
G37*
X61303000Y-91807220D02*
X61269916Y-91747002D01*
X61303000Y-91747002D01*
X61303000Y-91807220D01*
G36*
X59927000Y-91493000D02*
X59947000Y-91493000D01*
X59947000Y-91747000D01*
X59927000Y-91747000D01*
X59927000Y-91767000D01*
X59673000Y-91767000D01*
X59673000Y-91747000D01*
X59653000Y-91747000D01*
X59653000Y-91493000D01*
X59673000Y-91493000D01*
X59673000Y-91473000D01*
X59927000Y-91473000D01*
X59927000Y-91493000D01*
X59927000Y-91493000D01*
G37*
X59927000Y-91493000D02*
X59947000Y-91493000D01*
X59947000Y-91747000D01*
X59927000Y-91747000D01*
X59927000Y-91767000D01*
X59673000Y-91767000D01*
X59673000Y-91747000D01*
X59653000Y-91747000D01*
X59653000Y-91493000D01*
X59673000Y-91493000D01*
X59673000Y-91473000D01*
X59927000Y-91473000D01*
X59927000Y-91493000D01*
G36*
X61303000Y-91492998D02*
X61269916Y-91492998D01*
X61303000Y-91432780D01*
X61303000Y-91492998D01*
X61303000Y-91492998D01*
G37*
X61303000Y-91492998D02*
X61269916Y-91492998D01*
X61303000Y-91432780D01*
X61303000Y-91492998D01*
G36*
X67653000Y-119290000D02*
X60922000Y-119290000D01*
X60922000Y-114468850D01*
X62659000Y-114468850D01*
X62659000Y-115218750D01*
X62945974Y-115911567D01*
X63476233Y-116441826D01*
X64169050Y-116728800D01*
X64918950Y-116728800D01*
X65611767Y-116441826D01*
X66142026Y-115911567D01*
X66429000Y-115218750D01*
X66429000Y-114468850D01*
X66142026Y-113776033D01*
X65611767Y-113245774D01*
X64918950Y-112958800D01*
X64169050Y-112958800D01*
X63476233Y-113245774D01*
X62945974Y-113776033D01*
X62659000Y-114468850D01*
X60922000Y-114468850D01*
X60922000Y-104149607D01*
X61274579Y-104003564D01*
X61556275Y-103580880D01*
X60922000Y-102946605D01*
X60922000Y-102587395D01*
X61735880Y-103401275D01*
X62158564Y-103119579D01*
X62634573Y-101968850D01*
X62659000Y-101968850D01*
X62659000Y-102718750D01*
X62945974Y-103411567D01*
X63476233Y-103941826D01*
X64169050Y-104228800D01*
X64918950Y-104228800D01*
X65611767Y-103941826D01*
X66142026Y-103411567D01*
X66429000Y-102718750D01*
X66429000Y-101968850D01*
X66142026Y-101276033D01*
X65611767Y-100745774D01*
X64918950Y-100458800D01*
X64169050Y-100458800D01*
X63476233Y-100745774D01*
X62945974Y-101276033D01*
X62659000Y-101968850D01*
X62634573Y-101968850D01*
X62635294Y-101967108D01*
X62634705Y-100719928D01*
X62158564Y-99570421D01*
X62132424Y-99553000D01*
X67653000Y-99553000D01*
X67653000Y-119290000D01*
X67653000Y-119290000D01*
G37*
X67653000Y-119290000D02*
X60922000Y-119290000D01*
X60922000Y-114468850D01*
X62659000Y-114468850D01*
X62659000Y-115218750D01*
X62945974Y-115911567D01*
X63476233Y-116441826D01*
X64169050Y-116728800D01*
X64918950Y-116728800D01*
X65611767Y-116441826D01*
X66142026Y-115911567D01*
X66429000Y-115218750D01*
X66429000Y-114468850D01*
X66142026Y-113776033D01*
X65611767Y-113245774D01*
X64918950Y-112958800D01*
X64169050Y-112958800D01*
X63476233Y-113245774D01*
X62945974Y-113776033D01*
X62659000Y-114468850D01*
X60922000Y-114468850D01*
X60922000Y-104149607D01*
X61274579Y-104003564D01*
X61556275Y-103580880D01*
X60922000Y-102946605D01*
X60922000Y-102587395D01*
X61735880Y-103401275D01*
X62158564Y-103119579D01*
X62634573Y-101968850D01*
X62659000Y-101968850D01*
X62659000Y-102718750D01*
X62945974Y-103411567D01*
X63476233Y-103941826D01*
X64169050Y-104228800D01*
X64918950Y-104228800D01*
X65611767Y-103941826D01*
X66142026Y-103411567D01*
X66429000Y-102718750D01*
X66429000Y-101968850D01*
X66142026Y-101276033D01*
X65611767Y-100745774D01*
X64918950Y-100458800D01*
X64169050Y-100458800D01*
X63476233Y-100745774D01*
X62945974Y-101276033D01*
X62659000Y-101968850D01*
X62634573Y-101968850D01*
X62635294Y-101967108D01*
X62634705Y-100719928D01*
X62158564Y-99570421D01*
X62132424Y-99553000D01*
X67653000Y-99553000D01*
X67653000Y-119290000D01*
G04 #@! TD*
M02*
