G04 #@! TF.GenerationSoftware,KiCad,Pcbnew,(5.0.0)*
G04 #@! TF.CreationDate,2018-12-13T19:23:09+01:00*
G04 #@! TF.ProjectId,TrackAmplifier,547261636B416D706C69666965722E6B,rev?*
G04 #@! TF.SameCoordinates,Original*
G04 #@! TF.FileFunction,Paste,Top*
G04 #@! TF.FilePolarity,Positive*
%FSLAX46Y46*%
G04 Gerber Fmt 4.6, Leading zero omitted, Abs format (unit mm)*
G04 Created by KiCad (PCBNEW (5.0.0)) date 12/13/18 19:23:09*
%MOMM*%
%LPD*%
G01*
G04 APERTURE LIST*
%ADD10R,0.900000X0.800000*%
%ADD11R,1.220000X1.800000*%
%ADD12R,1.800000X1.220000*%
%ADD13R,0.600000X1.550000*%
%ADD14R,2.000000X0.600000*%
%ADD15C,0.100000*%
%ADD16C,1.250000*%
%ADD17R,1.200000X1.250000*%
%ADD18R,1.270000X1.400000*%
%ADD19R,1.400000X1.270000*%
%ADD20R,1.250000X1.200000*%
%ADD21R,1.550000X0.600000*%
%ADD22R,1.450000X0.450000*%
%ADD23C,0.875000*%
%ADD24R,2.500000X4.000000*%
%ADD25C,0.800000*%
G04 APERTURE END LIST*
D10*
G04 #@! TO.C,U10*
X90116000Y-89835000D03*
X90116000Y-87935000D03*
X88116000Y-88885000D03*
G04 #@! TD*
D11*
G04 #@! TO.C,R5*
X88448000Y-52690000D03*
X91308000Y-52690000D03*
G04 #@! TD*
D12*
G04 #@! TO.C,R17*
X117945000Y-63010000D03*
X117945000Y-60150000D03*
G04 #@! TD*
G04 #@! TO.C,C1*
X70320000Y-84092000D03*
X70320000Y-81232000D03*
G04 #@! TD*
G04 #@! TO.C,C2*
X84925000Y-81740000D03*
X84925000Y-84600000D03*
G04 #@! TD*
G04 #@! TO.C,C3*
X73096675Y-81232000D03*
X73096675Y-84092000D03*
G04 #@! TD*
G04 #@! TO.C,C4*
X82385000Y-81740000D03*
X82385000Y-84600000D03*
G04 #@! TD*
G04 #@! TO.C,C5*
X90640000Y-59962000D03*
X90640000Y-57102000D03*
G04 #@! TD*
G04 #@! TO.C,C7*
X93180000Y-57102000D03*
X93180000Y-59962000D03*
G04 #@! TD*
G04 #@! TO.C,C10*
X93180000Y-65550000D03*
X93180000Y-62690000D03*
G04 #@! TD*
G04 #@! TO.C,C11*
X64605000Y-93490000D03*
X64605000Y-90630000D03*
G04 #@! TD*
G04 #@! TO.C,C12*
X76035000Y-90630000D03*
X76035000Y-93490000D03*
G04 #@! TD*
G04 #@! TO.C,C13*
X90640000Y-62690000D03*
X90640000Y-65550000D03*
G04 #@! TD*
G04 #@! TO.C,C14*
X67145000Y-93490000D03*
X67145000Y-90630000D03*
G04 #@! TD*
G04 #@! TO.C,C15*
X78575000Y-90630000D03*
X78575000Y-93490000D03*
G04 #@! TD*
G04 #@! TO.C,C19*
X90894000Y-100155000D03*
X90894000Y-103015000D03*
G04 #@! TD*
G04 #@! TO.C,C20*
X93434000Y-103015000D03*
X93434000Y-100155000D03*
G04 #@! TD*
G04 #@! TO.C,C22*
X95974000Y-100155000D03*
X95974000Y-103015000D03*
G04 #@! TD*
G04 #@! TO.C,C23*
X106261000Y-103015000D03*
X106261000Y-100155000D03*
G04 #@! TD*
G04 #@! TO.C,C24*
X108801000Y-100155000D03*
X108801000Y-103015000D03*
G04 #@! TD*
G04 #@! TO.C,C26*
X110960000Y-87452479D03*
X110960000Y-90312479D03*
G04 #@! TD*
G04 #@! TO.C,C27*
X108420000Y-90315000D03*
X108420000Y-87455000D03*
G04 #@! TD*
G04 #@! TO.C,C28*
X111341000Y-100155000D03*
X111341000Y-103015000D03*
G04 #@! TD*
G04 #@! TO.C,C29*
X113500000Y-87455000D03*
X113500000Y-90315000D03*
G04 #@! TD*
D11*
G04 #@! TO.C,C30*
X74798000Y-74534000D03*
X71938000Y-74534000D03*
G04 #@! TD*
G04 #@! TO.C,C31*
X99055000Y-72375000D03*
X96195000Y-72375000D03*
G04 #@! TD*
G04 #@! TO.C,D5*
X81750000Y-73645000D03*
X78890000Y-73645000D03*
G04 #@! TD*
G04 #@! TO.C,D6*
X81148000Y-76185000D03*
X78288000Y-76185000D03*
G04 #@! TD*
D10*
G04 #@! TO.C,Q1*
X89640000Y-72695000D03*
X89640000Y-74595000D03*
X91640000Y-73645000D03*
G04 #@! TD*
D11*
G04 #@! TO.C,R1*
X70160000Y-78852000D03*
X73020000Y-78852000D03*
G04 #@! TD*
G04 #@! TO.C,R2*
X82225000Y-79487000D03*
X85085000Y-79487000D03*
G04 #@! TD*
G04 #@! TO.C,R3*
X97150000Y-52690000D03*
X94290000Y-52690000D03*
G04 #@! TD*
D12*
G04 #@! TO.C,R4*
X140805000Y-71420000D03*
X140805000Y-74280000D03*
G04 #@! TD*
G04 #@! TO.C,R6*
X137630000Y-71420000D03*
X137630000Y-74280000D03*
G04 #@! TD*
G04 #@! TO.C,R7*
X143980000Y-71420000D03*
X143980000Y-74280000D03*
G04 #@! TD*
G04 #@! TO.C,R8*
X84925000Y-75075000D03*
X84925000Y-72215000D03*
G04 #@! TD*
D11*
G04 #@! TO.C,R9*
X64445000Y-95870000D03*
X67305000Y-95870000D03*
G04 #@! TD*
G04 #@! TO.C,R10*
X78735000Y-95870000D03*
X75875000Y-95870000D03*
G04 #@! TD*
G04 #@! TO.C,R11*
X118420000Y-106030000D03*
X121280000Y-106030000D03*
G04 #@! TD*
D12*
G04 #@! TO.C,R12*
X88354000Y-103015000D03*
X88354000Y-100155000D03*
G04 #@! TD*
D11*
G04 #@! TO.C,R13*
X93721000Y-113269000D03*
X90861000Y-113269000D03*
G04 #@! TD*
G04 #@! TO.C,R14*
X89911000Y-95743000D03*
X87051000Y-95743000D03*
G04 #@! TD*
D12*
G04 #@! TO.C,R15*
X97625000Y-113175000D03*
X97625000Y-110315000D03*
G04 #@! TD*
G04 #@! TO.C,R18*
X98514000Y-103015000D03*
X98514000Y-100155000D03*
G04 #@! TD*
G04 #@! TO.C,R19*
X103721000Y-103015000D03*
X103721000Y-100155000D03*
G04 #@! TD*
D11*
G04 #@! TO.C,R22*
X103975000Y-74280000D03*
X106835000Y-74280000D03*
G04 #@! TD*
D12*
G04 #@! TO.C,R23*
X113881000Y-103015000D03*
X113881000Y-100155000D03*
G04 #@! TD*
G04 #@! TO.C,R24*
X134455000Y-74280000D03*
X134455000Y-71420000D03*
G04 #@! TD*
G04 #@! TO.C,R25*
X116040000Y-90315000D03*
X116040000Y-87455000D03*
G04 #@! TD*
D11*
G04 #@! TO.C,R30*
X63810000Y-75550000D03*
X66670000Y-75550000D03*
G04 #@! TD*
G04 #@! TO.C,R31*
X99055000Y-69835000D03*
X96195000Y-69835000D03*
G04 #@! TD*
D12*
G04 #@! TO.C,R32*
X101435000Y-72535000D03*
X101435000Y-69675000D03*
G04 #@! TD*
D11*
G04 #@! TO.C,R33*
X63810000Y-72756000D03*
X66670000Y-72756000D03*
G04 #@! TD*
D13*
G04 #@! TO.C,U1*
X67780000Y-78692000D03*
X66510000Y-78692000D03*
X65240000Y-78692000D03*
X63970000Y-78692000D03*
X63970000Y-84092000D03*
X65240000Y-84092000D03*
X66510000Y-84092000D03*
X67780000Y-84092000D03*
G04 #@! TD*
G04 #@! TO.C,U2*
X79845000Y-78692000D03*
X78575000Y-78692000D03*
X77305000Y-78692000D03*
X76035000Y-78692000D03*
X76035000Y-84092000D03*
X77305000Y-84092000D03*
X78575000Y-84092000D03*
X79845000Y-84092000D03*
G04 #@! TD*
G04 #@! TO.C,U5*
X69685000Y-90630000D03*
X70955000Y-90630000D03*
X72225000Y-90630000D03*
X73495000Y-90630000D03*
X73495000Y-96030000D03*
X72225000Y-96030000D03*
X70955000Y-96030000D03*
X69685000Y-96030000D03*
G04 #@! TD*
G04 #@! TO.C,U6*
X81115000Y-90630000D03*
X82385000Y-90630000D03*
X83655000Y-90630000D03*
X84925000Y-90630000D03*
X84925000Y-96030000D03*
X83655000Y-96030000D03*
X82385000Y-96030000D03*
X81115000Y-96030000D03*
G04 #@! TD*
D14*
G04 #@! TO.C,U9*
X96100000Y-77452479D03*
X96100000Y-78722479D03*
X96100000Y-79992479D03*
X96100000Y-81262479D03*
X96100000Y-82532479D03*
X96100000Y-83802479D03*
X96100000Y-85072479D03*
X96100000Y-86342479D03*
X96100000Y-87612479D03*
X96100000Y-88882479D03*
X96100000Y-90152479D03*
X96100000Y-91422479D03*
X96100000Y-92692479D03*
X96100000Y-93962479D03*
X105500000Y-93962479D03*
X105500000Y-92692479D03*
X105500000Y-91422479D03*
X105500000Y-90152479D03*
X105500000Y-88882479D03*
X105500000Y-87612479D03*
X105500000Y-86342479D03*
X105500000Y-85072479D03*
X105500000Y-83802479D03*
X105500000Y-82532479D03*
X105500000Y-81262479D03*
X105500000Y-79992479D03*
X105500000Y-78722479D03*
X105500000Y-77452479D03*
G04 #@! TD*
D11*
G04 #@! TO.C,C32*
X88194000Y-80630000D03*
X91054000Y-80630000D03*
G04 #@! TD*
G04 #@! TO.C,C33*
X91054000Y-83170000D03*
X88194000Y-83170000D03*
G04 #@! TD*
G04 #@! TO.C,R34*
X88194000Y-78090000D03*
X91054000Y-78090000D03*
G04 #@! TD*
G04 #@! TO.C,C34*
X121280000Y-103490000D03*
X118420000Y-103490000D03*
G04 #@! TD*
G04 #@! TO.C,C35*
X118420000Y-100950000D03*
X121280000Y-100950000D03*
G04 #@! TD*
D12*
G04 #@! TO.C,R36*
X87465000Y-72215000D03*
X87465000Y-75075000D03*
G04 #@! TD*
D11*
G04 #@! TO.C,R37*
X116962000Y-96505000D03*
X114102000Y-96505000D03*
G04 #@! TD*
D12*
G04 #@! TO.C,C36*
X112865000Y-69995000D03*
X112865000Y-67135000D03*
G04 #@! TD*
D11*
G04 #@! TO.C,D9*
X110485000Y-69835000D03*
X107625000Y-69835000D03*
G04 #@! TD*
D12*
G04 #@! TO.C,D10*
X115405000Y-65390000D03*
X115405000Y-68250000D03*
G04 #@! TD*
G04 #@! TO.C,R39*
X117945000Y-68250000D03*
X117945000Y-65390000D03*
G04 #@! TD*
D11*
G04 #@! TO.C,R26*
X141120000Y-57135000D03*
X143980000Y-57135000D03*
G04 #@! TD*
G04 #@! TO.C,R27*
X143980000Y-59675000D03*
X141120000Y-59675000D03*
G04 #@! TD*
G04 #@! TO.C,R28*
X141120000Y-62215000D03*
X143980000Y-62215000D03*
G04 #@! TD*
G04 #@! TO.C,R29*
X143877815Y-67295000D03*
X141017815Y-67295000D03*
G04 #@! TD*
G04 #@! TO.C,R35*
X143877815Y-64755000D03*
X141017815Y-64755000D03*
G04 #@! TD*
G04 #@! TO.C,C37*
X92705000Y-70470000D03*
X89845000Y-70470000D03*
G04 #@! TD*
D12*
G04 #@! TO.C,R40*
X131280000Y-71420000D03*
X131280000Y-74280000D03*
G04 #@! TD*
D11*
G04 #@! TO.C,C38*
X108514000Y-96505000D03*
X111374000Y-96505000D03*
G04 #@! TD*
D15*
G04 #@! TO.C,C39*
G36*
X88623504Y-84836204D02*
X88647773Y-84839804D01*
X88671571Y-84845765D01*
X88694671Y-84854030D01*
X88716849Y-84864520D01*
X88737893Y-84877133D01*
X88757598Y-84891747D01*
X88775777Y-84908223D01*
X88792253Y-84926402D01*
X88806867Y-84946107D01*
X88819480Y-84967151D01*
X88829970Y-84989329D01*
X88838235Y-85012429D01*
X88844196Y-85036227D01*
X88847796Y-85060496D01*
X88849000Y-85085000D01*
X88849000Y-86335000D01*
X88847796Y-86359504D01*
X88844196Y-86383773D01*
X88838235Y-86407571D01*
X88829970Y-86430671D01*
X88819480Y-86452849D01*
X88806867Y-86473893D01*
X88792253Y-86493598D01*
X88775777Y-86511777D01*
X88757598Y-86528253D01*
X88737893Y-86542867D01*
X88716849Y-86555480D01*
X88694671Y-86565970D01*
X88671571Y-86574235D01*
X88647773Y-86580196D01*
X88623504Y-86583796D01*
X88599000Y-86585000D01*
X87849000Y-86585000D01*
X87824496Y-86583796D01*
X87800227Y-86580196D01*
X87776429Y-86574235D01*
X87753329Y-86565970D01*
X87731151Y-86555480D01*
X87710107Y-86542867D01*
X87690402Y-86528253D01*
X87672223Y-86511777D01*
X87655747Y-86493598D01*
X87641133Y-86473893D01*
X87628520Y-86452849D01*
X87618030Y-86430671D01*
X87609765Y-86407571D01*
X87603804Y-86383773D01*
X87600204Y-86359504D01*
X87599000Y-86335000D01*
X87599000Y-85085000D01*
X87600204Y-85060496D01*
X87603804Y-85036227D01*
X87609765Y-85012429D01*
X87618030Y-84989329D01*
X87628520Y-84967151D01*
X87641133Y-84946107D01*
X87655747Y-84926402D01*
X87672223Y-84908223D01*
X87690402Y-84891747D01*
X87710107Y-84877133D01*
X87731151Y-84864520D01*
X87753329Y-84854030D01*
X87776429Y-84845765D01*
X87800227Y-84839804D01*
X87824496Y-84836204D01*
X87849000Y-84835000D01*
X88599000Y-84835000D01*
X88623504Y-84836204D01*
X88623504Y-84836204D01*
G37*
D16*
X88224000Y-85710000D03*
D15*
G36*
X91423504Y-84836204D02*
X91447773Y-84839804D01*
X91471571Y-84845765D01*
X91494671Y-84854030D01*
X91516849Y-84864520D01*
X91537893Y-84877133D01*
X91557598Y-84891747D01*
X91575777Y-84908223D01*
X91592253Y-84926402D01*
X91606867Y-84946107D01*
X91619480Y-84967151D01*
X91629970Y-84989329D01*
X91638235Y-85012429D01*
X91644196Y-85036227D01*
X91647796Y-85060496D01*
X91649000Y-85085000D01*
X91649000Y-86335000D01*
X91647796Y-86359504D01*
X91644196Y-86383773D01*
X91638235Y-86407571D01*
X91629970Y-86430671D01*
X91619480Y-86452849D01*
X91606867Y-86473893D01*
X91592253Y-86493598D01*
X91575777Y-86511777D01*
X91557598Y-86528253D01*
X91537893Y-86542867D01*
X91516849Y-86555480D01*
X91494671Y-86565970D01*
X91471571Y-86574235D01*
X91447773Y-86580196D01*
X91423504Y-86583796D01*
X91399000Y-86585000D01*
X90649000Y-86585000D01*
X90624496Y-86583796D01*
X90600227Y-86580196D01*
X90576429Y-86574235D01*
X90553329Y-86565970D01*
X90531151Y-86555480D01*
X90510107Y-86542867D01*
X90490402Y-86528253D01*
X90472223Y-86511777D01*
X90455747Y-86493598D01*
X90441133Y-86473893D01*
X90428520Y-86452849D01*
X90418030Y-86430671D01*
X90409765Y-86407571D01*
X90403804Y-86383773D01*
X90400204Y-86359504D01*
X90399000Y-86335000D01*
X90399000Y-85085000D01*
X90400204Y-85060496D01*
X90403804Y-85036227D01*
X90409765Y-85012429D01*
X90418030Y-84989329D01*
X90428520Y-84967151D01*
X90441133Y-84946107D01*
X90455747Y-84926402D01*
X90472223Y-84908223D01*
X90490402Y-84891747D01*
X90510107Y-84877133D01*
X90531151Y-84864520D01*
X90553329Y-84854030D01*
X90576429Y-84845765D01*
X90600227Y-84839804D01*
X90624496Y-84836204D01*
X90649000Y-84835000D01*
X91399000Y-84835000D01*
X91423504Y-84836204D01*
X91423504Y-84836204D01*
G37*
D16*
X91024000Y-85710000D03*
G04 #@! TD*
D17*
G04 #@! TO.C,D7*
X106270000Y-52006000D03*
X106270000Y-55406000D03*
X106270000Y-53706000D03*
X104610000Y-52006000D03*
X104610000Y-53706000D03*
X104610000Y-55406000D03*
X102920000Y-52006000D03*
X102920000Y-53706000D03*
X102920000Y-55406000D03*
D18*
X100805000Y-52666000D03*
X100805000Y-54746000D03*
G04 #@! TD*
D19*
G04 #@! TO.C,D11*
X114667000Y-117455000D03*
X112587000Y-117455000D03*
D20*
X115327000Y-115340000D03*
X113627000Y-115340000D03*
X111927000Y-115340000D03*
X115327000Y-113650000D03*
X113627000Y-113650000D03*
X111927000Y-113650000D03*
X113627000Y-111990000D03*
X115327000Y-111990000D03*
X111927000Y-111990000D03*
G04 #@! TD*
D19*
G04 #@! TO.C,D12*
X104713000Y-112004000D03*
X106793000Y-112004000D03*
D20*
X104053000Y-114119000D03*
X105753000Y-114119000D03*
X107453000Y-114119000D03*
X104053000Y-115809000D03*
X105753000Y-115809000D03*
X107453000Y-115809000D03*
X105753000Y-117469000D03*
X104053000Y-117469000D03*
X107453000Y-117469000D03*
G04 #@! TD*
D15*
G04 #@! TO.C,D14*
G36*
X107165504Y-104394204D02*
X107189773Y-104397804D01*
X107213571Y-104403765D01*
X107236671Y-104412030D01*
X107258849Y-104422520D01*
X107279893Y-104435133D01*
X107299598Y-104449747D01*
X107317777Y-104466223D01*
X107334253Y-104484402D01*
X107348867Y-104504107D01*
X107361480Y-104525151D01*
X107371970Y-104547329D01*
X107380235Y-104570429D01*
X107386196Y-104594227D01*
X107389796Y-104618496D01*
X107391000Y-104643000D01*
X107391000Y-105893000D01*
X107389796Y-105917504D01*
X107386196Y-105941773D01*
X107380235Y-105965571D01*
X107371970Y-105988671D01*
X107361480Y-106010849D01*
X107348867Y-106031893D01*
X107334253Y-106051598D01*
X107317777Y-106069777D01*
X107299598Y-106086253D01*
X107279893Y-106100867D01*
X107258849Y-106113480D01*
X107236671Y-106123970D01*
X107213571Y-106132235D01*
X107189773Y-106138196D01*
X107165504Y-106141796D01*
X107141000Y-106143000D01*
X106391000Y-106143000D01*
X106366496Y-106141796D01*
X106342227Y-106138196D01*
X106318429Y-106132235D01*
X106295329Y-106123970D01*
X106273151Y-106113480D01*
X106252107Y-106100867D01*
X106232402Y-106086253D01*
X106214223Y-106069777D01*
X106197747Y-106051598D01*
X106183133Y-106031893D01*
X106170520Y-106010849D01*
X106160030Y-105988671D01*
X106151765Y-105965571D01*
X106145804Y-105941773D01*
X106142204Y-105917504D01*
X106141000Y-105893000D01*
X106141000Y-104643000D01*
X106142204Y-104618496D01*
X106145804Y-104594227D01*
X106151765Y-104570429D01*
X106160030Y-104547329D01*
X106170520Y-104525151D01*
X106183133Y-104504107D01*
X106197747Y-104484402D01*
X106214223Y-104466223D01*
X106232402Y-104449747D01*
X106252107Y-104435133D01*
X106273151Y-104422520D01*
X106295329Y-104412030D01*
X106318429Y-104403765D01*
X106342227Y-104397804D01*
X106366496Y-104394204D01*
X106391000Y-104393000D01*
X107141000Y-104393000D01*
X107165504Y-104394204D01*
X107165504Y-104394204D01*
G37*
D16*
X106766000Y-105268000D03*
D15*
G36*
X109965504Y-104394204D02*
X109989773Y-104397804D01*
X110013571Y-104403765D01*
X110036671Y-104412030D01*
X110058849Y-104422520D01*
X110079893Y-104435133D01*
X110099598Y-104449747D01*
X110117777Y-104466223D01*
X110134253Y-104484402D01*
X110148867Y-104504107D01*
X110161480Y-104525151D01*
X110171970Y-104547329D01*
X110180235Y-104570429D01*
X110186196Y-104594227D01*
X110189796Y-104618496D01*
X110191000Y-104643000D01*
X110191000Y-105893000D01*
X110189796Y-105917504D01*
X110186196Y-105941773D01*
X110180235Y-105965571D01*
X110171970Y-105988671D01*
X110161480Y-106010849D01*
X110148867Y-106031893D01*
X110134253Y-106051598D01*
X110117777Y-106069777D01*
X110099598Y-106086253D01*
X110079893Y-106100867D01*
X110058849Y-106113480D01*
X110036671Y-106123970D01*
X110013571Y-106132235D01*
X109989773Y-106138196D01*
X109965504Y-106141796D01*
X109941000Y-106143000D01*
X109191000Y-106143000D01*
X109166496Y-106141796D01*
X109142227Y-106138196D01*
X109118429Y-106132235D01*
X109095329Y-106123970D01*
X109073151Y-106113480D01*
X109052107Y-106100867D01*
X109032402Y-106086253D01*
X109014223Y-106069777D01*
X108997747Y-106051598D01*
X108983133Y-106031893D01*
X108970520Y-106010849D01*
X108960030Y-105988671D01*
X108951765Y-105965571D01*
X108945804Y-105941773D01*
X108942204Y-105917504D01*
X108941000Y-105893000D01*
X108941000Y-104643000D01*
X108942204Y-104618496D01*
X108945804Y-104594227D01*
X108951765Y-104570429D01*
X108960030Y-104547329D01*
X108970520Y-104525151D01*
X108983133Y-104504107D01*
X108997747Y-104484402D01*
X109014223Y-104466223D01*
X109032402Y-104449747D01*
X109052107Y-104435133D01*
X109073151Y-104422520D01*
X109095329Y-104412030D01*
X109118429Y-104403765D01*
X109142227Y-104397804D01*
X109166496Y-104394204D01*
X109191000Y-104393000D01*
X109941000Y-104393000D01*
X109965504Y-104394204D01*
X109965504Y-104394204D01*
G37*
D16*
X109566000Y-105268000D03*
G04 #@! TD*
D15*
G04 #@! TO.C,D15*
G36*
X115426504Y-106045204D02*
X115450773Y-106048804D01*
X115474571Y-106054765D01*
X115497671Y-106063030D01*
X115519849Y-106073520D01*
X115540893Y-106086133D01*
X115560598Y-106100747D01*
X115578777Y-106117223D01*
X115595253Y-106135402D01*
X115609867Y-106155107D01*
X115622480Y-106176151D01*
X115632970Y-106198329D01*
X115641235Y-106221429D01*
X115647196Y-106245227D01*
X115650796Y-106269496D01*
X115652000Y-106294000D01*
X115652000Y-107544000D01*
X115650796Y-107568504D01*
X115647196Y-107592773D01*
X115641235Y-107616571D01*
X115632970Y-107639671D01*
X115622480Y-107661849D01*
X115609867Y-107682893D01*
X115595253Y-107702598D01*
X115578777Y-107720777D01*
X115560598Y-107737253D01*
X115540893Y-107751867D01*
X115519849Y-107764480D01*
X115497671Y-107774970D01*
X115474571Y-107783235D01*
X115450773Y-107789196D01*
X115426504Y-107792796D01*
X115402000Y-107794000D01*
X114652000Y-107794000D01*
X114627496Y-107792796D01*
X114603227Y-107789196D01*
X114579429Y-107783235D01*
X114556329Y-107774970D01*
X114534151Y-107764480D01*
X114513107Y-107751867D01*
X114493402Y-107737253D01*
X114475223Y-107720777D01*
X114458747Y-107702598D01*
X114444133Y-107682893D01*
X114431520Y-107661849D01*
X114421030Y-107639671D01*
X114412765Y-107616571D01*
X114406804Y-107592773D01*
X114403204Y-107568504D01*
X114402000Y-107544000D01*
X114402000Y-106294000D01*
X114403204Y-106269496D01*
X114406804Y-106245227D01*
X114412765Y-106221429D01*
X114421030Y-106198329D01*
X114431520Y-106176151D01*
X114444133Y-106155107D01*
X114458747Y-106135402D01*
X114475223Y-106117223D01*
X114493402Y-106100747D01*
X114513107Y-106086133D01*
X114534151Y-106073520D01*
X114556329Y-106063030D01*
X114579429Y-106054765D01*
X114603227Y-106048804D01*
X114627496Y-106045204D01*
X114652000Y-106044000D01*
X115402000Y-106044000D01*
X115426504Y-106045204D01*
X115426504Y-106045204D01*
G37*
D16*
X115027000Y-106919000D03*
D15*
G36*
X112626504Y-106045204D02*
X112650773Y-106048804D01*
X112674571Y-106054765D01*
X112697671Y-106063030D01*
X112719849Y-106073520D01*
X112740893Y-106086133D01*
X112760598Y-106100747D01*
X112778777Y-106117223D01*
X112795253Y-106135402D01*
X112809867Y-106155107D01*
X112822480Y-106176151D01*
X112832970Y-106198329D01*
X112841235Y-106221429D01*
X112847196Y-106245227D01*
X112850796Y-106269496D01*
X112852000Y-106294000D01*
X112852000Y-107544000D01*
X112850796Y-107568504D01*
X112847196Y-107592773D01*
X112841235Y-107616571D01*
X112832970Y-107639671D01*
X112822480Y-107661849D01*
X112809867Y-107682893D01*
X112795253Y-107702598D01*
X112778777Y-107720777D01*
X112760598Y-107737253D01*
X112740893Y-107751867D01*
X112719849Y-107764480D01*
X112697671Y-107774970D01*
X112674571Y-107783235D01*
X112650773Y-107789196D01*
X112626504Y-107792796D01*
X112602000Y-107794000D01*
X111852000Y-107794000D01*
X111827496Y-107792796D01*
X111803227Y-107789196D01*
X111779429Y-107783235D01*
X111756329Y-107774970D01*
X111734151Y-107764480D01*
X111713107Y-107751867D01*
X111693402Y-107737253D01*
X111675223Y-107720777D01*
X111658747Y-107702598D01*
X111644133Y-107682893D01*
X111631520Y-107661849D01*
X111621030Y-107639671D01*
X111612765Y-107616571D01*
X111606804Y-107592773D01*
X111603204Y-107568504D01*
X111602000Y-107544000D01*
X111602000Y-106294000D01*
X111603204Y-106269496D01*
X111606804Y-106245227D01*
X111612765Y-106221429D01*
X111621030Y-106198329D01*
X111631520Y-106176151D01*
X111644133Y-106155107D01*
X111658747Y-106135402D01*
X111675223Y-106117223D01*
X111693402Y-106100747D01*
X111713107Y-106086133D01*
X111734151Y-106073520D01*
X111756329Y-106063030D01*
X111779429Y-106054765D01*
X111803227Y-106048804D01*
X111827496Y-106045204D01*
X111852000Y-106044000D01*
X112602000Y-106044000D01*
X112626504Y-106045204D01*
X112626504Y-106045204D01*
G37*
D16*
X112227000Y-106919000D03*
G04 #@! TD*
D15*
G04 #@! TO.C,R41*
G36*
X111610504Y-108712204D02*
X111634773Y-108715804D01*
X111658571Y-108721765D01*
X111681671Y-108730030D01*
X111703849Y-108740520D01*
X111724893Y-108753133D01*
X111744598Y-108767747D01*
X111762777Y-108784223D01*
X111779253Y-108802402D01*
X111793867Y-108822107D01*
X111806480Y-108843151D01*
X111816970Y-108865329D01*
X111825235Y-108888429D01*
X111831196Y-108912227D01*
X111834796Y-108936496D01*
X111836000Y-108961000D01*
X111836000Y-110211000D01*
X111834796Y-110235504D01*
X111831196Y-110259773D01*
X111825235Y-110283571D01*
X111816970Y-110306671D01*
X111806480Y-110328849D01*
X111793867Y-110349893D01*
X111779253Y-110369598D01*
X111762777Y-110387777D01*
X111744598Y-110404253D01*
X111724893Y-110418867D01*
X111703849Y-110431480D01*
X111681671Y-110441970D01*
X111658571Y-110450235D01*
X111634773Y-110456196D01*
X111610504Y-110459796D01*
X111586000Y-110461000D01*
X110836000Y-110461000D01*
X110811496Y-110459796D01*
X110787227Y-110456196D01*
X110763429Y-110450235D01*
X110740329Y-110441970D01*
X110718151Y-110431480D01*
X110697107Y-110418867D01*
X110677402Y-110404253D01*
X110659223Y-110387777D01*
X110642747Y-110369598D01*
X110628133Y-110349893D01*
X110615520Y-110328849D01*
X110605030Y-110306671D01*
X110596765Y-110283571D01*
X110590804Y-110259773D01*
X110587204Y-110235504D01*
X110586000Y-110211000D01*
X110586000Y-108961000D01*
X110587204Y-108936496D01*
X110590804Y-108912227D01*
X110596765Y-108888429D01*
X110605030Y-108865329D01*
X110615520Y-108843151D01*
X110628133Y-108822107D01*
X110642747Y-108802402D01*
X110659223Y-108784223D01*
X110677402Y-108767747D01*
X110697107Y-108753133D01*
X110718151Y-108740520D01*
X110740329Y-108730030D01*
X110763429Y-108721765D01*
X110787227Y-108715804D01*
X110811496Y-108712204D01*
X110836000Y-108711000D01*
X111586000Y-108711000D01*
X111610504Y-108712204D01*
X111610504Y-108712204D01*
G37*
D16*
X111211000Y-109586000D03*
D15*
G36*
X114410504Y-108712204D02*
X114434773Y-108715804D01*
X114458571Y-108721765D01*
X114481671Y-108730030D01*
X114503849Y-108740520D01*
X114524893Y-108753133D01*
X114544598Y-108767747D01*
X114562777Y-108784223D01*
X114579253Y-108802402D01*
X114593867Y-108822107D01*
X114606480Y-108843151D01*
X114616970Y-108865329D01*
X114625235Y-108888429D01*
X114631196Y-108912227D01*
X114634796Y-108936496D01*
X114636000Y-108961000D01*
X114636000Y-110211000D01*
X114634796Y-110235504D01*
X114631196Y-110259773D01*
X114625235Y-110283571D01*
X114616970Y-110306671D01*
X114606480Y-110328849D01*
X114593867Y-110349893D01*
X114579253Y-110369598D01*
X114562777Y-110387777D01*
X114544598Y-110404253D01*
X114524893Y-110418867D01*
X114503849Y-110431480D01*
X114481671Y-110441970D01*
X114458571Y-110450235D01*
X114434773Y-110456196D01*
X114410504Y-110459796D01*
X114386000Y-110461000D01*
X113636000Y-110461000D01*
X113611496Y-110459796D01*
X113587227Y-110456196D01*
X113563429Y-110450235D01*
X113540329Y-110441970D01*
X113518151Y-110431480D01*
X113497107Y-110418867D01*
X113477402Y-110404253D01*
X113459223Y-110387777D01*
X113442747Y-110369598D01*
X113428133Y-110349893D01*
X113415520Y-110328849D01*
X113405030Y-110306671D01*
X113396765Y-110283571D01*
X113390804Y-110259773D01*
X113387204Y-110235504D01*
X113386000Y-110211000D01*
X113386000Y-108961000D01*
X113387204Y-108936496D01*
X113390804Y-108912227D01*
X113396765Y-108888429D01*
X113405030Y-108865329D01*
X113415520Y-108843151D01*
X113428133Y-108822107D01*
X113442747Y-108802402D01*
X113459223Y-108784223D01*
X113477402Y-108767747D01*
X113497107Y-108753133D01*
X113518151Y-108740520D01*
X113540329Y-108730030D01*
X113563429Y-108721765D01*
X113587227Y-108715804D01*
X113611496Y-108712204D01*
X113636000Y-108711000D01*
X114386000Y-108711000D01*
X114410504Y-108712204D01*
X114410504Y-108712204D01*
G37*
D16*
X114011000Y-109586000D03*
G04 #@! TD*
D15*
G04 #@! TO.C,R42*
G36*
X98274504Y-107695204D02*
X98298773Y-107698804D01*
X98322571Y-107704765D01*
X98345671Y-107713030D01*
X98367849Y-107723520D01*
X98388893Y-107736133D01*
X98408598Y-107750747D01*
X98426777Y-107767223D01*
X98443253Y-107785402D01*
X98457867Y-107805107D01*
X98470480Y-107826151D01*
X98480970Y-107848329D01*
X98489235Y-107871429D01*
X98495196Y-107895227D01*
X98498796Y-107919496D01*
X98500000Y-107944000D01*
X98500000Y-108694000D01*
X98498796Y-108718504D01*
X98495196Y-108742773D01*
X98489235Y-108766571D01*
X98480970Y-108789671D01*
X98470480Y-108811849D01*
X98457867Y-108832893D01*
X98443253Y-108852598D01*
X98426777Y-108870777D01*
X98408598Y-108887253D01*
X98388893Y-108901867D01*
X98367849Y-108914480D01*
X98345671Y-108924970D01*
X98322571Y-108933235D01*
X98298773Y-108939196D01*
X98274504Y-108942796D01*
X98250000Y-108944000D01*
X97000000Y-108944000D01*
X96975496Y-108942796D01*
X96951227Y-108939196D01*
X96927429Y-108933235D01*
X96904329Y-108924970D01*
X96882151Y-108914480D01*
X96861107Y-108901867D01*
X96841402Y-108887253D01*
X96823223Y-108870777D01*
X96806747Y-108852598D01*
X96792133Y-108832893D01*
X96779520Y-108811849D01*
X96769030Y-108789671D01*
X96760765Y-108766571D01*
X96754804Y-108742773D01*
X96751204Y-108718504D01*
X96750000Y-108694000D01*
X96750000Y-107944000D01*
X96751204Y-107919496D01*
X96754804Y-107895227D01*
X96760765Y-107871429D01*
X96769030Y-107848329D01*
X96779520Y-107826151D01*
X96792133Y-107805107D01*
X96806747Y-107785402D01*
X96823223Y-107767223D01*
X96841402Y-107750747D01*
X96861107Y-107736133D01*
X96882151Y-107723520D01*
X96904329Y-107713030D01*
X96927429Y-107704765D01*
X96951227Y-107698804D01*
X96975496Y-107695204D01*
X97000000Y-107694000D01*
X98250000Y-107694000D01*
X98274504Y-107695204D01*
X98274504Y-107695204D01*
G37*
D16*
X97625000Y-108319000D03*
D15*
G36*
X98274504Y-104895204D02*
X98298773Y-104898804D01*
X98322571Y-104904765D01*
X98345671Y-104913030D01*
X98367849Y-104923520D01*
X98388893Y-104936133D01*
X98408598Y-104950747D01*
X98426777Y-104967223D01*
X98443253Y-104985402D01*
X98457867Y-105005107D01*
X98470480Y-105026151D01*
X98480970Y-105048329D01*
X98489235Y-105071429D01*
X98495196Y-105095227D01*
X98498796Y-105119496D01*
X98500000Y-105144000D01*
X98500000Y-105894000D01*
X98498796Y-105918504D01*
X98495196Y-105942773D01*
X98489235Y-105966571D01*
X98480970Y-105989671D01*
X98470480Y-106011849D01*
X98457867Y-106032893D01*
X98443253Y-106052598D01*
X98426777Y-106070777D01*
X98408598Y-106087253D01*
X98388893Y-106101867D01*
X98367849Y-106114480D01*
X98345671Y-106124970D01*
X98322571Y-106133235D01*
X98298773Y-106139196D01*
X98274504Y-106142796D01*
X98250000Y-106144000D01*
X97000000Y-106144000D01*
X96975496Y-106142796D01*
X96951227Y-106139196D01*
X96927429Y-106133235D01*
X96904329Y-106124970D01*
X96882151Y-106114480D01*
X96861107Y-106101867D01*
X96841402Y-106087253D01*
X96823223Y-106070777D01*
X96806747Y-106052598D01*
X96792133Y-106032893D01*
X96779520Y-106011849D01*
X96769030Y-105989671D01*
X96760765Y-105966571D01*
X96754804Y-105942773D01*
X96751204Y-105918504D01*
X96750000Y-105894000D01*
X96750000Y-105144000D01*
X96751204Y-105119496D01*
X96754804Y-105095227D01*
X96760765Y-105071429D01*
X96769030Y-105048329D01*
X96779520Y-105026151D01*
X96792133Y-105005107D01*
X96806747Y-104985402D01*
X96823223Y-104967223D01*
X96841402Y-104950747D01*
X96861107Y-104936133D01*
X96882151Y-104923520D01*
X96904329Y-104913030D01*
X96927429Y-104904765D01*
X96951227Y-104898804D01*
X96975496Y-104895204D01*
X97000000Y-104894000D01*
X98250000Y-104894000D01*
X98274504Y-104895204D01*
X98274504Y-104895204D01*
G37*
D16*
X97625000Y-105519000D03*
G04 #@! TD*
D15*
G04 #@! TO.C,R44*
G36*
X96627504Y-74041204D02*
X96651773Y-74044804D01*
X96675571Y-74050765D01*
X96698671Y-74059030D01*
X96720849Y-74069520D01*
X96741893Y-74082133D01*
X96761598Y-74096747D01*
X96779777Y-74113223D01*
X96796253Y-74131402D01*
X96810867Y-74151107D01*
X96823480Y-74172151D01*
X96833970Y-74194329D01*
X96842235Y-74217429D01*
X96848196Y-74241227D01*
X96851796Y-74265496D01*
X96853000Y-74290000D01*
X96853000Y-75540000D01*
X96851796Y-75564504D01*
X96848196Y-75588773D01*
X96842235Y-75612571D01*
X96833970Y-75635671D01*
X96823480Y-75657849D01*
X96810867Y-75678893D01*
X96796253Y-75698598D01*
X96779777Y-75716777D01*
X96761598Y-75733253D01*
X96741893Y-75747867D01*
X96720849Y-75760480D01*
X96698671Y-75770970D01*
X96675571Y-75779235D01*
X96651773Y-75785196D01*
X96627504Y-75788796D01*
X96603000Y-75790000D01*
X95853000Y-75790000D01*
X95828496Y-75788796D01*
X95804227Y-75785196D01*
X95780429Y-75779235D01*
X95757329Y-75770970D01*
X95735151Y-75760480D01*
X95714107Y-75747867D01*
X95694402Y-75733253D01*
X95676223Y-75716777D01*
X95659747Y-75698598D01*
X95645133Y-75678893D01*
X95632520Y-75657849D01*
X95622030Y-75635671D01*
X95613765Y-75612571D01*
X95607804Y-75588773D01*
X95604204Y-75564504D01*
X95603000Y-75540000D01*
X95603000Y-74290000D01*
X95604204Y-74265496D01*
X95607804Y-74241227D01*
X95613765Y-74217429D01*
X95622030Y-74194329D01*
X95632520Y-74172151D01*
X95645133Y-74151107D01*
X95659747Y-74131402D01*
X95676223Y-74113223D01*
X95694402Y-74096747D01*
X95714107Y-74082133D01*
X95735151Y-74069520D01*
X95757329Y-74059030D01*
X95780429Y-74050765D01*
X95804227Y-74044804D01*
X95828496Y-74041204D01*
X95853000Y-74040000D01*
X96603000Y-74040000D01*
X96627504Y-74041204D01*
X96627504Y-74041204D01*
G37*
D16*
X96228000Y-74915000D03*
D15*
G36*
X99427504Y-74041204D02*
X99451773Y-74044804D01*
X99475571Y-74050765D01*
X99498671Y-74059030D01*
X99520849Y-74069520D01*
X99541893Y-74082133D01*
X99561598Y-74096747D01*
X99579777Y-74113223D01*
X99596253Y-74131402D01*
X99610867Y-74151107D01*
X99623480Y-74172151D01*
X99633970Y-74194329D01*
X99642235Y-74217429D01*
X99648196Y-74241227D01*
X99651796Y-74265496D01*
X99653000Y-74290000D01*
X99653000Y-75540000D01*
X99651796Y-75564504D01*
X99648196Y-75588773D01*
X99642235Y-75612571D01*
X99633970Y-75635671D01*
X99623480Y-75657849D01*
X99610867Y-75678893D01*
X99596253Y-75698598D01*
X99579777Y-75716777D01*
X99561598Y-75733253D01*
X99541893Y-75747867D01*
X99520849Y-75760480D01*
X99498671Y-75770970D01*
X99475571Y-75779235D01*
X99451773Y-75785196D01*
X99427504Y-75788796D01*
X99403000Y-75790000D01*
X98653000Y-75790000D01*
X98628496Y-75788796D01*
X98604227Y-75785196D01*
X98580429Y-75779235D01*
X98557329Y-75770970D01*
X98535151Y-75760480D01*
X98514107Y-75747867D01*
X98494402Y-75733253D01*
X98476223Y-75716777D01*
X98459747Y-75698598D01*
X98445133Y-75678893D01*
X98432520Y-75657849D01*
X98422030Y-75635671D01*
X98413765Y-75612571D01*
X98407804Y-75588773D01*
X98404204Y-75564504D01*
X98403000Y-75540000D01*
X98403000Y-74290000D01*
X98404204Y-74265496D01*
X98407804Y-74241227D01*
X98413765Y-74217429D01*
X98422030Y-74194329D01*
X98432520Y-74172151D01*
X98445133Y-74151107D01*
X98459747Y-74131402D01*
X98476223Y-74113223D01*
X98494402Y-74096747D01*
X98514107Y-74082133D01*
X98535151Y-74069520D01*
X98557329Y-74059030D01*
X98580429Y-74050765D01*
X98604227Y-74044804D01*
X98628496Y-74041204D01*
X98653000Y-74040000D01*
X99403000Y-74040000D01*
X99427504Y-74041204D01*
X99427504Y-74041204D01*
G37*
D16*
X99028000Y-74915000D03*
G04 #@! TD*
D15*
G04 #@! TO.C,R45*
G36*
X112886504Y-72390204D02*
X112910773Y-72393804D01*
X112934571Y-72399765D01*
X112957671Y-72408030D01*
X112979849Y-72418520D01*
X113000893Y-72431133D01*
X113020598Y-72445747D01*
X113038777Y-72462223D01*
X113055253Y-72480402D01*
X113069867Y-72500107D01*
X113082480Y-72521151D01*
X113092970Y-72543329D01*
X113101235Y-72566429D01*
X113107196Y-72590227D01*
X113110796Y-72614496D01*
X113112000Y-72639000D01*
X113112000Y-73889000D01*
X113110796Y-73913504D01*
X113107196Y-73937773D01*
X113101235Y-73961571D01*
X113092970Y-73984671D01*
X113082480Y-74006849D01*
X113069867Y-74027893D01*
X113055253Y-74047598D01*
X113038777Y-74065777D01*
X113020598Y-74082253D01*
X113000893Y-74096867D01*
X112979849Y-74109480D01*
X112957671Y-74119970D01*
X112934571Y-74128235D01*
X112910773Y-74134196D01*
X112886504Y-74137796D01*
X112862000Y-74139000D01*
X112112000Y-74139000D01*
X112087496Y-74137796D01*
X112063227Y-74134196D01*
X112039429Y-74128235D01*
X112016329Y-74119970D01*
X111994151Y-74109480D01*
X111973107Y-74096867D01*
X111953402Y-74082253D01*
X111935223Y-74065777D01*
X111918747Y-74047598D01*
X111904133Y-74027893D01*
X111891520Y-74006849D01*
X111881030Y-73984671D01*
X111872765Y-73961571D01*
X111866804Y-73937773D01*
X111863204Y-73913504D01*
X111862000Y-73889000D01*
X111862000Y-72639000D01*
X111863204Y-72614496D01*
X111866804Y-72590227D01*
X111872765Y-72566429D01*
X111881030Y-72543329D01*
X111891520Y-72521151D01*
X111904133Y-72500107D01*
X111918747Y-72480402D01*
X111935223Y-72462223D01*
X111953402Y-72445747D01*
X111973107Y-72431133D01*
X111994151Y-72418520D01*
X112016329Y-72408030D01*
X112039429Y-72399765D01*
X112063227Y-72393804D01*
X112087496Y-72390204D01*
X112112000Y-72389000D01*
X112862000Y-72389000D01*
X112886504Y-72390204D01*
X112886504Y-72390204D01*
G37*
D16*
X112487000Y-73264000D03*
D15*
G36*
X110086504Y-72390204D02*
X110110773Y-72393804D01*
X110134571Y-72399765D01*
X110157671Y-72408030D01*
X110179849Y-72418520D01*
X110200893Y-72431133D01*
X110220598Y-72445747D01*
X110238777Y-72462223D01*
X110255253Y-72480402D01*
X110269867Y-72500107D01*
X110282480Y-72521151D01*
X110292970Y-72543329D01*
X110301235Y-72566429D01*
X110307196Y-72590227D01*
X110310796Y-72614496D01*
X110312000Y-72639000D01*
X110312000Y-73889000D01*
X110310796Y-73913504D01*
X110307196Y-73937773D01*
X110301235Y-73961571D01*
X110292970Y-73984671D01*
X110282480Y-74006849D01*
X110269867Y-74027893D01*
X110255253Y-74047598D01*
X110238777Y-74065777D01*
X110220598Y-74082253D01*
X110200893Y-74096867D01*
X110179849Y-74109480D01*
X110157671Y-74119970D01*
X110134571Y-74128235D01*
X110110773Y-74134196D01*
X110086504Y-74137796D01*
X110062000Y-74139000D01*
X109312000Y-74139000D01*
X109287496Y-74137796D01*
X109263227Y-74134196D01*
X109239429Y-74128235D01*
X109216329Y-74119970D01*
X109194151Y-74109480D01*
X109173107Y-74096867D01*
X109153402Y-74082253D01*
X109135223Y-74065777D01*
X109118747Y-74047598D01*
X109104133Y-74027893D01*
X109091520Y-74006849D01*
X109081030Y-73984671D01*
X109072765Y-73961571D01*
X109066804Y-73937773D01*
X109063204Y-73913504D01*
X109062000Y-73889000D01*
X109062000Y-72639000D01*
X109063204Y-72614496D01*
X109066804Y-72590227D01*
X109072765Y-72566429D01*
X109081030Y-72543329D01*
X109091520Y-72521151D01*
X109104133Y-72500107D01*
X109118747Y-72480402D01*
X109135223Y-72462223D01*
X109153402Y-72445747D01*
X109173107Y-72431133D01*
X109194151Y-72418520D01*
X109216329Y-72408030D01*
X109239429Y-72399765D01*
X109263227Y-72393804D01*
X109287496Y-72390204D01*
X109312000Y-72389000D01*
X110062000Y-72389000D01*
X110086504Y-72390204D01*
X110086504Y-72390204D01*
G37*
D16*
X109687000Y-73264000D03*
G04 #@! TD*
D21*
G04 #@! TO.C,U7*
X89591000Y-107046000D03*
X89591000Y-108316000D03*
X89591000Y-109586000D03*
X89591000Y-110856000D03*
X94991000Y-110856000D03*
X94991000Y-109586000D03*
X94991000Y-108316000D03*
X94991000Y-107046000D03*
G04 #@! TD*
D22*
G04 #@! TO.C,U8*
X103934000Y-107341000D03*
X103934000Y-107991000D03*
X103934000Y-108641000D03*
X103934000Y-109291000D03*
X108334000Y-109291000D03*
X108334000Y-108641000D03*
X108334000Y-107991000D03*
X108334000Y-107341000D03*
G04 #@! TD*
D15*
G04 #@! TO.C,R47*
G36*
X87742691Y-68662053D02*
X87763926Y-68665203D01*
X87784750Y-68670419D01*
X87804962Y-68677651D01*
X87824368Y-68686830D01*
X87842781Y-68697866D01*
X87860024Y-68710654D01*
X87875930Y-68725070D01*
X87890346Y-68740976D01*
X87903134Y-68758219D01*
X87914170Y-68776632D01*
X87923349Y-68796038D01*
X87930581Y-68816250D01*
X87935797Y-68837074D01*
X87938947Y-68858309D01*
X87940000Y-68879750D01*
X87940000Y-69317250D01*
X87938947Y-69338691D01*
X87935797Y-69359926D01*
X87930581Y-69380750D01*
X87923349Y-69400962D01*
X87914170Y-69420368D01*
X87903134Y-69438781D01*
X87890346Y-69456024D01*
X87875930Y-69471930D01*
X87860024Y-69486346D01*
X87842781Y-69499134D01*
X87824368Y-69510170D01*
X87804962Y-69519349D01*
X87784750Y-69526581D01*
X87763926Y-69531797D01*
X87742691Y-69534947D01*
X87721250Y-69536000D01*
X87208750Y-69536000D01*
X87187309Y-69534947D01*
X87166074Y-69531797D01*
X87145250Y-69526581D01*
X87125038Y-69519349D01*
X87105632Y-69510170D01*
X87087219Y-69499134D01*
X87069976Y-69486346D01*
X87054070Y-69471930D01*
X87039654Y-69456024D01*
X87026866Y-69438781D01*
X87015830Y-69420368D01*
X87006651Y-69400962D01*
X86999419Y-69380750D01*
X86994203Y-69359926D01*
X86991053Y-69338691D01*
X86990000Y-69317250D01*
X86990000Y-68879750D01*
X86991053Y-68858309D01*
X86994203Y-68837074D01*
X86999419Y-68816250D01*
X87006651Y-68796038D01*
X87015830Y-68776632D01*
X87026866Y-68758219D01*
X87039654Y-68740976D01*
X87054070Y-68725070D01*
X87069976Y-68710654D01*
X87087219Y-68697866D01*
X87105632Y-68686830D01*
X87125038Y-68677651D01*
X87145250Y-68670419D01*
X87166074Y-68665203D01*
X87187309Y-68662053D01*
X87208750Y-68661000D01*
X87721250Y-68661000D01*
X87742691Y-68662053D01*
X87742691Y-68662053D01*
G37*
D23*
X87465000Y-69098500D03*
D15*
G36*
X87742691Y-67087053D02*
X87763926Y-67090203D01*
X87784750Y-67095419D01*
X87804962Y-67102651D01*
X87824368Y-67111830D01*
X87842781Y-67122866D01*
X87860024Y-67135654D01*
X87875930Y-67150070D01*
X87890346Y-67165976D01*
X87903134Y-67183219D01*
X87914170Y-67201632D01*
X87923349Y-67221038D01*
X87930581Y-67241250D01*
X87935797Y-67262074D01*
X87938947Y-67283309D01*
X87940000Y-67304750D01*
X87940000Y-67742250D01*
X87938947Y-67763691D01*
X87935797Y-67784926D01*
X87930581Y-67805750D01*
X87923349Y-67825962D01*
X87914170Y-67845368D01*
X87903134Y-67863781D01*
X87890346Y-67881024D01*
X87875930Y-67896930D01*
X87860024Y-67911346D01*
X87842781Y-67924134D01*
X87824368Y-67935170D01*
X87804962Y-67944349D01*
X87784750Y-67951581D01*
X87763926Y-67956797D01*
X87742691Y-67959947D01*
X87721250Y-67961000D01*
X87208750Y-67961000D01*
X87187309Y-67959947D01*
X87166074Y-67956797D01*
X87145250Y-67951581D01*
X87125038Y-67944349D01*
X87105632Y-67935170D01*
X87087219Y-67924134D01*
X87069976Y-67911346D01*
X87054070Y-67896930D01*
X87039654Y-67881024D01*
X87026866Y-67863781D01*
X87015830Y-67845368D01*
X87006651Y-67825962D01*
X86999419Y-67805750D01*
X86994203Y-67784926D01*
X86991053Y-67763691D01*
X86990000Y-67742250D01*
X86990000Y-67304750D01*
X86991053Y-67283309D01*
X86994203Y-67262074D01*
X86999419Y-67241250D01*
X87006651Y-67221038D01*
X87015830Y-67201632D01*
X87026866Y-67183219D01*
X87039654Y-67165976D01*
X87054070Y-67150070D01*
X87069976Y-67135654D01*
X87087219Y-67122866D01*
X87105632Y-67111830D01*
X87125038Y-67102651D01*
X87145250Y-67095419D01*
X87166074Y-67090203D01*
X87187309Y-67087053D01*
X87208750Y-67086000D01*
X87721250Y-67086000D01*
X87742691Y-67087053D01*
X87742691Y-67087053D01*
G37*
D23*
X87465000Y-67523500D03*
G04 #@! TD*
D24*
G04 #@! TO.C,C21*
X103340000Y-58784000D03*
X103340000Y-64884000D03*
G04 #@! TD*
D15*
G04 #@! TO.C,D1*
G36*
X147024603Y-56735963D02*
X147044018Y-56738843D01*
X147063057Y-56743612D01*
X147081537Y-56750224D01*
X147099279Y-56758616D01*
X147116114Y-56768706D01*
X147131879Y-56780398D01*
X147146421Y-56793579D01*
X147159602Y-56808121D01*
X147171294Y-56823886D01*
X147181384Y-56840721D01*
X147189776Y-56858463D01*
X147196388Y-56876943D01*
X147201157Y-56895982D01*
X147204037Y-56915397D01*
X147205000Y-56935000D01*
X147205000Y-57335000D01*
X147204037Y-57354603D01*
X147201157Y-57374018D01*
X147196388Y-57393057D01*
X147189776Y-57411537D01*
X147181384Y-57429279D01*
X147171294Y-57446114D01*
X147159602Y-57461879D01*
X147146421Y-57476421D01*
X147131879Y-57489602D01*
X147116114Y-57501294D01*
X147099279Y-57511384D01*
X147081537Y-57519776D01*
X147063057Y-57526388D01*
X147044018Y-57531157D01*
X147024603Y-57534037D01*
X147005000Y-57535000D01*
X146605000Y-57535000D01*
X146585397Y-57534037D01*
X146565982Y-57531157D01*
X146546943Y-57526388D01*
X146528463Y-57519776D01*
X146510721Y-57511384D01*
X146493886Y-57501294D01*
X146478121Y-57489602D01*
X146463579Y-57476421D01*
X146450398Y-57461879D01*
X146438706Y-57446114D01*
X146428616Y-57429279D01*
X146420224Y-57411537D01*
X146413612Y-57393057D01*
X146408843Y-57374018D01*
X146405963Y-57354603D01*
X146405000Y-57335000D01*
X146405000Y-56935000D01*
X146405963Y-56915397D01*
X146408843Y-56895982D01*
X146413612Y-56876943D01*
X146420224Y-56858463D01*
X146428616Y-56840721D01*
X146438706Y-56823886D01*
X146450398Y-56808121D01*
X146463579Y-56793579D01*
X146478121Y-56780398D01*
X146493886Y-56768706D01*
X146510721Y-56758616D01*
X146528463Y-56750224D01*
X146546943Y-56743612D01*
X146565982Y-56738843D01*
X146585397Y-56735963D01*
X146605000Y-56735000D01*
X147005000Y-56735000D01*
X147024603Y-56735963D01*
X147024603Y-56735963D01*
G37*
D25*
X146805000Y-57135000D03*
D15*
G36*
X148674603Y-56735963D02*
X148694018Y-56738843D01*
X148713057Y-56743612D01*
X148731537Y-56750224D01*
X148749279Y-56758616D01*
X148766114Y-56768706D01*
X148781879Y-56780398D01*
X148796421Y-56793579D01*
X148809602Y-56808121D01*
X148821294Y-56823886D01*
X148831384Y-56840721D01*
X148839776Y-56858463D01*
X148846388Y-56876943D01*
X148851157Y-56895982D01*
X148854037Y-56915397D01*
X148855000Y-56935000D01*
X148855000Y-57335000D01*
X148854037Y-57354603D01*
X148851157Y-57374018D01*
X148846388Y-57393057D01*
X148839776Y-57411537D01*
X148831384Y-57429279D01*
X148821294Y-57446114D01*
X148809602Y-57461879D01*
X148796421Y-57476421D01*
X148781879Y-57489602D01*
X148766114Y-57501294D01*
X148749279Y-57511384D01*
X148731537Y-57519776D01*
X148713057Y-57526388D01*
X148694018Y-57531157D01*
X148674603Y-57534037D01*
X148655000Y-57535000D01*
X148255000Y-57535000D01*
X148235397Y-57534037D01*
X148215982Y-57531157D01*
X148196943Y-57526388D01*
X148178463Y-57519776D01*
X148160721Y-57511384D01*
X148143886Y-57501294D01*
X148128121Y-57489602D01*
X148113579Y-57476421D01*
X148100398Y-57461879D01*
X148088706Y-57446114D01*
X148078616Y-57429279D01*
X148070224Y-57411537D01*
X148063612Y-57393057D01*
X148058843Y-57374018D01*
X148055963Y-57354603D01*
X148055000Y-57335000D01*
X148055000Y-56935000D01*
X148055963Y-56915397D01*
X148058843Y-56895982D01*
X148063612Y-56876943D01*
X148070224Y-56858463D01*
X148078616Y-56840721D01*
X148088706Y-56823886D01*
X148100398Y-56808121D01*
X148113579Y-56793579D01*
X148128121Y-56780398D01*
X148143886Y-56768706D01*
X148160721Y-56758616D01*
X148178463Y-56750224D01*
X148196943Y-56743612D01*
X148215982Y-56738843D01*
X148235397Y-56735963D01*
X148255000Y-56735000D01*
X148655000Y-56735000D01*
X148674603Y-56735963D01*
X148674603Y-56735963D01*
G37*
D25*
X148455000Y-57135000D03*
G04 #@! TD*
D15*
G04 #@! TO.C,D2*
G36*
X147024603Y-59275963D02*
X147044018Y-59278843D01*
X147063057Y-59283612D01*
X147081537Y-59290224D01*
X147099279Y-59298616D01*
X147116114Y-59308706D01*
X147131879Y-59320398D01*
X147146421Y-59333579D01*
X147159602Y-59348121D01*
X147171294Y-59363886D01*
X147181384Y-59380721D01*
X147189776Y-59398463D01*
X147196388Y-59416943D01*
X147201157Y-59435982D01*
X147204037Y-59455397D01*
X147205000Y-59475000D01*
X147205000Y-59875000D01*
X147204037Y-59894603D01*
X147201157Y-59914018D01*
X147196388Y-59933057D01*
X147189776Y-59951537D01*
X147181384Y-59969279D01*
X147171294Y-59986114D01*
X147159602Y-60001879D01*
X147146421Y-60016421D01*
X147131879Y-60029602D01*
X147116114Y-60041294D01*
X147099279Y-60051384D01*
X147081537Y-60059776D01*
X147063057Y-60066388D01*
X147044018Y-60071157D01*
X147024603Y-60074037D01*
X147005000Y-60075000D01*
X146605000Y-60075000D01*
X146585397Y-60074037D01*
X146565982Y-60071157D01*
X146546943Y-60066388D01*
X146528463Y-60059776D01*
X146510721Y-60051384D01*
X146493886Y-60041294D01*
X146478121Y-60029602D01*
X146463579Y-60016421D01*
X146450398Y-60001879D01*
X146438706Y-59986114D01*
X146428616Y-59969279D01*
X146420224Y-59951537D01*
X146413612Y-59933057D01*
X146408843Y-59914018D01*
X146405963Y-59894603D01*
X146405000Y-59875000D01*
X146405000Y-59475000D01*
X146405963Y-59455397D01*
X146408843Y-59435982D01*
X146413612Y-59416943D01*
X146420224Y-59398463D01*
X146428616Y-59380721D01*
X146438706Y-59363886D01*
X146450398Y-59348121D01*
X146463579Y-59333579D01*
X146478121Y-59320398D01*
X146493886Y-59308706D01*
X146510721Y-59298616D01*
X146528463Y-59290224D01*
X146546943Y-59283612D01*
X146565982Y-59278843D01*
X146585397Y-59275963D01*
X146605000Y-59275000D01*
X147005000Y-59275000D01*
X147024603Y-59275963D01*
X147024603Y-59275963D01*
G37*
D25*
X146805000Y-59675000D03*
D15*
G36*
X148674603Y-59275963D02*
X148694018Y-59278843D01*
X148713057Y-59283612D01*
X148731537Y-59290224D01*
X148749279Y-59298616D01*
X148766114Y-59308706D01*
X148781879Y-59320398D01*
X148796421Y-59333579D01*
X148809602Y-59348121D01*
X148821294Y-59363886D01*
X148831384Y-59380721D01*
X148839776Y-59398463D01*
X148846388Y-59416943D01*
X148851157Y-59435982D01*
X148854037Y-59455397D01*
X148855000Y-59475000D01*
X148855000Y-59875000D01*
X148854037Y-59894603D01*
X148851157Y-59914018D01*
X148846388Y-59933057D01*
X148839776Y-59951537D01*
X148831384Y-59969279D01*
X148821294Y-59986114D01*
X148809602Y-60001879D01*
X148796421Y-60016421D01*
X148781879Y-60029602D01*
X148766114Y-60041294D01*
X148749279Y-60051384D01*
X148731537Y-60059776D01*
X148713057Y-60066388D01*
X148694018Y-60071157D01*
X148674603Y-60074037D01*
X148655000Y-60075000D01*
X148255000Y-60075000D01*
X148235397Y-60074037D01*
X148215982Y-60071157D01*
X148196943Y-60066388D01*
X148178463Y-60059776D01*
X148160721Y-60051384D01*
X148143886Y-60041294D01*
X148128121Y-60029602D01*
X148113579Y-60016421D01*
X148100398Y-60001879D01*
X148088706Y-59986114D01*
X148078616Y-59969279D01*
X148070224Y-59951537D01*
X148063612Y-59933057D01*
X148058843Y-59914018D01*
X148055963Y-59894603D01*
X148055000Y-59875000D01*
X148055000Y-59475000D01*
X148055963Y-59455397D01*
X148058843Y-59435982D01*
X148063612Y-59416943D01*
X148070224Y-59398463D01*
X148078616Y-59380721D01*
X148088706Y-59363886D01*
X148100398Y-59348121D01*
X148113579Y-59333579D01*
X148128121Y-59320398D01*
X148143886Y-59308706D01*
X148160721Y-59298616D01*
X148178463Y-59290224D01*
X148196943Y-59283612D01*
X148215982Y-59278843D01*
X148235397Y-59275963D01*
X148255000Y-59275000D01*
X148655000Y-59275000D01*
X148674603Y-59275963D01*
X148674603Y-59275963D01*
G37*
D25*
X148455000Y-59675000D03*
G04 #@! TD*
D15*
G04 #@! TO.C,D3*
G36*
X147004661Y-61815963D02*
X147024076Y-61818843D01*
X147043115Y-61823612D01*
X147061595Y-61830224D01*
X147079337Y-61838616D01*
X147096172Y-61848706D01*
X147111937Y-61860398D01*
X147126479Y-61873579D01*
X147139660Y-61888121D01*
X147151352Y-61903886D01*
X147161442Y-61920721D01*
X147169834Y-61938463D01*
X147176446Y-61956943D01*
X147181215Y-61975982D01*
X147184095Y-61995397D01*
X147185058Y-62015000D01*
X147185058Y-62415000D01*
X147184095Y-62434603D01*
X147181215Y-62454018D01*
X147176446Y-62473057D01*
X147169834Y-62491537D01*
X147161442Y-62509279D01*
X147151352Y-62526114D01*
X147139660Y-62541879D01*
X147126479Y-62556421D01*
X147111937Y-62569602D01*
X147096172Y-62581294D01*
X147079337Y-62591384D01*
X147061595Y-62599776D01*
X147043115Y-62606388D01*
X147024076Y-62611157D01*
X147004661Y-62614037D01*
X146985058Y-62615000D01*
X146585058Y-62615000D01*
X146565455Y-62614037D01*
X146546040Y-62611157D01*
X146527001Y-62606388D01*
X146508521Y-62599776D01*
X146490779Y-62591384D01*
X146473944Y-62581294D01*
X146458179Y-62569602D01*
X146443637Y-62556421D01*
X146430456Y-62541879D01*
X146418764Y-62526114D01*
X146408674Y-62509279D01*
X146400282Y-62491537D01*
X146393670Y-62473057D01*
X146388901Y-62454018D01*
X146386021Y-62434603D01*
X146385058Y-62415000D01*
X146385058Y-62015000D01*
X146386021Y-61995397D01*
X146388901Y-61975982D01*
X146393670Y-61956943D01*
X146400282Y-61938463D01*
X146408674Y-61920721D01*
X146418764Y-61903886D01*
X146430456Y-61888121D01*
X146443637Y-61873579D01*
X146458179Y-61860398D01*
X146473944Y-61848706D01*
X146490779Y-61838616D01*
X146508521Y-61830224D01*
X146527001Y-61823612D01*
X146546040Y-61818843D01*
X146565455Y-61815963D01*
X146585058Y-61815000D01*
X146985058Y-61815000D01*
X147004661Y-61815963D01*
X147004661Y-61815963D01*
G37*
D25*
X146785058Y-62215000D03*
D15*
G36*
X148654661Y-61815963D02*
X148674076Y-61818843D01*
X148693115Y-61823612D01*
X148711595Y-61830224D01*
X148729337Y-61838616D01*
X148746172Y-61848706D01*
X148761937Y-61860398D01*
X148776479Y-61873579D01*
X148789660Y-61888121D01*
X148801352Y-61903886D01*
X148811442Y-61920721D01*
X148819834Y-61938463D01*
X148826446Y-61956943D01*
X148831215Y-61975982D01*
X148834095Y-61995397D01*
X148835058Y-62015000D01*
X148835058Y-62415000D01*
X148834095Y-62434603D01*
X148831215Y-62454018D01*
X148826446Y-62473057D01*
X148819834Y-62491537D01*
X148811442Y-62509279D01*
X148801352Y-62526114D01*
X148789660Y-62541879D01*
X148776479Y-62556421D01*
X148761937Y-62569602D01*
X148746172Y-62581294D01*
X148729337Y-62591384D01*
X148711595Y-62599776D01*
X148693115Y-62606388D01*
X148674076Y-62611157D01*
X148654661Y-62614037D01*
X148635058Y-62615000D01*
X148235058Y-62615000D01*
X148215455Y-62614037D01*
X148196040Y-62611157D01*
X148177001Y-62606388D01*
X148158521Y-62599776D01*
X148140779Y-62591384D01*
X148123944Y-62581294D01*
X148108179Y-62569602D01*
X148093637Y-62556421D01*
X148080456Y-62541879D01*
X148068764Y-62526114D01*
X148058674Y-62509279D01*
X148050282Y-62491537D01*
X148043670Y-62473057D01*
X148038901Y-62454018D01*
X148036021Y-62434603D01*
X148035058Y-62415000D01*
X148035058Y-62015000D01*
X148036021Y-61995397D01*
X148038901Y-61975982D01*
X148043670Y-61956943D01*
X148050282Y-61938463D01*
X148058674Y-61920721D01*
X148068764Y-61903886D01*
X148080456Y-61888121D01*
X148093637Y-61873579D01*
X148108179Y-61860398D01*
X148123944Y-61848706D01*
X148140779Y-61838616D01*
X148158521Y-61830224D01*
X148177001Y-61823612D01*
X148196040Y-61818843D01*
X148215455Y-61815963D01*
X148235058Y-61815000D01*
X148635058Y-61815000D01*
X148654661Y-61815963D01*
X148654661Y-61815963D01*
G37*
D25*
X148435058Y-62215000D03*
G04 #@! TD*
D15*
G04 #@! TO.C,D4*
G36*
X148654661Y-64355963D02*
X148674076Y-64358843D01*
X148693115Y-64363612D01*
X148711595Y-64370224D01*
X148729337Y-64378616D01*
X148746172Y-64388706D01*
X148761937Y-64400398D01*
X148776479Y-64413579D01*
X148789660Y-64428121D01*
X148801352Y-64443886D01*
X148811442Y-64460721D01*
X148819834Y-64478463D01*
X148826446Y-64496943D01*
X148831215Y-64515982D01*
X148834095Y-64535397D01*
X148835058Y-64555000D01*
X148835058Y-64955000D01*
X148834095Y-64974603D01*
X148831215Y-64994018D01*
X148826446Y-65013057D01*
X148819834Y-65031537D01*
X148811442Y-65049279D01*
X148801352Y-65066114D01*
X148789660Y-65081879D01*
X148776479Y-65096421D01*
X148761937Y-65109602D01*
X148746172Y-65121294D01*
X148729337Y-65131384D01*
X148711595Y-65139776D01*
X148693115Y-65146388D01*
X148674076Y-65151157D01*
X148654661Y-65154037D01*
X148635058Y-65155000D01*
X148235058Y-65155000D01*
X148215455Y-65154037D01*
X148196040Y-65151157D01*
X148177001Y-65146388D01*
X148158521Y-65139776D01*
X148140779Y-65131384D01*
X148123944Y-65121294D01*
X148108179Y-65109602D01*
X148093637Y-65096421D01*
X148080456Y-65081879D01*
X148068764Y-65066114D01*
X148058674Y-65049279D01*
X148050282Y-65031537D01*
X148043670Y-65013057D01*
X148038901Y-64994018D01*
X148036021Y-64974603D01*
X148035058Y-64955000D01*
X148035058Y-64555000D01*
X148036021Y-64535397D01*
X148038901Y-64515982D01*
X148043670Y-64496943D01*
X148050282Y-64478463D01*
X148058674Y-64460721D01*
X148068764Y-64443886D01*
X148080456Y-64428121D01*
X148093637Y-64413579D01*
X148108179Y-64400398D01*
X148123944Y-64388706D01*
X148140779Y-64378616D01*
X148158521Y-64370224D01*
X148177001Y-64363612D01*
X148196040Y-64358843D01*
X148215455Y-64355963D01*
X148235058Y-64355000D01*
X148635058Y-64355000D01*
X148654661Y-64355963D01*
X148654661Y-64355963D01*
G37*
D25*
X148435058Y-64755000D03*
D15*
G36*
X147004661Y-64355963D02*
X147024076Y-64358843D01*
X147043115Y-64363612D01*
X147061595Y-64370224D01*
X147079337Y-64378616D01*
X147096172Y-64388706D01*
X147111937Y-64400398D01*
X147126479Y-64413579D01*
X147139660Y-64428121D01*
X147151352Y-64443886D01*
X147161442Y-64460721D01*
X147169834Y-64478463D01*
X147176446Y-64496943D01*
X147181215Y-64515982D01*
X147184095Y-64535397D01*
X147185058Y-64555000D01*
X147185058Y-64955000D01*
X147184095Y-64974603D01*
X147181215Y-64994018D01*
X147176446Y-65013057D01*
X147169834Y-65031537D01*
X147161442Y-65049279D01*
X147151352Y-65066114D01*
X147139660Y-65081879D01*
X147126479Y-65096421D01*
X147111937Y-65109602D01*
X147096172Y-65121294D01*
X147079337Y-65131384D01*
X147061595Y-65139776D01*
X147043115Y-65146388D01*
X147024076Y-65151157D01*
X147004661Y-65154037D01*
X146985058Y-65155000D01*
X146585058Y-65155000D01*
X146565455Y-65154037D01*
X146546040Y-65151157D01*
X146527001Y-65146388D01*
X146508521Y-65139776D01*
X146490779Y-65131384D01*
X146473944Y-65121294D01*
X146458179Y-65109602D01*
X146443637Y-65096421D01*
X146430456Y-65081879D01*
X146418764Y-65066114D01*
X146408674Y-65049279D01*
X146400282Y-65031537D01*
X146393670Y-65013057D01*
X146388901Y-64994018D01*
X146386021Y-64974603D01*
X146385058Y-64955000D01*
X146385058Y-64555000D01*
X146386021Y-64535397D01*
X146388901Y-64515982D01*
X146393670Y-64496943D01*
X146400282Y-64478463D01*
X146408674Y-64460721D01*
X146418764Y-64443886D01*
X146430456Y-64428121D01*
X146443637Y-64413579D01*
X146458179Y-64400398D01*
X146473944Y-64388706D01*
X146490779Y-64378616D01*
X146508521Y-64370224D01*
X146527001Y-64363612D01*
X146546040Y-64358843D01*
X146565455Y-64355963D01*
X146585058Y-64355000D01*
X146985058Y-64355000D01*
X147004661Y-64355963D01*
X147004661Y-64355963D01*
G37*
D25*
X146785058Y-64755000D03*
G04 #@! TD*
D15*
G04 #@! TO.C,D8*
G36*
X148654661Y-66895963D02*
X148674076Y-66898843D01*
X148693115Y-66903612D01*
X148711595Y-66910224D01*
X148729337Y-66918616D01*
X148746172Y-66928706D01*
X148761937Y-66940398D01*
X148776479Y-66953579D01*
X148789660Y-66968121D01*
X148801352Y-66983886D01*
X148811442Y-67000721D01*
X148819834Y-67018463D01*
X148826446Y-67036943D01*
X148831215Y-67055982D01*
X148834095Y-67075397D01*
X148835058Y-67095000D01*
X148835058Y-67495000D01*
X148834095Y-67514603D01*
X148831215Y-67534018D01*
X148826446Y-67553057D01*
X148819834Y-67571537D01*
X148811442Y-67589279D01*
X148801352Y-67606114D01*
X148789660Y-67621879D01*
X148776479Y-67636421D01*
X148761937Y-67649602D01*
X148746172Y-67661294D01*
X148729337Y-67671384D01*
X148711595Y-67679776D01*
X148693115Y-67686388D01*
X148674076Y-67691157D01*
X148654661Y-67694037D01*
X148635058Y-67695000D01*
X148235058Y-67695000D01*
X148215455Y-67694037D01*
X148196040Y-67691157D01*
X148177001Y-67686388D01*
X148158521Y-67679776D01*
X148140779Y-67671384D01*
X148123944Y-67661294D01*
X148108179Y-67649602D01*
X148093637Y-67636421D01*
X148080456Y-67621879D01*
X148068764Y-67606114D01*
X148058674Y-67589279D01*
X148050282Y-67571537D01*
X148043670Y-67553057D01*
X148038901Y-67534018D01*
X148036021Y-67514603D01*
X148035058Y-67495000D01*
X148035058Y-67095000D01*
X148036021Y-67075397D01*
X148038901Y-67055982D01*
X148043670Y-67036943D01*
X148050282Y-67018463D01*
X148058674Y-67000721D01*
X148068764Y-66983886D01*
X148080456Y-66968121D01*
X148093637Y-66953579D01*
X148108179Y-66940398D01*
X148123944Y-66928706D01*
X148140779Y-66918616D01*
X148158521Y-66910224D01*
X148177001Y-66903612D01*
X148196040Y-66898843D01*
X148215455Y-66895963D01*
X148235058Y-66895000D01*
X148635058Y-66895000D01*
X148654661Y-66895963D01*
X148654661Y-66895963D01*
G37*
D25*
X148435058Y-67295000D03*
D15*
G36*
X147004661Y-66895963D02*
X147024076Y-66898843D01*
X147043115Y-66903612D01*
X147061595Y-66910224D01*
X147079337Y-66918616D01*
X147096172Y-66928706D01*
X147111937Y-66940398D01*
X147126479Y-66953579D01*
X147139660Y-66968121D01*
X147151352Y-66983886D01*
X147161442Y-67000721D01*
X147169834Y-67018463D01*
X147176446Y-67036943D01*
X147181215Y-67055982D01*
X147184095Y-67075397D01*
X147185058Y-67095000D01*
X147185058Y-67495000D01*
X147184095Y-67514603D01*
X147181215Y-67534018D01*
X147176446Y-67553057D01*
X147169834Y-67571537D01*
X147161442Y-67589279D01*
X147151352Y-67606114D01*
X147139660Y-67621879D01*
X147126479Y-67636421D01*
X147111937Y-67649602D01*
X147096172Y-67661294D01*
X147079337Y-67671384D01*
X147061595Y-67679776D01*
X147043115Y-67686388D01*
X147024076Y-67691157D01*
X147004661Y-67694037D01*
X146985058Y-67695000D01*
X146585058Y-67695000D01*
X146565455Y-67694037D01*
X146546040Y-67691157D01*
X146527001Y-67686388D01*
X146508521Y-67679776D01*
X146490779Y-67671384D01*
X146473944Y-67661294D01*
X146458179Y-67649602D01*
X146443637Y-67636421D01*
X146430456Y-67621879D01*
X146418764Y-67606114D01*
X146408674Y-67589279D01*
X146400282Y-67571537D01*
X146393670Y-67553057D01*
X146388901Y-67534018D01*
X146386021Y-67514603D01*
X146385058Y-67495000D01*
X146385058Y-67095000D01*
X146386021Y-67075397D01*
X146388901Y-67055982D01*
X146393670Y-67036943D01*
X146400282Y-67018463D01*
X146408674Y-67000721D01*
X146418764Y-66983886D01*
X146430456Y-66968121D01*
X146443637Y-66953579D01*
X146458179Y-66940398D01*
X146473944Y-66928706D01*
X146490779Y-66918616D01*
X146508521Y-66910224D01*
X146527001Y-66903612D01*
X146546040Y-66898843D01*
X146565455Y-66895963D01*
X146585058Y-66895000D01*
X146985058Y-66895000D01*
X147004661Y-66895963D01*
X147004661Y-66895963D01*
G37*
D25*
X146785058Y-67295000D03*
G04 #@! TD*
M02*
