G04 #@! TF.GenerationSoftware,KiCad,Pcbnew,(5.0.0)*
G04 #@! TF.CreationDate,2018-12-13T19:23:09+01:00*
G04 #@! TF.ProjectId,TrackAmplifier,547261636B416D706C69666965722E6B,rev?*
G04 #@! TF.SameCoordinates,Original*
G04 #@! TF.FileFunction,Soldermask,Bot*
G04 #@! TF.FilePolarity,Negative*
%FSLAX46Y46*%
G04 Gerber Fmt 4.6, Leading zero omitted, Abs format (unit mm)*
G04 Created by KiCad (PCBNEW (5.0.0)) date 12/13/18 19:23:09*
%MOMM*%
%LPD*%
G01*
G04 APERTURE LIST*
%ADD10R,2.900000X2.900000*%
%ADD11C,2.900000*%
%ADD12O,3.900000X3.900000*%
%ADD13O,2.300000X2.800000*%
%ADD14R,2.400000X2.000000*%
%ADD15O,2.400000X2.000000*%
%ADD16C,5.400000*%
%ADD17R,2.100000X2.900000*%
%ADD18O,2.100000X2.900000*%
%ADD19R,1.620000X2.200000*%
%ADD20R,2.000000X2.000000*%
%ADD21C,2.000000*%
%ADD22R,2.200000X1.620000*%
%ADD23C,1.700000*%
%ADD24R,1.700000X1.700000*%
%ADD25C,7.800000*%
%ADD26C,1.200000*%
%ADD27R,2.400000X2.400000*%
%ADD28C,2.400000*%
%ADD29C,0.100000*%
%ADD30C,2.325000*%
%ADD31C,1.650000*%
%ADD32R,6.600000X6.100000*%
%ADD33R,2.200000X2.117500*%
%ADD34O,2.200000X2.117500*%
G04 APERTURE END LIST*
D10*
G04 #@! TO.C,FL1*
X84544000Y-114843800D03*
D11*
X64544000Y-114843800D03*
X84544000Y-102343800D03*
X64544000Y-102343800D03*
G04 #@! TD*
D10*
G04 #@! TO.C,FL2*
X64605000Y-55230000D03*
D11*
X84605000Y-55230000D03*
X64605000Y-67730000D03*
X84605000Y-67730000D03*
G04 #@! TD*
D12*
G04 #@! TO.C,U4*
X137320000Y-97360000D03*
D13*
X145820000Y-77760000D03*
X144120000Y-80900000D03*
X142420000Y-77760000D03*
X140720000Y-80900000D03*
X139020000Y-77760000D03*
X137320000Y-80900000D03*
X135620000Y-77760000D03*
X133920000Y-80900000D03*
X132220000Y-77760000D03*
X130520000Y-80900000D03*
X128820000Y-77760000D03*
G04 #@! TD*
D14*
G04 #@! TO.C,J1*
X59800000Y-94390000D03*
D15*
X59800000Y-91620000D03*
X59800000Y-88850000D03*
X59800000Y-86080000D03*
X59800000Y-83310000D03*
X59800000Y-80540000D03*
X59800000Y-77770000D03*
X59800000Y-75000000D03*
X56960000Y-93005000D03*
X56960000Y-90235000D03*
X56960000Y-87465000D03*
X56960000Y-84695000D03*
X56960000Y-81925000D03*
X56960000Y-79155000D03*
X56960000Y-76385000D03*
D16*
X59500000Y-101345000D03*
X59500000Y-68045000D03*
G04 #@! TD*
D17*
G04 #@! TO.C,J2*
X132423000Y-53325000D03*
D18*
X134963000Y-53325000D03*
X137503000Y-53325000D03*
X140043000Y-53325000D03*
X142583000Y-53325000D03*
X145123000Y-53325000D03*
G04 #@! TD*
D19*
G04 #@! TO.C,C8*
X142235000Y-87615000D03*
X139375000Y-87615000D03*
G04 #@! TD*
G04 #@! TO.C,C9*
X139375000Y-85075000D03*
X142235000Y-85075000D03*
G04 #@! TD*
D20*
G04 #@! TO.C,C16*
X111468000Y-60310000D03*
D21*
X113968000Y-60310000D03*
G04 #@! TD*
D22*
G04 #@! TO.C,C17*
X149060000Y-80790000D03*
X149060000Y-77930000D03*
G04 #@! TD*
D19*
G04 #@! TO.C,C18*
X131440000Y-85075000D03*
X128580000Y-85075000D03*
G04 #@! TD*
G04 #@! TO.C,R20*
X87498000Y-111618000D03*
X84638000Y-111618000D03*
G04 #@! TD*
G04 #@! TO.C,R21*
X87498000Y-106030000D03*
X84638000Y-106030000D03*
G04 #@! TD*
D23*
G04 #@! TO.C,U11*
X119850000Y-96505000D03*
X121120000Y-95235000D03*
D24*
X121120000Y-97775000D03*
G04 #@! TD*
D25*
G04 #@! TO.C,MK1*
X137317013Y-97367015D03*
D26*
X134542013Y-97367015D03*
X135354792Y-95404794D03*
X137317013Y-94592015D03*
X139279234Y-95404794D03*
X140092013Y-97367015D03*
X139279234Y-99329236D03*
X137317013Y-100142015D03*
X135354792Y-99329236D03*
G04 #@! TD*
D19*
G04 #@! TO.C,R38*
X92451000Y-106030000D03*
X89591000Y-106030000D03*
G04 #@! TD*
D27*
G04 #@! TO.C,C6*
X127470000Y-62977000D03*
D28*
X122470000Y-62977000D03*
G04 #@! TD*
D29*
G04 #@! TO.C,F1*
G36*
X128318649Y-52052454D02*
X128347960Y-52056802D01*
X128376704Y-52064002D01*
X128404603Y-52073984D01*
X128431390Y-52086654D01*
X128456806Y-52101887D01*
X128480606Y-52119539D01*
X128502562Y-52139438D01*
X128522461Y-52161394D01*
X128540113Y-52185194D01*
X128555346Y-52210610D01*
X128568016Y-52237397D01*
X128577998Y-52265296D01*
X128585198Y-52294040D01*
X128589546Y-52323351D01*
X128591000Y-52352947D01*
X128591000Y-57599053D01*
X128589546Y-57628649D01*
X128585198Y-57657960D01*
X128577998Y-57686704D01*
X128568016Y-57714603D01*
X128555346Y-57741390D01*
X128540113Y-57766806D01*
X128522461Y-57790606D01*
X128502562Y-57812562D01*
X128480606Y-57832461D01*
X128456806Y-57850113D01*
X128431390Y-57865346D01*
X128404603Y-57878016D01*
X128376704Y-57887998D01*
X128347960Y-57895198D01*
X128318649Y-57899546D01*
X128289053Y-57901000D01*
X126567947Y-57901000D01*
X126538351Y-57899546D01*
X126509040Y-57895198D01*
X126480296Y-57887998D01*
X126452397Y-57878016D01*
X126425610Y-57865346D01*
X126400194Y-57850113D01*
X126376394Y-57832461D01*
X126354438Y-57812562D01*
X126334539Y-57790606D01*
X126316887Y-57766806D01*
X126301654Y-57741390D01*
X126288984Y-57714603D01*
X126279002Y-57686704D01*
X126271802Y-57657960D01*
X126267454Y-57628649D01*
X126266000Y-57599053D01*
X126266000Y-52352947D01*
X126267454Y-52323351D01*
X126271802Y-52294040D01*
X126279002Y-52265296D01*
X126288984Y-52237397D01*
X126301654Y-52210610D01*
X126316887Y-52185194D01*
X126334539Y-52161394D01*
X126354438Y-52139438D01*
X126376394Y-52119539D01*
X126400194Y-52101887D01*
X126425610Y-52086654D01*
X126452397Y-52073984D01*
X126480296Y-52064002D01*
X126509040Y-52056802D01*
X126538351Y-52052454D01*
X126567947Y-52051000D01*
X128289053Y-52051000D01*
X128318649Y-52052454D01*
X128318649Y-52052454D01*
G37*
D30*
X127428500Y-54976000D03*
D29*
G36*
X121543649Y-52052454D02*
X121572960Y-52056802D01*
X121601704Y-52064002D01*
X121629603Y-52073984D01*
X121656390Y-52086654D01*
X121681806Y-52101887D01*
X121705606Y-52119539D01*
X121727562Y-52139438D01*
X121747461Y-52161394D01*
X121765113Y-52185194D01*
X121780346Y-52210610D01*
X121793016Y-52237397D01*
X121802998Y-52265296D01*
X121810198Y-52294040D01*
X121814546Y-52323351D01*
X121816000Y-52352947D01*
X121816000Y-57599053D01*
X121814546Y-57628649D01*
X121810198Y-57657960D01*
X121802998Y-57686704D01*
X121793016Y-57714603D01*
X121780346Y-57741390D01*
X121765113Y-57766806D01*
X121747461Y-57790606D01*
X121727562Y-57812562D01*
X121705606Y-57832461D01*
X121681806Y-57850113D01*
X121656390Y-57865346D01*
X121629603Y-57878016D01*
X121601704Y-57887998D01*
X121572960Y-57895198D01*
X121543649Y-57899546D01*
X121514053Y-57901000D01*
X119792947Y-57901000D01*
X119763351Y-57899546D01*
X119734040Y-57895198D01*
X119705296Y-57887998D01*
X119677397Y-57878016D01*
X119650610Y-57865346D01*
X119625194Y-57850113D01*
X119601394Y-57832461D01*
X119579438Y-57812562D01*
X119559539Y-57790606D01*
X119541887Y-57766806D01*
X119526654Y-57741390D01*
X119513984Y-57714603D01*
X119504002Y-57686704D01*
X119496802Y-57657960D01*
X119492454Y-57628649D01*
X119491000Y-57599053D01*
X119491000Y-52352947D01*
X119492454Y-52323351D01*
X119496802Y-52294040D01*
X119504002Y-52265296D01*
X119513984Y-52237397D01*
X119526654Y-52210610D01*
X119541887Y-52185194D01*
X119559539Y-52161394D01*
X119579438Y-52139438D01*
X119601394Y-52119539D01*
X119625194Y-52101887D01*
X119650610Y-52086654D01*
X119677397Y-52073984D01*
X119705296Y-52064002D01*
X119734040Y-52056802D01*
X119763351Y-52052454D01*
X119792947Y-52051000D01*
X121514053Y-52051000D01*
X121543649Y-52052454D01*
X121543649Y-52052454D01*
G37*
D30*
X120653500Y-54976000D03*
G04 #@! TD*
D29*
G04 #@! TO.C,R16*
G36*
X92948346Y-110544589D02*
X92980380Y-110549341D01*
X93011794Y-110557210D01*
X93042286Y-110568120D01*
X93071561Y-110581966D01*
X93099338Y-110598615D01*
X93125350Y-110617907D01*
X93149345Y-110639655D01*
X93171093Y-110663650D01*
X93190385Y-110689662D01*
X93207034Y-110717439D01*
X93220880Y-110746714D01*
X93231790Y-110777206D01*
X93239659Y-110808620D01*
X93244411Y-110840654D01*
X93246000Y-110873000D01*
X93246000Y-112363000D01*
X93244411Y-112395346D01*
X93239659Y-112427380D01*
X93231790Y-112458794D01*
X93220880Y-112489286D01*
X93207034Y-112518561D01*
X93190385Y-112546338D01*
X93171093Y-112572350D01*
X93149345Y-112596345D01*
X93125350Y-112618093D01*
X93099338Y-112637385D01*
X93071561Y-112654034D01*
X93042286Y-112667880D01*
X93011794Y-112678790D01*
X92980380Y-112686659D01*
X92948346Y-112691411D01*
X92916000Y-112693000D01*
X91926000Y-112693000D01*
X91893654Y-112691411D01*
X91861620Y-112686659D01*
X91830206Y-112678790D01*
X91799714Y-112667880D01*
X91770439Y-112654034D01*
X91742662Y-112637385D01*
X91716650Y-112618093D01*
X91692655Y-112596345D01*
X91670907Y-112572350D01*
X91651615Y-112546338D01*
X91634966Y-112518561D01*
X91621120Y-112489286D01*
X91610210Y-112458794D01*
X91602341Y-112427380D01*
X91597589Y-112395346D01*
X91596000Y-112363000D01*
X91596000Y-110873000D01*
X91597589Y-110840654D01*
X91602341Y-110808620D01*
X91610210Y-110777206D01*
X91621120Y-110746714D01*
X91634966Y-110717439D01*
X91651615Y-110689662D01*
X91670907Y-110663650D01*
X91692655Y-110639655D01*
X91716650Y-110617907D01*
X91742662Y-110598615D01*
X91770439Y-110581966D01*
X91799714Y-110568120D01*
X91830206Y-110557210D01*
X91861620Y-110549341D01*
X91893654Y-110544589D01*
X91926000Y-110543000D01*
X92916000Y-110543000D01*
X92948346Y-110544589D01*
X92948346Y-110544589D01*
G37*
D31*
X92421000Y-111618000D03*
D29*
G36*
X90148346Y-110544589D02*
X90180380Y-110549341D01*
X90211794Y-110557210D01*
X90242286Y-110568120D01*
X90271561Y-110581966D01*
X90299338Y-110598615D01*
X90325350Y-110617907D01*
X90349345Y-110639655D01*
X90371093Y-110663650D01*
X90390385Y-110689662D01*
X90407034Y-110717439D01*
X90420880Y-110746714D01*
X90431790Y-110777206D01*
X90439659Y-110808620D01*
X90444411Y-110840654D01*
X90446000Y-110873000D01*
X90446000Y-112363000D01*
X90444411Y-112395346D01*
X90439659Y-112427380D01*
X90431790Y-112458794D01*
X90420880Y-112489286D01*
X90407034Y-112518561D01*
X90390385Y-112546338D01*
X90371093Y-112572350D01*
X90349345Y-112596345D01*
X90325350Y-112618093D01*
X90299338Y-112637385D01*
X90271561Y-112654034D01*
X90242286Y-112667880D01*
X90211794Y-112678790D01*
X90180380Y-112686659D01*
X90148346Y-112691411D01*
X90116000Y-112693000D01*
X89126000Y-112693000D01*
X89093654Y-112691411D01*
X89061620Y-112686659D01*
X89030206Y-112678790D01*
X88999714Y-112667880D01*
X88970439Y-112654034D01*
X88942662Y-112637385D01*
X88916650Y-112618093D01*
X88892655Y-112596345D01*
X88870907Y-112572350D01*
X88851615Y-112546338D01*
X88834966Y-112518561D01*
X88821120Y-112489286D01*
X88810210Y-112458794D01*
X88802341Y-112427380D01*
X88797589Y-112395346D01*
X88796000Y-112363000D01*
X88796000Y-110873000D01*
X88797589Y-110840654D01*
X88802341Y-110808620D01*
X88810210Y-110777206D01*
X88821120Y-110746714D01*
X88834966Y-110717439D01*
X88851615Y-110689662D01*
X88870907Y-110663650D01*
X88892655Y-110639655D01*
X88916650Y-110617907D01*
X88942662Y-110598615D01*
X88970439Y-110581966D01*
X88999714Y-110568120D01*
X89030206Y-110557210D01*
X89061620Y-110549341D01*
X89093654Y-110544589D01*
X89126000Y-110543000D01*
X90116000Y-110543000D01*
X90148346Y-110544589D01*
X90148346Y-110544589D01*
G37*
D31*
X89621000Y-111618000D03*
G04 #@! TD*
D29*
G04 #@! TO.C,R43*
G36*
X90662346Y-87811589D02*
X90694380Y-87816341D01*
X90725794Y-87824210D01*
X90756286Y-87835120D01*
X90785561Y-87848966D01*
X90813338Y-87865615D01*
X90839350Y-87884907D01*
X90863345Y-87906655D01*
X90885093Y-87930650D01*
X90904385Y-87956662D01*
X90921034Y-87984439D01*
X90934880Y-88013714D01*
X90945790Y-88044206D01*
X90953659Y-88075620D01*
X90958411Y-88107654D01*
X90960000Y-88140000D01*
X90960000Y-89630000D01*
X90958411Y-89662346D01*
X90953659Y-89694380D01*
X90945790Y-89725794D01*
X90934880Y-89756286D01*
X90921034Y-89785561D01*
X90904385Y-89813338D01*
X90885093Y-89839350D01*
X90863345Y-89863345D01*
X90839350Y-89885093D01*
X90813338Y-89904385D01*
X90785561Y-89921034D01*
X90756286Y-89934880D01*
X90725794Y-89945790D01*
X90694380Y-89953659D01*
X90662346Y-89958411D01*
X90630000Y-89960000D01*
X89640000Y-89960000D01*
X89607654Y-89958411D01*
X89575620Y-89953659D01*
X89544206Y-89945790D01*
X89513714Y-89934880D01*
X89484439Y-89921034D01*
X89456662Y-89904385D01*
X89430650Y-89885093D01*
X89406655Y-89863345D01*
X89384907Y-89839350D01*
X89365615Y-89813338D01*
X89348966Y-89785561D01*
X89335120Y-89756286D01*
X89324210Y-89725794D01*
X89316341Y-89694380D01*
X89311589Y-89662346D01*
X89310000Y-89630000D01*
X89310000Y-88140000D01*
X89311589Y-88107654D01*
X89316341Y-88075620D01*
X89324210Y-88044206D01*
X89335120Y-88013714D01*
X89348966Y-87984439D01*
X89365615Y-87956662D01*
X89384907Y-87930650D01*
X89406655Y-87906655D01*
X89430650Y-87884907D01*
X89456662Y-87865615D01*
X89484439Y-87848966D01*
X89513714Y-87835120D01*
X89544206Y-87824210D01*
X89575620Y-87816341D01*
X89607654Y-87811589D01*
X89640000Y-87810000D01*
X90630000Y-87810000D01*
X90662346Y-87811589D01*
X90662346Y-87811589D01*
G37*
D31*
X90135000Y-88885000D03*
D29*
G36*
X87862346Y-87811589D02*
X87894380Y-87816341D01*
X87925794Y-87824210D01*
X87956286Y-87835120D01*
X87985561Y-87848966D01*
X88013338Y-87865615D01*
X88039350Y-87884907D01*
X88063345Y-87906655D01*
X88085093Y-87930650D01*
X88104385Y-87956662D01*
X88121034Y-87984439D01*
X88134880Y-88013714D01*
X88145790Y-88044206D01*
X88153659Y-88075620D01*
X88158411Y-88107654D01*
X88160000Y-88140000D01*
X88160000Y-89630000D01*
X88158411Y-89662346D01*
X88153659Y-89694380D01*
X88145790Y-89725794D01*
X88134880Y-89756286D01*
X88121034Y-89785561D01*
X88104385Y-89813338D01*
X88085093Y-89839350D01*
X88063345Y-89863345D01*
X88039350Y-89885093D01*
X88013338Y-89904385D01*
X87985561Y-89921034D01*
X87956286Y-89934880D01*
X87925794Y-89945790D01*
X87894380Y-89953659D01*
X87862346Y-89958411D01*
X87830000Y-89960000D01*
X86840000Y-89960000D01*
X86807654Y-89958411D01*
X86775620Y-89953659D01*
X86744206Y-89945790D01*
X86713714Y-89934880D01*
X86684439Y-89921034D01*
X86656662Y-89904385D01*
X86630650Y-89885093D01*
X86606655Y-89863345D01*
X86584907Y-89839350D01*
X86565615Y-89813338D01*
X86548966Y-89785561D01*
X86535120Y-89756286D01*
X86524210Y-89725794D01*
X86516341Y-89694380D01*
X86511589Y-89662346D01*
X86510000Y-89630000D01*
X86510000Y-88140000D01*
X86511589Y-88107654D01*
X86516341Y-88075620D01*
X86524210Y-88044206D01*
X86535120Y-88013714D01*
X86548966Y-87984439D01*
X86565615Y-87956662D01*
X86584907Y-87930650D01*
X86606655Y-87906655D01*
X86630650Y-87884907D01*
X86656662Y-87865615D01*
X86684439Y-87848966D01*
X86713714Y-87835120D01*
X86744206Y-87824210D01*
X86775620Y-87816341D01*
X86807654Y-87811589D01*
X86840000Y-87810000D01*
X87830000Y-87810000D01*
X87862346Y-87811589D01*
X87862346Y-87811589D01*
G37*
D31*
X87335000Y-88885000D03*
G04 #@! TD*
D29*
G04 #@! TO.C,R46*
G36*
X87862346Y-83366589D02*
X87894380Y-83371341D01*
X87925794Y-83379210D01*
X87956286Y-83390120D01*
X87985561Y-83403966D01*
X88013338Y-83420615D01*
X88039350Y-83439907D01*
X88063345Y-83461655D01*
X88085093Y-83485650D01*
X88104385Y-83511662D01*
X88121034Y-83539439D01*
X88134880Y-83568714D01*
X88145790Y-83599206D01*
X88153659Y-83630620D01*
X88158411Y-83662654D01*
X88160000Y-83695000D01*
X88160000Y-85185000D01*
X88158411Y-85217346D01*
X88153659Y-85249380D01*
X88145790Y-85280794D01*
X88134880Y-85311286D01*
X88121034Y-85340561D01*
X88104385Y-85368338D01*
X88085093Y-85394350D01*
X88063345Y-85418345D01*
X88039350Y-85440093D01*
X88013338Y-85459385D01*
X87985561Y-85476034D01*
X87956286Y-85489880D01*
X87925794Y-85500790D01*
X87894380Y-85508659D01*
X87862346Y-85513411D01*
X87830000Y-85515000D01*
X86840000Y-85515000D01*
X86807654Y-85513411D01*
X86775620Y-85508659D01*
X86744206Y-85500790D01*
X86713714Y-85489880D01*
X86684439Y-85476034D01*
X86656662Y-85459385D01*
X86630650Y-85440093D01*
X86606655Y-85418345D01*
X86584907Y-85394350D01*
X86565615Y-85368338D01*
X86548966Y-85340561D01*
X86535120Y-85311286D01*
X86524210Y-85280794D01*
X86516341Y-85249380D01*
X86511589Y-85217346D01*
X86510000Y-85185000D01*
X86510000Y-83695000D01*
X86511589Y-83662654D01*
X86516341Y-83630620D01*
X86524210Y-83599206D01*
X86535120Y-83568714D01*
X86548966Y-83539439D01*
X86565615Y-83511662D01*
X86584907Y-83485650D01*
X86606655Y-83461655D01*
X86630650Y-83439907D01*
X86656662Y-83420615D01*
X86684439Y-83403966D01*
X86713714Y-83390120D01*
X86744206Y-83379210D01*
X86775620Y-83371341D01*
X86807654Y-83366589D01*
X86840000Y-83365000D01*
X87830000Y-83365000D01*
X87862346Y-83366589D01*
X87862346Y-83366589D01*
G37*
D31*
X87335000Y-84440000D03*
D29*
G36*
X90662346Y-83366589D02*
X90694380Y-83371341D01*
X90725794Y-83379210D01*
X90756286Y-83390120D01*
X90785561Y-83403966D01*
X90813338Y-83420615D01*
X90839350Y-83439907D01*
X90863345Y-83461655D01*
X90885093Y-83485650D01*
X90904385Y-83511662D01*
X90921034Y-83539439D01*
X90934880Y-83568714D01*
X90945790Y-83599206D01*
X90953659Y-83630620D01*
X90958411Y-83662654D01*
X90960000Y-83695000D01*
X90960000Y-85185000D01*
X90958411Y-85217346D01*
X90953659Y-85249380D01*
X90945790Y-85280794D01*
X90934880Y-85311286D01*
X90921034Y-85340561D01*
X90904385Y-85368338D01*
X90885093Y-85394350D01*
X90863345Y-85418345D01*
X90839350Y-85440093D01*
X90813338Y-85459385D01*
X90785561Y-85476034D01*
X90756286Y-85489880D01*
X90725794Y-85500790D01*
X90694380Y-85508659D01*
X90662346Y-85513411D01*
X90630000Y-85515000D01*
X89640000Y-85515000D01*
X89607654Y-85513411D01*
X89575620Y-85508659D01*
X89544206Y-85500790D01*
X89513714Y-85489880D01*
X89484439Y-85476034D01*
X89456662Y-85459385D01*
X89430650Y-85440093D01*
X89406655Y-85418345D01*
X89384907Y-85394350D01*
X89365615Y-85368338D01*
X89348966Y-85340561D01*
X89335120Y-85311286D01*
X89324210Y-85280794D01*
X89316341Y-85249380D01*
X89311589Y-85217346D01*
X89310000Y-85185000D01*
X89310000Y-83695000D01*
X89311589Y-83662654D01*
X89316341Y-83630620D01*
X89324210Y-83599206D01*
X89335120Y-83568714D01*
X89348966Y-83539439D01*
X89365615Y-83511662D01*
X89384907Y-83485650D01*
X89406655Y-83461655D01*
X89430650Y-83439907D01*
X89456662Y-83420615D01*
X89484439Y-83403966D01*
X89513714Y-83390120D01*
X89544206Y-83379210D01*
X89575620Y-83371341D01*
X89607654Y-83366589D01*
X89640000Y-83365000D01*
X90630000Y-83365000D01*
X90662346Y-83366589D01*
X90662346Y-83366589D01*
G37*
D31*
X90135000Y-84440000D03*
G04 #@! TD*
D32*
G04 #@! TO.C,U3*
X89556667Y-61457000D03*
D33*
X96990000Y-59167000D03*
D34*
X96990000Y-61457000D03*
X96990000Y-63747000D03*
G04 #@! TD*
D29*
G04 #@! TO.C,D13*
G36*
X83921405Y-88286445D02*
X83950527Y-88290764D01*
X83979085Y-88297918D01*
X84006805Y-88307836D01*
X84033419Y-88320424D01*
X84058671Y-88335559D01*
X84082318Y-88353097D01*
X84104132Y-88372868D01*
X84123903Y-88394682D01*
X84141441Y-88418329D01*
X84156576Y-88443581D01*
X84169164Y-88470195D01*
X84179082Y-88497915D01*
X84186236Y-88526473D01*
X84190555Y-88555595D01*
X84192000Y-88585000D01*
X84192000Y-89185000D01*
X84190555Y-89214405D01*
X84186236Y-89243527D01*
X84179082Y-89272085D01*
X84169164Y-89299805D01*
X84156576Y-89326419D01*
X84141441Y-89351671D01*
X84123903Y-89375318D01*
X84104132Y-89397132D01*
X84082318Y-89416903D01*
X84058671Y-89434441D01*
X84033419Y-89449576D01*
X84006805Y-89462164D01*
X83979085Y-89472082D01*
X83950527Y-89479236D01*
X83921405Y-89483555D01*
X83892000Y-89485000D01*
X83292000Y-89485000D01*
X83262595Y-89483555D01*
X83233473Y-89479236D01*
X83204915Y-89472082D01*
X83177195Y-89462164D01*
X83150581Y-89449576D01*
X83125329Y-89434441D01*
X83101682Y-89416903D01*
X83079868Y-89397132D01*
X83060097Y-89375318D01*
X83042559Y-89351671D01*
X83027424Y-89326419D01*
X83014836Y-89299805D01*
X83004918Y-89272085D01*
X82997764Y-89243527D01*
X82993445Y-89214405D01*
X82992000Y-89185000D01*
X82992000Y-88585000D01*
X82993445Y-88555595D01*
X82997764Y-88526473D01*
X83004918Y-88497915D01*
X83014836Y-88470195D01*
X83027424Y-88443581D01*
X83042559Y-88418329D01*
X83060097Y-88394682D01*
X83079868Y-88372868D01*
X83101682Y-88353097D01*
X83125329Y-88335559D01*
X83150581Y-88320424D01*
X83177195Y-88307836D01*
X83204915Y-88297918D01*
X83233473Y-88290764D01*
X83262595Y-88286445D01*
X83292000Y-88285000D01*
X83892000Y-88285000D01*
X83921405Y-88286445D01*
X83921405Y-88286445D01*
G37*
D26*
X83592000Y-88885000D03*
D29*
G36*
X85571405Y-88286445D02*
X85600527Y-88290764D01*
X85629085Y-88297918D01*
X85656805Y-88307836D01*
X85683419Y-88320424D01*
X85708671Y-88335559D01*
X85732318Y-88353097D01*
X85754132Y-88372868D01*
X85773903Y-88394682D01*
X85791441Y-88418329D01*
X85806576Y-88443581D01*
X85819164Y-88470195D01*
X85829082Y-88497915D01*
X85836236Y-88526473D01*
X85840555Y-88555595D01*
X85842000Y-88585000D01*
X85842000Y-89185000D01*
X85840555Y-89214405D01*
X85836236Y-89243527D01*
X85829082Y-89272085D01*
X85819164Y-89299805D01*
X85806576Y-89326419D01*
X85791441Y-89351671D01*
X85773903Y-89375318D01*
X85754132Y-89397132D01*
X85732318Y-89416903D01*
X85708671Y-89434441D01*
X85683419Y-89449576D01*
X85656805Y-89462164D01*
X85629085Y-89472082D01*
X85600527Y-89479236D01*
X85571405Y-89483555D01*
X85542000Y-89485000D01*
X84942000Y-89485000D01*
X84912595Y-89483555D01*
X84883473Y-89479236D01*
X84854915Y-89472082D01*
X84827195Y-89462164D01*
X84800581Y-89449576D01*
X84775329Y-89434441D01*
X84751682Y-89416903D01*
X84729868Y-89397132D01*
X84710097Y-89375318D01*
X84692559Y-89351671D01*
X84677424Y-89326419D01*
X84664836Y-89299805D01*
X84654918Y-89272085D01*
X84647764Y-89243527D01*
X84643445Y-89214405D01*
X84642000Y-89185000D01*
X84642000Y-88585000D01*
X84643445Y-88555595D01*
X84647764Y-88526473D01*
X84654918Y-88497915D01*
X84664836Y-88470195D01*
X84677424Y-88443581D01*
X84692559Y-88418329D01*
X84710097Y-88394682D01*
X84729868Y-88372868D01*
X84751682Y-88353097D01*
X84775329Y-88335559D01*
X84800581Y-88320424D01*
X84827195Y-88307836D01*
X84854915Y-88297918D01*
X84883473Y-88290764D01*
X84912595Y-88286445D01*
X84942000Y-88285000D01*
X85542000Y-88285000D01*
X85571405Y-88286445D01*
X85571405Y-88286445D01*
G37*
D26*
X85242000Y-88885000D03*
G04 #@! TD*
D29*
G04 #@! TO.C,D16*
G36*
X85571405Y-83841445D02*
X85600527Y-83845764D01*
X85629085Y-83852918D01*
X85656805Y-83862836D01*
X85683419Y-83875424D01*
X85708671Y-83890559D01*
X85732318Y-83908097D01*
X85754132Y-83927868D01*
X85773903Y-83949682D01*
X85791441Y-83973329D01*
X85806576Y-83998581D01*
X85819164Y-84025195D01*
X85829082Y-84052915D01*
X85836236Y-84081473D01*
X85840555Y-84110595D01*
X85842000Y-84140000D01*
X85842000Y-84740000D01*
X85840555Y-84769405D01*
X85836236Y-84798527D01*
X85829082Y-84827085D01*
X85819164Y-84854805D01*
X85806576Y-84881419D01*
X85791441Y-84906671D01*
X85773903Y-84930318D01*
X85754132Y-84952132D01*
X85732318Y-84971903D01*
X85708671Y-84989441D01*
X85683419Y-85004576D01*
X85656805Y-85017164D01*
X85629085Y-85027082D01*
X85600527Y-85034236D01*
X85571405Y-85038555D01*
X85542000Y-85040000D01*
X84942000Y-85040000D01*
X84912595Y-85038555D01*
X84883473Y-85034236D01*
X84854915Y-85027082D01*
X84827195Y-85017164D01*
X84800581Y-85004576D01*
X84775329Y-84989441D01*
X84751682Y-84971903D01*
X84729868Y-84952132D01*
X84710097Y-84930318D01*
X84692559Y-84906671D01*
X84677424Y-84881419D01*
X84664836Y-84854805D01*
X84654918Y-84827085D01*
X84647764Y-84798527D01*
X84643445Y-84769405D01*
X84642000Y-84740000D01*
X84642000Y-84140000D01*
X84643445Y-84110595D01*
X84647764Y-84081473D01*
X84654918Y-84052915D01*
X84664836Y-84025195D01*
X84677424Y-83998581D01*
X84692559Y-83973329D01*
X84710097Y-83949682D01*
X84729868Y-83927868D01*
X84751682Y-83908097D01*
X84775329Y-83890559D01*
X84800581Y-83875424D01*
X84827195Y-83862836D01*
X84854915Y-83852918D01*
X84883473Y-83845764D01*
X84912595Y-83841445D01*
X84942000Y-83840000D01*
X85542000Y-83840000D01*
X85571405Y-83841445D01*
X85571405Y-83841445D01*
G37*
D26*
X85242000Y-84440000D03*
D29*
G36*
X83921405Y-83841445D02*
X83950527Y-83845764D01*
X83979085Y-83852918D01*
X84006805Y-83862836D01*
X84033419Y-83875424D01*
X84058671Y-83890559D01*
X84082318Y-83908097D01*
X84104132Y-83927868D01*
X84123903Y-83949682D01*
X84141441Y-83973329D01*
X84156576Y-83998581D01*
X84169164Y-84025195D01*
X84179082Y-84052915D01*
X84186236Y-84081473D01*
X84190555Y-84110595D01*
X84192000Y-84140000D01*
X84192000Y-84740000D01*
X84190555Y-84769405D01*
X84186236Y-84798527D01*
X84179082Y-84827085D01*
X84169164Y-84854805D01*
X84156576Y-84881419D01*
X84141441Y-84906671D01*
X84123903Y-84930318D01*
X84104132Y-84952132D01*
X84082318Y-84971903D01*
X84058671Y-84989441D01*
X84033419Y-85004576D01*
X84006805Y-85017164D01*
X83979085Y-85027082D01*
X83950527Y-85034236D01*
X83921405Y-85038555D01*
X83892000Y-85040000D01*
X83292000Y-85040000D01*
X83262595Y-85038555D01*
X83233473Y-85034236D01*
X83204915Y-85027082D01*
X83177195Y-85017164D01*
X83150581Y-85004576D01*
X83125329Y-84989441D01*
X83101682Y-84971903D01*
X83079868Y-84952132D01*
X83060097Y-84930318D01*
X83042559Y-84906671D01*
X83027424Y-84881419D01*
X83014836Y-84854805D01*
X83004918Y-84827085D01*
X82997764Y-84798527D01*
X82993445Y-84769405D01*
X82992000Y-84740000D01*
X82992000Y-84140000D01*
X82993445Y-84110595D01*
X82997764Y-84081473D01*
X83004918Y-84052915D01*
X83014836Y-84025195D01*
X83027424Y-83998581D01*
X83042559Y-83973329D01*
X83060097Y-83949682D01*
X83079868Y-83927868D01*
X83101682Y-83908097D01*
X83125329Y-83890559D01*
X83150581Y-83875424D01*
X83177195Y-83862836D01*
X83204915Y-83852918D01*
X83233473Y-83845764D01*
X83262595Y-83841445D01*
X83292000Y-83840000D01*
X83892000Y-83840000D01*
X83921405Y-83841445D01*
X83921405Y-83841445D01*
G37*
D26*
X83592000Y-84440000D03*
G04 #@! TD*
M02*
