G04 #@! TF.GenerationSoftware,KiCad,Pcbnew,(5.0.0)*
G04 #@! TF.CreationDate,2018-12-13T19:23:09+01:00*
G04 #@! TF.ProjectId,TrackAmplifier,547261636B416D706C69666965722E6B,rev?*
G04 #@! TF.SameCoordinates,Original*
G04 #@! TF.FileFunction,Legend,Bot*
G04 #@! TF.FilePolarity,Positive*
%FSLAX46Y46*%
G04 Gerber Fmt 4.6, Leading zero omitted, Abs format (unit mm)*
G04 Created by KiCad (PCBNEW (5.0.0)) date 12/13/18 19:23:09*
%MOMM*%
%LPD*%
G01*
G04 APERTURE LIST*
%ADD10C,0.200000*%
%ADD11C,0.150000*%
%ADD12C,0.300000*%
%ADD13C,0.120000*%
G04 APERTURE END LIST*
D10*
X132446102Y-56091660D02*
X132573102Y-56218660D01*
X132573102Y-56218660D02*
X132446102Y-56218660D01*
X132446102Y-55329660D02*
X131430102Y-56726660D01*
X133462102Y-56599660D02*
X132446102Y-55329660D01*
X133589102Y-56726660D02*
X133462102Y-56599660D01*
X131430102Y-56726660D02*
X133589102Y-56726660D01*
D11*
X133795292Y-58195040D02*
X133795292Y-57195040D01*
X132747673Y-58099802D02*
X132795292Y-58147421D01*
X132938149Y-58195040D01*
X133033387Y-58195040D01*
X133176244Y-58147421D01*
X133271482Y-58052183D01*
X133319102Y-57956945D01*
X133366721Y-57766469D01*
X133366721Y-57623612D01*
X133319102Y-57433136D01*
X133271482Y-57337898D01*
X133176244Y-57242660D01*
X133033387Y-57195040D01*
X132938149Y-57195040D01*
X132795292Y-57242660D01*
X132747673Y-57290279D01*
X132366721Y-58147421D02*
X132223863Y-58195040D01*
X131985768Y-58195040D01*
X131890530Y-58147421D01*
X131842911Y-58099802D01*
X131795292Y-58004564D01*
X131795292Y-57909326D01*
X131842911Y-57814088D01*
X131890530Y-57766469D01*
X131985768Y-57718850D01*
X132176244Y-57671231D01*
X132271482Y-57623612D01*
X132319102Y-57575993D01*
X132366721Y-57480755D01*
X132366721Y-57385517D01*
X132319102Y-57290279D01*
X132271482Y-57242660D01*
X132176244Y-57195040D01*
X131938149Y-57195040D01*
X131795292Y-57242660D01*
X131366721Y-58195040D02*
X131366721Y-57195040D01*
X130985768Y-57195040D01*
X130890530Y-57242660D01*
X130842911Y-57290279D01*
X130795292Y-57385517D01*
X130795292Y-57528374D01*
X130842911Y-57623612D01*
X130890530Y-57671231D01*
X130985768Y-57718850D01*
X131366721Y-57718850D01*
D10*
X131684102Y-56599660D02*
X132446102Y-55456660D01*
X132446102Y-55456660D02*
X133335102Y-56599660D01*
X133335102Y-56599660D02*
X131684102Y-56599660D01*
X131823802Y-56523460D02*
X132446102Y-55710660D01*
X132446102Y-55710660D02*
X133081102Y-56472660D01*
X132954102Y-56472660D02*
X132065102Y-56472660D01*
X132192102Y-56345660D02*
X132446102Y-55964660D01*
X132573102Y-56091660D02*
X132827102Y-56345660D01*
X132700102Y-56345660D02*
X132319102Y-56345660D01*
D11*
X61779238Y-74859452D02*
X61874476Y-74811833D01*
X61922095Y-74764214D01*
X61969714Y-74668976D01*
X61969714Y-74621357D01*
X61922095Y-74526119D01*
X61874476Y-74478500D01*
X61779238Y-74430880D01*
X61588761Y-74430880D01*
X61493523Y-74478500D01*
X61445904Y-74526119D01*
X61398285Y-74621357D01*
X61398285Y-74668976D01*
X61445904Y-74764214D01*
X61493523Y-74811833D01*
X61588761Y-74859452D01*
X61779238Y-74859452D01*
X61874476Y-74907071D01*
X61922095Y-74954690D01*
X61969714Y-75049928D01*
X61969714Y-75240404D01*
X61922095Y-75335642D01*
X61874476Y-75383261D01*
X61779238Y-75430880D01*
X61588761Y-75430880D01*
X61493523Y-75383261D01*
X61445904Y-75335642D01*
X61398285Y-75240404D01*
X61398285Y-75049928D01*
X61445904Y-74954690D01*
X61493523Y-74907071D01*
X61588761Y-74859452D01*
X54762476Y-76827880D02*
X55333904Y-76827880D01*
X55048190Y-76827880D02*
X55048190Y-75827880D01*
X55143428Y-75970738D01*
X55238666Y-76065976D01*
X55333904Y-76113595D01*
X53857714Y-75827880D02*
X54333904Y-75827880D01*
X54381523Y-76304071D01*
X54333904Y-76256452D01*
X54238666Y-76208833D01*
X54000571Y-76208833D01*
X53905333Y-76256452D01*
X53857714Y-76304071D01*
X53810095Y-76399309D01*
X53810095Y-76637404D01*
X53857714Y-76732642D01*
X53905333Y-76780261D01*
X54000571Y-76827880D01*
X54238666Y-76827880D01*
X54333904Y-76780261D01*
X54381523Y-76732642D01*
X54889476Y-93401380D02*
X54699000Y-93401380D01*
X54603761Y-93353761D01*
X54556142Y-93306142D01*
X54460904Y-93163285D01*
X54413285Y-92972809D01*
X54413285Y-92591857D01*
X54460904Y-92496619D01*
X54508523Y-92449000D01*
X54603761Y-92401380D01*
X54794238Y-92401380D01*
X54889476Y-92449000D01*
X54937095Y-92496619D01*
X54984714Y-92591857D01*
X54984714Y-92829952D01*
X54937095Y-92925190D01*
X54889476Y-92972809D01*
X54794238Y-93020428D01*
X54603761Y-93020428D01*
X54508523Y-92972809D01*
X54460904Y-92925190D01*
X54413285Y-92829952D01*
X61398285Y-94861880D02*
X61969714Y-94861880D01*
X61684000Y-94861880D02*
X61684000Y-93861880D01*
X61779238Y-94004738D01*
X61874476Y-94099976D01*
X61969714Y-94147595D01*
D12*
X82015285Y-83618571D02*
X81729571Y-83618571D01*
X81586714Y-83690000D01*
X81443857Y-83832857D01*
X81372428Y-84118571D01*
X81372428Y-84618571D01*
X81443857Y-84904285D01*
X81586714Y-85047142D01*
X81729571Y-85118571D01*
X82015285Y-85118571D01*
X82158142Y-85047142D01*
X82301000Y-84904285D01*
X82372428Y-84618571D01*
X82372428Y-84118571D01*
X82301000Y-83832857D01*
X82158142Y-83690000D01*
X82015285Y-83618571D01*
X79872428Y-84975714D02*
X79943857Y-85047142D01*
X80158142Y-85118571D01*
X80301000Y-85118571D01*
X80515285Y-85047142D01*
X80658142Y-84904285D01*
X80729571Y-84761428D01*
X80801000Y-84475714D01*
X80801000Y-84261428D01*
X80729571Y-83975714D01*
X80658142Y-83832857D01*
X80515285Y-83690000D01*
X80301000Y-83618571D01*
X80158142Y-83618571D01*
X79943857Y-83690000D01*
X79872428Y-83761428D01*
X78372428Y-84975714D02*
X78443857Y-85047142D01*
X78658142Y-85118571D01*
X78801000Y-85118571D01*
X79015285Y-85047142D01*
X79158142Y-84904285D01*
X79229571Y-84761428D01*
X79301000Y-84475714D01*
X79301000Y-84261428D01*
X79229571Y-83975714D01*
X79158142Y-83832857D01*
X79015285Y-83690000D01*
X78801000Y-83618571D01*
X78658142Y-83618571D01*
X78443857Y-83690000D01*
X78372428Y-83761428D01*
X77729571Y-83618571D02*
X77729571Y-84832857D01*
X77658142Y-84975714D01*
X77586714Y-85047142D01*
X77443857Y-85118571D01*
X77158142Y-85118571D01*
X77015285Y-85047142D01*
X76943857Y-84975714D01*
X76872428Y-84832857D01*
X76872428Y-83618571D01*
X76158142Y-85118571D02*
X76158142Y-83618571D01*
X75586714Y-83618571D01*
X75443857Y-83690000D01*
X75372428Y-83761428D01*
X75301000Y-83904285D01*
X75301000Y-84118571D01*
X75372428Y-84261428D01*
X75443857Y-84332857D01*
X75586714Y-84404285D01*
X76158142Y-84404285D01*
X74658142Y-85118571D02*
X74658142Y-83618571D01*
X73943857Y-84332857D02*
X73443857Y-84332857D01*
X73229571Y-85118571D02*
X73943857Y-85118571D01*
X73943857Y-83618571D01*
X73229571Y-83618571D01*
X72586714Y-85118571D02*
X72586714Y-83618571D01*
X72229571Y-83618571D01*
X72015285Y-83690000D01*
X71872428Y-83832857D01*
X71801000Y-83975714D01*
X71729571Y-84261428D01*
X71729571Y-84475714D01*
X71801000Y-84761428D01*
X71872428Y-84904285D01*
X72015285Y-85047142D01*
X72229571Y-85118571D01*
X72586714Y-85118571D01*
X149500000Y-112503571D02*
X149500000Y-113575000D01*
X149571428Y-113789285D01*
X149714285Y-113932142D01*
X149928571Y-114003571D01*
X150071428Y-114003571D01*
X148857142Y-113932142D02*
X148642857Y-114003571D01*
X148285714Y-114003571D01*
X148142857Y-113932142D01*
X148071428Y-113860714D01*
X148000000Y-113717857D01*
X148000000Y-113575000D01*
X148071428Y-113432142D01*
X148142857Y-113360714D01*
X148285714Y-113289285D01*
X148571428Y-113217857D01*
X148714285Y-113146428D01*
X148785714Y-113075000D01*
X148857142Y-112932142D01*
X148857142Y-112789285D01*
X148785714Y-112646428D01*
X148714285Y-112575000D01*
X148571428Y-112503571D01*
X148214285Y-112503571D01*
X148000000Y-112575000D01*
X147357142Y-114003571D02*
X147357142Y-112503571D01*
X146142857Y-113217857D02*
X146642857Y-113217857D01*
X146642857Y-114003571D02*
X146642857Y-112503571D01*
X145928571Y-112503571D01*
X144285714Y-112646428D02*
X144214285Y-112575000D01*
X144071428Y-112503571D01*
X143714285Y-112503571D01*
X143571428Y-112575000D01*
X143500000Y-112646428D01*
X143428571Y-112789285D01*
X143428571Y-112932142D01*
X143500000Y-113146428D01*
X144357142Y-114003571D01*
X143428571Y-114003571D01*
X142500000Y-112503571D02*
X142357142Y-112503571D01*
X142214285Y-112575000D01*
X142142857Y-112646428D01*
X142071428Y-112789285D01*
X142000000Y-113075000D01*
X142000000Y-113432142D01*
X142071428Y-113717857D01*
X142142857Y-113860714D01*
X142214285Y-113932142D01*
X142357142Y-114003571D01*
X142500000Y-114003571D01*
X142642857Y-113932142D01*
X142714285Y-113860714D01*
X142785714Y-113717857D01*
X142857142Y-113432142D01*
X142857142Y-113075000D01*
X142785714Y-112789285D01*
X142714285Y-112646428D01*
X142642857Y-112575000D01*
X142500000Y-112503571D01*
X140571428Y-114003571D02*
X141428571Y-114003571D01*
X141000000Y-114003571D02*
X141000000Y-112503571D01*
X141142857Y-112717857D01*
X141285714Y-112860714D01*
X141428571Y-112932142D01*
X139857142Y-114003571D02*
X139571428Y-114003571D01*
X139428571Y-113932142D01*
X139357142Y-113860714D01*
X139214285Y-113646428D01*
X139142857Y-113360714D01*
X139142857Y-112789285D01*
X139214285Y-112646428D01*
X139285714Y-112575000D01*
X139428571Y-112503571D01*
X139714285Y-112503571D01*
X139857142Y-112575000D01*
X139928571Y-112646428D01*
X140000000Y-112789285D01*
X140000000Y-113146428D01*
X139928571Y-113289285D01*
X139857142Y-113360714D01*
X139714285Y-113432142D01*
X139428571Y-113432142D01*
X139285714Y-113360714D01*
X139214285Y-113289285D01*
X139142857Y-113146428D01*
X152142857Y-115053571D02*
X151285714Y-115053571D01*
X151714285Y-116553571D02*
X151714285Y-115053571D01*
X150785714Y-116553571D02*
X150785714Y-115553571D01*
X150785714Y-115839285D02*
X150714285Y-115696428D01*
X150642857Y-115625000D01*
X150500000Y-115553571D01*
X150357142Y-115553571D01*
X149214285Y-116553571D02*
X149214285Y-115767857D01*
X149285714Y-115625000D01*
X149428571Y-115553571D01*
X149714285Y-115553571D01*
X149857142Y-115625000D01*
X149214285Y-116482142D02*
X149357142Y-116553571D01*
X149714285Y-116553571D01*
X149857142Y-116482142D01*
X149928571Y-116339285D01*
X149928571Y-116196428D01*
X149857142Y-116053571D01*
X149714285Y-115982142D01*
X149357142Y-115982142D01*
X149214285Y-115910714D01*
X147857142Y-116482142D02*
X148000000Y-116553571D01*
X148285714Y-116553571D01*
X148428571Y-116482142D01*
X148500000Y-116410714D01*
X148571428Y-116267857D01*
X148571428Y-115839285D01*
X148500000Y-115696428D01*
X148428571Y-115625000D01*
X148285714Y-115553571D01*
X148000000Y-115553571D01*
X147857142Y-115625000D01*
X147214285Y-116553571D02*
X147214285Y-115053571D01*
X147071428Y-115982142D02*
X146642857Y-116553571D01*
X146642857Y-115553571D02*
X147214285Y-116125000D01*
X146071428Y-116125000D02*
X145357142Y-116125000D01*
X146214285Y-116553571D02*
X145714285Y-115053571D01*
X145214285Y-116553571D01*
X144714285Y-116553571D02*
X144714285Y-115553571D01*
X144714285Y-115696428D02*
X144642857Y-115625000D01*
X144500000Y-115553571D01*
X144285714Y-115553571D01*
X144142857Y-115625000D01*
X144071428Y-115767857D01*
X144071428Y-116553571D01*
X144071428Y-115767857D02*
X144000000Y-115625000D01*
X143857142Y-115553571D01*
X143642857Y-115553571D01*
X143500000Y-115625000D01*
X143428571Y-115767857D01*
X143428571Y-116553571D01*
X142714285Y-115553571D02*
X142714285Y-117053571D01*
X142714285Y-115625000D02*
X142571428Y-115553571D01*
X142285714Y-115553571D01*
X142142857Y-115625000D01*
X142071428Y-115696428D01*
X142000000Y-115839285D01*
X142000000Y-116267857D01*
X142071428Y-116410714D01*
X142142857Y-116482142D01*
X142285714Y-116553571D01*
X142571428Y-116553571D01*
X142714285Y-116482142D01*
X140428571Y-115053571D02*
X139928571Y-116553571D01*
X139428571Y-115053571D01*
X139000000Y-115196428D02*
X138928571Y-115125000D01*
X138785714Y-115053571D01*
X138428571Y-115053571D01*
X138285714Y-115125000D01*
X138214285Y-115196428D01*
X138142857Y-115339285D01*
X138142857Y-115482142D01*
X138214285Y-115696428D01*
X139071428Y-116553571D01*
X138142857Y-116553571D01*
X137500000Y-116410714D02*
X137428571Y-116482142D01*
X137500000Y-116553571D01*
X137571428Y-116482142D01*
X137500000Y-116410714D01*
X137500000Y-116553571D01*
X136500000Y-115053571D02*
X136357142Y-115053571D01*
X136214285Y-115125000D01*
X136142857Y-115196428D01*
X136071428Y-115339285D01*
X136000000Y-115625000D01*
X136000000Y-115982142D01*
X136071428Y-116267857D01*
X136142857Y-116410714D01*
X136214285Y-116482142D01*
X136357142Y-116553571D01*
X136500000Y-116553571D01*
X136642857Y-116482142D01*
X136714285Y-116410714D01*
X136785714Y-116267857D01*
X136857142Y-115982142D01*
X136857142Y-115625000D01*
X136785714Y-115339285D01*
X136714285Y-115196428D01*
X136642857Y-115125000D01*
X136500000Y-115053571D01*
D11*
X124547619Y-53476190D02*
X124309523Y-53476190D01*
X124404761Y-53238095D02*
X124309523Y-53476190D01*
X124404761Y-53714285D01*
X124119047Y-53333333D02*
X124309523Y-53476190D01*
X124119047Y-53619047D01*
X124547619Y-54238095D02*
X124309523Y-54238095D01*
X124404761Y-54000000D02*
X124309523Y-54238095D01*
X124404761Y-54476190D01*
X124119047Y-54095238D02*
X124309523Y-54238095D01*
X124119047Y-54380952D01*
X124547619Y-55000000D02*
X124309523Y-55000000D01*
X124404761Y-54761904D02*
X124309523Y-55000000D01*
X124404761Y-55238095D01*
X124119047Y-54857142D02*
X124309523Y-55000000D01*
X124119047Y-55142857D01*
X124547619Y-55761904D02*
X124309523Y-55761904D01*
X124404761Y-55523809D02*
X124309523Y-55761904D01*
X124404761Y-56000000D01*
X124119047Y-55619047D02*
X124309523Y-55761904D01*
X124119047Y-55904761D01*
X124547619Y-56523809D02*
X124309523Y-56523809D01*
X124404761Y-56285714D02*
X124309523Y-56523809D01*
X124404761Y-56761904D01*
X124119047Y-56380952D02*
X124309523Y-56523809D01*
X124119047Y-56666666D01*
X90642857Y-66047619D02*
X90642857Y-65809523D01*
X90880952Y-65904761D02*
X90642857Y-65809523D01*
X90404761Y-65904761D01*
X90785714Y-65619047D02*
X90642857Y-65809523D01*
X90500000Y-65619047D01*
X89880952Y-66047619D02*
X89880952Y-65809523D01*
X90119047Y-65904761D02*
X89880952Y-65809523D01*
X89642857Y-65904761D01*
X90023809Y-65619047D02*
X89880952Y-65809523D01*
X89738095Y-65619047D01*
X89119047Y-66047619D02*
X89119047Y-65809523D01*
X89357142Y-65904761D02*
X89119047Y-65809523D01*
X88880952Y-65904761D01*
X89261904Y-65619047D02*
X89119047Y-65809523D01*
X88976190Y-65619047D01*
X88357142Y-66047619D02*
X88357142Y-65809523D01*
X88595238Y-65904761D02*
X88357142Y-65809523D01*
X88119047Y-65904761D01*
X88500000Y-65619047D02*
X88357142Y-65809523D01*
X88214285Y-65619047D01*
D13*
G04 #@! TO.C,J1*
X52080000Y-104355000D02*
X62560000Y-104355000D01*
X62560000Y-104355000D02*
X62560000Y-65035000D01*
X62560000Y-65035000D02*
X52080000Y-65035000D01*
X63454338Y-94640000D02*
X63454338Y-94140000D01*
X63454338Y-94140000D02*
X63021325Y-94390000D01*
X63021325Y-94390000D02*
X63454338Y-94640000D01*
G04 #@! TO.C,C8*
X141305000Y-86705000D02*
X140305000Y-86705000D01*
X141305000Y-88525000D02*
X140305000Y-88525000D01*
G04 #@! TO.C,C9*
X141305000Y-85985000D02*
X140305000Y-85985000D01*
X141305000Y-84165000D02*
X140305000Y-84165000D01*
G04 #@! TO.C,C17*
X149970000Y-78860000D02*
X149970000Y-79860000D01*
X148150000Y-78860000D02*
X148150000Y-79860000D01*
G04 #@! TO.C,C18*
X130510000Y-84165000D02*
X129510000Y-84165000D01*
X130510000Y-85985000D02*
X129510000Y-85985000D01*
G04 #@! TO.C,R20*
X86568000Y-110708000D02*
X85568000Y-110708000D01*
X86568000Y-112528000D02*
X85568000Y-112528000D01*
G04 #@! TO.C,R21*
X85568000Y-105120000D02*
X86568000Y-105120000D01*
X85568000Y-106940000D02*
X86568000Y-106940000D01*
G04 #@! TO.C,R38*
X90521000Y-105120000D02*
X91521000Y-105120000D01*
X90521000Y-106940000D02*
X91521000Y-106940000D01*
G04 #@! TO.C,F1*
X126244752Y-52306000D02*
X121837248Y-52306000D01*
X126244752Y-57646000D02*
X121837248Y-57646000D01*
G04 #@! TO.C,R16*
X90418936Y-110708000D02*
X91623064Y-110708000D01*
X90418936Y-112528000D02*
X91623064Y-112528000D01*
G04 #@! TO.C,R43*
X88132936Y-87975000D02*
X89337064Y-87975000D01*
X88132936Y-89795000D02*
X89337064Y-89795000D01*
G04 #@! TO.C,R46*
X88132936Y-85350000D02*
X89337064Y-85350000D01*
X88132936Y-83530000D02*
X89337064Y-83530000D01*
G04 #@! TO.C,U3*
X94610000Y-58047000D02*
X94610000Y-64867000D01*
X87370000Y-58047000D02*
X87370000Y-58456000D01*
X87370000Y-64458000D02*
X87370000Y-64867000D01*
X87370000Y-58047000D02*
X94610000Y-58047000D01*
X87370000Y-64867000D02*
X94610000Y-64867000D01*
X94610000Y-59167000D02*
X95940000Y-59167000D01*
X94610000Y-61457000D02*
X95940000Y-61457000D01*
X94610000Y-63747000D02*
X95940000Y-63747000D01*
G04 #@! TO.C,D13*
X85217000Y-89620000D02*
X82932000Y-89620000D01*
X82932000Y-89620000D02*
X82932000Y-88150000D01*
X82932000Y-88150000D02*
X85217000Y-88150000D01*
G04 #@! TO.C,D16*
X82932000Y-83705000D02*
X85217000Y-83705000D01*
X82932000Y-85175000D02*
X82932000Y-83705000D01*
X85217000Y-85175000D02*
X82932000Y-85175000D01*
G04 #@! TO.C,J1*
D11*
X59858333Y-61032380D02*
X59858333Y-61746666D01*
X59905952Y-61889523D01*
X60001190Y-61984761D01*
X60144047Y-62032380D01*
X60239285Y-62032380D01*
X58858333Y-62032380D02*
X59429761Y-62032380D01*
X59144047Y-62032380D02*
X59144047Y-61032380D01*
X59239285Y-61175238D01*
X59334523Y-61270476D01*
X59429761Y-61318095D01*
G04 #@! TO.C,C8*
X140971666Y-89877142D02*
X141019285Y-89924761D01*
X141162142Y-89972380D01*
X141257380Y-89972380D01*
X141400238Y-89924761D01*
X141495476Y-89829523D01*
X141543095Y-89734285D01*
X141590714Y-89543809D01*
X141590714Y-89400952D01*
X141543095Y-89210476D01*
X141495476Y-89115238D01*
X141400238Y-89020000D01*
X141257380Y-88972380D01*
X141162142Y-88972380D01*
X141019285Y-89020000D01*
X140971666Y-89067619D01*
X140400238Y-89400952D02*
X140495476Y-89353333D01*
X140543095Y-89305714D01*
X140590714Y-89210476D01*
X140590714Y-89162857D01*
X140543095Y-89067619D01*
X140495476Y-89020000D01*
X140400238Y-88972380D01*
X140209761Y-88972380D01*
X140114523Y-89020000D01*
X140066904Y-89067619D01*
X140019285Y-89162857D01*
X140019285Y-89210476D01*
X140066904Y-89305714D01*
X140114523Y-89353333D01*
X140209761Y-89400952D01*
X140400238Y-89400952D01*
X140495476Y-89448571D01*
X140543095Y-89496190D01*
X140590714Y-89591428D01*
X140590714Y-89781904D01*
X140543095Y-89877142D01*
X140495476Y-89924761D01*
X140400238Y-89972380D01*
X140209761Y-89972380D01*
X140114523Y-89924761D01*
X140066904Y-89877142D01*
X140019285Y-89781904D01*
X140019285Y-89591428D01*
X140066904Y-89496190D01*
X140114523Y-89448571D01*
X140209761Y-89400952D01*
G04 #@! TO.C,C9*
X140971666Y-83527142D02*
X141019285Y-83574761D01*
X141162142Y-83622380D01*
X141257380Y-83622380D01*
X141400238Y-83574761D01*
X141495476Y-83479523D01*
X141543095Y-83384285D01*
X141590714Y-83193809D01*
X141590714Y-83050952D01*
X141543095Y-82860476D01*
X141495476Y-82765238D01*
X141400238Y-82670000D01*
X141257380Y-82622380D01*
X141162142Y-82622380D01*
X141019285Y-82670000D01*
X140971666Y-82717619D01*
X140495476Y-83622380D02*
X140305000Y-83622380D01*
X140209761Y-83574761D01*
X140162142Y-83527142D01*
X140066904Y-83384285D01*
X140019285Y-83193809D01*
X140019285Y-82812857D01*
X140066904Y-82717619D01*
X140114523Y-82670000D01*
X140209761Y-82622380D01*
X140400238Y-82622380D01*
X140495476Y-82670000D01*
X140543095Y-82717619D01*
X140590714Y-82812857D01*
X140590714Y-83050952D01*
X140543095Y-83146190D01*
X140495476Y-83193809D01*
X140400238Y-83241428D01*
X140209761Y-83241428D01*
X140114523Y-83193809D01*
X140066904Y-83146190D01*
X140019285Y-83050952D01*
G04 #@! TO.C,C17*
X151449142Y-78717142D02*
X151496761Y-78669523D01*
X151544380Y-78526666D01*
X151544380Y-78431428D01*
X151496761Y-78288571D01*
X151401523Y-78193333D01*
X151306285Y-78145714D01*
X151115809Y-78098095D01*
X150972952Y-78098095D01*
X150782476Y-78145714D01*
X150687238Y-78193333D01*
X150592000Y-78288571D01*
X150544380Y-78431428D01*
X150544380Y-78526666D01*
X150592000Y-78669523D01*
X150639619Y-78717142D01*
X151544380Y-79669523D02*
X151544380Y-79098095D01*
X151544380Y-79383809D02*
X150544380Y-79383809D01*
X150687238Y-79288571D01*
X150782476Y-79193333D01*
X150830095Y-79098095D01*
X150544380Y-80002857D02*
X150544380Y-80669523D01*
X151544380Y-80240952D01*
G04 #@! TO.C,C18*
X130779857Y-87337142D02*
X130827476Y-87384761D01*
X130970333Y-87432380D01*
X131065571Y-87432380D01*
X131208428Y-87384761D01*
X131303666Y-87289523D01*
X131351285Y-87194285D01*
X131398904Y-87003809D01*
X131398904Y-86860952D01*
X131351285Y-86670476D01*
X131303666Y-86575238D01*
X131208428Y-86480000D01*
X131065571Y-86432380D01*
X130970333Y-86432380D01*
X130827476Y-86480000D01*
X130779857Y-86527619D01*
X129827476Y-87432380D02*
X130398904Y-87432380D01*
X130113190Y-87432380D02*
X130113190Y-86432380D01*
X130208428Y-86575238D01*
X130303666Y-86670476D01*
X130398904Y-86718095D01*
X129256047Y-86860952D02*
X129351285Y-86813333D01*
X129398904Y-86765714D01*
X129446523Y-86670476D01*
X129446523Y-86622857D01*
X129398904Y-86527619D01*
X129351285Y-86480000D01*
X129256047Y-86432380D01*
X129065571Y-86432380D01*
X128970333Y-86480000D01*
X128922714Y-86527619D01*
X128875095Y-86622857D01*
X128875095Y-86670476D01*
X128922714Y-86765714D01*
X128970333Y-86813333D01*
X129065571Y-86860952D01*
X129256047Y-86860952D01*
X129351285Y-86908571D01*
X129398904Y-86956190D01*
X129446523Y-87051428D01*
X129446523Y-87241904D01*
X129398904Y-87337142D01*
X129351285Y-87384761D01*
X129256047Y-87432380D01*
X129065571Y-87432380D01*
X128970333Y-87384761D01*
X128922714Y-87337142D01*
X128875095Y-87241904D01*
X128875095Y-87051428D01*
X128922714Y-86956190D01*
X128970333Y-86908571D01*
X129065571Y-86860952D01*
G04 #@! TO.C,R20*
X82646857Y-112070380D02*
X82980190Y-111594190D01*
X83218285Y-112070380D02*
X83218285Y-111070380D01*
X82837333Y-111070380D01*
X82742095Y-111118000D01*
X82694476Y-111165619D01*
X82646857Y-111260857D01*
X82646857Y-111403714D01*
X82694476Y-111498952D01*
X82742095Y-111546571D01*
X82837333Y-111594190D01*
X83218285Y-111594190D01*
X82265904Y-111165619D02*
X82218285Y-111118000D01*
X82123047Y-111070380D01*
X81884952Y-111070380D01*
X81789714Y-111118000D01*
X81742095Y-111165619D01*
X81694476Y-111260857D01*
X81694476Y-111356095D01*
X81742095Y-111498952D01*
X82313523Y-112070380D01*
X81694476Y-112070380D01*
X81075428Y-111070380D02*
X80980190Y-111070380D01*
X80884952Y-111118000D01*
X80837333Y-111165619D01*
X80789714Y-111260857D01*
X80742095Y-111451333D01*
X80742095Y-111689428D01*
X80789714Y-111879904D01*
X80837333Y-111975142D01*
X80884952Y-112022761D01*
X80980190Y-112070380D01*
X81075428Y-112070380D01*
X81170666Y-112022761D01*
X81218285Y-111975142D01*
X81265904Y-111879904D01*
X81313523Y-111689428D01*
X81313523Y-111451333D01*
X81265904Y-111260857D01*
X81218285Y-111165619D01*
X81170666Y-111118000D01*
X81075428Y-111070380D01*
G04 #@! TO.C,R21*
X82646857Y-106482380D02*
X82980190Y-106006190D01*
X83218285Y-106482380D02*
X83218285Y-105482380D01*
X82837333Y-105482380D01*
X82742095Y-105530000D01*
X82694476Y-105577619D01*
X82646857Y-105672857D01*
X82646857Y-105815714D01*
X82694476Y-105910952D01*
X82742095Y-105958571D01*
X82837333Y-106006190D01*
X83218285Y-106006190D01*
X82265904Y-105577619D02*
X82218285Y-105530000D01*
X82123047Y-105482380D01*
X81884952Y-105482380D01*
X81789714Y-105530000D01*
X81742095Y-105577619D01*
X81694476Y-105672857D01*
X81694476Y-105768095D01*
X81742095Y-105910952D01*
X82313523Y-106482380D01*
X81694476Y-106482380D01*
X80742095Y-106482380D02*
X81313523Y-106482380D01*
X81027809Y-106482380D02*
X81027809Y-105482380D01*
X81123047Y-105625238D01*
X81218285Y-105720476D01*
X81313523Y-105768095D01*
G04 #@! TO.C,R38*
X95600857Y-106482380D02*
X95934190Y-106006190D01*
X96172285Y-106482380D02*
X96172285Y-105482380D01*
X95791333Y-105482380D01*
X95696095Y-105530000D01*
X95648476Y-105577619D01*
X95600857Y-105672857D01*
X95600857Y-105815714D01*
X95648476Y-105910952D01*
X95696095Y-105958571D01*
X95791333Y-106006190D01*
X96172285Y-106006190D01*
X95267523Y-105482380D02*
X94648476Y-105482380D01*
X94981809Y-105863333D01*
X94838952Y-105863333D01*
X94743714Y-105910952D01*
X94696095Y-105958571D01*
X94648476Y-106053809D01*
X94648476Y-106291904D01*
X94696095Y-106387142D01*
X94743714Y-106434761D01*
X94838952Y-106482380D01*
X95124666Y-106482380D01*
X95219904Y-106434761D01*
X95267523Y-106387142D01*
X94077047Y-105910952D02*
X94172285Y-105863333D01*
X94219904Y-105815714D01*
X94267523Y-105720476D01*
X94267523Y-105672857D01*
X94219904Y-105577619D01*
X94172285Y-105530000D01*
X94077047Y-105482380D01*
X93886571Y-105482380D01*
X93791333Y-105530000D01*
X93743714Y-105577619D01*
X93696095Y-105672857D01*
X93696095Y-105720476D01*
X93743714Y-105815714D01*
X93791333Y-105863333D01*
X93886571Y-105910952D01*
X94077047Y-105910952D01*
X94172285Y-105958571D01*
X94219904Y-106006190D01*
X94267523Y-106101428D01*
X94267523Y-106291904D01*
X94219904Y-106387142D01*
X94172285Y-106434761D01*
X94077047Y-106482380D01*
X93886571Y-106482380D01*
X93791333Y-106434761D01*
X93743714Y-106387142D01*
X93696095Y-106291904D01*
X93696095Y-106101428D01*
X93743714Y-106006190D01*
X93791333Y-105958571D01*
X93886571Y-105910952D01*
G04 #@! TO.C,F1*
X124374333Y-51224571D02*
X124707666Y-51224571D01*
X124707666Y-51748380D02*
X124707666Y-50748380D01*
X124231476Y-50748380D01*
X123326714Y-51748380D02*
X123898142Y-51748380D01*
X123612428Y-51748380D02*
X123612428Y-50748380D01*
X123707666Y-50891238D01*
X123802904Y-50986476D01*
X123898142Y-51034095D01*
G04 #@! TO.C,R16*
X95600857Y-112070380D02*
X95934190Y-111594190D01*
X96172285Y-112070380D02*
X96172285Y-111070380D01*
X95791333Y-111070380D01*
X95696095Y-111118000D01*
X95648476Y-111165619D01*
X95600857Y-111260857D01*
X95600857Y-111403714D01*
X95648476Y-111498952D01*
X95696095Y-111546571D01*
X95791333Y-111594190D01*
X96172285Y-111594190D01*
X94648476Y-112070380D02*
X95219904Y-112070380D01*
X94934190Y-112070380D02*
X94934190Y-111070380D01*
X95029428Y-111213238D01*
X95124666Y-111308476D01*
X95219904Y-111356095D01*
X93791333Y-111070380D02*
X93981809Y-111070380D01*
X94077047Y-111118000D01*
X94124666Y-111165619D01*
X94219904Y-111308476D01*
X94267523Y-111498952D01*
X94267523Y-111879904D01*
X94219904Y-111975142D01*
X94172285Y-112022761D01*
X94077047Y-112070380D01*
X93886571Y-112070380D01*
X93791333Y-112022761D01*
X93743714Y-111975142D01*
X93696095Y-111879904D01*
X93696095Y-111641809D01*
X93743714Y-111546571D01*
X93791333Y-111498952D01*
X93886571Y-111451333D01*
X94077047Y-111451333D01*
X94172285Y-111498952D01*
X94219904Y-111546571D01*
X94267523Y-111641809D01*
G04 #@! TO.C,R43*
X89377857Y-91157380D02*
X89711190Y-90681190D01*
X89949285Y-91157380D02*
X89949285Y-90157380D01*
X89568333Y-90157380D01*
X89473095Y-90205000D01*
X89425476Y-90252619D01*
X89377857Y-90347857D01*
X89377857Y-90490714D01*
X89425476Y-90585952D01*
X89473095Y-90633571D01*
X89568333Y-90681190D01*
X89949285Y-90681190D01*
X88520714Y-90490714D02*
X88520714Y-91157380D01*
X88758809Y-90109761D02*
X88996904Y-90824047D01*
X88377857Y-90824047D01*
X88092142Y-90157380D02*
X87473095Y-90157380D01*
X87806428Y-90538333D01*
X87663571Y-90538333D01*
X87568333Y-90585952D01*
X87520714Y-90633571D01*
X87473095Y-90728809D01*
X87473095Y-90966904D01*
X87520714Y-91062142D01*
X87568333Y-91109761D01*
X87663571Y-91157380D01*
X87949285Y-91157380D01*
X88044523Y-91109761D01*
X88092142Y-91062142D01*
G04 #@! TO.C,R46*
X89377857Y-86712380D02*
X89711190Y-86236190D01*
X89949285Y-86712380D02*
X89949285Y-85712380D01*
X89568333Y-85712380D01*
X89473095Y-85760000D01*
X89425476Y-85807619D01*
X89377857Y-85902857D01*
X89377857Y-86045714D01*
X89425476Y-86140952D01*
X89473095Y-86188571D01*
X89568333Y-86236190D01*
X89949285Y-86236190D01*
X88520714Y-86045714D02*
X88520714Y-86712380D01*
X88758809Y-85664761D02*
X88996904Y-86379047D01*
X88377857Y-86379047D01*
X87568333Y-85712380D02*
X87758809Y-85712380D01*
X87854047Y-85760000D01*
X87901666Y-85807619D01*
X87996904Y-85950476D01*
X88044523Y-86140952D01*
X88044523Y-86521904D01*
X87996904Y-86617142D01*
X87949285Y-86664761D01*
X87854047Y-86712380D01*
X87663571Y-86712380D01*
X87568333Y-86664761D01*
X87520714Y-86617142D01*
X87473095Y-86521904D01*
X87473095Y-86283809D01*
X87520714Y-86188571D01*
X87568333Y-86140952D01*
X87663571Y-86093333D01*
X87854047Y-86093333D01*
X87949285Y-86140952D01*
X87996904Y-86188571D01*
X88044523Y-86283809D01*
G04 #@! TO.C,U3*
X84789047Y-60695095D02*
X85598571Y-60695095D01*
X85693809Y-60742714D01*
X85741428Y-60790333D01*
X85789047Y-60885571D01*
X85789047Y-61076047D01*
X85741428Y-61171285D01*
X85693809Y-61218904D01*
X85598571Y-61266523D01*
X84789047Y-61266523D01*
X84789047Y-61647476D02*
X84789047Y-62266523D01*
X85170000Y-61933190D01*
X85170000Y-62076047D01*
X85217619Y-62171285D01*
X85265238Y-62218904D01*
X85360476Y-62266523D01*
X85598571Y-62266523D01*
X85693809Y-62218904D01*
X85741428Y-62171285D01*
X85789047Y-62076047D01*
X85789047Y-61790333D01*
X85741428Y-61695095D01*
X85693809Y-61647476D01*
G04 #@! TO.C,D13*
X85631285Y-91178880D02*
X85631285Y-90178880D01*
X85393190Y-90178880D01*
X85250333Y-90226500D01*
X85155095Y-90321738D01*
X85107476Y-90416976D01*
X85059857Y-90607452D01*
X85059857Y-90750309D01*
X85107476Y-90940785D01*
X85155095Y-91036023D01*
X85250333Y-91131261D01*
X85393190Y-91178880D01*
X85631285Y-91178880D01*
X84107476Y-91178880D02*
X84678904Y-91178880D01*
X84393190Y-91178880D02*
X84393190Y-90178880D01*
X84488428Y-90321738D01*
X84583666Y-90416976D01*
X84678904Y-90464595D01*
X83774142Y-90178880D02*
X83155095Y-90178880D01*
X83488428Y-90559833D01*
X83345571Y-90559833D01*
X83250333Y-90607452D01*
X83202714Y-90655071D01*
X83155095Y-90750309D01*
X83155095Y-90988404D01*
X83202714Y-91083642D01*
X83250333Y-91131261D01*
X83345571Y-91178880D01*
X83631285Y-91178880D01*
X83726523Y-91131261D01*
X83774142Y-91083642D01*
G04 #@! TO.C,D16*
X85631285Y-86733880D02*
X85631285Y-85733880D01*
X85393190Y-85733880D01*
X85250333Y-85781500D01*
X85155095Y-85876738D01*
X85107476Y-85971976D01*
X85059857Y-86162452D01*
X85059857Y-86305309D01*
X85107476Y-86495785D01*
X85155095Y-86591023D01*
X85250333Y-86686261D01*
X85393190Y-86733880D01*
X85631285Y-86733880D01*
X84107476Y-86733880D02*
X84678904Y-86733880D01*
X84393190Y-86733880D02*
X84393190Y-85733880D01*
X84488428Y-85876738D01*
X84583666Y-85971976D01*
X84678904Y-86019595D01*
X83250333Y-85733880D02*
X83440809Y-85733880D01*
X83536047Y-85781500D01*
X83583666Y-85829119D01*
X83678904Y-85971976D01*
X83726523Y-86162452D01*
X83726523Y-86543404D01*
X83678904Y-86638642D01*
X83631285Y-86686261D01*
X83536047Y-86733880D01*
X83345571Y-86733880D01*
X83250333Y-86686261D01*
X83202714Y-86638642D01*
X83155095Y-86543404D01*
X83155095Y-86305309D01*
X83202714Y-86210071D01*
X83250333Y-86162452D01*
X83345571Y-86114833D01*
X83536047Y-86114833D01*
X83631285Y-86162452D01*
X83678904Y-86210071D01*
X83726523Y-86305309D01*
G04 #@! TD*
M02*
