G04 #@! TF.GenerationSoftware,KiCad,Pcbnew,(5.0.0)*
G04 #@! TF.CreationDate,2018-12-13T19:23:09+01:00*
G04 #@! TF.ProjectId,TrackAmplifier,547261636B416D706C69666965722E6B,rev?*
G04 #@! TF.SameCoordinates,Original*
G04 #@! TF.FileFunction,Soldermask,Top*
G04 #@! TF.FilePolarity,Negative*
%FSLAX46Y46*%
G04 Gerber Fmt 4.6, Leading zero omitted, Abs format (unit mm)*
G04 Created by KiCad (PCBNEW (5.0.0)) date 12/13/18 19:23:09*
%MOMM*%
%LPD*%
G01*
G04 APERTURE LIST*
%ADD10R,1.300000X1.200000*%
%ADD11R,1.620000X2.200000*%
%ADD12R,2.900000X2.900000*%
%ADD13C,2.900000*%
%ADD14R,2.200000X1.620000*%
%ADD15O,3.900000X3.900000*%
%ADD16O,2.300000X2.800000*%
%ADD17R,2.400000X2.000000*%
%ADD18O,2.400000X2.000000*%
%ADD19C,5.400000*%
%ADD20R,2.100000X2.900000*%
%ADD21O,2.100000X2.900000*%
%ADD22R,2.000000X2.000000*%
%ADD23C,2.000000*%
%ADD24R,1.000000X1.950000*%
%ADD25R,2.400000X1.000000*%
%ADD26C,1.700000*%
%ADD27R,1.700000X1.700000*%
%ADD28C,7.800000*%
%ADD29C,1.200000*%
%ADD30R,2.400000X2.400000*%
%ADD31C,2.400000*%
%ADD32C,0.100000*%
%ADD33C,1.650000*%
%ADD34R,1.670000X1.800000*%
%ADD35R,5.120000X5.200000*%
%ADD36R,1.800000X1.670000*%
%ADD37R,5.200000X5.120000*%
%ADD38R,2.200000X2.117500*%
%ADD39O,2.200000X2.117500*%
%ADD40R,1.950000X1.000000*%
%ADD41R,1.850000X0.850000*%
%ADD42C,1.275000*%
%ADD43R,2.900000X4.400000*%
G04 APERTURE END LIST*
D10*
G04 #@! TO.C,U10*
X90116000Y-89835000D03*
X90116000Y-87935000D03*
X88116000Y-88885000D03*
G04 #@! TD*
D11*
G04 #@! TO.C,R5*
X88448000Y-52690000D03*
X91308000Y-52690000D03*
G04 #@! TD*
D12*
G04 #@! TO.C,FL1*
X84544000Y-114843800D03*
D13*
X64544000Y-114843800D03*
X84544000Y-102343800D03*
X64544000Y-102343800D03*
G04 #@! TD*
D12*
G04 #@! TO.C,FL2*
X64605000Y-55230000D03*
D13*
X84605000Y-55230000D03*
X64605000Y-67730000D03*
X84605000Y-67730000D03*
G04 #@! TD*
D14*
G04 #@! TO.C,R17*
X117945000Y-63010000D03*
X117945000Y-60150000D03*
G04 #@! TD*
D15*
G04 #@! TO.C,U4*
X137320000Y-97360000D03*
D16*
X145820000Y-77760000D03*
X144120000Y-80900000D03*
X142420000Y-77760000D03*
X140720000Y-80900000D03*
X139020000Y-77760000D03*
X137320000Y-80900000D03*
X135620000Y-77760000D03*
X133920000Y-80900000D03*
X132220000Y-77760000D03*
X130520000Y-80900000D03*
X128820000Y-77760000D03*
G04 #@! TD*
D17*
G04 #@! TO.C,J1*
X59800000Y-94390000D03*
D18*
X59800000Y-91620000D03*
X59800000Y-88850000D03*
X59800000Y-86080000D03*
X59800000Y-83310000D03*
X59800000Y-80540000D03*
X59800000Y-77770000D03*
X59800000Y-75000000D03*
X56960000Y-93005000D03*
X56960000Y-90235000D03*
X56960000Y-87465000D03*
X56960000Y-84695000D03*
X56960000Y-81925000D03*
X56960000Y-79155000D03*
X56960000Y-76385000D03*
D19*
X59500000Y-101345000D03*
X59500000Y-68045000D03*
G04 #@! TD*
D20*
G04 #@! TO.C,J2*
X132423000Y-53325000D03*
D21*
X134963000Y-53325000D03*
X137503000Y-53325000D03*
X140043000Y-53325000D03*
X142583000Y-53325000D03*
X145123000Y-53325000D03*
G04 #@! TD*
D14*
G04 #@! TO.C,C1*
X70320000Y-84092000D03*
X70320000Y-81232000D03*
G04 #@! TD*
G04 #@! TO.C,C2*
X84925000Y-81740000D03*
X84925000Y-84600000D03*
G04 #@! TD*
G04 #@! TO.C,C3*
X73096675Y-81232000D03*
X73096675Y-84092000D03*
G04 #@! TD*
G04 #@! TO.C,C4*
X82385000Y-81740000D03*
X82385000Y-84600000D03*
G04 #@! TD*
G04 #@! TO.C,C5*
X90640000Y-59962000D03*
X90640000Y-57102000D03*
G04 #@! TD*
G04 #@! TO.C,C7*
X93180000Y-57102000D03*
X93180000Y-59962000D03*
G04 #@! TD*
G04 #@! TO.C,C10*
X93180000Y-65550000D03*
X93180000Y-62690000D03*
G04 #@! TD*
G04 #@! TO.C,C11*
X64605000Y-93490000D03*
X64605000Y-90630000D03*
G04 #@! TD*
G04 #@! TO.C,C12*
X76035000Y-90630000D03*
X76035000Y-93490000D03*
G04 #@! TD*
G04 #@! TO.C,C13*
X90640000Y-62690000D03*
X90640000Y-65550000D03*
G04 #@! TD*
G04 #@! TO.C,C14*
X67145000Y-93490000D03*
X67145000Y-90630000D03*
G04 #@! TD*
G04 #@! TO.C,C15*
X78575000Y-90630000D03*
X78575000Y-93490000D03*
G04 #@! TD*
D22*
G04 #@! TO.C,C16*
X111468000Y-60310000D03*
D23*
X113968000Y-60310000D03*
G04 #@! TD*
D14*
G04 #@! TO.C,C19*
X90894000Y-100155000D03*
X90894000Y-103015000D03*
G04 #@! TD*
G04 #@! TO.C,C20*
X93434000Y-103015000D03*
X93434000Y-100155000D03*
G04 #@! TD*
G04 #@! TO.C,C22*
X95974000Y-100155000D03*
X95974000Y-103015000D03*
G04 #@! TD*
G04 #@! TO.C,C23*
X106261000Y-103015000D03*
X106261000Y-100155000D03*
G04 #@! TD*
G04 #@! TO.C,C24*
X108801000Y-100155000D03*
X108801000Y-103015000D03*
G04 #@! TD*
G04 #@! TO.C,C26*
X110960000Y-87452479D03*
X110960000Y-90312479D03*
G04 #@! TD*
G04 #@! TO.C,C27*
X108420000Y-90315000D03*
X108420000Y-87455000D03*
G04 #@! TD*
G04 #@! TO.C,C28*
X111341000Y-100155000D03*
X111341000Y-103015000D03*
G04 #@! TD*
G04 #@! TO.C,C29*
X113500000Y-87455000D03*
X113500000Y-90315000D03*
G04 #@! TD*
D11*
G04 #@! TO.C,C30*
X74798000Y-74534000D03*
X71938000Y-74534000D03*
G04 #@! TD*
G04 #@! TO.C,C31*
X99055000Y-72375000D03*
X96195000Y-72375000D03*
G04 #@! TD*
G04 #@! TO.C,D5*
X81750000Y-73645000D03*
X78890000Y-73645000D03*
G04 #@! TD*
G04 #@! TO.C,D6*
X81148000Y-76185000D03*
X78288000Y-76185000D03*
G04 #@! TD*
D10*
G04 #@! TO.C,Q1*
X89640000Y-72695000D03*
X89640000Y-74595000D03*
X91640000Y-73645000D03*
G04 #@! TD*
D11*
G04 #@! TO.C,R1*
X70160000Y-78852000D03*
X73020000Y-78852000D03*
G04 #@! TD*
G04 #@! TO.C,R2*
X82225000Y-79487000D03*
X85085000Y-79487000D03*
G04 #@! TD*
G04 #@! TO.C,R3*
X97150000Y-52690000D03*
X94290000Y-52690000D03*
G04 #@! TD*
D14*
G04 #@! TO.C,R4*
X140805000Y-71420000D03*
X140805000Y-74280000D03*
G04 #@! TD*
G04 #@! TO.C,R6*
X137630000Y-71420000D03*
X137630000Y-74280000D03*
G04 #@! TD*
G04 #@! TO.C,R7*
X143980000Y-71420000D03*
X143980000Y-74280000D03*
G04 #@! TD*
G04 #@! TO.C,R8*
X84925000Y-75075000D03*
X84925000Y-72215000D03*
G04 #@! TD*
D11*
G04 #@! TO.C,R9*
X64445000Y-95870000D03*
X67305000Y-95870000D03*
G04 #@! TD*
G04 #@! TO.C,R10*
X78735000Y-95870000D03*
X75875000Y-95870000D03*
G04 #@! TD*
G04 #@! TO.C,R11*
X118420000Y-106030000D03*
X121280000Y-106030000D03*
G04 #@! TD*
D14*
G04 #@! TO.C,R12*
X88354000Y-103015000D03*
X88354000Y-100155000D03*
G04 #@! TD*
D11*
G04 #@! TO.C,R13*
X93721000Y-113269000D03*
X90861000Y-113269000D03*
G04 #@! TD*
G04 #@! TO.C,R14*
X89911000Y-95743000D03*
X87051000Y-95743000D03*
G04 #@! TD*
D14*
G04 #@! TO.C,R15*
X97625000Y-113175000D03*
X97625000Y-110315000D03*
G04 #@! TD*
G04 #@! TO.C,R18*
X98514000Y-103015000D03*
X98514000Y-100155000D03*
G04 #@! TD*
G04 #@! TO.C,R19*
X103721000Y-103015000D03*
X103721000Y-100155000D03*
G04 #@! TD*
D11*
G04 #@! TO.C,R22*
X103975000Y-74280000D03*
X106835000Y-74280000D03*
G04 #@! TD*
D14*
G04 #@! TO.C,R23*
X113881000Y-103015000D03*
X113881000Y-100155000D03*
G04 #@! TD*
G04 #@! TO.C,R24*
X134455000Y-74280000D03*
X134455000Y-71420000D03*
G04 #@! TD*
G04 #@! TO.C,R25*
X116040000Y-90315000D03*
X116040000Y-87455000D03*
G04 #@! TD*
D11*
G04 #@! TO.C,R30*
X63810000Y-75550000D03*
X66670000Y-75550000D03*
G04 #@! TD*
G04 #@! TO.C,R31*
X99055000Y-69835000D03*
X96195000Y-69835000D03*
G04 #@! TD*
D14*
G04 #@! TO.C,R32*
X101435000Y-72535000D03*
X101435000Y-69675000D03*
G04 #@! TD*
D11*
G04 #@! TO.C,R33*
X63810000Y-72756000D03*
X66670000Y-72756000D03*
G04 #@! TD*
D24*
G04 #@! TO.C,U1*
X67780000Y-78692000D03*
X66510000Y-78692000D03*
X65240000Y-78692000D03*
X63970000Y-78692000D03*
X63970000Y-84092000D03*
X65240000Y-84092000D03*
X66510000Y-84092000D03*
X67780000Y-84092000D03*
G04 #@! TD*
G04 #@! TO.C,U2*
X79845000Y-78692000D03*
X78575000Y-78692000D03*
X77305000Y-78692000D03*
X76035000Y-78692000D03*
X76035000Y-84092000D03*
X77305000Y-84092000D03*
X78575000Y-84092000D03*
X79845000Y-84092000D03*
G04 #@! TD*
G04 #@! TO.C,U5*
X69685000Y-90630000D03*
X70955000Y-90630000D03*
X72225000Y-90630000D03*
X73495000Y-90630000D03*
X73495000Y-96030000D03*
X72225000Y-96030000D03*
X70955000Y-96030000D03*
X69685000Y-96030000D03*
G04 #@! TD*
G04 #@! TO.C,U6*
X81115000Y-90630000D03*
X82385000Y-90630000D03*
X83655000Y-90630000D03*
X84925000Y-90630000D03*
X84925000Y-96030000D03*
X83655000Y-96030000D03*
X82385000Y-96030000D03*
X81115000Y-96030000D03*
G04 #@! TD*
D25*
G04 #@! TO.C,U9*
X96100000Y-77452479D03*
X96100000Y-78722479D03*
X96100000Y-79992479D03*
X96100000Y-81262479D03*
X96100000Y-82532479D03*
X96100000Y-83802479D03*
X96100000Y-85072479D03*
X96100000Y-86342479D03*
X96100000Y-87612479D03*
X96100000Y-88882479D03*
X96100000Y-90152479D03*
X96100000Y-91422479D03*
X96100000Y-92692479D03*
X96100000Y-93962479D03*
X105500000Y-93962479D03*
X105500000Y-92692479D03*
X105500000Y-91422479D03*
X105500000Y-90152479D03*
X105500000Y-88882479D03*
X105500000Y-87612479D03*
X105500000Y-86342479D03*
X105500000Y-85072479D03*
X105500000Y-83802479D03*
X105500000Y-82532479D03*
X105500000Y-81262479D03*
X105500000Y-79992479D03*
X105500000Y-78722479D03*
X105500000Y-77452479D03*
G04 #@! TD*
D11*
G04 #@! TO.C,C32*
X88194000Y-80630000D03*
X91054000Y-80630000D03*
G04 #@! TD*
G04 #@! TO.C,C33*
X91054000Y-83170000D03*
X88194000Y-83170000D03*
G04 #@! TD*
G04 #@! TO.C,R34*
X88194000Y-78090000D03*
X91054000Y-78090000D03*
G04 #@! TD*
G04 #@! TO.C,C34*
X121280000Y-103490000D03*
X118420000Y-103490000D03*
G04 #@! TD*
G04 #@! TO.C,C35*
X118420000Y-100950000D03*
X121280000Y-100950000D03*
G04 #@! TD*
D26*
G04 #@! TO.C,U11*
X119850000Y-96505000D03*
X121120000Y-95235000D03*
D27*
X121120000Y-97775000D03*
G04 #@! TD*
D14*
G04 #@! TO.C,R36*
X87465000Y-72215000D03*
X87465000Y-75075000D03*
G04 #@! TD*
D11*
G04 #@! TO.C,R37*
X116962000Y-96505000D03*
X114102000Y-96505000D03*
G04 #@! TD*
D28*
G04 #@! TO.C,MK1*
X137317013Y-97367015D03*
D29*
X134542013Y-97367015D03*
X135354792Y-95404794D03*
X137317013Y-94592015D03*
X139279234Y-95404794D03*
X140092013Y-97367015D03*
X139279234Y-99329236D03*
X137317013Y-100142015D03*
X135354792Y-99329236D03*
G04 #@! TD*
D14*
G04 #@! TO.C,C36*
X112865000Y-69995000D03*
X112865000Y-67135000D03*
G04 #@! TD*
D11*
G04 #@! TO.C,D9*
X110485000Y-69835000D03*
X107625000Y-69835000D03*
G04 #@! TD*
D14*
G04 #@! TO.C,D10*
X115405000Y-65390000D03*
X115405000Y-68250000D03*
G04 #@! TD*
D30*
G04 #@! TO.C,C6*
X127470000Y-62977000D03*
D31*
X122470000Y-62977000D03*
G04 #@! TD*
D14*
G04 #@! TO.C,R39*
X117945000Y-68250000D03*
X117945000Y-65390000D03*
G04 #@! TD*
D11*
G04 #@! TO.C,R26*
X141120000Y-57135000D03*
X143980000Y-57135000D03*
G04 #@! TD*
G04 #@! TO.C,R27*
X143980000Y-59675000D03*
X141120000Y-59675000D03*
G04 #@! TD*
G04 #@! TO.C,R28*
X141120000Y-62215000D03*
X143980000Y-62215000D03*
G04 #@! TD*
G04 #@! TO.C,R29*
X143877815Y-67295000D03*
X141017815Y-67295000D03*
G04 #@! TD*
G04 #@! TO.C,R35*
X143877815Y-64755000D03*
X141017815Y-64755000D03*
G04 #@! TD*
G04 #@! TO.C,C37*
X92705000Y-70470000D03*
X89845000Y-70470000D03*
G04 #@! TD*
D14*
G04 #@! TO.C,R40*
X131280000Y-71420000D03*
X131280000Y-74280000D03*
G04 #@! TD*
D11*
G04 #@! TO.C,C38*
X108514000Y-96505000D03*
X111374000Y-96505000D03*
G04 #@! TD*
D32*
G04 #@! TO.C,C39*
G36*
X88751346Y-84636589D02*
X88783380Y-84641341D01*
X88814794Y-84649210D01*
X88845286Y-84660120D01*
X88874561Y-84673966D01*
X88902338Y-84690615D01*
X88928350Y-84709907D01*
X88952345Y-84731655D01*
X88974093Y-84755650D01*
X88993385Y-84781662D01*
X89010034Y-84809439D01*
X89023880Y-84838714D01*
X89034790Y-84869206D01*
X89042659Y-84900620D01*
X89047411Y-84932654D01*
X89049000Y-84965000D01*
X89049000Y-86455000D01*
X89047411Y-86487346D01*
X89042659Y-86519380D01*
X89034790Y-86550794D01*
X89023880Y-86581286D01*
X89010034Y-86610561D01*
X88993385Y-86638338D01*
X88974093Y-86664350D01*
X88952345Y-86688345D01*
X88928350Y-86710093D01*
X88902338Y-86729385D01*
X88874561Y-86746034D01*
X88845286Y-86759880D01*
X88814794Y-86770790D01*
X88783380Y-86778659D01*
X88751346Y-86783411D01*
X88719000Y-86785000D01*
X87729000Y-86785000D01*
X87696654Y-86783411D01*
X87664620Y-86778659D01*
X87633206Y-86770790D01*
X87602714Y-86759880D01*
X87573439Y-86746034D01*
X87545662Y-86729385D01*
X87519650Y-86710093D01*
X87495655Y-86688345D01*
X87473907Y-86664350D01*
X87454615Y-86638338D01*
X87437966Y-86610561D01*
X87424120Y-86581286D01*
X87413210Y-86550794D01*
X87405341Y-86519380D01*
X87400589Y-86487346D01*
X87399000Y-86455000D01*
X87399000Y-84965000D01*
X87400589Y-84932654D01*
X87405341Y-84900620D01*
X87413210Y-84869206D01*
X87424120Y-84838714D01*
X87437966Y-84809439D01*
X87454615Y-84781662D01*
X87473907Y-84755650D01*
X87495655Y-84731655D01*
X87519650Y-84709907D01*
X87545662Y-84690615D01*
X87573439Y-84673966D01*
X87602714Y-84660120D01*
X87633206Y-84649210D01*
X87664620Y-84641341D01*
X87696654Y-84636589D01*
X87729000Y-84635000D01*
X88719000Y-84635000D01*
X88751346Y-84636589D01*
X88751346Y-84636589D01*
G37*
D33*
X88224000Y-85710000D03*
D32*
G36*
X91551346Y-84636589D02*
X91583380Y-84641341D01*
X91614794Y-84649210D01*
X91645286Y-84660120D01*
X91674561Y-84673966D01*
X91702338Y-84690615D01*
X91728350Y-84709907D01*
X91752345Y-84731655D01*
X91774093Y-84755650D01*
X91793385Y-84781662D01*
X91810034Y-84809439D01*
X91823880Y-84838714D01*
X91834790Y-84869206D01*
X91842659Y-84900620D01*
X91847411Y-84932654D01*
X91849000Y-84965000D01*
X91849000Y-86455000D01*
X91847411Y-86487346D01*
X91842659Y-86519380D01*
X91834790Y-86550794D01*
X91823880Y-86581286D01*
X91810034Y-86610561D01*
X91793385Y-86638338D01*
X91774093Y-86664350D01*
X91752345Y-86688345D01*
X91728350Y-86710093D01*
X91702338Y-86729385D01*
X91674561Y-86746034D01*
X91645286Y-86759880D01*
X91614794Y-86770790D01*
X91583380Y-86778659D01*
X91551346Y-86783411D01*
X91519000Y-86785000D01*
X90529000Y-86785000D01*
X90496654Y-86783411D01*
X90464620Y-86778659D01*
X90433206Y-86770790D01*
X90402714Y-86759880D01*
X90373439Y-86746034D01*
X90345662Y-86729385D01*
X90319650Y-86710093D01*
X90295655Y-86688345D01*
X90273907Y-86664350D01*
X90254615Y-86638338D01*
X90237966Y-86610561D01*
X90224120Y-86581286D01*
X90213210Y-86550794D01*
X90205341Y-86519380D01*
X90200589Y-86487346D01*
X90199000Y-86455000D01*
X90199000Y-84965000D01*
X90200589Y-84932654D01*
X90205341Y-84900620D01*
X90213210Y-84869206D01*
X90224120Y-84838714D01*
X90237966Y-84809439D01*
X90254615Y-84781662D01*
X90273907Y-84755650D01*
X90295655Y-84731655D01*
X90319650Y-84709907D01*
X90345662Y-84690615D01*
X90373439Y-84673966D01*
X90402714Y-84660120D01*
X90433206Y-84649210D01*
X90464620Y-84641341D01*
X90496654Y-84636589D01*
X90529000Y-84635000D01*
X91519000Y-84635000D01*
X91551346Y-84636589D01*
X91551346Y-84636589D01*
G37*
D33*
X91024000Y-85710000D03*
G04 #@! TD*
D34*
G04 #@! TO.C,D7*
X100805000Y-52666000D03*
D35*
X104610000Y-53706000D03*
D34*
X100805000Y-54746000D03*
G04 #@! TD*
D36*
G04 #@! TO.C,D11*
X114667000Y-117455000D03*
D37*
X113627000Y-113650000D03*
D36*
X112587000Y-117455000D03*
G04 #@! TD*
G04 #@! TO.C,D12*
X104713000Y-112004000D03*
D37*
X105753000Y-115809000D03*
D36*
X106793000Y-112004000D03*
G04 #@! TD*
D32*
G04 #@! TO.C,D14*
G36*
X107293346Y-104194589D02*
X107325380Y-104199341D01*
X107356794Y-104207210D01*
X107387286Y-104218120D01*
X107416561Y-104231966D01*
X107444338Y-104248615D01*
X107470350Y-104267907D01*
X107494345Y-104289655D01*
X107516093Y-104313650D01*
X107535385Y-104339662D01*
X107552034Y-104367439D01*
X107565880Y-104396714D01*
X107576790Y-104427206D01*
X107584659Y-104458620D01*
X107589411Y-104490654D01*
X107591000Y-104523000D01*
X107591000Y-106013000D01*
X107589411Y-106045346D01*
X107584659Y-106077380D01*
X107576790Y-106108794D01*
X107565880Y-106139286D01*
X107552034Y-106168561D01*
X107535385Y-106196338D01*
X107516093Y-106222350D01*
X107494345Y-106246345D01*
X107470350Y-106268093D01*
X107444338Y-106287385D01*
X107416561Y-106304034D01*
X107387286Y-106317880D01*
X107356794Y-106328790D01*
X107325380Y-106336659D01*
X107293346Y-106341411D01*
X107261000Y-106343000D01*
X106271000Y-106343000D01*
X106238654Y-106341411D01*
X106206620Y-106336659D01*
X106175206Y-106328790D01*
X106144714Y-106317880D01*
X106115439Y-106304034D01*
X106087662Y-106287385D01*
X106061650Y-106268093D01*
X106037655Y-106246345D01*
X106015907Y-106222350D01*
X105996615Y-106196338D01*
X105979966Y-106168561D01*
X105966120Y-106139286D01*
X105955210Y-106108794D01*
X105947341Y-106077380D01*
X105942589Y-106045346D01*
X105941000Y-106013000D01*
X105941000Y-104523000D01*
X105942589Y-104490654D01*
X105947341Y-104458620D01*
X105955210Y-104427206D01*
X105966120Y-104396714D01*
X105979966Y-104367439D01*
X105996615Y-104339662D01*
X106015907Y-104313650D01*
X106037655Y-104289655D01*
X106061650Y-104267907D01*
X106087662Y-104248615D01*
X106115439Y-104231966D01*
X106144714Y-104218120D01*
X106175206Y-104207210D01*
X106206620Y-104199341D01*
X106238654Y-104194589D01*
X106271000Y-104193000D01*
X107261000Y-104193000D01*
X107293346Y-104194589D01*
X107293346Y-104194589D01*
G37*
D33*
X106766000Y-105268000D03*
D32*
G36*
X110093346Y-104194589D02*
X110125380Y-104199341D01*
X110156794Y-104207210D01*
X110187286Y-104218120D01*
X110216561Y-104231966D01*
X110244338Y-104248615D01*
X110270350Y-104267907D01*
X110294345Y-104289655D01*
X110316093Y-104313650D01*
X110335385Y-104339662D01*
X110352034Y-104367439D01*
X110365880Y-104396714D01*
X110376790Y-104427206D01*
X110384659Y-104458620D01*
X110389411Y-104490654D01*
X110391000Y-104523000D01*
X110391000Y-106013000D01*
X110389411Y-106045346D01*
X110384659Y-106077380D01*
X110376790Y-106108794D01*
X110365880Y-106139286D01*
X110352034Y-106168561D01*
X110335385Y-106196338D01*
X110316093Y-106222350D01*
X110294345Y-106246345D01*
X110270350Y-106268093D01*
X110244338Y-106287385D01*
X110216561Y-106304034D01*
X110187286Y-106317880D01*
X110156794Y-106328790D01*
X110125380Y-106336659D01*
X110093346Y-106341411D01*
X110061000Y-106343000D01*
X109071000Y-106343000D01*
X109038654Y-106341411D01*
X109006620Y-106336659D01*
X108975206Y-106328790D01*
X108944714Y-106317880D01*
X108915439Y-106304034D01*
X108887662Y-106287385D01*
X108861650Y-106268093D01*
X108837655Y-106246345D01*
X108815907Y-106222350D01*
X108796615Y-106196338D01*
X108779966Y-106168561D01*
X108766120Y-106139286D01*
X108755210Y-106108794D01*
X108747341Y-106077380D01*
X108742589Y-106045346D01*
X108741000Y-106013000D01*
X108741000Y-104523000D01*
X108742589Y-104490654D01*
X108747341Y-104458620D01*
X108755210Y-104427206D01*
X108766120Y-104396714D01*
X108779966Y-104367439D01*
X108796615Y-104339662D01*
X108815907Y-104313650D01*
X108837655Y-104289655D01*
X108861650Y-104267907D01*
X108887662Y-104248615D01*
X108915439Y-104231966D01*
X108944714Y-104218120D01*
X108975206Y-104207210D01*
X109006620Y-104199341D01*
X109038654Y-104194589D01*
X109071000Y-104193000D01*
X110061000Y-104193000D01*
X110093346Y-104194589D01*
X110093346Y-104194589D01*
G37*
D33*
X109566000Y-105268000D03*
G04 #@! TD*
D32*
G04 #@! TO.C,D15*
G36*
X115554346Y-105845589D02*
X115586380Y-105850341D01*
X115617794Y-105858210D01*
X115648286Y-105869120D01*
X115677561Y-105882966D01*
X115705338Y-105899615D01*
X115731350Y-105918907D01*
X115755345Y-105940655D01*
X115777093Y-105964650D01*
X115796385Y-105990662D01*
X115813034Y-106018439D01*
X115826880Y-106047714D01*
X115837790Y-106078206D01*
X115845659Y-106109620D01*
X115850411Y-106141654D01*
X115852000Y-106174000D01*
X115852000Y-107664000D01*
X115850411Y-107696346D01*
X115845659Y-107728380D01*
X115837790Y-107759794D01*
X115826880Y-107790286D01*
X115813034Y-107819561D01*
X115796385Y-107847338D01*
X115777093Y-107873350D01*
X115755345Y-107897345D01*
X115731350Y-107919093D01*
X115705338Y-107938385D01*
X115677561Y-107955034D01*
X115648286Y-107968880D01*
X115617794Y-107979790D01*
X115586380Y-107987659D01*
X115554346Y-107992411D01*
X115522000Y-107994000D01*
X114532000Y-107994000D01*
X114499654Y-107992411D01*
X114467620Y-107987659D01*
X114436206Y-107979790D01*
X114405714Y-107968880D01*
X114376439Y-107955034D01*
X114348662Y-107938385D01*
X114322650Y-107919093D01*
X114298655Y-107897345D01*
X114276907Y-107873350D01*
X114257615Y-107847338D01*
X114240966Y-107819561D01*
X114227120Y-107790286D01*
X114216210Y-107759794D01*
X114208341Y-107728380D01*
X114203589Y-107696346D01*
X114202000Y-107664000D01*
X114202000Y-106174000D01*
X114203589Y-106141654D01*
X114208341Y-106109620D01*
X114216210Y-106078206D01*
X114227120Y-106047714D01*
X114240966Y-106018439D01*
X114257615Y-105990662D01*
X114276907Y-105964650D01*
X114298655Y-105940655D01*
X114322650Y-105918907D01*
X114348662Y-105899615D01*
X114376439Y-105882966D01*
X114405714Y-105869120D01*
X114436206Y-105858210D01*
X114467620Y-105850341D01*
X114499654Y-105845589D01*
X114532000Y-105844000D01*
X115522000Y-105844000D01*
X115554346Y-105845589D01*
X115554346Y-105845589D01*
G37*
D33*
X115027000Y-106919000D03*
D32*
G36*
X112754346Y-105845589D02*
X112786380Y-105850341D01*
X112817794Y-105858210D01*
X112848286Y-105869120D01*
X112877561Y-105882966D01*
X112905338Y-105899615D01*
X112931350Y-105918907D01*
X112955345Y-105940655D01*
X112977093Y-105964650D01*
X112996385Y-105990662D01*
X113013034Y-106018439D01*
X113026880Y-106047714D01*
X113037790Y-106078206D01*
X113045659Y-106109620D01*
X113050411Y-106141654D01*
X113052000Y-106174000D01*
X113052000Y-107664000D01*
X113050411Y-107696346D01*
X113045659Y-107728380D01*
X113037790Y-107759794D01*
X113026880Y-107790286D01*
X113013034Y-107819561D01*
X112996385Y-107847338D01*
X112977093Y-107873350D01*
X112955345Y-107897345D01*
X112931350Y-107919093D01*
X112905338Y-107938385D01*
X112877561Y-107955034D01*
X112848286Y-107968880D01*
X112817794Y-107979790D01*
X112786380Y-107987659D01*
X112754346Y-107992411D01*
X112722000Y-107994000D01*
X111732000Y-107994000D01*
X111699654Y-107992411D01*
X111667620Y-107987659D01*
X111636206Y-107979790D01*
X111605714Y-107968880D01*
X111576439Y-107955034D01*
X111548662Y-107938385D01*
X111522650Y-107919093D01*
X111498655Y-107897345D01*
X111476907Y-107873350D01*
X111457615Y-107847338D01*
X111440966Y-107819561D01*
X111427120Y-107790286D01*
X111416210Y-107759794D01*
X111408341Y-107728380D01*
X111403589Y-107696346D01*
X111402000Y-107664000D01*
X111402000Y-106174000D01*
X111403589Y-106141654D01*
X111408341Y-106109620D01*
X111416210Y-106078206D01*
X111427120Y-106047714D01*
X111440966Y-106018439D01*
X111457615Y-105990662D01*
X111476907Y-105964650D01*
X111498655Y-105940655D01*
X111522650Y-105918907D01*
X111548662Y-105899615D01*
X111576439Y-105882966D01*
X111605714Y-105869120D01*
X111636206Y-105858210D01*
X111667620Y-105850341D01*
X111699654Y-105845589D01*
X111732000Y-105844000D01*
X112722000Y-105844000D01*
X112754346Y-105845589D01*
X112754346Y-105845589D01*
G37*
D33*
X112227000Y-106919000D03*
G04 #@! TD*
D32*
G04 #@! TO.C,R41*
G36*
X111738346Y-108512589D02*
X111770380Y-108517341D01*
X111801794Y-108525210D01*
X111832286Y-108536120D01*
X111861561Y-108549966D01*
X111889338Y-108566615D01*
X111915350Y-108585907D01*
X111939345Y-108607655D01*
X111961093Y-108631650D01*
X111980385Y-108657662D01*
X111997034Y-108685439D01*
X112010880Y-108714714D01*
X112021790Y-108745206D01*
X112029659Y-108776620D01*
X112034411Y-108808654D01*
X112036000Y-108841000D01*
X112036000Y-110331000D01*
X112034411Y-110363346D01*
X112029659Y-110395380D01*
X112021790Y-110426794D01*
X112010880Y-110457286D01*
X111997034Y-110486561D01*
X111980385Y-110514338D01*
X111961093Y-110540350D01*
X111939345Y-110564345D01*
X111915350Y-110586093D01*
X111889338Y-110605385D01*
X111861561Y-110622034D01*
X111832286Y-110635880D01*
X111801794Y-110646790D01*
X111770380Y-110654659D01*
X111738346Y-110659411D01*
X111706000Y-110661000D01*
X110716000Y-110661000D01*
X110683654Y-110659411D01*
X110651620Y-110654659D01*
X110620206Y-110646790D01*
X110589714Y-110635880D01*
X110560439Y-110622034D01*
X110532662Y-110605385D01*
X110506650Y-110586093D01*
X110482655Y-110564345D01*
X110460907Y-110540350D01*
X110441615Y-110514338D01*
X110424966Y-110486561D01*
X110411120Y-110457286D01*
X110400210Y-110426794D01*
X110392341Y-110395380D01*
X110387589Y-110363346D01*
X110386000Y-110331000D01*
X110386000Y-108841000D01*
X110387589Y-108808654D01*
X110392341Y-108776620D01*
X110400210Y-108745206D01*
X110411120Y-108714714D01*
X110424966Y-108685439D01*
X110441615Y-108657662D01*
X110460907Y-108631650D01*
X110482655Y-108607655D01*
X110506650Y-108585907D01*
X110532662Y-108566615D01*
X110560439Y-108549966D01*
X110589714Y-108536120D01*
X110620206Y-108525210D01*
X110651620Y-108517341D01*
X110683654Y-108512589D01*
X110716000Y-108511000D01*
X111706000Y-108511000D01*
X111738346Y-108512589D01*
X111738346Y-108512589D01*
G37*
D33*
X111211000Y-109586000D03*
D32*
G36*
X114538346Y-108512589D02*
X114570380Y-108517341D01*
X114601794Y-108525210D01*
X114632286Y-108536120D01*
X114661561Y-108549966D01*
X114689338Y-108566615D01*
X114715350Y-108585907D01*
X114739345Y-108607655D01*
X114761093Y-108631650D01*
X114780385Y-108657662D01*
X114797034Y-108685439D01*
X114810880Y-108714714D01*
X114821790Y-108745206D01*
X114829659Y-108776620D01*
X114834411Y-108808654D01*
X114836000Y-108841000D01*
X114836000Y-110331000D01*
X114834411Y-110363346D01*
X114829659Y-110395380D01*
X114821790Y-110426794D01*
X114810880Y-110457286D01*
X114797034Y-110486561D01*
X114780385Y-110514338D01*
X114761093Y-110540350D01*
X114739345Y-110564345D01*
X114715350Y-110586093D01*
X114689338Y-110605385D01*
X114661561Y-110622034D01*
X114632286Y-110635880D01*
X114601794Y-110646790D01*
X114570380Y-110654659D01*
X114538346Y-110659411D01*
X114506000Y-110661000D01*
X113516000Y-110661000D01*
X113483654Y-110659411D01*
X113451620Y-110654659D01*
X113420206Y-110646790D01*
X113389714Y-110635880D01*
X113360439Y-110622034D01*
X113332662Y-110605385D01*
X113306650Y-110586093D01*
X113282655Y-110564345D01*
X113260907Y-110540350D01*
X113241615Y-110514338D01*
X113224966Y-110486561D01*
X113211120Y-110457286D01*
X113200210Y-110426794D01*
X113192341Y-110395380D01*
X113187589Y-110363346D01*
X113186000Y-110331000D01*
X113186000Y-108841000D01*
X113187589Y-108808654D01*
X113192341Y-108776620D01*
X113200210Y-108745206D01*
X113211120Y-108714714D01*
X113224966Y-108685439D01*
X113241615Y-108657662D01*
X113260907Y-108631650D01*
X113282655Y-108607655D01*
X113306650Y-108585907D01*
X113332662Y-108566615D01*
X113360439Y-108549966D01*
X113389714Y-108536120D01*
X113420206Y-108525210D01*
X113451620Y-108517341D01*
X113483654Y-108512589D01*
X113516000Y-108511000D01*
X114506000Y-108511000D01*
X114538346Y-108512589D01*
X114538346Y-108512589D01*
G37*
D33*
X114011000Y-109586000D03*
G04 #@! TD*
D32*
G04 #@! TO.C,R42*
G36*
X98402346Y-107495589D02*
X98434380Y-107500341D01*
X98465794Y-107508210D01*
X98496286Y-107519120D01*
X98525561Y-107532966D01*
X98553338Y-107549615D01*
X98579350Y-107568907D01*
X98603345Y-107590655D01*
X98625093Y-107614650D01*
X98644385Y-107640662D01*
X98661034Y-107668439D01*
X98674880Y-107697714D01*
X98685790Y-107728206D01*
X98693659Y-107759620D01*
X98698411Y-107791654D01*
X98700000Y-107824000D01*
X98700000Y-108814000D01*
X98698411Y-108846346D01*
X98693659Y-108878380D01*
X98685790Y-108909794D01*
X98674880Y-108940286D01*
X98661034Y-108969561D01*
X98644385Y-108997338D01*
X98625093Y-109023350D01*
X98603345Y-109047345D01*
X98579350Y-109069093D01*
X98553338Y-109088385D01*
X98525561Y-109105034D01*
X98496286Y-109118880D01*
X98465794Y-109129790D01*
X98434380Y-109137659D01*
X98402346Y-109142411D01*
X98370000Y-109144000D01*
X96880000Y-109144000D01*
X96847654Y-109142411D01*
X96815620Y-109137659D01*
X96784206Y-109129790D01*
X96753714Y-109118880D01*
X96724439Y-109105034D01*
X96696662Y-109088385D01*
X96670650Y-109069093D01*
X96646655Y-109047345D01*
X96624907Y-109023350D01*
X96605615Y-108997338D01*
X96588966Y-108969561D01*
X96575120Y-108940286D01*
X96564210Y-108909794D01*
X96556341Y-108878380D01*
X96551589Y-108846346D01*
X96550000Y-108814000D01*
X96550000Y-107824000D01*
X96551589Y-107791654D01*
X96556341Y-107759620D01*
X96564210Y-107728206D01*
X96575120Y-107697714D01*
X96588966Y-107668439D01*
X96605615Y-107640662D01*
X96624907Y-107614650D01*
X96646655Y-107590655D01*
X96670650Y-107568907D01*
X96696662Y-107549615D01*
X96724439Y-107532966D01*
X96753714Y-107519120D01*
X96784206Y-107508210D01*
X96815620Y-107500341D01*
X96847654Y-107495589D01*
X96880000Y-107494000D01*
X98370000Y-107494000D01*
X98402346Y-107495589D01*
X98402346Y-107495589D01*
G37*
D33*
X97625000Y-108319000D03*
D32*
G36*
X98402346Y-104695589D02*
X98434380Y-104700341D01*
X98465794Y-104708210D01*
X98496286Y-104719120D01*
X98525561Y-104732966D01*
X98553338Y-104749615D01*
X98579350Y-104768907D01*
X98603345Y-104790655D01*
X98625093Y-104814650D01*
X98644385Y-104840662D01*
X98661034Y-104868439D01*
X98674880Y-104897714D01*
X98685790Y-104928206D01*
X98693659Y-104959620D01*
X98698411Y-104991654D01*
X98700000Y-105024000D01*
X98700000Y-106014000D01*
X98698411Y-106046346D01*
X98693659Y-106078380D01*
X98685790Y-106109794D01*
X98674880Y-106140286D01*
X98661034Y-106169561D01*
X98644385Y-106197338D01*
X98625093Y-106223350D01*
X98603345Y-106247345D01*
X98579350Y-106269093D01*
X98553338Y-106288385D01*
X98525561Y-106305034D01*
X98496286Y-106318880D01*
X98465794Y-106329790D01*
X98434380Y-106337659D01*
X98402346Y-106342411D01*
X98370000Y-106344000D01*
X96880000Y-106344000D01*
X96847654Y-106342411D01*
X96815620Y-106337659D01*
X96784206Y-106329790D01*
X96753714Y-106318880D01*
X96724439Y-106305034D01*
X96696662Y-106288385D01*
X96670650Y-106269093D01*
X96646655Y-106247345D01*
X96624907Y-106223350D01*
X96605615Y-106197338D01*
X96588966Y-106169561D01*
X96575120Y-106140286D01*
X96564210Y-106109794D01*
X96556341Y-106078380D01*
X96551589Y-106046346D01*
X96550000Y-106014000D01*
X96550000Y-105024000D01*
X96551589Y-104991654D01*
X96556341Y-104959620D01*
X96564210Y-104928206D01*
X96575120Y-104897714D01*
X96588966Y-104868439D01*
X96605615Y-104840662D01*
X96624907Y-104814650D01*
X96646655Y-104790655D01*
X96670650Y-104768907D01*
X96696662Y-104749615D01*
X96724439Y-104732966D01*
X96753714Y-104719120D01*
X96784206Y-104708210D01*
X96815620Y-104700341D01*
X96847654Y-104695589D01*
X96880000Y-104694000D01*
X98370000Y-104694000D01*
X98402346Y-104695589D01*
X98402346Y-104695589D01*
G37*
D33*
X97625000Y-105519000D03*
G04 #@! TD*
D32*
G04 #@! TO.C,R44*
G36*
X96755346Y-73841589D02*
X96787380Y-73846341D01*
X96818794Y-73854210D01*
X96849286Y-73865120D01*
X96878561Y-73878966D01*
X96906338Y-73895615D01*
X96932350Y-73914907D01*
X96956345Y-73936655D01*
X96978093Y-73960650D01*
X96997385Y-73986662D01*
X97014034Y-74014439D01*
X97027880Y-74043714D01*
X97038790Y-74074206D01*
X97046659Y-74105620D01*
X97051411Y-74137654D01*
X97053000Y-74170000D01*
X97053000Y-75660000D01*
X97051411Y-75692346D01*
X97046659Y-75724380D01*
X97038790Y-75755794D01*
X97027880Y-75786286D01*
X97014034Y-75815561D01*
X96997385Y-75843338D01*
X96978093Y-75869350D01*
X96956345Y-75893345D01*
X96932350Y-75915093D01*
X96906338Y-75934385D01*
X96878561Y-75951034D01*
X96849286Y-75964880D01*
X96818794Y-75975790D01*
X96787380Y-75983659D01*
X96755346Y-75988411D01*
X96723000Y-75990000D01*
X95733000Y-75990000D01*
X95700654Y-75988411D01*
X95668620Y-75983659D01*
X95637206Y-75975790D01*
X95606714Y-75964880D01*
X95577439Y-75951034D01*
X95549662Y-75934385D01*
X95523650Y-75915093D01*
X95499655Y-75893345D01*
X95477907Y-75869350D01*
X95458615Y-75843338D01*
X95441966Y-75815561D01*
X95428120Y-75786286D01*
X95417210Y-75755794D01*
X95409341Y-75724380D01*
X95404589Y-75692346D01*
X95403000Y-75660000D01*
X95403000Y-74170000D01*
X95404589Y-74137654D01*
X95409341Y-74105620D01*
X95417210Y-74074206D01*
X95428120Y-74043714D01*
X95441966Y-74014439D01*
X95458615Y-73986662D01*
X95477907Y-73960650D01*
X95499655Y-73936655D01*
X95523650Y-73914907D01*
X95549662Y-73895615D01*
X95577439Y-73878966D01*
X95606714Y-73865120D01*
X95637206Y-73854210D01*
X95668620Y-73846341D01*
X95700654Y-73841589D01*
X95733000Y-73840000D01*
X96723000Y-73840000D01*
X96755346Y-73841589D01*
X96755346Y-73841589D01*
G37*
D33*
X96228000Y-74915000D03*
D32*
G36*
X99555346Y-73841589D02*
X99587380Y-73846341D01*
X99618794Y-73854210D01*
X99649286Y-73865120D01*
X99678561Y-73878966D01*
X99706338Y-73895615D01*
X99732350Y-73914907D01*
X99756345Y-73936655D01*
X99778093Y-73960650D01*
X99797385Y-73986662D01*
X99814034Y-74014439D01*
X99827880Y-74043714D01*
X99838790Y-74074206D01*
X99846659Y-74105620D01*
X99851411Y-74137654D01*
X99853000Y-74170000D01*
X99853000Y-75660000D01*
X99851411Y-75692346D01*
X99846659Y-75724380D01*
X99838790Y-75755794D01*
X99827880Y-75786286D01*
X99814034Y-75815561D01*
X99797385Y-75843338D01*
X99778093Y-75869350D01*
X99756345Y-75893345D01*
X99732350Y-75915093D01*
X99706338Y-75934385D01*
X99678561Y-75951034D01*
X99649286Y-75964880D01*
X99618794Y-75975790D01*
X99587380Y-75983659D01*
X99555346Y-75988411D01*
X99523000Y-75990000D01*
X98533000Y-75990000D01*
X98500654Y-75988411D01*
X98468620Y-75983659D01*
X98437206Y-75975790D01*
X98406714Y-75964880D01*
X98377439Y-75951034D01*
X98349662Y-75934385D01*
X98323650Y-75915093D01*
X98299655Y-75893345D01*
X98277907Y-75869350D01*
X98258615Y-75843338D01*
X98241966Y-75815561D01*
X98228120Y-75786286D01*
X98217210Y-75755794D01*
X98209341Y-75724380D01*
X98204589Y-75692346D01*
X98203000Y-75660000D01*
X98203000Y-74170000D01*
X98204589Y-74137654D01*
X98209341Y-74105620D01*
X98217210Y-74074206D01*
X98228120Y-74043714D01*
X98241966Y-74014439D01*
X98258615Y-73986662D01*
X98277907Y-73960650D01*
X98299655Y-73936655D01*
X98323650Y-73914907D01*
X98349662Y-73895615D01*
X98377439Y-73878966D01*
X98406714Y-73865120D01*
X98437206Y-73854210D01*
X98468620Y-73846341D01*
X98500654Y-73841589D01*
X98533000Y-73840000D01*
X99523000Y-73840000D01*
X99555346Y-73841589D01*
X99555346Y-73841589D01*
G37*
D33*
X99028000Y-74915000D03*
G04 #@! TD*
D32*
G04 #@! TO.C,R45*
G36*
X113014346Y-72190589D02*
X113046380Y-72195341D01*
X113077794Y-72203210D01*
X113108286Y-72214120D01*
X113137561Y-72227966D01*
X113165338Y-72244615D01*
X113191350Y-72263907D01*
X113215345Y-72285655D01*
X113237093Y-72309650D01*
X113256385Y-72335662D01*
X113273034Y-72363439D01*
X113286880Y-72392714D01*
X113297790Y-72423206D01*
X113305659Y-72454620D01*
X113310411Y-72486654D01*
X113312000Y-72519000D01*
X113312000Y-74009000D01*
X113310411Y-74041346D01*
X113305659Y-74073380D01*
X113297790Y-74104794D01*
X113286880Y-74135286D01*
X113273034Y-74164561D01*
X113256385Y-74192338D01*
X113237093Y-74218350D01*
X113215345Y-74242345D01*
X113191350Y-74264093D01*
X113165338Y-74283385D01*
X113137561Y-74300034D01*
X113108286Y-74313880D01*
X113077794Y-74324790D01*
X113046380Y-74332659D01*
X113014346Y-74337411D01*
X112982000Y-74339000D01*
X111992000Y-74339000D01*
X111959654Y-74337411D01*
X111927620Y-74332659D01*
X111896206Y-74324790D01*
X111865714Y-74313880D01*
X111836439Y-74300034D01*
X111808662Y-74283385D01*
X111782650Y-74264093D01*
X111758655Y-74242345D01*
X111736907Y-74218350D01*
X111717615Y-74192338D01*
X111700966Y-74164561D01*
X111687120Y-74135286D01*
X111676210Y-74104794D01*
X111668341Y-74073380D01*
X111663589Y-74041346D01*
X111662000Y-74009000D01*
X111662000Y-72519000D01*
X111663589Y-72486654D01*
X111668341Y-72454620D01*
X111676210Y-72423206D01*
X111687120Y-72392714D01*
X111700966Y-72363439D01*
X111717615Y-72335662D01*
X111736907Y-72309650D01*
X111758655Y-72285655D01*
X111782650Y-72263907D01*
X111808662Y-72244615D01*
X111836439Y-72227966D01*
X111865714Y-72214120D01*
X111896206Y-72203210D01*
X111927620Y-72195341D01*
X111959654Y-72190589D01*
X111992000Y-72189000D01*
X112982000Y-72189000D01*
X113014346Y-72190589D01*
X113014346Y-72190589D01*
G37*
D33*
X112487000Y-73264000D03*
D32*
G36*
X110214346Y-72190589D02*
X110246380Y-72195341D01*
X110277794Y-72203210D01*
X110308286Y-72214120D01*
X110337561Y-72227966D01*
X110365338Y-72244615D01*
X110391350Y-72263907D01*
X110415345Y-72285655D01*
X110437093Y-72309650D01*
X110456385Y-72335662D01*
X110473034Y-72363439D01*
X110486880Y-72392714D01*
X110497790Y-72423206D01*
X110505659Y-72454620D01*
X110510411Y-72486654D01*
X110512000Y-72519000D01*
X110512000Y-74009000D01*
X110510411Y-74041346D01*
X110505659Y-74073380D01*
X110497790Y-74104794D01*
X110486880Y-74135286D01*
X110473034Y-74164561D01*
X110456385Y-74192338D01*
X110437093Y-74218350D01*
X110415345Y-74242345D01*
X110391350Y-74264093D01*
X110365338Y-74283385D01*
X110337561Y-74300034D01*
X110308286Y-74313880D01*
X110277794Y-74324790D01*
X110246380Y-74332659D01*
X110214346Y-74337411D01*
X110182000Y-74339000D01*
X109192000Y-74339000D01*
X109159654Y-74337411D01*
X109127620Y-74332659D01*
X109096206Y-74324790D01*
X109065714Y-74313880D01*
X109036439Y-74300034D01*
X109008662Y-74283385D01*
X108982650Y-74264093D01*
X108958655Y-74242345D01*
X108936907Y-74218350D01*
X108917615Y-74192338D01*
X108900966Y-74164561D01*
X108887120Y-74135286D01*
X108876210Y-74104794D01*
X108868341Y-74073380D01*
X108863589Y-74041346D01*
X108862000Y-74009000D01*
X108862000Y-72519000D01*
X108863589Y-72486654D01*
X108868341Y-72454620D01*
X108876210Y-72423206D01*
X108887120Y-72392714D01*
X108900966Y-72363439D01*
X108917615Y-72335662D01*
X108936907Y-72309650D01*
X108958655Y-72285655D01*
X108982650Y-72263907D01*
X109008662Y-72244615D01*
X109036439Y-72227966D01*
X109065714Y-72214120D01*
X109096206Y-72203210D01*
X109127620Y-72195341D01*
X109159654Y-72190589D01*
X109192000Y-72189000D01*
X110182000Y-72189000D01*
X110214346Y-72190589D01*
X110214346Y-72190589D01*
G37*
D33*
X109687000Y-73264000D03*
G04 #@! TD*
D38*
G04 #@! TO.C,U3*
X96990000Y-59167000D03*
D39*
X96990000Y-61457000D03*
X96990000Y-63747000D03*
G04 #@! TD*
D40*
G04 #@! TO.C,U7*
X89591000Y-107046000D03*
X89591000Y-108316000D03*
X89591000Y-109586000D03*
X89591000Y-110856000D03*
X94991000Y-110856000D03*
X94991000Y-109586000D03*
X94991000Y-108316000D03*
X94991000Y-107046000D03*
G04 #@! TD*
D41*
G04 #@! TO.C,U8*
X103934000Y-107341000D03*
X103934000Y-107991000D03*
X103934000Y-108641000D03*
X103934000Y-109291000D03*
X108334000Y-109291000D03*
X108334000Y-108641000D03*
X108334000Y-107991000D03*
X108334000Y-107341000D03*
G04 #@! TD*
D32*
G04 #@! TO.C,R47*
G36*
X87852493Y-68462535D02*
X87883435Y-68467125D01*
X87913778Y-68474725D01*
X87943230Y-68485263D01*
X87971508Y-68498638D01*
X87998338Y-68514719D01*
X88023463Y-68533353D01*
X88046640Y-68554360D01*
X88067647Y-68577537D01*
X88086281Y-68602662D01*
X88102362Y-68629492D01*
X88115737Y-68657770D01*
X88126275Y-68687222D01*
X88133875Y-68717565D01*
X88138465Y-68748507D01*
X88140000Y-68779750D01*
X88140000Y-69417250D01*
X88138465Y-69448493D01*
X88133875Y-69479435D01*
X88126275Y-69509778D01*
X88115737Y-69539230D01*
X88102362Y-69567508D01*
X88086281Y-69594338D01*
X88067647Y-69619463D01*
X88046640Y-69642640D01*
X88023463Y-69663647D01*
X87998338Y-69682281D01*
X87971508Y-69698362D01*
X87943230Y-69711737D01*
X87913778Y-69722275D01*
X87883435Y-69729875D01*
X87852493Y-69734465D01*
X87821250Y-69736000D01*
X87108750Y-69736000D01*
X87077507Y-69734465D01*
X87046565Y-69729875D01*
X87016222Y-69722275D01*
X86986770Y-69711737D01*
X86958492Y-69698362D01*
X86931662Y-69682281D01*
X86906537Y-69663647D01*
X86883360Y-69642640D01*
X86862353Y-69619463D01*
X86843719Y-69594338D01*
X86827638Y-69567508D01*
X86814263Y-69539230D01*
X86803725Y-69509778D01*
X86796125Y-69479435D01*
X86791535Y-69448493D01*
X86790000Y-69417250D01*
X86790000Y-68779750D01*
X86791535Y-68748507D01*
X86796125Y-68717565D01*
X86803725Y-68687222D01*
X86814263Y-68657770D01*
X86827638Y-68629492D01*
X86843719Y-68602662D01*
X86862353Y-68577537D01*
X86883360Y-68554360D01*
X86906537Y-68533353D01*
X86931662Y-68514719D01*
X86958492Y-68498638D01*
X86986770Y-68485263D01*
X87016222Y-68474725D01*
X87046565Y-68467125D01*
X87077507Y-68462535D01*
X87108750Y-68461000D01*
X87821250Y-68461000D01*
X87852493Y-68462535D01*
X87852493Y-68462535D01*
G37*
D42*
X87465000Y-69098500D03*
D32*
G36*
X87852493Y-66887535D02*
X87883435Y-66892125D01*
X87913778Y-66899725D01*
X87943230Y-66910263D01*
X87971508Y-66923638D01*
X87998338Y-66939719D01*
X88023463Y-66958353D01*
X88046640Y-66979360D01*
X88067647Y-67002537D01*
X88086281Y-67027662D01*
X88102362Y-67054492D01*
X88115737Y-67082770D01*
X88126275Y-67112222D01*
X88133875Y-67142565D01*
X88138465Y-67173507D01*
X88140000Y-67204750D01*
X88140000Y-67842250D01*
X88138465Y-67873493D01*
X88133875Y-67904435D01*
X88126275Y-67934778D01*
X88115737Y-67964230D01*
X88102362Y-67992508D01*
X88086281Y-68019338D01*
X88067647Y-68044463D01*
X88046640Y-68067640D01*
X88023463Y-68088647D01*
X87998338Y-68107281D01*
X87971508Y-68123362D01*
X87943230Y-68136737D01*
X87913778Y-68147275D01*
X87883435Y-68154875D01*
X87852493Y-68159465D01*
X87821250Y-68161000D01*
X87108750Y-68161000D01*
X87077507Y-68159465D01*
X87046565Y-68154875D01*
X87016222Y-68147275D01*
X86986770Y-68136737D01*
X86958492Y-68123362D01*
X86931662Y-68107281D01*
X86906537Y-68088647D01*
X86883360Y-68067640D01*
X86862353Y-68044463D01*
X86843719Y-68019338D01*
X86827638Y-67992508D01*
X86814263Y-67964230D01*
X86803725Y-67934778D01*
X86796125Y-67904435D01*
X86791535Y-67873493D01*
X86790000Y-67842250D01*
X86790000Y-67204750D01*
X86791535Y-67173507D01*
X86796125Y-67142565D01*
X86803725Y-67112222D01*
X86814263Y-67082770D01*
X86827638Y-67054492D01*
X86843719Y-67027662D01*
X86862353Y-67002537D01*
X86883360Y-66979360D01*
X86906537Y-66958353D01*
X86931662Y-66939719D01*
X86958492Y-66923638D01*
X86986770Y-66910263D01*
X87016222Y-66899725D01*
X87046565Y-66892125D01*
X87077507Y-66887535D01*
X87108750Y-66886000D01*
X87821250Y-66886000D01*
X87852493Y-66887535D01*
X87852493Y-66887535D01*
G37*
D42*
X87465000Y-67523500D03*
G04 #@! TD*
D43*
G04 #@! TO.C,C21*
X103340000Y-58784000D03*
X103340000Y-64884000D03*
G04 #@! TD*
D32*
G04 #@! TO.C,D1*
G36*
X147134405Y-56536445D02*
X147163527Y-56540764D01*
X147192085Y-56547918D01*
X147219805Y-56557836D01*
X147246419Y-56570424D01*
X147271671Y-56585559D01*
X147295318Y-56603097D01*
X147317132Y-56622868D01*
X147336903Y-56644682D01*
X147354441Y-56668329D01*
X147369576Y-56693581D01*
X147382164Y-56720195D01*
X147392082Y-56747915D01*
X147399236Y-56776473D01*
X147403555Y-56805595D01*
X147405000Y-56835000D01*
X147405000Y-57435000D01*
X147403555Y-57464405D01*
X147399236Y-57493527D01*
X147392082Y-57522085D01*
X147382164Y-57549805D01*
X147369576Y-57576419D01*
X147354441Y-57601671D01*
X147336903Y-57625318D01*
X147317132Y-57647132D01*
X147295318Y-57666903D01*
X147271671Y-57684441D01*
X147246419Y-57699576D01*
X147219805Y-57712164D01*
X147192085Y-57722082D01*
X147163527Y-57729236D01*
X147134405Y-57733555D01*
X147105000Y-57735000D01*
X146505000Y-57735000D01*
X146475595Y-57733555D01*
X146446473Y-57729236D01*
X146417915Y-57722082D01*
X146390195Y-57712164D01*
X146363581Y-57699576D01*
X146338329Y-57684441D01*
X146314682Y-57666903D01*
X146292868Y-57647132D01*
X146273097Y-57625318D01*
X146255559Y-57601671D01*
X146240424Y-57576419D01*
X146227836Y-57549805D01*
X146217918Y-57522085D01*
X146210764Y-57493527D01*
X146206445Y-57464405D01*
X146205000Y-57435000D01*
X146205000Y-56835000D01*
X146206445Y-56805595D01*
X146210764Y-56776473D01*
X146217918Y-56747915D01*
X146227836Y-56720195D01*
X146240424Y-56693581D01*
X146255559Y-56668329D01*
X146273097Y-56644682D01*
X146292868Y-56622868D01*
X146314682Y-56603097D01*
X146338329Y-56585559D01*
X146363581Y-56570424D01*
X146390195Y-56557836D01*
X146417915Y-56547918D01*
X146446473Y-56540764D01*
X146475595Y-56536445D01*
X146505000Y-56535000D01*
X147105000Y-56535000D01*
X147134405Y-56536445D01*
X147134405Y-56536445D01*
G37*
D29*
X146805000Y-57135000D03*
D32*
G36*
X148784405Y-56536445D02*
X148813527Y-56540764D01*
X148842085Y-56547918D01*
X148869805Y-56557836D01*
X148896419Y-56570424D01*
X148921671Y-56585559D01*
X148945318Y-56603097D01*
X148967132Y-56622868D01*
X148986903Y-56644682D01*
X149004441Y-56668329D01*
X149019576Y-56693581D01*
X149032164Y-56720195D01*
X149042082Y-56747915D01*
X149049236Y-56776473D01*
X149053555Y-56805595D01*
X149055000Y-56835000D01*
X149055000Y-57435000D01*
X149053555Y-57464405D01*
X149049236Y-57493527D01*
X149042082Y-57522085D01*
X149032164Y-57549805D01*
X149019576Y-57576419D01*
X149004441Y-57601671D01*
X148986903Y-57625318D01*
X148967132Y-57647132D01*
X148945318Y-57666903D01*
X148921671Y-57684441D01*
X148896419Y-57699576D01*
X148869805Y-57712164D01*
X148842085Y-57722082D01*
X148813527Y-57729236D01*
X148784405Y-57733555D01*
X148755000Y-57735000D01*
X148155000Y-57735000D01*
X148125595Y-57733555D01*
X148096473Y-57729236D01*
X148067915Y-57722082D01*
X148040195Y-57712164D01*
X148013581Y-57699576D01*
X147988329Y-57684441D01*
X147964682Y-57666903D01*
X147942868Y-57647132D01*
X147923097Y-57625318D01*
X147905559Y-57601671D01*
X147890424Y-57576419D01*
X147877836Y-57549805D01*
X147867918Y-57522085D01*
X147860764Y-57493527D01*
X147856445Y-57464405D01*
X147855000Y-57435000D01*
X147855000Y-56835000D01*
X147856445Y-56805595D01*
X147860764Y-56776473D01*
X147867918Y-56747915D01*
X147877836Y-56720195D01*
X147890424Y-56693581D01*
X147905559Y-56668329D01*
X147923097Y-56644682D01*
X147942868Y-56622868D01*
X147964682Y-56603097D01*
X147988329Y-56585559D01*
X148013581Y-56570424D01*
X148040195Y-56557836D01*
X148067915Y-56547918D01*
X148096473Y-56540764D01*
X148125595Y-56536445D01*
X148155000Y-56535000D01*
X148755000Y-56535000D01*
X148784405Y-56536445D01*
X148784405Y-56536445D01*
G37*
D29*
X148455000Y-57135000D03*
G04 #@! TD*
D32*
G04 #@! TO.C,D2*
G36*
X147134405Y-59076445D02*
X147163527Y-59080764D01*
X147192085Y-59087918D01*
X147219805Y-59097836D01*
X147246419Y-59110424D01*
X147271671Y-59125559D01*
X147295318Y-59143097D01*
X147317132Y-59162868D01*
X147336903Y-59184682D01*
X147354441Y-59208329D01*
X147369576Y-59233581D01*
X147382164Y-59260195D01*
X147392082Y-59287915D01*
X147399236Y-59316473D01*
X147403555Y-59345595D01*
X147405000Y-59375000D01*
X147405000Y-59975000D01*
X147403555Y-60004405D01*
X147399236Y-60033527D01*
X147392082Y-60062085D01*
X147382164Y-60089805D01*
X147369576Y-60116419D01*
X147354441Y-60141671D01*
X147336903Y-60165318D01*
X147317132Y-60187132D01*
X147295318Y-60206903D01*
X147271671Y-60224441D01*
X147246419Y-60239576D01*
X147219805Y-60252164D01*
X147192085Y-60262082D01*
X147163527Y-60269236D01*
X147134405Y-60273555D01*
X147105000Y-60275000D01*
X146505000Y-60275000D01*
X146475595Y-60273555D01*
X146446473Y-60269236D01*
X146417915Y-60262082D01*
X146390195Y-60252164D01*
X146363581Y-60239576D01*
X146338329Y-60224441D01*
X146314682Y-60206903D01*
X146292868Y-60187132D01*
X146273097Y-60165318D01*
X146255559Y-60141671D01*
X146240424Y-60116419D01*
X146227836Y-60089805D01*
X146217918Y-60062085D01*
X146210764Y-60033527D01*
X146206445Y-60004405D01*
X146205000Y-59975000D01*
X146205000Y-59375000D01*
X146206445Y-59345595D01*
X146210764Y-59316473D01*
X146217918Y-59287915D01*
X146227836Y-59260195D01*
X146240424Y-59233581D01*
X146255559Y-59208329D01*
X146273097Y-59184682D01*
X146292868Y-59162868D01*
X146314682Y-59143097D01*
X146338329Y-59125559D01*
X146363581Y-59110424D01*
X146390195Y-59097836D01*
X146417915Y-59087918D01*
X146446473Y-59080764D01*
X146475595Y-59076445D01*
X146505000Y-59075000D01*
X147105000Y-59075000D01*
X147134405Y-59076445D01*
X147134405Y-59076445D01*
G37*
D29*
X146805000Y-59675000D03*
D32*
G36*
X148784405Y-59076445D02*
X148813527Y-59080764D01*
X148842085Y-59087918D01*
X148869805Y-59097836D01*
X148896419Y-59110424D01*
X148921671Y-59125559D01*
X148945318Y-59143097D01*
X148967132Y-59162868D01*
X148986903Y-59184682D01*
X149004441Y-59208329D01*
X149019576Y-59233581D01*
X149032164Y-59260195D01*
X149042082Y-59287915D01*
X149049236Y-59316473D01*
X149053555Y-59345595D01*
X149055000Y-59375000D01*
X149055000Y-59975000D01*
X149053555Y-60004405D01*
X149049236Y-60033527D01*
X149042082Y-60062085D01*
X149032164Y-60089805D01*
X149019576Y-60116419D01*
X149004441Y-60141671D01*
X148986903Y-60165318D01*
X148967132Y-60187132D01*
X148945318Y-60206903D01*
X148921671Y-60224441D01*
X148896419Y-60239576D01*
X148869805Y-60252164D01*
X148842085Y-60262082D01*
X148813527Y-60269236D01*
X148784405Y-60273555D01*
X148755000Y-60275000D01*
X148155000Y-60275000D01*
X148125595Y-60273555D01*
X148096473Y-60269236D01*
X148067915Y-60262082D01*
X148040195Y-60252164D01*
X148013581Y-60239576D01*
X147988329Y-60224441D01*
X147964682Y-60206903D01*
X147942868Y-60187132D01*
X147923097Y-60165318D01*
X147905559Y-60141671D01*
X147890424Y-60116419D01*
X147877836Y-60089805D01*
X147867918Y-60062085D01*
X147860764Y-60033527D01*
X147856445Y-60004405D01*
X147855000Y-59975000D01*
X147855000Y-59375000D01*
X147856445Y-59345595D01*
X147860764Y-59316473D01*
X147867918Y-59287915D01*
X147877836Y-59260195D01*
X147890424Y-59233581D01*
X147905559Y-59208329D01*
X147923097Y-59184682D01*
X147942868Y-59162868D01*
X147964682Y-59143097D01*
X147988329Y-59125559D01*
X148013581Y-59110424D01*
X148040195Y-59097836D01*
X148067915Y-59087918D01*
X148096473Y-59080764D01*
X148125595Y-59076445D01*
X148155000Y-59075000D01*
X148755000Y-59075000D01*
X148784405Y-59076445D01*
X148784405Y-59076445D01*
G37*
D29*
X148455000Y-59675000D03*
G04 #@! TD*
D32*
G04 #@! TO.C,D3*
G36*
X147114463Y-61616445D02*
X147143585Y-61620764D01*
X147172143Y-61627918D01*
X147199863Y-61637836D01*
X147226477Y-61650424D01*
X147251729Y-61665559D01*
X147275376Y-61683097D01*
X147297190Y-61702868D01*
X147316961Y-61724682D01*
X147334499Y-61748329D01*
X147349634Y-61773581D01*
X147362222Y-61800195D01*
X147372140Y-61827915D01*
X147379294Y-61856473D01*
X147383613Y-61885595D01*
X147385058Y-61915000D01*
X147385058Y-62515000D01*
X147383613Y-62544405D01*
X147379294Y-62573527D01*
X147372140Y-62602085D01*
X147362222Y-62629805D01*
X147349634Y-62656419D01*
X147334499Y-62681671D01*
X147316961Y-62705318D01*
X147297190Y-62727132D01*
X147275376Y-62746903D01*
X147251729Y-62764441D01*
X147226477Y-62779576D01*
X147199863Y-62792164D01*
X147172143Y-62802082D01*
X147143585Y-62809236D01*
X147114463Y-62813555D01*
X147085058Y-62815000D01*
X146485058Y-62815000D01*
X146455653Y-62813555D01*
X146426531Y-62809236D01*
X146397973Y-62802082D01*
X146370253Y-62792164D01*
X146343639Y-62779576D01*
X146318387Y-62764441D01*
X146294740Y-62746903D01*
X146272926Y-62727132D01*
X146253155Y-62705318D01*
X146235617Y-62681671D01*
X146220482Y-62656419D01*
X146207894Y-62629805D01*
X146197976Y-62602085D01*
X146190822Y-62573527D01*
X146186503Y-62544405D01*
X146185058Y-62515000D01*
X146185058Y-61915000D01*
X146186503Y-61885595D01*
X146190822Y-61856473D01*
X146197976Y-61827915D01*
X146207894Y-61800195D01*
X146220482Y-61773581D01*
X146235617Y-61748329D01*
X146253155Y-61724682D01*
X146272926Y-61702868D01*
X146294740Y-61683097D01*
X146318387Y-61665559D01*
X146343639Y-61650424D01*
X146370253Y-61637836D01*
X146397973Y-61627918D01*
X146426531Y-61620764D01*
X146455653Y-61616445D01*
X146485058Y-61615000D01*
X147085058Y-61615000D01*
X147114463Y-61616445D01*
X147114463Y-61616445D01*
G37*
D29*
X146785058Y-62215000D03*
D32*
G36*
X148764463Y-61616445D02*
X148793585Y-61620764D01*
X148822143Y-61627918D01*
X148849863Y-61637836D01*
X148876477Y-61650424D01*
X148901729Y-61665559D01*
X148925376Y-61683097D01*
X148947190Y-61702868D01*
X148966961Y-61724682D01*
X148984499Y-61748329D01*
X148999634Y-61773581D01*
X149012222Y-61800195D01*
X149022140Y-61827915D01*
X149029294Y-61856473D01*
X149033613Y-61885595D01*
X149035058Y-61915000D01*
X149035058Y-62515000D01*
X149033613Y-62544405D01*
X149029294Y-62573527D01*
X149022140Y-62602085D01*
X149012222Y-62629805D01*
X148999634Y-62656419D01*
X148984499Y-62681671D01*
X148966961Y-62705318D01*
X148947190Y-62727132D01*
X148925376Y-62746903D01*
X148901729Y-62764441D01*
X148876477Y-62779576D01*
X148849863Y-62792164D01*
X148822143Y-62802082D01*
X148793585Y-62809236D01*
X148764463Y-62813555D01*
X148735058Y-62815000D01*
X148135058Y-62815000D01*
X148105653Y-62813555D01*
X148076531Y-62809236D01*
X148047973Y-62802082D01*
X148020253Y-62792164D01*
X147993639Y-62779576D01*
X147968387Y-62764441D01*
X147944740Y-62746903D01*
X147922926Y-62727132D01*
X147903155Y-62705318D01*
X147885617Y-62681671D01*
X147870482Y-62656419D01*
X147857894Y-62629805D01*
X147847976Y-62602085D01*
X147840822Y-62573527D01*
X147836503Y-62544405D01*
X147835058Y-62515000D01*
X147835058Y-61915000D01*
X147836503Y-61885595D01*
X147840822Y-61856473D01*
X147847976Y-61827915D01*
X147857894Y-61800195D01*
X147870482Y-61773581D01*
X147885617Y-61748329D01*
X147903155Y-61724682D01*
X147922926Y-61702868D01*
X147944740Y-61683097D01*
X147968387Y-61665559D01*
X147993639Y-61650424D01*
X148020253Y-61637836D01*
X148047973Y-61627918D01*
X148076531Y-61620764D01*
X148105653Y-61616445D01*
X148135058Y-61615000D01*
X148735058Y-61615000D01*
X148764463Y-61616445D01*
X148764463Y-61616445D01*
G37*
D29*
X148435058Y-62215000D03*
G04 #@! TD*
D32*
G04 #@! TO.C,D4*
G36*
X148764463Y-64156445D02*
X148793585Y-64160764D01*
X148822143Y-64167918D01*
X148849863Y-64177836D01*
X148876477Y-64190424D01*
X148901729Y-64205559D01*
X148925376Y-64223097D01*
X148947190Y-64242868D01*
X148966961Y-64264682D01*
X148984499Y-64288329D01*
X148999634Y-64313581D01*
X149012222Y-64340195D01*
X149022140Y-64367915D01*
X149029294Y-64396473D01*
X149033613Y-64425595D01*
X149035058Y-64455000D01*
X149035058Y-65055000D01*
X149033613Y-65084405D01*
X149029294Y-65113527D01*
X149022140Y-65142085D01*
X149012222Y-65169805D01*
X148999634Y-65196419D01*
X148984499Y-65221671D01*
X148966961Y-65245318D01*
X148947190Y-65267132D01*
X148925376Y-65286903D01*
X148901729Y-65304441D01*
X148876477Y-65319576D01*
X148849863Y-65332164D01*
X148822143Y-65342082D01*
X148793585Y-65349236D01*
X148764463Y-65353555D01*
X148735058Y-65355000D01*
X148135058Y-65355000D01*
X148105653Y-65353555D01*
X148076531Y-65349236D01*
X148047973Y-65342082D01*
X148020253Y-65332164D01*
X147993639Y-65319576D01*
X147968387Y-65304441D01*
X147944740Y-65286903D01*
X147922926Y-65267132D01*
X147903155Y-65245318D01*
X147885617Y-65221671D01*
X147870482Y-65196419D01*
X147857894Y-65169805D01*
X147847976Y-65142085D01*
X147840822Y-65113527D01*
X147836503Y-65084405D01*
X147835058Y-65055000D01*
X147835058Y-64455000D01*
X147836503Y-64425595D01*
X147840822Y-64396473D01*
X147847976Y-64367915D01*
X147857894Y-64340195D01*
X147870482Y-64313581D01*
X147885617Y-64288329D01*
X147903155Y-64264682D01*
X147922926Y-64242868D01*
X147944740Y-64223097D01*
X147968387Y-64205559D01*
X147993639Y-64190424D01*
X148020253Y-64177836D01*
X148047973Y-64167918D01*
X148076531Y-64160764D01*
X148105653Y-64156445D01*
X148135058Y-64155000D01*
X148735058Y-64155000D01*
X148764463Y-64156445D01*
X148764463Y-64156445D01*
G37*
D29*
X148435058Y-64755000D03*
D32*
G36*
X147114463Y-64156445D02*
X147143585Y-64160764D01*
X147172143Y-64167918D01*
X147199863Y-64177836D01*
X147226477Y-64190424D01*
X147251729Y-64205559D01*
X147275376Y-64223097D01*
X147297190Y-64242868D01*
X147316961Y-64264682D01*
X147334499Y-64288329D01*
X147349634Y-64313581D01*
X147362222Y-64340195D01*
X147372140Y-64367915D01*
X147379294Y-64396473D01*
X147383613Y-64425595D01*
X147385058Y-64455000D01*
X147385058Y-65055000D01*
X147383613Y-65084405D01*
X147379294Y-65113527D01*
X147372140Y-65142085D01*
X147362222Y-65169805D01*
X147349634Y-65196419D01*
X147334499Y-65221671D01*
X147316961Y-65245318D01*
X147297190Y-65267132D01*
X147275376Y-65286903D01*
X147251729Y-65304441D01*
X147226477Y-65319576D01*
X147199863Y-65332164D01*
X147172143Y-65342082D01*
X147143585Y-65349236D01*
X147114463Y-65353555D01*
X147085058Y-65355000D01*
X146485058Y-65355000D01*
X146455653Y-65353555D01*
X146426531Y-65349236D01*
X146397973Y-65342082D01*
X146370253Y-65332164D01*
X146343639Y-65319576D01*
X146318387Y-65304441D01*
X146294740Y-65286903D01*
X146272926Y-65267132D01*
X146253155Y-65245318D01*
X146235617Y-65221671D01*
X146220482Y-65196419D01*
X146207894Y-65169805D01*
X146197976Y-65142085D01*
X146190822Y-65113527D01*
X146186503Y-65084405D01*
X146185058Y-65055000D01*
X146185058Y-64455000D01*
X146186503Y-64425595D01*
X146190822Y-64396473D01*
X146197976Y-64367915D01*
X146207894Y-64340195D01*
X146220482Y-64313581D01*
X146235617Y-64288329D01*
X146253155Y-64264682D01*
X146272926Y-64242868D01*
X146294740Y-64223097D01*
X146318387Y-64205559D01*
X146343639Y-64190424D01*
X146370253Y-64177836D01*
X146397973Y-64167918D01*
X146426531Y-64160764D01*
X146455653Y-64156445D01*
X146485058Y-64155000D01*
X147085058Y-64155000D01*
X147114463Y-64156445D01*
X147114463Y-64156445D01*
G37*
D29*
X146785058Y-64755000D03*
G04 #@! TD*
D32*
G04 #@! TO.C,D8*
G36*
X148764463Y-66696445D02*
X148793585Y-66700764D01*
X148822143Y-66707918D01*
X148849863Y-66717836D01*
X148876477Y-66730424D01*
X148901729Y-66745559D01*
X148925376Y-66763097D01*
X148947190Y-66782868D01*
X148966961Y-66804682D01*
X148984499Y-66828329D01*
X148999634Y-66853581D01*
X149012222Y-66880195D01*
X149022140Y-66907915D01*
X149029294Y-66936473D01*
X149033613Y-66965595D01*
X149035058Y-66995000D01*
X149035058Y-67595000D01*
X149033613Y-67624405D01*
X149029294Y-67653527D01*
X149022140Y-67682085D01*
X149012222Y-67709805D01*
X148999634Y-67736419D01*
X148984499Y-67761671D01*
X148966961Y-67785318D01*
X148947190Y-67807132D01*
X148925376Y-67826903D01*
X148901729Y-67844441D01*
X148876477Y-67859576D01*
X148849863Y-67872164D01*
X148822143Y-67882082D01*
X148793585Y-67889236D01*
X148764463Y-67893555D01*
X148735058Y-67895000D01*
X148135058Y-67895000D01*
X148105653Y-67893555D01*
X148076531Y-67889236D01*
X148047973Y-67882082D01*
X148020253Y-67872164D01*
X147993639Y-67859576D01*
X147968387Y-67844441D01*
X147944740Y-67826903D01*
X147922926Y-67807132D01*
X147903155Y-67785318D01*
X147885617Y-67761671D01*
X147870482Y-67736419D01*
X147857894Y-67709805D01*
X147847976Y-67682085D01*
X147840822Y-67653527D01*
X147836503Y-67624405D01*
X147835058Y-67595000D01*
X147835058Y-66995000D01*
X147836503Y-66965595D01*
X147840822Y-66936473D01*
X147847976Y-66907915D01*
X147857894Y-66880195D01*
X147870482Y-66853581D01*
X147885617Y-66828329D01*
X147903155Y-66804682D01*
X147922926Y-66782868D01*
X147944740Y-66763097D01*
X147968387Y-66745559D01*
X147993639Y-66730424D01*
X148020253Y-66717836D01*
X148047973Y-66707918D01*
X148076531Y-66700764D01*
X148105653Y-66696445D01*
X148135058Y-66695000D01*
X148735058Y-66695000D01*
X148764463Y-66696445D01*
X148764463Y-66696445D01*
G37*
D29*
X148435058Y-67295000D03*
D32*
G36*
X147114463Y-66696445D02*
X147143585Y-66700764D01*
X147172143Y-66707918D01*
X147199863Y-66717836D01*
X147226477Y-66730424D01*
X147251729Y-66745559D01*
X147275376Y-66763097D01*
X147297190Y-66782868D01*
X147316961Y-66804682D01*
X147334499Y-66828329D01*
X147349634Y-66853581D01*
X147362222Y-66880195D01*
X147372140Y-66907915D01*
X147379294Y-66936473D01*
X147383613Y-66965595D01*
X147385058Y-66995000D01*
X147385058Y-67595000D01*
X147383613Y-67624405D01*
X147379294Y-67653527D01*
X147372140Y-67682085D01*
X147362222Y-67709805D01*
X147349634Y-67736419D01*
X147334499Y-67761671D01*
X147316961Y-67785318D01*
X147297190Y-67807132D01*
X147275376Y-67826903D01*
X147251729Y-67844441D01*
X147226477Y-67859576D01*
X147199863Y-67872164D01*
X147172143Y-67882082D01*
X147143585Y-67889236D01*
X147114463Y-67893555D01*
X147085058Y-67895000D01*
X146485058Y-67895000D01*
X146455653Y-67893555D01*
X146426531Y-67889236D01*
X146397973Y-67882082D01*
X146370253Y-67872164D01*
X146343639Y-67859576D01*
X146318387Y-67844441D01*
X146294740Y-67826903D01*
X146272926Y-67807132D01*
X146253155Y-67785318D01*
X146235617Y-67761671D01*
X146220482Y-67736419D01*
X146207894Y-67709805D01*
X146197976Y-67682085D01*
X146190822Y-67653527D01*
X146186503Y-67624405D01*
X146185058Y-67595000D01*
X146185058Y-66995000D01*
X146186503Y-66965595D01*
X146190822Y-66936473D01*
X146197976Y-66907915D01*
X146207894Y-66880195D01*
X146220482Y-66853581D01*
X146235617Y-66828329D01*
X146253155Y-66804682D01*
X146272926Y-66782868D01*
X146294740Y-66763097D01*
X146318387Y-66745559D01*
X146343639Y-66730424D01*
X146370253Y-66717836D01*
X146397973Y-66707918D01*
X146426531Y-66700764D01*
X146455653Y-66696445D01*
X146485058Y-66695000D01*
X147085058Y-66695000D01*
X147114463Y-66696445D01*
X147114463Y-66696445D01*
G37*
D29*
X146785058Y-67295000D03*
G04 #@! TD*
M02*
