G04 #@! TF.GenerationSoftware,KiCad,Pcbnew,(5.0.0)*
G04 #@! TF.CreationDate,2018-12-13T19:23:09+01:00*
G04 #@! TF.ProjectId,TrackAmplifier,547261636B416D706C69666965722E6B,rev?*
G04 #@! TF.SameCoordinates,Original*
G04 #@! TF.FileFunction,Copper,L1,Top,Signal*
G04 #@! TF.FilePolarity,Positive*
%FSLAX46Y46*%
G04 Gerber Fmt 4.6, Leading zero omitted, Abs format (unit mm)*
G04 Created by KiCad (PCBNEW (5.0.0)) date 12/13/18 19:23:09*
%MOMM*%
%LPD*%
G01*
G04 APERTURE LIST*
G04 #@! TA.AperFunction,SMDPad,CuDef*
%ADD10R,0.900000X0.800000*%
G04 #@! TD*
G04 #@! TA.AperFunction,SMDPad,CuDef*
%ADD11R,1.220000X1.800000*%
G04 #@! TD*
G04 #@! TA.AperFunction,ComponentPad*
%ADD12R,2.500000X2.500000*%
G04 #@! TD*
G04 #@! TA.AperFunction,ComponentPad*
%ADD13C,2.500000*%
G04 #@! TD*
G04 #@! TA.AperFunction,SMDPad,CuDef*
%ADD14R,1.800000X1.220000*%
G04 #@! TD*
G04 #@! TA.AperFunction,ComponentPad*
%ADD15O,1.900000X2.400000*%
G04 #@! TD*
G04 #@! TA.AperFunction,ComponentPad*
%ADD16R,2.000000X1.600000*%
G04 #@! TD*
G04 #@! TA.AperFunction,ComponentPad*
%ADD17O,2.000000X1.600000*%
G04 #@! TD*
G04 #@! TA.AperFunction,ComponentPad*
%ADD18C,5.000000*%
G04 #@! TD*
G04 #@! TA.AperFunction,ComponentPad*
%ADD19R,1.700000X2.500000*%
G04 #@! TD*
G04 #@! TA.AperFunction,ComponentPad*
%ADD20O,1.700000X2.500000*%
G04 #@! TD*
G04 #@! TA.AperFunction,ComponentPad*
%ADD21R,1.600000X1.600000*%
G04 #@! TD*
G04 #@! TA.AperFunction,ComponentPad*
%ADD22C,1.600000*%
G04 #@! TD*
G04 #@! TA.AperFunction,SMDPad,CuDef*
%ADD23R,0.600000X1.550000*%
G04 #@! TD*
G04 #@! TA.AperFunction,SMDPad,CuDef*
%ADD24R,2.000000X0.600000*%
G04 #@! TD*
G04 #@! TA.AperFunction,ComponentPad*
%ADD25C,1.300000*%
G04 #@! TD*
G04 #@! TA.AperFunction,ComponentPad*
%ADD26R,1.300000X1.300000*%
G04 #@! TD*
G04 #@! TA.AperFunction,ComponentPad*
%ADD27C,7.400000*%
G04 #@! TD*
G04 #@! TA.AperFunction,ComponentPad*
%ADD28C,0.800000*%
G04 #@! TD*
G04 #@! TA.AperFunction,ComponentPad*
%ADD29R,2.000000X2.000000*%
G04 #@! TD*
G04 #@! TA.AperFunction,ComponentPad*
%ADD30C,2.000000*%
G04 #@! TD*
G04 #@! TA.AperFunction,Conductor*
%ADD31C,0.100000*%
G04 #@! TD*
G04 #@! TA.AperFunction,SMDPad,CuDef*
%ADD32C,1.250000*%
G04 #@! TD*
G04 #@! TA.AperFunction,SMDPad,CuDef*
%ADD33R,1.270000X1.400000*%
G04 #@! TD*
G04 #@! TA.AperFunction,SMDPad,CuDef*
%ADD34R,4.720000X4.800000*%
G04 #@! TD*
G04 #@! TA.AperFunction,SMDPad,CuDef*
%ADD35R,1.400000X1.270000*%
G04 #@! TD*
G04 #@! TA.AperFunction,SMDPad,CuDef*
%ADD36R,4.800000X4.720000*%
G04 #@! TD*
G04 #@! TA.AperFunction,ComponentPad*
%ADD37R,1.800000X1.717500*%
G04 #@! TD*
G04 #@! TA.AperFunction,ComponentPad*
%ADD38O,1.800000X1.717500*%
G04 #@! TD*
G04 #@! TA.AperFunction,SMDPad,CuDef*
%ADD39R,1.550000X0.600000*%
G04 #@! TD*
G04 #@! TA.AperFunction,SMDPad,CuDef*
%ADD40R,1.450000X0.450000*%
G04 #@! TD*
G04 #@! TA.AperFunction,SMDPad,CuDef*
%ADD41C,0.875000*%
G04 #@! TD*
G04 #@! TA.AperFunction,SMDPad,CuDef*
%ADD42R,2.500000X4.000000*%
G04 #@! TD*
G04 #@! TA.AperFunction,SMDPad,CuDef*
%ADD43C,0.800000*%
G04 #@! TD*
G04 #@! TA.AperFunction,ViaPad*
%ADD44C,1.000000*%
G04 #@! TD*
G04 #@! TA.AperFunction,ViaPad*
%ADD45C,0.600000*%
G04 #@! TD*
G04 #@! TA.AperFunction,ViaPad*
%ADD46C,2.000000*%
G04 #@! TD*
G04 #@! TA.AperFunction,Conductor*
%ADD47C,0.500000*%
G04 #@! TD*
G04 #@! TA.AperFunction,Conductor*
%ADD48C,0.250000*%
G04 #@! TD*
G04 #@! TA.AperFunction,Conductor*
%ADD49C,1.000000*%
G04 #@! TD*
G04 #@! TA.AperFunction,Conductor*
%ADD50C,2.000000*%
G04 #@! TD*
G04 #@! TA.AperFunction,Conductor*
%ADD51C,0.254000*%
G04 #@! TD*
G04 APERTURE END LIST*
D10*
G04 #@! TO.P,U10,1*
G04 #@! TO.N,Net-(C32-Pad2)*
X90116000Y-89835000D03*
G04 #@! TO.P,U10,2*
G04 #@! TO.N,VREF*
X90116000Y-87935000D03*
G04 #@! TO.P,U10,3*
G04 #@! TO.N,GND*
X88116000Y-88885000D03*
G04 #@! TD*
D11*
G04 #@! TO.P,R5,1*
G04 #@! TO.N,Vbus_flt*
X88448000Y-52690000D03*
G04 #@! TO.P,R5,2*
G04 #@! TO.N,Net-(R3-Pad1)*
X91308000Y-52690000D03*
G04 #@! TD*
D12*
G04 #@! TO.P,FL1,1*
G04 #@! TO.N,OCC2*
X84544000Y-114843800D03*
D13*
G04 #@! TO.P,FL1,2*
G04 #@! TO.N,PWMO1*
X64544000Y-114843800D03*
G04 #@! TO.P,FL1,3*
G04 #@! TO.N,PWM2*
X84544000Y-102343800D03*
G04 #@! TO.P,FL1,4*
G04 #@! TO.N,PWMO2*
X64544000Y-102343800D03*
G04 #@! TD*
D12*
G04 #@! TO.P,FL2,1*
G04 #@! TO.N,Net-(FL2-Pad1)*
X64605000Y-55230000D03*
D13*
G04 #@! TO.P,FL2,2*
G04 #@! TO.N,Vbus_flt*
X84605000Y-55230000D03*
G04 #@! TO.P,FL2,3*
G04 #@! TO.N,GNDD*
X64605000Y-67730000D03*
G04 #@! TO.P,FL2,4*
G04 #@! TO.N,GND*
X84605000Y-67730000D03*
G04 #@! TD*
D14*
G04 #@! TO.P,R17,1*
G04 #@! TO.N,Vlm*
X117945000Y-63010000D03*
G04 #@! TO.P,R17,2*
G04 #@! TO.N,Net-(C6-Pad1)*
X117945000Y-60150000D03*
G04 #@! TD*
D15*
G04 #@! TO.P,U4,1*
G04 #@! TO.N,Net-(C17-Pad1)*
X145820000Y-77760000D03*
G04 #@! TO.P,U4,2*
G04 #@! TO.N,OCC1*
X144120000Y-80900000D03*
G04 #@! TO.P,U4,3*
G04 #@! TO.N,DIR*
X142420000Y-77760000D03*
G04 #@! TO.P,U4,4*
G04 #@! TO.N,BRK*
X140720000Y-80900000D03*
G04 #@! TO.P,U4,5*
G04 #@! TO.N,PWM*
X139020000Y-77760000D03*
G04 #@! TO.P,U4,6*
G04 #@! TO.N,Net-(C6-Pad1)*
X137320000Y-80900000D03*
G04 #@! TO.P,U4,7*
G04 #@! TO.N,GND*
X135620000Y-77760000D03*
G04 #@! TO.P,U4,8*
G04 #@! TO.N,CSEN*
X133920000Y-80900000D03*
G04 #@! TO.P,U4,9*
G04 #@! TO.N,THFLG*
X132220000Y-77760000D03*
G04 #@! TO.P,U4,10*
G04 #@! TO.N,PWM2*
X130520000Y-80900000D03*
G04 #@! TO.P,U4,11*
G04 #@! TO.N,Net-(C18-Pad2)*
X128820000Y-77760000D03*
G04 #@! TD*
D16*
G04 #@! TO.P,J1,1*
G04 #@! TO.N,PWMO2*
X59800000Y-94390000D03*
D17*
G04 #@! TO.P,J1,2*
G04 #@! TO.N,GNDD*
X59800000Y-91620000D03*
G04 #@! TO.P,J1,3*
G04 #@! TO.N,TX_B*
X59800000Y-88850000D03*
G04 #@! TO.P,J1,4*
G04 #@! TO.N,RX_B*
X59800000Y-86080000D03*
G04 #@! TO.P,J1,5*
G04 #@! TO.N,Sync_B*
X59800000Y-83310000D03*
G04 #@! TO.P,J1,6*
G04 #@! TO.N,Reset_B*
X59800000Y-80540000D03*
G04 #@! TO.P,J1,7*
G04 #@! TO.N,ID_R*
X59800000Y-77770000D03*
G04 #@! TO.P,J1,8*
G04 #@! TO.N,GNDD*
X59800000Y-75000000D03*
G04 #@! TO.P,J1,9*
G04 #@! TO.N,PWMO1*
X56960000Y-93005000D03*
G04 #@! TO.P,J1,10*
G04 #@! TO.N,Net-(FL2-Pad1)*
X56960000Y-90235000D03*
G04 #@! TO.P,J1,11*
G04 #@! TO.N,TX_A*
X56960000Y-87465000D03*
G04 #@! TO.P,J1,12*
G04 #@! TO.N,RX_A*
X56960000Y-84695000D03*
G04 #@! TO.P,J1,13*
G04 #@! TO.N,Sync_A*
X56960000Y-81925000D03*
G04 #@! TO.P,J1,14*
G04 #@! TO.N,Reset_A*
X56960000Y-79155000D03*
G04 #@! TO.P,J1,15*
G04 #@! TO.N,Net-(FL2-Pad1)*
X56960000Y-76385000D03*
D18*
G04 #@! TO.P,J1,0*
G04 #@! TO.N,GNDD*
X59500000Y-101345000D03*
X59500000Y-68045000D03*
G04 #@! TD*
D19*
G04 #@! TO.P,J2,1*
G04 #@! TO.N,VPP*
X132423000Y-53325000D03*
D20*
G04 #@! TO.P,J2,2*
G04 #@! TO.N,+5V*
X134963000Y-53325000D03*
G04 #@! TO.P,J2,3*
G04 #@! TO.N,GND*
X137503000Y-53325000D03*
G04 #@! TO.P,J2,4*
G04 #@! TO.N,ICSPDAT*
X140043000Y-53325000D03*
G04 #@! TO.P,J2,5*
G04 #@! TO.N,ICSPCLK*
X142583000Y-53325000D03*
G04 #@! TO.P,J2,6*
G04 #@! TO.N,Net-(J2-Pad6)*
X145123000Y-53325000D03*
G04 #@! TD*
D14*
G04 #@! TO.P,C1,2*
G04 #@! TO.N,Net-(C1-Pad2)*
X70320000Y-84092000D03*
G04 #@! TO.P,C1,1*
G04 #@! TO.N,GND*
X70320000Y-81232000D03*
G04 #@! TD*
G04 #@! TO.P,C2,1*
G04 #@! TO.N,GND*
X84925000Y-81740000D03*
G04 #@! TO.P,C2,2*
G04 #@! TO.N,Net-(C2-Pad2)*
X84925000Y-84600000D03*
G04 #@! TD*
G04 #@! TO.P,C3,1*
G04 #@! TO.N,GND*
X73096675Y-81232000D03*
G04 #@! TO.P,C3,2*
G04 #@! TO.N,Net-(C1-Pad2)*
X73096675Y-84092000D03*
G04 #@! TD*
G04 #@! TO.P,C4,1*
G04 #@! TO.N,GND*
X82385000Y-81740000D03*
G04 #@! TO.P,C4,2*
G04 #@! TO.N,Net-(C2-Pad2)*
X82385000Y-84600000D03*
G04 #@! TD*
G04 #@! TO.P,C5,1*
G04 #@! TO.N,GND*
X90640000Y-59962000D03*
G04 #@! TO.P,C5,2*
G04 #@! TO.N,Net-(C21-Pad1)*
X90640000Y-57102000D03*
G04 #@! TD*
G04 #@! TO.P,C7,2*
G04 #@! TO.N,Net-(C21-Pad1)*
X93180000Y-57102000D03*
G04 #@! TO.P,C7,1*
G04 #@! TO.N,GND*
X93180000Y-59962000D03*
G04 #@! TD*
G04 #@! TO.P,C10,2*
G04 #@! TO.N,+5V*
X93180000Y-65550000D03*
G04 #@! TO.P,C10,1*
G04 #@! TO.N,GND*
X93180000Y-62690000D03*
G04 #@! TD*
G04 #@! TO.P,C11,1*
G04 #@! TO.N,GND*
X64605000Y-93490000D03*
G04 #@! TO.P,C11,2*
G04 #@! TO.N,Net-(C11-Pad2)*
X64605000Y-90630000D03*
G04 #@! TD*
G04 #@! TO.P,C12,2*
G04 #@! TO.N,Net-(C12-Pad2)*
X76035000Y-90630000D03*
G04 #@! TO.P,C12,1*
G04 #@! TO.N,GND*
X76035000Y-93490000D03*
G04 #@! TD*
G04 #@! TO.P,C13,1*
G04 #@! TO.N,GND*
X90640000Y-62690000D03*
G04 #@! TO.P,C13,2*
G04 #@! TO.N,+5V*
X90640000Y-65550000D03*
G04 #@! TD*
G04 #@! TO.P,C14,1*
G04 #@! TO.N,GND*
X67145000Y-93490000D03*
G04 #@! TO.P,C14,2*
G04 #@! TO.N,Net-(C11-Pad2)*
X67145000Y-90630000D03*
G04 #@! TD*
G04 #@! TO.P,C15,2*
G04 #@! TO.N,Net-(C12-Pad2)*
X78575000Y-90630000D03*
G04 #@! TO.P,C15,1*
G04 #@! TO.N,GND*
X78575000Y-93490000D03*
G04 #@! TD*
D21*
G04 #@! TO.P,C16,1*
G04 #@! TO.N,+5V*
X111468000Y-60310000D03*
D22*
G04 #@! TO.P,C16,2*
G04 #@! TO.N,GND*
X113968000Y-60310000D03*
G04 #@! TD*
D14*
G04 #@! TO.P,C19,1*
G04 #@! TO.N,GND*
X90894000Y-100155000D03*
G04 #@! TO.P,C19,2*
G04 #@! TO.N,Net-(C19-Pad2)*
X90894000Y-103015000D03*
G04 #@! TD*
G04 #@! TO.P,C20,2*
G04 #@! TO.N,Net-(C19-Pad2)*
X93434000Y-103015000D03*
G04 #@! TO.P,C20,1*
G04 #@! TO.N,GND*
X93434000Y-100155000D03*
G04 #@! TD*
G04 #@! TO.P,C22,1*
G04 #@! TO.N,GND*
X95974000Y-100155000D03*
G04 #@! TO.P,C22,2*
G04 #@! TO.N,BMF*
X95974000Y-103015000D03*
G04 #@! TD*
G04 #@! TO.P,C23,2*
G04 #@! TO.N,Net-(C23-Pad2)*
X106261000Y-103015000D03*
G04 #@! TO.P,C23,1*
G04 #@! TO.N,GND*
X106261000Y-100155000D03*
G04 #@! TD*
G04 #@! TO.P,C24,1*
G04 #@! TO.N,GND*
X108801000Y-100155000D03*
G04 #@! TO.P,C24,2*
G04 #@! TO.N,Net-(C23-Pad2)*
X108801000Y-103015000D03*
G04 #@! TD*
G04 #@! TO.P,C26,2*
G04 #@! TO.N,Net-(C26-Pad2)*
X110960000Y-87452479D03*
G04 #@! TO.P,C26,1*
G04 #@! TO.N,GND*
X110960000Y-90312479D03*
G04 #@! TD*
G04 #@! TO.P,C27,1*
G04 #@! TO.N,GND*
X108420000Y-90315000D03*
G04 #@! TO.P,C27,2*
G04 #@! TO.N,Net-(C26-Pad2)*
X108420000Y-87455000D03*
G04 #@! TD*
G04 #@! TO.P,C28,1*
G04 #@! TO.N,GND*
X111341000Y-100155000D03*
G04 #@! TO.P,C28,2*
G04 #@! TO.N,OCC*
X111341000Y-103015000D03*
G04 #@! TD*
G04 #@! TO.P,C29,2*
G04 #@! TO.N,CSEN_FLT*
X113500000Y-87455000D03*
G04 #@! TO.P,C29,1*
G04 #@! TO.N,GND*
X113500000Y-90315000D03*
G04 #@! TD*
D11*
G04 #@! TO.P,C30,2*
G04 #@! TO.N,ID*
X74798000Y-74534000D03*
G04 #@! TO.P,C30,1*
G04 #@! TO.N,GND*
X71938000Y-74534000D03*
G04 #@! TD*
G04 #@! TO.P,C31,2*
G04 #@! TO.N,Net-(C31-Pad2)*
X99055000Y-72375000D03*
G04 #@! TO.P,C31,1*
G04 #@! TO.N,GND*
X96195000Y-72375000D03*
G04 #@! TD*
G04 #@! TO.P,D5,1*
G04 #@! TO.N,+5V*
X81750000Y-73645000D03*
G04 #@! TO.P,D5,2*
G04 #@! TO.N,ID*
X78890000Y-73645000D03*
G04 #@! TD*
G04 #@! TO.P,D6,2*
G04 #@! TO.N,GND*
X81148000Y-76185000D03*
G04 #@! TO.P,D6,1*
G04 #@! TO.N,ID*
X78288000Y-76185000D03*
G04 #@! TD*
D10*
G04 #@! TO.P,Q1,1*
G04 #@! TO.N,Net-(C37-Pad2)*
X89640000Y-72695000D03*
G04 #@! TO.P,Q1,2*
G04 #@! TO.N,GND*
X89640000Y-74595000D03*
G04 #@! TO.P,Q1,3*
G04 #@! TO.N,RST*
X91640000Y-73645000D03*
G04 #@! TD*
D11*
G04 #@! TO.P,R1,2*
G04 #@! TO.N,+5V*
X70160000Y-78852000D03*
G04 #@! TO.P,R1,1*
G04 #@! TO.N,Net-(C1-Pad2)*
X73020000Y-78852000D03*
G04 #@! TD*
G04 #@! TO.P,R2,2*
G04 #@! TO.N,+5V*
X82225000Y-79487000D03*
G04 #@! TO.P,R2,1*
G04 #@! TO.N,Net-(C2-Pad2)*
X85085000Y-79487000D03*
G04 #@! TD*
G04 #@! TO.P,R3,2*
G04 #@! TO.N,Net-(D7-Pad1)*
X97150000Y-52690000D03*
G04 #@! TO.P,R3,1*
G04 #@! TO.N,Net-(R3-Pad1)*
X94290000Y-52690000D03*
G04 #@! TD*
D14*
G04 #@! TO.P,R4,2*
G04 #@! TO.N,+5V*
X140805000Y-71420000D03*
G04 #@! TO.P,R4,1*
G04 #@! TO.N,BRK*
X140805000Y-74280000D03*
G04 #@! TD*
G04 #@! TO.P,R6,1*
G04 #@! TO.N,GND*
X137630000Y-71420000D03*
G04 #@! TO.P,R6,2*
G04 #@! TO.N,PWM*
X137630000Y-74280000D03*
G04 #@! TD*
G04 #@! TO.P,R7,1*
G04 #@! TO.N,GND*
X143980000Y-71420000D03*
G04 #@! TO.P,R7,2*
G04 #@! TO.N,DIR*
X143980000Y-74280000D03*
G04 #@! TD*
G04 #@! TO.P,R8,1*
G04 #@! TO.N,Net-(R8-Pad1)*
X84925000Y-75075000D03*
G04 #@! TO.P,R8,2*
G04 #@! TO.N,Net-(C37-Pad2)*
X84925000Y-72215000D03*
G04 #@! TD*
D11*
G04 #@! TO.P,R9,1*
G04 #@! TO.N,Net-(C11-Pad2)*
X64445000Y-95870000D03*
G04 #@! TO.P,R9,2*
G04 #@! TO.N,+5V*
X67305000Y-95870000D03*
G04 #@! TD*
G04 #@! TO.P,R10,2*
G04 #@! TO.N,+5V*
X78735000Y-95870000D03*
G04 #@! TO.P,R10,1*
G04 #@! TO.N,Net-(C12-Pad2)*
X75875000Y-95870000D03*
G04 #@! TD*
G04 #@! TO.P,R11,2*
G04 #@! TO.N,+5V*
X118420000Y-106030000D03*
G04 #@! TO.P,R11,1*
G04 #@! TO.N,Net-(C34-Pad2)*
X121280000Y-106030000D03*
G04 #@! TD*
D14*
G04 #@! TO.P,R12,2*
G04 #@! TO.N,Net-(C19-Pad2)*
X88354000Y-103015000D03*
G04 #@! TO.P,R12,1*
G04 #@! TO.N,+5V*
X88354000Y-100155000D03*
G04 #@! TD*
D11*
G04 #@! TO.P,R13,1*
G04 #@! TO.N,Net-(R13-Pad1)*
X93721000Y-113269000D03*
G04 #@! TO.P,R13,2*
G04 #@! TO.N,Net-(R13-Pad2)*
X90861000Y-113269000D03*
G04 #@! TD*
G04 #@! TO.P,R14,2*
G04 #@! TO.N,TX_ENA*
X89911000Y-95743000D03*
G04 #@! TO.P,R14,1*
G04 #@! TO.N,GND*
X87051000Y-95743000D03*
G04 #@! TD*
D14*
G04 #@! TO.P,R15,2*
G04 #@! TO.N,VREF*
X97625000Y-113175000D03*
G04 #@! TO.P,R15,1*
G04 #@! TO.N,Net-(R13-Pad1)*
X97625000Y-110315000D03*
G04 #@! TD*
G04 #@! TO.P,R18,1*
G04 #@! TO.N,BMF*
X98514000Y-103015000D03*
G04 #@! TO.P,R18,2*
G04 #@! TO.N,Net-(R13-Pad1)*
X98514000Y-100155000D03*
G04 #@! TD*
G04 #@! TO.P,R19,2*
G04 #@! TO.N,Net-(C23-Pad2)*
X103721000Y-103015000D03*
G04 #@! TO.P,R19,1*
G04 #@! TO.N,+5V*
X103721000Y-100155000D03*
G04 #@! TD*
D11*
G04 #@! TO.P,R22,1*
G04 #@! TO.N,+5V*
X103975000Y-74280000D03*
G04 #@! TO.P,R22,2*
G04 #@! TO.N,Net-(C26-Pad2)*
X106835000Y-74280000D03*
G04 #@! TD*
D14*
G04 #@! TO.P,R23,1*
G04 #@! TO.N,OCC*
X113881000Y-103015000D03*
G04 #@! TO.P,R23,2*
G04 #@! TO.N,Net-(D14-Pad1)*
X113881000Y-100155000D03*
G04 #@! TD*
G04 #@! TO.P,R24,2*
G04 #@! TO.N,CSEN*
X134455000Y-74280000D03*
G04 #@! TO.P,R24,1*
G04 #@! TO.N,GND*
X134455000Y-71420000D03*
G04 #@! TD*
G04 #@! TO.P,R25,1*
G04 #@! TO.N,CSEN*
X116040000Y-90315000D03*
G04 #@! TO.P,R25,2*
G04 #@! TO.N,CSEN_FLT*
X116040000Y-87455000D03*
G04 #@! TD*
D11*
G04 #@! TO.P,R30,1*
G04 #@! TO.N,ID_R*
X63810000Y-75550000D03*
G04 #@! TO.P,R30,2*
G04 #@! TO.N,ID*
X66670000Y-75550000D03*
G04 #@! TD*
G04 #@! TO.P,R31,1*
G04 #@! TO.N,Net-(C31-Pad2)*
X99055000Y-69835000D03*
G04 #@! TO.P,R31,2*
G04 #@! TO.N,GND*
X96195000Y-69835000D03*
G04 #@! TD*
D14*
G04 #@! TO.P,R32,1*
G04 #@! TO.N,+5V*
X101435000Y-72535000D03*
G04 #@! TO.P,R32,2*
G04 #@! TO.N,Net-(C31-Pad2)*
X101435000Y-69675000D03*
G04 #@! TD*
D11*
G04 #@! TO.P,R33,2*
G04 #@! TO.N,ID_R*
X63810000Y-72756000D03*
G04 #@! TO.P,R33,1*
G04 #@! TO.N,+5V*
X66670000Y-72756000D03*
G04 #@! TD*
D23*
G04 #@! TO.P,U1,1*
G04 #@! TO.N,Net-(R8-Pad1)*
X67780000Y-78692000D03*
G04 #@! TO.P,U1,2*
G04 #@! TO.N,GND*
X66510000Y-78692000D03*
G04 #@! TO.P,U1,3*
X65240000Y-78692000D03*
G04 #@! TO.P,U1,4*
X63970000Y-78692000D03*
G04 #@! TO.P,U1,5*
X63970000Y-84092000D03*
G04 #@! TO.P,U1,6*
G04 #@! TO.N,Reset_A*
X65240000Y-84092000D03*
G04 #@! TO.P,U1,7*
G04 #@! TO.N,Reset_B*
X66510000Y-84092000D03*
G04 #@! TO.P,U1,8*
G04 #@! TO.N,Net-(C1-Pad2)*
X67780000Y-84092000D03*
G04 #@! TD*
G04 #@! TO.P,U2,1*
G04 #@! TO.N,SYNC*
X79845000Y-78692000D03*
G04 #@! TO.P,U2,2*
G04 #@! TO.N,GND*
X78575000Y-78692000D03*
G04 #@! TO.P,U2,3*
X77305000Y-78692000D03*
G04 #@! TO.P,U2,4*
X76035000Y-78692000D03*
G04 #@! TO.P,U2,5*
X76035000Y-84092000D03*
G04 #@! TO.P,U2,6*
G04 #@! TO.N,Sync_A*
X77305000Y-84092000D03*
G04 #@! TO.P,U2,7*
G04 #@! TO.N,Sync_B*
X78575000Y-84092000D03*
G04 #@! TO.P,U2,8*
G04 #@! TO.N,Net-(C2-Pad2)*
X79845000Y-84092000D03*
G04 #@! TD*
G04 #@! TO.P,U5,8*
G04 #@! TO.N,Net-(C11-Pad2)*
X69685000Y-90630000D03*
G04 #@! TO.P,U5,7*
G04 #@! TO.N,TX_B*
X70955000Y-90630000D03*
G04 #@! TO.P,U5,6*
G04 #@! TO.N,TX_A*
X72225000Y-90630000D03*
G04 #@! TO.P,U5,5*
G04 #@! TO.N,GND*
X73495000Y-90630000D03*
G04 #@! TO.P,U5,4*
G04 #@! TO.N,TX*
X73495000Y-96030000D03*
G04 #@! TO.P,U5,3*
G04 #@! TO.N,TX_ENA*
X72225000Y-96030000D03*
G04 #@! TO.P,U5,2*
G04 #@! TO.N,Net-(C11-Pad2)*
X70955000Y-96030000D03*
G04 #@! TO.P,U5,1*
G04 #@! TO.N,Net-(U5-Pad1)*
X69685000Y-96030000D03*
G04 #@! TD*
G04 #@! TO.P,U6,8*
G04 #@! TO.N,Net-(C12-Pad2)*
X81115000Y-90630000D03*
G04 #@! TO.P,U6,7*
G04 #@! TO.N,RX_B*
X82385000Y-90630000D03*
G04 #@! TO.P,U6,6*
G04 #@! TO.N,RX_A*
X83655000Y-90630000D03*
G04 #@! TO.P,U6,5*
G04 #@! TO.N,GND*
X84925000Y-90630000D03*
G04 #@! TO.P,U6,4*
X84925000Y-96030000D03*
G04 #@! TO.P,U6,3*
X83655000Y-96030000D03*
G04 #@! TO.P,U6,2*
X82385000Y-96030000D03*
G04 #@! TO.P,U6,1*
G04 #@! TO.N,RX*
X81115000Y-96030000D03*
G04 #@! TD*
D24*
G04 #@! TO.P,U9,1*
G04 #@! TO.N,RST*
X96100000Y-77452479D03*
G04 #@! TO.P,U9,2*
G04 #@! TO.N,ID*
X96100000Y-78722479D03*
G04 #@! TO.P,U9,3*
G04 #@! TO.N,OCC*
X96100000Y-79992479D03*
G04 #@! TO.P,U9,4*
G04 #@! TO.N,BMF*
X96100000Y-81262479D03*
G04 #@! TO.P,U9,5*
G04 #@! TO.N,VREF*
X96100000Y-82532479D03*
G04 #@! TO.P,U9,6*
G04 #@! TO.N,Vlm*
X96100000Y-83802479D03*
G04 #@! TO.P,U9,7*
G04 #@! TO.N,Net-(R46-Pad2)*
X96100000Y-85072479D03*
G04 #@! TO.P,U9,8*
G04 #@! TO.N,GND*
X96100000Y-86342479D03*
G04 #@! TO.P,U9,9*
G04 #@! TO.N,THFLG*
X96100000Y-87612479D03*
G04 #@! TO.P,U9,10*
G04 #@! TO.N,Net-(R43-Pad2)*
X96100000Y-88882479D03*
G04 #@! TO.P,U9,11*
G04 #@! TO.N,SYNC*
X96100000Y-90152479D03*
G04 #@! TO.P,U9,12*
G04 #@! TO.N,TX*
X96100000Y-91422479D03*
G04 #@! TO.P,U9,13*
G04 #@! TO.N,TX_ENA*
X96100000Y-92692479D03*
G04 #@! TO.P,U9,14*
G04 #@! TO.N,RX*
X96100000Y-93962479D03*
G04 #@! TO.P,U9,15*
G04 #@! TO.N,PWM*
X105500000Y-93962479D03*
G04 #@! TO.P,U9,16*
G04 #@! TO.N,BRK*
X105500000Y-92692479D03*
G04 #@! TO.P,U9,17*
G04 #@! TO.N,DIR*
X105500000Y-91422479D03*
G04 #@! TO.P,U9,18*
G04 #@! TO.N,TEMP*
X105500000Y-90152479D03*
G04 #@! TO.P,U9,19*
G04 #@! TO.N,GND*
X105500000Y-88882479D03*
G04 #@! TO.P,U9,20*
G04 #@! TO.N,Net-(C26-Pad2)*
X105500000Y-87612479D03*
G04 #@! TO.P,U9,21*
G04 #@! TO.N,CSEN_FLT*
X105500000Y-86342479D03*
G04 #@! TO.P,U9,22*
G04 #@! TO.N,Net-(R29-Pad1)*
X105500000Y-85072479D03*
G04 #@! TO.P,U9,23*
G04 #@! TO.N,Net-(R35-Pad2)*
X105500000Y-83802479D03*
G04 #@! TO.P,U9,24*
G04 #@! TO.N,Net-(R28-Pad1)*
X105500000Y-82532479D03*
G04 #@! TO.P,U9,25*
G04 #@! TO.N,Net-(R27-Pad1)*
X105500000Y-81262479D03*
G04 #@! TO.P,U9,26*
G04 #@! TO.N,Net-(R26-Pad1)*
X105500000Y-79992479D03*
G04 #@! TO.P,U9,27*
G04 #@! TO.N,ICSPCLK*
X105500000Y-78722479D03*
G04 #@! TO.P,U9,28*
G04 #@! TO.N,ICSPDAT*
X105500000Y-77452479D03*
G04 #@! TD*
D11*
G04 #@! TO.P,C32,1*
G04 #@! TO.N,GND*
X88194000Y-80630000D03*
G04 #@! TO.P,C32,2*
G04 #@! TO.N,Net-(C32-Pad2)*
X91054000Y-80630000D03*
G04 #@! TD*
G04 #@! TO.P,C33,2*
G04 #@! TO.N,Net-(C32-Pad2)*
X91054000Y-83170000D03*
G04 #@! TO.P,C33,1*
G04 #@! TO.N,GND*
X88194000Y-83170000D03*
G04 #@! TD*
G04 #@! TO.P,R34,1*
G04 #@! TO.N,+5V*
X88194000Y-78090000D03*
G04 #@! TO.P,R34,2*
G04 #@! TO.N,Net-(C32-Pad2)*
X91054000Y-78090000D03*
G04 #@! TD*
G04 #@! TO.P,C34,2*
G04 #@! TO.N,Net-(C34-Pad2)*
X121280000Y-103490000D03*
G04 #@! TO.P,C34,1*
G04 #@! TO.N,GND*
X118420000Y-103490000D03*
G04 #@! TD*
G04 #@! TO.P,C35,1*
G04 #@! TO.N,GND*
X118420000Y-100950000D03*
G04 #@! TO.P,C35,2*
G04 #@! TO.N,Net-(C34-Pad2)*
X121280000Y-100950000D03*
G04 #@! TD*
D25*
G04 #@! TO.P,U11,2*
G04 #@! TO.N,Net-(R37-Pad1)*
X119850000Y-96505000D03*
G04 #@! TO.P,U11,3*
G04 #@! TO.N,GND*
X121120000Y-95235000D03*
D26*
G04 #@! TO.P,U11,1*
G04 #@! TO.N,Net-(C34-Pad2)*
X121120000Y-97775000D03*
G04 #@! TD*
D14*
G04 #@! TO.P,R36,1*
G04 #@! TO.N,Net-(C37-Pad2)*
X87465000Y-72215000D03*
G04 #@! TO.P,R36,2*
G04 #@! TO.N,GND*
X87465000Y-75075000D03*
G04 #@! TD*
D11*
G04 #@! TO.P,R37,1*
G04 #@! TO.N,Net-(R37-Pad1)*
X116962000Y-96505000D03*
G04 #@! TO.P,R37,2*
G04 #@! TO.N,TEMP*
X114102000Y-96505000D03*
G04 #@! TD*
D27*
G04 #@! TO.P,MK1,1*
G04 #@! TO.N,N/C*
X137317013Y-97367015D03*
D28*
X134542013Y-97367015D03*
X135354792Y-95404794D03*
X137317013Y-94592015D03*
X139279234Y-95404794D03*
X140092013Y-97367015D03*
X139279234Y-99329236D03*
X137317013Y-100142015D03*
X135354792Y-99329236D03*
G04 #@! TD*
D14*
G04 #@! TO.P,C36,1*
G04 #@! TO.N,GND*
X112865000Y-69995000D03*
G04 #@! TO.P,C36,2*
G04 #@! TO.N,Vlm*
X112865000Y-67135000D03*
G04 #@! TD*
D11*
G04 #@! TO.P,D9,2*
G04 #@! TO.N,Vlm*
X110485000Y-69835000D03*
G04 #@! TO.P,D9,1*
G04 #@! TO.N,+5V*
X107625000Y-69835000D03*
G04 #@! TD*
D14*
G04 #@! TO.P,D10,1*
G04 #@! TO.N,Vlm*
X115405000Y-65390000D03*
G04 #@! TO.P,D10,2*
G04 #@! TO.N,GND*
X115405000Y-68250000D03*
G04 #@! TD*
D29*
G04 #@! TO.P,C6,1*
G04 #@! TO.N,Net-(C6-Pad1)*
X127470000Y-62977000D03*
D30*
G04 #@! TO.P,C6,2*
G04 #@! TO.N,GND*
X122470000Y-62977000D03*
G04 #@! TD*
D14*
G04 #@! TO.P,R39,1*
G04 #@! TO.N,GND*
X117945000Y-68250000D03*
G04 #@! TO.P,R39,2*
G04 #@! TO.N,Vlm*
X117945000Y-65390000D03*
G04 #@! TD*
D11*
G04 #@! TO.P,R26,1*
G04 #@! TO.N,Net-(R26-Pad1)*
X141120000Y-57135000D03*
G04 #@! TO.P,R26,2*
G04 #@! TO.N,Net-(D1-Pad2)*
X143980000Y-57135000D03*
G04 #@! TD*
G04 #@! TO.P,R27,2*
G04 #@! TO.N,Net-(D2-Pad2)*
X143980000Y-59675000D03*
G04 #@! TO.P,R27,1*
G04 #@! TO.N,Net-(R27-Pad1)*
X141120000Y-59675000D03*
G04 #@! TD*
G04 #@! TO.P,R28,1*
G04 #@! TO.N,Net-(R28-Pad1)*
X141120000Y-62215000D03*
G04 #@! TO.P,R28,2*
G04 #@! TO.N,Net-(D3-Pad2)*
X143980000Y-62215000D03*
G04 #@! TD*
G04 #@! TO.P,R29,2*
G04 #@! TO.N,Net-(D8-Pad2)*
X143877815Y-67295000D03*
G04 #@! TO.P,R29,1*
G04 #@! TO.N,Net-(R29-Pad1)*
X141017815Y-67295000D03*
G04 #@! TD*
G04 #@! TO.P,R35,1*
G04 #@! TO.N,Net-(D4-Pad2)*
X143877815Y-64755000D03*
G04 #@! TO.P,R35,2*
G04 #@! TO.N,Net-(R35-Pad2)*
X141017815Y-64755000D03*
G04 #@! TD*
G04 #@! TO.P,C37,1*
G04 #@! TO.N,GND*
X92705000Y-70470000D03*
G04 #@! TO.P,C37,2*
G04 #@! TO.N,Net-(C37-Pad2)*
X89845000Y-70470000D03*
G04 #@! TD*
D14*
G04 #@! TO.P,R40,1*
G04 #@! TO.N,+5V*
X131280000Y-71420000D03*
G04 #@! TO.P,R40,2*
G04 #@! TO.N,THFLG*
X131280000Y-74280000D03*
G04 #@! TD*
D11*
G04 #@! TO.P,C38,1*
G04 #@! TO.N,GND*
X108514000Y-96505000D03*
G04 #@! TO.P,C38,2*
G04 #@! TO.N,TEMP*
X111374000Y-96505000D03*
G04 #@! TD*
D31*
G04 #@! TO.N,GND*
G04 #@! TO.C,C39*
G36*
X88623504Y-84836204D02*
X88647773Y-84839804D01*
X88671571Y-84845765D01*
X88694671Y-84854030D01*
X88716849Y-84864520D01*
X88737893Y-84877133D01*
X88757598Y-84891747D01*
X88775777Y-84908223D01*
X88792253Y-84926402D01*
X88806867Y-84946107D01*
X88819480Y-84967151D01*
X88829970Y-84989329D01*
X88838235Y-85012429D01*
X88844196Y-85036227D01*
X88847796Y-85060496D01*
X88849000Y-85085000D01*
X88849000Y-86335000D01*
X88847796Y-86359504D01*
X88844196Y-86383773D01*
X88838235Y-86407571D01*
X88829970Y-86430671D01*
X88819480Y-86452849D01*
X88806867Y-86473893D01*
X88792253Y-86493598D01*
X88775777Y-86511777D01*
X88757598Y-86528253D01*
X88737893Y-86542867D01*
X88716849Y-86555480D01*
X88694671Y-86565970D01*
X88671571Y-86574235D01*
X88647773Y-86580196D01*
X88623504Y-86583796D01*
X88599000Y-86585000D01*
X87849000Y-86585000D01*
X87824496Y-86583796D01*
X87800227Y-86580196D01*
X87776429Y-86574235D01*
X87753329Y-86565970D01*
X87731151Y-86555480D01*
X87710107Y-86542867D01*
X87690402Y-86528253D01*
X87672223Y-86511777D01*
X87655747Y-86493598D01*
X87641133Y-86473893D01*
X87628520Y-86452849D01*
X87618030Y-86430671D01*
X87609765Y-86407571D01*
X87603804Y-86383773D01*
X87600204Y-86359504D01*
X87599000Y-86335000D01*
X87599000Y-85085000D01*
X87600204Y-85060496D01*
X87603804Y-85036227D01*
X87609765Y-85012429D01*
X87618030Y-84989329D01*
X87628520Y-84967151D01*
X87641133Y-84946107D01*
X87655747Y-84926402D01*
X87672223Y-84908223D01*
X87690402Y-84891747D01*
X87710107Y-84877133D01*
X87731151Y-84864520D01*
X87753329Y-84854030D01*
X87776429Y-84845765D01*
X87800227Y-84839804D01*
X87824496Y-84836204D01*
X87849000Y-84835000D01*
X88599000Y-84835000D01*
X88623504Y-84836204D01*
X88623504Y-84836204D01*
G37*
D32*
G04 #@! TD*
G04 #@! TO.P,C39,1*
G04 #@! TO.N,GND*
X88224000Y-85710000D03*
D31*
G04 #@! TO.N,VREF*
G04 #@! TO.C,C39*
G36*
X91423504Y-84836204D02*
X91447773Y-84839804D01*
X91471571Y-84845765D01*
X91494671Y-84854030D01*
X91516849Y-84864520D01*
X91537893Y-84877133D01*
X91557598Y-84891747D01*
X91575777Y-84908223D01*
X91592253Y-84926402D01*
X91606867Y-84946107D01*
X91619480Y-84967151D01*
X91629970Y-84989329D01*
X91638235Y-85012429D01*
X91644196Y-85036227D01*
X91647796Y-85060496D01*
X91649000Y-85085000D01*
X91649000Y-86335000D01*
X91647796Y-86359504D01*
X91644196Y-86383773D01*
X91638235Y-86407571D01*
X91629970Y-86430671D01*
X91619480Y-86452849D01*
X91606867Y-86473893D01*
X91592253Y-86493598D01*
X91575777Y-86511777D01*
X91557598Y-86528253D01*
X91537893Y-86542867D01*
X91516849Y-86555480D01*
X91494671Y-86565970D01*
X91471571Y-86574235D01*
X91447773Y-86580196D01*
X91423504Y-86583796D01*
X91399000Y-86585000D01*
X90649000Y-86585000D01*
X90624496Y-86583796D01*
X90600227Y-86580196D01*
X90576429Y-86574235D01*
X90553329Y-86565970D01*
X90531151Y-86555480D01*
X90510107Y-86542867D01*
X90490402Y-86528253D01*
X90472223Y-86511777D01*
X90455747Y-86493598D01*
X90441133Y-86473893D01*
X90428520Y-86452849D01*
X90418030Y-86430671D01*
X90409765Y-86407571D01*
X90403804Y-86383773D01*
X90400204Y-86359504D01*
X90399000Y-86335000D01*
X90399000Y-85085000D01*
X90400204Y-85060496D01*
X90403804Y-85036227D01*
X90409765Y-85012429D01*
X90418030Y-84989329D01*
X90428520Y-84967151D01*
X90441133Y-84946107D01*
X90455747Y-84926402D01*
X90472223Y-84908223D01*
X90490402Y-84891747D01*
X90510107Y-84877133D01*
X90531151Y-84864520D01*
X90553329Y-84854030D01*
X90576429Y-84845765D01*
X90600227Y-84839804D01*
X90624496Y-84836204D01*
X90649000Y-84835000D01*
X91399000Y-84835000D01*
X91423504Y-84836204D01*
X91423504Y-84836204D01*
G37*
D32*
G04 #@! TD*
G04 #@! TO.P,C39,2*
G04 #@! TO.N,VREF*
X91024000Y-85710000D03*
D33*
G04 #@! TO.P,D7,2*
G04 #@! TO.N,Net-(D7-Pad1)*
X100805000Y-52666000D03*
D34*
G04 #@! TO.P,D7,3*
G04 #@! TO.N,Net-(C21-Pad1)*
X104610000Y-53706000D03*
D33*
G04 #@! TO.P,D7,1*
G04 #@! TO.N,Net-(D7-Pad1)*
X100805000Y-54746000D03*
G04 #@! TD*
D35*
G04 #@! TO.P,D11,1*
G04 #@! TO.N,OCC1*
X114667000Y-117455000D03*
D36*
G04 #@! TO.P,D11,3*
G04 #@! TO.N,OCC2*
X113627000Y-113650000D03*
D35*
G04 #@! TO.P,D11,2*
G04 #@! TO.N,OCC1*
X112587000Y-117455000D03*
G04 #@! TD*
G04 #@! TO.P,D12,1*
G04 #@! TO.N,OCC2*
X104713000Y-112004000D03*
D36*
G04 #@! TO.P,D12,3*
G04 #@! TO.N,OCC1*
X105753000Y-115809000D03*
D35*
G04 #@! TO.P,D12,2*
G04 #@! TO.N,OCC2*
X106793000Y-112004000D03*
G04 #@! TD*
D31*
G04 #@! TO.N,Net-(D14-Pad2)*
G04 #@! TO.C,D14*
G36*
X107165504Y-104394204D02*
X107189773Y-104397804D01*
X107213571Y-104403765D01*
X107236671Y-104412030D01*
X107258849Y-104422520D01*
X107279893Y-104435133D01*
X107299598Y-104449747D01*
X107317777Y-104466223D01*
X107334253Y-104484402D01*
X107348867Y-104504107D01*
X107361480Y-104525151D01*
X107371970Y-104547329D01*
X107380235Y-104570429D01*
X107386196Y-104594227D01*
X107389796Y-104618496D01*
X107391000Y-104643000D01*
X107391000Y-105893000D01*
X107389796Y-105917504D01*
X107386196Y-105941773D01*
X107380235Y-105965571D01*
X107371970Y-105988671D01*
X107361480Y-106010849D01*
X107348867Y-106031893D01*
X107334253Y-106051598D01*
X107317777Y-106069777D01*
X107299598Y-106086253D01*
X107279893Y-106100867D01*
X107258849Y-106113480D01*
X107236671Y-106123970D01*
X107213571Y-106132235D01*
X107189773Y-106138196D01*
X107165504Y-106141796D01*
X107141000Y-106143000D01*
X106391000Y-106143000D01*
X106366496Y-106141796D01*
X106342227Y-106138196D01*
X106318429Y-106132235D01*
X106295329Y-106123970D01*
X106273151Y-106113480D01*
X106252107Y-106100867D01*
X106232402Y-106086253D01*
X106214223Y-106069777D01*
X106197747Y-106051598D01*
X106183133Y-106031893D01*
X106170520Y-106010849D01*
X106160030Y-105988671D01*
X106151765Y-105965571D01*
X106145804Y-105941773D01*
X106142204Y-105917504D01*
X106141000Y-105893000D01*
X106141000Y-104643000D01*
X106142204Y-104618496D01*
X106145804Y-104594227D01*
X106151765Y-104570429D01*
X106160030Y-104547329D01*
X106170520Y-104525151D01*
X106183133Y-104504107D01*
X106197747Y-104484402D01*
X106214223Y-104466223D01*
X106232402Y-104449747D01*
X106252107Y-104435133D01*
X106273151Y-104422520D01*
X106295329Y-104412030D01*
X106318429Y-104403765D01*
X106342227Y-104397804D01*
X106366496Y-104394204D01*
X106391000Y-104393000D01*
X107141000Y-104393000D01*
X107165504Y-104394204D01*
X107165504Y-104394204D01*
G37*
D32*
G04 #@! TD*
G04 #@! TO.P,D14,2*
G04 #@! TO.N,Net-(D14-Pad2)*
X106766000Y-105268000D03*
D31*
G04 #@! TO.N,Net-(D14-Pad1)*
G04 #@! TO.C,D14*
G36*
X109965504Y-104394204D02*
X109989773Y-104397804D01*
X110013571Y-104403765D01*
X110036671Y-104412030D01*
X110058849Y-104422520D01*
X110079893Y-104435133D01*
X110099598Y-104449747D01*
X110117777Y-104466223D01*
X110134253Y-104484402D01*
X110148867Y-104504107D01*
X110161480Y-104525151D01*
X110171970Y-104547329D01*
X110180235Y-104570429D01*
X110186196Y-104594227D01*
X110189796Y-104618496D01*
X110191000Y-104643000D01*
X110191000Y-105893000D01*
X110189796Y-105917504D01*
X110186196Y-105941773D01*
X110180235Y-105965571D01*
X110171970Y-105988671D01*
X110161480Y-106010849D01*
X110148867Y-106031893D01*
X110134253Y-106051598D01*
X110117777Y-106069777D01*
X110099598Y-106086253D01*
X110079893Y-106100867D01*
X110058849Y-106113480D01*
X110036671Y-106123970D01*
X110013571Y-106132235D01*
X109989773Y-106138196D01*
X109965504Y-106141796D01*
X109941000Y-106143000D01*
X109191000Y-106143000D01*
X109166496Y-106141796D01*
X109142227Y-106138196D01*
X109118429Y-106132235D01*
X109095329Y-106123970D01*
X109073151Y-106113480D01*
X109052107Y-106100867D01*
X109032402Y-106086253D01*
X109014223Y-106069777D01*
X108997747Y-106051598D01*
X108983133Y-106031893D01*
X108970520Y-106010849D01*
X108960030Y-105988671D01*
X108951765Y-105965571D01*
X108945804Y-105941773D01*
X108942204Y-105917504D01*
X108941000Y-105893000D01*
X108941000Y-104643000D01*
X108942204Y-104618496D01*
X108945804Y-104594227D01*
X108951765Y-104570429D01*
X108960030Y-104547329D01*
X108970520Y-104525151D01*
X108983133Y-104504107D01*
X108997747Y-104484402D01*
X109014223Y-104466223D01*
X109032402Y-104449747D01*
X109052107Y-104435133D01*
X109073151Y-104422520D01*
X109095329Y-104412030D01*
X109118429Y-104403765D01*
X109142227Y-104397804D01*
X109166496Y-104394204D01*
X109191000Y-104393000D01*
X109941000Y-104393000D01*
X109965504Y-104394204D01*
X109965504Y-104394204D01*
G37*
D32*
G04 #@! TD*
G04 #@! TO.P,D14,1*
G04 #@! TO.N,Net-(D14-Pad1)*
X109566000Y-105268000D03*
D31*
G04 #@! TO.N,Net-(D14-Pad1)*
G04 #@! TO.C,D15*
G36*
X115426504Y-106045204D02*
X115450773Y-106048804D01*
X115474571Y-106054765D01*
X115497671Y-106063030D01*
X115519849Y-106073520D01*
X115540893Y-106086133D01*
X115560598Y-106100747D01*
X115578777Y-106117223D01*
X115595253Y-106135402D01*
X115609867Y-106155107D01*
X115622480Y-106176151D01*
X115632970Y-106198329D01*
X115641235Y-106221429D01*
X115647196Y-106245227D01*
X115650796Y-106269496D01*
X115652000Y-106294000D01*
X115652000Y-107544000D01*
X115650796Y-107568504D01*
X115647196Y-107592773D01*
X115641235Y-107616571D01*
X115632970Y-107639671D01*
X115622480Y-107661849D01*
X115609867Y-107682893D01*
X115595253Y-107702598D01*
X115578777Y-107720777D01*
X115560598Y-107737253D01*
X115540893Y-107751867D01*
X115519849Y-107764480D01*
X115497671Y-107774970D01*
X115474571Y-107783235D01*
X115450773Y-107789196D01*
X115426504Y-107792796D01*
X115402000Y-107794000D01*
X114652000Y-107794000D01*
X114627496Y-107792796D01*
X114603227Y-107789196D01*
X114579429Y-107783235D01*
X114556329Y-107774970D01*
X114534151Y-107764480D01*
X114513107Y-107751867D01*
X114493402Y-107737253D01*
X114475223Y-107720777D01*
X114458747Y-107702598D01*
X114444133Y-107682893D01*
X114431520Y-107661849D01*
X114421030Y-107639671D01*
X114412765Y-107616571D01*
X114406804Y-107592773D01*
X114403204Y-107568504D01*
X114402000Y-107544000D01*
X114402000Y-106294000D01*
X114403204Y-106269496D01*
X114406804Y-106245227D01*
X114412765Y-106221429D01*
X114421030Y-106198329D01*
X114431520Y-106176151D01*
X114444133Y-106155107D01*
X114458747Y-106135402D01*
X114475223Y-106117223D01*
X114493402Y-106100747D01*
X114513107Y-106086133D01*
X114534151Y-106073520D01*
X114556329Y-106063030D01*
X114579429Y-106054765D01*
X114603227Y-106048804D01*
X114627496Y-106045204D01*
X114652000Y-106044000D01*
X115402000Y-106044000D01*
X115426504Y-106045204D01*
X115426504Y-106045204D01*
G37*
D32*
G04 #@! TD*
G04 #@! TO.P,D15,1*
G04 #@! TO.N,Net-(D14-Pad1)*
X115027000Y-106919000D03*
D31*
G04 #@! TO.N,Net-(D15-Pad2)*
G04 #@! TO.C,D15*
G36*
X112626504Y-106045204D02*
X112650773Y-106048804D01*
X112674571Y-106054765D01*
X112697671Y-106063030D01*
X112719849Y-106073520D01*
X112740893Y-106086133D01*
X112760598Y-106100747D01*
X112778777Y-106117223D01*
X112795253Y-106135402D01*
X112809867Y-106155107D01*
X112822480Y-106176151D01*
X112832970Y-106198329D01*
X112841235Y-106221429D01*
X112847196Y-106245227D01*
X112850796Y-106269496D01*
X112852000Y-106294000D01*
X112852000Y-107544000D01*
X112850796Y-107568504D01*
X112847196Y-107592773D01*
X112841235Y-107616571D01*
X112832970Y-107639671D01*
X112822480Y-107661849D01*
X112809867Y-107682893D01*
X112795253Y-107702598D01*
X112778777Y-107720777D01*
X112760598Y-107737253D01*
X112740893Y-107751867D01*
X112719849Y-107764480D01*
X112697671Y-107774970D01*
X112674571Y-107783235D01*
X112650773Y-107789196D01*
X112626504Y-107792796D01*
X112602000Y-107794000D01*
X111852000Y-107794000D01*
X111827496Y-107792796D01*
X111803227Y-107789196D01*
X111779429Y-107783235D01*
X111756329Y-107774970D01*
X111734151Y-107764480D01*
X111713107Y-107751867D01*
X111693402Y-107737253D01*
X111675223Y-107720777D01*
X111658747Y-107702598D01*
X111644133Y-107682893D01*
X111631520Y-107661849D01*
X111621030Y-107639671D01*
X111612765Y-107616571D01*
X111606804Y-107592773D01*
X111603204Y-107568504D01*
X111602000Y-107544000D01*
X111602000Y-106294000D01*
X111603204Y-106269496D01*
X111606804Y-106245227D01*
X111612765Y-106221429D01*
X111621030Y-106198329D01*
X111631520Y-106176151D01*
X111644133Y-106155107D01*
X111658747Y-106135402D01*
X111675223Y-106117223D01*
X111693402Y-106100747D01*
X111713107Y-106086133D01*
X111734151Y-106073520D01*
X111756329Y-106063030D01*
X111779429Y-106054765D01*
X111803227Y-106048804D01*
X111827496Y-106045204D01*
X111852000Y-106044000D01*
X112602000Y-106044000D01*
X112626504Y-106045204D01*
X112626504Y-106045204D01*
G37*
D32*
G04 #@! TD*
G04 #@! TO.P,D15,2*
G04 #@! TO.N,Net-(D15-Pad2)*
X112227000Y-106919000D03*
D31*
G04 #@! TO.N,OCC2*
G04 #@! TO.C,R41*
G36*
X111610504Y-108712204D02*
X111634773Y-108715804D01*
X111658571Y-108721765D01*
X111681671Y-108730030D01*
X111703849Y-108740520D01*
X111724893Y-108753133D01*
X111744598Y-108767747D01*
X111762777Y-108784223D01*
X111779253Y-108802402D01*
X111793867Y-108822107D01*
X111806480Y-108843151D01*
X111816970Y-108865329D01*
X111825235Y-108888429D01*
X111831196Y-108912227D01*
X111834796Y-108936496D01*
X111836000Y-108961000D01*
X111836000Y-110211000D01*
X111834796Y-110235504D01*
X111831196Y-110259773D01*
X111825235Y-110283571D01*
X111816970Y-110306671D01*
X111806480Y-110328849D01*
X111793867Y-110349893D01*
X111779253Y-110369598D01*
X111762777Y-110387777D01*
X111744598Y-110404253D01*
X111724893Y-110418867D01*
X111703849Y-110431480D01*
X111681671Y-110441970D01*
X111658571Y-110450235D01*
X111634773Y-110456196D01*
X111610504Y-110459796D01*
X111586000Y-110461000D01*
X110836000Y-110461000D01*
X110811496Y-110459796D01*
X110787227Y-110456196D01*
X110763429Y-110450235D01*
X110740329Y-110441970D01*
X110718151Y-110431480D01*
X110697107Y-110418867D01*
X110677402Y-110404253D01*
X110659223Y-110387777D01*
X110642747Y-110369598D01*
X110628133Y-110349893D01*
X110615520Y-110328849D01*
X110605030Y-110306671D01*
X110596765Y-110283571D01*
X110590804Y-110259773D01*
X110587204Y-110235504D01*
X110586000Y-110211000D01*
X110586000Y-108961000D01*
X110587204Y-108936496D01*
X110590804Y-108912227D01*
X110596765Y-108888429D01*
X110605030Y-108865329D01*
X110615520Y-108843151D01*
X110628133Y-108822107D01*
X110642747Y-108802402D01*
X110659223Y-108784223D01*
X110677402Y-108767747D01*
X110697107Y-108753133D01*
X110718151Y-108740520D01*
X110740329Y-108730030D01*
X110763429Y-108721765D01*
X110787227Y-108715804D01*
X110811496Y-108712204D01*
X110836000Y-108711000D01*
X111586000Y-108711000D01*
X111610504Y-108712204D01*
X111610504Y-108712204D01*
G37*
D32*
G04 #@! TD*
G04 #@! TO.P,R41,1*
G04 #@! TO.N,OCC2*
X111211000Y-109586000D03*
D31*
G04 #@! TO.N,OCC1*
G04 #@! TO.C,R41*
G36*
X114410504Y-108712204D02*
X114434773Y-108715804D01*
X114458571Y-108721765D01*
X114481671Y-108730030D01*
X114503849Y-108740520D01*
X114524893Y-108753133D01*
X114544598Y-108767747D01*
X114562777Y-108784223D01*
X114579253Y-108802402D01*
X114593867Y-108822107D01*
X114606480Y-108843151D01*
X114616970Y-108865329D01*
X114625235Y-108888429D01*
X114631196Y-108912227D01*
X114634796Y-108936496D01*
X114636000Y-108961000D01*
X114636000Y-110211000D01*
X114634796Y-110235504D01*
X114631196Y-110259773D01*
X114625235Y-110283571D01*
X114616970Y-110306671D01*
X114606480Y-110328849D01*
X114593867Y-110349893D01*
X114579253Y-110369598D01*
X114562777Y-110387777D01*
X114544598Y-110404253D01*
X114524893Y-110418867D01*
X114503849Y-110431480D01*
X114481671Y-110441970D01*
X114458571Y-110450235D01*
X114434773Y-110456196D01*
X114410504Y-110459796D01*
X114386000Y-110461000D01*
X113636000Y-110461000D01*
X113611496Y-110459796D01*
X113587227Y-110456196D01*
X113563429Y-110450235D01*
X113540329Y-110441970D01*
X113518151Y-110431480D01*
X113497107Y-110418867D01*
X113477402Y-110404253D01*
X113459223Y-110387777D01*
X113442747Y-110369598D01*
X113428133Y-110349893D01*
X113415520Y-110328849D01*
X113405030Y-110306671D01*
X113396765Y-110283571D01*
X113390804Y-110259773D01*
X113387204Y-110235504D01*
X113386000Y-110211000D01*
X113386000Y-108961000D01*
X113387204Y-108936496D01*
X113390804Y-108912227D01*
X113396765Y-108888429D01*
X113405030Y-108865329D01*
X113415520Y-108843151D01*
X113428133Y-108822107D01*
X113442747Y-108802402D01*
X113459223Y-108784223D01*
X113477402Y-108767747D01*
X113497107Y-108753133D01*
X113518151Y-108740520D01*
X113540329Y-108730030D01*
X113563429Y-108721765D01*
X113587227Y-108715804D01*
X113611496Y-108712204D01*
X113636000Y-108711000D01*
X114386000Y-108711000D01*
X114410504Y-108712204D01*
X114410504Y-108712204D01*
G37*
D32*
G04 #@! TD*
G04 #@! TO.P,R41,2*
G04 #@! TO.N,OCC1*
X114011000Y-109586000D03*
D31*
G04 #@! TO.N,Net-(C19-Pad2)*
G04 #@! TO.C,R42*
G36*
X98274504Y-107695204D02*
X98298773Y-107698804D01*
X98322571Y-107704765D01*
X98345671Y-107713030D01*
X98367849Y-107723520D01*
X98388893Y-107736133D01*
X98408598Y-107750747D01*
X98426777Y-107767223D01*
X98443253Y-107785402D01*
X98457867Y-107805107D01*
X98470480Y-107826151D01*
X98480970Y-107848329D01*
X98489235Y-107871429D01*
X98495196Y-107895227D01*
X98498796Y-107919496D01*
X98500000Y-107944000D01*
X98500000Y-108694000D01*
X98498796Y-108718504D01*
X98495196Y-108742773D01*
X98489235Y-108766571D01*
X98480970Y-108789671D01*
X98470480Y-108811849D01*
X98457867Y-108832893D01*
X98443253Y-108852598D01*
X98426777Y-108870777D01*
X98408598Y-108887253D01*
X98388893Y-108901867D01*
X98367849Y-108914480D01*
X98345671Y-108924970D01*
X98322571Y-108933235D01*
X98298773Y-108939196D01*
X98274504Y-108942796D01*
X98250000Y-108944000D01*
X97000000Y-108944000D01*
X96975496Y-108942796D01*
X96951227Y-108939196D01*
X96927429Y-108933235D01*
X96904329Y-108924970D01*
X96882151Y-108914480D01*
X96861107Y-108901867D01*
X96841402Y-108887253D01*
X96823223Y-108870777D01*
X96806747Y-108852598D01*
X96792133Y-108832893D01*
X96779520Y-108811849D01*
X96769030Y-108789671D01*
X96760765Y-108766571D01*
X96754804Y-108742773D01*
X96751204Y-108718504D01*
X96750000Y-108694000D01*
X96750000Y-107944000D01*
X96751204Y-107919496D01*
X96754804Y-107895227D01*
X96760765Y-107871429D01*
X96769030Y-107848329D01*
X96779520Y-107826151D01*
X96792133Y-107805107D01*
X96806747Y-107785402D01*
X96823223Y-107767223D01*
X96841402Y-107750747D01*
X96861107Y-107736133D01*
X96882151Y-107723520D01*
X96904329Y-107713030D01*
X96927429Y-107704765D01*
X96951227Y-107698804D01*
X96975496Y-107695204D01*
X97000000Y-107694000D01*
X98250000Y-107694000D01*
X98274504Y-107695204D01*
X98274504Y-107695204D01*
G37*
D32*
G04 #@! TD*
G04 #@! TO.P,R42,1*
G04 #@! TO.N,Net-(C19-Pad2)*
X97625000Y-108319000D03*
D31*
G04 #@! TO.N,Net-(R42-Pad2)*
G04 #@! TO.C,R42*
G36*
X98274504Y-104895204D02*
X98298773Y-104898804D01*
X98322571Y-104904765D01*
X98345671Y-104913030D01*
X98367849Y-104923520D01*
X98388893Y-104936133D01*
X98408598Y-104950747D01*
X98426777Y-104967223D01*
X98443253Y-104985402D01*
X98457867Y-105005107D01*
X98470480Y-105026151D01*
X98480970Y-105048329D01*
X98489235Y-105071429D01*
X98495196Y-105095227D01*
X98498796Y-105119496D01*
X98500000Y-105144000D01*
X98500000Y-105894000D01*
X98498796Y-105918504D01*
X98495196Y-105942773D01*
X98489235Y-105966571D01*
X98480970Y-105989671D01*
X98470480Y-106011849D01*
X98457867Y-106032893D01*
X98443253Y-106052598D01*
X98426777Y-106070777D01*
X98408598Y-106087253D01*
X98388893Y-106101867D01*
X98367849Y-106114480D01*
X98345671Y-106124970D01*
X98322571Y-106133235D01*
X98298773Y-106139196D01*
X98274504Y-106142796D01*
X98250000Y-106144000D01*
X97000000Y-106144000D01*
X96975496Y-106142796D01*
X96951227Y-106139196D01*
X96927429Y-106133235D01*
X96904329Y-106124970D01*
X96882151Y-106114480D01*
X96861107Y-106101867D01*
X96841402Y-106087253D01*
X96823223Y-106070777D01*
X96806747Y-106052598D01*
X96792133Y-106032893D01*
X96779520Y-106011849D01*
X96769030Y-105989671D01*
X96760765Y-105966571D01*
X96754804Y-105942773D01*
X96751204Y-105918504D01*
X96750000Y-105894000D01*
X96750000Y-105144000D01*
X96751204Y-105119496D01*
X96754804Y-105095227D01*
X96760765Y-105071429D01*
X96769030Y-105048329D01*
X96779520Y-105026151D01*
X96792133Y-105005107D01*
X96806747Y-104985402D01*
X96823223Y-104967223D01*
X96841402Y-104950747D01*
X96861107Y-104936133D01*
X96882151Y-104923520D01*
X96904329Y-104913030D01*
X96927429Y-104904765D01*
X96951227Y-104898804D01*
X96975496Y-104895204D01*
X97000000Y-104894000D01*
X98250000Y-104894000D01*
X98274504Y-104895204D01*
X98274504Y-104895204D01*
G37*
D32*
G04 #@! TD*
G04 #@! TO.P,R42,2*
G04 #@! TO.N,Net-(R42-Pad2)*
X97625000Y-105519000D03*
D31*
G04 #@! TO.N,RST*
G04 #@! TO.C,R44*
G36*
X96627504Y-74041204D02*
X96651773Y-74044804D01*
X96675571Y-74050765D01*
X96698671Y-74059030D01*
X96720849Y-74069520D01*
X96741893Y-74082133D01*
X96761598Y-74096747D01*
X96779777Y-74113223D01*
X96796253Y-74131402D01*
X96810867Y-74151107D01*
X96823480Y-74172151D01*
X96833970Y-74194329D01*
X96842235Y-74217429D01*
X96848196Y-74241227D01*
X96851796Y-74265496D01*
X96853000Y-74290000D01*
X96853000Y-75540000D01*
X96851796Y-75564504D01*
X96848196Y-75588773D01*
X96842235Y-75612571D01*
X96833970Y-75635671D01*
X96823480Y-75657849D01*
X96810867Y-75678893D01*
X96796253Y-75698598D01*
X96779777Y-75716777D01*
X96761598Y-75733253D01*
X96741893Y-75747867D01*
X96720849Y-75760480D01*
X96698671Y-75770970D01*
X96675571Y-75779235D01*
X96651773Y-75785196D01*
X96627504Y-75788796D01*
X96603000Y-75790000D01*
X95853000Y-75790000D01*
X95828496Y-75788796D01*
X95804227Y-75785196D01*
X95780429Y-75779235D01*
X95757329Y-75770970D01*
X95735151Y-75760480D01*
X95714107Y-75747867D01*
X95694402Y-75733253D01*
X95676223Y-75716777D01*
X95659747Y-75698598D01*
X95645133Y-75678893D01*
X95632520Y-75657849D01*
X95622030Y-75635671D01*
X95613765Y-75612571D01*
X95607804Y-75588773D01*
X95604204Y-75564504D01*
X95603000Y-75540000D01*
X95603000Y-74290000D01*
X95604204Y-74265496D01*
X95607804Y-74241227D01*
X95613765Y-74217429D01*
X95622030Y-74194329D01*
X95632520Y-74172151D01*
X95645133Y-74151107D01*
X95659747Y-74131402D01*
X95676223Y-74113223D01*
X95694402Y-74096747D01*
X95714107Y-74082133D01*
X95735151Y-74069520D01*
X95757329Y-74059030D01*
X95780429Y-74050765D01*
X95804227Y-74044804D01*
X95828496Y-74041204D01*
X95853000Y-74040000D01*
X96603000Y-74040000D01*
X96627504Y-74041204D01*
X96627504Y-74041204D01*
G37*
D32*
G04 #@! TD*
G04 #@! TO.P,R44,1*
G04 #@! TO.N,RST*
X96228000Y-74915000D03*
D31*
G04 #@! TO.N,Net-(C31-Pad2)*
G04 #@! TO.C,R44*
G36*
X99427504Y-74041204D02*
X99451773Y-74044804D01*
X99475571Y-74050765D01*
X99498671Y-74059030D01*
X99520849Y-74069520D01*
X99541893Y-74082133D01*
X99561598Y-74096747D01*
X99579777Y-74113223D01*
X99596253Y-74131402D01*
X99610867Y-74151107D01*
X99623480Y-74172151D01*
X99633970Y-74194329D01*
X99642235Y-74217429D01*
X99648196Y-74241227D01*
X99651796Y-74265496D01*
X99653000Y-74290000D01*
X99653000Y-75540000D01*
X99651796Y-75564504D01*
X99648196Y-75588773D01*
X99642235Y-75612571D01*
X99633970Y-75635671D01*
X99623480Y-75657849D01*
X99610867Y-75678893D01*
X99596253Y-75698598D01*
X99579777Y-75716777D01*
X99561598Y-75733253D01*
X99541893Y-75747867D01*
X99520849Y-75760480D01*
X99498671Y-75770970D01*
X99475571Y-75779235D01*
X99451773Y-75785196D01*
X99427504Y-75788796D01*
X99403000Y-75790000D01*
X98653000Y-75790000D01*
X98628496Y-75788796D01*
X98604227Y-75785196D01*
X98580429Y-75779235D01*
X98557329Y-75770970D01*
X98535151Y-75760480D01*
X98514107Y-75747867D01*
X98494402Y-75733253D01*
X98476223Y-75716777D01*
X98459747Y-75698598D01*
X98445133Y-75678893D01*
X98432520Y-75657849D01*
X98422030Y-75635671D01*
X98413765Y-75612571D01*
X98407804Y-75588773D01*
X98404204Y-75564504D01*
X98403000Y-75540000D01*
X98403000Y-74290000D01*
X98404204Y-74265496D01*
X98407804Y-74241227D01*
X98413765Y-74217429D01*
X98422030Y-74194329D01*
X98432520Y-74172151D01*
X98445133Y-74151107D01*
X98459747Y-74131402D01*
X98476223Y-74113223D01*
X98494402Y-74096747D01*
X98514107Y-74082133D01*
X98535151Y-74069520D01*
X98557329Y-74059030D01*
X98580429Y-74050765D01*
X98604227Y-74044804D01*
X98628496Y-74041204D01*
X98653000Y-74040000D01*
X99403000Y-74040000D01*
X99427504Y-74041204D01*
X99427504Y-74041204D01*
G37*
D32*
G04 #@! TD*
G04 #@! TO.P,R44,2*
G04 #@! TO.N,Net-(C31-Pad2)*
X99028000Y-74915000D03*
D31*
G04 #@! TO.N,VPP*
G04 #@! TO.C,R45*
G36*
X112886504Y-72390204D02*
X112910773Y-72393804D01*
X112934571Y-72399765D01*
X112957671Y-72408030D01*
X112979849Y-72418520D01*
X113000893Y-72431133D01*
X113020598Y-72445747D01*
X113038777Y-72462223D01*
X113055253Y-72480402D01*
X113069867Y-72500107D01*
X113082480Y-72521151D01*
X113092970Y-72543329D01*
X113101235Y-72566429D01*
X113107196Y-72590227D01*
X113110796Y-72614496D01*
X113112000Y-72639000D01*
X113112000Y-73889000D01*
X113110796Y-73913504D01*
X113107196Y-73937773D01*
X113101235Y-73961571D01*
X113092970Y-73984671D01*
X113082480Y-74006849D01*
X113069867Y-74027893D01*
X113055253Y-74047598D01*
X113038777Y-74065777D01*
X113020598Y-74082253D01*
X113000893Y-74096867D01*
X112979849Y-74109480D01*
X112957671Y-74119970D01*
X112934571Y-74128235D01*
X112910773Y-74134196D01*
X112886504Y-74137796D01*
X112862000Y-74139000D01*
X112112000Y-74139000D01*
X112087496Y-74137796D01*
X112063227Y-74134196D01*
X112039429Y-74128235D01*
X112016329Y-74119970D01*
X111994151Y-74109480D01*
X111973107Y-74096867D01*
X111953402Y-74082253D01*
X111935223Y-74065777D01*
X111918747Y-74047598D01*
X111904133Y-74027893D01*
X111891520Y-74006849D01*
X111881030Y-73984671D01*
X111872765Y-73961571D01*
X111866804Y-73937773D01*
X111863204Y-73913504D01*
X111862000Y-73889000D01*
X111862000Y-72639000D01*
X111863204Y-72614496D01*
X111866804Y-72590227D01*
X111872765Y-72566429D01*
X111881030Y-72543329D01*
X111891520Y-72521151D01*
X111904133Y-72500107D01*
X111918747Y-72480402D01*
X111935223Y-72462223D01*
X111953402Y-72445747D01*
X111973107Y-72431133D01*
X111994151Y-72418520D01*
X112016329Y-72408030D01*
X112039429Y-72399765D01*
X112063227Y-72393804D01*
X112087496Y-72390204D01*
X112112000Y-72389000D01*
X112862000Y-72389000D01*
X112886504Y-72390204D01*
X112886504Y-72390204D01*
G37*
D32*
G04 #@! TD*
G04 #@! TO.P,R45,2*
G04 #@! TO.N,VPP*
X112487000Y-73264000D03*
D31*
G04 #@! TO.N,RST*
G04 #@! TO.C,R45*
G36*
X110086504Y-72390204D02*
X110110773Y-72393804D01*
X110134571Y-72399765D01*
X110157671Y-72408030D01*
X110179849Y-72418520D01*
X110200893Y-72431133D01*
X110220598Y-72445747D01*
X110238777Y-72462223D01*
X110255253Y-72480402D01*
X110269867Y-72500107D01*
X110282480Y-72521151D01*
X110292970Y-72543329D01*
X110301235Y-72566429D01*
X110307196Y-72590227D01*
X110310796Y-72614496D01*
X110312000Y-72639000D01*
X110312000Y-73889000D01*
X110310796Y-73913504D01*
X110307196Y-73937773D01*
X110301235Y-73961571D01*
X110292970Y-73984671D01*
X110282480Y-74006849D01*
X110269867Y-74027893D01*
X110255253Y-74047598D01*
X110238777Y-74065777D01*
X110220598Y-74082253D01*
X110200893Y-74096867D01*
X110179849Y-74109480D01*
X110157671Y-74119970D01*
X110134571Y-74128235D01*
X110110773Y-74134196D01*
X110086504Y-74137796D01*
X110062000Y-74139000D01*
X109312000Y-74139000D01*
X109287496Y-74137796D01*
X109263227Y-74134196D01*
X109239429Y-74128235D01*
X109216329Y-74119970D01*
X109194151Y-74109480D01*
X109173107Y-74096867D01*
X109153402Y-74082253D01*
X109135223Y-74065777D01*
X109118747Y-74047598D01*
X109104133Y-74027893D01*
X109091520Y-74006849D01*
X109081030Y-73984671D01*
X109072765Y-73961571D01*
X109066804Y-73937773D01*
X109063204Y-73913504D01*
X109062000Y-73889000D01*
X109062000Y-72639000D01*
X109063204Y-72614496D01*
X109066804Y-72590227D01*
X109072765Y-72566429D01*
X109081030Y-72543329D01*
X109091520Y-72521151D01*
X109104133Y-72500107D01*
X109118747Y-72480402D01*
X109135223Y-72462223D01*
X109153402Y-72445747D01*
X109173107Y-72431133D01*
X109194151Y-72418520D01*
X109216329Y-72408030D01*
X109239429Y-72399765D01*
X109263227Y-72393804D01*
X109287496Y-72390204D01*
X109312000Y-72389000D01*
X110062000Y-72389000D01*
X110086504Y-72390204D01*
X110086504Y-72390204D01*
G37*
D32*
G04 #@! TD*
G04 #@! TO.P,R45,1*
G04 #@! TO.N,RST*
X109687000Y-73264000D03*
D37*
G04 #@! TO.P,U3,1*
G04 #@! TO.N,Net-(C21-Pad1)*
X96990000Y-59167000D03*
D38*
G04 #@! TO.P,U3,2*
G04 #@! TO.N,GND*
X96990000Y-61457000D03*
G04 #@! TO.P,U3,3*
G04 #@! TO.N,+5V*
X96990000Y-63747000D03*
G04 #@! TD*
D39*
G04 #@! TO.P,U7,1*
G04 #@! TO.N,Net-(R13-Pad2)*
X89591000Y-107046000D03*
G04 #@! TO.P,U7,2*
G04 #@! TO.N,Net-(R21-Pad2)*
X89591000Y-108316000D03*
G04 #@! TO.P,U7,3*
G04 #@! TO.N,Net-(R16-Pad1)*
X89591000Y-109586000D03*
G04 #@! TO.P,U7,4*
G04 #@! TO.N,GND*
X89591000Y-110856000D03*
G04 #@! TO.P,U7,5*
G04 #@! TO.N,VREF*
X94991000Y-110856000D03*
G04 #@! TO.P,U7,6*
G04 #@! TO.N,Net-(R13-Pad1)*
X94991000Y-109586000D03*
G04 #@! TO.P,U7,7*
G04 #@! TO.N,Net-(C19-Pad2)*
X94991000Y-108316000D03*
G04 #@! TO.P,U7,8*
G04 #@! TO.N,Net-(R42-Pad2)*
X94991000Y-107046000D03*
G04 #@! TD*
D40*
G04 #@! TO.P,U8,1*
G04 #@! TO.N,Net-(D14-Pad2)*
X103934000Y-107341000D03*
G04 #@! TO.P,U8,2*
G04 #@! TO.N,OCC2*
X103934000Y-107991000D03*
G04 #@! TO.P,U8,3*
G04 #@! TO.N,OCC1*
X103934000Y-108641000D03*
G04 #@! TO.P,U8,4*
G04 #@! TO.N,GND*
X103934000Y-109291000D03*
G04 #@! TO.P,U8,5*
G04 #@! TO.N,OCC2*
X108334000Y-109291000D03*
G04 #@! TO.P,U8,6*
G04 #@! TO.N,OCC1*
X108334000Y-108641000D03*
G04 #@! TO.P,U8,7*
G04 #@! TO.N,Net-(D15-Pad2)*
X108334000Y-107991000D03*
G04 #@! TO.P,U8,8*
G04 #@! TO.N,Net-(C23-Pad2)*
X108334000Y-107341000D03*
G04 #@! TD*
D31*
G04 #@! TO.N,Net-(C37-Pad2)*
G04 #@! TO.C,R47*
G36*
X87742691Y-68662053D02*
X87763926Y-68665203D01*
X87784750Y-68670419D01*
X87804962Y-68677651D01*
X87824368Y-68686830D01*
X87842781Y-68697866D01*
X87860024Y-68710654D01*
X87875930Y-68725070D01*
X87890346Y-68740976D01*
X87903134Y-68758219D01*
X87914170Y-68776632D01*
X87923349Y-68796038D01*
X87930581Y-68816250D01*
X87935797Y-68837074D01*
X87938947Y-68858309D01*
X87940000Y-68879750D01*
X87940000Y-69317250D01*
X87938947Y-69338691D01*
X87935797Y-69359926D01*
X87930581Y-69380750D01*
X87923349Y-69400962D01*
X87914170Y-69420368D01*
X87903134Y-69438781D01*
X87890346Y-69456024D01*
X87875930Y-69471930D01*
X87860024Y-69486346D01*
X87842781Y-69499134D01*
X87824368Y-69510170D01*
X87804962Y-69519349D01*
X87784750Y-69526581D01*
X87763926Y-69531797D01*
X87742691Y-69534947D01*
X87721250Y-69536000D01*
X87208750Y-69536000D01*
X87187309Y-69534947D01*
X87166074Y-69531797D01*
X87145250Y-69526581D01*
X87125038Y-69519349D01*
X87105632Y-69510170D01*
X87087219Y-69499134D01*
X87069976Y-69486346D01*
X87054070Y-69471930D01*
X87039654Y-69456024D01*
X87026866Y-69438781D01*
X87015830Y-69420368D01*
X87006651Y-69400962D01*
X86999419Y-69380750D01*
X86994203Y-69359926D01*
X86991053Y-69338691D01*
X86990000Y-69317250D01*
X86990000Y-68879750D01*
X86991053Y-68858309D01*
X86994203Y-68837074D01*
X86999419Y-68816250D01*
X87006651Y-68796038D01*
X87015830Y-68776632D01*
X87026866Y-68758219D01*
X87039654Y-68740976D01*
X87054070Y-68725070D01*
X87069976Y-68710654D01*
X87087219Y-68697866D01*
X87105632Y-68686830D01*
X87125038Y-68677651D01*
X87145250Y-68670419D01*
X87166074Y-68665203D01*
X87187309Y-68662053D01*
X87208750Y-68661000D01*
X87721250Y-68661000D01*
X87742691Y-68662053D01*
X87742691Y-68662053D01*
G37*
D41*
G04 #@! TD*
G04 #@! TO.P,R47,1*
G04 #@! TO.N,Net-(C37-Pad2)*
X87465000Y-69098500D03*
D31*
G04 #@! TO.N,+5V*
G04 #@! TO.C,R47*
G36*
X87742691Y-67087053D02*
X87763926Y-67090203D01*
X87784750Y-67095419D01*
X87804962Y-67102651D01*
X87824368Y-67111830D01*
X87842781Y-67122866D01*
X87860024Y-67135654D01*
X87875930Y-67150070D01*
X87890346Y-67165976D01*
X87903134Y-67183219D01*
X87914170Y-67201632D01*
X87923349Y-67221038D01*
X87930581Y-67241250D01*
X87935797Y-67262074D01*
X87938947Y-67283309D01*
X87940000Y-67304750D01*
X87940000Y-67742250D01*
X87938947Y-67763691D01*
X87935797Y-67784926D01*
X87930581Y-67805750D01*
X87923349Y-67825962D01*
X87914170Y-67845368D01*
X87903134Y-67863781D01*
X87890346Y-67881024D01*
X87875930Y-67896930D01*
X87860024Y-67911346D01*
X87842781Y-67924134D01*
X87824368Y-67935170D01*
X87804962Y-67944349D01*
X87784750Y-67951581D01*
X87763926Y-67956797D01*
X87742691Y-67959947D01*
X87721250Y-67961000D01*
X87208750Y-67961000D01*
X87187309Y-67959947D01*
X87166074Y-67956797D01*
X87145250Y-67951581D01*
X87125038Y-67944349D01*
X87105632Y-67935170D01*
X87087219Y-67924134D01*
X87069976Y-67911346D01*
X87054070Y-67896930D01*
X87039654Y-67881024D01*
X87026866Y-67863781D01*
X87015830Y-67845368D01*
X87006651Y-67825962D01*
X86999419Y-67805750D01*
X86994203Y-67784926D01*
X86991053Y-67763691D01*
X86990000Y-67742250D01*
X86990000Y-67304750D01*
X86991053Y-67283309D01*
X86994203Y-67262074D01*
X86999419Y-67241250D01*
X87006651Y-67221038D01*
X87015830Y-67201632D01*
X87026866Y-67183219D01*
X87039654Y-67165976D01*
X87054070Y-67150070D01*
X87069976Y-67135654D01*
X87087219Y-67122866D01*
X87105632Y-67111830D01*
X87125038Y-67102651D01*
X87145250Y-67095419D01*
X87166074Y-67090203D01*
X87187309Y-67087053D01*
X87208750Y-67086000D01*
X87721250Y-67086000D01*
X87742691Y-67087053D01*
X87742691Y-67087053D01*
G37*
D41*
G04 #@! TD*
G04 #@! TO.P,R47,2*
G04 #@! TO.N,+5V*
X87465000Y-67523500D03*
D42*
G04 #@! TO.P,C21,1*
G04 #@! TO.N,Net-(C21-Pad1)*
X103340000Y-58784000D03*
G04 #@! TO.P,C21,2*
G04 #@! TO.N,GND*
X103340000Y-64884000D03*
G04 #@! TD*
D31*
G04 #@! TO.N,Net-(D1-Pad2)*
G04 #@! TO.C,D1*
G36*
X147024603Y-56735963D02*
X147044018Y-56738843D01*
X147063057Y-56743612D01*
X147081537Y-56750224D01*
X147099279Y-56758616D01*
X147116114Y-56768706D01*
X147131879Y-56780398D01*
X147146421Y-56793579D01*
X147159602Y-56808121D01*
X147171294Y-56823886D01*
X147181384Y-56840721D01*
X147189776Y-56858463D01*
X147196388Y-56876943D01*
X147201157Y-56895982D01*
X147204037Y-56915397D01*
X147205000Y-56935000D01*
X147205000Y-57335000D01*
X147204037Y-57354603D01*
X147201157Y-57374018D01*
X147196388Y-57393057D01*
X147189776Y-57411537D01*
X147181384Y-57429279D01*
X147171294Y-57446114D01*
X147159602Y-57461879D01*
X147146421Y-57476421D01*
X147131879Y-57489602D01*
X147116114Y-57501294D01*
X147099279Y-57511384D01*
X147081537Y-57519776D01*
X147063057Y-57526388D01*
X147044018Y-57531157D01*
X147024603Y-57534037D01*
X147005000Y-57535000D01*
X146605000Y-57535000D01*
X146585397Y-57534037D01*
X146565982Y-57531157D01*
X146546943Y-57526388D01*
X146528463Y-57519776D01*
X146510721Y-57511384D01*
X146493886Y-57501294D01*
X146478121Y-57489602D01*
X146463579Y-57476421D01*
X146450398Y-57461879D01*
X146438706Y-57446114D01*
X146428616Y-57429279D01*
X146420224Y-57411537D01*
X146413612Y-57393057D01*
X146408843Y-57374018D01*
X146405963Y-57354603D01*
X146405000Y-57335000D01*
X146405000Y-56935000D01*
X146405963Y-56915397D01*
X146408843Y-56895982D01*
X146413612Y-56876943D01*
X146420224Y-56858463D01*
X146428616Y-56840721D01*
X146438706Y-56823886D01*
X146450398Y-56808121D01*
X146463579Y-56793579D01*
X146478121Y-56780398D01*
X146493886Y-56768706D01*
X146510721Y-56758616D01*
X146528463Y-56750224D01*
X146546943Y-56743612D01*
X146565982Y-56738843D01*
X146585397Y-56735963D01*
X146605000Y-56735000D01*
X147005000Y-56735000D01*
X147024603Y-56735963D01*
X147024603Y-56735963D01*
G37*
D43*
G04 #@! TD*
G04 #@! TO.P,D1,2*
G04 #@! TO.N,Net-(D1-Pad2)*
X146805000Y-57135000D03*
D31*
G04 #@! TO.N,GND*
G04 #@! TO.C,D1*
G36*
X148674603Y-56735963D02*
X148694018Y-56738843D01*
X148713057Y-56743612D01*
X148731537Y-56750224D01*
X148749279Y-56758616D01*
X148766114Y-56768706D01*
X148781879Y-56780398D01*
X148796421Y-56793579D01*
X148809602Y-56808121D01*
X148821294Y-56823886D01*
X148831384Y-56840721D01*
X148839776Y-56858463D01*
X148846388Y-56876943D01*
X148851157Y-56895982D01*
X148854037Y-56915397D01*
X148855000Y-56935000D01*
X148855000Y-57335000D01*
X148854037Y-57354603D01*
X148851157Y-57374018D01*
X148846388Y-57393057D01*
X148839776Y-57411537D01*
X148831384Y-57429279D01*
X148821294Y-57446114D01*
X148809602Y-57461879D01*
X148796421Y-57476421D01*
X148781879Y-57489602D01*
X148766114Y-57501294D01*
X148749279Y-57511384D01*
X148731537Y-57519776D01*
X148713057Y-57526388D01*
X148694018Y-57531157D01*
X148674603Y-57534037D01*
X148655000Y-57535000D01*
X148255000Y-57535000D01*
X148235397Y-57534037D01*
X148215982Y-57531157D01*
X148196943Y-57526388D01*
X148178463Y-57519776D01*
X148160721Y-57511384D01*
X148143886Y-57501294D01*
X148128121Y-57489602D01*
X148113579Y-57476421D01*
X148100398Y-57461879D01*
X148088706Y-57446114D01*
X148078616Y-57429279D01*
X148070224Y-57411537D01*
X148063612Y-57393057D01*
X148058843Y-57374018D01*
X148055963Y-57354603D01*
X148055000Y-57335000D01*
X148055000Y-56935000D01*
X148055963Y-56915397D01*
X148058843Y-56895982D01*
X148063612Y-56876943D01*
X148070224Y-56858463D01*
X148078616Y-56840721D01*
X148088706Y-56823886D01*
X148100398Y-56808121D01*
X148113579Y-56793579D01*
X148128121Y-56780398D01*
X148143886Y-56768706D01*
X148160721Y-56758616D01*
X148178463Y-56750224D01*
X148196943Y-56743612D01*
X148215982Y-56738843D01*
X148235397Y-56735963D01*
X148255000Y-56735000D01*
X148655000Y-56735000D01*
X148674603Y-56735963D01*
X148674603Y-56735963D01*
G37*
D43*
G04 #@! TD*
G04 #@! TO.P,D1,1*
G04 #@! TO.N,GND*
X148455000Y-57135000D03*
D31*
G04 #@! TO.N,Net-(D2-Pad2)*
G04 #@! TO.C,D2*
G36*
X147024603Y-59275963D02*
X147044018Y-59278843D01*
X147063057Y-59283612D01*
X147081537Y-59290224D01*
X147099279Y-59298616D01*
X147116114Y-59308706D01*
X147131879Y-59320398D01*
X147146421Y-59333579D01*
X147159602Y-59348121D01*
X147171294Y-59363886D01*
X147181384Y-59380721D01*
X147189776Y-59398463D01*
X147196388Y-59416943D01*
X147201157Y-59435982D01*
X147204037Y-59455397D01*
X147205000Y-59475000D01*
X147205000Y-59875000D01*
X147204037Y-59894603D01*
X147201157Y-59914018D01*
X147196388Y-59933057D01*
X147189776Y-59951537D01*
X147181384Y-59969279D01*
X147171294Y-59986114D01*
X147159602Y-60001879D01*
X147146421Y-60016421D01*
X147131879Y-60029602D01*
X147116114Y-60041294D01*
X147099279Y-60051384D01*
X147081537Y-60059776D01*
X147063057Y-60066388D01*
X147044018Y-60071157D01*
X147024603Y-60074037D01*
X147005000Y-60075000D01*
X146605000Y-60075000D01*
X146585397Y-60074037D01*
X146565982Y-60071157D01*
X146546943Y-60066388D01*
X146528463Y-60059776D01*
X146510721Y-60051384D01*
X146493886Y-60041294D01*
X146478121Y-60029602D01*
X146463579Y-60016421D01*
X146450398Y-60001879D01*
X146438706Y-59986114D01*
X146428616Y-59969279D01*
X146420224Y-59951537D01*
X146413612Y-59933057D01*
X146408843Y-59914018D01*
X146405963Y-59894603D01*
X146405000Y-59875000D01*
X146405000Y-59475000D01*
X146405963Y-59455397D01*
X146408843Y-59435982D01*
X146413612Y-59416943D01*
X146420224Y-59398463D01*
X146428616Y-59380721D01*
X146438706Y-59363886D01*
X146450398Y-59348121D01*
X146463579Y-59333579D01*
X146478121Y-59320398D01*
X146493886Y-59308706D01*
X146510721Y-59298616D01*
X146528463Y-59290224D01*
X146546943Y-59283612D01*
X146565982Y-59278843D01*
X146585397Y-59275963D01*
X146605000Y-59275000D01*
X147005000Y-59275000D01*
X147024603Y-59275963D01*
X147024603Y-59275963D01*
G37*
D43*
G04 #@! TD*
G04 #@! TO.P,D2,2*
G04 #@! TO.N,Net-(D2-Pad2)*
X146805000Y-59675000D03*
D31*
G04 #@! TO.N,GND*
G04 #@! TO.C,D2*
G36*
X148674603Y-59275963D02*
X148694018Y-59278843D01*
X148713057Y-59283612D01*
X148731537Y-59290224D01*
X148749279Y-59298616D01*
X148766114Y-59308706D01*
X148781879Y-59320398D01*
X148796421Y-59333579D01*
X148809602Y-59348121D01*
X148821294Y-59363886D01*
X148831384Y-59380721D01*
X148839776Y-59398463D01*
X148846388Y-59416943D01*
X148851157Y-59435982D01*
X148854037Y-59455397D01*
X148855000Y-59475000D01*
X148855000Y-59875000D01*
X148854037Y-59894603D01*
X148851157Y-59914018D01*
X148846388Y-59933057D01*
X148839776Y-59951537D01*
X148831384Y-59969279D01*
X148821294Y-59986114D01*
X148809602Y-60001879D01*
X148796421Y-60016421D01*
X148781879Y-60029602D01*
X148766114Y-60041294D01*
X148749279Y-60051384D01*
X148731537Y-60059776D01*
X148713057Y-60066388D01*
X148694018Y-60071157D01*
X148674603Y-60074037D01*
X148655000Y-60075000D01*
X148255000Y-60075000D01*
X148235397Y-60074037D01*
X148215982Y-60071157D01*
X148196943Y-60066388D01*
X148178463Y-60059776D01*
X148160721Y-60051384D01*
X148143886Y-60041294D01*
X148128121Y-60029602D01*
X148113579Y-60016421D01*
X148100398Y-60001879D01*
X148088706Y-59986114D01*
X148078616Y-59969279D01*
X148070224Y-59951537D01*
X148063612Y-59933057D01*
X148058843Y-59914018D01*
X148055963Y-59894603D01*
X148055000Y-59875000D01*
X148055000Y-59475000D01*
X148055963Y-59455397D01*
X148058843Y-59435982D01*
X148063612Y-59416943D01*
X148070224Y-59398463D01*
X148078616Y-59380721D01*
X148088706Y-59363886D01*
X148100398Y-59348121D01*
X148113579Y-59333579D01*
X148128121Y-59320398D01*
X148143886Y-59308706D01*
X148160721Y-59298616D01*
X148178463Y-59290224D01*
X148196943Y-59283612D01*
X148215982Y-59278843D01*
X148235397Y-59275963D01*
X148255000Y-59275000D01*
X148655000Y-59275000D01*
X148674603Y-59275963D01*
X148674603Y-59275963D01*
G37*
D43*
G04 #@! TD*
G04 #@! TO.P,D2,1*
G04 #@! TO.N,GND*
X148455000Y-59675000D03*
D31*
G04 #@! TO.N,Net-(D3-Pad2)*
G04 #@! TO.C,D3*
G36*
X147004661Y-61815963D02*
X147024076Y-61818843D01*
X147043115Y-61823612D01*
X147061595Y-61830224D01*
X147079337Y-61838616D01*
X147096172Y-61848706D01*
X147111937Y-61860398D01*
X147126479Y-61873579D01*
X147139660Y-61888121D01*
X147151352Y-61903886D01*
X147161442Y-61920721D01*
X147169834Y-61938463D01*
X147176446Y-61956943D01*
X147181215Y-61975982D01*
X147184095Y-61995397D01*
X147185058Y-62015000D01*
X147185058Y-62415000D01*
X147184095Y-62434603D01*
X147181215Y-62454018D01*
X147176446Y-62473057D01*
X147169834Y-62491537D01*
X147161442Y-62509279D01*
X147151352Y-62526114D01*
X147139660Y-62541879D01*
X147126479Y-62556421D01*
X147111937Y-62569602D01*
X147096172Y-62581294D01*
X147079337Y-62591384D01*
X147061595Y-62599776D01*
X147043115Y-62606388D01*
X147024076Y-62611157D01*
X147004661Y-62614037D01*
X146985058Y-62615000D01*
X146585058Y-62615000D01*
X146565455Y-62614037D01*
X146546040Y-62611157D01*
X146527001Y-62606388D01*
X146508521Y-62599776D01*
X146490779Y-62591384D01*
X146473944Y-62581294D01*
X146458179Y-62569602D01*
X146443637Y-62556421D01*
X146430456Y-62541879D01*
X146418764Y-62526114D01*
X146408674Y-62509279D01*
X146400282Y-62491537D01*
X146393670Y-62473057D01*
X146388901Y-62454018D01*
X146386021Y-62434603D01*
X146385058Y-62415000D01*
X146385058Y-62015000D01*
X146386021Y-61995397D01*
X146388901Y-61975982D01*
X146393670Y-61956943D01*
X146400282Y-61938463D01*
X146408674Y-61920721D01*
X146418764Y-61903886D01*
X146430456Y-61888121D01*
X146443637Y-61873579D01*
X146458179Y-61860398D01*
X146473944Y-61848706D01*
X146490779Y-61838616D01*
X146508521Y-61830224D01*
X146527001Y-61823612D01*
X146546040Y-61818843D01*
X146565455Y-61815963D01*
X146585058Y-61815000D01*
X146985058Y-61815000D01*
X147004661Y-61815963D01*
X147004661Y-61815963D01*
G37*
D43*
G04 #@! TD*
G04 #@! TO.P,D3,2*
G04 #@! TO.N,Net-(D3-Pad2)*
X146785058Y-62215000D03*
D31*
G04 #@! TO.N,GND*
G04 #@! TO.C,D3*
G36*
X148654661Y-61815963D02*
X148674076Y-61818843D01*
X148693115Y-61823612D01*
X148711595Y-61830224D01*
X148729337Y-61838616D01*
X148746172Y-61848706D01*
X148761937Y-61860398D01*
X148776479Y-61873579D01*
X148789660Y-61888121D01*
X148801352Y-61903886D01*
X148811442Y-61920721D01*
X148819834Y-61938463D01*
X148826446Y-61956943D01*
X148831215Y-61975982D01*
X148834095Y-61995397D01*
X148835058Y-62015000D01*
X148835058Y-62415000D01*
X148834095Y-62434603D01*
X148831215Y-62454018D01*
X148826446Y-62473057D01*
X148819834Y-62491537D01*
X148811442Y-62509279D01*
X148801352Y-62526114D01*
X148789660Y-62541879D01*
X148776479Y-62556421D01*
X148761937Y-62569602D01*
X148746172Y-62581294D01*
X148729337Y-62591384D01*
X148711595Y-62599776D01*
X148693115Y-62606388D01*
X148674076Y-62611157D01*
X148654661Y-62614037D01*
X148635058Y-62615000D01*
X148235058Y-62615000D01*
X148215455Y-62614037D01*
X148196040Y-62611157D01*
X148177001Y-62606388D01*
X148158521Y-62599776D01*
X148140779Y-62591384D01*
X148123944Y-62581294D01*
X148108179Y-62569602D01*
X148093637Y-62556421D01*
X148080456Y-62541879D01*
X148068764Y-62526114D01*
X148058674Y-62509279D01*
X148050282Y-62491537D01*
X148043670Y-62473057D01*
X148038901Y-62454018D01*
X148036021Y-62434603D01*
X148035058Y-62415000D01*
X148035058Y-62015000D01*
X148036021Y-61995397D01*
X148038901Y-61975982D01*
X148043670Y-61956943D01*
X148050282Y-61938463D01*
X148058674Y-61920721D01*
X148068764Y-61903886D01*
X148080456Y-61888121D01*
X148093637Y-61873579D01*
X148108179Y-61860398D01*
X148123944Y-61848706D01*
X148140779Y-61838616D01*
X148158521Y-61830224D01*
X148177001Y-61823612D01*
X148196040Y-61818843D01*
X148215455Y-61815963D01*
X148235058Y-61815000D01*
X148635058Y-61815000D01*
X148654661Y-61815963D01*
X148654661Y-61815963D01*
G37*
D43*
G04 #@! TD*
G04 #@! TO.P,D3,1*
G04 #@! TO.N,GND*
X148435058Y-62215000D03*
D31*
G04 #@! TO.N,GND*
G04 #@! TO.C,D4*
G36*
X148654661Y-64355963D02*
X148674076Y-64358843D01*
X148693115Y-64363612D01*
X148711595Y-64370224D01*
X148729337Y-64378616D01*
X148746172Y-64388706D01*
X148761937Y-64400398D01*
X148776479Y-64413579D01*
X148789660Y-64428121D01*
X148801352Y-64443886D01*
X148811442Y-64460721D01*
X148819834Y-64478463D01*
X148826446Y-64496943D01*
X148831215Y-64515982D01*
X148834095Y-64535397D01*
X148835058Y-64555000D01*
X148835058Y-64955000D01*
X148834095Y-64974603D01*
X148831215Y-64994018D01*
X148826446Y-65013057D01*
X148819834Y-65031537D01*
X148811442Y-65049279D01*
X148801352Y-65066114D01*
X148789660Y-65081879D01*
X148776479Y-65096421D01*
X148761937Y-65109602D01*
X148746172Y-65121294D01*
X148729337Y-65131384D01*
X148711595Y-65139776D01*
X148693115Y-65146388D01*
X148674076Y-65151157D01*
X148654661Y-65154037D01*
X148635058Y-65155000D01*
X148235058Y-65155000D01*
X148215455Y-65154037D01*
X148196040Y-65151157D01*
X148177001Y-65146388D01*
X148158521Y-65139776D01*
X148140779Y-65131384D01*
X148123944Y-65121294D01*
X148108179Y-65109602D01*
X148093637Y-65096421D01*
X148080456Y-65081879D01*
X148068764Y-65066114D01*
X148058674Y-65049279D01*
X148050282Y-65031537D01*
X148043670Y-65013057D01*
X148038901Y-64994018D01*
X148036021Y-64974603D01*
X148035058Y-64955000D01*
X148035058Y-64555000D01*
X148036021Y-64535397D01*
X148038901Y-64515982D01*
X148043670Y-64496943D01*
X148050282Y-64478463D01*
X148058674Y-64460721D01*
X148068764Y-64443886D01*
X148080456Y-64428121D01*
X148093637Y-64413579D01*
X148108179Y-64400398D01*
X148123944Y-64388706D01*
X148140779Y-64378616D01*
X148158521Y-64370224D01*
X148177001Y-64363612D01*
X148196040Y-64358843D01*
X148215455Y-64355963D01*
X148235058Y-64355000D01*
X148635058Y-64355000D01*
X148654661Y-64355963D01*
X148654661Y-64355963D01*
G37*
D43*
G04 #@! TD*
G04 #@! TO.P,D4,1*
G04 #@! TO.N,GND*
X148435058Y-64755000D03*
D31*
G04 #@! TO.N,Net-(D4-Pad2)*
G04 #@! TO.C,D4*
G36*
X147004661Y-64355963D02*
X147024076Y-64358843D01*
X147043115Y-64363612D01*
X147061595Y-64370224D01*
X147079337Y-64378616D01*
X147096172Y-64388706D01*
X147111937Y-64400398D01*
X147126479Y-64413579D01*
X147139660Y-64428121D01*
X147151352Y-64443886D01*
X147161442Y-64460721D01*
X147169834Y-64478463D01*
X147176446Y-64496943D01*
X147181215Y-64515982D01*
X147184095Y-64535397D01*
X147185058Y-64555000D01*
X147185058Y-64955000D01*
X147184095Y-64974603D01*
X147181215Y-64994018D01*
X147176446Y-65013057D01*
X147169834Y-65031537D01*
X147161442Y-65049279D01*
X147151352Y-65066114D01*
X147139660Y-65081879D01*
X147126479Y-65096421D01*
X147111937Y-65109602D01*
X147096172Y-65121294D01*
X147079337Y-65131384D01*
X147061595Y-65139776D01*
X147043115Y-65146388D01*
X147024076Y-65151157D01*
X147004661Y-65154037D01*
X146985058Y-65155000D01*
X146585058Y-65155000D01*
X146565455Y-65154037D01*
X146546040Y-65151157D01*
X146527001Y-65146388D01*
X146508521Y-65139776D01*
X146490779Y-65131384D01*
X146473944Y-65121294D01*
X146458179Y-65109602D01*
X146443637Y-65096421D01*
X146430456Y-65081879D01*
X146418764Y-65066114D01*
X146408674Y-65049279D01*
X146400282Y-65031537D01*
X146393670Y-65013057D01*
X146388901Y-64994018D01*
X146386021Y-64974603D01*
X146385058Y-64955000D01*
X146385058Y-64555000D01*
X146386021Y-64535397D01*
X146388901Y-64515982D01*
X146393670Y-64496943D01*
X146400282Y-64478463D01*
X146408674Y-64460721D01*
X146418764Y-64443886D01*
X146430456Y-64428121D01*
X146443637Y-64413579D01*
X146458179Y-64400398D01*
X146473944Y-64388706D01*
X146490779Y-64378616D01*
X146508521Y-64370224D01*
X146527001Y-64363612D01*
X146546040Y-64358843D01*
X146565455Y-64355963D01*
X146585058Y-64355000D01*
X146985058Y-64355000D01*
X147004661Y-64355963D01*
X147004661Y-64355963D01*
G37*
D43*
G04 #@! TD*
G04 #@! TO.P,D4,2*
G04 #@! TO.N,Net-(D4-Pad2)*
X146785058Y-64755000D03*
D31*
G04 #@! TO.N,GND*
G04 #@! TO.C,D8*
G36*
X148654661Y-66895963D02*
X148674076Y-66898843D01*
X148693115Y-66903612D01*
X148711595Y-66910224D01*
X148729337Y-66918616D01*
X148746172Y-66928706D01*
X148761937Y-66940398D01*
X148776479Y-66953579D01*
X148789660Y-66968121D01*
X148801352Y-66983886D01*
X148811442Y-67000721D01*
X148819834Y-67018463D01*
X148826446Y-67036943D01*
X148831215Y-67055982D01*
X148834095Y-67075397D01*
X148835058Y-67095000D01*
X148835058Y-67495000D01*
X148834095Y-67514603D01*
X148831215Y-67534018D01*
X148826446Y-67553057D01*
X148819834Y-67571537D01*
X148811442Y-67589279D01*
X148801352Y-67606114D01*
X148789660Y-67621879D01*
X148776479Y-67636421D01*
X148761937Y-67649602D01*
X148746172Y-67661294D01*
X148729337Y-67671384D01*
X148711595Y-67679776D01*
X148693115Y-67686388D01*
X148674076Y-67691157D01*
X148654661Y-67694037D01*
X148635058Y-67695000D01*
X148235058Y-67695000D01*
X148215455Y-67694037D01*
X148196040Y-67691157D01*
X148177001Y-67686388D01*
X148158521Y-67679776D01*
X148140779Y-67671384D01*
X148123944Y-67661294D01*
X148108179Y-67649602D01*
X148093637Y-67636421D01*
X148080456Y-67621879D01*
X148068764Y-67606114D01*
X148058674Y-67589279D01*
X148050282Y-67571537D01*
X148043670Y-67553057D01*
X148038901Y-67534018D01*
X148036021Y-67514603D01*
X148035058Y-67495000D01*
X148035058Y-67095000D01*
X148036021Y-67075397D01*
X148038901Y-67055982D01*
X148043670Y-67036943D01*
X148050282Y-67018463D01*
X148058674Y-67000721D01*
X148068764Y-66983886D01*
X148080456Y-66968121D01*
X148093637Y-66953579D01*
X148108179Y-66940398D01*
X148123944Y-66928706D01*
X148140779Y-66918616D01*
X148158521Y-66910224D01*
X148177001Y-66903612D01*
X148196040Y-66898843D01*
X148215455Y-66895963D01*
X148235058Y-66895000D01*
X148635058Y-66895000D01*
X148654661Y-66895963D01*
X148654661Y-66895963D01*
G37*
D43*
G04 #@! TD*
G04 #@! TO.P,D8,1*
G04 #@! TO.N,GND*
X148435058Y-67295000D03*
D31*
G04 #@! TO.N,Net-(D8-Pad2)*
G04 #@! TO.C,D8*
G36*
X147004661Y-66895963D02*
X147024076Y-66898843D01*
X147043115Y-66903612D01*
X147061595Y-66910224D01*
X147079337Y-66918616D01*
X147096172Y-66928706D01*
X147111937Y-66940398D01*
X147126479Y-66953579D01*
X147139660Y-66968121D01*
X147151352Y-66983886D01*
X147161442Y-67000721D01*
X147169834Y-67018463D01*
X147176446Y-67036943D01*
X147181215Y-67055982D01*
X147184095Y-67075397D01*
X147185058Y-67095000D01*
X147185058Y-67495000D01*
X147184095Y-67514603D01*
X147181215Y-67534018D01*
X147176446Y-67553057D01*
X147169834Y-67571537D01*
X147161442Y-67589279D01*
X147151352Y-67606114D01*
X147139660Y-67621879D01*
X147126479Y-67636421D01*
X147111937Y-67649602D01*
X147096172Y-67661294D01*
X147079337Y-67671384D01*
X147061595Y-67679776D01*
X147043115Y-67686388D01*
X147024076Y-67691157D01*
X147004661Y-67694037D01*
X146985058Y-67695000D01*
X146585058Y-67695000D01*
X146565455Y-67694037D01*
X146546040Y-67691157D01*
X146527001Y-67686388D01*
X146508521Y-67679776D01*
X146490779Y-67671384D01*
X146473944Y-67661294D01*
X146458179Y-67649602D01*
X146443637Y-67636421D01*
X146430456Y-67621879D01*
X146418764Y-67606114D01*
X146408674Y-67589279D01*
X146400282Y-67571537D01*
X146393670Y-67553057D01*
X146388901Y-67534018D01*
X146386021Y-67514603D01*
X146385058Y-67495000D01*
X146385058Y-67095000D01*
X146386021Y-67075397D01*
X146388901Y-67055982D01*
X146393670Y-67036943D01*
X146400282Y-67018463D01*
X146408674Y-67000721D01*
X146418764Y-66983886D01*
X146430456Y-66968121D01*
X146443637Y-66953579D01*
X146458179Y-66940398D01*
X146473944Y-66928706D01*
X146490779Y-66918616D01*
X146508521Y-66910224D01*
X146527001Y-66903612D01*
X146546040Y-66898843D01*
X146565455Y-66895963D01*
X146585058Y-66895000D01*
X146985058Y-66895000D01*
X147004661Y-66895963D01*
X147004661Y-66895963D01*
G37*
D43*
G04 #@! TD*
G04 #@! TO.P,D8,2*
G04 #@! TO.N,Net-(D8-Pad2)*
X146785058Y-67295000D03*
D44*
G04 #@! TO.N,GND*
X137630000Y-72883000D03*
X143980000Y-72883000D03*
X134455000Y-72883000D03*
D45*
X63970000Y-82662000D03*
D44*
X67780000Y-81232000D03*
X94450000Y-69835000D03*
X89641780Y-75897980D03*
X108420000Y-88885000D03*
X113500000Y-88885000D03*
X117945000Y-66787000D03*
X117183002Y-99172000D03*
X108801004Y-101585000D03*
X88481000Y-95743000D03*
X71463000Y-92441000D03*
D45*
X63970000Y-80122000D03*
D44*
X79718000Y-76327011D03*
X82385000Y-93584000D03*
X98580000Y-86329998D03*
X109944000Y-96505000D03*
D46*
X150330000Y-93330000D03*
X141440000Y-93330000D03*
X133185000Y-93330000D03*
X126200000Y-93330000D03*
X126200000Y-109840000D03*
X133185000Y-109840000D03*
X141440000Y-109840000D03*
X150330000Y-109840000D03*
X126200000Y-101585000D03*
X133185000Y-101585000D03*
X141440000Y-101585000D03*
X150330000Y-101585000D03*
D44*
X73487960Y-74534000D03*
X106134000Y-109466000D03*
X78575000Y-81740000D03*
X86576000Y-86218000D03*
X93434000Y-101585000D03*
X91529000Y-109205000D03*
X149695000Y-67295000D03*
X69177000Y-93457000D03*
G04 #@! TO.N,+5V*
X143979994Y-69962006D03*
X140170000Y-69962000D03*
X132931004Y-69962000D03*
D46*
G04 #@! TO.N,PWM2*
X120866000Y-113142000D03*
D44*
G04 #@! TO.N,BMF*
X100165000Y-104633000D03*
X100165000Y-97140000D03*
G04 #@! TO.N,OCC*
X113881000Y-101585000D03*
X99784000Y-83805010D03*
X99784000Y-79995000D03*
X99784006Y-93457000D03*
G04 #@! TO.N,ID*
X80353000Y-73645000D03*
X76543000Y-74534000D03*
X68542000Y-75550000D03*
X93815000Y-76439000D03*
G04 #@! TO.N,RST*
X111087000Y-74915000D03*
X97625000Y-74915000D03*
G04 #@! TO.N,Net-(R8-Pad1)*
X84925000Y-76439000D03*
X68542000Y-76947000D03*
G04 #@! TO.N,TX_ENA*
X91275000Y-93711000D03*
X72225000Y-93711000D03*
G04 #@! TO.N,CSEN*
X120358000Y-92695000D03*
X116040000Y-88885000D03*
D45*
G04 #@! TO.N,Reset_B*
X61811000Y-78344000D03*
D44*
G04 #@! TO.N,SYNC*
X79845000Y-86088970D03*
X79845000Y-80630000D03*
D45*
G04 #@! TO.N,TX_A*
X61811000Y-88758000D03*
D44*
G04 #@! TO.N,TX*
X73495000Y-94092000D03*
X84925022Y-93965000D03*
D45*
G04 #@! TO.N,RX_A*
X61811000Y-86599000D03*
D44*
G04 #@! TO.N,TEMP*
X103721000Y-90155000D03*
X112738000Y-96505000D03*
G04 #@! TO.N,VREF*
X95593000Y-113142000D03*
X92418000Y-87996000D03*
G04 #@! TO.N,Net-(C6-Pad1)*
X119662000Y-68311000D03*
G04 #@! TO.N,Vlm*
X98490522Y-83777298D03*
X108293000Y-75931000D03*
G04 #@! TO.N,THFLG*
X103721000Y-95743000D03*
X98641000Y-90663006D03*
G04 #@! TO.N,Net-(R16-Pad1)*
X87465000Y-109586000D03*
G04 #@! TO.N,Net-(R21-Pad2)*
X87465000Y-108316000D03*
G04 #@! TO.N,Net-(R43-Pad2)*
X93815000Y-88885000D03*
G04 #@! TO.N,Net-(R46-Pad2)*
X93817521Y-85072479D03*
G04 #@! TD*
D47*
G04 #@! TO.N,Net-(C1-Pad2)*
X73096675Y-84092000D02*
X70320000Y-84092000D01*
X70320000Y-84092000D02*
X67780000Y-84092000D01*
X74496675Y-84092000D02*
X73096675Y-84092000D01*
X74892000Y-83696675D02*
X74496675Y-84092000D01*
X74892000Y-79614000D02*
X74892000Y-83696675D01*
X74130000Y-78852000D02*
X74892000Y-79614000D01*
X73020000Y-78852000D02*
X74130000Y-78852000D01*
G04 #@! TO.N,GND*
X110957479Y-90315000D02*
X110960000Y-90312479D01*
X108420000Y-90315000D02*
X110957479Y-90315000D01*
X113497479Y-90312479D02*
X113500000Y-90315000D01*
X143980000Y-72883000D02*
X143980000Y-71420000D01*
X137630000Y-72883000D02*
X137630000Y-71420000D01*
X134455000Y-72883000D02*
X134455000Y-71420000D01*
X63970000Y-84092000D02*
X63970000Y-82662000D01*
X63970000Y-78692000D02*
X65240000Y-78692000D01*
X66510000Y-78692000D02*
X65240000Y-78692000D01*
X73096675Y-81232000D02*
X70320000Y-81232000D01*
X70320000Y-81232000D02*
X67780000Y-81232000D01*
X66510000Y-80630000D02*
X66510000Y-78692000D01*
X67112000Y-81232000D02*
X66510000Y-80630000D01*
X67780000Y-81232000D02*
X67112000Y-81232000D01*
X76035000Y-78692000D02*
X77305000Y-78692000D01*
X78575000Y-78692000D02*
X77305000Y-78692000D01*
X92705000Y-70470000D02*
X93815000Y-70470000D01*
X93815000Y-70470000D02*
X94450000Y-69835000D01*
X94450000Y-69835000D02*
X96195000Y-69835000D01*
X89607000Y-75075000D02*
X89640000Y-75042000D01*
X87465000Y-75075000D02*
X89607000Y-75075000D01*
X89640000Y-74595000D02*
X89640000Y-75042000D01*
X89640000Y-75042000D02*
X89641780Y-75043780D01*
X89641780Y-75473716D02*
X89641780Y-75897980D01*
X89641780Y-75043780D02*
X89641780Y-75473716D01*
X118420000Y-103490000D02*
X118420000Y-100950000D01*
X108420000Y-90315000D02*
X108420000Y-88885000D01*
X105500000Y-88882479D02*
X108417479Y-88882479D01*
X108417479Y-88882479D02*
X108420000Y-88885000D01*
X113500000Y-90315000D02*
X113500000Y-88885000D01*
X115405000Y-69360000D02*
X115405000Y-68250000D01*
X114770000Y-69995000D02*
X115405000Y-69360000D01*
X112865000Y-69995000D02*
X114770000Y-69995000D01*
X117945000Y-68250000D02*
X115405000Y-68250000D01*
X117945000Y-66787000D02*
X117945000Y-68250000D01*
X117818000Y-99172000D02*
X117183002Y-99172000D01*
X118420000Y-100950000D02*
X118420000Y-99774000D01*
X118420000Y-99774000D02*
X117818000Y-99172000D01*
X95974000Y-100155000D02*
X93434000Y-100155000D01*
X90894000Y-100155000D02*
X93434000Y-100155000D01*
X106261000Y-100155000D02*
X108801000Y-100155000D01*
X111341000Y-100155000D02*
X108801000Y-100155000D01*
X64605000Y-93490000D02*
X67145000Y-93490000D01*
X76035000Y-93490000D02*
X78575000Y-93490000D01*
X84925000Y-96030000D02*
X83655000Y-96030000D01*
X82385000Y-96030000D02*
X83655000Y-96030000D01*
X108801000Y-101584996D02*
X108801004Y-101585000D01*
X108801000Y-100155000D02*
X108801000Y-101584996D01*
X87051000Y-95743000D02*
X88481000Y-95743000D01*
X72733000Y-92441000D02*
X71463000Y-92441000D01*
X73495000Y-90630000D02*
X73495000Y-91679000D01*
X73495000Y-91679000D02*
X72733000Y-92441000D01*
X63970000Y-78692000D02*
X63970000Y-80122000D01*
X79860011Y-76185000D02*
X79718000Y-76327011D01*
X81148000Y-76185000D02*
X79860011Y-76185000D01*
X82385000Y-96030000D02*
X82385000Y-93584000D01*
X83782000Y-93584000D02*
X82385000Y-93584000D01*
X84925000Y-90630000D02*
X84925000Y-92441000D01*
X84925000Y-92441000D02*
X83782000Y-93584000D01*
X82291000Y-93490000D02*
X82385000Y-93584000D01*
X78575000Y-93490000D02*
X82291000Y-93490000D01*
X98567519Y-86342479D02*
X98580000Y-86329998D01*
X96100000Y-86342479D02*
X98567519Y-86342479D01*
X108514000Y-96505000D02*
X109944000Y-96505000D01*
X71938000Y-74534000D02*
X73487960Y-74534000D01*
D48*
X103934000Y-109291000D02*
X105959000Y-109291000D01*
X105959000Y-109291000D02*
X106134000Y-109466000D01*
D47*
X82385000Y-81740000D02*
X84925000Y-81740000D01*
X78575000Y-79967000D02*
X78575000Y-78692000D01*
X82385000Y-81740000D02*
X78575000Y-81740000D01*
X78575000Y-81740000D02*
X78575000Y-79967000D01*
X76830000Y-81740000D02*
X78575000Y-81740000D01*
X76035000Y-84092000D02*
X76035000Y-82535000D01*
X76035000Y-82535000D02*
X76830000Y-81740000D01*
X88224000Y-88777000D02*
X88116000Y-88885000D01*
X88224000Y-85710000D02*
X88224000Y-88777000D01*
X88194000Y-80630000D02*
X88194000Y-83170000D01*
X88194000Y-85680000D02*
X88224000Y-85710000D01*
X88194000Y-83170000D02*
X88194000Y-85680000D01*
X88224000Y-85710000D02*
X87084000Y-85710000D01*
X87084000Y-85710000D02*
X86576000Y-86218000D01*
X93434000Y-100155000D02*
X93434000Y-101585000D01*
X91529000Y-109840000D02*
X91529000Y-109205000D01*
X89591000Y-110856000D02*
X90513000Y-110856000D01*
X90513000Y-110856000D02*
X91529000Y-109840000D01*
D49*
X101468000Y-64788000D02*
X102959000Y-64788000D01*
X96990000Y-61457000D02*
X98137000Y-61457000D01*
X98137000Y-61457000D02*
X101468000Y-64788000D01*
X90640000Y-59962000D02*
X93180000Y-59962000D01*
X90640000Y-62690000D02*
X93180000Y-62690000D01*
X96990000Y-61457000D02*
X93184000Y-61457000D01*
X93180000Y-61453000D02*
X93180000Y-59962000D01*
X93184000Y-61457000D02*
X93180000Y-61453000D01*
X93180000Y-61453000D02*
X93180000Y-62690000D01*
D47*
X96195000Y-72375000D02*
X96195000Y-69835000D01*
X149695000Y-66587894D02*
X149695000Y-67295000D01*
X149060000Y-57135000D02*
X149695000Y-57770000D01*
X148955000Y-59675000D02*
X149695000Y-59675000D01*
X148455000Y-59675000D02*
X148955000Y-59675000D01*
X149695000Y-57770000D02*
X149695000Y-59675000D01*
X148435058Y-62215000D02*
X149695000Y-62215000D01*
X149695000Y-59675000D02*
X149695000Y-62215000D01*
X148435058Y-64755000D02*
X149695000Y-64755000D01*
X149695000Y-62215000D02*
X149695000Y-64755000D01*
X149695000Y-64755000D02*
X149695000Y-66587894D01*
X148435058Y-67295000D02*
X149695000Y-67295000D01*
X148455000Y-57135000D02*
X149060000Y-57135000D01*
X67145000Y-93490000D02*
X69144000Y-93490000D01*
X69144000Y-93490000D02*
X69177000Y-93457000D01*
G04 #@! TO.N,Net-(C2-Pad2)*
X85085000Y-78852000D02*
X85085000Y-79142000D01*
X84925000Y-84600000D02*
X82385000Y-84600000D01*
X81877000Y-84092000D02*
X82385000Y-84600000D01*
X79845000Y-84092000D02*
X81877000Y-84092000D01*
X86162000Y-84600000D02*
X84925000Y-84600000D01*
X86576000Y-84186000D02*
X86162000Y-84600000D01*
X86576000Y-79868000D02*
X86576000Y-84186000D01*
X85085000Y-79487000D02*
X86195000Y-79487000D01*
X86195000Y-79487000D02*
X86576000Y-79868000D01*
D49*
G04 #@! TO.N,+5V*
X70160000Y-72850000D02*
X70066000Y-72756000D01*
X70160000Y-78852000D02*
X70160000Y-72850000D01*
X70066000Y-72756000D02*
X66670000Y-72756000D01*
X88354000Y-100061000D02*
X88354000Y-100155000D01*
D47*
X140805000Y-70597000D02*
X140170000Y-69962000D01*
X140805000Y-71420000D02*
X140805000Y-70597000D01*
X103881000Y-72535000D02*
X103975000Y-72629000D01*
X101435000Y-72535000D02*
X103881000Y-72535000D01*
D49*
X103975000Y-74280000D02*
X103975000Y-72629000D01*
D47*
X132042000Y-69962000D02*
X132931004Y-69962000D01*
X131407000Y-70597000D02*
X132042000Y-69962000D01*
X131280000Y-71420000D02*
X131407000Y-71293000D01*
X131407000Y-71293000D02*
X131407000Y-70597000D01*
D49*
X88113988Y-99914988D02*
X88354000Y-100155000D01*
X103020000Y-74280000D02*
X103975000Y-74280000D01*
X102365000Y-74935000D02*
X103020000Y-74280000D01*
X102365000Y-98410000D02*
X102365000Y-74935000D01*
X103975000Y-72629000D02*
X103975000Y-67828400D01*
X103975000Y-67828400D02*
X107607200Y-67828400D01*
D47*
X107625000Y-67846200D02*
X107607200Y-67828400D01*
X107625000Y-69835000D02*
X107625000Y-67846200D01*
D49*
X103721000Y-98545000D02*
X103721000Y-100155000D01*
X103586000Y-98410000D02*
X103721000Y-98545000D01*
X102365000Y-98410000D02*
X103586000Y-98410000D01*
X67305000Y-97046000D02*
X67305000Y-95870000D01*
X68669000Y-98410000D02*
X67305000Y-97046000D01*
X78735020Y-97770020D02*
X78735020Y-98410000D01*
X78735000Y-97770000D02*
X78735020Y-97770020D01*
X78735000Y-95870000D02*
X78735000Y-97770000D01*
X78735020Y-98410000D02*
X68669000Y-98410000D01*
X88354000Y-100155000D02*
X88354000Y-98410000D01*
X102365000Y-98410000D02*
X88354000Y-98410000D01*
X88354000Y-98410000D02*
X78735020Y-98410000D01*
D47*
X105756000Y-98410000D02*
X103586000Y-98410000D01*
X114770000Y-98410000D02*
X105756000Y-98410000D01*
X116675000Y-100315000D02*
X114770000Y-98410000D01*
X116675000Y-105395000D02*
X116675000Y-100315000D01*
X118420000Y-106030000D02*
X117310000Y-106030000D01*
X117310000Y-106030000D02*
X116675000Y-105395000D01*
D49*
X83020000Y-78692000D02*
X82225000Y-79487000D01*
X81750000Y-73645000D02*
X83020000Y-74915000D01*
X83020000Y-74915000D02*
X83020000Y-77328000D01*
X83020000Y-77328000D02*
X83020000Y-78692000D01*
D47*
X86576000Y-78090000D02*
X88194000Y-78090000D01*
X86068000Y-77582000D02*
X86576000Y-78090000D01*
X83020000Y-77328000D02*
X83274000Y-77582000D01*
X83274000Y-77582000D02*
X86068000Y-77582000D01*
D49*
X95306000Y-65550000D02*
X93180000Y-65550000D01*
X96990000Y-63747000D02*
X96990000Y-63866000D01*
X96990000Y-63866000D02*
X95306000Y-65550000D01*
X93180000Y-65550000D02*
X90640000Y-65550000D01*
X90640000Y-67160000D02*
X90640000Y-67828400D01*
X90640000Y-65550000D02*
X90640000Y-67160000D01*
X90640000Y-67828400D02*
X103975000Y-67828400D01*
X90640000Y-67828400D02*
X89522400Y-67828400D01*
X89522400Y-67828400D02*
X88100000Y-66406000D01*
X81750000Y-70470000D02*
X81750000Y-73645000D01*
X81750000Y-64882000D02*
X81750000Y-70470000D01*
X88100000Y-66406000D02*
X86576000Y-64882000D01*
X86576000Y-64882000D02*
X81750000Y-64882000D01*
X75781000Y-64882000D02*
X81750000Y-64882000D01*
X70160000Y-72850000D02*
X70160000Y-70503000D01*
X70160000Y-70503000D02*
X75781000Y-64882000D01*
D47*
X87973000Y-66279000D02*
X88100000Y-66406000D01*
X87465000Y-67523500D02*
X87465000Y-66787000D01*
X87465000Y-66787000D02*
X87973000Y-66279000D01*
X134963000Y-51575000D02*
X134963000Y-50912000D01*
X134963000Y-53325000D02*
X134963000Y-51575000D01*
X144687100Y-69962006D02*
X143979994Y-69962006D01*
X149195998Y-69962006D02*
X144687100Y-69962006D01*
X150899002Y-68259002D02*
X149195998Y-69962006D01*
X150899002Y-55926002D02*
X150899002Y-68259002D01*
X134963000Y-50912000D02*
X145885000Y-50912000D01*
X145885000Y-50912000D02*
X150899002Y-55926002D01*
X111468000Y-53452000D02*
X111468000Y-60310000D01*
X134963000Y-50912000D02*
X114008000Y-50912000D01*
X114008000Y-50912000D02*
X111468000Y-53452000D01*
D49*
X111468000Y-64003200D02*
X111468000Y-60310000D01*
X107625000Y-67846200D02*
X111468000Y-64003200D01*
D47*
G04 #@! TO.N,Net-(C11-Pad2)*
X64605000Y-90630000D02*
X67145000Y-90630000D01*
X67145000Y-90630000D02*
X69685000Y-90630000D01*
X63205000Y-90630000D02*
X62700000Y-91135000D01*
X64605000Y-90630000D02*
X63205000Y-90630000D01*
X62700000Y-91135000D02*
X62700000Y-95362000D01*
X62700000Y-95362000D02*
X63208000Y-95870000D01*
X63208000Y-95870000D02*
X64445000Y-95870000D01*
X69685000Y-91905000D02*
X69685000Y-90630000D01*
X69685000Y-92187000D02*
X69685000Y-91905000D01*
X70955000Y-96030000D02*
X70955000Y-93457000D01*
X70955000Y-93457000D02*
X69685000Y-92187000D01*
G04 #@! TO.N,Net-(C12-Pad2)*
X76035000Y-90630000D02*
X78575000Y-90630000D01*
X78575000Y-90630000D02*
X81115000Y-90630000D01*
X75745000Y-90630000D02*
X76035000Y-90630000D01*
X74445002Y-91929998D02*
X75745000Y-90630000D01*
X74445002Y-95169002D02*
X74445002Y-91929998D01*
X75875000Y-95870000D02*
X75146000Y-95870000D01*
X75146000Y-95870000D02*
X74445002Y-95169002D01*
D50*
G04 #@! TO.N,OCC1*
X144120000Y-80600000D02*
X144120000Y-97816030D01*
X144120000Y-97816030D02*
X144107000Y-97829030D01*
X116289000Y-117455000D02*
X114667000Y-117455000D01*
X144107000Y-97829030D02*
X144107000Y-113523000D01*
X144107000Y-113523000D02*
X140170000Y-117460000D01*
X116294000Y-117460000D02*
X116289000Y-117455000D01*
X114667000Y-117455000D02*
X112587000Y-117455000D01*
X118326000Y-117460000D02*
X116294000Y-117460000D01*
X140170000Y-117460000D02*
X118326000Y-117460000D01*
D48*
X108334000Y-108641000D02*
X103934000Y-108641000D01*
X113119000Y-109586000D02*
X114011000Y-109586000D01*
X109309000Y-108641000D02*
X109634000Y-108316000D01*
X108334000Y-108641000D02*
X109309000Y-108641000D01*
X112230000Y-108316000D02*
X112865000Y-108951000D01*
X109634000Y-108316000D02*
X112230000Y-108316000D01*
X112865000Y-108951000D02*
X112865000Y-109332000D01*
X112865000Y-109332000D02*
X113119000Y-109586000D01*
D47*
X118326000Y-111618000D02*
X118326000Y-117460000D01*
X114011000Y-109586000D02*
X116294000Y-109586000D01*
X116294000Y-109586000D02*
X118326000Y-111618000D01*
D50*
X108928000Y-115809000D02*
X106261000Y-115809000D01*
X112587000Y-117455000D02*
X110574000Y-117455000D01*
X110574000Y-117455000D02*
X108928000Y-115809000D01*
G04 #@! TO.N,PWM2*
X130520000Y-97285002D02*
X130518000Y-97287002D01*
X130520000Y-80600000D02*
X130520000Y-97285002D01*
X130520000Y-97285002D02*
X130520000Y-110600000D01*
X127978000Y-113142000D02*
X120866000Y-113142000D01*
X130520000Y-110600000D02*
X127978000Y-113142000D01*
D47*
G04 #@! TO.N,Net-(C19-Pad2)*
X88354000Y-103015000D02*
X90894000Y-103015000D01*
X90894000Y-103015000D02*
X93434000Y-103015000D01*
X97622000Y-108316000D02*
X97625000Y-108319000D01*
X94991000Y-108316000D02*
X97622000Y-108316000D01*
X93716000Y-108316000D02*
X94991000Y-108316000D01*
X93434000Y-108034000D02*
X93716000Y-108316000D01*
X93434000Y-103015000D02*
X93434000Y-108034000D01*
G04 #@! TO.N,BMF*
X98514000Y-103015000D02*
X95974000Y-103015000D01*
X99149000Y-104633000D02*
X100165000Y-104633000D01*
X98514000Y-103015000D02*
X98514000Y-103998000D01*
X98514000Y-103998000D02*
X99149000Y-104633000D01*
X100861002Y-93000998D02*
X100861002Y-96443998D01*
X100791999Y-82411999D02*
X100791999Y-92931995D01*
X99642479Y-81262479D02*
X100791999Y-82411999D01*
X100861002Y-96443998D02*
X100664999Y-96640001D01*
X100664999Y-96640001D02*
X100165000Y-97140000D01*
X96100000Y-81262479D02*
X99642479Y-81262479D01*
X100791999Y-92931995D02*
X100861002Y-93000998D01*
G04 #@! TO.N,Net-(C23-Pad2)*
X103721000Y-103015000D02*
X106261000Y-103015000D01*
X106261000Y-103015000D02*
X108801000Y-103015000D01*
D48*
X109111000Y-103325000D02*
X108801000Y-103015000D01*
X108334000Y-106866000D02*
X108334000Y-107341000D01*
X108334000Y-104342000D02*
X108334000Y-106866000D01*
X108801000Y-103875000D02*
X108334000Y-104342000D01*
X108801000Y-103015000D02*
X108801000Y-103875000D01*
D47*
G04 #@! TO.N,Net-(C26-Pad2)*
X108262521Y-87612479D02*
X108420000Y-87455000D01*
X105500000Y-87612479D02*
X108262521Y-87612479D01*
X110957479Y-87455000D02*
X110960000Y-87452479D01*
X108420000Y-87455000D02*
X110957479Y-87455000D01*
X106835000Y-74570000D02*
X105220000Y-76185000D01*
X106835000Y-74280000D02*
X106835000Y-74570000D01*
X105220000Y-76185000D02*
X103975000Y-76185000D01*
X104242479Y-87612479D02*
X105500000Y-87612479D01*
X103975000Y-76185000D02*
X103580000Y-76580000D01*
X103580000Y-76580000D02*
X103580000Y-86950000D01*
X103580000Y-86950000D02*
X104242479Y-87612479D01*
G04 #@! TO.N,OCC*
X113881000Y-101585000D02*
X113881000Y-103015000D01*
X113881000Y-103015000D02*
X111341000Y-103015000D01*
X99781479Y-79992479D02*
X99784000Y-79995000D01*
X96100000Y-79992479D02*
X99781479Y-79992479D01*
X99784000Y-93456994D02*
X99784006Y-93457000D01*
X99784000Y-83805010D02*
X99784000Y-93456994D01*
G04 #@! TO.N,CSEN_FLT*
X113500000Y-87455000D02*
X116040000Y-87455000D01*
X113500000Y-86345000D02*
X113500000Y-87455000D01*
X113119000Y-85964000D02*
X113500000Y-86345000D01*
X107378479Y-85964000D02*
X113119000Y-85964000D01*
X105500000Y-86342479D02*
X107000000Y-86342479D01*
X107000000Y-86342479D02*
X107378479Y-85964000D01*
G04 #@! TO.N,ID_R*
X63810000Y-72756000D02*
X63810000Y-75550000D01*
X59800000Y-77770000D02*
X60099000Y-77770000D01*
X62319000Y-75550000D02*
X63810000Y-75550000D01*
X60099000Y-77770000D02*
X62319000Y-75550000D01*
G04 #@! TO.N,Net-(C31-Pad2)*
X99215000Y-69675000D02*
X99055000Y-69835000D01*
X101435000Y-69675000D02*
X99215000Y-69675000D01*
X99055000Y-69835000D02*
X99055000Y-72375000D01*
X99055000Y-74888000D02*
X99028000Y-74915000D01*
X99055000Y-72375000D02*
X99055000Y-74888000D01*
G04 #@! TO.N,Net-(D1-Pad2)*
X143980000Y-57135000D02*
X146805000Y-57135000D01*
G04 #@! TO.N,Net-(D2-Pad2)*
X146805000Y-59675000D02*
X143980000Y-59675000D01*
G04 #@! TO.N,Net-(D3-Pad2)*
X143980000Y-62215000D02*
X146785058Y-62215000D01*
G04 #@! TO.N,Net-(D4-Pad2)*
X146785058Y-64755000D02*
X143877815Y-64755000D01*
G04 #@! TO.N,ID*
X78890000Y-73645000D02*
X80353000Y-73645000D01*
X74798000Y-74534000D02*
X76543000Y-74534000D01*
X66670000Y-75550000D02*
X68542000Y-75550000D01*
X76543000Y-75423000D02*
X76543000Y-74534000D01*
X78288000Y-76185000D02*
X77305000Y-76185000D01*
X77305000Y-76185000D02*
X76543000Y-75423000D01*
X76543000Y-74026000D02*
X76543000Y-74534000D01*
X78890000Y-73645000D02*
X76924000Y-73645000D01*
X76924000Y-73645000D02*
X76543000Y-74026000D01*
X93815000Y-78217000D02*
X93815000Y-76439000D01*
X96100000Y-78722479D02*
X94320479Y-78722479D01*
X94320479Y-78722479D02*
X93815000Y-78217000D01*
G04 #@! TO.N,RST*
X91640000Y-73645000D02*
X92799000Y-73645000D01*
X92799000Y-73645000D02*
X94069000Y-74915000D01*
X94069000Y-74915000D02*
X96228000Y-74915000D01*
X96100000Y-75043000D02*
X96228000Y-74915000D01*
X96100000Y-77452479D02*
X96100000Y-75043000D01*
X97625000Y-74915000D02*
X96228000Y-74915000D01*
X110071000Y-73264000D02*
X109687000Y-73264000D01*
X110706000Y-73264000D02*
X110071000Y-73264000D01*
X111087000Y-74915000D02*
X111087000Y-73645000D01*
X111087000Y-73645000D02*
X110706000Y-73264000D01*
D48*
G04 #@! TO.N,OCC2*
X108334000Y-110307000D02*
X108293000Y-110348000D01*
X108334000Y-109291000D02*
X108334000Y-110307000D01*
X109309000Y-110348000D02*
X110071000Y-109586000D01*
X110071000Y-109586000D02*
X111211000Y-109586000D01*
X108293000Y-110348000D02*
X109309000Y-110348000D01*
X102324000Y-109967000D02*
X102705000Y-110348000D01*
X102324000Y-108443000D02*
X102324000Y-109967000D01*
X102776000Y-107991000D02*
X102324000Y-108443000D01*
X103934000Y-107991000D02*
X102776000Y-107991000D01*
X102705000Y-110348000D02*
X108293000Y-110348000D01*
D47*
X112865000Y-113650000D02*
X113627000Y-113650000D01*
X112611000Y-113396000D02*
X112865000Y-113650000D01*
X112611000Y-110221000D02*
X112611000Y-113396000D01*
X111211000Y-109586000D02*
X111976000Y-109586000D01*
X111976000Y-109586000D02*
X112611000Y-110221000D01*
D50*
X109060000Y-112004000D02*
X110579000Y-113523000D01*
X113500000Y-113523000D02*
X113627000Y-113650000D01*
X110579000Y-113523000D02*
X113500000Y-113523000D01*
X84544000Y-114843800D02*
X86880800Y-114843800D01*
X86880800Y-114843800D02*
X89116000Y-117079000D01*
X89116000Y-117079000D02*
X99911000Y-117079000D01*
X99911000Y-117079000D02*
X100927000Y-116063000D01*
X100927000Y-116063000D02*
X100927000Y-113015000D01*
X100927000Y-113015000D02*
X101938000Y-112004000D01*
X109060000Y-112004000D02*
X106793000Y-112004000D01*
X106793000Y-112004000D02*
X104713000Y-112004000D01*
X104713000Y-112004000D02*
X101938000Y-112004000D01*
G04 #@! TO.N,PWMO2*
X59800000Y-94390000D02*
X59800000Y-95190000D01*
X64544000Y-99934000D02*
X64544000Y-102343800D01*
X59800000Y-95190000D02*
X64544000Y-99934000D01*
G04 #@! TO.N,PWMO1*
X55493800Y-114843800D02*
X64544000Y-114843800D01*
X51900000Y-111250000D02*
X55493800Y-114843800D01*
X51900000Y-94986000D02*
X51900000Y-111250000D01*
X56960000Y-93005000D02*
X53881000Y-93005000D01*
X53881000Y-93005000D02*
X51900000Y-94986000D01*
D47*
G04 #@! TO.N,ICSPDAT*
X105500000Y-77452479D02*
X114111486Y-77452479D01*
X124291980Y-67271985D02*
X124291980Y-60186020D01*
X124291980Y-60186020D02*
X127553021Y-56924979D01*
X127553021Y-56924979D02*
X136843021Y-56924979D01*
X114111486Y-77452479D02*
X124291980Y-67271985D01*
X140043000Y-53725000D02*
X140043000Y-53325000D01*
X136843021Y-56924979D02*
X140043000Y-53725000D01*
G04 #@! TO.N,ICSPCLK*
X137230989Y-58151000D02*
X140024989Y-55357000D01*
X124991991Y-60883009D02*
X127724000Y-58151000D01*
X113831451Y-78722479D02*
X124991991Y-67561939D01*
X124991991Y-67561939D02*
X124991991Y-60883009D01*
X140024989Y-55357000D02*
X140951000Y-55357000D01*
X127724000Y-58151000D02*
X137230989Y-58151000D01*
X105500000Y-78722479D02*
X113831451Y-78722479D01*
X142583000Y-53725000D02*
X142583000Y-53325000D01*
X140951000Y-55357000D02*
X142583000Y-53725000D01*
G04 #@! TO.N,BRK*
X140805000Y-80515000D02*
X140720000Y-80600000D01*
X140805000Y-74280000D02*
X140805000Y-80515000D01*
X139219998Y-72984998D02*
X140515000Y-74280000D01*
X117422490Y-92692479D02*
X118834000Y-91280969D01*
X140515000Y-74280000D02*
X140805000Y-74280000D01*
X105500000Y-92692479D02*
X117422490Y-92692479D01*
X118834000Y-91280969D02*
X118834000Y-80649683D01*
X118834000Y-80649683D02*
X131553683Y-67930000D01*
X131553683Y-67930000D02*
X137503000Y-67930000D01*
X139219998Y-69646998D02*
X139219998Y-72984998D01*
X137503000Y-67930000D02*
X139219998Y-69646998D01*
G04 #@! TO.N,PWM*
X137340000Y-74280000D02*
X137630000Y-74280000D01*
X136106000Y-73046000D02*
X137340000Y-74280000D01*
X135155999Y-68884999D02*
X136106000Y-69835000D01*
X131588648Y-68884999D02*
X135155999Y-68884999D01*
X107000000Y-93962479D02*
X107569989Y-93392490D01*
X105500000Y-93962479D02*
X107000000Y-93962479D01*
X107569989Y-93392490D02*
X118009510Y-93392490D01*
X118009510Y-93392490D02*
X119596000Y-91806000D01*
X119596000Y-91806000D02*
X119596000Y-80877647D01*
X136106000Y-69835000D02*
X136106000Y-73046000D01*
X119596000Y-80877647D02*
X131588648Y-68884999D01*
X139020000Y-76432000D02*
X139020000Y-78060000D01*
X137630000Y-74280000D02*
X137630000Y-75042000D01*
X137630000Y-75042000D02*
X139020000Y-76432000D01*
G04 #@! TO.N,DIR*
X142456000Y-73046000D02*
X143690000Y-74280000D01*
X142456000Y-69581000D02*
X142456000Y-73046000D01*
X141821000Y-68946000D02*
X142456000Y-69581000D01*
X139916000Y-68946000D02*
X141821000Y-68946000D01*
X137884000Y-66914000D02*
X139916000Y-68946000D01*
X131579719Y-66914000D02*
X137884000Y-66914000D01*
X107000000Y-91422479D02*
X107510521Y-91933000D01*
X105500000Y-91422479D02*
X107000000Y-91422479D01*
X107510521Y-91933000D02*
X116929000Y-91933000D01*
X143690000Y-74280000D02*
X143980000Y-74280000D01*
X116929000Y-91933000D02*
X118072000Y-90790000D01*
X118072000Y-90790000D02*
X118072000Y-80421719D01*
X118072000Y-80421719D02*
X131579719Y-66914000D01*
X142420000Y-76475000D02*
X142420000Y-78060000D01*
X143980000Y-74280000D02*
X143980000Y-74915000D01*
X143980000Y-74915000D02*
X142420000Y-76475000D01*
G04 #@! TO.N,Net-(R8-Pad1)*
X84925000Y-75075000D02*
X84925000Y-76439000D01*
X68250000Y-76947000D02*
X68542000Y-76947000D01*
X67780000Y-78692000D02*
X67780000Y-77417000D01*
X67780000Y-77417000D02*
X68250000Y-76947000D01*
G04 #@! TO.N,Net-(R13-Pad1)*
X96896000Y-109586000D02*
X97625000Y-110315000D01*
X94991000Y-109586000D02*
X96896000Y-109586000D01*
X99182000Y-110315000D02*
X97625000Y-110315000D01*
X101115001Y-108381999D02*
X99182000Y-110315000D01*
X101115001Y-101356001D02*
X101115001Y-108381999D01*
X98514000Y-100155000D02*
X99914000Y-100155000D01*
X99914000Y-100155000D02*
X101115001Y-101356001D01*
X93721000Y-111869000D02*
X93721000Y-113269000D01*
X93307000Y-111455000D02*
X93721000Y-111869000D01*
X93307000Y-110094000D02*
X93307000Y-111455000D01*
X94991000Y-109586000D02*
X93815000Y-109586000D01*
X93815000Y-109586000D02*
X93307000Y-110094000D01*
G04 #@! TO.N,Net-(R13-Pad2)*
X90861000Y-111869000D02*
X90861000Y-113269000D01*
X92479001Y-110250999D02*
X90861000Y-111869000D01*
X92479001Y-108659001D02*
X92479001Y-110250999D01*
X90866000Y-107046000D02*
X92479001Y-108659001D01*
X89591000Y-107046000D02*
X90866000Y-107046000D01*
G04 #@! TO.N,TX_ENA*
X90640000Y-93711000D02*
X91275000Y-93711000D01*
X89911000Y-95743000D02*
X89911000Y-94440000D01*
X89911000Y-94440000D02*
X90640000Y-93711000D01*
X96097479Y-92695000D02*
X96100000Y-92692479D01*
X94958000Y-92695000D02*
X96097479Y-92695000D01*
X89911000Y-95743000D02*
X91910000Y-95743000D01*
X91910000Y-95743000D02*
X94958000Y-92695000D01*
X72225000Y-96030000D02*
X72225000Y-93711000D01*
G04 #@! TO.N,CSEN*
X116040000Y-90315000D02*
X116040000Y-88885000D01*
X120358000Y-92060000D02*
X120358000Y-92695000D01*
X120358000Y-81105611D02*
X120358000Y-92060000D01*
X128293611Y-73170000D02*
X120358000Y-81105611D01*
X133055000Y-73170000D02*
X128293611Y-73170000D01*
X134455000Y-74280000D02*
X134165000Y-74280000D01*
X134165000Y-74280000D02*
X133055000Y-73170000D01*
X133920000Y-76085000D02*
X133920000Y-80600000D01*
X134455000Y-74280000D02*
X134455000Y-75550000D01*
X134455000Y-75550000D02*
X133920000Y-76085000D01*
G04 #@! TO.N,Net-(R26-Pad1)*
X133995895Y-59548000D02*
X137503000Y-59548000D01*
X140010000Y-57135000D02*
X141120000Y-57135000D01*
X139916000Y-57135000D02*
X140010000Y-57135000D01*
X113551416Y-79992479D02*
X133995895Y-59548000D01*
X105500000Y-79992479D02*
X113551416Y-79992479D01*
X137503000Y-59548000D02*
X139916000Y-57135000D01*
G04 #@! TO.N,Net-(R27-Pad1)*
X113271381Y-81262479D02*
X133715860Y-60818000D01*
X140010000Y-59675000D02*
X141120000Y-59675000D01*
X138519000Y-60818000D02*
X139662000Y-59675000D01*
X105500000Y-81262479D02*
X113271381Y-81262479D01*
X139662000Y-59675000D02*
X140010000Y-59675000D01*
X133715860Y-60818000D02*
X138519000Y-60818000D01*
G04 #@! TO.N,Net-(R28-Pad1)*
X105500000Y-82532479D02*
X112991346Y-82532479D01*
X112991346Y-82532479D02*
X133308825Y-62215000D01*
X140010000Y-62215000D02*
X141120000Y-62215000D01*
X133308825Y-62215000D02*
X140010000Y-62215000D01*
G04 #@! TO.N,Reset_A*
X63299047Y-81711012D02*
X60743035Y-79155000D01*
X58460000Y-79155000D02*
X56960000Y-79155000D01*
X65240000Y-84092000D02*
X65240000Y-82817000D01*
X60743035Y-79155000D02*
X58460000Y-79155000D01*
X65240000Y-82817000D02*
X64134012Y-81711012D01*
X64134012Y-81711012D02*
X63299047Y-81711012D01*
G04 #@! TO.N,Reset_B*
X61811000Y-79233000D02*
X61811000Y-78768264D01*
X64705966Y-81011001D02*
X63589001Y-81011001D01*
X66510000Y-82815035D02*
X64705966Y-81011001D01*
X66510000Y-84092000D02*
X66510000Y-82815035D01*
X61811000Y-78768264D02*
X61811000Y-78344000D01*
X63589001Y-81011001D02*
X61811000Y-79233000D01*
G04 #@! TO.N,SYNC*
X79845000Y-78692000D02*
X79845000Y-80630000D01*
X84414970Y-86088970D02*
X86322000Y-87996000D01*
X79845000Y-86088970D02*
X84414970Y-86088970D01*
X86322000Y-87996000D02*
X86322000Y-90790000D01*
X94960521Y-90152479D02*
X96100000Y-90152479D01*
X86322000Y-90790000D02*
X86957000Y-91425000D01*
X86957000Y-91425000D02*
X93688000Y-91425000D01*
X93688000Y-91425000D02*
X94960521Y-90152479D01*
G04 #@! TO.N,Sync_A*
X77305000Y-84092000D02*
X77305000Y-84567000D01*
X62446000Y-83424000D02*
X62446000Y-84766036D01*
X62446000Y-84766036D02*
X63259943Y-85579979D01*
X60947000Y-81925000D02*
X62446000Y-83424000D01*
X56960000Y-81925000D02*
X60947000Y-81925000D01*
X63259943Y-85579979D02*
X76546021Y-85579979D01*
X76546021Y-85579979D02*
X77305000Y-84821000D01*
G04 #@! TO.N,Sync_B*
X76895010Y-86279990D02*
X78575000Y-84600000D01*
X62888990Y-86279990D02*
X76895010Y-86279990D01*
X59800000Y-83310000D02*
X59919000Y-83310000D01*
X59919000Y-83310000D02*
X62888990Y-86279990D01*
G04 #@! TO.N,TX_B*
X60000000Y-88850000D02*
X59800000Y-88850000D01*
X70955000Y-89647000D02*
X70447000Y-89139000D01*
X70955000Y-90630000D02*
X70955000Y-89647000D01*
X70447000Y-89139000D02*
X63208000Y-89139000D01*
X63208000Y-89139000D02*
X62573000Y-89774000D01*
X62573000Y-89774000D02*
X60924000Y-89774000D01*
X60924000Y-89774000D02*
X60000000Y-88850000D01*
G04 #@! TO.N,TX_A*
X72225000Y-90630000D02*
X72225000Y-89635037D01*
X72225000Y-89635037D02*
X71028953Y-88438990D01*
X71028953Y-88438990D02*
X62130010Y-88438990D01*
X62130010Y-88438990D02*
X61811000Y-88758000D01*
G04 #@! TO.N,TX*
X73495000Y-96251000D02*
X73495000Y-94799106D01*
X73495000Y-94799106D02*
X73495000Y-94092000D01*
X85425021Y-93465001D02*
X84925022Y-93965000D01*
X86568021Y-92322001D02*
X85425021Y-93465001D01*
X94060999Y-92322001D02*
X86568021Y-92322001D01*
X96100000Y-91422479D02*
X94960521Y-91422479D01*
X94960521Y-91422479D02*
X94060999Y-92322001D01*
G04 #@! TO.N,RX_B*
X59800000Y-86112000D02*
X59800000Y-86080000D01*
X61426980Y-87738980D02*
X59800000Y-86112000D01*
X80768980Y-87738980D02*
X61426980Y-87738980D01*
X82385000Y-90630000D02*
X82385000Y-89355000D01*
X82385000Y-89355000D02*
X80768980Y-87738980D01*
G04 #@! TO.N,RX_A*
X81338970Y-87038970D02*
X63774970Y-87038970D01*
X83655000Y-89355000D02*
X81338970Y-87038970D01*
X83655000Y-90630000D02*
X83655000Y-89355000D01*
X63774970Y-87038970D02*
X62250970Y-87038970D01*
X62250970Y-87038970D02*
X61811000Y-86599000D01*
G04 #@! TO.N,RX*
X96100000Y-95998000D02*
X96100000Y-93962479D01*
X94704000Y-97394000D02*
X96100000Y-95998000D01*
X81496000Y-97394000D02*
X94704000Y-97394000D01*
X81115000Y-96030000D02*
X81115000Y-97013000D01*
X81115000Y-97013000D02*
X81496000Y-97394000D01*
G04 #@! TO.N,Net-(C32-Pad2)*
X91054000Y-78090000D02*
X91054000Y-80630000D01*
X91054000Y-80630000D02*
X91054000Y-83170000D01*
X90259000Y-83170000D02*
X91054000Y-83170000D01*
X90066000Y-89835000D02*
X89116000Y-88885000D01*
X89116000Y-88885000D02*
X89116000Y-87234000D01*
X89116000Y-87234000D02*
X89624000Y-86726000D01*
X90116000Y-89835000D02*
X90066000Y-89835000D01*
X89624000Y-86726000D02*
X89624000Y-83805000D01*
X89624000Y-83805000D02*
X90259000Y-83170000D01*
G04 #@! TO.N,Net-(D8-Pad2)*
X143877815Y-67295000D02*
X146785058Y-67295000D01*
G04 #@! TO.N,Net-(R29-Pad1)*
X139907815Y-67295000D02*
X141017815Y-67295000D01*
X138510815Y-65898000D02*
X139907815Y-67295000D01*
X131605755Y-65898000D02*
X138510815Y-65898000D01*
X105500000Y-85072479D02*
X112431276Y-85072479D01*
X112431276Y-85072479D02*
X131605755Y-65898000D01*
G04 #@! TO.N,Net-(R35-Pad2)*
X112711311Y-83802479D02*
X131758790Y-64755000D01*
X139907815Y-64755000D02*
X141017815Y-64755000D01*
X105500000Y-83802479D02*
X112711311Y-83802479D01*
X131758790Y-64755000D02*
X139907815Y-64755000D01*
D49*
G04 #@! TO.N,Vbus_flt*
X87145000Y-52690000D02*
X84605000Y-55230000D01*
X88448000Y-52690000D02*
X87145000Y-52690000D01*
D47*
G04 #@! TO.N,Net-(C34-Pad2)*
X121280000Y-106030000D02*
X121280000Y-103490000D01*
X121280000Y-100950000D02*
X121280000Y-103490000D01*
X121120000Y-100790000D02*
X121280000Y-100950000D01*
X121120000Y-97775000D02*
X121120000Y-100790000D01*
G04 #@! TO.N,TEMP*
X105497479Y-90155000D02*
X105500000Y-90152479D01*
X103721000Y-90155000D02*
X105497479Y-90155000D01*
X111374000Y-96505000D02*
X112738000Y-96505000D01*
X114102000Y-96505000D02*
X112738000Y-96505000D01*
G04 #@! TO.N,Net-(R37-Pad1)*
X116962000Y-96505000D02*
X119850000Y-96505000D01*
G04 #@! TO.N,VREF*
X97592000Y-113142000D02*
X97625000Y-113175000D01*
X95593000Y-113142000D02*
X97592000Y-113142000D01*
X95593000Y-112126000D02*
X95593000Y-113142000D01*
X94991000Y-110856000D02*
X94991000Y-111524000D01*
X94991000Y-111524000D02*
X95593000Y-112126000D01*
X90116000Y-87935000D02*
X92357000Y-87935000D01*
X92357000Y-87935000D02*
X92418000Y-87996000D01*
X92418000Y-87288894D02*
X92418000Y-87996000D01*
X91024000Y-85710000D02*
X92418000Y-85710000D01*
X92418000Y-85710000D02*
X92418000Y-87288894D01*
X92418000Y-83551000D02*
X92418000Y-85710000D01*
X96100000Y-82532479D02*
X93436521Y-82532479D01*
X93436521Y-82532479D02*
X92418000Y-83551000D01*
G04 #@! TO.N,Net-(C6-Pad1)*
X119662000Y-60630000D02*
X119662000Y-68311000D01*
X117945000Y-60150000D02*
X119182000Y-60150000D01*
X119182000Y-60150000D02*
X119662000Y-60630000D01*
G04 #@! TO.N,Vlm*
X117945000Y-63010000D02*
X117945000Y-65390000D01*
X117945000Y-65390000D02*
X115405000Y-65390000D01*
X112865000Y-66025000D02*
X112865000Y-67135000D01*
X113500000Y-65390000D02*
X112865000Y-66025000D01*
X115405000Y-65390000D02*
X113500000Y-65390000D01*
X110485000Y-68435000D02*
X110485000Y-69835000D01*
X110706000Y-68214000D02*
X110485000Y-68435000D01*
X110706000Y-68184000D02*
X110706000Y-68214000D01*
X112865000Y-67135000D02*
X111755000Y-67135000D01*
X111755000Y-67135000D02*
X110706000Y-68184000D01*
X96100000Y-83802479D02*
X98465341Y-83802479D01*
X98465341Y-83802479D02*
X98490522Y-83777298D01*
X110485000Y-70125000D02*
X108293000Y-72317000D01*
X110485000Y-69835000D02*
X110485000Y-70125000D01*
X108293000Y-75223894D02*
X108293000Y-75931000D01*
X108293000Y-72317000D02*
X108293000Y-75223894D01*
D50*
G04 #@! TO.N,Net-(FL2-Pad1)*
X51905000Y-76740000D02*
X51905000Y-57135000D01*
X53810000Y-55230000D02*
X64605000Y-55230000D01*
X51905000Y-57135000D02*
X53810000Y-55230000D01*
X52260000Y-76385000D02*
X51905000Y-76740000D01*
X56960000Y-76385000D02*
X52260000Y-76385000D01*
X55260000Y-90235000D02*
X56960000Y-90235000D01*
X53890000Y-90235000D02*
X55260000Y-90235000D01*
X51905000Y-76740000D02*
X51905000Y-88250000D01*
X51905000Y-88250000D02*
X53890000Y-90235000D01*
D47*
G04 #@! TO.N,Net-(C37-Pad2)*
X84925000Y-72215000D02*
X87465000Y-72215000D01*
X89640000Y-70675000D02*
X89845000Y-70470000D01*
X89607000Y-72215000D02*
X89640000Y-72248000D01*
X87465000Y-72215000D02*
X89607000Y-72215000D01*
X89640000Y-72695000D02*
X89640000Y-72248000D01*
X89640000Y-72248000D02*
X89640000Y-70675000D01*
X87465000Y-69835000D02*
X87465000Y-69098500D01*
X89845000Y-70470000D02*
X88100000Y-70470000D01*
X88100000Y-70470000D02*
X87465000Y-69835000D01*
G04 #@! TO.N,THFLG*
X132169000Y-78009000D02*
X132220000Y-78060000D01*
X132169000Y-76058000D02*
X132169000Y-78009000D01*
X131280000Y-74280000D02*
X131280000Y-75169000D01*
X131280000Y-75169000D02*
X132169000Y-76058000D01*
X128173573Y-74280000D02*
X131280000Y-74280000D01*
X121058010Y-91109010D02*
X121058010Y-81395563D01*
X106209442Y-95743000D02*
X107859942Y-94092500D01*
X103721000Y-95743000D02*
X106209442Y-95743000D01*
X107859942Y-94092500D02*
X120484500Y-94092500D01*
X120484500Y-94092500D02*
X121628000Y-92949000D01*
X121058010Y-81395563D02*
X128173573Y-74280000D01*
X121628000Y-92949000D02*
X121628000Y-91679000D01*
X121628000Y-91679000D02*
X121058010Y-91109010D01*
X98641000Y-89955900D02*
X98641000Y-90663006D01*
X98641000Y-88377000D02*
X98641000Y-89955900D01*
X96100000Y-87612479D02*
X97876479Y-87612479D01*
X97876479Y-87612479D02*
X98641000Y-88377000D01*
D49*
G04 #@! TO.N,Net-(C21-Pad1)*
X102959000Y-55357000D02*
X104610000Y-53706000D01*
X102959000Y-59388000D02*
X102959000Y-55357000D01*
X102738000Y-59167000D02*
X102959000Y-59388000D01*
X96990000Y-59167000D02*
X102738000Y-59167000D01*
X96990000Y-59167000D02*
X96990000Y-57770000D01*
X96322000Y-57102000D02*
X93180000Y-57102000D01*
X96990000Y-57770000D02*
X96322000Y-57102000D01*
X93180000Y-57102000D02*
X90640000Y-57102000D01*
D48*
G04 #@! TO.N,Net-(D14-Pad2)*
X106766000Y-106414000D02*
X106766000Y-105268000D01*
X103934000Y-107341000D02*
X105839000Y-107341000D01*
X105839000Y-107341000D02*
X106766000Y-106414000D01*
G04 #@! TO.N,Net-(D14-Pad1)*
X110291000Y-105268000D02*
X109566000Y-105268000D01*
X115024000Y-105941000D02*
X115024000Y-105268000D01*
X115027000Y-105944000D02*
X115024000Y-105941000D01*
X115027000Y-106919000D02*
X115027000Y-105944000D01*
X115024000Y-105268000D02*
X110291000Y-105268000D01*
X115405000Y-105268000D02*
X115024000Y-105268000D01*
X115659000Y-105014000D02*
X115405000Y-105268000D01*
X115659000Y-100442000D02*
X115659000Y-105014000D01*
X113881000Y-100155000D02*
X115372000Y-100155000D01*
X115372000Y-100155000D02*
X115659000Y-100442000D01*
G04 #@! TO.N,Net-(D15-Pad2)*
X111502000Y-106919000D02*
X112227000Y-106919000D01*
X110394590Y-106919000D02*
X111502000Y-106919000D01*
X109322590Y-107991000D02*
X110394590Y-106919000D01*
X108334000Y-107991000D02*
X109322590Y-107991000D01*
D47*
G04 #@! TO.N,VPP*
X112490000Y-73772000D02*
X112487000Y-73769000D01*
X129502000Y-53325000D02*
X120612000Y-62215000D01*
X116802000Y-73772000D02*
X112490000Y-73772000D01*
X120612000Y-69962000D02*
X116802000Y-73772000D01*
X120612000Y-62215000D02*
X120612000Y-69962000D01*
X132423000Y-53325000D02*
X129502000Y-53325000D01*
X112487000Y-73769000D02*
X112487000Y-73772000D01*
D49*
G04 #@! TO.N,Net-(R3-Pad1)*
X91308000Y-52690000D02*
X94290000Y-52690000D01*
D48*
G04 #@! TO.N,Net-(R16-Pad1)*
X89591000Y-109586000D02*
X87465000Y-109586000D01*
G04 #@! TO.N,Net-(R21-Pad2)*
X89591000Y-108316000D02*
X87465000Y-108316000D01*
D47*
G04 #@! TO.N,Net-(R42-Pad2)*
X95718000Y-105519000D02*
X97625000Y-105519000D01*
X94991000Y-107046000D02*
X94991000Y-106246000D01*
X94991000Y-106246000D02*
X95718000Y-105519000D01*
G04 #@! TO.N,Net-(R43-Pad2)*
X93817521Y-88882479D02*
X93815000Y-88885000D01*
X96100000Y-88882479D02*
X93817521Y-88882479D01*
G04 #@! TO.N,Net-(R46-Pad2)*
X96100000Y-85072479D02*
X93817521Y-85072479D01*
D49*
G04 #@! TO.N,Net-(D7-Pad1)*
X100781000Y-52690000D02*
X100805000Y-52666000D01*
X97150000Y-52690000D02*
X100781000Y-52690000D01*
X100805000Y-54746000D02*
X100805000Y-52666000D01*
G04 #@! TD*
D51*
G04 #@! TO.N,GND*
G36*
X154293601Y-118816908D02*
X153820509Y-119290000D01*
X122898000Y-119290000D01*
X122898000Y-119095000D01*
X140008970Y-119095000D01*
X140170000Y-119127031D01*
X140331030Y-119095000D01*
X140331031Y-119095000D01*
X140807945Y-119000136D01*
X141348769Y-118638769D01*
X141439988Y-118502250D01*
X145149253Y-114792986D01*
X145285769Y-114701769D01*
X145647136Y-114160945D01*
X145742000Y-113684031D01*
X145742000Y-113684030D01*
X145774031Y-113523000D01*
X145742000Y-113361970D01*
X145742000Y-98042416D01*
X145755000Y-97977061D01*
X145787031Y-97816030D01*
X145755000Y-97654999D01*
X145755000Y-84694000D01*
X154293600Y-84694000D01*
X154293601Y-118816908D01*
X154293601Y-118816908D01*
G37*
X154293601Y-118816908D02*
X153820509Y-119290000D01*
X122898000Y-119290000D01*
X122898000Y-119095000D01*
X140008970Y-119095000D01*
X140170000Y-119127031D01*
X140331030Y-119095000D01*
X140331031Y-119095000D01*
X140807945Y-119000136D01*
X141348769Y-118638769D01*
X141439988Y-118502250D01*
X145149253Y-114792986D01*
X145285769Y-114701769D01*
X145647136Y-114160945D01*
X145742000Y-113684031D01*
X145742000Y-113684030D01*
X145774031Y-113523000D01*
X145742000Y-113361970D01*
X145742000Y-98042416D01*
X145755000Y-97977061D01*
X145787031Y-97816030D01*
X145755000Y-97654999D01*
X145755000Y-84694000D01*
X154293600Y-84694000D01*
X154293601Y-118816908D01*
G36*
X142485001Y-97602640D02*
X142439969Y-97829030D01*
X142472000Y-97990060D01*
X142472001Y-112845760D01*
X139492762Y-115825000D01*
X122898000Y-115825000D01*
X122898000Y-114777000D01*
X127816970Y-114777000D01*
X127978000Y-114809031D01*
X128139030Y-114777000D01*
X128139031Y-114777000D01*
X128615945Y-114682136D01*
X129156769Y-114320769D01*
X129247988Y-114184250D01*
X131562253Y-111869986D01*
X131698769Y-111778769D01*
X132060136Y-111237945D01*
X132155000Y-110761031D01*
X132155000Y-110761030D01*
X132187031Y-110600000D01*
X132155000Y-110438970D01*
X132155000Y-97446029D01*
X132187030Y-97285003D01*
X132155000Y-97123977D01*
X132155000Y-96504730D01*
X132982013Y-96504730D01*
X132982013Y-98229300D01*
X133641977Y-99822595D01*
X134861433Y-101042051D01*
X136454728Y-101702015D01*
X138179298Y-101702015D01*
X139772593Y-101042051D01*
X140992049Y-99822595D01*
X141652013Y-98229300D01*
X141652013Y-96504730D01*
X140992049Y-94911435D01*
X139772593Y-93691979D01*
X138179298Y-93032015D01*
X136454728Y-93032015D01*
X134861433Y-93691979D01*
X133641977Y-94911435D01*
X132982013Y-96504730D01*
X132155000Y-96504730D01*
X132155000Y-84694000D01*
X142485000Y-84694000D01*
X142485001Y-97602640D01*
X142485001Y-97602640D01*
G37*
X142485001Y-97602640D02*
X142439969Y-97829030D01*
X142472000Y-97990060D01*
X142472001Y-112845760D01*
X139492762Y-115825000D01*
X122898000Y-115825000D01*
X122898000Y-114777000D01*
X127816970Y-114777000D01*
X127978000Y-114809031D01*
X128139030Y-114777000D01*
X128139031Y-114777000D01*
X128615945Y-114682136D01*
X129156769Y-114320769D01*
X129247988Y-114184250D01*
X131562253Y-111869986D01*
X131698769Y-111778769D01*
X132060136Y-111237945D01*
X132155000Y-110761031D01*
X132155000Y-110761030D01*
X132187031Y-110600000D01*
X132155000Y-110438970D01*
X132155000Y-97446029D01*
X132187030Y-97285003D01*
X132155000Y-97123977D01*
X132155000Y-96504730D01*
X132982013Y-96504730D01*
X132982013Y-98229300D01*
X133641977Y-99822595D01*
X134861433Y-101042051D01*
X136454728Y-101702015D01*
X138179298Y-101702015D01*
X139772593Y-101042051D01*
X140992049Y-99822595D01*
X141652013Y-98229300D01*
X141652013Y-96504730D01*
X140992049Y-94911435D01*
X139772593Y-93691979D01*
X138179298Y-93032015D01*
X136454728Y-93032015D01*
X134861433Y-93691979D01*
X133641977Y-94911435D01*
X132982013Y-96504730D01*
X132155000Y-96504730D01*
X132155000Y-84694000D01*
X142485000Y-84694000D01*
X142485001Y-97602640D01*
G36*
X128885001Y-97115913D02*
X128850969Y-97287002D01*
X128885000Y-97458086D01*
X128885001Y-109922760D01*
X127300762Y-111507000D01*
X122898000Y-111507000D01*
X122898000Y-84694000D01*
X128885000Y-84694000D01*
X128885001Y-97115913D01*
X128885001Y-97115913D01*
G37*
X128885001Y-97115913D02*
X128850969Y-97287002D01*
X128885000Y-97458086D01*
X128885001Y-109922760D01*
X127300762Y-111507000D01*
X122898000Y-111507000D01*
X122898000Y-84694000D01*
X128885000Y-84694000D01*
X128885001Y-97115913D01*
G04 #@! TD*
M02*
