G04 #@! TF.GenerationSoftware,KiCad,Pcbnew,(5.0.0)*
G04 #@! TF.CreationDate,2018-12-13T19:23:32+01:00*
G04 #@! TF.ProjectId,Modelwagonlight,4D6F64656C7761676F6E6C696768742E,rev?*
G04 #@! TF.SameCoordinates,Original*
G04 #@! TF.FileFunction,Soldermask,Bot*
G04 #@! TF.FilePolarity,Negative*
%FSLAX46Y46*%
G04 Gerber Fmt 4.6, Leading zero omitted, Abs format (unit mm)*
G04 Created by KiCad (PCBNEW (5.0.0)) date 12/13/18 19:23:32*
%MOMM*%
%LPD*%
G01*
G04 APERTURE LIST*
%ADD10C,0.150000*%
G04 APERTURE END LIST*
D10*
G04 #@! TO.C,J4*
G36*
X200700000Y-118600000D02*
X205500000Y-118600000D01*
X205500000Y-120400000D01*
X200700000Y-120400000D01*
X200700000Y-118600000D01*
G37*
X200700000Y-118600000D02*
X205500000Y-118600000D01*
X205500000Y-120400000D01*
X200700000Y-120400000D01*
X200700000Y-118600000D01*
G04 #@! TO.C,J3*
G36*
X199300000Y-111450000D02*
X199300000Y-116250000D01*
X197500000Y-116250000D01*
X197500000Y-111450000D01*
X199300000Y-111450000D01*
G37*
X199300000Y-111450000D02*
X199300000Y-116250000D01*
X197500000Y-116250000D01*
X197500000Y-111450000D01*
X199300000Y-111450000D01*
G04 #@! TO.C,J1*
G36*
X190450000Y-117450000D02*
X195250000Y-117450000D01*
X195250000Y-119250000D01*
X190450000Y-119250000D01*
X190450000Y-117450000D01*
G37*
X190450000Y-117450000D02*
X195250000Y-117450000D01*
X195250000Y-119250000D01*
X190450000Y-119250000D01*
X190450000Y-117450000D01*
G04 #@! TO.C,J2*
G36*
X195250000Y-114950000D02*
X190450000Y-114950000D01*
X190450000Y-116750000D01*
X195250000Y-116750000D01*
X195250000Y-114950000D01*
G37*
X195250000Y-114950000D02*
X190450000Y-114950000D01*
X190450000Y-116750000D01*
X195250000Y-116750000D01*
X195250000Y-114950000D01*
G04 #@! TD*
M02*
