G04 #@! TF.GenerationSoftware,KiCad,Pcbnew,(5.0.0)*
G04 #@! TF.CreationDate,2018-12-13T19:23:32+01:00*
G04 #@! TF.ProjectId,Modelwagonlight,4D6F64656C7761676F6E6C696768742E,rev?*
G04 #@! TF.SameCoordinates,Original*
G04 #@! TF.FileFunction,Legend,Bot*
G04 #@! TF.FilePolarity,Positive*
%FSLAX46Y46*%
G04 Gerber Fmt 4.6, Leading zero omitted, Abs format (unit mm)*
G04 Created by KiCad (PCBNEW (5.0.0)) date 12/13/18 19:23:32*
%MOMM*%
%LPD*%
G01*
G04 APERTURE LIST*
%ADD10C,0.153000*%
%ADD11C,0.250000*%
%ADD12C,0.300000*%
%ADD13C,0.150000*%
G04 APERTURE END LIST*
D10*
X198932571Y-119230857D02*
X198532571Y-120430857D01*
X198132571Y-119230857D01*
X197789714Y-119345142D02*
X197732571Y-119288000D01*
X197618285Y-119230857D01*
X197332571Y-119230857D01*
X197218285Y-119288000D01*
X197161142Y-119345142D01*
X197104000Y-119459428D01*
X197104000Y-119573714D01*
X197161142Y-119745142D01*
X197846857Y-120430857D01*
X197104000Y-120430857D01*
X196589714Y-120316571D02*
X196532571Y-120373714D01*
X196589714Y-120430857D01*
X196646857Y-120373714D01*
X196589714Y-120316571D01*
X196589714Y-120430857D01*
X195789714Y-119230857D02*
X195675428Y-119230857D01*
X195561142Y-119288000D01*
X195504000Y-119345142D01*
X195446857Y-119459428D01*
X195389714Y-119688000D01*
X195389714Y-119973714D01*
X195446857Y-120202285D01*
X195504000Y-120316571D01*
X195561142Y-120373714D01*
X195675428Y-120430857D01*
X195789714Y-120430857D01*
X195904000Y-120373714D01*
X195961142Y-120316571D01*
X196018285Y-120202285D01*
X196075428Y-119973714D01*
X196075428Y-119688000D01*
X196018285Y-119459428D01*
X195961142Y-119345142D01*
X195904000Y-119288000D01*
X195789714Y-119230857D01*
X205542857Y-111492857D02*
X205257142Y-112692857D01*
X205028571Y-111835714D01*
X204800000Y-112692857D01*
X204514285Y-111492857D01*
X203885714Y-112692857D02*
X204000000Y-112635714D01*
X204057142Y-112521428D01*
X204057142Y-111492857D01*
X203428571Y-112692857D02*
X203428571Y-111892857D01*
X203428571Y-111492857D02*
X203485714Y-111550000D01*
X203428571Y-111607142D01*
X203371428Y-111550000D01*
X203428571Y-111492857D01*
X203428571Y-111607142D01*
X202342857Y-111892857D02*
X202342857Y-112864285D01*
X202400000Y-112978571D01*
X202457142Y-113035714D01*
X202571428Y-113092857D01*
X202742857Y-113092857D01*
X202857142Y-113035714D01*
X202342857Y-112635714D02*
X202457142Y-112692857D01*
X202685714Y-112692857D01*
X202800000Y-112635714D01*
X202857142Y-112578571D01*
X202914285Y-112464285D01*
X202914285Y-112121428D01*
X202857142Y-112007142D01*
X202800000Y-111950000D01*
X202685714Y-111892857D01*
X202457142Y-111892857D01*
X202342857Y-111950000D01*
X201771428Y-112692857D02*
X201771428Y-111492857D01*
X201257142Y-112692857D02*
X201257142Y-112064285D01*
X201314285Y-111950000D01*
X201428571Y-111892857D01*
X201600000Y-111892857D01*
X201714285Y-111950000D01*
X201771428Y-112007142D01*
X200857142Y-111892857D02*
X200400000Y-111892857D01*
X200685714Y-111492857D02*
X200685714Y-112521428D01*
X200628571Y-112635714D01*
X200514285Y-112692857D01*
X200400000Y-112692857D01*
X194557142Y-111707142D02*
X194500000Y-111650000D01*
X194385714Y-111592857D01*
X194100000Y-111592857D01*
X193985714Y-111650000D01*
X193928571Y-111707142D01*
X193871428Y-111821428D01*
X193871428Y-111935714D01*
X193928571Y-112107142D01*
X194614285Y-112792857D01*
X193871428Y-112792857D01*
X193128571Y-111592857D02*
X193014285Y-111592857D01*
X192900000Y-111650000D01*
X192842857Y-111707142D01*
X192785714Y-111821428D01*
X192728571Y-112050000D01*
X192728571Y-112335714D01*
X192785714Y-112564285D01*
X192842857Y-112678571D01*
X192900000Y-112735714D01*
X193014285Y-112792857D01*
X193128571Y-112792857D01*
X193242857Y-112735714D01*
X193300000Y-112678571D01*
X193357142Y-112564285D01*
X193414285Y-112335714D01*
X193414285Y-112050000D01*
X193357142Y-111821428D01*
X193300000Y-111707142D01*
X193242857Y-111650000D01*
X193128571Y-111592857D01*
X191585714Y-112792857D02*
X192271428Y-112792857D01*
X191928571Y-112792857D02*
X191928571Y-111592857D01*
X192042857Y-111764285D01*
X192157142Y-111878571D01*
X192271428Y-111935714D01*
X191014285Y-112792857D02*
X190785714Y-112792857D01*
X190671428Y-112735714D01*
X190614285Y-112678571D01*
X190500000Y-112507142D01*
X190442857Y-112278571D01*
X190442857Y-111821428D01*
X190500000Y-111707142D01*
X190557142Y-111650000D01*
X190671428Y-111592857D01*
X190900000Y-111592857D01*
X191014285Y-111650000D01*
X191071428Y-111707142D01*
X191128571Y-111821428D01*
X191128571Y-112107142D01*
X191071428Y-112221428D01*
X191014285Y-112278571D01*
X190900000Y-112335714D01*
X190671428Y-112335714D01*
X190557142Y-112278571D01*
X190500000Y-112221428D01*
X190442857Y-112107142D01*
D11*
X201175857Y-118202380D02*
X201652047Y-118202380D01*
X201652047Y-117202380D01*
X200842523Y-117678571D02*
X200509190Y-117678571D01*
X200366333Y-118202380D02*
X200842523Y-118202380D01*
X200842523Y-117202380D01*
X200366333Y-117202380D01*
X199937761Y-118202380D02*
X199937761Y-117202380D01*
X199699666Y-117202380D01*
X199556809Y-117250000D01*
X199461571Y-117345238D01*
X199413952Y-117440476D01*
X199366333Y-117630952D01*
X199366333Y-117773809D01*
X199413952Y-117964285D01*
X199461571Y-118059523D01*
X199556809Y-118154761D01*
X199699666Y-118202380D01*
X199937761Y-118202380D01*
D10*
X203142857Y-114507142D02*
X204000000Y-114507142D01*
X204171428Y-114450000D01*
X204285714Y-114335714D01*
X204342857Y-114164285D01*
X204342857Y-114050000D01*
X204285714Y-115021428D02*
X204342857Y-115135714D01*
X204342857Y-115364285D01*
X204285714Y-115478571D01*
X204171428Y-115535714D01*
X204114285Y-115535714D01*
X204000000Y-115478571D01*
X203942857Y-115364285D01*
X203942857Y-115192857D01*
X203885714Y-115078571D01*
X203771428Y-115021428D01*
X203714285Y-115021428D01*
X203600000Y-115078571D01*
X203542857Y-115192857D01*
X203542857Y-115364285D01*
X203600000Y-115478571D01*
X204342857Y-116050000D02*
X203542857Y-116050000D01*
X203142857Y-116050000D02*
X203200000Y-115992857D01*
X203257142Y-116050000D01*
X203200000Y-116107142D01*
X203142857Y-116050000D01*
X203257142Y-116050000D01*
X203542857Y-116450000D02*
X203542857Y-116907142D01*
X204342857Y-116621428D02*
X203314285Y-116621428D01*
X203200000Y-116678571D01*
X203142857Y-116792857D01*
X203142857Y-116907142D01*
D12*
X199199571Y-119614142D02*
X200342428Y-119614142D01*
X198407142Y-117771428D02*
X198407142Y-116628571D01*
X198978571Y-117200000D02*
X197835714Y-117200000D01*
X195721428Y-115242857D02*
X195507142Y-115528571D01*
X195721428Y-115814285D01*
X197078571Y-116314285D02*
X195578571Y-116314285D01*
X197078571Y-117028571D02*
X195578571Y-117028571D01*
X197078571Y-117885714D01*
X195578571Y-117885714D01*
X195721428Y-118385714D02*
X195507142Y-118671428D01*
X195721428Y-118957142D01*
G04 #@! TO.C,R4*
D13*
X197175380Y-111974333D02*
X196699190Y-111641000D01*
X197175380Y-111402904D02*
X196175380Y-111402904D01*
X196175380Y-111783857D01*
X196223000Y-111879095D01*
X196270619Y-111926714D01*
X196365857Y-111974333D01*
X196508714Y-111974333D01*
X196603952Y-111926714D01*
X196651571Y-111879095D01*
X196699190Y-111783857D01*
X196699190Y-111402904D01*
X196508714Y-112831476D02*
X197175380Y-112831476D01*
X196127761Y-112593380D02*
X196842047Y-112355285D01*
X196842047Y-112974333D01*
G04 #@! TO.C,R5*
X200604380Y-113625333D02*
X200128190Y-113292000D01*
X200604380Y-113053904D02*
X199604380Y-113053904D01*
X199604380Y-113434857D01*
X199652000Y-113530095D01*
X199699619Y-113577714D01*
X199794857Y-113625333D01*
X199937714Y-113625333D01*
X200032952Y-113577714D01*
X200080571Y-113530095D01*
X200128190Y-113434857D01*
X200128190Y-113053904D01*
X199604380Y-114530095D02*
X199604380Y-114053904D01*
X200080571Y-114006285D01*
X200032952Y-114053904D01*
X199985333Y-114149142D01*
X199985333Y-114387238D01*
X200032952Y-114482476D01*
X200080571Y-114530095D01*
X200175809Y-114577714D01*
X200413904Y-114577714D01*
X200509142Y-114530095D01*
X200556761Y-114482476D01*
X200604380Y-114387238D01*
X200604380Y-114149142D01*
X200556761Y-114053904D01*
X200509142Y-114006285D01*
G04 #@! TD*
M02*
