G04 #@! TF.GenerationSoftware,KiCad,Pcbnew,(5.0.0)*
G04 #@! TF.CreationDate,2018-12-13T19:23:32+01:00*
G04 #@! TF.ProjectId,Modelwagonlight,4D6F64656C7761676F6E6C696768742E,rev?*
G04 #@! TF.SameCoordinates,Original*
G04 #@! TF.FileFunction,Legend,Top*
G04 #@! TF.FilePolarity,Positive*
%FSLAX46Y46*%
G04 Gerber Fmt 4.6, Leading zero omitted, Abs format (unit mm)*
G04 Created by KiCad (PCBNEW (5.0.0)) date 12/13/18 19:23:32*
%MOMM*%
%LPD*%
G01*
G04 APERTURE LIST*
%ADD10C,0.300000*%
%ADD11C,0.200000*%
%ADD12C,0.120000*%
%ADD13C,0.150000*%
G04 APERTURE END LIST*
D10*
X205050000Y-113438714D02*
X205121428Y-113510142D01*
X205050000Y-113581571D01*
X204978571Y-113510142D01*
X205050000Y-113438714D01*
X205050000Y-113581571D01*
D11*
X190652400Y-113919000D02*
X191770000Y-113919000D01*
X191770000Y-113919000D02*
X191820800Y-113919000D01*
X191262000Y-113919000D02*
X190652400Y-113309400D01*
X191262000Y-113919000D02*
X191871600Y-113309400D01*
X191871600Y-113309400D02*
X190652400Y-113309400D01*
X191262000Y-113309400D02*
X191262000Y-112750600D01*
X191262000Y-113919000D02*
X191262000Y-114376200D01*
X193672600Y-118635600D02*
X193672600Y-119092800D01*
X193672600Y-118026000D02*
X193672600Y-117467200D01*
X194282200Y-118026000D02*
X193063000Y-118026000D01*
X193672600Y-118635600D02*
X194282200Y-118026000D01*
X193672600Y-118635600D02*
X193063000Y-118026000D01*
X194180600Y-118635600D02*
X194231400Y-118635600D01*
X193063000Y-118635600D02*
X194180600Y-118635600D01*
X190677800Y-118635600D02*
X191795400Y-118635600D01*
X191795400Y-118635600D02*
X191846200Y-118635600D01*
X191287400Y-118635600D02*
X190677800Y-118026000D01*
X191287400Y-118635600D02*
X191897000Y-118026000D01*
X191897000Y-118026000D02*
X190677800Y-118026000D01*
X191287400Y-118026000D02*
X191287400Y-117467200D01*
X191287400Y-118635600D02*
X191287400Y-119092800D01*
X193548000Y-113919000D02*
X193548000Y-114376200D01*
X193548000Y-113309400D02*
X193548000Y-112750600D01*
X194157600Y-113309400D02*
X192938400Y-113309400D01*
X193548000Y-113919000D02*
X194157600Y-113309400D01*
X193548000Y-113919000D02*
X192938400Y-113309400D01*
X194056000Y-113919000D02*
X194106800Y-113919000D01*
X192938400Y-113919000D02*
X194056000Y-113919000D01*
D12*
G04 #@! TO.C,D3*
X192649600Y-115788000D02*
X194649600Y-115788000D01*
X194649600Y-115788000D02*
X194649600Y-111888000D01*
X192649600Y-115788000D02*
X192649600Y-111888000D01*
G04 #@! TO.C,D4*
X190262000Y-115788000D02*
X192262000Y-115788000D01*
X192262000Y-115788000D02*
X192262000Y-111888000D01*
X190262000Y-115788000D02*
X190262000Y-111888000D01*
G04 #@! TO.C,C1*
X195127200Y-113987200D02*
X195127200Y-112987200D01*
X196947200Y-113987200D02*
X196947200Y-112987200D01*
G04 #@! TO.C,C2*
X197514800Y-115959000D02*
X197514800Y-116959000D01*
X199334800Y-115959000D02*
X199334800Y-116959000D01*
G04 #@! TO.C,D1*
X192649600Y-120563200D02*
X192649600Y-116663200D01*
X194649600Y-120563200D02*
X194649600Y-116663200D01*
X192649600Y-120563200D02*
X194649600Y-120563200D01*
G04 #@! TO.C,D2*
X190262000Y-120563200D02*
X192262000Y-120563200D01*
X192262000Y-120563200D02*
X192262000Y-116663200D01*
X190262000Y-120563200D02*
X190262000Y-116663200D01*
D13*
G04 #@! TO.C,U1*
X205698800Y-112860000D02*
X205648800Y-112860000D01*
X205698800Y-117010000D02*
X205553800Y-117010000D01*
X200548800Y-117010000D02*
X200693800Y-117010000D01*
X200548800Y-112860000D02*
X200693800Y-112860000D01*
X205698800Y-112860000D02*
X205698800Y-117010000D01*
X200548800Y-112860000D02*
X200548800Y-117010000D01*
X205648800Y-112860000D02*
X205648800Y-111460000D01*
D12*
G04 #@! TO.C,R1*
X195101800Y-118838600D02*
X195101800Y-117838600D01*
X196921800Y-118838600D02*
X196921800Y-117838600D01*
G04 #@! TO.C,C1*
D13*
X195883333Y-113907142D02*
X195835714Y-113954761D01*
X195692857Y-114002380D01*
X195597619Y-114002380D01*
X195454761Y-113954761D01*
X195359523Y-113859523D01*
X195311904Y-113764285D01*
X195264285Y-113573809D01*
X195264285Y-113430952D01*
X195311904Y-113240476D01*
X195359523Y-113145238D01*
X195454761Y-113050000D01*
X195597619Y-113002380D01*
X195692857Y-113002380D01*
X195835714Y-113050000D01*
X195883333Y-113097619D01*
X196835714Y-114002380D02*
X196264285Y-114002380D01*
X196550000Y-114002380D02*
X196550000Y-113002380D01*
X196454761Y-113145238D01*
X196359523Y-113240476D01*
X196264285Y-113288095D01*
G04 #@! TO.C,C2*
X198233333Y-116857142D02*
X198185714Y-116904761D01*
X198042857Y-116952380D01*
X197947619Y-116952380D01*
X197804761Y-116904761D01*
X197709523Y-116809523D01*
X197661904Y-116714285D01*
X197614285Y-116523809D01*
X197614285Y-116380952D01*
X197661904Y-116190476D01*
X197709523Y-116095238D01*
X197804761Y-116000000D01*
X197947619Y-115952380D01*
X198042857Y-115952380D01*
X198185714Y-116000000D01*
X198233333Y-116047619D01*
X198614285Y-116047619D02*
X198661904Y-116000000D01*
X198757142Y-115952380D01*
X198995238Y-115952380D01*
X199090476Y-116000000D01*
X199138095Y-116047619D01*
X199185714Y-116142857D01*
X199185714Y-116238095D01*
X199138095Y-116380952D01*
X198566666Y-116952380D01*
X199185714Y-116952380D01*
G04 #@! TO.C,U1*
X203202380Y-115861904D02*
X204011904Y-115861904D01*
X204107142Y-115814285D01*
X204154761Y-115766666D01*
X204202380Y-115671428D01*
X204202380Y-115480952D01*
X204154761Y-115385714D01*
X204107142Y-115338095D01*
X204011904Y-115290476D01*
X203202380Y-115290476D01*
X204202380Y-114290476D02*
X204202380Y-114861904D01*
X204202380Y-114576190D02*
X203202380Y-114576190D01*
X203345238Y-114671428D01*
X203440476Y-114766666D01*
X203488095Y-114861904D01*
G04 #@! TO.C,C3*
X201833333Y-120007142D02*
X201785714Y-120054761D01*
X201642857Y-120102380D01*
X201547619Y-120102380D01*
X201404761Y-120054761D01*
X201309523Y-119959523D01*
X201261904Y-119864285D01*
X201214285Y-119673809D01*
X201214285Y-119530952D01*
X201261904Y-119340476D01*
X201309523Y-119245238D01*
X201404761Y-119150000D01*
X201547619Y-119102380D01*
X201642857Y-119102380D01*
X201785714Y-119150000D01*
X201833333Y-119197619D01*
X202166666Y-119102380D02*
X202785714Y-119102380D01*
X202452380Y-119483333D01*
X202595238Y-119483333D01*
X202690476Y-119530952D01*
X202738095Y-119578571D01*
X202785714Y-119673809D01*
X202785714Y-119911904D01*
X202738095Y-120007142D01*
X202690476Y-120054761D01*
X202595238Y-120102380D01*
X202309523Y-120102380D01*
X202214285Y-120054761D01*
X202166666Y-120007142D01*
G04 #@! TO.C,C4*
X201057142Y-119966666D02*
X201104761Y-120014285D01*
X201152380Y-120157142D01*
X201152380Y-120252380D01*
X201104761Y-120395238D01*
X201009523Y-120490476D01*
X200914285Y-120538095D01*
X200723809Y-120585714D01*
X200580952Y-120585714D01*
X200390476Y-120538095D01*
X200295238Y-120490476D01*
X200200000Y-120395238D01*
X200152380Y-120252380D01*
X200152380Y-120157142D01*
X200200000Y-120014285D01*
X200247619Y-119966666D01*
X200485714Y-119109523D02*
X201152380Y-119109523D01*
X200104761Y-119347619D02*
X200819047Y-119585714D01*
X200819047Y-118966666D01*
G04 #@! TO.C,R1*
X195883333Y-118852380D02*
X195550000Y-118376190D01*
X195311904Y-118852380D02*
X195311904Y-117852380D01*
X195692857Y-117852380D01*
X195788095Y-117900000D01*
X195835714Y-117947619D01*
X195883333Y-118042857D01*
X195883333Y-118185714D01*
X195835714Y-118280952D01*
X195788095Y-118328571D01*
X195692857Y-118376190D01*
X195311904Y-118376190D01*
X196835714Y-118852380D02*
X196264285Y-118852380D01*
X196550000Y-118852380D02*
X196550000Y-117852380D01*
X196454761Y-117995238D01*
X196359523Y-118090476D01*
X196264285Y-118138095D01*
G04 #@! TD*
M02*
