G04 #@! TF.GenerationSoftware,KiCad,Pcbnew,(5.0.0)*
G04 #@! TF.CreationDate,2018-12-13T19:23:32+01:00*
G04 #@! TF.ProjectId,Modelwagonlight,4D6F64656C7761676F6E6C696768742E,rev?*
G04 #@! TF.SameCoordinates,Original*
G04 #@! TF.FileFunction,Paste,Bot*
G04 #@! TF.FilePolarity,Positive*
%FSLAX46Y46*%
G04 Gerber Fmt 4.6, Leading zero omitted, Abs format (unit mm)*
G04 Created by KiCad (PCBNEW (5.0.0)) date 12/13/18 19:23:32*
%MOMM*%
%LPD*%
G01*
G04 APERTURE LIST*
%ADD10C,0.150000*%
G04 APERTURE END LIST*
D10*
G04 #@! TO.C,J4*
G36*
X205259000Y-118865000D02*
X200941000Y-118865000D01*
X200941000Y-120135000D01*
X205259000Y-120135000D01*
X205259000Y-118865000D01*
G37*
X205259000Y-118865000D02*
X200941000Y-118865000D01*
X200941000Y-120135000D01*
X205259000Y-120135000D01*
X205259000Y-118865000D01*
G04 #@! TO.C,J3*
G36*
X199035000Y-111691000D02*
X199035000Y-116009000D01*
X197765000Y-116009000D01*
X197765000Y-111691000D01*
X199035000Y-111691000D01*
G37*
X199035000Y-111691000D02*
X199035000Y-116009000D01*
X197765000Y-116009000D01*
X197765000Y-111691000D01*
X199035000Y-111691000D01*
G04 #@! TO.C,J1*
G36*
X190691000Y-117715000D02*
X195009000Y-117715000D01*
X195009000Y-118985000D01*
X190691000Y-118985000D01*
X190691000Y-117715000D01*
G37*
X190691000Y-117715000D02*
X195009000Y-117715000D01*
X195009000Y-118985000D01*
X190691000Y-118985000D01*
X190691000Y-117715000D01*
G04 #@! TO.C,J2*
G36*
X190691000Y-115215000D02*
X195009000Y-115215000D01*
X195009000Y-116485000D01*
X190691000Y-116485000D01*
X190691000Y-115215000D01*
G37*
X190691000Y-115215000D02*
X195009000Y-115215000D01*
X195009000Y-116485000D01*
X190691000Y-116485000D01*
X190691000Y-115215000D01*
G04 #@! TD*
M02*
