G04 #@! TF.GenerationSoftware,KiCad,Pcbnew,(5.0.0-rc2-dev-444-g2974a2c10)*
G04 #@! TF.CreationDate,2018-04-19T11:06:08+02:00*
G04 #@! TF.ProjectId,ClockDistrTest,436C6F636B4469737472546573742E6B,rev?*
G04 #@! TF.SameCoordinates,Original*
G04 #@! TF.FileFunction,Copper,L2,Bot,Signal*
G04 #@! TF.FilePolarity,Positive*
%FSLAX46Y46*%
G04 Gerber Fmt 4.6, Leading zero omitted, Abs format (unit mm)*
G04 Created by KiCad (PCBNEW (5.0.0-rc2-dev-444-g2974a2c10)) date 04/19/18 11:06:08*
%MOMM*%
%LPD*%
G01*
G04 APERTURE LIST*
%ADD10R,1.800000X1.800000*%
%ADD11C,1.800000*%
%ADD12O,1.700000X1.700000*%
%ADD13R,1.700000X1.700000*%
%ADD14R,1.600000X1.600000*%
%ADD15O,1.600000X1.600000*%
%ADD16C,1.500000*%
%ADD17R,2.000000X1.905000*%
%ADD18O,2.000000X1.905000*%
%ADD19R,2.400000X2.400000*%
%ADD20O,2.400000X2.400000*%
%ADD21C,1.000000*%
%ADD22C,0.700000*%
%ADD23C,0.800000*%
%ADD24C,0.500000*%
%ADD25C,1.000000*%
%ADD26C,0.254000*%
G04 APERTURE END LIST*
D10*
X104140000Y-132080000D03*
D11*
X106680000Y-132080000D03*
D12*
X81280000Y-132080000D03*
D13*
X83820000Y-132080000D03*
X105410000Y-66040000D03*
D12*
X102870000Y-66040000D03*
X102870000Y-73660000D03*
D13*
X105410000Y-73660000D03*
X105410000Y-69850000D03*
D12*
X102870000Y-69850000D03*
X115570000Y-124460000D03*
D13*
X113030000Y-124460000D03*
D12*
X123190000Y-132080000D03*
D13*
X125730000Y-132080000D03*
X125730000Y-124460000D03*
D12*
X123190000Y-124460000D03*
D13*
X138430000Y-132080000D03*
D12*
X135890000Y-132080000D03*
X135890000Y-124460000D03*
D13*
X138430000Y-124460000D03*
D14*
X87630000Y-58420000D03*
D15*
X95250000Y-66040000D03*
X87630000Y-66040000D03*
X95250000Y-58420000D03*
D16*
X81280000Y-81120000D03*
X81280000Y-76240000D03*
X81280000Y-99260000D03*
X81280000Y-104140000D03*
D17*
X99060000Y-124460000D03*
D18*
X99060000Y-121920000D03*
X99060000Y-119380000D03*
D19*
X88900000Y-132080000D03*
D20*
X99060000Y-132080000D03*
D12*
X148590000Y-132080000D03*
D13*
X151130000Y-132080000D03*
D12*
X137160000Y-53340000D03*
D13*
X139700000Y-53340000D03*
X127000000Y-53340000D03*
D12*
X124460000Y-53340000D03*
X148590000Y-124460000D03*
D13*
X151130000Y-124460000D03*
X165100000Y-132080000D03*
D12*
X162560000Y-132080000D03*
X162560000Y-124460000D03*
D13*
X165100000Y-124460000D03*
X175260000Y-124460000D03*
D12*
X177800000Y-124460000D03*
X149860000Y-53340000D03*
D13*
X152400000Y-53340000D03*
X166370000Y-53340000D03*
D12*
X163830000Y-53340000D03*
D13*
X181610000Y-53340000D03*
D12*
X179070000Y-53340000D03*
D21*
X95250000Y-79375000D03*
X84455000Y-79375000D03*
X88900000Y-97155000D03*
X99060000Y-97155000D03*
X109380000Y-71280000D03*
X116840000Y-64770000D03*
X114300000Y-84455000D03*
X123190000Y-68580000D03*
X125730000Y-68580000D03*
X135890000Y-68580000D03*
X138430000Y-68580000D03*
X148590000Y-68580000D03*
X151130000Y-68580000D03*
X162560000Y-68580000D03*
X165100000Y-68580000D03*
X179065000Y-58425000D03*
X111760000Y-84455000D03*
X135890000Y-60960000D03*
X123190000Y-60960000D03*
X175260000Y-82550000D03*
X177800000Y-82550000D03*
X148590000Y-60960000D03*
X162560000Y-60960000D03*
X97790000Y-73660000D03*
X87630000Y-71120000D03*
X109220000Y-63500000D03*
X97790000Y-63500000D03*
X85090000Y-86360000D03*
X116840000Y-83820000D03*
X124460000Y-83820000D03*
X130810000Y-83820000D03*
X143510000Y-83820000D03*
X157480000Y-83820000D03*
X171450000Y-83820000D03*
X119380000Y-128270000D03*
X132080000Y-128270000D03*
X144780000Y-128270000D03*
X157480000Y-128270000D03*
X171450000Y-128270000D03*
X78740000Y-93980000D03*
X91440000Y-100965000D03*
X91440000Y-104775000D03*
X87630000Y-79375000D03*
X93345000Y-111125000D03*
X180340000Y-69215000D03*
D22*
X88900000Y-97155000D02*
X94615000Y-97155000D01*
X94615000Y-97155000D02*
X99060000Y-97155000D01*
X109380000Y-71280000D02*
X110330000Y-71280000D01*
X110330000Y-71280000D02*
X116840000Y-64770000D01*
D23*
X115570000Y-124460000D02*
X115570000Y-88265000D01*
X115570000Y-88265000D02*
X115570000Y-85725000D01*
X115570000Y-85725000D02*
X114300000Y-84455000D01*
X123190000Y-124460000D02*
X123190000Y-132080000D01*
D24*
X123190000Y-124460000D02*
X123190000Y-68580000D01*
D23*
X125730000Y-124460000D02*
X125730000Y-132080000D01*
D24*
X125730000Y-124460000D02*
X125730000Y-68580000D01*
D23*
X135890000Y-124460000D02*
X135890000Y-132080000D01*
D24*
X135890000Y-124460000D02*
X135890000Y-68580000D01*
D23*
X138430000Y-124460000D02*
X138430000Y-132080000D01*
D24*
X138430000Y-124460000D02*
X138430000Y-68580000D01*
D23*
X148590000Y-124460000D02*
X148590000Y-132080000D01*
D24*
X148590000Y-124460000D02*
X148590000Y-68580000D01*
D23*
X151130000Y-124460000D02*
X151130000Y-132080000D01*
D24*
X151130000Y-124460000D02*
X151130000Y-68580000D01*
D23*
X162560000Y-124460000D02*
X162560000Y-132080000D01*
D24*
X162560000Y-124460000D02*
X162560000Y-68580000D01*
D23*
X165100000Y-124460000D02*
X165100000Y-132080000D01*
D24*
X165100000Y-124460000D02*
X165100000Y-68580000D01*
D22*
X179065000Y-53345000D02*
X179070000Y-53340000D01*
X179065000Y-58425000D02*
X179065000Y-53345000D01*
D23*
X111760000Y-123190000D02*
X111760000Y-84455000D01*
X113030000Y-124460000D02*
X111760000Y-123190000D01*
D22*
X135890000Y-54610000D02*
X137160000Y-53340000D01*
X135890000Y-60960000D02*
X135890000Y-54610000D01*
X123190000Y-54610000D02*
X124460000Y-53340000D01*
X123190000Y-60960000D02*
X123190000Y-54610000D01*
D24*
X175260000Y-124460000D02*
X175260000Y-82550000D01*
X177800000Y-124460000D02*
X177800000Y-82550000D01*
D22*
X148590000Y-54610000D02*
X149860000Y-53340000D01*
X148590000Y-60960000D02*
X148590000Y-54610000D01*
X162560000Y-54610000D02*
X163830000Y-53340000D01*
X162560000Y-60960000D02*
X162560000Y-54610000D01*
D25*
X99060000Y-119380000D02*
X85090000Y-119380000D01*
X85090000Y-119380000D02*
X78740000Y-113030000D01*
X78740000Y-113030000D02*
X78740000Y-111760000D01*
X78740000Y-111760000D02*
X78740000Y-93980000D01*
D22*
X91440000Y-100965000D02*
X91440000Y-104775000D01*
X92075000Y-79375000D02*
X95250000Y-79375000D01*
X87630000Y-79375000D02*
X92075000Y-79375000D01*
D26*
G36*
X186563000Y-50852606D02*
X186563000Y-134567394D01*
X185367394Y-135763000D01*
X78792606Y-135763000D01*
X77597000Y-134567394D01*
X77597000Y-132436892D01*
X79838514Y-132436892D01*
X80084817Y-132961358D01*
X80513076Y-133351645D01*
X80923110Y-133521476D01*
X81153000Y-133400155D01*
X81153000Y-132207000D01*
X79959181Y-132207000D01*
X79838514Y-132436892D01*
X77597000Y-132436892D01*
X77597000Y-131723108D01*
X79838514Y-131723108D01*
X79959181Y-131953000D01*
X81153000Y-131953000D01*
X81153000Y-130759845D01*
X81407000Y-130759845D01*
X81407000Y-131953000D01*
X81427000Y-131953000D01*
X81427000Y-132207000D01*
X81407000Y-132207000D01*
X81407000Y-133400155D01*
X81636890Y-133521476D01*
X82046924Y-133351645D01*
X82351261Y-133074292D01*
X82371843Y-133177765D01*
X82512191Y-133387809D01*
X82722235Y-133528157D01*
X82970000Y-133577440D01*
X84670000Y-133577440D01*
X84917765Y-133528157D01*
X85127809Y-133387809D01*
X85268157Y-133177765D01*
X85317440Y-132930000D01*
X85317440Y-131230000D01*
X85268157Y-130982235D01*
X85199846Y-130880000D01*
X87052560Y-130880000D01*
X87052560Y-133280000D01*
X87101843Y-133527765D01*
X87242191Y-133737809D01*
X87452235Y-133878157D01*
X87700000Y-133927440D01*
X90100000Y-133927440D01*
X90347765Y-133878157D01*
X90557809Y-133737809D01*
X90698157Y-133527765D01*
X90747440Y-133280000D01*
X90747440Y-132080000D01*
X97189051Y-132080000D01*
X97331469Y-132795981D01*
X97737039Y-133402961D01*
X98344019Y-133808531D01*
X98879273Y-133915000D01*
X99240727Y-133915000D01*
X99775981Y-133808531D01*
X100382961Y-133402961D01*
X100788531Y-132795981D01*
X100874109Y-132365750D01*
X102605000Y-132365750D01*
X102605000Y-133106310D01*
X102701673Y-133339699D01*
X102880302Y-133518327D01*
X103113691Y-133615000D01*
X103854250Y-133615000D01*
X104013000Y-133456250D01*
X104013000Y-132207000D01*
X102763750Y-132207000D01*
X102605000Y-132365750D01*
X100874109Y-132365750D01*
X100930949Y-132080000D01*
X100788531Y-131364019D01*
X100581177Y-131053690D01*
X102605000Y-131053690D01*
X102605000Y-131794250D01*
X102763750Y-131953000D01*
X104013000Y-131953000D01*
X104013000Y-130703750D01*
X104267000Y-130703750D01*
X104267000Y-131953000D01*
X104287000Y-131953000D01*
X104287000Y-132207000D01*
X104267000Y-132207000D01*
X104267000Y-133456250D01*
X104425750Y-133615000D01*
X105166309Y-133615000D01*
X105399698Y-133518327D01*
X105578327Y-133339699D01*
X105634139Y-133204956D01*
X105810493Y-133381310D01*
X106374670Y-133615000D01*
X106985330Y-133615000D01*
X107549507Y-133381310D01*
X107981310Y-132949507D01*
X108215000Y-132385330D01*
X108215000Y-131774670D01*
X107981310Y-131210493D01*
X107549507Y-130778690D01*
X106985330Y-130545000D01*
X106374670Y-130545000D01*
X105810493Y-130778690D01*
X105634139Y-130955044D01*
X105578327Y-130820301D01*
X105399698Y-130641673D01*
X105166309Y-130545000D01*
X104425750Y-130545000D01*
X104267000Y-130703750D01*
X104013000Y-130703750D01*
X103854250Y-130545000D01*
X103113691Y-130545000D01*
X102880302Y-130641673D01*
X102701673Y-130820301D01*
X102605000Y-131053690D01*
X100581177Y-131053690D01*
X100382961Y-130757039D01*
X99775981Y-130351469D01*
X99240727Y-130245000D01*
X98879273Y-130245000D01*
X98344019Y-130351469D01*
X97737039Y-130757039D01*
X97331469Y-131364019D01*
X97189051Y-132080000D01*
X90747440Y-132080000D01*
X90747440Y-130880000D01*
X90698157Y-130632235D01*
X90557809Y-130422191D01*
X90347765Y-130281843D01*
X90100000Y-130232560D01*
X87700000Y-130232560D01*
X87452235Y-130281843D01*
X87242191Y-130422191D01*
X87101843Y-130632235D01*
X87052560Y-130880000D01*
X85199846Y-130880000D01*
X85127809Y-130772191D01*
X84917765Y-130631843D01*
X84670000Y-130582560D01*
X82970000Y-130582560D01*
X82722235Y-130631843D01*
X82512191Y-130772191D01*
X82371843Y-130982235D01*
X82351261Y-131085708D01*
X82046924Y-130808355D01*
X81636890Y-130638524D01*
X81407000Y-130759845D01*
X81153000Y-130759845D01*
X80923110Y-130638524D01*
X80513076Y-130808355D01*
X80084817Y-131198642D01*
X79838514Y-131723108D01*
X77597000Y-131723108D01*
X77597000Y-121920000D01*
X79968276Y-121920000D01*
X80153380Y-122850580D01*
X80680511Y-123639489D01*
X81469420Y-124166620D01*
X82165103Y-124305000D01*
X82634897Y-124305000D01*
X83330580Y-124166620D01*
X84119489Y-123639489D01*
X84207681Y-123507500D01*
X97412560Y-123507500D01*
X97412560Y-125412500D01*
X97461843Y-125660265D01*
X97602191Y-125870309D01*
X97812235Y-126010657D01*
X98060000Y-126059940D01*
X100060000Y-126059940D01*
X100307765Y-126010657D01*
X100517809Y-125870309D01*
X100658157Y-125660265D01*
X100707440Y-125412500D01*
X100707440Y-123507500D01*
X100658157Y-123259735D01*
X100517809Y-123049691D01*
X100312857Y-122912745D01*
X100435973Y-122786924D01*
X100650563Y-122292980D01*
X100530594Y-122047000D01*
X99187000Y-122047000D01*
X99187000Y-122067000D01*
X98933000Y-122067000D01*
X98933000Y-122047000D01*
X97589406Y-122047000D01*
X97469437Y-122292980D01*
X97684027Y-122786924D01*
X97807143Y-122912745D01*
X97602191Y-123049691D01*
X97461843Y-123259735D01*
X97412560Y-123507500D01*
X84207681Y-123507500D01*
X84646620Y-122850580D01*
X84831724Y-121920000D01*
X84646620Y-120989420D01*
X84119489Y-120200511D01*
X83330580Y-119673380D01*
X82634897Y-119535000D01*
X82165103Y-119535000D01*
X81469420Y-119673380D01*
X80680511Y-120200511D01*
X80153380Y-120989420D01*
X79968276Y-121920000D01*
X77597000Y-121920000D01*
X77597000Y-113101564D01*
X77605000Y-113141782D01*
X77670854Y-113472854D01*
X77921711Y-113848289D01*
X78016482Y-113911613D01*
X84208389Y-120103521D01*
X84271711Y-120198289D01*
X84525133Y-120367620D01*
X84647145Y-120449146D01*
X85089999Y-120537235D01*
X85201782Y-120515000D01*
X97861614Y-120515000D01*
X97867977Y-120524523D01*
X98069474Y-120659159D01*
X97684027Y-121053076D01*
X97469437Y-121547020D01*
X97589406Y-121793000D01*
X98933000Y-121793000D01*
X98933000Y-121773000D01*
X99187000Y-121773000D01*
X99187000Y-121793000D01*
X100530594Y-121793000D01*
X100650563Y-121547020D01*
X100435973Y-121053076D01*
X100050526Y-120659159D01*
X100252023Y-120524523D01*
X100602891Y-119999411D01*
X100726100Y-119380000D01*
X100602891Y-118760589D01*
X100252023Y-118235477D01*
X99726911Y-117884609D01*
X99263850Y-117792500D01*
X98856150Y-117792500D01*
X98393089Y-117884609D01*
X97867977Y-118235477D01*
X97861614Y-118245000D01*
X85560132Y-118245000D01*
X79875000Y-112559869D01*
X79875000Y-103864506D01*
X79895000Y-103864506D01*
X79895000Y-104415494D01*
X80105853Y-104924540D01*
X80495460Y-105314147D01*
X81004506Y-105525000D01*
X81555494Y-105525000D01*
X82064540Y-105314147D01*
X82454147Y-104924540D01*
X82665000Y-104415494D01*
X82665000Y-103864506D01*
X82454147Y-103355460D01*
X82064540Y-102965853D01*
X81555494Y-102755000D01*
X81004506Y-102755000D01*
X80495460Y-102965853D01*
X80105853Y-103355460D01*
X79895000Y-103864506D01*
X79875000Y-103864506D01*
X79875000Y-100739234D01*
X90305000Y-100739234D01*
X90305000Y-101190766D01*
X90455000Y-101552899D01*
X90455001Y-104187099D01*
X90305000Y-104549234D01*
X90305000Y-105000766D01*
X90477793Y-105417926D01*
X90797074Y-105737207D01*
X91214234Y-105910000D01*
X91665766Y-105910000D01*
X92082926Y-105737207D01*
X92402207Y-105417926D01*
X92575000Y-105000766D01*
X92575000Y-104549234D01*
X92425000Y-104187101D01*
X92425000Y-101552899D01*
X92575000Y-101190766D01*
X92575000Y-100739234D01*
X92402207Y-100322074D01*
X92082926Y-100002793D01*
X91665766Y-99830000D01*
X91214234Y-99830000D01*
X90797074Y-100002793D01*
X90477793Y-100322074D01*
X90305000Y-100739234D01*
X79875000Y-100739234D01*
X79875000Y-98984506D01*
X79895000Y-98984506D01*
X79895000Y-99535494D01*
X80105853Y-100044540D01*
X80495460Y-100434147D01*
X81004506Y-100645000D01*
X81555494Y-100645000D01*
X82064540Y-100434147D01*
X82454147Y-100044540D01*
X82665000Y-99535494D01*
X82665000Y-98984506D01*
X82454147Y-98475460D01*
X82064540Y-98085853D01*
X81555494Y-97875000D01*
X81004506Y-97875000D01*
X80495460Y-98085853D01*
X80105853Y-98475460D01*
X79895000Y-98984506D01*
X79875000Y-98984506D01*
X79875000Y-93754234D01*
X79831381Y-93648928D01*
X79809146Y-93537145D01*
X79745826Y-93442380D01*
X79702207Y-93337074D01*
X79621609Y-93256476D01*
X79558289Y-93161711D01*
X79463524Y-93098391D01*
X79382926Y-93017793D01*
X79277620Y-92974174D01*
X79182855Y-92910854D01*
X79071072Y-92888619D01*
X78965766Y-92845000D01*
X78851783Y-92845000D01*
X78740000Y-92822765D01*
X78628217Y-92845000D01*
X78514234Y-92845000D01*
X78408927Y-92888619D01*
X78297146Y-92910854D01*
X78202383Y-92974173D01*
X78097074Y-93017793D01*
X78016474Y-93098393D01*
X77921712Y-93161711D01*
X77858394Y-93256473D01*
X77777793Y-93337074D01*
X77734172Y-93442384D01*
X77670855Y-93537145D01*
X77648621Y-93648923D01*
X77605000Y-93754234D01*
X77605000Y-94205766D01*
X77605001Y-94205768D01*
X77605000Y-111648217D01*
X77605000Y-112918217D01*
X77597000Y-112958436D01*
X77597000Y-84229234D01*
X110625000Y-84229234D01*
X110625000Y-84680766D01*
X110725001Y-84922190D01*
X110725000Y-123088066D01*
X110704724Y-123190000D01*
X110725000Y-123291934D01*
X110785052Y-123593836D01*
X111013807Y-123936193D01*
X111100227Y-123993937D01*
X111532560Y-124426270D01*
X111532560Y-125310000D01*
X111581843Y-125557765D01*
X111722191Y-125767809D01*
X111932235Y-125908157D01*
X112180000Y-125957440D01*
X113880000Y-125957440D01*
X114127765Y-125908157D01*
X114337809Y-125767809D01*
X114478157Y-125557765D01*
X114487184Y-125512381D01*
X114499375Y-125530625D01*
X114990582Y-125858839D01*
X115423744Y-125945000D01*
X115716256Y-125945000D01*
X116149418Y-125858839D01*
X116640625Y-125530625D01*
X116968839Y-125039418D01*
X117084092Y-124460000D01*
X121675908Y-124460000D01*
X121791161Y-125039418D01*
X122119375Y-125530625D01*
X122155000Y-125554429D01*
X122155001Y-130985571D01*
X122119375Y-131009375D01*
X121791161Y-131500582D01*
X121675908Y-132080000D01*
X121791161Y-132659418D01*
X122119375Y-133150625D01*
X122610582Y-133478839D01*
X123043744Y-133565000D01*
X123336256Y-133565000D01*
X123769418Y-133478839D01*
X124260625Y-133150625D01*
X124272816Y-133132381D01*
X124281843Y-133177765D01*
X124422191Y-133387809D01*
X124632235Y-133528157D01*
X124880000Y-133577440D01*
X126580000Y-133577440D01*
X126827765Y-133528157D01*
X127037809Y-133387809D01*
X127178157Y-133177765D01*
X127227440Y-132930000D01*
X127227440Y-131230000D01*
X127178157Y-130982235D01*
X127037809Y-130772191D01*
X126827765Y-130631843D01*
X126765000Y-130619358D01*
X126765000Y-125920642D01*
X126827765Y-125908157D01*
X127037809Y-125767809D01*
X127178157Y-125557765D01*
X127227440Y-125310000D01*
X127227440Y-124460000D01*
X134375908Y-124460000D01*
X134491161Y-125039418D01*
X134819375Y-125530625D01*
X134855000Y-125554429D01*
X134855001Y-130985571D01*
X134819375Y-131009375D01*
X134491161Y-131500582D01*
X134375908Y-132080000D01*
X134491161Y-132659418D01*
X134819375Y-133150625D01*
X135310582Y-133478839D01*
X135743744Y-133565000D01*
X136036256Y-133565000D01*
X136469418Y-133478839D01*
X136960625Y-133150625D01*
X136972816Y-133132381D01*
X136981843Y-133177765D01*
X137122191Y-133387809D01*
X137332235Y-133528157D01*
X137580000Y-133577440D01*
X139280000Y-133577440D01*
X139527765Y-133528157D01*
X139737809Y-133387809D01*
X139878157Y-133177765D01*
X139927440Y-132930000D01*
X139927440Y-131230000D01*
X139878157Y-130982235D01*
X139737809Y-130772191D01*
X139527765Y-130631843D01*
X139465000Y-130619358D01*
X139465000Y-125920642D01*
X139527765Y-125908157D01*
X139737809Y-125767809D01*
X139878157Y-125557765D01*
X139927440Y-125310000D01*
X139927440Y-124460000D01*
X147075908Y-124460000D01*
X147191161Y-125039418D01*
X147519375Y-125530625D01*
X147555000Y-125554429D01*
X147555001Y-130985571D01*
X147519375Y-131009375D01*
X147191161Y-131500582D01*
X147075908Y-132080000D01*
X147191161Y-132659418D01*
X147519375Y-133150625D01*
X148010582Y-133478839D01*
X148443744Y-133565000D01*
X148736256Y-133565000D01*
X149169418Y-133478839D01*
X149660625Y-133150625D01*
X149672816Y-133132381D01*
X149681843Y-133177765D01*
X149822191Y-133387809D01*
X150032235Y-133528157D01*
X150280000Y-133577440D01*
X151980000Y-133577440D01*
X152227765Y-133528157D01*
X152437809Y-133387809D01*
X152578157Y-133177765D01*
X152627440Y-132930000D01*
X152627440Y-131230000D01*
X152578157Y-130982235D01*
X152437809Y-130772191D01*
X152227765Y-130631843D01*
X152165000Y-130619358D01*
X152165000Y-125920642D01*
X152227765Y-125908157D01*
X152437809Y-125767809D01*
X152578157Y-125557765D01*
X152627440Y-125310000D01*
X152627440Y-124460000D01*
X161045908Y-124460000D01*
X161161161Y-125039418D01*
X161489375Y-125530625D01*
X161525000Y-125554429D01*
X161525001Y-130985571D01*
X161489375Y-131009375D01*
X161161161Y-131500582D01*
X161045908Y-132080000D01*
X161161161Y-132659418D01*
X161489375Y-133150625D01*
X161980582Y-133478839D01*
X162413744Y-133565000D01*
X162706256Y-133565000D01*
X163139418Y-133478839D01*
X163630625Y-133150625D01*
X163642816Y-133132381D01*
X163651843Y-133177765D01*
X163792191Y-133387809D01*
X164002235Y-133528157D01*
X164250000Y-133577440D01*
X165950000Y-133577440D01*
X166197765Y-133528157D01*
X166407809Y-133387809D01*
X166548157Y-133177765D01*
X166597440Y-132930000D01*
X166597440Y-131230000D01*
X166548157Y-130982235D01*
X166407809Y-130772191D01*
X166197765Y-130631843D01*
X166135000Y-130619358D01*
X166135000Y-125920642D01*
X166197765Y-125908157D01*
X166407809Y-125767809D01*
X166548157Y-125557765D01*
X166597440Y-125310000D01*
X166597440Y-123610000D01*
X173762560Y-123610000D01*
X173762560Y-125310000D01*
X173811843Y-125557765D01*
X173952191Y-125767809D01*
X174162235Y-125908157D01*
X174410000Y-125957440D01*
X176110000Y-125957440D01*
X176357765Y-125908157D01*
X176567809Y-125767809D01*
X176708157Y-125557765D01*
X176717184Y-125512381D01*
X176729375Y-125530625D01*
X177220582Y-125858839D01*
X177653744Y-125945000D01*
X177946256Y-125945000D01*
X178379418Y-125858839D01*
X178870625Y-125530625D01*
X179198839Y-125039418D01*
X179314092Y-124460000D01*
X179198839Y-123880582D01*
X178870625Y-123389375D01*
X178685000Y-123265344D01*
X178685000Y-83270133D01*
X178762207Y-83192926D01*
X178935000Y-82775766D01*
X178935000Y-82324234D01*
X178762207Y-81907074D01*
X178442926Y-81587793D01*
X178025766Y-81415000D01*
X177574234Y-81415000D01*
X177157074Y-81587793D01*
X176837793Y-81907074D01*
X176665000Y-82324234D01*
X176665000Y-82775766D01*
X176837793Y-83192926D01*
X176915001Y-83270134D01*
X176915000Y-123265344D01*
X176729375Y-123389375D01*
X176717184Y-123407619D01*
X176708157Y-123362235D01*
X176567809Y-123152191D01*
X176357765Y-123011843D01*
X176145000Y-122969522D01*
X176145000Y-83270133D01*
X176222207Y-83192926D01*
X176395000Y-82775766D01*
X176395000Y-82324234D01*
X176222207Y-81907074D01*
X175902926Y-81587793D01*
X175485766Y-81415000D01*
X175034234Y-81415000D01*
X174617074Y-81587793D01*
X174297793Y-81907074D01*
X174125000Y-82324234D01*
X174125000Y-82775766D01*
X174297793Y-83192926D01*
X174375001Y-83270134D01*
X174375000Y-122969522D01*
X174162235Y-123011843D01*
X173952191Y-123152191D01*
X173811843Y-123362235D01*
X173762560Y-123610000D01*
X166597440Y-123610000D01*
X166548157Y-123362235D01*
X166407809Y-123152191D01*
X166197765Y-123011843D01*
X165985000Y-122969522D01*
X165985000Y-69300133D01*
X166062207Y-69222926D01*
X166235000Y-68805766D01*
X166235000Y-68354234D01*
X166062207Y-67937074D01*
X165742926Y-67617793D01*
X165325766Y-67445000D01*
X164874234Y-67445000D01*
X164457074Y-67617793D01*
X164137793Y-67937074D01*
X163965000Y-68354234D01*
X163965000Y-68805766D01*
X164137793Y-69222926D01*
X164215001Y-69300134D01*
X164215000Y-122969522D01*
X164002235Y-123011843D01*
X163792191Y-123152191D01*
X163651843Y-123362235D01*
X163642816Y-123407619D01*
X163630625Y-123389375D01*
X163445000Y-123265344D01*
X163445000Y-69300133D01*
X163522207Y-69222926D01*
X163695000Y-68805766D01*
X163695000Y-68354234D01*
X163522207Y-67937074D01*
X163202926Y-67617793D01*
X162785766Y-67445000D01*
X162334234Y-67445000D01*
X161917074Y-67617793D01*
X161597793Y-67937074D01*
X161425000Y-68354234D01*
X161425000Y-68805766D01*
X161597793Y-69222926D01*
X161675001Y-69300134D01*
X161675000Y-123265344D01*
X161489375Y-123389375D01*
X161161161Y-123880582D01*
X161045908Y-124460000D01*
X152627440Y-124460000D01*
X152627440Y-123610000D01*
X152578157Y-123362235D01*
X152437809Y-123152191D01*
X152227765Y-123011843D01*
X152015000Y-122969522D01*
X152015000Y-69300133D01*
X152092207Y-69222926D01*
X152265000Y-68805766D01*
X152265000Y-68354234D01*
X152092207Y-67937074D01*
X151772926Y-67617793D01*
X151355766Y-67445000D01*
X150904234Y-67445000D01*
X150487074Y-67617793D01*
X150167793Y-67937074D01*
X149995000Y-68354234D01*
X149995000Y-68805766D01*
X150167793Y-69222926D01*
X150245001Y-69300134D01*
X150245000Y-122969522D01*
X150032235Y-123011843D01*
X149822191Y-123152191D01*
X149681843Y-123362235D01*
X149672816Y-123407619D01*
X149660625Y-123389375D01*
X149475000Y-123265344D01*
X149475000Y-69300133D01*
X149552207Y-69222926D01*
X149725000Y-68805766D01*
X149725000Y-68354234D01*
X149552207Y-67937074D01*
X149232926Y-67617793D01*
X148815766Y-67445000D01*
X148364234Y-67445000D01*
X147947074Y-67617793D01*
X147627793Y-67937074D01*
X147455000Y-68354234D01*
X147455000Y-68805766D01*
X147627793Y-69222926D01*
X147705001Y-69300134D01*
X147705000Y-123265344D01*
X147519375Y-123389375D01*
X147191161Y-123880582D01*
X147075908Y-124460000D01*
X139927440Y-124460000D01*
X139927440Y-123610000D01*
X139878157Y-123362235D01*
X139737809Y-123152191D01*
X139527765Y-123011843D01*
X139315000Y-122969522D01*
X139315000Y-69300133D01*
X139392207Y-69222926D01*
X139565000Y-68805766D01*
X139565000Y-68354234D01*
X139392207Y-67937074D01*
X139072926Y-67617793D01*
X138655766Y-67445000D01*
X138204234Y-67445000D01*
X137787074Y-67617793D01*
X137467793Y-67937074D01*
X137295000Y-68354234D01*
X137295000Y-68805766D01*
X137467793Y-69222926D01*
X137545001Y-69300134D01*
X137545000Y-122969522D01*
X137332235Y-123011843D01*
X137122191Y-123152191D01*
X136981843Y-123362235D01*
X136972816Y-123407619D01*
X136960625Y-123389375D01*
X136775000Y-123265344D01*
X136775000Y-69300133D01*
X136852207Y-69222926D01*
X137025000Y-68805766D01*
X137025000Y-68354234D01*
X136852207Y-67937074D01*
X136532926Y-67617793D01*
X136115766Y-67445000D01*
X135664234Y-67445000D01*
X135247074Y-67617793D01*
X134927793Y-67937074D01*
X134755000Y-68354234D01*
X134755000Y-68805766D01*
X134927793Y-69222926D01*
X135005001Y-69300134D01*
X135005000Y-123265344D01*
X134819375Y-123389375D01*
X134491161Y-123880582D01*
X134375908Y-124460000D01*
X127227440Y-124460000D01*
X127227440Y-123610000D01*
X127178157Y-123362235D01*
X127037809Y-123152191D01*
X126827765Y-123011843D01*
X126615000Y-122969522D01*
X126615000Y-69300133D01*
X126692207Y-69222926D01*
X126865000Y-68805766D01*
X126865000Y-68354234D01*
X126692207Y-67937074D01*
X126372926Y-67617793D01*
X125955766Y-67445000D01*
X125504234Y-67445000D01*
X125087074Y-67617793D01*
X124767793Y-67937074D01*
X124595000Y-68354234D01*
X124595000Y-68805766D01*
X124767793Y-69222926D01*
X124845001Y-69300134D01*
X124845000Y-122969522D01*
X124632235Y-123011843D01*
X124422191Y-123152191D01*
X124281843Y-123362235D01*
X124272816Y-123407619D01*
X124260625Y-123389375D01*
X124075000Y-123265344D01*
X124075000Y-69300133D01*
X124152207Y-69222926D01*
X124325000Y-68805766D01*
X124325000Y-68354234D01*
X124152207Y-67937074D01*
X123832926Y-67617793D01*
X123415766Y-67445000D01*
X122964234Y-67445000D01*
X122547074Y-67617793D01*
X122227793Y-67937074D01*
X122055000Y-68354234D01*
X122055000Y-68805766D01*
X122227793Y-69222926D01*
X122305001Y-69300134D01*
X122305000Y-123265344D01*
X122119375Y-123389375D01*
X121791161Y-123880582D01*
X121675908Y-124460000D01*
X117084092Y-124460000D01*
X116968839Y-123880582D01*
X116640625Y-123389375D01*
X116605000Y-123365571D01*
X116605000Y-85826934D01*
X116625276Y-85724999D01*
X116544948Y-85321163D01*
X116316193Y-84978807D01*
X116229776Y-84921065D01*
X115362208Y-84053497D01*
X115262207Y-83812074D01*
X114942926Y-83492793D01*
X114525766Y-83320000D01*
X114074234Y-83320000D01*
X113657074Y-83492793D01*
X113337793Y-83812074D01*
X113165000Y-84229234D01*
X113165000Y-84680766D01*
X113337793Y-85097926D01*
X113657074Y-85417207D01*
X113898497Y-85517208D01*
X114535001Y-86153712D01*
X114535000Y-88366934D01*
X114535001Y-88366939D01*
X114535000Y-123365571D01*
X114499375Y-123389375D01*
X114487184Y-123407619D01*
X114478157Y-123362235D01*
X114337809Y-123152191D01*
X114127765Y-123011843D01*
X113880000Y-122962560D01*
X112996270Y-122962560D01*
X112795000Y-122761290D01*
X112795000Y-84922188D01*
X112895000Y-84680766D01*
X112895000Y-84229234D01*
X112722207Y-83812074D01*
X112402926Y-83492793D01*
X111985766Y-83320000D01*
X111534234Y-83320000D01*
X111117074Y-83492793D01*
X110797793Y-83812074D01*
X110625000Y-84229234D01*
X77597000Y-84229234D01*
X77597000Y-80844506D01*
X79895000Y-80844506D01*
X79895000Y-81395494D01*
X80105853Y-81904540D01*
X80495460Y-82294147D01*
X81004506Y-82505000D01*
X81555494Y-82505000D01*
X82064540Y-82294147D01*
X82454147Y-81904540D01*
X82665000Y-81395494D01*
X82665000Y-80844506D01*
X82454147Y-80335460D01*
X82064540Y-79945853D01*
X81555494Y-79735000D01*
X81004506Y-79735000D01*
X80495460Y-79945853D01*
X80105853Y-80335460D01*
X79895000Y-80844506D01*
X77597000Y-80844506D01*
X77597000Y-75964506D01*
X79895000Y-75964506D01*
X79895000Y-76515494D01*
X80105853Y-77024540D01*
X80495460Y-77414147D01*
X81004506Y-77625000D01*
X81555494Y-77625000D01*
X82064540Y-77414147D01*
X82454147Y-77024540D01*
X82665000Y-76515494D01*
X82665000Y-75964506D01*
X82454147Y-75455460D01*
X82064540Y-75065853D01*
X81555494Y-74855000D01*
X81004506Y-74855000D01*
X80495460Y-75065853D01*
X80105853Y-75455460D01*
X79895000Y-75964506D01*
X77597000Y-75964506D01*
X77597000Y-73660000D01*
X101355908Y-73660000D01*
X101471161Y-74239418D01*
X101799375Y-74730625D01*
X102290582Y-75058839D01*
X102723744Y-75145000D01*
X103016256Y-75145000D01*
X103449418Y-75058839D01*
X103940625Y-74730625D01*
X103952816Y-74712381D01*
X103961843Y-74757765D01*
X104102191Y-74967809D01*
X104312235Y-75108157D01*
X104560000Y-75157440D01*
X106260000Y-75157440D01*
X106507765Y-75108157D01*
X106717809Y-74967809D01*
X106858157Y-74757765D01*
X106907440Y-74510000D01*
X106907440Y-72810000D01*
X106858157Y-72562235D01*
X106717809Y-72352191D01*
X106507765Y-72211843D01*
X106260000Y-72162560D01*
X104560000Y-72162560D01*
X104312235Y-72211843D01*
X104102191Y-72352191D01*
X103961843Y-72562235D01*
X103952816Y-72607619D01*
X103940625Y-72589375D01*
X103449418Y-72261161D01*
X103016256Y-72175000D01*
X102723744Y-72175000D01*
X102290582Y-72261161D01*
X101799375Y-72589375D01*
X101471161Y-73080582D01*
X101355908Y-73660000D01*
X77597000Y-73660000D01*
X77597000Y-69850000D01*
X101355908Y-69850000D01*
X101471161Y-70429418D01*
X101799375Y-70920625D01*
X102290582Y-71248839D01*
X102723744Y-71335000D01*
X103016256Y-71335000D01*
X103449418Y-71248839D01*
X103940625Y-70920625D01*
X103952816Y-70902381D01*
X103961843Y-70947765D01*
X104102191Y-71157809D01*
X104312235Y-71298157D01*
X104560000Y-71347440D01*
X106260000Y-71347440D01*
X106507765Y-71298157D01*
X106717809Y-71157809D01*
X106858157Y-70947765D01*
X106907440Y-70700000D01*
X106907440Y-69000000D01*
X106858157Y-68752235D01*
X106717809Y-68542191D01*
X106507765Y-68401843D01*
X106260000Y-68352560D01*
X104560000Y-68352560D01*
X104312235Y-68401843D01*
X104102191Y-68542191D01*
X103961843Y-68752235D01*
X103952816Y-68797619D01*
X103940625Y-68779375D01*
X103449418Y-68451161D01*
X103016256Y-68365000D01*
X102723744Y-68365000D01*
X102290582Y-68451161D01*
X101799375Y-68779375D01*
X101471161Y-69270582D01*
X101355908Y-69850000D01*
X77597000Y-69850000D01*
X77597000Y-66389039D01*
X86238096Y-66389039D01*
X86398959Y-66777423D01*
X86774866Y-67192389D01*
X87280959Y-67431914D01*
X87503000Y-67310629D01*
X87503000Y-66167000D01*
X87757000Y-66167000D01*
X87757000Y-67310629D01*
X87979041Y-67431914D01*
X88485134Y-67192389D01*
X88861041Y-66777423D01*
X89021904Y-66389039D01*
X88899915Y-66167000D01*
X87757000Y-66167000D01*
X87503000Y-66167000D01*
X86360085Y-66167000D01*
X86238096Y-66389039D01*
X77597000Y-66389039D01*
X77597000Y-66040000D01*
X93786887Y-66040000D01*
X93898260Y-66599909D01*
X94215423Y-67074577D01*
X94690091Y-67391740D01*
X95108667Y-67475000D01*
X95391333Y-67475000D01*
X95809909Y-67391740D01*
X96284577Y-67074577D01*
X96601740Y-66599909D01*
X96713113Y-66040000D01*
X101355908Y-66040000D01*
X101471161Y-66619418D01*
X101799375Y-67110625D01*
X102290582Y-67438839D01*
X102723744Y-67525000D01*
X103016256Y-67525000D01*
X103449418Y-67438839D01*
X103940625Y-67110625D01*
X103952816Y-67092381D01*
X103961843Y-67137765D01*
X104102191Y-67347809D01*
X104312235Y-67488157D01*
X104560000Y-67537440D01*
X106260000Y-67537440D01*
X106507765Y-67488157D01*
X106717809Y-67347809D01*
X106858157Y-67137765D01*
X106907440Y-66890000D01*
X106907440Y-65190000D01*
X106858157Y-64942235D01*
X106717809Y-64732191D01*
X106507765Y-64591843D01*
X106260000Y-64542560D01*
X104560000Y-64542560D01*
X104312235Y-64591843D01*
X104102191Y-64732191D01*
X103961843Y-64942235D01*
X103952816Y-64987619D01*
X103940625Y-64969375D01*
X103449418Y-64641161D01*
X103016256Y-64555000D01*
X102723744Y-64555000D01*
X102290582Y-64641161D01*
X101799375Y-64969375D01*
X101471161Y-65460582D01*
X101355908Y-66040000D01*
X96713113Y-66040000D01*
X96601740Y-65480091D01*
X96284577Y-65005423D01*
X95809909Y-64688260D01*
X95391333Y-64605000D01*
X95108667Y-64605000D01*
X94690091Y-64688260D01*
X94215423Y-65005423D01*
X93898260Y-65480091D01*
X93786887Y-66040000D01*
X77597000Y-66040000D01*
X77597000Y-65690961D01*
X86238096Y-65690961D01*
X86360085Y-65913000D01*
X87503000Y-65913000D01*
X87503000Y-64769371D01*
X87757000Y-64769371D01*
X87757000Y-65913000D01*
X88899915Y-65913000D01*
X89021904Y-65690961D01*
X88861041Y-65302577D01*
X88485134Y-64887611D01*
X87979041Y-64648086D01*
X87757000Y-64769371D01*
X87503000Y-64769371D01*
X87280959Y-64648086D01*
X86774866Y-64887611D01*
X86398959Y-65302577D01*
X86238096Y-65690961D01*
X77597000Y-65690961D01*
X77597000Y-60734234D01*
X122055000Y-60734234D01*
X122055000Y-61185766D01*
X122227793Y-61602926D01*
X122547074Y-61922207D01*
X122964234Y-62095000D01*
X123415766Y-62095000D01*
X123832926Y-61922207D01*
X124152207Y-61602926D01*
X124325000Y-61185766D01*
X124325000Y-60734234D01*
X134755000Y-60734234D01*
X134755000Y-61185766D01*
X134927793Y-61602926D01*
X135247074Y-61922207D01*
X135664234Y-62095000D01*
X136115766Y-62095000D01*
X136532926Y-61922207D01*
X136852207Y-61602926D01*
X137025000Y-61185766D01*
X137025000Y-60734234D01*
X147455000Y-60734234D01*
X147455000Y-61185766D01*
X147627793Y-61602926D01*
X147947074Y-61922207D01*
X148364234Y-62095000D01*
X148815766Y-62095000D01*
X149232926Y-61922207D01*
X149552207Y-61602926D01*
X149725000Y-61185766D01*
X149725000Y-60734234D01*
X161425000Y-60734234D01*
X161425000Y-61185766D01*
X161597793Y-61602926D01*
X161917074Y-61922207D01*
X162334234Y-62095000D01*
X162785766Y-62095000D01*
X163202926Y-61922207D01*
X163522207Y-61602926D01*
X163695000Y-61185766D01*
X163695000Y-60734234D01*
X163545000Y-60372101D01*
X163545000Y-55018000D01*
X163738000Y-54825000D01*
X163976256Y-54825000D01*
X164409418Y-54738839D01*
X164900625Y-54410625D01*
X164915096Y-54388967D01*
X164981673Y-54549698D01*
X165160301Y-54728327D01*
X165393690Y-54825000D01*
X166084250Y-54825000D01*
X166243000Y-54666250D01*
X166243000Y-53467000D01*
X166497000Y-53467000D01*
X166497000Y-54666250D01*
X166655750Y-54825000D01*
X167346310Y-54825000D01*
X167579699Y-54728327D01*
X167758327Y-54549698D01*
X167855000Y-54316309D01*
X167855000Y-53625750D01*
X167696250Y-53467000D01*
X166497000Y-53467000D01*
X166243000Y-53467000D01*
X166223000Y-53467000D01*
X166223000Y-53340000D01*
X177555908Y-53340000D01*
X177671161Y-53919418D01*
X177999375Y-54410625D01*
X178080001Y-54464497D01*
X178080000Y-57837101D01*
X177930000Y-58199234D01*
X177930000Y-58650766D01*
X178102793Y-59067926D01*
X178422074Y-59387207D01*
X178839234Y-59560000D01*
X179290766Y-59560000D01*
X179707926Y-59387207D01*
X180027207Y-59067926D01*
X180200000Y-58650766D01*
X180200000Y-58199234D01*
X180050000Y-57837101D01*
X180050000Y-54471179D01*
X180140625Y-54410625D01*
X180155096Y-54388967D01*
X180221673Y-54549698D01*
X180400301Y-54728327D01*
X180633690Y-54825000D01*
X181324250Y-54825000D01*
X181483000Y-54666250D01*
X181483000Y-53467000D01*
X181737000Y-53467000D01*
X181737000Y-54666250D01*
X181895750Y-54825000D01*
X182586310Y-54825000D01*
X182819699Y-54728327D01*
X182998327Y-54549698D01*
X183095000Y-54316309D01*
X183095000Y-53625750D01*
X182936250Y-53467000D01*
X181737000Y-53467000D01*
X181483000Y-53467000D01*
X181463000Y-53467000D01*
X181463000Y-53213000D01*
X181483000Y-53213000D01*
X181483000Y-52013750D01*
X181737000Y-52013750D01*
X181737000Y-53213000D01*
X182936250Y-53213000D01*
X183095000Y-53054250D01*
X183095000Y-52363691D01*
X182998327Y-52130302D01*
X182819699Y-51951673D01*
X182586310Y-51855000D01*
X181895750Y-51855000D01*
X181737000Y-52013750D01*
X181483000Y-52013750D01*
X181324250Y-51855000D01*
X180633690Y-51855000D01*
X180400301Y-51951673D01*
X180221673Y-52130302D01*
X180155096Y-52291033D01*
X180140625Y-52269375D01*
X179649418Y-51941161D01*
X179216256Y-51855000D01*
X178923744Y-51855000D01*
X178490582Y-51941161D01*
X177999375Y-52269375D01*
X177671161Y-52760582D01*
X177555908Y-53340000D01*
X166223000Y-53340000D01*
X166223000Y-53213000D01*
X166243000Y-53213000D01*
X166243000Y-52013750D01*
X166497000Y-52013750D01*
X166497000Y-53213000D01*
X167696250Y-53213000D01*
X167855000Y-53054250D01*
X167855000Y-52363691D01*
X167758327Y-52130302D01*
X167579699Y-51951673D01*
X167346310Y-51855000D01*
X166655750Y-51855000D01*
X166497000Y-52013750D01*
X166243000Y-52013750D01*
X166084250Y-51855000D01*
X165393690Y-51855000D01*
X165160301Y-51951673D01*
X164981673Y-52130302D01*
X164915096Y-52291033D01*
X164900625Y-52269375D01*
X164409418Y-51941161D01*
X163976256Y-51855000D01*
X163683744Y-51855000D01*
X163250582Y-51941161D01*
X162759375Y-52269375D01*
X162431161Y-52760582D01*
X162315908Y-53340000D01*
X162335998Y-53441002D01*
X161932096Y-53844904D01*
X161849856Y-53899855D01*
X161794905Y-53982095D01*
X161794902Y-53982098D01*
X161632151Y-54225673D01*
X161555704Y-54610000D01*
X161575001Y-54707013D01*
X161575000Y-60372101D01*
X161425000Y-60734234D01*
X149725000Y-60734234D01*
X149575000Y-60372101D01*
X149575000Y-55018000D01*
X149768000Y-54825000D01*
X150006256Y-54825000D01*
X150439418Y-54738839D01*
X150930625Y-54410625D01*
X150945096Y-54388967D01*
X151011673Y-54549698D01*
X151190301Y-54728327D01*
X151423690Y-54825000D01*
X152114250Y-54825000D01*
X152273000Y-54666250D01*
X152273000Y-53467000D01*
X152527000Y-53467000D01*
X152527000Y-54666250D01*
X152685750Y-54825000D01*
X153376310Y-54825000D01*
X153609699Y-54728327D01*
X153788327Y-54549698D01*
X153885000Y-54316309D01*
X153885000Y-53625750D01*
X153726250Y-53467000D01*
X152527000Y-53467000D01*
X152273000Y-53467000D01*
X152253000Y-53467000D01*
X152253000Y-53213000D01*
X152273000Y-53213000D01*
X152273000Y-52013750D01*
X152527000Y-52013750D01*
X152527000Y-53213000D01*
X153726250Y-53213000D01*
X153885000Y-53054250D01*
X153885000Y-52363691D01*
X153788327Y-52130302D01*
X153609699Y-51951673D01*
X153376310Y-51855000D01*
X152685750Y-51855000D01*
X152527000Y-52013750D01*
X152273000Y-52013750D01*
X152114250Y-51855000D01*
X151423690Y-51855000D01*
X151190301Y-51951673D01*
X151011673Y-52130302D01*
X150945096Y-52291033D01*
X150930625Y-52269375D01*
X150439418Y-51941161D01*
X150006256Y-51855000D01*
X149713744Y-51855000D01*
X149280582Y-51941161D01*
X148789375Y-52269375D01*
X148461161Y-52760582D01*
X148345908Y-53340000D01*
X148365998Y-53441002D01*
X147962096Y-53844904D01*
X147879856Y-53899855D01*
X147824905Y-53982095D01*
X147824902Y-53982098D01*
X147662151Y-54225673D01*
X147585704Y-54610000D01*
X147605001Y-54707013D01*
X147605000Y-60372101D01*
X147455000Y-60734234D01*
X137025000Y-60734234D01*
X136875000Y-60372101D01*
X136875000Y-55018000D01*
X137068000Y-54825000D01*
X137306256Y-54825000D01*
X137739418Y-54738839D01*
X138230625Y-54410625D01*
X138245096Y-54388967D01*
X138311673Y-54549698D01*
X138490301Y-54728327D01*
X138723690Y-54825000D01*
X139414250Y-54825000D01*
X139573000Y-54666250D01*
X139573000Y-53467000D01*
X139827000Y-53467000D01*
X139827000Y-54666250D01*
X139985750Y-54825000D01*
X140676310Y-54825000D01*
X140909699Y-54728327D01*
X141088327Y-54549698D01*
X141185000Y-54316309D01*
X141185000Y-53625750D01*
X141026250Y-53467000D01*
X139827000Y-53467000D01*
X139573000Y-53467000D01*
X139553000Y-53467000D01*
X139553000Y-53213000D01*
X139573000Y-53213000D01*
X139573000Y-52013750D01*
X139827000Y-52013750D01*
X139827000Y-53213000D01*
X141026250Y-53213000D01*
X141185000Y-53054250D01*
X141185000Y-52363691D01*
X141088327Y-52130302D01*
X140909699Y-51951673D01*
X140676310Y-51855000D01*
X139985750Y-51855000D01*
X139827000Y-52013750D01*
X139573000Y-52013750D01*
X139414250Y-51855000D01*
X138723690Y-51855000D01*
X138490301Y-51951673D01*
X138311673Y-52130302D01*
X138245096Y-52291033D01*
X138230625Y-52269375D01*
X137739418Y-51941161D01*
X137306256Y-51855000D01*
X137013744Y-51855000D01*
X136580582Y-51941161D01*
X136089375Y-52269375D01*
X135761161Y-52760582D01*
X135645908Y-53340000D01*
X135665998Y-53441002D01*
X135262096Y-53844904D01*
X135179856Y-53899855D01*
X135124905Y-53982095D01*
X135124902Y-53982098D01*
X134962151Y-54225673D01*
X134885704Y-54610000D01*
X134905001Y-54707013D01*
X134905000Y-60372101D01*
X134755000Y-60734234D01*
X124325000Y-60734234D01*
X124175000Y-60372101D01*
X124175000Y-55018000D01*
X124368000Y-54825000D01*
X124606256Y-54825000D01*
X125039418Y-54738839D01*
X125530625Y-54410625D01*
X125545096Y-54388967D01*
X125611673Y-54549698D01*
X125790301Y-54728327D01*
X126023690Y-54825000D01*
X126714250Y-54825000D01*
X126873000Y-54666250D01*
X126873000Y-53467000D01*
X127127000Y-53467000D01*
X127127000Y-54666250D01*
X127285750Y-54825000D01*
X127976310Y-54825000D01*
X128209699Y-54728327D01*
X128388327Y-54549698D01*
X128485000Y-54316309D01*
X128485000Y-53625750D01*
X128326250Y-53467000D01*
X127127000Y-53467000D01*
X126873000Y-53467000D01*
X126853000Y-53467000D01*
X126853000Y-53213000D01*
X126873000Y-53213000D01*
X126873000Y-52013750D01*
X127127000Y-52013750D01*
X127127000Y-53213000D01*
X128326250Y-53213000D01*
X128485000Y-53054250D01*
X128485000Y-52363691D01*
X128388327Y-52130302D01*
X128209699Y-51951673D01*
X127976310Y-51855000D01*
X127285750Y-51855000D01*
X127127000Y-52013750D01*
X126873000Y-52013750D01*
X126714250Y-51855000D01*
X126023690Y-51855000D01*
X125790301Y-51951673D01*
X125611673Y-52130302D01*
X125545096Y-52291033D01*
X125530625Y-52269375D01*
X125039418Y-51941161D01*
X124606256Y-51855000D01*
X124313744Y-51855000D01*
X123880582Y-51941161D01*
X123389375Y-52269375D01*
X123061161Y-52760582D01*
X122945908Y-53340000D01*
X122965998Y-53441002D01*
X122562096Y-53844904D01*
X122479856Y-53899855D01*
X122424905Y-53982095D01*
X122424902Y-53982098D01*
X122262151Y-54225673D01*
X122185704Y-54610000D01*
X122205001Y-54707013D01*
X122205000Y-60372101D01*
X122055000Y-60734234D01*
X77597000Y-60734234D01*
X77597000Y-57620000D01*
X86182560Y-57620000D01*
X86182560Y-59220000D01*
X86231843Y-59467765D01*
X86372191Y-59677809D01*
X86582235Y-59818157D01*
X86830000Y-59867440D01*
X88430000Y-59867440D01*
X88677765Y-59818157D01*
X88887809Y-59677809D01*
X89028157Y-59467765D01*
X89077440Y-59220000D01*
X89077440Y-58420000D01*
X93786887Y-58420000D01*
X93898260Y-58979909D01*
X94215423Y-59454577D01*
X94690091Y-59771740D01*
X95108667Y-59855000D01*
X95391333Y-59855000D01*
X95809909Y-59771740D01*
X96284577Y-59454577D01*
X96601740Y-58979909D01*
X96713113Y-58420000D01*
X96601740Y-57860091D01*
X96284577Y-57385423D01*
X95809909Y-57068260D01*
X95391333Y-56985000D01*
X95108667Y-56985000D01*
X94690091Y-57068260D01*
X94215423Y-57385423D01*
X93898260Y-57860091D01*
X93786887Y-58420000D01*
X89077440Y-58420000D01*
X89077440Y-57620000D01*
X89028157Y-57372235D01*
X88887809Y-57162191D01*
X88677765Y-57021843D01*
X88430000Y-56972560D01*
X86830000Y-56972560D01*
X86582235Y-57021843D01*
X86372191Y-57162191D01*
X86231843Y-57372235D01*
X86182560Y-57620000D01*
X77597000Y-57620000D01*
X77597000Y-50852606D01*
X78792606Y-49657000D01*
X185367394Y-49657000D01*
X186563000Y-50852606D01*
X186563000Y-50852606D01*
G37*
X186563000Y-50852606D02*
X186563000Y-134567394D01*
X185367394Y-135763000D01*
X78792606Y-135763000D01*
X77597000Y-134567394D01*
X77597000Y-132436892D01*
X79838514Y-132436892D01*
X80084817Y-132961358D01*
X80513076Y-133351645D01*
X80923110Y-133521476D01*
X81153000Y-133400155D01*
X81153000Y-132207000D01*
X79959181Y-132207000D01*
X79838514Y-132436892D01*
X77597000Y-132436892D01*
X77597000Y-131723108D01*
X79838514Y-131723108D01*
X79959181Y-131953000D01*
X81153000Y-131953000D01*
X81153000Y-130759845D01*
X81407000Y-130759845D01*
X81407000Y-131953000D01*
X81427000Y-131953000D01*
X81427000Y-132207000D01*
X81407000Y-132207000D01*
X81407000Y-133400155D01*
X81636890Y-133521476D01*
X82046924Y-133351645D01*
X82351261Y-133074292D01*
X82371843Y-133177765D01*
X82512191Y-133387809D01*
X82722235Y-133528157D01*
X82970000Y-133577440D01*
X84670000Y-133577440D01*
X84917765Y-133528157D01*
X85127809Y-133387809D01*
X85268157Y-133177765D01*
X85317440Y-132930000D01*
X85317440Y-131230000D01*
X85268157Y-130982235D01*
X85199846Y-130880000D01*
X87052560Y-130880000D01*
X87052560Y-133280000D01*
X87101843Y-133527765D01*
X87242191Y-133737809D01*
X87452235Y-133878157D01*
X87700000Y-133927440D01*
X90100000Y-133927440D01*
X90347765Y-133878157D01*
X90557809Y-133737809D01*
X90698157Y-133527765D01*
X90747440Y-133280000D01*
X90747440Y-132080000D01*
X97189051Y-132080000D01*
X97331469Y-132795981D01*
X97737039Y-133402961D01*
X98344019Y-133808531D01*
X98879273Y-133915000D01*
X99240727Y-133915000D01*
X99775981Y-133808531D01*
X100382961Y-133402961D01*
X100788531Y-132795981D01*
X100874109Y-132365750D01*
X102605000Y-132365750D01*
X102605000Y-133106310D01*
X102701673Y-133339699D01*
X102880302Y-133518327D01*
X103113691Y-133615000D01*
X103854250Y-133615000D01*
X104013000Y-133456250D01*
X104013000Y-132207000D01*
X102763750Y-132207000D01*
X102605000Y-132365750D01*
X100874109Y-132365750D01*
X100930949Y-132080000D01*
X100788531Y-131364019D01*
X100581177Y-131053690D01*
X102605000Y-131053690D01*
X102605000Y-131794250D01*
X102763750Y-131953000D01*
X104013000Y-131953000D01*
X104013000Y-130703750D01*
X104267000Y-130703750D01*
X104267000Y-131953000D01*
X104287000Y-131953000D01*
X104287000Y-132207000D01*
X104267000Y-132207000D01*
X104267000Y-133456250D01*
X104425750Y-133615000D01*
X105166309Y-133615000D01*
X105399698Y-133518327D01*
X105578327Y-133339699D01*
X105634139Y-133204956D01*
X105810493Y-133381310D01*
X106374670Y-133615000D01*
X106985330Y-133615000D01*
X107549507Y-133381310D01*
X107981310Y-132949507D01*
X108215000Y-132385330D01*
X108215000Y-131774670D01*
X107981310Y-131210493D01*
X107549507Y-130778690D01*
X106985330Y-130545000D01*
X106374670Y-130545000D01*
X105810493Y-130778690D01*
X105634139Y-130955044D01*
X105578327Y-130820301D01*
X105399698Y-130641673D01*
X105166309Y-130545000D01*
X104425750Y-130545000D01*
X104267000Y-130703750D01*
X104013000Y-130703750D01*
X103854250Y-130545000D01*
X103113691Y-130545000D01*
X102880302Y-130641673D01*
X102701673Y-130820301D01*
X102605000Y-131053690D01*
X100581177Y-131053690D01*
X100382961Y-130757039D01*
X99775981Y-130351469D01*
X99240727Y-130245000D01*
X98879273Y-130245000D01*
X98344019Y-130351469D01*
X97737039Y-130757039D01*
X97331469Y-131364019D01*
X97189051Y-132080000D01*
X90747440Y-132080000D01*
X90747440Y-130880000D01*
X90698157Y-130632235D01*
X90557809Y-130422191D01*
X90347765Y-130281843D01*
X90100000Y-130232560D01*
X87700000Y-130232560D01*
X87452235Y-130281843D01*
X87242191Y-130422191D01*
X87101843Y-130632235D01*
X87052560Y-130880000D01*
X85199846Y-130880000D01*
X85127809Y-130772191D01*
X84917765Y-130631843D01*
X84670000Y-130582560D01*
X82970000Y-130582560D01*
X82722235Y-130631843D01*
X82512191Y-130772191D01*
X82371843Y-130982235D01*
X82351261Y-131085708D01*
X82046924Y-130808355D01*
X81636890Y-130638524D01*
X81407000Y-130759845D01*
X81153000Y-130759845D01*
X80923110Y-130638524D01*
X80513076Y-130808355D01*
X80084817Y-131198642D01*
X79838514Y-131723108D01*
X77597000Y-131723108D01*
X77597000Y-121920000D01*
X79968276Y-121920000D01*
X80153380Y-122850580D01*
X80680511Y-123639489D01*
X81469420Y-124166620D01*
X82165103Y-124305000D01*
X82634897Y-124305000D01*
X83330580Y-124166620D01*
X84119489Y-123639489D01*
X84207681Y-123507500D01*
X97412560Y-123507500D01*
X97412560Y-125412500D01*
X97461843Y-125660265D01*
X97602191Y-125870309D01*
X97812235Y-126010657D01*
X98060000Y-126059940D01*
X100060000Y-126059940D01*
X100307765Y-126010657D01*
X100517809Y-125870309D01*
X100658157Y-125660265D01*
X100707440Y-125412500D01*
X100707440Y-123507500D01*
X100658157Y-123259735D01*
X100517809Y-123049691D01*
X100312857Y-122912745D01*
X100435973Y-122786924D01*
X100650563Y-122292980D01*
X100530594Y-122047000D01*
X99187000Y-122047000D01*
X99187000Y-122067000D01*
X98933000Y-122067000D01*
X98933000Y-122047000D01*
X97589406Y-122047000D01*
X97469437Y-122292980D01*
X97684027Y-122786924D01*
X97807143Y-122912745D01*
X97602191Y-123049691D01*
X97461843Y-123259735D01*
X97412560Y-123507500D01*
X84207681Y-123507500D01*
X84646620Y-122850580D01*
X84831724Y-121920000D01*
X84646620Y-120989420D01*
X84119489Y-120200511D01*
X83330580Y-119673380D01*
X82634897Y-119535000D01*
X82165103Y-119535000D01*
X81469420Y-119673380D01*
X80680511Y-120200511D01*
X80153380Y-120989420D01*
X79968276Y-121920000D01*
X77597000Y-121920000D01*
X77597000Y-113101564D01*
X77605000Y-113141782D01*
X77670854Y-113472854D01*
X77921711Y-113848289D01*
X78016482Y-113911613D01*
X84208389Y-120103521D01*
X84271711Y-120198289D01*
X84525133Y-120367620D01*
X84647145Y-120449146D01*
X85089999Y-120537235D01*
X85201782Y-120515000D01*
X97861614Y-120515000D01*
X97867977Y-120524523D01*
X98069474Y-120659159D01*
X97684027Y-121053076D01*
X97469437Y-121547020D01*
X97589406Y-121793000D01*
X98933000Y-121793000D01*
X98933000Y-121773000D01*
X99187000Y-121773000D01*
X99187000Y-121793000D01*
X100530594Y-121793000D01*
X100650563Y-121547020D01*
X100435973Y-121053076D01*
X100050526Y-120659159D01*
X100252023Y-120524523D01*
X100602891Y-119999411D01*
X100726100Y-119380000D01*
X100602891Y-118760589D01*
X100252023Y-118235477D01*
X99726911Y-117884609D01*
X99263850Y-117792500D01*
X98856150Y-117792500D01*
X98393089Y-117884609D01*
X97867977Y-118235477D01*
X97861614Y-118245000D01*
X85560132Y-118245000D01*
X79875000Y-112559869D01*
X79875000Y-103864506D01*
X79895000Y-103864506D01*
X79895000Y-104415494D01*
X80105853Y-104924540D01*
X80495460Y-105314147D01*
X81004506Y-105525000D01*
X81555494Y-105525000D01*
X82064540Y-105314147D01*
X82454147Y-104924540D01*
X82665000Y-104415494D01*
X82665000Y-103864506D01*
X82454147Y-103355460D01*
X82064540Y-102965853D01*
X81555494Y-102755000D01*
X81004506Y-102755000D01*
X80495460Y-102965853D01*
X80105853Y-103355460D01*
X79895000Y-103864506D01*
X79875000Y-103864506D01*
X79875000Y-100739234D01*
X90305000Y-100739234D01*
X90305000Y-101190766D01*
X90455000Y-101552899D01*
X90455001Y-104187099D01*
X90305000Y-104549234D01*
X90305000Y-105000766D01*
X90477793Y-105417926D01*
X90797074Y-105737207D01*
X91214234Y-105910000D01*
X91665766Y-105910000D01*
X92082926Y-105737207D01*
X92402207Y-105417926D01*
X92575000Y-105000766D01*
X92575000Y-104549234D01*
X92425000Y-104187101D01*
X92425000Y-101552899D01*
X92575000Y-101190766D01*
X92575000Y-100739234D01*
X92402207Y-100322074D01*
X92082926Y-100002793D01*
X91665766Y-99830000D01*
X91214234Y-99830000D01*
X90797074Y-100002793D01*
X90477793Y-100322074D01*
X90305000Y-100739234D01*
X79875000Y-100739234D01*
X79875000Y-98984506D01*
X79895000Y-98984506D01*
X79895000Y-99535494D01*
X80105853Y-100044540D01*
X80495460Y-100434147D01*
X81004506Y-100645000D01*
X81555494Y-100645000D01*
X82064540Y-100434147D01*
X82454147Y-100044540D01*
X82665000Y-99535494D01*
X82665000Y-98984506D01*
X82454147Y-98475460D01*
X82064540Y-98085853D01*
X81555494Y-97875000D01*
X81004506Y-97875000D01*
X80495460Y-98085853D01*
X80105853Y-98475460D01*
X79895000Y-98984506D01*
X79875000Y-98984506D01*
X79875000Y-93754234D01*
X79831381Y-93648928D01*
X79809146Y-93537145D01*
X79745826Y-93442380D01*
X79702207Y-93337074D01*
X79621609Y-93256476D01*
X79558289Y-93161711D01*
X79463524Y-93098391D01*
X79382926Y-93017793D01*
X79277620Y-92974174D01*
X79182855Y-92910854D01*
X79071072Y-92888619D01*
X78965766Y-92845000D01*
X78851783Y-92845000D01*
X78740000Y-92822765D01*
X78628217Y-92845000D01*
X78514234Y-92845000D01*
X78408927Y-92888619D01*
X78297146Y-92910854D01*
X78202383Y-92974173D01*
X78097074Y-93017793D01*
X78016474Y-93098393D01*
X77921712Y-93161711D01*
X77858394Y-93256473D01*
X77777793Y-93337074D01*
X77734172Y-93442384D01*
X77670855Y-93537145D01*
X77648621Y-93648923D01*
X77605000Y-93754234D01*
X77605000Y-94205766D01*
X77605001Y-94205768D01*
X77605000Y-111648217D01*
X77605000Y-112918217D01*
X77597000Y-112958436D01*
X77597000Y-84229234D01*
X110625000Y-84229234D01*
X110625000Y-84680766D01*
X110725001Y-84922190D01*
X110725000Y-123088066D01*
X110704724Y-123190000D01*
X110725000Y-123291934D01*
X110785052Y-123593836D01*
X111013807Y-123936193D01*
X111100227Y-123993937D01*
X111532560Y-124426270D01*
X111532560Y-125310000D01*
X111581843Y-125557765D01*
X111722191Y-125767809D01*
X111932235Y-125908157D01*
X112180000Y-125957440D01*
X113880000Y-125957440D01*
X114127765Y-125908157D01*
X114337809Y-125767809D01*
X114478157Y-125557765D01*
X114487184Y-125512381D01*
X114499375Y-125530625D01*
X114990582Y-125858839D01*
X115423744Y-125945000D01*
X115716256Y-125945000D01*
X116149418Y-125858839D01*
X116640625Y-125530625D01*
X116968839Y-125039418D01*
X117084092Y-124460000D01*
X121675908Y-124460000D01*
X121791161Y-125039418D01*
X122119375Y-125530625D01*
X122155000Y-125554429D01*
X122155001Y-130985571D01*
X122119375Y-131009375D01*
X121791161Y-131500582D01*
X121675908Y-132080000D01*
X121791161Y-132659418D01*
X122119375Y-133150625D01*
X122610582Y-133478839D01*
X123043744Y-133565000D01*
X123336256Y-133565000D01*
X123769418Y-133478839D01*
X124260625Y-133150625D01*
X124272816Y-133132381D01*
X124281843Y-133177765D01*
X124422191Y-133387809D01*
X124632235Y-133528157D01*
X124880000Y-133577440D01*
X126580000Y-133577440D01*
X126827765Y-133528157D01*
X127037809Y-133387809D01*
X127178157Y-133177765D01*
X127227440Y-132930000D01*
X127227440Y-131230000D01*
X127178157Y-130982235D01*
X127037809Y-130772191D01*
X126827765Y-130631843D01*
X126765000Y-130619358D01*
X126765000Y-125920642D01*
X126827765Y-125908157D01*
X127037809Y-125767809D01*
X127178157Y-125557765D01*
X127227440Y-125310000D01*
X127227440Y-124460000D01*
X134375908Y-124460000D01*
X134491161Y-125039418D01*
X134819375Y-125530625D01*
X134855000Y-125554429D01*
X134855001Y-130985571D01*
X134819375Y-131009375D01*
X134491161Y-131500582D01*
X134375908Y-132080000D01*
X134491161Y-132659418D01*
X134819375Y-133150625D01*
X135310582Y-133478839D01*
X135743744Y-133565000D01*
X136036256Y-133565000D01*
X136469418Y-133478839D01*
X136960625Y-133150625D01*
X136972816Y-133132381D01*
X136981843Y-133177765D01*
X137122191Y-133387809D01*
X137332235Y-133528157D01*
X137580000Y-133577440D01*
X139280000Y-133577440D01*
X139527765Y-133528157D01*
X139737809Y-133387809D01*
X139878157Y-133177765D01*
X139927440Y-132930000D01*
X139927440Y-131230000D01*
X139878157Y-130982235D01*
X139737809Y-130772191D01*
X139527765Y-130631843D01*
X139465000Y-130619358D01*
X139465000Y-125920642D01*
X139527765Y-125908157D01*
X139737809Y-125767809D01*
X139878157Y-125557765D01*
X139927440Y-125310000D01*
X139927440Y-124460000D01*
X147075908Y-124460000D01*
X147191161Y-125039418D01*
X147519375Y-125530625D01*
X147555000Y-125554429D01*
X147555001Y-130985571D01*
X147519375Y-131009375D01*
X147191161Y-131500582D01*
X147075908Y-132080000D01*
X147191161Y-132659418D01*
X147519375Y-133150625D01*
X148010582Y-133478839D01*
X148443744Y-133565000D01*
X148736256Y-133565000D01*
X149169418Y-133478839D01*
X149660625Y-133150625D01*
X149672816Y-133132381D01*
X149681843Y-133177765D01*
X149822191Y-133387809D01*
X150032235Y-133528157D01*
X150280000Y-133577440D01*
X151980000Y-133577440D01*
X152227765Y-133528157D01*
X152437809Y-133387809D01*
X152578157Y-133177765D01*
X152627440Y-132930000D01*
X152627440Y-131230000D01*
X152578157Y-130982235D01*
X152437809Y-130772191D01*
X152227765Y-130631843D01*
X152165000Y-130619358D01*
X152165000Y-125920642D01*
X152227765Y-125908157D01*
X152437809Y-125767809D01*
X152578157Y-125557765D01*
X152627440Y-125310000D01*
X152627440Y-124460000D01*
X161045908Y-124460000D01*
X161161161Y-125039418D01*
X161489375Y-125530625D01*
X161525000Y-125554429D01*
X161525001Y-130985571D01*
X161489375Y-131009375D01*
X161161161Y-131500582D01*
X161045908Y-132080000D01*
X161161161Y-132659418D01*
X161489375Y-133150625D01*
X161980582Y-133478839D01*
X162413744Y-133565000D01*
X162706256Y-133565000D01*
X163139418Y-133478839D01*
X163630625Y-133150625D01*
X163642816Y-133132381D01*
X163651843Y-133177765D01*
X163792191Y-133387809D01*
X164002235Y-133528157D01*
X164250000Y-133577440D01*
X165950000Y-133577440D01*
X166197765Y-133528157D01*
X166407809Y-133387809D01*
X166548157Y-133177765D01*
X166597440Y-132930000D01*
X166597440Y-131230000D01*
X166548157Y-130982235D01*
X166407809Y-130772191D01*
X166197765Y-130631843D01*
X166135000Y-130619358D01*
X166135000Y-125920642D01*
X166197765Y-125908157D01*
X166407809Y-125767809D01*
X166548157Y-125557765D01*
X166597440Y-125310000D01*
X166597440Y-123610000D01*
X173762560Y-123610000D01*
X173762560Y-125310000D01*
X173811843Y-125557765D01*
X173952191Y-125767809D01*
X174162235Y-125908157D01*
X174410000Y-125957440D01*
X176110000Y-125957440D01*
X176357765Y-125908157D01*
X176567809Y-125767809D01*
X176708157Y-125557765D01*
X176717184Y-125512381D01*
X176729375Y-125530625D01*
X177220582Y-125858839D01*
X177653744Y-125945000D01*
X177946256Y-125945000D01*
X178379418Y-125858839D01*
X178870625Y-125530625D01*
X179198839Y-125039418D01*
X179314092Y-124460000D01*
X179198839Y-123880582D01*
X178870625Y-123389375D01*
X178685000Y-123265344D01*
X178685000Y-83270133D01*
X178762207Y-83192926D01*
X178935000Y-82775766D01*
X178935000Y-82324234D01*
X178762207Y-81907074D01*
X178442926Y-81587793D01*
X178025766Y-81415000D01*
X177574234Y-81415000D01*
X177157074Y-81587793D01*
X176837793Y-81907074D01*
X176665000Y-82324234D01*
X176665000Y-82775766D01*
X176837793Y-83192926D01*
X176915001Y-83270134D01*
X176915000Y-123265344D01*
X176729375Y-123389375D01*
X176717184Y-123407619D01*
X176708157Y-123362235D01*
X176567809Y-123152191D01*
X176357765Y-123011843D01*
X176145000Y-122969522D01*
X176145000Y-83270133D01*
X176222207Y-83192926D01*
X176395000Y-82775766D01*
X176395000Y-82324234D01*
X176222207Y-81907074D01*
X175902926Y-81587793D01*
X175485766Y-81415000D01*
X175034234Y-81415000D01*
X174617074Y-81587793D01*
X174297793Y-81907074D01*
X174125000Y-82324234D01*
X174125000Y-82775766D01*
X174297793Y-83192926D01*
X174375001Y-83270134D01*
X174375000Y-122969522D01*
X174162235Y-123011843D01*
X173952191Y-123152191D01*
X173811843Y-123362235D01*
X173762560Y-123610000D01*
X166597440Y-123610000D01*
X166548157Y-123362235D01*
X166407809Y-123152191D01*
X166197765Y-123011843D01*
X165985000Y-122969522D01*
X165985000Y-69300133D01*
X166062207Y-69222926D01*
X166235000Y-68805766D01*
X166235000Y-68354234D01*
X166062207Y-67937074D01*
X165742926Y-67617793D01*
X165325766Y-67445000D01*
X164874234Y-67445000D01*
X164457074Y-67617793D01*
X164137793Y-67937074D01*
X163965000Y-68354234D01*
X163965000Y-68805766D01*
X164137793Y-69222926D01*
X164215001Y-69300134D01*
X164215000Y-122969522D01*
X164002235Y-123011843D01*
X163792191Y-123152191D01*
X163651843Y-123362235D01*
X163642816Y-123407619D01*
X163630625Y-123389375D01*
X163445000Y-123265344D01*
X163445000Y-69300133D01*
X163522207Y-69222926D01*
X163695000Y-68805766D01*
X163695000Y-68354234D01*
X163522207Y-67937074D01*
X163202926Y-67617793D01*
X162785766Y-67445000D01*
X162334234Y-67445000D01*
X161917074Y-67617793D01*
X161597793Y-67937074D01*
X161425000Y-68354234D01*
X161425000Y-68805766D01*
X161597793Y-69222926D01*
X161675001Y-69300134D01*
X161675000Y-123265344D01*
X161489375Y-123389375D01*
X161161161Y-123880582D01*
X161045908Y-124460000D01*
X152627440Y-124460000D01*
X152627440Y-123610000D01*
X152578157Y-123362235D01*
X152437809Y-123152191D01*
X152227765Y-123011843D01*
X152015000Y-122969522D01*
X152015000Y-69300133D01*
X152092207Y-69222926D01*
X152265000Y-68805766D01*
X152265000Y-68354234D01*
X152092207Y-67937074D01*
X151772926Y-67617793D01*
X151355766Y-67445000D01*
X150904234Y-67445000D01*
X150487074Y-67617793D01*
X150167793Y-67937074D01*
X149995000Y-68354234D01*
X149995000Y-68805766D01*
X150167793Y-69222926D01*
X150245001Y-69300134D01*
X150245000Y-122969522D01*
X150032235Y-123011843D01*
X149822191Y-123152191D01*
X149681843Y-123362235D01*
X149672816Y-123407619D01*
X149660625Y-123389375D01*
X149475000Y-123265344D01*
X149475000Y-69300133D01*
X149552207Y-69222926D01*
X149725000Y-68805766D01*
X149725000Y-68354234D01*
X149552207Y-67937074D01*
X149232926Y-67617793D01*
X148815766Y-67445000D01*
X148364234Y-67445000D01*
X147947074Y-67617793D01*
X147627793Y-67937074D01*
X147455000Y-68354234D01*
X147455000Y-68805766D01*
X147627793Y-69222926D01*
X147705001Y-69300134D01*
X147705000Y-123265344D01*
X147519375Y-123389375D01*
X147191161Y-123880582D01*
X147075908Y-124460000D01*
X139927440Y-124460000D01*
X139927440Y-123610000D01*
X139878157Y-123362235D01*
X139737809Y-123152191D01*
X139527765Y-123011843D01*
X139315000Y-122969522D01*
X139315000Y-69300133D01*
X139392207Y-69222926D01*
X139565000Y-68805766D01*
X139565000Y-68354234D01*
X139392207Y-67937074D01*
X139072926Y-67617793D01*
X138655766Y-67445000D01*
X138204234Y-67445000D01*
X137787074Y-67617793D01*
X137467793Y-67937074D01*
X137295000Y-68354234D01*
X137295000Y-68805766D01*
X137467793Y-69222926D01*
X137545001Y-69300134D01*
X137545000Y-122969522D01*
X137332235Y-123011843D01*
X137122191Y-123152191D01*
X136981843Y-123362235D01*
X136972816Y-123407619D01*
X136960625Y-123389375D01*
X136775000Y-123265344D01*
X136775000Y-69300133D01*
X136852207Y-69222926D01*
X137025000Y-68805766D01*
X137025000Y-68354234D01*
X136852207Y-67937074D01*
X136532926Y-67617793D01*
X136115766Y-67445000D01*
X135664234Y-67445000D01*
X135247074Y-67617793D01*
X134927793Y-67937074D01*
X134755000Y-68354234D01*
X134755000Y-68805766D01*
X134927793Y-69222926D01*
X135005001Y-69300134D01*
X135005000Y-123265344D01*
X134819375Y-123389375D01*
X134491161Y-123880582D01*
X134375908Y-124460000D01*
X127227440Y-124460000D01*
X127227440Y-123610000D01*
X127178157Y-123362235D01*
X127037809Y-123152191D01*
X126827765Y-123011843D01*
X126615000Y-122969522D01*
X126615000Y-69300133D01*
X126692207Y-69222926D01*
X126865000Y-68805766D01*
X126865000Y-68354234D01*
X126692207Y-67937074D01*
X126372926Y-67617793D01*
X125955766Y-67445000D01*
X125504234Y-67445000D01*
X125087074Y-67617793D01*
X124767793Y-67937074D01*
X124595000Y-68354234D01*
X124595000Y-68805766D01*
X124767793Y-69222926D01*
X124845001Y-69300134D01*
X124845000Y-122969522D01*
X124632235Y-123011843D01*
X124422191Y-123152191D01*
X124281843Y-123362235D01*
X124272816Y-123407619D01*
X124260625Y-123389375D01*
X124075000Y-123265344D01*
X124075000Y-69300133D01*
X124152207Y-69222926D01*
X124325000Y-68805766D01*
X124325000Y-68354234D01*
X124152207Y-67937074D01*
X123832926Y-67617793D01*
X123415766Y-67445000D01*
X122964234Y-67445000D01*
X122547074Y-67617793D01*
X122227793Y-67937074D01*
X122055000Y-68354234D01*
X122055000Y-68805766D01*
X122227793Y-69222926D01*
X122305001Y-69300134D01*
X122305000Y-123265344D01*
X122119375Y-123389375D01*
X121791161Y-123880582D01*
X121675908Y-124460000D01*
X117084092Y-124460000D01*
X116968839Y-123880582D01*
X116640625Y-123389375D01*
X116605000Y-123365571D01*
X116605000Y-85826934D01*
X116625276Y-85724999D01*
X116544948Y-85321163D01*
X116316193Y-84978807D01*
X116229776Y-84921065D01*
X115362208Y-84053497D01*
X115262207Y-83812074D01*
X114942926Y-83492793D01*
X114525766Y-83320000D01*
X114074234Y-83320000D01*
X113657074Y-83492793D01*
X113337793Y-83812074D01*
X113165000Y-84229234D01*
X113165000Y-84680766D01*
X113337793Y-85097926D01*
X113657074Y-85417207D01*
X113898497Y-85517208D01*
X114535001Y-86153712D01*
X114535000Y-88366934D01*
X114535001Y-88366939D01*
X114535000Y-123365571D01*
X114499375Y-123389375D01*
X114487184Y-123407619D01*
X114478157Y-123362235D01*
X114337809Y-123152191D01*
X114127765Y-123011843D01*
X113880000Y-122962560D01*
X112996270Y-122962560D01*
X112795000Y-122761290D01*
X112795000Y-84922188D01*
X112895000Y-84680766D01*
X112895000Y-84229234D01*
X112722207Y-83812074D01*
X112402926Y-83492793D01*
X111985766Y-83320000D01*
X111534234Y-83320000D01*
X111117074Y-83492793D01*
X110797793Y-83812074D01*
X110625000Y-84229234D01*
X77597000Y-84229234D01*
X77597000Y-80844506D01*
X79895000Y-80844506D01*
X79895000Y-81395494D01*
X80105853Y-81904540D01*
X80495460Y-82294147D01*
X81004506Y-82505000D01*
X81555494Y-82505000D01*
X82064540Y-82294147D01*
X82454147Y-81904540D01*
X82665000Y-81395494D01*
X82665000Y-80844506D01*
X82454147Y-80335460D01*
X82064540Y-79945853D01*
X81555494Y-79735000D01*
X81004506Y-79735000D01*
X80495460Y-79945853D01*
X80105853Y-80335460D01*
X79895000Y-80844506D01*
X77597000Y-80844506D01*
X77597000Y-75964506D01*
X79895000Y-75964506D01*
X79895000Y-76515494D01*
X80105853Y-77024540D01*
X80495460Y-77414147D01*
X81004506Y-77625000D01*
X81555494Y-77625000D01*
X82064540Y-77414147D01*
X82454147Y-77024540D01*
X82665000Y-76515494D01*
X82665000Y-75964506D01*
X82454147Y-75455460D01*
X82064540Y-75065853D01*
X81555494Y-74855000D01*
X81004506Y-74855000D01*
X80495460Y-75065853D01*
X80105853Y-75455460D01*
X79895000Y-75964506D01*
X77597000Y-75964506D01*
X77597000Y-73660000D01*
X101355908Y-73660000D01*
X101471161Y-74239418D01*
X101799375Y-74730625D01*
X102290582Y-75058839D01*
X102723744Y-75145000D01*
X103016256Y-75145000D01*
X103449418Y-75058839D01*
X103940625Y-74730625D01*
X103952816Y-74712381D01*
X103961843Y-74757765D01*
X104102191Y-74967809D01*
X104312235Y-75108157D01*
X104560000Y-75157440D01*
X106260000Y-75157440D01*
X106507765Y-75108157D01*
X106717809Y-74967809D01*
X106858157Y-74757765D01*
X106907440Y-74510000D01*
X106907440Y-72810000D01*
X106858157Y-72562235D01*
X106717809Y-72352191D01*
X106507765Y-72211843D01*
X106260000Y-72162560D01*
X104560000Y-72162560D01*
X104312235Y-72211843D01*
X104102191Y-72352191D01*
X103961843Y-72562235D01*
X103952816Y-72607619D01*
X103940625Y-72589375D01*
X103449418Y-72261161D01*
X103016256Y-72175000D01*
X102723744Y-72175000D01*
X102290582Y-72261161D01*
X101799375Y-72589375D01*
X101471161Y-73080582D01*
X101355908Y-73660000D01*
X77597000Y-73660000D01*
X77597000Y-69850000D01*
X101355908Y-69850000D01*
X101471161Y-70429418D01*
X101799375Y-70920625D01*
X102290582Y-71248839D01*
X102723744Y-71335000D01*
X103016256Y-71335000D01*
X103449418Y-71248839D01*
X103940625Y-70920625D01*
X103952816Y-70902381D01*
X103961843Y-70947765D01*
X104102191Y-71157809D01*
X104312235Y-71298157D01*
X104560000Y-71347440D01*
X106260000Y-71347440D01*
X106507765Y-71298157D01*
X106717809Y-71157809D01*
X106858157Y-70947765D01*
X106907440Y-70700000D01*
X106907440Y-69000000D01*
X106858157Y-68752235D01*
X106717809Y-68542191D01*
X106507765Y-68401843D01*
X106260000Y-68352560D01*
X104560000Y-68352560D01*
X104312235Y-68401843D01*
X104102191Y-68542191D01*
X103961843Y-68752235D01*
X103952816Y-68797619D01*
X103940625Y-68779375D01*
X103449418Y-68451161D01*
X103016256Y-68365000D01*
X102723744Y-68365000D01*
X102290582Y-68451161D01*
X101799375Y-68779375D01*
X101471161Y-69270582D01*
X101355908Y-69850000D01*
X77597000Y-69850000D01*
X77597000Y-66389039D01*
X86238096Y-66389039D01*
X86398959Y-66777423D01*
X86774866Y-67192389D01*
X87280959Y-67431914D01*
X87503000Y-67310629D01*
X87503000Y-66167000D01*
X87757000Y-66167000D01*
X87757000Y-67310629D01*
X87979041Y-67431914D01*
X88485134Y-67192389D01*
X88861041Y-66777423D01*
X89021904Y-66389039D01*
X88899915Y-66167000D01*
X87757000Y-66167000D01*
X87503000Y-66167000D01*
X86360085Y-66167000D01*
X86238096Y-66389039D01*
X77597000Y-66389039D01*
X77597000Y-66040000D01*
X93786887Y-66040000D01*
X93898260Y-66599909D01*
X94215423Y-67074577D01*
X94690091Y-67391740D01*
X95108667Y-67475000D01*
X95391333Y-67475000D01*
X95809909Y-67391740D01*
X96284577Y-67074577D01*
X96601740Y-66599909D01*
X96713113Y-66040000D01*
X101355908Y-66040000D01*
X101471161Y-66619418D01*
X101799375Y-67110625D01*
X102290582Y-67438839D01*
X102723744Y-67525000D01*
X103016256Y-67525000D01*
X103449418Y-67438839D01*
X103940625Y-67110625D01*
X103952816Y-67092381D01*
X103961843Y-67137765D01*
X104102191Y-67347809D01*
X104312235Y-67488157D01*
X104560000Y-67537440D01*
X106260000Y-67537440D01*
X106507765Y-67488157D01*
X106717809Y-67347809D01*
X106858157Y-67137765D01*
X106907440Y-66890000D01*
X106907440Y-65190000D01*
X106858157Y-64942235D01*
X106717809Y-64732191D01*
X106507765Y-64591843D01*
X106260000Y-64542560D01*
X104560000Y-64542560D01*
X104312235Y-64591843D01*
X104102191Y-64732191D01*
X103961843Y-64942235D01*
X103952816Y-64987619D01*
X103940625Y-64969375D01*
X103449418Y-64641161D01*
X103016256Y-64555000D01*
X102723744Y-64555000D01*
X102290582Y-64641161D01*
X101799375Y-64969375D01*
X101471161Y-65460582D01*
X101355908Y-66040000D01*
X96713113Y-66040000D01*
X96601740Y-65480091D01*
X96284577Y-65005423D01*
X95809909Y-64688260D01*
X95391333Y-64605000D01*
X95108667Y-64605000D01*
X94690091Y-64688260D01*
X94215423Y-65005423D01*
X93898260Y-65480091D01*
X93786887Y-66040000D01*
X77597000Y-66040000D01*
X77597000Y-65690961D01*
X86238096Y-65690961D01*
X86360085Y-65913000D01*
X87503000Y-65913000D01*
X87503000Y-64769371D01*
X87757000Y-64769371D01*
X87757000Y-65913000D01*
X88899915Y-65913000D01*
X89021904Y-65690961D01*
X88861041Y-65302577D01*
X88485134Y-64887611D01*
X87979041Y-64648086D01*
X87757000Y-64769371D01*
X87503000Y-64769371D01*
X87280959Y-64648086D01*
X86774866Y-64887611D01*
X86398959Y-65302577D01*
X86238096Y-65690961D01*
X77597000Y-65690961D01*
X77597000Y-60734234D01*
X122055000Y-60734234D01*
X122055000Y-61185766D01*
X122227793Y-61602926D01*
X122547074Y-61922207D01*
X122964234Y-62095000D01*
X123415766Y-62095000D01*
X123832926Y-61922207D01*
X124152207Y-61602926D01*
X124325000Y-61185766D01*
X124325000Y-60734234D01*
X134755000Y-60734234D01*
X134755000Y-61185766D01*
X134927793Y-61602926D01*
X135247074Y-61922207D01*
X135664234Y-62095000D01*
X136115766Y-62095000D01*
X136532926Y-61922207D01*
X136852207Y-61602926D01*
X137025000Y-61185766D01*
X137025000Y-60734234D01*
X147455000Y-60734234D01*
X147455000Y-61185766D01*
X147627793Y-61602926D01*
X147947074Y-61922207D01*
X148364234Y-62095000D01*
X148815766Y-62095000D01*
X149232926Y-61922207D01*
X149552207Y-61602926D01*
X149725000Y-61185766D01*
X149725000Y-60734234D01*
X161425000Y-60734234D01*
X161425000Y-61185766D01*
X161597793Y-61602926D01*
X161917074Y-61922207D01*
X162334234Y-62095000D01*
X162785766Y-62095000D01*
X163202926Y-61922207D01*
X163522207Y-61602926D01*
X163695000Y-61185766D01*
X163695000Y-60734234D01*
X163545000Y-60372101D01*
X163545000Y-55018000D01*
X163738000Y-54825000D01*
X163976256Y-54825000D01*
X164409418Y-54738839D01*
X164900625Y-54410625D01*
X164915096Y-54388967D01*
X164981673Y-54549698D01*
X165160301Y-54728327D01*
X165393690Y-54825000D01*
X166084250Y-54825000D01*
X166243000Y-54666250D01*
X166243000Y-53467000D01*
X166497000Y-53467000D01*
X166497000Y-54666250D01*
X166655750Y-54825000D01*
X167346310Y-54825000D01*
X167579699Y-54728327D01*
X167758327Y-54549698D01*
X167855000Y-54316309D01*
X167855000Y-53625750D01*
X167696250Y-53467000D01*
X166497000Y-53467000D01*
X166243000Y-53467000D01*
X166223000Y-53467000D01*
X166223000Y-53340000D01*
X177555908Y-53340000D01*
X177671161Y-53919418D01*
X177999375Y-54410625D01*
X178080001Y-54464497D01*
X178080000Y-57837101D01*
X177930000Y-58199234D01*
X177930000Y-58650766D01*
X178102793Y-59067926D01*
X178422074Y-59387207D01*
X178839234Y-59560000D01*
X179290766Y-59560000D01*
X179707926Y-59387207D01*
X180027207Y-59067926D01*
X180200000Y-58650766D01*
X180200000Y-58199234D01*
X180050000Y-57837101D01*
X180050000Y-54471179D01*
X180140625Y-54410625D01*
X180155096Y-54388967D01*
X180221673Y-54549698D01*
X180400301Y-54728327D01*
X180633690Y-54825000D01*
X181324250Y-54825000D01*
X181483000Y-54666250D01*
X181483000Y-53467000D01*
X181737000Y-53467000D01*
X181737000Y-54666250D01*
X181895750Y-54825000D01*
X182586310Y-54825000D01*
X182819699Y-54728327D01*
X182998327Y-54549698D01*
X183095000Y-54316309D01*
X183095000Y-53625750D01*
X182936250Y-53467000D01*
X181737000Y-53467000D01*
X181483000Y-53467000D01*
X181463000Y-53467000D01*
X181463000Y-53213000D01*
X181483000Y-53213000D01*
X181483000Y-52013750D01*
X181737000Y-52013750D01*
X181737000Y-53213000D01*
X182936250Y-53213000D01*
X183095000Y-53054250D01*
X183095000Y-52363691D01*
X182998327Y-52130302D01*
X182819699Y-51951673D01*
X182586310Y-51855000D01*
X181895750Y-51855000D01*
X181737000Y-52013750D01*
X181483000Y-52013750D01*
X181324250Y-51855000D01*
X180633690Y-51855000D01*
X180400301Y-51951673D01*
X180221673Y-52130302D01*
X180155096Y-52291033D01*
X180140625Y-52269375D01*
X179649418Y-51941161D01*
X179216256Y-51855000D01*
X178923744Y-51855000D01*
X178490582Y-51941161D01*
X177999375Y-52269375D01*
X177671161Y-52760582D01*
X177555908Y-53340000D01*
X166223000Y-53340000D01*
X166223000Y-53213000D01*
X166243000Y-53213000D01*
X166243000Y-52013750D01*
X166497000Y-52013750D01*
X166497000Y-53213000D01*
X167696250Y-53213000D01*
X167855000Y-53054250D01*
X167855000Y-52363691D01*
X167758327Y-52130302D01*
X167579699Y-51951673D01*
X167346310Y-51855000D01*
X166655750Y-51855000D01*
X166497000Y-52013750D01*
X166243000Y-52013750D01*
X166084250Y-51855000D01*
X165393690Y-51855000D01*
X165160301Y-51951673D01*
X164981673Y-52130302D01*
X164915096Y-52291033D01*
X164900625Y-52269375D01*
X164409418Y-51941161D01*
X163976256Y-51855000D01*
X163683744Y-51855000D01*
X163250582Y-51941161D01*
X162759375Y-52269375D01*
X162431161Y-52760582D01*
X162315908Y-53340000D01*
X162335998Y-53441002D01*
X161932096Y-53844904D01*
X161849856Y-53899855D01*
X161794905Y-53982095D01*
X161794902Y-53982098D01*
X161632151Y-54225673D01*
X161555704Y-54610000D01*
X161575001Y-54707013D01*
X161575000Y-60372101D01*
X161425000Y-60734234D01*
X149725000Y-60734234D01*
X149575000Y-60372101D01*
X149575000Y-55018000D01*
X149768000Y-54825000D01*
X150006256Y-54825000D01*
X150439418Y-54738839D01*
X150930625Y-54410625D01*
X150945096Y-54388967D01*
X151011673Y-54549698D01*
X151190301Y-54728327D01*
X151423690Y-54825000D01*
X152114250Y-54825000D01*
X152273000Y-54666250D01*
X152273000Y-53467000D01*
X152527000Y-53467000D01*
X152527000Y-54666250D01*
X152685750Y-54825000D01*
X153376310Y-54825000D01*
X153609699Y-54728327D01*
X153788327Y-54549698D01*
X153885000Y-54316309D01*
X153885000Y-53625750D01*
X153726250Y-53467000D01*
X152527000Y-53467000D01*
X152273000Y-53467000D01*
X152253000Y-53467000D01*
X152253000Y-53213000D01*
X152273000Y-53213000D01*
X152273000Y-52013750D01*
X152527000Y-52013750D01*
X152527000Y-53213000D01*
X153726250Y-53213000D01*
X153885000Y-53054250D01*
X153885000Y-52363691D01*
X153788327Y-52130302D01*
X153609699Y-51951673D01*
X153376310Y-51855000D01*
X152685750Y-51855000D01*
X152527000Y-52013750D01*
X152273000Y-52013750D01*
X152114250Y-51855000D01*
X151423690Y-51855000D01*
X151190301Y-51951673D01*
X151011673Y-52130302D01*
X150945096Y-52291033D01*
X150930625Y-52269375D01*
X150439418Y-51941161D01*
X150006256Y-51855000D01*
X149713744Y-51855000D01*
X149280582Y-51941161D01*
X148789375Y-52269375D01*
X148461161Y-52760582D01*
X148345908Y-53340000D01*
X148365998Y-53441002D01*
X147962096Y-53844904D01*
X147879856Y-53899855D01*
X147824905Y-53982095D01*
X147824902Y-53982098D01*
X147662151Y-54225673D01*
X147585704Y-54610000D01*
X147605001Y-54707013D01*
X147605000Y-60372101D01*
X147455000Y-60734234D01*
X137025000Y-60734234D01*
X136875000Y-60372101D01*
X136875000Y-55018000D01*
X137068000Y-54825000D01*
X137306256Y-54825000D01*
X137739418Y-54738839D01*
X138230625Y-54410625D01*
X138245096Y-54388967D01*
X138311673Y-54549698D01*
X138490301Y-54728327D01*
X138723690Y-54825000D01*
X139414250Y-54825000D01*
X139573000Y-54666250D01*
X139573000Y-53467000D01*
X139827000Y-53467000D01*
X139827000Y-54666250D01*
X139985750Y-54825000D01*
X140676310Y-54825000D01*
X140909699Y-54728327D01*
X141088327Y-54549698D01*
X141185000Y-54316309D01*
X141185000Y-53625750D01*
X141026250Y-53467000D01*
X139827000Y-53467000D01*
X139573000Y-53467000D01*
X139553000Y-53467000D01*
X139553000Y-53213000D01*
X139573000Y-53213000D01*
X139573000Y-52013750D01*
X139827000Y-52013750D01*
X139827000Y-53213000D01*
X141026250Y-53213000D01*
X141185000Y-53054250D01*
X141185000Y-52363691D01*
X141088327Y-52130302D01*
X140909699Y-51951673D01*
X140676310Y-51855000D01*
X139985750Y-51855000D01*
X139827000Y-52013750D01*
X139573000Y-52013750D01*
X139414250Y-51855000D01*
X138723690Y-51855000D01*
X138490301Y-51951673D01*
X138311673Y-52130302D01*
X138245096Y-52291033D01*
X138230625Y-52269375D01*
X137739418Y-51941161D01*
X137306256Y-51855000D01*
X137013744Y-51855000D01*
X136580582Y-51941161D01*
X136089375Y-52269375D01*
X135761161Y-52760582D01*
X135645908Y-53340000D01*
X135665998Y-53441002D01*
X135262096Y-53844904D01*
X135179856Y-53899855D01*
X135124905Y-53982095D01*
X135124902Y-53982098D01*
X134962151Y-54225673D01*
X134885704Y-54610000D01*
X134905001Y-54707013D01*
X134905000Y-60372101D01*
X134755000Y-60734234D01*
X124325000Y-60734234D01*
X124175000Y-60372101D01*
X124175000Y-55018000D01*
X124368000Y-54825000D01*
X124606256Y-54825000D01*
X125039418Y-54738839D01*
X125530625Y-54410625D01*
X125545096Y-54388967D01*
X125611673Y-54549698D01*
X125790301Y-54728327D01*
X126023690Y-54825000D01*
X126714250Y-54825000D01*
X126873000Y-54666250D01*
X126873000Y-53467000D01*
X127127000Y-53467000D01*
X127127000Y-54666250D01*
X127285750Y-54825000D01*
X127976310Y-54825000D01*
X128209699Y-54728327D01*
X128388327Y-54549698D01*
X128485000Y-54316309D01*
X128485000Y-53625750D01*
X128326250Y-53467000D01*
X127127000Y-53467000D01*
X126873000Y-53467000D01*
X126853000Y-53467000D01*
X126853000Y-53213000D01*
X126873000Y-53213000D01*
X126873000Y-52013750D01*
X127127000Y-52013750D01*
X127127000Y-53213000D01*
X128326250Y-53213000D01*
X128485000Y-53054250D01*
X128485000Y-52363691D01*
X128388327Y-52130302D01*
X128209699Y-51951673D01*
X127976310Y-51855000D01*
X127285750Y-51855000D01*
X127127000Y-52013750D01*
X126873000Y-52013750D01*
X126714250Y-51855000D01*
X126023690Y-51855000D01*
X125790301Y-51951673D01*
X125611673Y-52130302D01*
X125545096Y-52291033D01*
X125530625Y-52269375D01*
X125039418Y-51941161D01*
X124606256Y-51855000D01*
X124313744Y-51855000D01*
X123880582Y-51941161D01*
X123389375Y-52269375D01*
X123061161Y-52760582D01*
X122945908Y-53340000D01*
X122965998Y-53441002D01*
X122562096Y-53844904D01*
X122479856Y-53899855D01*
X122424905Y-53982095D01*
X122424902Y-53982098D01*
X122262151Y-54225673D01*
X122185704Y-54610000D01*
X122205001Y-54707013D01*
X122205000Y-60372101D01*
X122055000Y-60734234D01*
X77597000Y-60734234D01*
X77597000Y-57620000D01*
X86182560Y-57620000D01*
X86182560Y-59220000D01*
X86231843Y-59467765D01*
X86372191Y-59677809D01*
X86582235Y-59818157D01*
X86830000Y-59867440D01*
X88430000Y-59867440D01*
X88677765Y-59818157D01*
X88887809Y-59677809D01*
X89028157Y-59467765D01*
X89077440Y-59220000D01*
X89077440Y-58420000D01*
X93786887Y-58420000D01*
X93898260Y-58979909D01*
X94215423Y-59454577D01*
X94690091Y-59771740D01*
X95108667Y-59855000D01*
X95391333Y-59855000D01*
X95809909Y-59771740D01*
X96284577Y-59454577D01*
X96601740Y-58979909D01*
X96713113Y-58420000D01*
X96601740Y-57860091D01*
X96284577Y-57385423D01*
X95809909Y-57068260D01*
X95391333Y-56985000D01*
X95108667Y-56985000D01*
X94690091Y-57068260D01*
X94215423Y-57385423D01*
X93898260Y-57860091D01*
X93786887Y-58420000D01*
X89077440Y-58420000D01*
X89077440Y-57620000D01*
X89028157Y-57372235D01*
X88887809Y-57162191D01*
X88677765Y-57021843D01*
X88430000Y-56972560D01*
X86830000Y-56972560D01*
X86582235Y-57021843D01*
X86372191Y-57162191D01*
X86231843Y-57372235D01*
X86182560Y-57620000D01*
X77597000Y-57620000D01*
X77597000Y-50852606D01*
X78792606Y-49657000D01*
X185367394Y-49657000D01*
X186563000Y-50852606D01*
M02*
