M48
;DRILL file {KiCad (5.0.0-rc2-dev-444-g2974a2c10)} date 04/19/18 11:06:10
;FORMAT={-:-/ absolute / inch / decimal}
FMAT,2
INCH,TZ
T1C0.0157
T2C0.0315
T3C0.0354
T4C0.0394
T5C0.0433
T6C0.0472
T7C0.1378
%
G90
G05
M72
T1
X3.1Y-3.7
X3.325Y-3.125
X3.35Y-3.4
X3.45Y-2.8
X3.45Y-3.125
X3.5Y-3.825
X3.6Y-3.975
X3.6Y-4.125
X3.675Y-4.375
X3.75Y-3.125
X3.85Y-2.5
X3.85Y-2.9
X3.9Y-3.825
X4.3Y-2.5
X4.3063Y-2.8063
X4.4Y-3.325
X4.5Y-3.325
X4.6Y-2.55
X4.6Y-3.3
X4.7Y-5.05
X4.85Y-2.4
X4.85Y-2.7
X4.9Y-3.3
X4.95Y-2.7
X5.15Y-3.3
X5.2Y-5.05
X5.35Y-2.4
X5.35Y-2.7
X5.45Y-2.7
X5.65Y-3.3
X5.7Y-5.05
X5.85Y-2.4
X5.85Y-2.7
X5.95Y-2.7
X6.2Y-3.3
X6.2Y-5.05
X6.4Y-2.4
X6.4Y-2.7
X6.5Y-2.7
X6.75Y-3.3
X6.75Y-5.05
X6.9Y-3.25
X7.Y-3.25
X7.0498Y-2.3002
X7.1Y-2.725
T2
X3.45Y-2.3
X3.45Y-2.6
X3.75Y-2.3
X3.75Y-2.6
X3.2Y-3.9079
X3.2Y-4.1
X3.2Y-3.0016
X3.2Y-3.1937
T3
X4.1Y-5.2
X4.2Y-5.2
T4
X4.05Y-2.9
X4.15Y-2.9
X6.9Y-4.9
X7.Y-4.9
X4.45Y-4.9
X4.55Y-4.9
X6.45Y-2.1
X6.55Y-2.1
X5.4Y-2.1
X5.5Y-2.1
X4.85Y-4.9
X4.95Y-4.9
X5.85Y-4.9
X5.95Y-4.9
X5.35Y-4.9
X5.45Y-4.9
X4.05Y-2.6
X4.15Y-2.6
X6.4Y-4.9
X6.5Y-4.9
X4.05Y-2.75
X4.15Y-2.75
X5.9Y-2.1
X6.Y-2.1
X5.85Y-5.2
X5.95Y-5.2
X4.85Y-5.2
X4.95Y-5.2
X7.05Y-2.1
X7.15Y-2.1
X4.9Y-2.1
X5.Y-2.1
X5.35Y-5.2
X5.45Y-5.2
X3.2Y-5.2
X3.3Y-5.2
X6.4Y-5.2
X6.5Y-5.2
T5
X3.9Y-4.7
X3.9Y-4.8
X3.9Y-4.9
T6
X3.5Y-5.2
X3.9Y-5.2
T7
X3.2441Y-4.8
T0
M30
