G04 #@! TF.GenerationSoftware,KiCad,Pcbnew,(5.0.0)*
G04 #@! TF.CreationDate,2018-10-16T11:38:31+02:00*
G04 #@! TF.ProjectId,BackplanePCB_solder.kicad_pcb_LEFT,4261636B706C616E655043425F736F6C,rev?*
G04 #@! TF.SameCoordinates,Original*
G04 #@! TF.FileFunction,Copper,L2,Bot,Signal*
G04 #@! TF.FilePolarity,Positive*
%FSLAX46Y46*%
G04 Gerber Fmt 4.6, Leading zero omitted, Abs format (unit mm)*
G04 Created by KiCad (PCBNEW (5.0.0)) date 10/16/18 11:38:31*
%MOMM*%
%LPD*%
G01*
G04 APERTURE LIST*
G04 #@! TA.AperFunction,ComponentPad*
%ADD10C,2.000000*%
G04 #@! TD*
G04 #@! TA.AperFunction,ComponentPad*
%ADD11R,2.000000X2.000000*%
G04 #@! TD*
G04 #@! TA.AperFunction,ComponentPad*
%ADD12R,1.727200X1.727200*%
G04 #@! TD*
G04 #@! TA.AperFunction,ComponentPad*
%ADD13O,1.727200X1.727200*%
G04 #@! TD*
G04 #@! TA.AperFunction,ComponentPad*
%ADD14C,2.600000*%
G04 #@! TD*
G04 #@! TA.AperFunction,ComponentPad*
%ADD15R,2.600000X2.600000*%
G04 #@! TD*
G04 #@! TA.AperFunction,ComponentPad*
%ADD16R,1.600000X1.600000*%
G04 #@! TD*
G04 #@! TA.AperFunction,ComponentPad*
%ADD17C,1.600000*%
G04 #@! TD*
G04 #@! TA.AperFunction,ComponentPad*
%ADD18C,4.000000*%
G04 #@! TD*
G04 #@! TA.AperFunction,ComponentPad*
%ADD19O,1.700000X1.700000*%
G04 #@! TD*
G04 #@! TA.AperFunction,ComponentPad*
%ADD20R,1.700000X1.700000*%
G04 #@! TD*
G04 #@! TA.AperFunction,ComponentPad*
%ADD21O,1.717500X1.800000*%
G04 #@! TD*
G04 #@! TA.AperFunction,ComponentPad*
%ADD22R,1.717500X1.800000*%
G04 #@! TD*
G04 #@! TA.AperFunction,ViaPad*
%ADD23C,1.000000*%
G04 #@! TD*
G04 #@! TA.AperFunction,ViaPad*
%ADD24C,0.800000*%
G04 #@! TD*
G04 #@! TA.AperFunction,ViaPad*
%ADD25C,2.000000*%
G04 #@! TD*
G04 #@! TA.AperFunction,Conductor*
%ADD26C,2.000000*%
G04 #@! TD*
G04 #@! TA.AperFunction,Conductor*
%ADD27C,0.500000*%
G04 #@! TD*
G04 #@! TA.AperFunction,Conductor*
%ADD28C,1.000000*%
G04 #@! TD*
G04 #@! TA.AperFunction,Conductor*
%ADD29C,1.800000*%
G04 #@! TD*
G04 #@! TA.AperFunction,Conductor*
%ADD30C,0.250000*%
G04 #@! TD*
G04 #@! TA.AperFunction,Conductor*
%ADD31C,0.254000*%
G04 #@! TD*
G04 APERTURE END LIST*
D10*
G04 #@! TO.P,J4,10*
G04 #@! TO.N,GND*
X279500000Y-208380000D03*
G04 #@! TO.P,J4,5*
X289660000Y-216000000D03*
G04 #@! TO.P,J4,9*
X282040000Y-208380000D03*
G04 #@! TO.P,J4,4*
X287120000Y-216000000D03*
G04 #@! TO.P,J4,8*
X284580000Y-208380000D03*
G04 #@! TO.P,J4,3*
X284580000Y-216000000D03*
G04 #@! TO.P,J4,7*
X287120000Y-208380000D03*
G04 #@! TO.P,J4,2*
X282040000Y-216000000D03*
G04 #@! TO.P,J4,6*
X289660000Y-208380000D03*
G04 #@! TO.P,J4,1*
X279500000Y-216000000D03*
G04 #@! TD*
G04 #@! TO.P,J3,1*
G04 #@! TO.N,+15V*
X263000000Y-216000000D03*
G04 #@! TO.P,J3,6*
X273160000Y-208380000D03*
G04 #@! TO.P,J3,2*
X265540000Y-216000000D03*
G04 #@! TO.P,J3,7*
X270620000Y-208380000D03*
G04 #@! TO.P,J3,3*
X268080000Y-216000000D03*
G04 #@! TO.P,J3,8*
X268080000Y-208380000D03*
G04 #@! TO.P,J3,4*
X270620000Y-216000000D03*
G04 #@! TO.P,J3,9*
X265540000Y-208380000D03*
G04 #@! TO.P,J3,5*
X273160000Y-216000000D03*
G04 #@! TO.P,J3,10*
X263000000Y-208380000D03*
G04 #@! TD*
G04 #@! TO.P,C2,2*
G04 #@! TO.N,GND*
X126500000Y-198000000D03*
D11*
G04 #@! TO.P,C2,1*
G04 #@! TO.N,+15V*
X126500000Y-205500000D03*
G04 #@! TD*
D12*
G04 #@! TO.P,J1,1*
G04 #@! TO.N,TX_A*
X71120000Y-170180000D03*
D13*
G04 #@! TO.P,J1,2*
G04 #@! TO.N,TX_B*
X71120000Y-167640000D03*
G04 #@! TO.P,J1,3*
G04 #@! TO.N,RX_A*
X73660000Y-170180000D03*
G04 #@! TO.P,J1,4*
G04 #@! TO.N,RX_B*
X73660000Y-167640000D03*
G04 #@! TO.P,J1,5*
G04 #@! TO.N,GND*
X76200000Y-170180000D03*
G04 #@! TO.P,J1,6*
X76200000Y-167640000D03*
G04 #@! TO.P,J1,7*
G04 #@! TO.N,SYNC_A*
X78740000Y-170180000D03*
G04 #@! TO.P,J1,8*
G04 #@! TO.N,SYNC_B*
X78740000Y-167640000D03*
G04 #@! TO.P,J1,9*
G04 #@! TO.N,RESET_A*
X81280000Y-170180000D03*
G04 #@! TO.P,J1,10*
G04 #@! TO.N,RESET_B*
X81280000Y-167640000D03*
G04 #@! TD*
D14*
G04 #@! TO.P,J5,3*
G04 #@! TO.N,/PWMO1_1*
X56510000Y-216000000D03*
G04 #@! TO.P,J5,2*
G04 #@! TO.N,GND*
X51430000Y-216000000D03*
D15*
G04 #@! TO.P,J5,1*
G04 #@! TO.N,/PWMO2_1*
X46350000Y-216000000D03*
G04 #@! TD*
G04 #@! TO.P,J6,1*
G04 #@! TO.N,/PWMO2_2*
X96350000Y-216000000D03*
D14*
G04 #@! TO.P,J6,2*
G04 #@! TO.N,GND*
X101430000Y-216000000D03*
G04 #@! TO.P,J6,3*
G04 #@! TO.N,/PWMO1_2*
X106510000Y-216000000D03*
G04 #@! TD*
G04 #@! TO.P,J7,3*
G04 #@! TO.N,/PWMO1_3*
X156510000Y-216000000D03*
G04 #@! TO.P,J7,2*
G04 #@! TO.N,GND*
X151430000Y-216000000D03*
D15*
G04 #@! TO.P,J7,1*
G04 #@! TO.N,/PWMO2_3*
X146350000Y-216000000D03*
G04 #@! TD*
D16*
G04 #@! TO.P,J8,1*
G04 #@! TO.N,/PWMO2_1*
X50000000Y-200000000D03*
D17*
G04 #@! TO.P,J8,2*
G04 #@! TO.N,GND*
X50000000Y-197230000D03*
G04 #@! TO.P,J8,3*
G04 #@! TO.N,RX_B*
X50000000Y-194460000D03*
G04 #@! TO.P,J8,4*
G04 #@! TO.N,TX_B*
X50000000Y-191690000D03*
G04 #@! TO.P,J8,5*
G04 #@! TO.N,SYNC_B*
X50000000Y-188920000D03*
G04 #@! TO.P,J8,6*
G04 #@! TO.N,RESET_B*
X50000000Y-186150000D03*
G04 #@! TO.P,J8,7*
G04 #@! TO.N,ID_1*
X50000000Y-183380000D03*
G04 #@! TO.P,J8,8*
G04 #@! TO.N,GND*
X50000000Y-180610000D03*
G04 #@! TO.P,J8,9*
G04 #@! TO.N,/PWMO1_1*
X52840000Y-198615000D03*
G04 #@! TO.P,J8,10*
G04 #@! TO.N,+15V*
X52840000Y-195845000D03*
G04 #@! TO.P,J8,11*
G04 #@! TO.N,RX_A*
X52840000Y-193075000D03*
G04 #@! TO.P,J8,12*
G04 #@! TO.N,TX_A*
X52840000Y-190305000D03*
G04 #@! TO.P,J8,13*
G04 #@! TO.N,SYNC_A*
X52840000Y-187535000D03*
G04 #@! TO.P,J8,14*
G04 #@! TO.N,RESET_A*
X52840000Y-184765000D03*
G04 #@! TO.P,J8,15*
G04 #@! TO.N,+15V*
X52840000Y-181995000D03*
D18*
G04 #@! TO.P,J8,0*
G04 #@! TO.N,GND*
X51420000Y-173655000D03*
X51420000Y-206955000D03*
G04 #@! TD*
D16*
G04 #@! TO.P,J9,1*
G04 #@! TO.N,/PWMO2_6*
X300000000Y-200000000D03*
D17*
G04 #@! TO.P,J9,2*
G04 #@! TO.N,GND*
X300000000Y-197230000D03*
G04 #@! TO.P,J9,3*
G04 #@! TO.N,RX_B*
X300000000Y-194460000D03*
G04 #@! TO.P,J9,4*
G04 #@! TO.N,TX_B*
X300000000Y-191690000D03*
G04 #@! TO.P,J9,5*
G04 #@! TO.N,SYNC_B*
X300000000Y-188920000D03*
G04 #@! TO.P,J9,6*
G04 #@! TO.N,RESET_B*
X300000000Y-186150000D03*
G04 #@! TO.P,J9,7*
G04 #@! TO.N,ID_6*
X300000000Y-183380000D03*
G04 #@! TO.P,J9,8*
G04 #@! TO.N,GND*
X300000000Y-180610000D03*
G04 #@! TO.P,J9,9*
G04 #@! TO.N,/PWMO1_6*
X302840000Y-198615000D03*
G04 #@! TO.P,J9,10*
G04 #@! TO.N,+15V*
X302840000Y-195845000D03*
G04 #@! TO.P,J9,11*
G04 #@! TO.N,RX_A*
X302840000Y-193075000D03*
G04 #@! TO.P,J9,12*
G04 #@! TO.N,TX_A*
X302840000Y-190305000D03*
G04 #@! TO.P,J9,13*
G04 #@! TO.N,SYNC_A*
X302840000Y-187535000D03*
G04 #@! TO.P,J9,14*
G04 #@! TO.N,RESET_A*
X302840000Y-184765000D03*
G04 #@! TO.P,J9,15*
G04 #@! TO.N,+15V*
X302840000Y-181995000D03*
D18*
G04 #@! TO.P,J9,0*
G04 #@! TO.N,GND*
X301420000Y-173655000D03*
X301420000Y-206955000D03*
G04 #@! TD*
D15*
G04 #@! TO.P,J10,1*
G04 #@! TO.N,/PWMO2_4*
X196350000Y-216000000D03*
D14*
G04 #@! TO.P,J10,2*
G04 #@! TO.N,GND*
X201430000Y-216000000D03*
G04 #@! TO.P,J10,3*
G04 #@! TO.N,/PWMO1_4*
X206510000Y-216000000D03*
G04 #@! TD*
G04 #@! TO.P,J11,3*
G04 #@! TO.N,/PWMO1_5*
X256510000Y-216000000D03*
G04 #@! TO.P,J11,2*
G04 #@! TO.N,GND*
X251430000Y-216000000D03*
D15*
G04 #@! TO.P,J11,1*
G04 #@! TO.N,/PWMO2_5*
X246350000Y-216000000D03*
G04 #@! TD*
G04 #@! TO.P,J12,1*
G04 #@! TO.N,/PWMO2_6*
X296350000Y-216000000D03*
D14*
G04 #@! TO.P,J12,2*
G04 #@! TO.N,GND*
X301430000Y-216000000D03*
G04 #@! TO.P,J12,3*
G04 #@! TO.N,/PWMO1_6*
X306510000Y-216000000D03*
G04 #@! TD*
D18*
G04 #@! TO.P,J16,0*
G04 #@! TO.N,GND*
X101420000Y-206955000D03*
X101420000Y-173655000D03*
D17*
G04 #@! TO.P,J16,15*
G04 #@! TO.N,+15V*
X102840000Y-181995000D03*
G04 #@! TO.P,J16,14*
G04 #@! TO.N,RESET_A*
X102840000Y-184765000D03*
G04 #@! TO.P,J16,13*
G04 #@! TO.N,SYNC_A*
X102840000Y-187535000D03*
G04 #@! TO.P,J16,12*
G04 #@! TO.N,TX_A*
X102840000Y-190305000D03*
G04 #@! TO.P,J16,11*
G04 #@! TO.N,RX_A*
X102840000Y-193075000D03*
G04 #@! TO.P,J16,10*
G04 #@! TO.N,+15V*
X102840000Y-195845000D03*
G04 #@! TO.P,J16,9*
G04 #@! TO.N,/PWMO1_2*
X102840000Y-198615000D03*
G04 #@! TO.P,J16,8*
G04 #@! TO.N,GND*
X100000000Y-180610000D03*
G04 #@! TO.P,J16,7*
G04 #@! TO.N,ID_2*
X100000000Y-183380000D03*
G04 #@! TO.P,J16,6*
G04 #@! TO.N,RESET_B*
X100000000Y-186150000D03*
G04 #@! TO.P,J16,5*
G04 #@! TO.N,SYNC_B*
X100000000Y-188920000D03*
G04 #@! TO.P,J16,4*
G04 #@! TO.N,TX_B*
X100000000Y-191690000D03*
G04 #@! TO.P,J16,3*
G04 #@! TO.N,RX_B*
X100000000Y-194460000D03*
G04 #@! TO.P,J16,2*
G04 #@! TO.N,GND*
X100000000Y-197230000D03*
D16*
G04 #@! TO.P,J16,1*
G04 #@! TO.N,/PWMO2_2*
X100000000Y-200000000D03*
G04 #@! TD*
G04 #@! TO.P,J19,1*
G04 #@! TO.N,/PWMO2_3*
X150000000Y-200000000D03*
D17*
G04 #@! TO.P,J19,2*
G04 #@! TO.N,GND*
X150000000Y-197230000D03*
G04 #@! TO.P,J19,3*
G04 #@! TO.N,RX_B*
X150000000Y-194460000D03*
G04 #@! TO.P,J19,4*
G04 #@! TO.N,TX_B*
X150000000Y-191690000D03*
G04 #@! TO.P,J19,5*
G04 #@! TO.N,SYNC_B*
X150000000Y-188920000D03*
G04 #@! TO.P,J19,6*
G04 #@! TO.N,RESET_B*
X150000000Y-186150000D03*
G04 #@! TO.P,J19,7*
G04 #@! TO.N,ID_3*
X150000000Y-183380000D03*
G04 #@! TO.P,J19,8*
G04 #@! TO.N,GND*
X150000000Y-180610000D03*
G04 #@! TO.P,J19,9*
G04 #@! TO.N,/PWMO1_3*
X152840000Y-198615000D03*
G04 #@! TO.P,J19,10*
G04 #@! TO.N,+15V*
X152840000Y-195845000D03*
G04 #@! TO.P,J19,11*
G04 #@! TO.N,RX_A*
X152840000Y-193075000D03*
G04 #@! TO.P,J19,12*
G04 #@! TO.N,TX_A*
X152840000Y-190305000D03*
G04 #@! TO.P,J19,13*
G04 #@! TO.N,SYNC_A*
X152840000Y-187535000D03*
G04 #@! TO.P,J19,14*
G04 #@! TO.N,RESET_A*
X152840000Y-184765000D03*
G04 #@! TO.P,J19,15*
G04 #@! TO.N,+15V*
X152840000Y-181995000D03*
D18*
G04 #@! TO.P,J19,0*
G04 #@! TO.N,GND*
X151420000Y-173655000D03*
X151420000Y-206955000D03*
G04 #@! TD*
G04 #@! TO.P,J21,0*
G04 #@! TO.N,GND*
X201420000Y-206955000D03*
X201420000Y-173655000D03*
D17*
G04 #@! TO.P,J21,15*
G04 #@! TO.N,+15V*
X202840000Y-181995000D03*
G04 #@! TO.P,J21,14*
G04 #@! TO.N,RESET_A*
X202840000Y-184765000D03*
G04 #@! TO.P,J21,13*
G04 #@! TO.N,SYNC_A*
X202840000Y-187535000D03*
G04 #@! TO.P,J21,12*
G04 #@! TO.N,TX_A*
X202840000Y-190305000D03*
G04 #@! TO.P,J21,11*
G04 #@! TO.N,RX_A*
X202840000Y-193075000D03*
G04 #@! TO.P,J21,10*
G04 #@! TO.N,+15V*
X202840000Y-195845000D03*
G04 #@! TO.P,J21,9*
G04 #@! TO.N,/PWMO1_4*
X202840000Y-198615000D03*
G04 #@! TO.P,J21,8*
G04 #@! TO.N,GND*
X200000000Y-180610000D03*
G04 #@! TO.P,J21,7*
G04 #@! TO.N,ID_4*
X200000000Y-183380000D03*
G04 #@! TO.P,J21,6*
G04 #@! TO.N,RESET_B*
X200000000Y-186150000D03*
G04 #@! TO.P,J21,5*
G04 #@! TO.N,SYNC_B*
X200000000Y-188920000D03*
G04 #@! TO.P,J21,4*
G04 #@! TO.N,TX_B*
X200000000Y-191690000D03*
G04 #@! TO.P,J21,3*
G04 #@! TO.N,RX_B*
X200000000Y-194460000D03*
G04 #@! TO.P,J21,2*
G04 #@! TO.N,GND*
X200000000Y-197230000D03*
D16*
G04 #@! TO.P,J21,1*
G04 #@! TO.N,/PWMO2_4*
X200000000Y-200000000D03*
G04 #@! TD*
D18*
G04 #@! TO.P,J23,0*
G04 #@! TO.N,GND*
X251420000Y-206955000D03*
X251420000Y-173655000D03*
D17*
G04 #@! TO.P,J23,15*
G04 #@! TO.N,+15V*
X252840000Y-181995000D03*
G04 #@! TO.P,J23,14*
G04 #@! TO.N,RESET_A*
X252840000Y-184765000D03*
G04 #@! TO.P,J23,13*
G04 #@! TO.N,SYNC_A*
X252840000Y-187535000D03*
G04 #@! TO.P,J23,12*
G04 #@! TO.N,TX_A*
X252840000Y-190305000D03*
G04 #@! TO.P,J23,11*
G04 #@! TO.N,RX_A*
X252840000Y-193075000D03*
G04 #@! TO.P,J23,10*
G04 #@! TO.N,+15V*
X252840000Y-195845000D03*
G04 #@! TO.P,J23,9*
G04 #@! TO.N,/PWMO1_5*
X252840000Y-198615000D03*
G04 #@! TO.P,J23,8*
G04 #@! TO.N,GND*
X250000000Y-180610000D03*
G04 #@! TO.P,J23,7*
G04 #@! TO.N,ID_5*
X250000000Y-183380000D03*
G04 #@! TO.P,J23,6*
G04 #@! TO.N,RESET_B*
X250000000Y-186150000D03*
G04 #@! TO.P,J23,5*
G04 #@! TO.N,SYNC_B*
X250000000Y-188920000D03*
G04 #@! TO.P,J23,4*
G04 #@! TO.N,TX_B*
X250000000Y-191690000D03*
G04 #@! TO.P,J23,3*
G04 #@! TO.N,RX_B*
X250000000Y-194460000D03*
G04 #@! TO.P,J23,2*
G04 #@! TO.N,GND*
X250000000Y-197230000D03*
D16*
G04 #@! TO.P,J23,1*
G04 #@! TO.N,/PWMO2_5*
X250000000Y-200000000D03*
G04 #@! TD*
D19*
G04 #@! TO.P,J25,6*
G04 #@! TO.N,Net-(J25-Pad6)*
X256286000Y-165862000D03*
G04 #@! TO.P,J25,5*
G04 #@! TO.N,ICSPCLK*
X253746000Y-165862000D03*
G04 #@! TO.P,J25,4*
G04 #@! TO.N,ICSPDAT*
X251206000Y-165862000D03*
G04 #@! TO.P,J25,3*
G04 #@! TO.N,GND*
X248666000Y-165862000D03*
G04 #@! TO.P,J25,2*
G04 #@! TO.N,+5V*
X246126000Y-165862000D03*
D20*
G04 #@! TO.P,J25,1*
G04 #@! TO.N,VPP*
X243586000Y-165862000D03*
G04 #@! TD*
D21*
G04 #@! TO.P,U4,3*
G04 #@! TO.N,+5V*
X132189000Y-180874000D03*
G04 #@! TO.P,U4,2*
G04 #@! TO.N,GND*
X129899000Y-180874000D03*
D22*
G04 #@! TO.P,U4,1*
G04 #@! TO.N,Net-(C10-Pad1)*
X127609000Y-180874000D03*
G04 #@! TD*
D17*
G04 #@! TO.P,C16,2*
G04 #@! TO.N,GND*
X143470000Y-183388000D03*
D16*
G04 #@! TO.P,C16,1*
G04 #@! TO.N,+5V*
X140970000Y-183388000D03*
G04 #@! TD*
D23*
G04 #@! TO.N,+15V*
X114427000Y-195834000D03*
X114427000Y-183388000D03*
D24*
G04 #@! TO.N,GND*
X165074600Y-172440600D03*
X165404800Y-178460400D03*
X177393600Y-170294200D03*
X242697000Y-175006000D03*
X233680000Y-171704000D03*
X219075000Y-174498000D03*
X192278000Y-173736000D03*
X184150000Y-183769000D03*
X192024000Y-177419000D03*
X165223400Y-164926200D03*
D25*
X134337000Y-168787000D03*
X134337000Y-173486004D03*
X134337000Y-178185000D03*
X129892000Y-178185000D03*
X125320000Y-178185000D03*
X125193000Y-173486000D03*
X125193000Y-168787000D03*
X129892000Y-168787000D03*
D24*
G04 #@! TO.N,Net-(C18-Pad1)*
X198091000Y-167136000D03*
X198091000Y-170946000D03*
G04 #@! TO.N,TX_A*
X165608000Y-173736000D03*
X163322000Y-190305000D03*
X71120000Y-190305000D03*
D23*
X320265000Y-190250000D03*
D24*
G04 #@! TO.N,TX_B*
X165608000Y-175006000D03*
X164084000Y-191690000D03*
X69850000Y-191690000D03*
D23*
X320265000Y-191647000D03*
D24*
G04 #@! TO.N,RX_A*
X165608000Y-179578000D03*
X164846000Y-193075000D03*
X73660000Y-193075000D03*
D23*
X320265000Y-193044000D03*
D24*
G04 #@! TO.N,RX_B*
X165608000Y-180848000D03*
X165608000Y-194460000D03*
X74930000Y-194460000D03*
G04 #@! TO.N,SYNC_A*
X164846000Y-169163992D03*
X78740000Y-187535000D03*
D23*
X320265000Y-187582992D03*
D24*
X161794394Y-187532200D03*
G04 #@! TO.N,SYNC_B*
X165646013Y-169926000D03*
X77470000Y-188920000D03*
D23*
X320265000Y-188980000D03*
D24*
X162556400Y-188929200D03*
G04 #@! TO.N,RESET_A*
X81280000Y-184765000D03*
D23*
X320265000Y-184789000D03*
D24*
X233270000Y-173333600D03*
X232888976Y-184763600D03*
G04 #@! TO.N,RESET_B*
X233934000Y-186150000D03*
X82550000Y-186150000D03*
D23*
X320265000Y-186186000D03*
D24*
X233995010Y-174507101D03*
G04 #@! TO.N,ID_1*
X177038000Y-166116000D03*
X155038000Y-165866000D03*
G04 #@! TO.N,ID_2*
X177999600Y-167009004D03*
X153895000Y-166755000D03*
G04 #@! TO.N,ID_7*
X320265000Y-179201000D03*
G04 #@! TO.N,ID_3*
X177038000Y-168148000D03*
G04 #@! TO.N,ID_8*
X320265000Y-177804000D03*
G04 #@! TO.N,ID_9*
X320290400Y-176686400D03*
G04 #@! TO.N,ID_5*
X194919600Y-183413400D03*
X194919600Y-181102000D03*
G04 #@! TO.N,ID_10*
X320290396Y-175391000D03*
G04 #@! TO.N,ICSPDAT*
X192405000Y-165608000D03*
G04 #@! TO.N,ICSPCLK*
X192405000Y-166878000D03*
G04 #@! TO.N,RST*
X178054000Y-164846000D03*
X233934000Y-164846000D03*
G04 #@! TD*
D26*
G04 #@! TO.N,+15V*
X153971370Y-181995000D02*
X152840000Y-181995000D01*
X156000000Y-184023630D02*
X153971370Y-181995000D01*
X156000000Y-193816370D02*
X156000000Y-184023630D01*
X152840000Y-195845000D02*
X153971370Y-195845000D01*
X153971370Y-195845000D02*
X156000000Y-193816370D01*
X203971370Y-195845000D02*
X202840000Y-195845000D01*
X206000000Y-193816370D02*
X203971370Y-195845000D01*
X206000000Y-184023630D02*
X206000000Y-193816370D01*
X202840000Y-181995000D02*
X203971370Y-181995000D01*
X203971370Y-181995000D02*
X206000000Y-184023630D01*
X253971370Y-181995000D02*
X252840000Y-181995000D01*
X256000000Y-184023630D02*
X253971370Y-181995000D01*
X256000000Y-193816370D02*
X256000000Y-184023630D01*
X252840000Y-195845000D02*
X253971370Y-195845000D01*
X253971370Y-195845000D02*
X256000000Y-193816370D01*
X303971370Y-181995000D02*
X302840000Y-181995000D01*
X306000000Y-184023630D02*
X303971370Y-181995000D01*
X306000000Y-193816370D02*
X306000000Y-184023630D01*
X302840000Y-195845000D02*
X303971370Y-195845000D01*
X303971370Y-195845000D02*
X306000000Y-193816370D01*
X53971370Y-181995000D02*
X52840000Y-181995000D01*
X56000000Y-184023630D02*
X53971370Y-181995000D01*
X56000000Y-193816370D02*
X56000000Y-184023630D01*
X52840000Y-195845000D02*
X53971370Y-195845000D01*
X53971370Y-195845000D02*
X56000000Y-193816370D01*
D27*
X114427000Y-195126894D02*
X114427000Y-183388000D01*
X114427000Y-195834000D02*
X114427000Y-195126894D01*
D28*
X114427000Y-183515008D02*
X114427000Y-183388000D01*
D26*
X103971370Y-181995000D02*
X106000000Y-184023630D01*
X106000000Y-193816370D02*
X103971370Y-195845000D01*
X103971370Y-195845000D02*
X102840000Y-195845000D01*
X106000000Y-184023630D02*
X106000000Y-193816370D01*
X102840000Y-181995000D02*
X103971370Y-181995000D01*
D29*
G04 #@! TO.N,GND*
X50000000Y-179478630D02*
X50009000Y-179469630D01*
X50000000Y-180610000D02*
X50000000Y-179478630D01*
X50009000Y-179469630D02*
X50009000Y-177296000D01*
X100000000Y-180610000D02*
X100000000Y-177500000D01*
X150000000Y-180610000D02*
X150000000Y-177500000D01*
X144888000Y-183388000D02*
X143470000Y-183388000D01*
X146500000Y-185000000D02*
X144888000Y-183388000D01*
X150000000Y-197230000D02*
X146500000Y-193730000D01*
X146500000Y-193730000D02*
X146500000Y-185000000D01*
X199610000Y-181000000D02*
X200000000Y-180610000D01*
X198500000Y-181000000D02*
X199610000Y-181000000D01*
X196500000Y-183000000D02*
X198500000Y-181000000D01*
X196500000Y-196000000D02*
X196500000Y-183000000D01*
X200000000Y-197230000D02*
X197730000Y-197230000D01*
X197730000Y-197230000D02*
X196500000Y-196000000D01*
X249610000Y-181000000D02*
X250000000Y-180610000D01*
X248500000Y-181000000D02*
X249610000Y-181000000D01*
X246500000Y-183000000D02*
X248500000Y-181000000D01*
X246500000Y-196000000D02*
X246500000Y-183000000D01*
X250000000Y-197230000D02*
X247730000Y-197230000D01*
X247730000Y-197230000D02*
X246500000Y-196000000D01*
X99610000Y-181000000D02*
X100000000Y-180610000D01*
X98500000Y-181000000D02*
X99610000Y-181000000D01*
X96500000Y-183000000D02*
X98500000Y-181000000D01*
X96500000Y-196000000D02*
X96500000Y-183000000D01*
X100000000Y-197230000D02*
X97730000Y-197230000D01*
X97730000Y-197230000D02*
X96500000Y-196000000D01*
X48730000Y-197230000D02*
X50000000Y-197230000D01*
X47088000Y-195588000D02*
X48730000Y-197230000D01*
X47088000Y-182390630D02*
X47088000Y-195588000D01*
X50000000Y-180610000D02*
X48868630Y-180610000D01*
X48868630Y-180610000D02*
X47088000Y-182390630D01*
X200000000Y-180610000D02*
X200000000Y-177500000D01*
X250000000Y-180610000D02*
X250000000Y-178500000D01*
X299610000Y-181000000D02*
X300000000Y-180610000D01*
X298500000Y-181000000D02*
X299610000Y-181000000D01*
X296500000Y-183000000D02*
X298500000Y-181000000D01*
X296500000Y-195000000D02*
X296500000Y-183000000D01*
X300000000Y-197230000D02*
X298730000Y-197230000D01*
X298730000Y-197230000D02*
X296500000Y-195000000D01*
X300000000Y-180610000D02*
X300000000Y-177500000D01*
D27*
G04 #@! TO.N,Net-(C18-Pad1)*
X198091000Y-167136000D02*
X198091000Y-170946000D01*
D30*
G04 #@! TO.N,TX_A*
X163322000Y-176022000D02*
X163322000Y-190305000D01*
X165608000Y-173736000D02*
X163322000Y-176022000D01*
X71120000Y-170180000D02*
X71120000Y-190305000D01*
G04 #@! TO.N,TX_B*
X164084000Y-176530000D02*
X164084000Y-191690000D01*
X165608000Y-175006000D02*
X164084000Y-176530000D01*
X69850000Y-168910000D02*
X69850000Y-191690000D01*
X71120000Y-167640000D02*
X69850000Y-168910000D01*
G04 #@! TO.N,RX_A*
X164846000Y-180684998D02*
X164846000Y-193075000D01*
X164846000Y-180340000D02*
X164846000Y-180684998D01*
X165608000Y-179578000D02*
X164846000Y-180340000D01*
X73660000Y-170180000D02*
X73660000Y-193075000D01*
G04 #@! TO.N,RX_B*
X165608000Y-180848000D02*
X165608000Y-194460000D01*
X74930000Y-168910000D02*
X74930000Y-194460000D01*
X73660000Y-167640000D02*
X74930000Y-168910000D01*
G04 #@! TO.N,SYNC_A*
X78740000Y-170180000D02*
X78740000Y-187535000D01*
X164846000Y-169163992D02*
X161794394Y-172215598D01*
X161794394Y-186966515D02*
X161794394Y-187532200D01*
X161794394Y-172215598D02*
X161794394Y-186966515D01*
G04 #@! TO.N,SYNC_B*
X77470000Y-169690870D02*
X77470000Y-188920000D01*
X77470000Y-168910000D02*
X77470000Y-169690870D01*
X78740000Y-167640000D02*
X77470000Y-168910000D01*
X162556400Y-173015613D02*
X162556400Y-188504936D01*
X165646013Y-169926000D02*
X162556400Y-173015613D01*
X162556400Y-188504936D02*
X162556400Y-188929200D01*
G04 #@! TO.N,RESET_A*
X81280000Y-170180000D02*
X81280000Y-184765000D01*
X233299000Y-184765000D02*
X233219200Y-184685200D01*
X233219200Y-173384400D02*
X233270000Y-173333600D01*
X232888976Y-183900024D02*
X232888976Y-184197915D01*
X233270000Y-183519000D02*
X232888976Y-183900024D01*
X233270000Y-173333600D02*
X233270000Y-183519000D01*
X232888976Y-184197915D02*
X232888976Y-184763600D01*
G04 #@! TO.N,RESET_B*
X82550000Y-169690870D02*
X82550000Y-186150000D01*
X82550000Y-168910000D02*
X82550000Y-169690870D01*
X81280000Y-167640000D02*
X82550000Y-168910000D01*
X233934000Y-186150000D02*
X233934000Y-174568111D01*
X233934000Y-174568111D02*
X233995010Y-174507101D01*
D26*
G04 #@! TO.N,/PWMO1_1*
X56510000Y-216000000D02*
X56510000Y-202285000D01*
X56510000Y-202285000D02*
X52840000Y-198615000D01*
G04 #@! TO.N,/PWMO2_1*
X46350000Y-203650000D02*
X50000000Y-200000000D01*
X46350000Y-216000000D02*
X46350000Y-203650000D01*
G04 #@! TO.N,/PWMO2_2*
X96350000Y-203650000D02*
X100000000Y-200000000D01*
X96350000Y-216000000D02*
X96350000Y-203650000D01*
G04 #@! TO.N,/PWMO1_2*
X106510000Y-202285000D02*
X102840000Y-198615000D01*
X106510000Y-216000000D02*
X106510000Y-202285000D01*
G04 #@! TO.N,/PWMO1_3*
X156510000Y-202285000D02*
X152840000Y-198615000D01*
X156510000Y-216000000D02*
X156510000Y-202285000D01*
G04 #@! TO.N,/PWMO2_3*
X146350000Y-203650000D02*
X150000000Y-200000000D01*
X146350000Y-216000000D02*
X146350000Y-203650000D01*
D30*
G04 #@! TO.N,ID_1*
X155546000Y-165866000D02*
X155038000Y-165866000D01*
X155800000Y-166120000D02*
X155546000Y-165866000D01*
X177038000Y-166116000D02*
X177034000Y-166120000D01*
X177034000Y-166120000D02*
X155800000Y-166120000D01*
D26*
G04 #@! TO.N,/PWMO2_6*
X296350000Y-203650000D02*
X300000000Y-200000000D01*
X296350000Y-216000000D02*
X296350000Y-203650000D01*
G04 #@! TO.N,/PWMO1_6*
X306510000Y-202285000D02*
X302840000Y-198615000D01*
X306510000Y-216000000D02*
X306510000Y-202285000D01*
G04 #@! TO.N,/PWMO2_4*
X196350000Y-203650000D02*
X200000000Y-200000000D01*
X196350000Y-216000000D02*
X196350000Y-203650000D01*
G04 #@! TO.N,/PWMO1_4*
X206510000Y-202285000D02*
X202840000Y-198615000D01*
X206510000Y-216000000D02*
X206510000Y-202285000D01*
G04 #@! TO.N,/PWMO1_5*
X256510000Y-202285000D02*
X252840000Y-198615000D01*
X256510000Y-216000000D02*
X256510000Y-202285000D01*
G04 #@! TO.N,/PWMO2_5*
X246350000Y-203650000D02*
X250000000Y-200000000D01*
X246350000Y-216000000D02*
X246350000Y-203650000D01*
D30*
G04 #@! TO.N,ID_2*
X154403000Y-166755000D02*
X153895000Y-166755000D01*
X154657000Y-167009000D02*
X154403000Y-166755000D01*
X177999600Y-167009004D02*
X177999596Y-167009000D01*
X177999596Y-167009000D02*
X154657000Y-167009000D01*
G04 #@! TO.N,ID_3*
X176613736Y-168148000D02*
X177038000Y-168148000D01*
X147320000Y-168148000D02*
X176613736Y-168148000D01*
X146050000Y-169418000D02*
X147320000Y-168148000D01*
X146050000Y-182118000D02*
X146050000Y-169418000D01*
X150000000Y-183380000D02*
X147312000Y-183380000D01*
X147312000Y-183380000D02*
X146050000Y-182118000D01*
G04 #@! TO.N,ID_5*
X194919600Y-183413400D02*
X194919600Y-181102000D01*
G04 #@! TO.N,ICSPDAT*
X251206000Y-167386000D02*
X251206000Y-165862000D01*
X250444000Y-168148000D02*
X251206000Y-167386000D01*
X241427000Y-168148000D02*
X250444000Y-168148000D01*
X192405000Y-165608000D02*
X238887000Y-165608000D01*
X238887000Y-165608000D02*
X241427000Y-168148000D01*
G04 #@! TO.N,ICSPCLK*
X253746000Y-167513000D02*
X253746000Y-165862000D01*
X196469000Y-166878000D02*
X196977000Y-166370000D01*
X192405000Y-166878000D02*
X196469000Y-166878000D01*
X196977000Y-166370000D02*
X238252000Y-166370000D01*
X238252000Y-166370000D02*
X240919000Y-169037000D01*
X240919000Y-169037000D02*
X252222000Y-169037000D01*
X252222000Y-169037000D02*
X253746000Y-167513000D01*
G04 #@! TO.N,RST*
X178054000Y-164846000D02*
X231775000Y-164846000D01*
X231775000Y-164846000D02*
X233934000Y-164846000D01*
G04 #@! TD*
D31*
G04 #@! TO.N,GND*
G36*
X320815001Y-165283737D02*
X320815001Y-174488022D01*
X320496270Y-174356000D01*
X320084522Y-174356000D01*
X319704116Y-174513569D01*
X319412965Y-174804720D01*
X319255396Y-175185126D01*
X319255396Y-175596874D01*
X319412965Y-175977280D01*
X319474387Y-176038702D01*
X319412969Y-176100120D01*
X319255400Y-176480526D01*
X319255400Y-176892274D01*
X319389432Y-177215857D01*
X319387569Y-177217720D01*
X319230000Y-177598126D01*
X319230000Y-178009874D01*
X319387569Y-178390280D01*
X319499789Y-178502500D01*
X319387569Y-178614720D01*
X319230000Y-178995126D01*
X319230000Y-179406874D01*
X319387569Y-179787280D01*
X319678720Y-180078431D01*
X320059126Y-180236000D01*
X320470874Y-180236000D01*
X320815001Y-180093458D01*
X320815001Y-183788302D01*
X320490766Y-183654000D01*
X320039234Y-183654000D01*
X319622074Y-183826793D01*
X319302793Y-184146074D01*
X319130000Y-184563234D01*
X319130000Y-185014766D01*
X319302793Y-185431926D01*
X319358367Y-185487500D01*
X319302793Y-185543074D01*
X319130000Y-185960234D01*
X319130000Y-186411766D01*
X319302793Y-186828926D01*
X319358363Y-186884496D01*
X319302793Y-186940066D01*
X319130000Y-187357226D01*
X319130000Y-187808758D01*
X319302793Y-188225918D01*
X319358371Y-188281496D01*
X319302793Y-188337074D01*
X319130000Y-188754234D01*
X319130000Y-189205766D01*
X319299510Y-189615000D01*
X319130000Y-190024234D01*
X319130000Y-190475766D01*
X319302793Y-190892926D01*
X319358367Y-190948500D01*
X319302793Y-191004074D01*
X319130000Y-191421234D01*
X319130000Y-191872766D01*
X319302793Y-192289926D01*
X319358367Y-192345500D01*
X319302793Y-192401074D01*
X319130000Y-192818234D01*
X319130000Y-193269766D01*
X319302793Y-193686926D01*
X319622074Y-194006207D01*
X320039234Y-194179000D01*
X320490766Y-194179000D01*
X320815000Y-194044698D01*
X320815000Y-219716264D01*
X319216265Y-221315000D01*
X43783736Y-221315000D01*
X42185000Y-219716265D01*
X42185000Y-179000000D01*
X44373000Y-179000000D01*
X44373000Y-204000000D01*
X44382667Y-204048601D01*
X44410197Y-204089803D01*
X44451399Y-204117333D01*
X44500000Y-204127000D01*
X44715001Y-204127000D01*
X44715000Y-214160132D01*
X44592191Y-214242191D01*
X44451843Y-214452235D01*
X44402560Y-214700000D01*
X44402560Y-217300000D01*
X44451843Y-217547765D01*
X44592191Y-217757809D01*
X44802235Y-217898157D01*
X45050000Y-217947440D01*
X47650000Y-217947440D01*
X47897765Y-217898157D01*
X48107809Y-217757809D01*
X48248157Y-217547765D01*
X48283623Y-217369459D01*
X50240146Y-217369459D01*
X50375504Y-217667455D01*
X51093880Y-217944066D01*
X51863427Y-217924710D01*
X52484496Y-217667455D01*
X52619854Y-217369459D01*
X51430000Y-216179605D01*
X50240146Y-217369459D01*
X48283623Y-217369459D01*
X48297440Y-217300000D01*
X48297440Y-215663880D01*
X49485934Y-215663880D01*
X49505290Y-216433427D01*
X49762545Y-217054496D01*
X50060541Y-217189854D01*
X51250395Y-216000000D01*
X51609605Y-216000000D01*
X52799459Y-217189854D01*
X53097455Y-217054496D01*
X53374066Y-216336120D01*
X53354710Y-215566573D01*
X53097455Y-214945504D01*
X52799459Y-214810146D01*
X51609605Y-216000000D01*
X51250395Y-216000000D01*
X50060541Y-214810146D01*
X49762545Y-214945504D01*
X49485934Y-215663880D01*
X48297440Y-215663880D01*
X48297440Y-214700000D01*
X48283624Y-214630541D01*
X50240146Y-214630541D01*
X51430000Y-215820395D01*
X52619854Y-214630541D01*
X52484496Y-214332545D01*
X51766120Y-214055934D01*
X50996573Y-214075290D01*
X50375504Y-214332545D01*
X50240146Y-214630541D01*
X48283624Y-214630541D01*
X48248157Y-214452235D01*
X48107809Y-214242191D01*
X47985000Y-214160132D01*
X47985000Y-208830022D01*
X49724584Y-208830022D01*
X49945353Y-209200743D01*
X50917012Y-209594119D01*
X51965247Y-209585713D01*
X52894647Y-209200743D01*
X53115416Y-208830022D01*
X51420000Y-207134605D01*
X49724584Y-208830022D01*
X47985000Y-208830022D01*
X47985000Y-206452012D01*
X48780881Y-206452012D01*
X48789287Y-207500247D01*
X49174257Y-208429647D01*
X49544978Y-208650416D01*
X51240395Y-206955000D01*
X51599605Y-206955000D01*
X53295022Y-208650416D01*
X53665743Y-208429647D01*
X54059119Y-207457988D01*
X54050713Y-206409753D01*
X53665743Y-205480353D01*
X53295022Y-205259584D01*
X51599605Y-206955000D01*
X51240395Y-206955000D01*
X49544978Y-205259584D01*
X49174257Y-205480353D01*
X48780881Y-206452012D01*
X47985000Y-206452012D01*
X47985000Y-205079978D01*
X49724584Y-205079978D01*
X51420000Y-206775395D01*
X53115416Y-205079978D01*
X52894647Y-204709257D01*
X51922988Y-204315881D01*
X50874753Y-204324287D01*
X49945353Y-204709257D01*
X49724584Y-205079978D01*
X47985000Y-205079978D01*
X47985000Y-204327238D01*
X48185238Y-204127000D01*
X54875001Y-204127000D01*
X54875000Y-214898496D01*
X54869586Y-214903910D01*
X54575000Y-215615105D01*
X54575000Y-216384895D01*
X54869586Y-217096090D01*
X55413910Y-217640414D01*
X56125105Y-217935000D01*
X56894895Y-217935000D01*
X57606090Y-217640414D01*
X58150414Y-217096090D01*
X58445000Y-216384895D01*
X58445000Y-215615105D01*
X58150414Y-214903910D01*
X58145000Y-214898496D01*
X58145000Y-204127000D01*
X58500000Y-204127000D01*
X58548601Y-204117333D01*
X58589803Y-204089803D01*
X58617333Y-204048601D01*
X58627000Y-204000000D01*
X58627000Y-191484126D01*
X68815000Y-191484126D01*
X68815000Y-191895874D01*
X68972569Y-192276280D01*
X69263720Y-192567431D01*
X69644126Y-192725000D01*
X70055874Y-192725000D01*
X70436280Y-192567431D01*
X70727431Y-192276280D01*
X70885000Y-191895874D01*
X70885000Y-191484126D01*
X70806905Y-191295588D01*
X70914126Y-191340000D01*
X71325874Y-191340000D01*
X71706280Y-191182431D01*
X71997431Y-190891280D01*
X72155000Y-190510874D01*
X72155000Y-190099126D01*
X71997431Y-189718720D01*
X71880000Y-189601289D01*
X71880000Y-171691040D01*
X71983600Y-171691040D01*
X72231365Y-171641757D01*
X72441409Y-171501409D01*
X72581757Y-171291365D01*
X72586932Y-171265349D01*
X72900000Y-171474535D01*
X72900001Y-192371288D01*
X72782569Y-192488720D01*
X72625000Y-192869126D01*
X72625000Y-193280874D01*
X72782569Y-193661280D01*
X73073720Y-193952431D01*
X73454126Y-194110000D01*
X73865874Y-194110000D01*
X73973095Y-194065588D01*
X73895000Y-194254126D01*
X73895000Y-194665874D01*
X74052569Y-195046280D01*
X74343720Y-195337431D01*
X74724126Y-195495000D01*
X75135874Y-195495000D01*
X75516280Y-195337431D01*
X75807431Y-195046280D01*
X75965000Y-194665874D01*
X75965000Y-194254126D01*
X75807431Y-193873720D01*
X75690000Y-193756289D01*
X75690000Y-171572426D01*
X75840974Y-171634958D01*
X76073000Y-171513817D01*
X76073000Y-170307000D01*
X76053000Y-170307000D01*
X76053000Y-170053000D01*
X76073000Y-170053000D01*
X76073000Y-167767000D01*
X76053000Y-167767000D01*
X76053000Y-167513000D01*
X76073000Y-167513000D01*
X76073000Y-166306183D01*
X76327000Y-166306183D01*
X76327000Y-167513000D01*
X76347000Y-167513000D01*
X76347000Y-167767000D01*
X76327000Y-167767000D01*
X76327000Y-170053000D01*
X76347000Y-170053000D01*
X76347000Y-170307000D01*
X76327000Y-170307000D01*
X76327000Y-171513817D01*
X76559026Y-171634958D01*
X76710000Y-171572426D01*
X76710001Y-188216288D01*
X76592569Y-188333720D01*
X76435000Y-188714126D01*
X76435000Y-189125874D01*
X76592569Y-189506280D01*
X76883720Y-189797431D01*
X77264126Y-189955000D01*
X77675874Y-189955000D01*
X78056280Y-189797431D01*
X78347431Y-189506280D01*
X78505000Y-189125874D01*
X78505000Y-188714126D01*
X78426905Y-188525588D01*
X78534126Y-188570000D01*
X78945874Y-188570000D01*
X79326280Y-188412431D01*
X79617431Y-188121280D01*
X79775000Y-187740874D01*
X79775000Y-187329126D01*
X79617431Y-186948720D01*
X79500000Y-186831289D01*
X79500000Y-171474535D01*
X79820430Y-171260430D01*
X80010000Y-170976719D01*
X80199570Y-171260430D01*
X80520000Y-171474535D01*
X80520001Y-184061288D01*
X80402569Y-184178720D01*
X80245000Y-184559126D01*
X80245000Y-184970874D01*
X80402569Y-185351280D01*
X80693720Y-185642431D01*
X81074126Y-185800000D01*
X81485874Y-185800000D01*
X81593095Y-185755588D01*
X81515000Y-185944126D01*
X81515000Y-186355874D01*
X81672569Y-186736280D01*
X81963720Y-187027431D01*
X82344126Y-187185000D01*
X82755874Y-187185000D01*
X83136280Y-187027431D01*
X83427431Y-186736280D01*
X83585000Y-186355874D01*
X83585000Y-185944126D01*
X83427431Y-185563720D01*
X83310000Y-185446289D01*
X83310000Y-179000000D01*
X94373000Y-179000000D01*
X94373000Y-204000000D01*
X94382667Y-204048601D01*
X94410197Y-204089803D01*
X94451399Y-204117333D01*
X94500000Y-204127000D01*
X94715001Y-204127000D01*
X94715000Y-214160132D01*
X94592191Y-214242191D01*
X94451843Y-214452235D01*
X94402560Y-214700000D01*
X94402560Y-217300000D01*
X94451843Y-217547765D01*
X94592191Y-217757809D01*
X94802235Y-217898157D01*
X95050000Y-217947440D01*
X97650000Y-217947440D01*
X97897765Y-217898157D01*
X98107809Y-217757809D01*
X98248157Y-217547765D01*
X98283623Y-217369459D01*
X100240146Y-217369459D01*
X100375504Y-217667455D01*
X101093880Y-217944066D01*
X101863427Y-217924710D01*
X102484496Y-217667455D01*
X102619854Y-217369459D01*
X101430000Y-216179605D01*
X100240146Y-217369459D01*
X98283623Y-217369459D01*
X98297440Y-217300000D01*
X98297440Y-215663880D01*
X99485934Y-215663880D01*
X99505290Y-216433427D01*
X99762545Y-217054496D01*
X100060541Y-217189854D01*
X101250395Y-216000000D01*
X101609605Y-216000000D01*
X102799459Y-217189854D01*
X103097455Y-217054496D01*
X103374066Y-216336120D01*
X103354710Y-215566573D01*
X103097455Y-214945504D01*
X102799459Y-214810146D01*
X101609605Y-216000000D01*
X101250395Y-216000000D01*
X100060541Y-214810146D01*
X99762545Y-214945504D01*
X99485934Y-215663880D01*
X98297440Y-215663880D01*
X98297440Y-214700000D01*
X98283624Y-214630541D01*
X100240146Y-214630541D01*
X101430000Y-215820395D01*
X102619854Y-214630541D01*
X102484496Y-214332545D01*
X101766120Y-214055934D01*
X100996573Y-214075290D01*
X100375504Y-214332545D01*
X100240146Y-214630541D01*
X98283624Y-214630541D01*
X98248157Y-214452235D01*
X98107809Y-214242191D01*
X97985000Y-214160132D01*
X97985000Y-208830022D01*
X99724584Y-208830022D01*
X99945353Y-209200743D01*
X100917012Y-209594119D01*
X101965247Y-209585713D01*
X102894647Y-209200743D01*
X103115416Y-208830022D01*
X101420000Y-207134605D01*
X99724584Y-208830022D01*
X97985000Y-208830022D01*
X97985000Y-206452012D01*
X98780881Y-206452012D01*
X98789287Y-207500247D01*
X99174257Y-208429647D01*
X99544978Y-208650416D01*
X101240395Y-206955000D01*
X101599605Y-206955000D01*
X103295022Y-208650416D01*
X103665743Y-208429647D01*
X104059119Y-207457988D01*
X104050713Y-206409753D01*
X103665743Y-205480353D01*
X103295022Y-205259584D01*
X101599605Y-206955000D01*
X101240395Y-206955000D01*
X99544978Y-205259584D01*
X99174257Y-205480353D01*
X98780881Y-206452012D01*
X97985000Y-206452012D01*
X97985000Y-205079978D01*
X99724584Y-205079978D01*
X101420000Y-206775395D01*
X103115416Y-205079978D01*
X102894647Y-204709257D01*
X101922988Y-204315881D01*
X100874753Y-204324287D01*
X99945353Y-204709257D01*
X99724584Y-205079978D01*
X97985000Y-205079978D01*
X97985000Y-204327238D01*
X98185238Y-204127000D01*
X104875001Y-204127000D01*
X104875000Y-214898496D01*
X104869586Y-214903910D01*
X104575000Y-215615105D01*
X104575000Y-216384895D01*
X104869586Y-217096090D01*
X105413910Y-217640414D01*
X106125105Y-217935000D01*
X106894895Y-217935000D01*
X107606090Y-217640414D01*
X108150414Y-217096090D01*
X108445000Y-216384895D01*
X108445000Y-215615105D01*
X108150414Y-214903910D01*
X108145000Y-214898496D01*
X108145000Y-204500000D01*
X124852560Y-204500000D01*
X124852560Y-206500000D01*
X124901843Y-206747765D01*
X125042191Y-206957809D01*
X125252235Y-207098157D01*
X125500000Y-207147440D01*
X127500000Y-207147440D01*
X127747765Y-207098157D01*
X127957809Y-206957809D01*
X128098157Y-206747765D01*
X128147440Y-206500000D01*
X128147440Y-204500000D01*
X128098157Y-204252235D01*
X127957809Y-204042191D01*
X127747765Y-203901843D01*
X127500000Y-203852560D01*
X125500000Y-203852560D01*
X125252235Y-203901843D01*
X125042191Y-204042191D01*
X124901843Y-204252235D01*
X124852560Y-204500000D01*
X108145000Y-204500000D01*
X108145000Y-204127000D01*
X108500000Y-204127000D01*
X108548601Y-204117333D01*
X108589803Y-204089803D01*
X108617333Y-204048601D01*
X108627000Y-204000000D01*
X108627000Y-199152532D01*
X125527073Y-199152532D01*
X125625736Y-199419387D01*
X126235461Y-199645908D01*
X126885460Y-199621856D01*
X127374264Y-199419387D01*
X127472927Y-199152532D01*
X126500000Y-198179605D01*
X125527073Y-199152532D01*
X108627000Y-199152532D01*
X108627000Y-197735461D01*
X124854092Y-197735461D01*
X124878144Y-198385460D01*
X125080613Y-198874264D01*
X125347468Y-198972927D01*
X126320395Y-198000000D01*
X126679605Y-198000000D01*
X127652532Y-198972927D01*
X127919387Y-198874264D01*
X128145908Y-198264539D01*
X128121856Y-197614540D01*
X127919387Y-197125736D01*
X127652532Y-197027073D01*
X126679605Y-198000000D01*
X126320395Y-198000000D01*
X125347468Y-197027073D01*
X125080613Y-197125736D01*
X124854092Y-197735461D01*
X108627000Y-197735461D01*
X108627000Y-183162234D01*
X113292000Y-183162234D01*
X113292000Y-183626790D01*
X113357854Y-183957862D01*
X113542001Y-184233458D01*
X113542000Y-195039729D01*
X113542000Y-195113867D01*
X113464793Y-195191074D01*
X113292000Y-195608234D01*
X113292000Y-196059766D01*
X113464793Y-196476926D01*
X113784074Y-196796207D01*
X114201234Y-196969000D01*
X114652766Y-196969000D01*
X114946170Y-196847468D01*
X125527073Y-196847468D01*
X126500000Y-197820395D01*
X127472927Y-196847468D01*
X127374264Y-196580613D01*
X126764539Y-196354092D01*
X126114540Y-196378144D01*
X125625736Y-196580613D01*
X125527073Y-196847468D01*
X114946170Y-196847468D01*
X115069926Y-196796207D01*
X115389207Y-196476926D01*
X115562000Y-196059766D01*
X115562000Y-195608234D01*
X115389207Y-195191074D01*
X115312000Y-195113867D01*
X115312000Y-184233457D01*
X115496146Y-183957863D01*
X115562000Y-183626791D01*
X115562000Y-183162234D01*
X115518381Y-183056927D01*
X115496146Y-182945146D01*
X115432827Y-182850382D01*
X115389207Y-182745074D01*
X115308608Y-182664475D01*
X115257510Y-182588000D01*
X139522560Y-182588000D01*
X139522560Y-184188000D01*
X139571843Y-184435765D01*
X139712191Y-184645809D01*
X139922235Y-184786157D01*
X140170000Y-184835440D01*
X141770000Y-184835440D01*
X142017765Y-184786157D01*
X142227809Y-184645809D01*
X142368157Y-184435765D01*
X142414693Y-184201813D01*
X142462255Y-184216139D01*
X143290395Y-183388000D01*
X142462255Y-182559861D01*
X142414693Y-182574187D01*
X142376118Y-182380255D01*
X142641861Y-182380255D01*
X143470000Y-183208395D01*
X143484142Y-183194252D01*
X143663748Y-183373858D01*
X143649605Y-183388000D01*
X143663748Y-183402142D01*
X143484142Y-183581748D01*
X143470000Y-183567605D01*
X142641861Y-184395745D01*
X142715995Y-184641864D01*
X143253223Y-184834965D01*
X143823454Y-184807778D01*
X144224005Y-184641864D01*
X144298139Y-184395747D01*
X144373000Y-184470608D01*
X144373000Y-204000000D01*
X144382667Y-204048601D01*
X144410197Y-204089803D01*
X144451399Y-204117333D01*
X144500000Y-204127000D01*
X144715001Y-204127000D01*
X144715000Y-214160132D01*
X144592191Y-214242191D01*
X144451843Y-214452235D01*
X144402560Y-214700000D01*
X144402560Y-217300000D01*
X144451843Y-217547765D01*
X144592191Y-217757809D01*
X144802235Y-217898157D01*
X145050000Y-217947440D01*
X147650000Y-217947440D01*
X147897765Y-217898157D01*
X148107809Y-217757809D01*
X148248157Y-217547765D01*
X148283623Y-217369459D01*
X150240146Y-217369459D01*
X150375504Y-217667455D01*
X151093880Y-217944066D01*
X151863427Y-217924710D01*
X152484496Y-217667455D01*
X152619854Y-217369459D01*
X151430000Y-216179605D01*
X150240146Y-217369459D01*
X148283623Y-217369459D01*
X148297440Y-217300000D01*
X148297440Y-215663880D01*
X149485934Y-215663880D01*
X149505290Y-216433427D01*
X149762545Y-217054496D01*
X150060541Y-217189854D01*
X151250395Y-216000000D01*
X151609605Y-216000000D01*
X152799459Y-217189854D01*
X153097455Y-217054496D01*
X153374066Y-216336120D01*
X153354710Y-215566573D01*
X153097455Y-214945504D01*
X152799459Y-214810146D01*
X151609605Y-216000000D01*
X151250395Y-216000000D01*
X150060541Y-214810146D01*
X149762545Y-214945504D01*
X149485934Y-215663880D01*
X148297440Y-215663880D01*
X148297440Y-214700000D01*
X148283624Y-214630541D01*
X150240146Y-214630541D01*
X151430000Y-215820395D01*
X152619854Y-214630541D01*
X152484496Y-214332545D01*
X151766120Y-214055934D01*
X150996573Y-214075290D01*
X150375504Y-214332545D01*
X150240146Y-214630541D01*
X148283624Y-214630541D01*
X148248157Y-214452235D01*
X148107809Y-214242191D01*
X147985000Y-214160132D01*
X147985000Y-208830022D01*
X149724584Y-208830022D01*
X149945353Y-209200743D01*
X150917012Y-209594119D01*
X151965247Y-209585713D01*
X152894647Y-209200743D01*
X153115416Y-208830022D01*
X151420000Y-207134605D01*
X149724584Y-208830022D01*
X147985000Y-208830022D01*
X147985000Y-206452012D01*
X148780881Y-206452012D01*
X148789287Y-207500247D01*
X149174257Y-208429647D01*
X149544978Y-208650416D01*
X151240395Y-206955000D01*
X151599605Y-206955000D01*
X153295022Y-208650416D01*
X153665743Y-208429647D01*
X154059119Y-207457988D01*
X154050713Y-206409753D01*
X153665743Y-205480353D01*
X153295022Y-205259584D01*
X151599605Y-206955000D01*
X151240395Y-206955000D01*
X149544978Y-205259584D01*
X149174257Y-205480353D01*
X148780881Y-206452012D01*
X147985000Y-206452012D01*
X147985000Y-205079978D01*
X149724584Y-205079978D01*
X151420000Y-206775395D01*
X153115416Y-205079978D01*
X152894647Y-204709257D01*
X151922988Y-204315881D01*
X150874753Y-204324287D01*
X149945353Y-204709257D01*
X149724584Y-205079978D01*
X147985000Y-205079978D01*
X147985000Y-204327238D01*
X148185238Y-204127000D01*
X154875001Y-204127000D01*
X154875000Y-214898496D01*
X154869586Y-214903910D01*
X154575000Y-215615105D01*
X154575000Y-216384895D01*
X154869586Y-217096090D01*
X155413910Y-217640414D01*
X156125105Y-217935000D01*
X156894895Y-217935000D01*
X157606090Y-217640414D01*
X158150414Y-217096090D01*
X158445000Y-216384895D01*
X158445000Y-215615105D01*
X158150414Y-214903910D01*
X158145000Y-214898496D01*
X158145000Y-204127000D01*
X158500000Y-204127000D01*
X158548601Y-204117333D01*
X158589803Y-204089803D01*
X158617333Y-204048601D01*
X158627000Y-204000000D01*
X158627000Y-179000000D01*
X158617333Y-178951399D01*
X158589803Y-178910197D01*
X158548601Y-178882667D01*
X158500000Y-178873000D01*
X146810000Y-178873000D01*
X146810000Y-175530022D01*
X149724584Y-175530022D01*
X149945353Y-175900743D01*
X150917012Y-176294119D01*
X151965247Y-176285713D01*
X152894647Y-175900743D01*
X153115416Y-175530022D01*
X151420000Y-173834605D01*
X149724584Y-175530022D01*
X146810000Y-175530022D01*
X146810000Y-173152012D01*
X148780881Y-173152012D01*
X148789287Y-174200247D01*
X149174257Y-175129647D01*
X149544978Y-175350416D01*
X151240395Y-173655000D01*
X151599605Y-173655000D01*
X153295022Y-175350416D01*
X153665743Y-175129647D01*
X154059119Y-174157988D01*
X154050713Y-173109753D01*
X153665743Y-172180353D01*
X153295022Y-171959584D01*
X151599605Y-173655000D01*
X151240395Y-173655000D01*
X149544978Y-171959584D01*
X149174257Y-172180353D01*
X148780881Y-173152012D01*
X146810000Y-173152012D01*
X146810000Y-171779978D01*
X149724584Y-171779978D01*
X151420000Y-173475395D01*
X153115416Y-171779978D01*
X152894647Y-171409257D01*
X151922988Y-171015881D01*
X150874753Y-171024287D01*
X149945353Y-171409257D01*
X149724584Y-171779978D01*
X146810000Y-171779978D01*
X146810000Y-169732801D01*
X147634802Y-168908000D01*
X163831760Y-168908000D01*
X163811000Y-168958118D01*
X163811000Y-169124190D01*
X161309924Y-171625267D01*
X161246465Y-171667669D01*
X161078490Y-171919062D01*
X161034394Y-172140747D01*
X161034394Y-172140751D01*
X161019506Y-172215598D01*
X161034394Y-172290445D01*
X161034395Y-186828488D01*
X160916963Y-186945920D01*
X160759394Y-187326326D01*
X160759394Y-187738074D01*
X160916963Y-188118480D01*
X161208114Y-188409631D01*
X161586428Y-188566334D01*
X161521400Y-188723326D01*
X161521400Y-189135074D01*
X161678969Y-189515480D01*
X161970120Y-189806631D01*
X162344007Y-189961500D01*
X162287000Y-190099126D01*
X162287000Y-190510874D01*
X162444569Y-190891280D01*
X162735720Y-191182431D01*
X163109787Y-191337374D01*
X163049000Y-191484126D01*
X163049000Y-191895874D01*
X163206569Y-192276280D01*
X163497720Y-192567431D01*
X163871787Y-192722374D01*
X163811000Y-192869126D01*
X163811000Y-193280874D01*
X163968569Y-193661280D01*
X164259720Y-193952431D01*
X164633787Y-194107374D01*
X164573000Y-194254126D01*
X164573000Y-194665874D01*
X164730569Y-195046280D01*
X165021720Y-195337431D01*
X165402126Y-195495000D01*
X165813874Y-195495000D01*
X166194280Y-195337431D01*
X166485431Y-195046280D01*
X166643000Y-194665874D01*
X166643000Y-194254126D01*
X166485431Y-193873720D01*
X166368000Y-193756289D01*
X166368000Y-181551711D01*
X166485431Y-181434280D01*
X166643000Y-181053874D01*
X166643000Y-180896126D01*
X193884600Y-180896126D01*
X193884600Y-181307874D01*
X194042169Y-181688280D01*
X194159601Y-181805712D01*
X194159600Y-182709689D01*
X194042169Y-182827120D01*
X193884600Y-183207526D01*
X193884600Y-183619274D01*
X194042169Y-183999680D01*
X194333320Y-184290831D01*
X194373000Y-184307267D01*
X194373000Y-204000000D01*
X194382667Y-204048601D01*
X194410197Y-204089803D01*
X194451399Y-204117333D01*
X194500000Y-204127000D01*
X194715001Y-204127000D01*
X194715000Y-214160132D01*
X194592191Y-214242191D01*
X194451843Y-214452235D01*
X194402560Y-214700000D01*
X194402560Y-217300000D01*
X194451843Y-217547765D01*
X194592191Y-217757809D01*
X194802235Y-217898157D01*
X195050000Y-217947440D01*
X197650000Y-217947440D01*
X197897765Y-217898157D01*
X198107809Y-217757809D01*
X198248157Y-217547765D01*
X198283623Y-217369459D01*
X200240146Y-217369459D01*
X200375504Y-217667455D01*
X201093880Y-217944066D01*
X201863427Y-217924710D01*
X202484496Y-217667455D01*
X202619854Y-217369459D01*
X201430000Y-216179605D01*
X200240146Y-217369459D01*
X198283623Y-217369459D01*
X198297440Y-217300000D01*
X198297440Y-215663880D01*
X199485934Y-215663880D01*
X199505290Y-216433427D01*
X199762545Y-217054496D01*
X200060541Y-217189854D01*
X201250395Y-216000000D01*
X201609605Y-216000000D01*
X202799459Y-217189854D01*
X203097455Y-217054496D01*
X203374066Y-216336120D01*
X203354710Y-215566573D01*
X203097455Y-214945504D01*
X202799459Y-214810146D01*
X201609605Y-216000000D01*
X201250395Y-216000000D01*
X200060541Y-214810146D01*
X199762545Y-214945504D01*
X199485934Y-215663880D01*
X198297440Y-215663880D01*
X198297440Y-214700000D01*
X198283624Y-214630541D01*
X200240146Y-214630541D01*
X201430000Y-215820395D01*
X202619854Y-214630541D01*
X202484496Y-214332545D01*
X201766120Y-214055934D01*
X200996573Y-214075290D01*
X200375504Y-214332545D01*
X200240146Y-214630541D01*
X198283624Y-214630541D01*
X198248157Y-214452235D01*
X198107809Y-214242191D01*
X197985000Y-214160132D01*
X197985000Y-208830022D01*
X199724584Y-208830022D01*
X199945353Y-209200743D01*
X200917012Y-209594119D01*
X201965247Y-209585713D01*
X202894647Y-209200743D01*
X203115416Y-208830022D01*
X201420000Y-207134605D01*
X199724584Y-208830022D01*
X197985000Y-208830022D01*
X197985000Y-206452012D01*
X198780881Y-206452012D01*
X198789287Y-207500247D01*
X199174257Y-208429647D01*
X199544978Y-208650416D01*
X201240395Y-206955000D01*
X201599605Y-206955000D01*
X203295022Y-208650416D01*
X203665743Y-208429647D01*
X204059119Y-207457988D01*
X204050713Y-206409753D01*
X203665743Y-205480353D01*
X203295022Y-205259584D01*
X201599605Y-206955000D01*
X201240395Y-206955000D01*
X199544978Y-205259584D01*
X199174257Y-205480353D01*
X198780881Y-206452012D01*
X197985000Y-206452012D01*
X197985000Y-205079978D01*
X199724584Y-205079978D01*
X201420000Y-206775395D01*
X203115416Y-205079978D01*
X202894647Y-204709257D01*
X201922988Y-204315881D01*
X200874753Y-204324287D01*
X199945353Y-204709257D01*
X199724584Y-205079978D01*
X197985000Y-205079978D01*
X197985000Y-204327238D01*
X198185238Y-204127000D01*
X204875001Y-204127000D01*
X204875000Y-214898496D01*
X204869586Y-214903910D01*
X204575000Y-215615105D01*
X204575000Y-216384895D01*
X204869586Y-217096090D01*
X205413910Y-217640414D01*
X206125105Y-217935000D01*
X206894895Y-217935000D01*
X207606090Y-217640414D01*
X208150414Y-217096090D01*
X208445000Y-216384895D01*
X208445000Y-215615105D01*
X208150414Y-214903910D01*
X208145000Y-214898496D01*
X208145000Y-204127000D01*
X208500000Y-204127000D01*
X208548601Y-204117333D01*
X208589803Y-204089803D01*
X208617333Y-204048601D01*
X208627000Y-204000000D01*
X208627000Y-184557726D01*
X231853976Y-184557726D01*
X231853976Y-184969474D01*
X232011545Y-185349880D01*
X232302696Y-185641031D01*
X232683102Y-185798600D01*
X232959279Y-185798600D01*
X232899000Y-185944126D01*
X232899000Y-186355874D01*
X233056569Y-186736280D01*
X233347720Y-187027431D01*
X233728126Y-187185000D01*
X234139874Y-187185000D01*
X234520280Y-187027431D01*
X234811431Y-186736280D01*
X234969000Y-186355874D01*
X234969000Y-185944126D01*
X234811431Y-185563720D01*
X234694000Y-185446289D01*
X234694000Y-179000000D01*
X244373000Y-179000000D01*
X244373000Y-204000000D01*
X244382667Y-204048601D01*
X244410197Y-204089803D01*
X244451399Y-204117333D01*
X244500000Y-204127000D01*
X244715001Y-204127000D01*
X244715000Y-214160132D01*
X244592191Y-214242191D01*
X244451843Y-214452235D01*
X244402560Y-214700000D01*
X244402560Y-217300000D01*
X244451843Y-217547765D01*
X244592191Y-217757809D01*
X244802235Y-217898157D01*
X245050000Y-217947440D01*
X247650000Y-217947440D01*
X247897765Y-217898157D01*
X248107809Y-217757809D01*
X248248157Y-217547765D01*
X248283623Y-217369459D01*
X250240146Y-217369459D01*
X250375504Y-217667455D01*
X251093880Y-217944066D01*
X251863427Y-217924710D01*
X252484496Y-217667455D01*
X252619854Y-217369459D01*
X251430000Y-216179605D01*
X250240146Y-217369459D01*
X248283623Y-217369459D01*
X248297440Y-217300000D01*
X248297440Y-215663880D01*
X249485934Y-215663880D01*
X249505290Y-216433427D01*
X249762545Y-217054496D01*
X250060541Y-217189854D01*
X251250395Y-216000000D01*
X251609605Y-216000000D01*
X252799459Y-217189854D01*
X253097455Y-217054496D01*
X253374066Y-216336120D01*
X253354710Y-215566573D01*
X253097455Y-214945504D01*
X252799459Y-214810146D01*
X251609605Y-216000000D01*
X251250395Y-216000000D01*
X250060541Y-214810146D01*
X249762545Y-214945504D01*
X249485934Y-215663880D01*
X248297440Y-215663880D01*
X248297440Y-214700000D01*
X248283624Y-214630541D01*
X250240146Y-214630541D01*
X251430000Y-215820395D01*
X252619854Y-214630541D01*
X252484496Y-214332545D01*
X251766120Y-214055934D01*
X250996573Y-214075290D01*
X250375504Y-214332545D01*
X250240146Y-214630541D01*
X248283624Y-214630541D01*
X248248157Y-214452235D01*
X248107809Y-214242191D01*
X247985000Y-214160132D01*
X247985000Y-208830022D01*
X249724584Y-208830022D01*
X249945353Y-209200743D01*
X250917012Y-209594119D01*
X251965247Y-209585713D01*
X252894647Y-209200743D01*
X253115416Y-208830022D01*
X251420000Y-207134605D01*
X249724584Y-208830022D01*
X247985000Y-208830022D01*
X247985000Y-206452012D01*
X248780881Y-206452012D01*
X248789287Y-207500247D01*
X249174257Y-208429647D01*
X249544978Y-208650416D01*
X251240395Y-206955000D01*
X251599605Y-206955000D01*
X253295022Y-208650416D01*
X253665743Y-208429647D01*
X254059119Y-207457988D01*
X254050713Y-206409753D01*
X253665743Y-205480353D01*
X253295022Y-205259584D01*
X251599605Y-206955000D01*
X251240395Y-206955000D01*
X249544978Y-205259584D01*
X249174257Y-205480353D01*
X248780881Y-206452012D01*
X247985000Y-206452012D01*
X247985000Y-205079978D01*
X249724584Y-205079978D01*
X251420000Y-206775395D01*
X253115416Y-205079978D01*
X252894647Y-204709257D01*
X251922988Y-204315881D01*
X250874753Y-204324287D01*
X249945353Y-204709257D01*
X249724584Y-205079978D01*
X247985000Y-205079978D01*
X247985000Y-204327238D01*
X248185238Y-204127000D01*
X254875001Y-204127000D01*
X254875000Y-214898496D01*
X254869586Y-214903910D01*
X254575000Y-215615105D01*
X254575000Y-216384895D01*
X254869586Y-217096090D01*
X255413910Y-217640414D01*
X256125105Y-217935000D01*
X256894895Y-217935000D01*
X257606090Y-217640414D01*
X258150414Y-217096090D01*
X258445000Y-216384895D01*
X258445000Y-215674778D01*
X261365000Y-215674778D01*
X261365000Y-216325222D01*
X261613914Y-216926153D01*
X262073847Y-217386086D01*
X262674778Y-217635000D01*
X263325222Y-217635000D01*
X263926153Y-217386086D01*
X264270000Y-217042239D01*
X264613847Y-217386086D01*
X265214778Y-217635000D01*
X265865222Y-217635000D01*
X266466153Y-217386086D01*
X266810000Y-217042239D01*
X267153847Y-217386086D01*
X267754778Y-217635000D01*
X268405222Y-217635000D01*
X269006153Y-217386086D01*
X269350000Y-217042239D01*
X269693847Y-217386086D01*
X270294778Y-217635000D01*
X270945222Y-217635000D01*
X271546153Y-217386086D01*
X271890000Y-217042239D01*
X272233847Y-217386086D01*
X272834778Y-217635000D01*
X273485222Y-217635000D01*
X274086153Y-217386086D01*
X274319707Y-217152532D01*
X278527073Y-217152532D01*
X278625736Y-217419387D01*
X279235461Y-217645908D01*
X279885460Y-217621856D01*
X280374264Y-217419387D01*
X280472927Y-217152532D01*
X281067073Y-217152532D01*
X281165736Y-217419387D01*
X281775461Y-217645908D01*
X282425460Y-217621856D01*
X282914264Y-217419387D01*
X283012927Y-217152532D01*
X283607073Y-217152532D01*
X283705736Y-217419387D01*
X284315461Y-217645908D01*
X284965460Y-217621856D01*
X285454264Y-217419387D01*
X285552927Y-217152532D01*
X286147073Y-217152532D01*
X286245736Y-217419387D01*
X286855461Y-217645908D01*
X287505460Y-217621856D01*
X287994264Y-217419387D01*
X288092927Y-217152532D01*
X288687073Y-217152532D01*
X288785736Y-217419387D01*
X289395461Y-217645908D01*
X290045460Y-217621856D01*
X290534264Y-217419387D01*
X290632927Y-217152532D01*
X289660000Y-216179605D01*
X288687073Y-217152532D01*
X288092927Y-217152532D01*
X287120000Y-216179605D01*
X286147073Y-217152532D01*
X285552927Y-217152532D01*
X284580000Y-216179605D01*
X283607073Y-217152532D01*
X283012927Y-217152532D01*
X282040000Y-216179605D01*
X281067073Y-217152532D01*
X280472927Y-217152532D01*
X279500000Y-216179605D01*
X278527073Y-217152532D01*
X274319707Y-217152532D01*
X274546086Y-216926153D01*
X274795000Y-216325222D01*
X274795000Y-215735461D01*
X277854092Y-215735461D01*
X277878144Y-216385460D01*
X278080613Y-216874264D01*
X278347468Y-216972927D01*
X279320395Y-216000000D01*
X279679605Y-216000000D01*
X280652532Y-216972927D01*
X280770000Y-216929496D01*
X280887468Y-216972927D01*
X281860395Y-216000000D01*
X282219605Y-216000000D01*
X283192532Y-216972927D01*
X283310000Y-216929496D01*
X283427468Y-216972927D01*
X284400395Y-216000000D01*
X284759605Y-216000000D01*
X285732532Y-216972927D01*
X285850000Y-216929496D01*
X285967468Y-216972927D01*
X286940395Y-216000000D01*
X287299605Y-216000000D01*
X288272532Y-216972927D01*
X288390000Y-216929496D01*
X288507468Y-216972927D01*
X289480395Y-216000000D01*
X289839605Y-216000000D01*
X290812532Y-216972927D01*
X291079387Y-216874264D01*
X291305908Y-216264539D01*
X291281856Y-215614540D01*
X291079387Y-215125736D01*
X290812532Y-215027073D01*
X289839605Y-216000000D01*
X289480395Y-216000000D01*
X288507468Y-215027073D01*
X288390000Y-215070504D01*
X288272532Y-215027073D01*
X287299605Y-216000000D01*
X286940395Y-216000000D01*
X285967468Y-215027073D01*
X285850000Y-215070504D01*
X285732532Y-215027073D01*
X284759605Y-216000000D01*
X284400395Y-216000000D01*
X283427468Y-215027073D01*
X283310000Y-215070504D01*
X283192532Y-215027073D01*
X282219605Y-216000000D01*
X281860395Y-216000000D01*
X280887468Y-215027073D01*
X280770000Y-215070504D01*
X280652532Y-215027073D01*
X279679605Y-216000000D01*
X279320395Y-216000000D01*
X278347468Y-215027073D01*
X278080613Y-215125736D01*
X277854092Y-215735461D01*
X274795000Y-215735461D01*
X274795000Y-215674778D01*
X274546086Y-215073847D01*
X274319707Y-214847468D01*
X278527073Y-214847468D01*
X279500000Y-215820395D01*
X280472927Y-214847468D01*
X281067073Y-214847468D01*
X282040000Y-215820395D01*
X283012927Y-214847468D01*
X283607073Y-214847468D01*
X284580000Y-215820395D01*
X285552927Y-214847468D01*
X286147073Y-214847468D01*
X287120000Y-215820395D01*
X288092927Y-214847468D01*
X288687073Y-214847468D01*
X289660000Y-215820395D01*
X290632927Y-214847468D01*
X290534264Y-214580613D01*
X289924539Y-214354092D01*
X289274540Y-214378144D01*
X288785736Y-214580613D01*
X288687073Y-214847468D01*
X288092927Y-214847468D01*
X287994264Y-214580613D01*
X287384539Y-214354092D01*
X286734540Y-214378144D01*
X286245736Y-214580613D01*
X286147073Y-214847468D01*
X285552927Y-214847468D01*
X285454264Y-214580613D01*
X284844539Y-214354092D01*
X284194540Y-214378144D01*
X283705736Y-214580613D01*
X283607073Y-214847468D01*
X283012927Y-214847468D01*
X282914264Y-214580613D01*
X282304539Y-214354092D01*
X281654540Y-214378144D01*
X281165736Y-214580613D01*
X281067073Y-214847468D01*
X280472927Y-214847468D01*
X280374264Y-214580613D01*
X279764539Y-214354092D01*
X279114540Y-214378144D01*
X278625736Y-214580613D01*
X278527073Y-214847468D01*
X274319707Y-214847468D01*
X274086153Y-214613914D01*
X273485222Y-214365000D01*
X272834778Y-214365000D01*
X272233847Y-214613914D01*
X271890000Y-214957761D01*
X271546153Y-214613914D01*
X270945222Y-214365000D01*
X270294778Y-214365000D01*
X269693847Y-214613914D01*
X269350000Y-214957761D01*
X269006153Y-214613914D01*
X268405222Y-214365000D01*
X267754778Y-214365000D01*
X267153847Y-214613914D01*
X266810000Y-214957761D01*
X266466153Y-214613914D01*
X265865222Y-214365000D01*
X265214778Y-214365000D01*
X264613847Y-214613914D01*
X264270000Y-214957761D01*
X263926153Y-214613914D01*
X263325222Y-214365000D01*
X262674778Y-214365000D01*
X262073847Y-214613914D01*
X261613914Y-215073847D01*
X261365000Y-215674778D01*
X258445000Y-215674778D01*
X258445000Y-215615105D01*
X258150414Y-214903910D01*
X258145000Y-214898496D01*
X258145000Y-208054778D01*
X261365000Y-208054778D01*
X261365000Y-208705222D01*
X261613914Y-209306153D01*
X262073847Y-209766086D01*
X262674778Y-210015000D01*
X263325222Y-210015000D01*
X263926153Y-209766086D01*
X264270000Y-209422239D01*
X264613847Y-209766086D01*
X265214778Y-210015000D01*
X265865222Y-210015000D01*
X266466153Y-209766086D01*
X266810000Y-209422239D01*
X267153847Y-209766086D01*
X267754778Y-210015000D01*
X268405222Y-210015000D01*
X269006153Y-209766086D01*
X269350000Y-209422239D01*
X269693847Y-209766086D01*
X270294778Y-210015000D01*
X270945222Y-210015000D01*
X271546153Y-209766086D01*
X271890000Y-209422239D01*
X272233847Y-209766086D01*
X272834778Y-210015000D01*
X273485222Y-210015000D01*
X274086153Y-209766086D01*
X274319707Y-209532532D01*
X278527073Y-209532532D01*
X278625736Y-209799387D01*
X279235461Y-210025908D01*
X279885460Y-210001856D01*
X280374264Y-209799387D01*
X280472927Y-209532532D01*
X281067073Y-209532532D01*
X281165736Y-209799387D01*
X281775461Y-210025908D01*
X282425460Y-210001856D01*
X282914264Y-209799387D01*
X283012927Y-209532532D01*
X283607073Y-209532532D01*
X283705736Y-209799387D01*
X284315461Y-210025908D01*
X284965460Y-210001856D01*
X285454264Y-209799387D01*
X285552927Y-209532532D01*
X286147073Y-209532532D01*
X286245736Y-209799387D01*
X286855461Y-210025908D01*
X287505460Y-210001856D01*
X287994264Y-209799387D01*
X288092927Y-209532532D01*
X288687073Y-209532532D01*
X288785736Y-209799387D01*
X289395461Y-210025908D01*
X290045460Y-210001856D01*
X290534264Y-209799387D01*
X290632927Y-209532532D01*
X289660000Y-208559605D01*
X288687073Y-209532532D01*
X288092927Y-209532532D01*
X287120000Y-208559605D01*
X286147073Y-209532532D01*
X285552927Y-209532532D01*
X284580000Y-208559605D01*
X283607073Y-209532532D01*
X283012927Y-209532532D01*
X282040000Y-208559605D01*
X281067073Y-209532532D01*
X280472927Y-209532532D01*
X279500000Y-208559605D01*
X278527073Y-209532532D01*
X274319707Y-209532532D01*
X274546086Y-209306153D01*
X274795000Y-208705222D01*
X274795000Y-208115461D01*
X277854092Y-208115461D01*
X277878144Y-208765460D01*
X278080613Y-209254264D01*
X278347468Y-209352927D01*
X279320395Y-208380000D01*
X279679605Y-208380000D01*
X280652532Y-209352927D01*
X280770000Y-209309496D01*
X280887468Y-209352927D01*
X281860395Y-208380000D01*
X282219605Y-208380000D01*
X283192532Y-209352927D01*
X283310000Y-209309496D01*
X283427468Y-209352927D01*
X284400395Y-208380000D01*
X284759605Y-208380000D01*
X285732532Y-209352927D01*
X285850000Y-209309496D01*
X285967468Y-209352927D01*
X286940395Y-208380000D01*
X287299605Y-208380000D01*
X288272532Y-209352927D01*
X288390000Y-209309496D01*
X288507468Y-209352927D01*
X289480395Y-208380000D01*
X289839605Y-208380000D01*
X290812532Y-209352927D01*
X291079387Y-209254264D01*
X291305908Y-208644539D01*
X291281856Y-207994540D01*
X291079387Y-207505736D01*
X290812532Y-207407073D01*
X289839605Y-208380000D01*
X289480395Y-208380000D01*
X288507468Y-207407073D01*
X288390000Y-207450504D01*
X288272532Y-207407073D01*
X287299605Y-208380000D01*
X286940395Y-208380000D01*
X285967468Y-207407073D01*
X285850000Y-207450504D01*
X285732532Y-207407073D01*
X284759605Y-208380000D01*
X284400395Y-208380000D01*
X283427468Y-207407073D01*
X283310000Y-207450504D01*
X283192532Y-207407073D01*
X282219605Y-208380000D01*
X281860395Y-208380000D01*
X280887468Y-207407073D01*
X280770000Y-207450504D01*
X280652532Y-207407073D01*
X279679605Y-208380000D01*
X279320395Y-208380000D01*
X278347468Y-207407073D01*
X278080613Y-207505736D01*
X277854092Y-208115461D01*
X274795000Y-208115461D01*
X274795000Y-208054778D01*
X274546086Y-207453847D01*
X274319707Y-207227468D01*
X278527073Y-207227468D01*
X279500000Y-208200395D01*
X280472927Y-207227468D01*
X281067073Y-207227468D01*
X282040000Y-208200395D01*
X283012927Y-207227468D01*
X283607073Y-207227468D01*
X284580000Y-208200395D01*
X285552927Y-207227468D01*
X286147073Y-207227468D01*
X287120000Y-208200395D01*
X288092927Y-207227468D01*
X288687073Y-207227468D01*
X289660000Y-208200395D01*
X290632927Y-207227468D01*
X290534264Y-206960613D01*
X289924539Y-206734092D01*
X289274540Y-206758144D01*
X288785736Y-206960613D01*
X288687073Y-207227468D01*
X288092927Y-207227468D01*
X287994264Y-206960613D01*
X287384539Y-206734092D01*
X286734540Y-206758144D01*
X286245736Y-206960613D01*
X286147073Y-207227468D01*
X285552927Y-207227468D01*
X285454264Y-206960613D01*
X284844539Y-206734092D01*
X284194540Y-206758144D01*
X283705736Y-206960613D01*
X283607073Y-207227468D01*
X283012927Y-207227468D01*
X282914264Y-206960613D01*
X282304539Y-206734092D01*
X281654540Y-206758144D01*
X281165736Y-206960613D01*
X281067073Y-207227468D01*
X280472927Y-207227468D01*
X280374264Y-206960613D01*
X279764539Y-206734092D01*
X279114540Y-206758144D01*
X278625736Y-206960613D01*
X278527073Y-207227468D01*
X274319707Y-207227468D01*
X274086153Y-206993914D01*
X273485222Y-206745000D01*
X272834778Y-206745000D01*
X272233847Y-206993914D01*
X271890000Y-207337761D01*
X271546153Y-206993914D01*
X270945222Y-206745000D01*
X270294778Y-206745000D01*
X269693847Y-206993914D01*
X269350000Y-207337761D01*
X269006153Y-206993914D01*
X268405222Y-206745000D01*
X267754778Y-206745000D01*
X267153847Y-206993914D01*
X266810000Y-207337761D01*
X266466153Y-206993914D01*
X265865222Y-206745000D01*
X265214778Y-206745000D01*
X264613847Y-206993914D01*
X264270000Y-207337761D01*
X263926153Y-206993914D01*
X263325222Y-206745000D01*
X262674778Y-206745000D01*
X262073847Y-206993914D01*
X261613914Y-207453847D01*
X261365000Y-208054778D01*
X258145000Y-208054778D01*
X258145000Y-204127000D01*
X258500000Y-204127000D01*
X258548601Y-204117333D01*
X258589803Y-204089803D01*
X258617333Y-204048601D01*
X258627000Y-204000000D01*
X258627000Y-179000000D01*
X258617333Y-178951399D01*
X258589803Y-178910197D01*
X258548601Y-178882667D01*
X258500000Y-178873000D01*
X244500000Y-178873000D01*
X244451399Y-178882667D01*
X244410197Y-178910197D01*
X244382667Y-178951399D01*
X244373000Y-179000000D01*
X234694000Y-179000000D01*
X234694000Y-178000000D01*
X294373000Y-178000000D01*
X294373000Y-203000000D01*
X294382667Y-203048601D01*
X294410197Y-203089803D01*
X294451399Y-203117333D01*
X294500000Y-203127000D01*
X294787001Y-203127000D01*
X294682969Y-203650000D01*
X294715001Y-203811035D01*
X294715000Y-214160132D01*
X294592191Y-214242191D01*
X294451843Y-214452235D01*
X294402560Y-214700000D01*
X294402560Y-217300000D01*
X294451843Y-217547765D01*
X294592191Y-217757809D01*
X294802235Y-217898157D01*
X295050000Y-217947440D01*
X297650000Y-217947440D01*
X297897765Y-217898157D01*
X298107809Y-217757809D01*
X298248157Y-217547765D01*
X298283623Y-217369459D01*
X300240146Y-217369459D01*
X300375504Y-217667455D01*
X301093880Y-217944066D01*
X301863427Y-217924710D01*
X302484496Y-217667455D01*
X302619854Y-217369459D01*
X301430000Y-216179605D01*
X300240146Y-217369459D01*
X298283623Y-217369459D01*
X298297440Y-217300000D01*
X298297440Y-215663880D01*
X299485934Y-215663880D01*
X299505290Y-216433427D01*
X299762545Y-217054496D01*
X300060541Y-217189854D01*
X301250395Y-216000000D01*
X301609605Y-216000000D01*
X302799459Y-217189854D01*
X303097455Y-217054496D01*
X303374066Y-216336120D01*
X303354710Y-215566573D01*
X303097455Y-214945504D01*
X302799459Y-214810146D01*
X301609605Y-216000000D01*
X301250395Y-216000000D01*
X300060541Y-214810146D01*
X299762545Y-214945504D01*
X299485934Y-215663880D01*
X298297440Y-215663880D01*
X298297440Y-214700000D01*
X298283624Y-214630541D01*
X300240146Y-214630541D01*
X301430000Y-215820395D01*
X302619854Y-214630541D01*
X302484496Y-214332545D01*
X301766120Y-214055934D01*
X300996573Y-214075290D01*
X300375504Y-214332545D01*
X300240146Y-214630541D01*
X298283624Y-214630541D01*
X298248157Y-214452235D01*
X298107809Y-214242191D01*
X297985000Y-214160132D01*
X297985000Y-208830022D01*
X299724584Y-208830022D01*
X299945353Y-209200743D01*
X300917012Y-209594119D01*
X301965247Y-209585713D01*
X302894647Y-209200743D01*
X303115416Y-208830022D01*
X301420000Y-207134605D01*
X299724584Y-208830022D01*
X297985000Y-208830022D01*
X297985000Y-206452012D01*
X298780881Y-206452012D01*
X298789287Y-207500247D01*
X299174257Y-208429647D01*
X299544978Y-208650416D01*
X301240395Y-206955000D01*
X301599605Y-206955000D01*
X303295022Y-208650416D01*
X303665743Y-208429647D01*
X304059119Y-207457988D01*
X304050713Y-206409753D01*
X303665743Y-205480353D01*
X303295022Y-205259584D01*
X301599605Y-206955000D01*
X301240395Y-206955000D01*
X299544978Y-205259584D01*
X299174257Y-205480353D01*
X298780881Y-206452012D01*
X297985000Y-206452012D01*
X297985000Y-205079978D01*
X299724584Y-205079978D01*
X301420000Y-206775395D01*
X303115416Y-205079978D01*
X302894647Y-204709257D01*
X301922988Y-204315881D01*
X300874753Y-204324287D01*
X299945353Y-204709257D01*
X299724584Y-205079978D01*
X297985000Y-205079978D01*
X297985000Y-204327238D01*
X299185239Y-203127000D01*
X304875001Y-203127000D01*
X304875000Y-214898496D01*
X304869586Y-214903910D01*
X304575000Y-215615105D01*
X304575000Y-216384895D01*
X304869586Y-217096090D01*
X305413910Y-217640414D01*
X306125105Y-217935000D01*
X306894895Y-217935000D01*
X307606090Y-217640414D01*
X308150414Y-217096090D01*
X308445000Y-216384895D01*
X308445000Y-215615105D01*
X308150414Y-214903910D01*
X308145000Y-214898496D01*
X308145000Y-203127000D01*
X308500000Y-203127000D01*
X308548601Y-203117333D01*
X308589803Y-203089803D01*
X308617333Y-203048601D01*
X308627000Y-203000000D01*
X308627000Y-178000000D01*
X308617333Y-177951399D01*
X308589803Y-177910197D01*
X308548601Y-177882667D01*
X308500000Y-177873000D01*
X294500000Y-177873000D01*
X294451399Y-177882667D01*
X294410197Y-177910197D01*
X294382667Y-177951399D01*
X294373000Y-178000000D01*
X234694000Y-178000000D01*
X234694000Y-175530022D01*
X249724584Y-175530022D01*
X249945353Y-175900743D01*
X250917012Y-176294119D01*
X251965247Y-176285713D01*
X252894647Y-175900743D01*
X253115416Y-175530022D01*
X299724584Y-175530022D01*
X299945353Y-175900743D01*
X300917012Y-176294119D01*
X301965247Y-176285713D01*
X302894647Y-175900743D01*
X303115416Y-175530022D01*
X301420000Y-173834605D01*
X299724584Y-175530022D01*
X253115416Y-175530022D01*
X251420000Y-173834605D01*
X249724584Y-175530022D01*
X234694000Y-175530022D01*
X234694000Y-175271822D01*
X234872441Y-175093381D01*
X235030010Y-174712975D01*
X235030010Y-174301227D01*
X234872441Y-173920821D01*
X234581290Y-173629670D01*
X234305000Y-173515227D01*
X234305000Y-173152012D01*
X248780881Y-173152012D01*
X248789287Y-174200247D01*
X249174257Y-175129647D01*
X249544978Y-175350416D01*
X251240395Y-173655000D01*
X251599605Y-173655000D01*
X253295022Y-175350416D01*
X253665743Y-175129647D01*
X254059119Y-174157988D01*
X254051052Y-173152012D01*
X298780881Y-173152012D01*
X298789287Y-174200247D01*
X299174257Y-175129647D01*
X299544978Y-175350416D01*
X301240395Y-173655000D01*
X301599605Y-173655000D01*
X303295022Y-175350416D01*
X303665743Y-175129647D01*
X304059119Y-174157988D01*
X304050713Y-173109753D01*
X303665743Y-172180353D01*
X303295022Y-171959584D01*
X301599605Y-173655000D01*
X301240395Y-173655000D01*
X299544978Y-171959584D01*
X299174257Y-172180353D01*
X298780881Y-173152012D01*
X254051052Y-173152012D01*
X254050713Y-173109753D01*
X253665743Y-172180353D01*
X253295022Y-171959584D01*
X251599605Y-173655000D01*
X251240395Y-173655000D01*
X249544978Y-171959584D01*
X249174257Y-172180353D01*
X248780881Y-173152012D01*
X234305000Y-173152012D01*
X234305000Y-173127726D01*
X234147431Y-172747320D01*
X233856280Y-172456169D01*
X233475874Y-172298600D01*
X233064126Y-172298600D01*
X232683720Y-172456169D01*
X232392569Y-172747320D01*
X232235000Y-173127726D01*
X232235000Y-173539474D01*
X232392569Y-173919880D01*
X232510000Y-174037311D01*
X232510001Y-183204198D01*
X232404505Y-183309693D01*
X232341047Y-183352095D01*
X232173072Y-183603488D01*
X232128976Y-183825173D01*
X232128976Y-183825177D01*
X232114088Y-183900024D01*
X232128976Y-183974871D01*
X232128976Y-184059889D01*
X232011545Y-184177320D01*
X231853976Y-184557726D01*
X208627000Y-184557726D01*
X208627000Y-179000000D01*
X208617333Y-178951399D01*
X208589803Y-178910197D01*
X208548601Y-178882667D01*
X208500000Y-178873000D01*
X194500000Y-178873000D01*
X194451399Y-178882667D01*
X194410197Y-178910197D01*
X194382667Y-178951399D01*
X194373000Y-179000000D01*
X194373000Y-180208133D01*
X194333320Y-180224569D01*
X194042169Y-180515720D01*
X193884600Y-180896126D01*
X166643000Y-180896126D01*
X166643000Y-180642126D01*
X166485431Y-180261720D01*
X166436711Y-180213000D01*
X166485431Y-180164280D01*
X166643000Y-179783874D01*
X166643000Y-179372126D01*
X166485431Y-178991720D01*
X166194280Y-178700569D01*
X165813874Y-178543000D01*
X165402126Y-178543000D01*
X165021720Y-178700569D01*
X164844000Y-178878289D01*
X164844000Y-176844801D01*
X165647802Y-176041000D01*
X165813874Y-176041000D01*
X166194280Y-175883431D01*
X166485431Y-175592280D01*
X166511219Y-175530022D01*
X199724584Y-175530022D01*
X199945353Y-175900743D01*
X200917012Y-176294119D01*
X201965247Y-176285713D01*
X202894647Y-175900743D01*
X203115416Y-175530022D01*
X201420000Y-173834605D01*
X199724584Y-175530022D01*
X166511219Y-175530022D01*
X166643000Y-175211874D01*
X166643000Y-174800126D01*
X166485431Y-174419720D01*
X166436711Y-174371000D01*
X166485431Y-174322280D01*
X166643000Y-173941874D01*
X166643000Y-173530126D01*
X166486381Y-173152012D01*
X198780881Y-173152012D01*
X198789287Y-174200247D01*
X199174257Y-175129647D01*
X199544978Y-175350416D01*
X201240395Y-173655000D01*
X201599605Y-173655000D01*
X203295022Y-175350416D01*
X203665743Y-175129647D01*
X204059119Y-174157988D01*
X204050713Y-173109753D01*
X203665743Y-172180353D01*
X203295022Y-171959584D01*
X201599605Y-173655000D01*
X201240395Y-173655000D01*
X199544978Y-171959584D01*
X199174257Y-172180353D01*
X198780881Y-173152012D01*
X166486381Y-173152012D01*
X166485431Y-173149720D01*
X166194280Y-172858569D01*
X165813874Y-172701000D01*
X165402126Y-172701000D01*
X165021720Y-172858569D01*
X164730569Y-173149720D01*
X164573000Y-173530126D01*
X164573000Y-173696198D01*
X163316400Y-174952799D01*
X163316400Y-173330414D01*
X165685815Y-170961000D01*
X165851887Y-170961000D01*
X166232293Y-170803431D01*
X166523444Y-170512280D01*
X166681013Y-170131874D01*
X166681013Y-169720126D01*
X166523444Y-169339720D01*
X166232293Y-169048569D01*
X165892929Y-168908000D01*
X176334289Y-168908000D01*
X176451720Y-169025431D01*
X176832126Y-169183000D01*
X177243874Y-169183000D01*
X177624280Y-169025431D01*
X177915431Y-168734280D01*
X178073000Y-168353874D01*
X178073000Y-168044004D01*
X178205474Y-168044004D01*
X178585880Y-167886435D01*
X178877031Y-167595284D01*
X179034600Y-167214878D01*
X179034600Y-166803130D01*
X178877031Y-166422724D01*
X178585880Y-166131573D01*
X178205474Y-165974004D01*
X178073000Y-165974004D01*
X178073000Y-165910126D01*
X178060936Y-165881000D01*
X178259874Y-165881000D01*
X178640280Y-165723431D01*
X178757711Y-165606000D01*
X191370000Y-165606000D01*
X191370000Y-165813874D01*
X191527569Y-166194280D01*
X191576289Y-166243000D01*
X191527569Y-166291720D01*
X191370000Y-166672126D01*
X191370000Y-167083874D01*
X191527569Y-167464280D01*
X191818720Y-167755431D01*
X192199126Y-167913000D01*
X192610874Y-167913000D01*
X192991280Y-167755431D01*
X193108711Y-167638000D01*
X196394153Y-167638000D01*
X196469000Y-167652888D01*
X196543847Y-167638000D01*
X196543852Y-167638000D01*
X196765537Y-167593904D01*
X197016929Y-167425929D01*
X197059330Y-167362471D01*
X197063008Y-167358793D01*
X197206000Y-167704007D01*
X197206001Y-170377991D01*
X197056000Y-170740126D01*
X197056000Y-171151874D01*
X197213569Y-171532280D01*
X197504720Y-171823431D01*
X197885126Y-171981000D01*
X198296874Y-171981000D01*
X198677280Y-171823431D01*
X198720733Y-171779978D01*
X199724584Y-171779978D01*
X201420000Y-173475395D01*
X203115416Y-171779978D01*
X249724584Y-171779978D01*
X251420000Y-173475395D01*
X253115416Y-171779978D01*
X299724584Y-171779978D01*
X301420000Y-173475395D01*
X303115416Y-171779978D01*
X302894647Y-171409257D01*
X301922988Y-171015881D01*
X300874753Y-171024287D01*
X299945353Y-171409257D01*
X299724584Y-171779978D01*
X253115416Y-171779978D01*
X252894647Y-171409257D01*
X251922988Y-171015881D01*
X250874753Y-171024287D01*
X249945353Y-171409257D01*
X249724584Y-171779978D01*
X203115416Y-171779978D01*
X202894647Y-171409257D01*
X201922988Y-171015881D01*
X200874753Y-171024287D01*
X199945353Y-171409257D01*
X199724584Y-171779978D01*
X198720733Y-171779978D01*
X198968431Y-171532280D01*
X199126000Y-171151874D01*
X199126000Y-170740126D01*
X198976000Y-170377993D01*
X198976000Y-167704007D01*
X199126000Y-167341874D01*
X199126000Y-167130000D01*
X237937199Y-167130000D01*
X240328671Y-169521473D01*
X240371071Y-169584929D01*
X240622463Y-169752904D01*
X240844148Y-169797000D01*
X240844152Y-169797000D01*
X240919000Y-169811888D01*
X240993848Y-169797000D01*
X252147153Y-169797000D01*
X252222000Y-169811888D01*
X252296847Y-169797000D01*
X252296852Y-169797000D01*
X252518537Y-169752904D01*
X252769929Y-169584929D01*
X252812331Y-169521470D01*
X254230476Y-168103327D01*
X254293929Y-168060929D01*
X254336327Y-167997476D01*
X254336329Y-167997474D01*
X254433890Y-167851463D01*
X254461904Y-167809537D01*
X254506000Y-167587852D01*
X254506000Y-167587848D01*
X254520888Y-167513001D01*
X254506000Y-167438154D01*
X254506000Y-167140178D01*
X254816625Y-166932625D01*
X255016000Y-166634239D01*
X255215375Y-166932625D01*
X255706582Y-167260839D01*
X256139744Y-167347000D01*
X256432256Y-167347000D01*
X256865418Y-167260839D01*
X257356625Y-166932625D01*
X257684839Y-166441418D01*
X257800092Y-165862000D01*
X257684839Y-165282582D01*
X257356625Y-164791375D01*
X256865418Y-164463161D01*
X256432256Y-164377000D01*
X256139744Y-164377000D01*
X255706582Y-164463161D01*
X255215375Y-164791375D01*
X255016000Y-165089761D01*
X254816625Y-164791375D01*
X254325418Y-164463161D01*
X253892256Y-164377000D01*
X253599744Y-164377000D01*
X253166582Y-164463161D01*
X252675375Y-164791375D01*
X252476000Y-165089761D01*
X252276625Y-164791375D01*
X251785418Y-164463161D01*
X251352256Y-164377000D01*
X251059744Y-164377000D01*
X250626582Y-164463161D01*
X250135375Y-164791375D01*
X249922157Y-165110478D01*
X249861183Y-164980642D01*
X249432924Y-164590355D01*
X249022890Y-164420524D01*
X248793000Y-164541845D01*
X248793000Y-165735000D01*
X248813000Y-165735000D01*
X248813000Y-165989000D01*
X248793000Y-165989000D01*
X248793000Y-167182155D01*
X249022890Y-167303476D01*
X249432924Y-167133645D01*
X249861183Y-166743358D01*
X249922157Y-166613522D01*
X250135375Y-166932625D01*
X250404650Y-167112549D01*
X250129199Y-167388000D01*
X241741803Y-167388000D01*
X239477331Y-165123530D01*
X239434929Y-165060071D01*
X239362986Y-165012000D01*
X242088560Y-165012000D01*
X242088560Y-166712000D01*
X242137843Y-166959765D01*
X242278191Y-167169809D01*
X242488235Y-167310157D01*
X242736000Y-167359440D01*
X244436000Y-167359440D01*
X244683765Y-167310157D01*
X244893809Y-167169809D01*
X245034157Y-166959765D01*
X245043184Y-166914381D01*
X245055375Y-166932625D01*
X245546582Y-167260839D01*
X245979744Y-167347000D01*
X246272256Y-167347000D01*
X246705418Y-167260839D01*
X247196625Y-166932625D01*
X247409843Y-166613522D01*
X247470817Y-166743358D01*
X247899076Y-167133645D01*
X248309110Y-167303476D01*
X248539000Y-167182155D01*
X248539000Y-165989000D01*
X248519000Y-165989000D01*
X248519000Y-165735000D01*
X248539000Y-165735000D01*
X248539000Y-164541845D01*
X248309110Y-164420524D01*
X247899076Y-164590355D01*
X247470817Y-164980642D01*
X247409843Y-165110478D01*
X247196625Y-164791375D01*
X246705418Y-164463161D01*
X246272256Y-164377000D01*
X245979744Y-164377000D01*
X245546582Y-164463161D01*
X245055375Y-164791375D01*
X245043184Y-164809619D01*
X245034157Y-164764235D01*
X244893809Y-164554191D01*
X244683765Y-164413843D01*
X244436000Y-164364560D01*
X242736000Y-164364560D01*
X242488235Y-164413843D01*
X242278191Y-164554191D01*
X242137843Y-164764235D01*
X242088560Y-165012000D01*
X239362986Y-165012000D01*
X239183537Y-164892096D01*
X238961852Y-164848000D01*
X238961847Y-164848000D01*
X238887000Y-164833112D01*
X238812153Y-164848000D01*
X234969000Y-164848000D01*
X234969000Y-164640126D01*
X234811431Y-164259720D01*
X234520280Y-163968569D01*
X234139874Y-163811000D01*
X233728126Y-163811000D01*
X233347720Y-163968569D01*
X233230289Y-164086000D01*
X178757711Y-164086000D01*
X178640280Y-163968569D01*
X178259874Y-163811000D01*
X177848126Y-163811000D01*
X177467720Y-163968569D01*
X177176569Y-164259720D01*
X177019000Y-164640126D01*
X177019000Y-165051874D01*
X177031064Y-165081000D01*
X176832126Y-165081000D01*
X176451720Y-165238569D01*
X176330289Y-165360000D01*
X156121945Y-165360000D01*
X156093929Y-165318071D01*
X155842537Y-165150096D01*
X155771721Y-165136010D01*
X155624280Y-164988569D01*
X155243874Y-164831000D01*
X154832126Y-164831000D01*
X154451720Y-164988569D01*
X154160569Y-165279720D01*
X154003000Y-165660126D01*
X154003000Y-165720000D01*
X153689126Y-165720000D01*
X153308720Y-165877569D01*
X153017569Y-166168720D01*
X152860000Y-166549126D01*
X152860000Y-166960874D01*
X153017569Y-167341280D01*
X153064289Y-167388000D01*
X147394846Y-167388000D01*
X147319999Y-167373112D01*
X147245152Y-167388000D01*
X147245148Y-167388000D01*
X147023463Y-167432096D01*
X146772071Y-167600071D01*
X146729672Y-167663526D01*
X145565528Y-168827671D01*
X145502072Y-168870071D01*
X145459672Y-168933527D01*
X145459671Y-168933528D01*
X145351807Y-169094958D01*
X145334097Y-169121463D01*
X145321857Y-169183000D01*
X145275112Y-169418000D01*
X145290001Y-169492852D01*
X145290000Y-178873000D01*
X144500000Y-178873000D01*
X144451399Y-178882667D01*
X144410197Y-178910197D01*
X144382667Y-178951399D01*
X144373000Y-179000000D01*
X144373000Y-182305392D01*
X144298139Y-182380253D01*
X144224005Y-182134136D01*
X143686777Y-181941035D01*
X143116546Y-181968222D01*
X142715995Y-182134136D01*
X142641861Y-182380255D01*
X142376118Y-182380255D01*
X142368157Y-182340235D01*
X142227809Y-182130191D01*
X142017765Y-181989843D01*
X141770000Y-181940560D01*
X140170000Y-181940560D01*
X139922235Y-181989843D01*
X139712191Y-182130191D01*
X139571843Y-182340235D01*
X139522560Y-182588000D01*
X115257510Y-182588000D01*
X115245289Y-182569711D01*
X115150524Y-182506391D01*
X115069926Y-182425793D01*
X114964620Y-182382174D01*
X114869855Y-182318854D01*
X114758072Y-182296619D01*
X114652766Y-182253000D01*
X114538783Y-182253000D01*
X114427000Y-182230765D01*
X114315217Y-182253000D01*
X114201234Y-182253000D01*
X114095927Y-182296619D01*
X113984146Y-182318854D01*
X113889382Y-182382173D01*
X113784074Y-182425793D01*
X113703475Y-182506392D01*
X113608711Y-182569711D01*
X113545391Y-182664476D01*
X113464793Y-182745074D01*
X113421174Y-182850380D01*
X113357854Y-182945145D01*
X113335619Y-183056928D01*
X113292000Y-183162234D01*
X108627000Y-183162234D01*
X108627000Y-179974000D01*
X126102810Y-179974000D01*
X126102810Y-181774000D01*
X126152093Y-182021765D01*
X126292441Y-182231809D01*
X126502485Y-182372157D01*
X126750250Y-182421440D01*
X128467750Y-182421440D01*
X128715515Y-182372157D01*
X128925559Y-182231809D01*
X129015616Y-182097031D01*
X129092510Y-182171174D01*
X129540736Y-182365400D01*
X129772000Y-182244195D01*
X129772000Y-181001000D01*
X129752000Y-181001000D01*
X129752000Y-180747000D01*
X129772000Y-180747000D01*
X129772000Y-179503805D01*
X130026000Y-179503805D01*
X130026000Y-180747000D01*
X130046000Y-180747000D01*
X130046000Y-181001000D01*
X130026000Y-181001000D01*
X130026000Y-182244195D01*
X130257264Y-182365400D01*
X130705490Y-182171174D01*
X131025494Y-181862619D01*
X131112066Y-181992184D01*
X131606169Y-182322331D01*
X132189000Y-182438264D01*
X132771832Y-182322331D01*
X133265934Y-181992184D01*
X133596081Y-181498081D01*
X133682750Y-181062368D01*
X133682750Y-180685631D01*
X133596081Y-180249918D01*
X133265934Y-179755816D01*
X132771831Y-179425669D01*
X132189000Y-179309736D01*
X131606168Y-179425669D01*
X131112066Y-179755816D01*
X131025494Y-179885381D01*
X130705490Y-179576826D01*
X130257264Y-179382600D01*
X130026000Y-179503805D01*
X129772000Y-179503805D01*
X129540736Y-179382600D01*
X129092510Y-179576826D01*
X129015616Y-179650969D01*
X128925559Y-179516191D01*
X128715515Y-179375843D01*
X128467750Y-179326560D01*
X126750250Y-179326560D01*
X126502485Y-179375843D01*
X126292441Y-179516191D01*
X126152093Y-179726235D01*
X126102810Y-179974000D01*
X108627000Y-179974000D01*
X108627000Y-179000000D01*
X108617333Y-178951399D01*
X108589803Y-178910197D01*
X108548601Y-178882667D01*
X108500000Y-178873000D01*
X94500000Y-178873000D01*
X94451399Y-178882667D01*
X94410197Y-178910197D01*
X94382667Y-178951399D01*
X94373000Y-179000000D01*
X83310000Y-179000000D01*
X83310000Y-175530022D01*
X99724584Y-175530022D01*
X99945353Y-175900743D01*
X100917012Y-176294119D01*
X101965247Y-176285713D01*
X102894647Y-175900743D01*
X103115416Y-175530022D01*
X101420000Y-173834605D01*
X99724584Y-175530022D01*
X83310000Y-175530022D01*
X83310000Y-173152012D01*
X98780881Y-173152012D01*
X98789287Y-174200247D01*
X99174257Y-175129647D01*
X99544978Y-175350416D01*
X101240395Y-173655000D01*
X101599605Y-173655000D01*
X103295022Y-175350416D01*
X103665743Y-175129647D01*
X104059119Y-174157988D01*
X104050713Y-173109753D01*
X103665743Y-172180353D01*
X103295022Y-171959584D01*
X101599605Y-173655000D01*
X101240395Y-173655000D01*
X99544978Y-171959584D01*
X99174257Y-172180353D01*
X98780881Y-173152012D01*
X83310000Y-173152012D01*
X83310000Y-171779978D01*
X99724584Y-171779978D01*
X101420000Y-173475395D01*
X103115416Y-171779978D01*
X102894647Y-171409257D01*
X101922988Y-171015881D01*
X100874753Y-171024287D01*
X99945353Y-171409257D01*
X99724584Y-171779978D01*
X83310000Y-171779978D01*
X83310000Y-168984846D01*
X83324888Y-168909999D01*
X83310000Y-168835152D01*
X83310000Y-168835148D01*
X83265904Y-168613463D01*
X83097929Y-168362071D01*
X83034473Y-168319671D01*
X82732775Y-168017974D01*
X82807959Y-167640000D01*
X82691650Y-167055275D01*
X82360430Y-166559570D01*
X81864725Y-166228350D01*
X81427598Y-166141400D01*
X81132402Y-166141400D01*
X80695275Y-166228350D01*
X80199570Y-166559570D01*
X80010000Y-166843281D01*
X79820430Y-166559570D01*
X79324725Y-166228350D01*
X78887598Y-166141400D01*
X78592402Y-166141400D01*
X78155275Y-166228350D01*
X77659570Y-166559570D01*
X77458146Y-166861021D01*
X77406821Y-166751510D01*
X76974947Y-166357312D01*
X76559026Y-166185042D01*
X76327000Y-166306183D01*
X76073000Y-166306183D01*
X75840974Y-166185042D01*
X75425053Y-166357312D01*
X74993179Y-166751510D01*
X74941854Y-166861021D01*
X74740430Y-166559570D01*
X74244725Y-166228350D01*
X73807598Y-166141400D01*
X73512402Y-166141400D01*
X73075275Y-166228350D01*
X72579570Y-166559570D01*
X72390000Y-166843281D01*
X72200430Y-166559570D01*
X71704725Y-166228350D01*
X71267598Y-166141400D01*
X70972402Y-166141400D01*
X70535275Y-166228350D01*
X70039570Y-166559570D01*
X69708350Y-167055275D01*
X69592041Y-167640000D01*
X69667225Y-168017974D01*
X69365530Y-168319669D01*
X69302071Y-168362071D01*
X69134096Y-168613464D01*
X69090000Y-168835149D01*
X69090000Y-168835153D01*
X69075112Y-168910000D01*
X69090000Y-168984847D01*
X69090001Y-190986288D01*
X68972569Y-191103720D01*
X68815000Y-191484126D01*
X58627000Y-191484126D01*
X58627000Y-179000000D01*
X58617333Y-178951399D01*
X58589803Y-178910197D01*
X58548601Y-178882667D01*
X58500000Y-178873000D01*
X44500000Y-178873000D01*
X44451399Y-178882667D01*
X44410197Y-178910197D01*
X44382667Y-178951399D01*
X44373000Y-179000000D01*
X42185000Y-179000000D01*
X42185000Y-175530022D01*
X49724584Y-175530022D01*
X49945353Y-175900743D01*
X50917012Y-176294119D01*
X51965247Y-176285713D01*
X52894647Y-175900743D01*
X53115416Y-175530022D01*
X51420000Y-173834605D01*
X49724584Y-175530022D01*
X42185000Y-175530022D01*
X42185000Y-173152012D01*
X48780881Y-173152012D01*
X48789287Y-174200247D01*
X49174257Y-175129647D01*
X49544978Y-175350416D01*
X51240395Y-173655000D01*
X51599605Y-173655000D01*
X53295022Y-175350416D01*
X53665743Y-175129647D01*
X54059119Y-174157988D01*
X54050713Y-173109753D01*
X53665743Y-172180353D01*
X53295022Y-171959584D01*
X51599605Y-173655000D01*
X51240395Y-173655000D01*
X49544978Y-171959584D01*
X49174257Y-172180353D01*
X48780881Y-173152012D01*
X42185000Y-173152012D01*
X42185000Y-171779978D01*
X49724584Y-171779978D01*
X51420000Y-173475395D01*
X53115416Y-171779978D01*
X52894647Y-171409257D01*
X51922988Y-171015881D01*
X50874753Y-171024287D01*
X49945353Y-171409257D01*
X49724584Y-171779978D01*
X42185000Y-171779978D01*
X42185000Y-165283735D01*
X43783736Y-163685000D01*
X319216265Y-163685000D01*
X320815001Y-165283737D01*
X320815001Y-165283737D01*
G37*
X320815001Y-165283737D02*
X320815001Y-174488022D01*
X320496270Y-174356000D01*
X320084522Y-174356000D01*
X319704116Y-174513569D01*
X319412965Y-174804720D01*
X319255396Y-175185126D01*
X319255396Y-175596874D01*
X319412965Y-175977280D01*
X319474387Y-176038702D01*
X319412969Y-176100120D01*
X319255400Y-176480526D01*
X319255400Y-176892274D01*
X319389432Y-177215857D01*
X319387569Y-177217720D01*
X319230000Y-177598126D01*
X319230000Y-178009874D01*
X319387569Y-178390280D01*
X319499789Y-178502500D01*
X319387569Y-178614720D01*
X319230000Y-178995126D01*
X319230000Y-179406874D01*
X319387569Y-179787280D01*
X319678720Y-180078431D01*
X320059126Y-180236000D01*
X320470874Y-180236000D01*
X320815001Y-180093458D01*
X320815001Y-183788302D01*
X320490766Y-183654000D01*
X320039234Y-183654000D01*
X319622074Y-183826793D01*
X319302793Y-184146074D01*
X319130000Y-184563234D01*
X319130000Y-185014766D01*
X319302793Y-185431926D01*
X319358367Y-185487500D01*
X319302793Y-185543074D01*
X319130000Y-185960234D01*
X319130000Y-186411766D01*
X319302793Y-186828926D01*
X319358363Y-186884496D01*
X319302793Y-186940066D01*
X319130000Y-187357226D01*
X319130000Y-187808758D01*
X319302793Y-188225918D01*
X319358371Y-188281496D01*
X319302793Y-188337074D01*
X319130000Y-188754234D01*
X319130000Y-189205766D01*
X319299510Y-189615000D01*
X319130000Y-190024234D01*
X319130000Y-190475766D01*
X319302793Y-190892926D01*
X319358367Y-190948500D01*
X319302793Y-191004074D01*
X319130000Y-191421234D01*
X319130000Y-191872766D01*
X319302793Y-192289926D01*
X319358367Y-192345500D01*
X319302793Y-192401074D01*
X319130000Y-192818234D01*
X319130000Y-193269766D01*
X319302793Y-193686926D01*
X319622074Y-194006207D01*
X320039234Y-194179000D01*
X320490766Y-194179000D01*
X320815000Y-194044698D01*
X320815000Y-219716264D01*
X319216265Y-221315000D01*
X43783736Y-221315000D01*
X42185000Y-219716265D01*
X42185000Y-179000000D01*
X44373000Y-179000000D01*
X44373000Y-204000000D01*
X44382667Y-204048601D01*
X44410197Y-204089803D01*
X44451399Y-204117333D01*
X44500000Y-204127000D01*
X44715001Y-204127000D01*
X44715000Y-214160132D01*
X44592191Y-214242191D01*
X44451843Y-214452235D01*
X44402560Y-214700000D01*
X44402560Y-217300000D01*
X44451843Y-217547765D01*
X44592191Y-217757809D01*
X44802235Y-217898157D01*
X45050000Y-217947440D01*
X47650000Y-217947440D01*
X47897765Y-217898157D01*
X48107809Y-217757809D01*
X48248157Y-217547765D01*
X48283623Y-217369459D01*
X50240146Y-217369459D01*
X50375504Y-217667455D01*
X51093880Y-217944066D01*
X51863427Y-217924710D01*
X52484496Y-217667455D01*
X52619854Y-217369459D01*
X51430000Y-216179605D01*
X50240146Y-217369459D01*
X48283623Y-217369459D01*
X48297440Y-217300000D01*
X48297440Y-215663880D01*
X49485934Y-215663880D01*
X49505290Y-216433427D01*
X49762545Y-217054496D01*
X50060541Y-217189854D01*
X51250395Y-216000000D01*
X51609605Y-216000000D01*
X52799459Y-217189854D01*
X53097455Y-217054496D01*
X53374066Y-216336120D01*
X53354710Y-215566573D01*
X53097455Y-214945504D01*
X52799459Y-214810146D01*
X51609605Y-216000000D01*
X51250395Y-216000000D01*
X50060541Y-214810146D01*
X49762545Y-214945504D01*
X49485934Y-215663880D01*
X48297440Y-215663880D01*
X48297440Y-214700000D01*
X48283624Y-214630541D01*
X50240146Y-214630541D01*
X51430000Y-215820395D01*
X52619854Y-214630541D01*
X52484496Y-214332545D01*
X51766120Y-214055934D01*
X50996573Y-214075290D01*
X50375504Y-214332545D01*
X50240146Y-214630541D01*
X48283624Y-214630541D01*
X48248157Y-214452235D01*
X48107809Y-214242191D01*
X47985000Y-214160132D01*
X47985000Y-208830022D01*
X49724584Y-208830022D01*
X49945353Y-209200743D01*
X50917012Y-209594119D01*
X51965247Y-209585713D01*
X52894647Y-209200743D01*
X53115416Y-208830022D01*
X51420000Y-207134605D01*
X49724584Y-208830022D01*
X47985000Y-208830022D01*
X47985000Y-206452012D01*
X48780881Y-206452012D01*
X48789287Y-207500247D01*
X49174257Y-208429647D01*
X49544978Y-208650416D01*
X51240395Y-206955000D01*
X51599605Y-206955000D01*
X53295022Y-208650416D01*
X53665743Y-208429647D01*
X54059119Y-207457988D01*
X54050713Y-206409753D01*
X53665743Y-205480353D01*
X53295022Y-205259584D01*
X51599605Y-206955000D01*
X51240395Y-206955000D01*
X49544978Y-205259584D01*
X49174257Y-205480353D01*
X48780881Y-206452012D01*
X47985000Y-206452012D01*
X47985000Y-205079978D01*
X49724584Y-205079978D01*
X51420000Y-206775395D01*
X53115416Y-205079978D01*
X52894647Y-204709257D01*
X51922988Y-204315881D01*
X50874753Y-204324287D01*
X49945353Y-204709257D01*
X49724584Y-205079978D01*
X47985000Y-205079978D01*
X47985000Y-204327238D01*
X48185238Y-204127000D01*
X54875001Y-204127000D01*
X54875000Y-214898496D01*
X54869586Y-214903910D01*
X54575000Y-215615105D01*
X54575000Y-216384895D01*
X54869586Y-217096090D01*
X55413910Y-217640414D01*
X56125105Y-217935000D01*
X56894895Y-217935000D01*
X57606090Y-217640414D01*
X58150414Y-217096090D01*
X58445000Y-216384895D01*
X58445000Y-215615105D01*
X58150414Y-214903910D01*
X58145000Y-214898496D01*
X58145000Y-204127000D01*
X58500000Y-204127000D01*
X58548601Y-204117333D01*
X58589803Y-204089803D01*
X58617333Y-204048601D01*
X58627000Y-204000000D01*
X58627000Y-191484126D01*
X68815000Y-191484126D01*
X68815000Y-191895874D01*
X68972569Y-192276280D01*
X69263720Y-192567431D01*
X69644126Y-192725000D01*
X70055874Y-192725000D01*
X70436280Y-192567431D01*
X70727431Y-192276280D01*
X70885000Y-191895874D01*
X70885000Y-191484126D01*
X70806905Y-191295588D01*
X70914126Y-191340000D01*
X71325874Y-191340000D01*
X71706280Y-191182431D01*
X71997431Y-190891280D01*
X72155000Y-190510874D01*
X72155000Y-190099126D01*
X71997431Y-189718720D01*
X71880000Y-189601289D01*
X71880000Y-171691040D01*
X71983600Y-171691040D01*
X72231365Y-171641757D01*
X72441409Y-171501409D01*
X72581757Y-171291365D01*
X72586932Y-171265349D01*
X72900000Y-171474535D01*
X72900001Y-192371288D01*
X72782569Y-192488720D01*
X72625000Y-192869126D01*
X72625000Y-193280874D01*
X72782569Y-193661280D01*
X73073720Y-193952431D01*
X73454126Y-194110000D01*
X73865874Y-194110000D01*
X73973095Y-194065588D01*
X73895000Y-194254126D01*
X73895000Y-194665874D01*
X74052569Y-195046280D01*
X74343720Y-195337431D01*
X74724126Y-195495000D01*
X75135874Y-195495000D01*
X75516280Y-195337431D01*
X75807431Y-195046280D01*
X75965000Y-194665874D01*
X75965000Y-194254126D01*
X75807431Y-193873720D01*
X75690000Y-193756289D01*
X75690000Y-171572426D01*
X75840974Y-171634958D01*
X76073000Y-171513817D01*
X76073000Y-170307000D01*
X76053000Y-170307000D01*
X76053000Y-170053000D01*
X76073000Y-170053000D01*
X76073000Y-167767000D01*
X76053000Y-167767000D01*
X76053000Y-167513000D01*
X76073000Y-167513000D01*
X76073000Y-166306183D01*
X76327000Y-166306183D01*
X76327000Y-167513000D01*
X76347000Y-167513000D01*
X76347000Y-167767000D01*
X76327000Y-167767000D01*
X76327000Y-170053000D01*
X76347000Y-170053000D01*
X76347000Y-170307000D01*
X76327000Y-170307000D01*
X76327000Y-171513817D01*
X76559026Y-171634958D01*
X76710000Y-171572426D01*
X76710001Y-188216288D01*
X76592569Y-188333720D01*
X76435000Y-188714126D01*
X76435000Y-189125874D01*
X76592569Y-189506280D01*
X76883720Y-189797431D01*
X77264126Y-189955000D01*
X77675874Y-189955000D01*
X78056280Y-189797431D01*
X78347431Y-189506280D01*
X78505000Y-189125874D01*
X78505000Y-188714126D01*
X78426905Y-188525588D01*
X78534126Y-188570000D01*
X78945874Y-188570000D01*
X79326280Y-188412431D01*
X79617431Y-188121280D01*
X79775000Y-187740874D01*
X79775000Y-187329126D01*
X79617431Y-186948720D01*
X79500000Y-186831289D01*
X79500000Y-171474535D01*
X79820430Y-171260430D01*
X80010000Y-170976719D01*
X80199570Y-171260430D01*
X80520000Y-171474535D01*
X80520001Y-184061288D01*
X80402569Y-184178720D01*
X80245000Y-184559126D01*
X80245000Y-184970874D01*
X80402569Y-185351280D01*
X80693720Y-185642431D01*
X81074126Y-185800000D01*
X81485874Y-185800000D01*
X81593095Y-185755588D01*
X81515000Y-185944126D01*
X81515000Y-186355874D01*
X81672569Y-186736280D01*
X81963720Y-187027431D01*
X82344126Y-187185000D01*
X82755874Y-187185000D01*
X83136280Y-187027431D01*
X83427431Y-186736280D01*
X83585000Y-186355874D01*
X83585000Y-185944126D01*
X83427431Y-185563720D01*
X83310000Y-185446289D01*
X83310000Y-179000000D01*
X94373000Y-179000000D01*
X94373000Y-204000000D01*
X94382667Y-204048601D01*
X94410197Y-204089803D01*
X94451399Y-204117333D01*
X94500000Y-204127000D01*
X94715001Y-204127000D01*
X94715000Y-214160132D01*
X94592191Y-214242191D01*
X94451843Y-214452235D01*
X94402560Y-214700000D01*
X94402560Y-217300000D01*
X94451843Y-217547765D01*
X94592191Y-217757809D01*
X94802235Y-217898157D01*
X95050000Y-217947440D01*
X97650000Y-217947440D01*
X97897765Y-217898157D01*
X98107809Y-217757809D01*
X98248157Y-217547765D01*
X98283623Y-217369459D01*
X100240146Y-217369459D01*
X100375504Y-217667455D01*
X101093880Y-217944066D01*
X101863427Y-217924710D01*
X102484496Y-217667455D01*
X102619854Y-217369459D01*
X101430000Y-216179605D01*
X100240146Y-217369459D01*
X98283623Y-217369459D01*
X98297440Y-217300000D01*
X98297440Y-215663880D01*
X99485934Y-215663880D01*
X99505290Y-216433427D01*
X99762545Y-217054496D01*
X100060541Y-217189854D01*
X101250395Y-216000000D01*
X101609605Y-216000000D01*
X102799459Y-217189854D01*
X103097455Y-217054496D01*
X103374066Y-216336120D01*
X103354710Y-215566573D01*
X103097455Y-214945504D01*
X102799459Y-214810146D01*
X101609605Y-216000000D01*
X101250395Y-216000000D01*
X100060541Y-214810146D01*
X99762545Y-214945504D01*
X99485934Y-215663880D01*
X98297440Y-215663880D01*
X98297440Y-214700000D01*
X98283624Y-214630541D01*
X100240146Y-214630541D01*
X101430000Y-215820395D01*
X102619854Y-214630541D01*
X102484496Y-214332545D01*
X101766120Y-214055934D01*
X100996573Y-214075290D01*
X100375504Y-214332545D01*
X100240146Y-214630541D01*
X98283624Y-214630541D01*
X98248157Y-214452235D01*
X98107809Y-214242191D01*
X97985000Y-214160132D01*
X97985000Y-208830022D01*
X99724584Y-208830022D01*
X99945353Y-209200743D01*
X100917012Y-209594119D01*
X101965247Y-209585713D01*
X102894647Y-209200743D01*
X103115416Y-208830022D01*
X101420000Y-207134605D01*
X99724584Y-208830022D01*
X97985000Y-208830022D01*
X97985000Y-206452012D01*
X98780881Y-206452012D01*
X98789287Y-207500247D01*
X99174257Y-208429647D01*
X99544978Y-208650416D01*
X101240395Y-206955000D01*
X101599605Y-206955000D01*
X103295022Y-208650416D01*
X103665743Y-208429647D01*
X104059119Y-207457988D01*
X104050713Y-206409753D01*
X103665743Y-205480353D01*
X103295022Y-205259584D01*
X101599605Y-206955000D01*
X101240395Y-206955000D01*
X99544978Y-205259584D01*
X99174257Y-205480353D01*
X98780881Y-206452012D01*
X97985000Y-206452012D01*
X97985000Y-205079978D01*
X99724584Y-205079978D01*
X101420000Y-206775395D01*
X103115416Y-205079978D01*
X102894647Y-204709257D01*
X101922988Y-204315881D01*
X100874753Y-204324287D01*
X99945353Y-204709257D01*
X99724584Y-205079978D01*
X97985000Y-205079978D01*
X97985000Y-204327238D01*
X98185238Y-204127000D01*
X104875001Y-204127000D01*
X104875000Y-214898496D01*
X104869586Y-214903910D01*
X104575000Y-215615105D01*
X104575000Y-216384895D01*
X104869586Y-217096090D01*
X105413910Y-217640414D01*
X106125105Y-217935000D01*
X106894895Y-217935000D01*
X107606090Y-217640414D01*
X108150414Y-217096090D01*
X108445000Y-216384895D01*
X108445000Y-215615105D01*
X108150414Y-214903910D01*
X108145000Y-214898496D01*
X108145000Y-204500000D01*
X124852560Y-204500000D01*
X124852560Y-206500000D01*
X124901843Y-206747765D01*
X125042191Y-206957809D01*
X125252235Y-207098157D01*
X125500000Y-207147440D01*
X127500000Y-207147440D01*
X127747765Y-207098157D01*
X127957809Y-206957809D01*
X128098157Y-206747765D01*
X128147440Y-206500000D01*
X128147440Y-204500000D01*
X128098157Y-204252235D01*
X127957809Y-204042191D01*
X127747765Y-203901843D01*
X127500000Y-203852560D01*
X125500000Y-203852560D01*
X125252235Y-203901843D01*
X125042191Y-204042191D01*
X124901843Y-204252235D01*
X124852560Y-204500000D01*
X108145000Y-204500000D01*
X108145000Y-204127000D01*
X108500000Y-204127000D01*
X108548601Y-204117333D01*
X108589803Y-204089803D01*
X108617333Y-204048601D01*
X108627000Y-204000000D01*
X108627000Y-199152532D01*
X125527073Y-199152532D01*
X125625736Y-199419387D01*
X126235461Y-199645908D01*
X126885460Y-199621856D01*
X127374264Y-199419387D01*
X127472927Y-199152532D01*
X126500000Y-198179605D01*
X125527073Y-199152532D01*
X108627000Y-199152532D01*
X108627000Y-197735461D01*
X124854092Y-197735461D01*
X124878144Y-198385460D01*
X125080613Y-198874264D01*
X125347468Y-198972927D01*
X126320395Y-198000000D01*
X126679605Y-198000000D01*
X127652532Y-198972927D01*
X127919387Y-198874264D01*
X128145908Y-198264539D01*
X128121856Y-197614540D01*
X127919387Y-197125736D01*
X127652532Y-197027073D01*
X126679605Y-198000000D01*
X126320395Y-198000000D01*
X125347468Y-197027073D01*
X125080613Y-197125736D01*
X124854092Y-197735461D01*
X108627000Y-197735461D01*
X108627000Y-183162234D01*
X113292000Y-183162234D01*
X113292000Y-183626790D01*
X113357854Y-183957862D01*
X113542001Y-184233458D01*
X113542000Y-195039729D01*
X113542000Y-195113867D01*
X113464793Y-195191074D01*
X113292000Y-195608234D01*
X113292000Y-196059766D01*
X113464793Y-196476926D01*
X113784074Y-196796207D01*
X114201234Y-196969000D01*
X114652766Y-196969000D01*
X114946170Y-196847468D01*
X125527073Y-196847468D01*
X126500000Y-197820395D01*
X127472927Y-196847468D01*
X127374264Y-196580613D01*
X126764539Y-196354092D01*
X126114540Y-196378144D01*
X125625736Y-196580613D01*
X125527073Y-196847468D01*
X114946170Y-196847468D01*
X115069926Y-196796207D01*
X115389207Y-196476926D01*
X115562000Y-196059766D01*
X115562000Y-195608234D01*
X115389207Y-195191074D01*
X115312000Y-195113867D01*
X115312000Y-184233457D01*
X115496146Y-183957863D01*
X115562000Y-183626791D01*
X115562000Y-183162234D01*
X115518381Y-183056927D01*
X115496146Y-182945146D01*
X115432827Y-182850382D01*
X115389207Y-182745074D01*
X115308608Y-182664475D01*
X115257510Y-182588000D01*
X139522560Y-182588000D01*
X139522560Y-184188000D01*
X139571843Y-184435765D01*
X139712191Y-184645809D01*
X139922235Y-184786157D01*
X140170000Y-184835440D01*
X141770000Y-184835440D01*
X142017765Y-184786157D01*
X142227809Y-184645809D01*
X142368157Y-184435765D01*
X142414693Y-184201813D01*
X142462255Y-184216139D01*
X143290395Y-183388000D01*
X142462255Y-182559861D01*
X142414693Y-182574187D01*
X142376118Y-182380255D01*
X142641861Y-182380255D01*
X143470000Y-183208395D01*
X143484142Y-183194252D01*
X143663748Y-183373858D01*
X143649605Y-183388000D01*
X143663748Y-183402142D01*
X143484142Y-183581748D01*
X143470000Y-183567605D01*
X142641861Y-184395745D01*
X142715995Y-184641864D01*
X143253223Y-184834965D01*
X143823454Y-184807778D01*
X144224005Y-184641864D01*
X144298139Y-184395747D01*
X144373000Y-184470608D01*
X144373000Y-204000000D01*
X144382667Y-204048601D01*
X144410197Y-204089803D01*
X144451399Y-204117333D01*
X144500000Y-204127000D01*
X144715001Y-204127000D01*
X144715000Y-214160132D01*
X144592191Y-214242191D01*
X144451843Y-214452235D01*
X144402560Y-214700000D01*
X144402560Y-217300000D01*
X144451843Y-217547765D01*
X144592191Y-217757809D01*
X144802235Y-217898157D01*
X145050000Y-217947440D01*
X147650000Y-217947440D01*
X147897765Y-217898157D01*
X148107809Y-217757809D01*
X148248157Y-217547765D01*
X148283623Y-217369459D01*
X150240146Y-217369459D01*
X150375504Y-217667455D01*
X151093880Y-217944066D01*
X151863427Y-217924710D01*
X152484496Y-217667455D01*
X152619854Y-217369459D01*
X151430000Y-216179605D01*
X150240146Y-217369459D01*
X148283623Y-217369459D01*
X148297440Y-217300000D01*
X148297440Y-215663880D01*
X149485934Y-215663880D01*
X149505290Y-216433427D01*
X149762545Y-217054496D01*
X150060541Y-217189854D01*
X151250395Y-216000000D01*
X151609605Y-216000000D01*
X152799459Y-217189854D01*
X153097455Y-217054496D01*
X153374066Y-216336120D01*
X153354710Y-215566573D01*
X153097455Y-214945504D01*
X152799459Y-214810146D01*
X151609605Y-216000000D01*
X151250395Y-216000000D01*
X150060541Y-214810146D01*
X149762545Y-214945504D01*
X149485934Y-215663880D01*
X148297440Y-215663880D01*
X148297440Y-214700000D01*
X148283624Y-214630541D01*
X150240146Y-214630541D01*
X151430000Y-215820395D01*
X152619854Y-214630541D01*
X152484496Y-214332545D01*
X151766120Y-214055934D01*
X150996573Y-214075290D01*
X150375504Y-214332545D01*
X150240146Y-214630541D01*
X148283624Y-214630541D01*
X148248157Y-214452235D01*
X148107809Y-214242191D01*
X147985000Y-214160132D01*
X147985000Y-208830022D01*
X149724584Y-208830022D01*
X149945353Y-209200743D01*
X150917012Y-209594119D01*
X151965247Y-209585713D01*
X152894647Y-209200743D01*
X153115416Y-208830022D01*
X151420000Y-207134605D01*
X149724584Y-208830022D01*
X147985000Y-208830022D01*
X147985000Y-206452012D01*
X148780881Y-206452012D01*
X148789287Y-207500247D01*
X149174257Y-208429647D01*
X149544978Y-208650416D01*
X151240395Y-206955000D01*
X151599605Y-206955000D01*
X153295022Y-208650416D01*
X153665743Y-208429647D01*
X154059119Y-207457988D01*
X154050713Y-206409753D01*
X153665743Y-205480353D01*
X153295022Y-205259584D01*
X151599605Y-206955000D01*
X151240395Y-206955000D01*
X149544978Y-205259584D01*
X149174257Y-205480353D01*
X148780881Y-206452012D01*
X147985000Y-206452012D01*
X147985000Y-205079978D01*
X149724584Y-205079978D01*
X151420000Y-206775395D01*
X153115416Y-205079978D01*
X152894647Y-204709257D01*
X151922988Y-204315881D01*
X150874753Y-204324287D01*
X149945353Y-204709257D01*
X149724584Y-205079978D01*
X147985000Y-205079978D01*
X147985000Y-204327238D01*
X148185238Y-204127000D01*
X154875001Y-204127000D01*
X154875000Y-214898496D01*
X154869586Y-214903910D01*
X154575000Y-215615105D01*
X154575000Y-216384895D01*
X154869586Y-217096090D01*
X155413910Y-217640414D01*
X156125105Y-217935000D01*
X156894895Y-217935000D01*
X157606090Y-217640414D01*
X158150414Y-217096090D01*
X158445000Y-216384895D01*
X158445000Y-215615105D01*
X158150414Y-214903910D01*
X158145000Y-214898496D01*
X158145000Y-204127000D01*
X158500000Y-204127000D01*
X158548601Y-204117333D01*
X158589803Y-204089803D01*
X158617333Y-204048601D01*
X158627000Y-204000000D01*
X158627000Y-179000000D01*
X158617333Y-178951399D01*
X158589803Y-178910197D01*
X158548601Y-178882667D01*
X158500000Y-178873000D01*
X146810000Y-178873000D01*
X146810000Y-175530022D01*
X149724584Y-175530022D01*
X149945353Y-175900743D01*
X150917012Y-176294119D01*
X151965247Y-176285713D01*
X152894647Y-175900743D01*
X153115416Y-175530022D01*
X151420000Y-173834605D01*
X149724584Y-175530022D01*
X146810000Y-175530022D01*
X146810000Y-173152012D01*
X148780881Y-173152012D01*
X148789287Y-174200247D01*
X149174257Y-175129647D01*
X149544978Y-175350416D01*
X151240395Y-173655000D01*
X151599605Y-173655000D01*
X153295022Y-175350416D01*
X153665743Y-175129647D01*
X154059119Y-174157988D01*
X154050713Y-173109753D01*
X153665743Y-172180353D01*
X153295022Y-171959584D01*
X151599605Y-173655000D01*
X151240395Y-173655000D01*
X149544978Y-171959584D01*
X149174257Y-172180353D01*
X148780881Y-173152012D01*
X146810000Y-173152012D01*
X146810000Y-171779978D01*
X149724584Y-171779978D01*
X151420000Y-173475395D01*
X153115416Y-171779978D01*
X152894647Y-171409257D01*
X151922988Y-171015881D01*
X150874753Y-171024287D01*
X149945353Y-171409257D01*
X149724584Y-171779978D01*
X146810000Y-171779978D01*
X146810000Y-169732801D01*
X147634802Y-168908000D01*
X163831760Y-168908000D01*
X163811000Y-168958118D01*
X163811000Y-169124190D01*
X161309924Y-171625267D01*
X161246465Y-171667669D01*
X161078490Y-171919062D01*
X161034394Y-172140747D01*
X161034394Y-172140751D01*
X161019506Y-172215598D01*
X161034394Y-172290445D01*
X161034395Y-186828488D01*
X160916963Y-186945920D01*
X160759394Y-187326326D01*
X160759394Y-187738074D01*
X160916963Y-188118480D01*
X161208114Y-188409631D01*
X161586428Y-188566334D01*
X161521400Y-188723326D01*
X161521400Y-189135074D01*
X161678969Y-189515480D01*
X161970120Y-189806631D01*
X162344007Y-189961500D01*
X162287000Y-190099126D01*
X162287000Y-190510874D01*
X162444569Y-190891280D01*
X162735720Y-191182431D01*
X163109787Y-191337374D01*
X163049000Y-191484126D01*
X163049000Y-191895874D01*
X163206569Y-192276280D01*
X163497720Y-192567431D01*
X163871787Y-192722374D01*
X163811000Y-192869126D01*
X163811000Y-193280874D01*
X163968569Y-193661280D01*
X164259720Y-193952431D01*
X164633787Y-194107374D01*
X164573000Y-194254126D01*
X164573000Y-194665874D01*
X164730569Y-195046280D01*
X165021720Y-195337431D01*
X165402126Y-195495000D01*
X165813874Y-195495000D01*
X166194280Y-195337431D01*
X166485431Y-195046280D01*
X166643000Y-194665874D01*
X166643000Y-194254126D01*
X166485431Y-193873720D01*
X166368000Y-193756289D01*
X166368000Y-181551711D01*
X166485431Y-181434280D01*
X166643000Y-181053874D01*
X166643000Y-180896126D01*
X193884600Y-180896126D01*
X193884600Y-181307874D01*
X194042169Y-181688280D01*
X194159601Y-181805712D01*
X194159600Y-182709689D01*
X194042169Y-182827120D01*
X193884600Y-183207526D01*
X193884600Y-183619274D01*
X194042169Y-183999680D01*
X194333320Y-184290831D01*
X194373000Y-184307267D01*
X194373000Y-204000000D01*
X194382667Y-204048601D01*
X194410197Y-204089803D01*
X194451399Y-204117333D01*
X194500000Y-204127000D01*
X194715001Y-204127000D01*
X194715000Y-214160132D01*
X194592191Y-214242191D01*
X194451843Y-214452235D01*
X194402560Y-214700000D01*
X194402560Y-217300000D01*
X194451843Y-217547765D01*
X194592191Y-217757809D01*
X194802235Y-217898157D01*
X195050000Y-217947440D01*
X197650000Y-217947440D01*
X197897765Y-217898157D01*
X198107809Y-217757809D01*
X198248157Y-217547765D01*
X198283623Y-217369459D01*
X200240146Y-217369459D01*
X200375504Y-217667455D01*
X201093880Y-217944066D01*
X201863427Y-217924710D01*
X202484496Y-217667455D01*
X202619854Y-217369459D01*
X201430000Y-216179605D01*
X200240146Y-217369459D01*
X198283623Y-217369459D01*
X198297440Y-217300000D01*
X198297440Y-215663880D01*
X199485934Y-215663880D01*
X199505290Y-216433427D01*
X199762545Y-217054496D01*
X200060541Y-217189854D01*
X201250395Y-216000000D01*
X201609605Y-216000000D01*
X202799459Y-217189854D01*
X203097455Y-217054496D01*
X203374066Y-216336120D01*
X203354710Y-215566573D01*
X203097455Y-214945504D01*
X202799459Y-214810146D01*
X201609605Y-216000000D01*
X201250395Y-216000000D01*
X200060541Y-214810146D01*
X199762545Y-214945504D01*
X199485934Y-215663880D01*
X198297440Y-215663880D01*
X198297440Y-214700000D01*
X198283624Y-214630541D01*
X200240146Y-214630541D01*
X201430000Y-215820395D01*
X202619854Y-214630541D01*
X202484496Y-214332545D01*
X201766120Y-214055934D01*
X200996573Y-214075290D01*
X200375504Y-214332545D01*
X200240146Y-214630541D01*
X198283624Y-214630541D01*
X198248157Y-214452235D01*
X198107809Y-214242191D01*
X197985000Y-214160132D01*
X197985000Y-208830022D01*
X199724584Y-208830022D01*
X199945353Y-209200743D01*
X200917012Y-209594119D01*
X201965247Y-209585713D01*
X202894647Y-209200743D01*
X203115416Y-208830022D01*
X201420000Y-207134605D01*
X199724584Y-208830022D01*
X197985000Y-208830022D01*
X197985000Y-206452012D01*
X198780881Y-206452012D01*
X198789287Y-207500247D01*
X199174257Y-208429647D01*
X199544978Y-208650416D01*
X201240395Y-206955000D01*
X201599605Y-206955000D01*
X203295022Y-208650416D01*
X203665743Y-208429647D01*
X204059119Y-207457988D01*
X204050713Y-206409753D01*
X203665743Y-205480353D01*
X203295022Y-205259584D01*
X201599605Y-206955000D01*
X201240395Y-206955000D01*
X199544978Y-205259584D01*
X199174257Y-205480353D01*
X198780881Y-206452012D01*
X197985000Y-206452012D01*
X197985000Y-205079978D01*
X199724584Y-205079978D01*
X201420000Y-206775395D01*
X203115416Y-205079978D01*
X202894647Y-204709257D01*
X201922988Y-204315881D01*
X200874753Y-204324287D01*
X199945353Y-204709257D01*
X199724584Y-205079978D01*
X197985000Y-205079978D01*
X197985000Y-204327238D01*
X198185238Y-204127000D01*
X204875001Y-204127000D01*
X204875000Y-214898496D01*
X204869586Y-214903910D01*
X204575000Y-215615105D01*
X204575000Y-216384895D01*
X204869586Y-217096090D01*
X205413910Y-217640414D01*
X206125105Y-217935000D01*
X206894895Y-217935000D01*
X207606090Y-217640414D01*
X208150414Y-217096090D01*
X208445000Y-216384895D01*
X208445000Y-215615105D01*
X208150414Y-214903910D01*
X208145000Y-214898496D01*
X208145000Y-204127000D01*
X208500000Y-204127000D01*
X208548601Y-204117333D01*
X208589803Y-204089803D01*
X208617333Y-204048601D01*
X208627000Y-204000000D01*
X208627000Y-184557726D01*
X231853976Y-184557726D01*
X231853976Y-184969474D01*
X232011545Y-185349880D01*
X232302696Y-185641031D01*
X232683102Y-185798600D01*
X232959279Y-185798600D01*
X232899000Y-185944126D01*
X232899000Y-186355874D01*
X233056569Y-186736280D01*
X233347720Y-187027431D01*
X233728126Y-187185000D01*
X234139874Y-187185000D01*
X234520280Y-187027431D01*
X234811431Y-186736280D01*
X234969000Y-186355874D01*
X234969000Y-185944126D01*
X234811431Y-185563720D01*
X234694000Y-185446289D01*
X234694000Y-179000000D01*
X244373000Y-179000000D01*
X244373000Y-204000000D01*
X244382667Y-204048601D01*
X244410197Y-204089803D01*
X244451399Y-204117333D01*
X244500000Y-204127000D01*
X244715001Y-204127000D01*
X244715000Y-214160132D01*
X244592191Y-214242191D01*
X244451843Y-214452235D01*
X244402560Y-214700000D01*
X244402560Y-217300000D01*
X244451843Y-217547765D01*
X244592191Y-217757809D01*
X244802235Y-217898157D01*
X245050000Y-217947440D01*
X247650000Y-217947440D01*
X247897765Y-217898157D01*
X248107809Y-217757809D01*
X248248157Y-217547765D01*
X248283623Y-217369459D01*
X250240146Y-217369459D01*
X250375504Y-217667455D01*
X251093880Y-217944066D01*
X251863427Y-217924710D01*
X252484496Y-217667455D01*
X252619854Y-217369459D01*
X251430000Y-216179605D01*
X250240146Y-217369459D01*
X248283623Y-217369459D01*
X248297440Y-217300000D01*
X248297440Y-215663880D01*
X249485934Y-215663880D01*
X249505290Y-216433427D01*
X249762545Y-217054496D01*
X250060541Y-217189854D01*
X251250395Y-216000000D01*
X251609605Y-216000000D01*
X252799459Y-217189854D01*
X253097455Y-217054496D01*
X253374066Y-216336120D01*
X253354710Y-215566573D01*
X253097455Y-214945504D01*
X252799459Y-214810146D01*
X251609605Y-216000000D01*
X251250395Y-216000000D01*
X250060541Y-214810146D01*
X249762545Y-214945504D01*
X249485934Y-215663880D01*
X248297440Y-215663880D01*
X248297440Y-214700000D01*
X248283624Y-214630541D01*
X250240146Y-214630541D01*
X251430000Y-215820395D01*
X252619854Y-214630541D01*
X252484496Y-214332545D01*
X251766120Y-214055934D01*
X250996573Y-214075290D01*
X250375504Y-214332545D01*
X250240146Y-214630541D01*
X248283624Y-214630541D01*
X248248157Y-214452235D01*
X248107809Y-214242191D01*
X247985000Y-214160132D01*
X247985000Y-208830022D01*
X249724584Y-208830022D01*
X249945353Y-209200743D01*
X250917012Y-209594119D01*
X251965247Y-209585713D01*
X252894647Y-209200743D01*
X253115416Y-208830022D01*
X251420000Y-207134605D01*
X249724584Y-208830022D01*
X247985000Y-208830022D01*
X247985000Y-206452012D01*
X248780881Y-206452012D01*
X248789287Y-207500247D01*
X249174257Y-208429647D01*
X249544978Y-208650416D01*
X251240395Y-206955000D01*
X251599605Y-206955000D01*
X253295022Y-208650416D01*
X253665743Y-208429647D01*
X254059119Y-207457988D01*
X254050713Y-206409753D01*
X253665743Y-205480353D01*
X253295022Y-205259584D01*
X251599605Y-206955000D01*
X251240395Y-206955000D01*
X249544978Y-205259584D01*
X249174257Y-205480353D01*
X248780881Y-206452012D01*
X247985000Y-206452012D01*
X247985000Y-205079978D01*
X249724584Y-205079978D01*
X251420000Y-206775395D01*
X253115416Y-205079978D01*
X252894647Y-204709257D01*
X251922988Y-204315881D01*
X250874753Y-204324287D01*
X249945353Y-204709257D01*
X249724584Y-205079978D01*
X247985000Y-205079978D01*
X247985000Y-204327238D01*
X248185238Y-204127000D01*
X254875001Y-204127000D01*
X254875000Y-214898496D01*
X254869586Y-214903910D01*
X254575000Y-215615105D01*
X254575000Y-216384895D01*
X254869586Y-217096090D01*
X255413910Y-217640414D01*
X256125105Y-217935000D01*
X256894895Y-217935000D01*
X257606090Y-217640414D01*
X258150414Y-217096090D01*
X258445000Y-216384895D01*
X258445000Y-215674778D01*
X261365000Y-215674778D01*
X261365000Y-216325222D01*
X261613914Y-216926153D01*
X262073847Y-217386086D01*
X262674778Y-217635000D01*
X263325222Y-217635000D01*
X263926153Y-217386086D01*
X264270000Y-217042239D01*
X264613847Y-217386086D01*
X265214778Y-217635000D01*
X265865222Y-217635000D01*
X266466153Y-217386086D01*
X266810000Y-217042239D01*
X267153847Y-217386086D01*
X267754778Y-217635000D01*
X268405222Y-217635000D01*
X269006153Y-217386086D01*
X269350000Y-217042239D01*
X269693847Y-217386086D01*
X270294778Y-217635000D01*
X270945222Y-217635000D01*
X271546153Y-217386086D01*
X271890000Y-217042239D01*
X272233847Y-217386086D01*
X272834778Y-217635000D01*
X273485222Y-217635000D01*
X274086153Y-217386086D01*
X274319707Y-217152532D01*
X278527073Y-217152532D01*
X278625736Y-217419387D01*
X279235461Y-217645908D01*
X279885460Y-217621856D01*
X280374264Y-217419387D01*
X280472927Y-217152532D01*
X281067073Y-217152532D01*
X281165736Y-217419387D01*
X281775461Y-217645908D01*
X282425460Y-217621856D01*
X282914264Y-217419387D01*
X283012927Y-217152532D01*
X283607073Y-217152532D01*
X283705736Y-217419387D01*
X284315461Y-217645908D01*
X284965460Y-217621856D01*
X285454264Y-217419387D01*
X285552927Y-217152532D01*
X286147073Y-217152532D01*
X286245736Y-217419387D01*
X286855461Y-217645908D01*
X287505460Y-217621856D01*
X287994264Y-217419387D01*
X288092927Y-217152532D01*
X288687073Y-217152532D01*
X288785736Y-217419387D01*
X289395461Y-217645908D01*
X290045460Y-217621856D01*
X290534264Y-217419387D01*
X290632927Y-217152532D01*
X289660000Y-216179605D01*
X288687073Y-217152532D01*
X288092927Y-217152532D01*
X287120000Y-216179605D01*
X286147073Y-217152532D01*
X285552927Y-217152532D01*
X284580000Y-216179605D01*
X283607073Y-217152532D01*
X283012927Y-217152532D01*
X282040000Y-216179605D01*
X281067073Y-217152532D01*
X280472927Y-217152532D01*
X279500000Y-216179605D01*
X278527073Y-217152532D01*
X274319707Y-217152532D01*
X274546086Y-216926153D01*
X274795000Y-216325222D01*
X274795000Y-215735461D01*
X277854092Y-215735461D01*
X277878144Y-216385460D01*
X278080613Y-216874264D01*
X278347468Y-216972927D01*
X279320395Y-216000000D01*
X279679605Y-216000000D01*
X280652532Y-216972927D01*
X280770000Y-216929496D01*
X280887468Y-216972927D01*
X281860395Y-216000000D01*
X282219605Y-216000000D01*
X283192532Y-216972927D01*
X283310000Y-216929496D01*
X283427468Y-216972927D01*
X284400395Y-216000000D01*
X284759605Y-216000000D01*
X285732532Y-216972927D01*
X285850000Y-216929496D01*
X285967468Y-216972927D01*
X286940395Y-216000000D01*
X287299605Y-216000000D01*
X288272532Y-216972927D01*
X288390000Y-216929496D01*
X288507468Y-216972927D01*
X289480395Y-216000000D01*
X289839605Y-216000000D01*
X290812532Y-216972927D01*
X291079387Y-216874264D01*
X291305908Y-216264539D01*
X291281856Y-215614540D01*
X291079387Y-215125736D01*
X290812532Y-215027073D01*
X289839605Y-216000000D01*
X289480395Y-216000000D01*
X288507468Y-215027073D01*
X288390000Y-215070504D01*
X288272532Y-215027073D01*
X287299605Y-216000000D01*
X286940395Y-216000000D01*
X285967468Y-215027073D01*
X285850000Y-215070504D01*
X285732532Y-215027073D01*
X284759605Y-216000000D01*
X284400395Y-216000000D01*
X283427468Y-215027073D01*
X283310000Y-215070504D01*
X283192532Y-215027073D01*
X282219605Y-216000000D01*
X281860395Y-216000000D01*
X280887468Y-215027073D01*
X280770000Y-215070504D01*
X280652532Y-215027073D01*
X279679605Y-216000000D01*
X279320395Y-216000000D01*
X278347468Y-215027073D01*
X278080613Y-215125736D01*
X277854092Y-215735461D01*
X274795000Y-215735461D01*
X274795000Y-215674778D01*
X274546086Y-215073847D01*
X274319707Y-214847468D01*
X278527073Y-214847468D01*
X279500000Y-215820395D01*
X280472927Y-214847468D01*
X281067073Y-214847468D01*
X282040000Y-215820395D01*
X283012927Y-214847468D01*
X283607073Y-214847468D01*
X284580000Y-215820395D01*
X285552927Y-214847468D01*
X286147073Y-214847468D01*
X287120000Y-215820395D01*
X288092927Y-214847468D01*
X288687073Y-214847468D01*
X289660000Y-215820395D01*
X290632927Y-214847468D01*
X290534264Y-214580613D01*
X289924539Y-214354092D01*
X289274540Y-214378144D01*
X288785736Y-214580613D01*
X288687073Y-214847468D01*
X288092927Y-214847468D01*
X287994264Y-214580613D01*
X287384539Y-214354092D01*
X286734540Y-214378144D01*
X286245736Y-214580613D01*
X286147073Y-214847468D01*
X285552927Y-214847468D01*
X285454264Y-214580613D01*
X284844539Y-214354092D01*
X284194540Y-214378144D01*
X283705736Y-214580613D01*
X283607073Y-214847468D01*
X283012927Y-214847468D01*
X282914264Y-214580613D01*
X282304539Y-214354092D01*
X281654540Y-214378144D01*
X281165736Y-214580613D01*
X281067073Y-214847468D01*
X280472927Y-214847468D01*
X280374264Y-214580613D01*
X279764539Y-214354092D01*
X279114540Y-214378144D01*
X278625736Y-214580613D01*
X278527073Y-214847468D01*
X274319707Y-214847468D01*
X274086153Y-214613914D01*
X273485222Y-214365000D01*
X272834778Y-214365000D01*
X272233847Y-214613914D01*
X271890000Y-214957761D01*
X271546153Y-214613914D01*
X270945222Y-214365000D01*
X270294778Y-214365000D01*
X269693847Y-214613914D01*
X269350000Y-214957761D01*
X269006153Y-214613914D01*
X268405222Y-214365000D01*
X267754778Y-214365000D01*
X267153847Y-214613914D01*
X266810000Y-214957761D01*
X266466153Y-214613914D01*
X265865222Y-214365000D01*
X265214778Y-214365000D01*
X264613847Y-214613914D01*
X264270000Y-214957761D01*
X263926153Y-214613914D01*
X263325222Y-214365000D01*
X262674778Y-214365000D01*
X262073847Y-214613914D01*
X261613914Y-215073847D01*
X261365000Y-215674778D01*
X258445000Y-215674778D01*
X258445000Y-215615105D01*
X258150414Y-214903910D01*
X258145000Y-214898496D01*
X258145000Y-208054778D01*
X261365000Y-208054778D01*
X261365000Y-208705222D01*
X261613914Y-209306153D01*
X262073847Y-209766086D01*
X262674778Y-210015000D01*
X263325222Y-210015000D01*
X263926153Y-209766086D01*
X264270000Y-209422239D01*
X264613847Y-209766086D01*
X265214778Y-210015000D01*
X265865222Y-210015000D01*
X266466153Y-209766086D01*
X266810000Y-209422239D01*
X267153847Y-209766086D01*
X267754778Y-210015000D01*
X268405222Y-210015000D01*
X269006153Y-209766086D01*
X269350000Y-209422239D01*
X269693847Y-209766086D01*
X270294778Y-210015000D01*
X270945222Y-210015000D01*
X271546153Y-209766086D01*
X271890000Y-209422239D01*
X272233847Y-209766086D01*
X272834778Y-210015000D01*
X273485222Y-210015000D01*
X274086153Y-209766086D01*
X274319707Y-209532532D01*
X278527073Y-209532532D01*
X278625736Y-209799387D01*
X279235461Y-210025908D01*
X279885460Y-210001856D01*
X280374264Y-209799387D01*
X280472927Y-209532532D01*
X281067073Y-209532532D01*
X281165736Y-209799387D01*
X281775461Y-210025908D01*
X282425460Y-210001856D01*
X282914264Y-209799387D01*
X283012927Y-209532532D01*
X283607073Y-209532532D01*
X283705736Y-209799387D01*
X284315461Y-210025908D01*
X284965460Y-210001856D01*
X285454264Y-209799387D01*
X285552927Y-209532532D01*
X286147073Y-209532532D01*
X286245736Y-209799387D01*
X286855461Y-210025908D01*
X287505460Y-210001856D01*
X287994264Y-209799387D01*
X288092927Y-209532532D01*
X288687073Y-209532532D01*
X288785736Y-209799387D01*
X289395461Y-210025908D01*
X290045460Y-210001856D01*
X290534264Y-209799387D01*
X290632927Y-209532532D01*
X289660000Y-208559605D01*
X288687073Y-209532532D01*
X288092927Y-209532532D01*
X287120000Y-208559605D01*
X286147073Y-209532532D01*
X285552927Y-209532532D01*
X284580000Y-208559605D01*
X283607073Y-209532532D01*
X283012927Y-209532532D01*
X282040000Y-208559605D01*
X281067073Y-209532532D01*
X280472927Y-209532532D01*
X279500000Y-208559605D01*
X278527073Y-209532532D01*
X274319707Y-209532532D01*
X274546086Y-209306153D01*
X274795000Y-208705222D01*
X274795000Y-208115461D01*
X277854092Y-208115461D01*
X277878144Y-208765460D01*
X278080613Y-209254264D01*
X278347468Y-209352927D01*
X279320395Y-208380000D01*
X279679605Y-208380000D01*
X280652532Y-209352927D01*
X280770000Y-209309496D01*
X280887468Y-209352927D01*
X281860395Y-208380000D01*
X282219605Y-208380000D01*
X283192532Y-209352927D01*
X283310000Y-209309496D01*
X283427468Y-209352927D01*
X284400395Y-208380000D01*
X284759605Y-208380000D01*
X285732532Y-209352927D01*
X285850000Y-209309496D01*
X285967468Y-209352927D01*
X286940395Y-208380000D01*
X287299605Y-208380000D01*
X288272532Y-209352927D01*
X288390000Y-209309496D01*
X288507468Y-209352927D01*
X289480395Y-208380000D01*
X289839605Y-208380000D01*
X290812532Y-209352927D01*
X291079387Y-209254264D01*
X291305908Y-208644539D01*
X291281856Y-207994540D01*
X291079387Y-207505736D01*
X290812532Y-207407073D01*
X289839605Y-208380000D01*
X289480395Y-208380000D01*
X288507468Y-207407073D01*
X288390000Y-207450504D01*
X288272532Y-207407073D01*
X287299605Y-208380000D01*
X286940395Y-208380000D01*
X285967468Y-207407073D01*
X285850000Y-207450504D01*
X285732532Y-207407073D01*
X284759605Y-208380000D01*
X284400395Y-208380000D01*
X283427468Y-207407073D01*
X283310000Y-207450504D01*
X283192532Y-207407073D01*
X282219605Y-208380000D01*
X281860395Y-208380000D01*
X280887468Y-207407073D01*
X280770000Y-207450504D01*
X280652532Y-207407073D01*
X279679605Y-208380000D01*
X279320395Y-208380000D01*
X278347468Y-207407073D01*
X278080613Y-207505736D01*
X277854092Y-208115461D01*
X274795000Y-208115461D01*
X274795000Y-208054778D01*
X274546086Y-207453847D01*
X274319707Y-207227468D01*
X278527073Y-207227468D01*
X279500000Y-208200395D01*
X280472927Y-207227468D01*
X281067073Y-207227468D01*
X282040000Y-208200395D01*
X283012927Y-207227468D01*
X283607073Y-207227468D01*
X284580000Y-208200395D01*
X285552927Y-207227468D01*
X286147073Y-207227468D01*
X287120000Y-208200395D01*
X288092927Y-207227468D01*
X288687073Y-207227468D01*
X289660000Y-208200395D01*
X290632927Y-207227468D01*
X290534264Y-206960613D01*
X289924539Y-206734092D01*
X289274540Y-206758144D01*
X288785736Y-206960613D01*
X288687073Y-207227468D01*
X288092927Y-207227468D01*
X287994264Y-206960613D01*
X287384539Y-206734092D01*
X286734540Y-206758144D01*
X286245736Y-206960613D01*
X286147073Y-207227468D01*
X285552927Y-207227468D01*
X285454264Y-206960613D01*
X284844539Y-206734092D01*
X284194540Y-206758144D01*
X283705736Y-206960613D01*
X283607073Y-207227468D01*
X283012927Y-207227468D01*
X282914264Y-206960613D01*
X282304539Y-206734092D01*
X281654540Y-206758144D01*
X281165736Y-206960613D01*
X281067073Y-207227468D01*
X280472927Y-207227468D01*
X280374264Y-206960613D01*
X279764539Y-206734092D01*
X279114540Y-206758144D01*
X278625736Y-206960613D01*
X278527073Y-207227468D01*
X274319707Y-207227468D01*
X274086153Y-206993914D01*
X273485222Y-206745000D01*
X272834778Y-206745000D01*
X272233847Y-206993914D01*
X271890000Y-207337761D01*
X271546153Y-206993914D01*
X270945222Y-206745000D01*
X270294778Y-206745000D01*
X269693847Y-206993914D01*
X269350000Y-207337761D01*
X269006153Y-206993914D01*
X268405222Y-206745000D01*
X267754778Y-206745000D01*
X267153847Y-206993914D01*
X266810000Y-207337761D01*
X266466153Y-206993914D01*
X265865222Y-206745000D01*
X265214778Y-206745000D01*
X264613847Y-206993914D01*
X264270000Y-207337761D01*
X263926153Y-206993914D01*
X263325222Y-206745000D01*
X262674778Y-206745000D01*
X262073847Y-206993914D01*
X261613914Y-207453847D01*
X261365000Y-208054778D01*
X258145000Y-208054778D01*
X258145000Y-204127000D01*
X258500000Y-204127000D01*
X258548601Y-204117333D01*
X258589803Y-204089803D01*
X258617333Y-204048601D01*
X258627000Y-204000000D01*
X258627000Y-179000000D01*
X258617333Y-178951399D01*
X258589803Y-178910197D01*
X258548601Y-178882667D01*
X258500000Y-178873000D01*
X244500000Y-178873000D01*
X244451399Y-178882667D01*
X244410197Y-178910197D01*
X244382667Y-178951399D01*
X244373000Y-179000000D01*
X234694000Y-179000000D01*
X234694000Y-178000000D01*
X294373000Y-178000000D01*
X294373000Y-203000000D01*
X294382667Y-203048601D01*
X294410197Y-203089803D01*
X294451399Y-203117333D01*
X294500000Y-203127000D01*
X294787001Y-203127000D01*
X294682969Y-203650000D01*
X294715001Y-203811035D01*
X294715000Y-214160132D01*
X294592191Y-214242191D01*
X294451843Y-214452235D01*
X294402560Y-214700000D01*
X294402560Y-217300000D01*
X294451843Y-217547765D01*
X294592191Y-217757809D01*
X294802235Y-217898157D01*
X295050000Y-217947440D01*
X297650000Y-217947440D01*
X297897765Y-217898157D01*
X298107809Y-217757809D01*
X298248157Y-217547765D01*
X298283623Y-217369459D01*
X300240146Y-217369459D01*
X300375504Y-217667455D01*
X301093880Y-217944066D01*
X301863427Y-217924710D01*
X302484496Y-217667455D01*
X302619854Y-217369459D01*
X301430000Y-216179605D01*
X300240146Y-217369459D01*
X298283623Y-217369459D01*
X298297440Y-217300000D01*
X298297440Y-215663880D01*
X299485934Y-215663880D01*
X299505290Y-216433427D01*
X299762545Y-217054496D01*
X300060541Y-217189854D01*
X301250395Y-216000000D01*
X301609605Y-216000000D01*
X302799459Y-217189854D01*
X303097455Y-217054496D01*
X303374066Y-216336120D01*
X303354710Y-215566573D01*
X303097455Y-214945504D01*
X302799459Y-214810146D01*
X301609605Y-216000000D01*
X301250395Y-216000000D01*
X300060541Y-214810146D01*
X299762545Y-214945504D01*
X299485934Y-215663880D01*
X298297440Y-215663880D01*
X298297440Y-214700000D01*
X298283624Y-214630541D01*
X300240146Y-214630541D01*
X301430000Y-215820395D01*
X302619854Y-214630541D01*
X302484496Y-214332545D01*
X301766120Y-214055934D01*
X300996573Y-214075290D01*
X300375504Y-214332545D01*
X300240146Y-214630541D01*
X298283624Y-214630541D01*
X298248157Y-214452235D01*
X298107809Y-214242191D01*
X297985000Y-214160132D01*
X297985000Y-208830022D01*
X299724584Y-208830022D01*
X299945353Y-209200743D01*
X300917012Y-209594119D01*
X301965247Y-209585713D01*
X302894647Y-209200743D01*
X303115416Y-208830022D01*
X301420000Y-207134605D01*
X299724584Y-208830022D01*
X297985000Y-208830022D01*
X297985000Y-206452012D01*
X298780881Y-206452012D01*
X298789287Y-207500247D01*
X299174257Y-208429647D01*
X299544978Y-208650416D01*
X301240395Y-206955000D01*
X301599605Y-206955000D01*
X303295022Y-208650416D01*
X303665743Y-208429647D01*
X304059119Y-207457988D01*
X304050713Y-206409753D01*
X303665743Y-205480353D01*
X303295022Y-205259584D01*
X301599605Y-206955000D01*
X301240395Y-206955000D01*
X299544978Y-205259584D01*
X299174257Y-205480353D01*
X298780881Y-206452012D01*
X297985000Y-206452012D01*
X297985000Y-205079978D01*
X299724584Y-205079978D01*
X301420000Y-206775395D01*
X303115416Y-205079978D01*
X302894647Y-204709257D01*
X301922988Y-204315881D01*
X300874753Y-204324287D01*
X299945353Y-204709257D01*
X299724584Y-205079978D01*
X297985000Y-205079978D01*
X297985000Y-204327238D01*
X299185239Y-203127000D01*
X304875001Y-203127000D01*
X304875000Y-214898496D01*
X304869586Y-214903910D01*
X304575000Y-215615105D01*
X304575000Y-216384895D01*
X304869586Y-217096090D01*
X305413910Y-217640414D01*
X306125105Y-217935000D01*
X306894895Y-217935000D01*
X307606090Y-217640414D01*
X308150414Y-217096090D01*
X308445000Y-216384895D01*
X308445000Y-215615105D01*
X308150414Y-214903910D01*
X308145000Y-214898496D01*
X308145000Y-203127000D01*
X308500000Y-203127000D01*
X308548601Y-203117333D01*
X308589803Y-203089803D01*
X308617333Y-203048601D01*
X308627000Y-203000000D01*
X308627000Y-178000000D01*
X308617333Y-177951399D01*
X308589803Y-177910197D01*
X308548601Y-177882667D01*
X308500000Y-177873000D01*
X294500000Y-177873000D01*
X294451399Y-177882667D01*
X294410197Y-177910197D01*
X294382667Y-177951399D01*
X294373000Y-178000000D01*
X234694000Y-178000000D01*
X234694000Y-175530022D01*
X249724584Y-175530022D01*
X249945353Y-175900743D01*
X250917012Y-176294119D01*
X251965247Y-176285713D01*
X252894647Y-175900743D01*
X253115416Y-175530022D01*
X299724584Y-175530022D01*
X299945353Y-175900743D01*
X300917012Y-176294119D01*
X301965247Y-176285713D01*
X302894647Y-175900743D01*
X303115416Y-175530022D01*
X301420000Y-173834605D01*
X299724584Y-175530022D01*
X253115416Y-175530022D01*
X251420000Y-173834605D01*
X249724584Y-175530022D01*
X234694000Y-175530022D01*
X234694000Y-175271822D01*
X234872441Y-175093381D01*
X235030010Y-174712975D01*
X235030010Y-174301227D01*
X234872441Y-173920821D01*
X234581290Y-173629670D01*
X234305000Y-173515227D01*
X234305000Y-173152012D01*
X248780881Y-173152012D01*
X248789287Y-174200247D01*
X249174257Y-175129647D01*
X249544978Y-175350416D01*
X251240395Y-173655000D01*
X251599605Y-173655000D01*
X253295022Y-175350416D01*
X253665743Y-175129647D01*
X254059119Y-174157988D01*
X254051052Y-173152012D01*
X298780881Y-173152012D01*
X298789287Y-174200247D01*
X299174257Y-175129647D01*
X299544978Y-175350416D01*
X301240395Y-173655000D01*
X301599605Y-173655000D01*
X303295022Y-175350416D01*
X303665743Y-175129647D01*
X304059119Y-174157988D01*
X304050713Y-173109753D01*
X303665743Y-172180353D01*
X303295022Y-171959584D01*
X301599605Y-173655000D01*
X301240395Y-173655000D01*
X299544978Y-171959584D01*
X299174257Y-172180353D01*
X298780881Y-173152012D01*
X254051052Y-173152012D01*
X254050713Y-173109753D01*
X253665743Y-172180353D01*
X253295022Y-171959584D01*
X251599605Y-173655000D01*
X251240395Y-173655000D01*
X249544978Y-171959584D01*
X249174257Y-172180353D01*
X248780881Y-173152012D01*
X234305000Y-173152012D01*
X234305000Y-173127726D01*
X234147431Y-172747320D01*
X233856280Y-172456169D01*
X233475874Y-172298600D01*
X233064126Y-172298600D01*
X232683720Y-172456169D01*
X232392569Y-172747320D01*
X232235000Y-173127726D01*
X232235000Y-173539474D01*
X232392569Y-173919880D01*
X232510000Y-174037311D01*
X232510001Y-183204198D01*
X232404505Y-183309693D01*
X232341047Y-183352095D01*
X232173072Y-183603488D01*
X232128976Y-183825173D01*
X232128976Y-183825177D01*
X232114088Y-183900024D01*
X232128976Y-183974871D01*
X232128976Y-184059889D01*
X232011545Y-184177320D01*
X231853976Y-184557726D01*
X208627000Y-184557726D01*
X208627000Y-179000000D01*
X208617333Y-178951399D01*
X208589803Y-178910197D01*
X208548601Y-178882667D01*
X208500000Y-178873000D01*
X194500000Y-178873000D01*
X194451399Y-178882667D01*
X194410197Y-178910197D01*
X194382667Y-178951399D01*
X194373000Y-179000000D01*
X194373000Y-180208133D01*
X194333320Y-180224569D01*
X194042169Y-180515720D01*
X193884600Y-180896126D01*
X166643000Y-180896126D01*
X166643000Y-180642126D01*
X166485431Y-180261720D01*
X166436711Y-180213000D01*
X166485431Y-180164280D01*
X166643000Y-179783874D01*
X166643000Y-179372126D01*
X166485431Y-178991720D01*
X166194280Y-178700569D01*
X165813874Y-178543000D01*
X165402126Y-178543000D01*
X165021720Y-178700569D01*
X164844000Y-178878289D01*
X164844000Y-176844801D01*
X165647802Y-176041000D01*
X165813874Y-176041000D01*
X166194280Y-175883431D01*
X166485431Y-175592280D01*
X166511219Y-175530022D01*
X199724584Y-175530022D01*
X199945353Y-175900743D01*
X200917012Y-176294119D01*
X201965247Y-176285713D01*
X202894647Y-175900743D01*
X203115416Y-175530022D01*
X201420000Y-173834605D01*
X199724584Y-175530022D01*
X166511219Y-175530022D01*
X166643000Y-175211874D01*
X166643000Y-174800126D01*
X166485431Y-174419720D01*
X166436711Y-174371000D01*
X166485431Y-174322280D01*
X166643000Y-173941874D01*
X166643000Y-173530126D01*
X166486381Y-173152012D01*
X198780881Y-173152012D01*
X198789287Y-174200247D01*
X199174257Y-175129647D01*
X199544978Y-175350416D01*
X201240395Y-173655000D01*
X201599605Y-173655000D01*
X203295022Y-175350416D01*
X203665743Y-175129647D01*
X204059119Y-174157988D01*
X204050713Y-173109753D01*
X203665743Y-172180353D01*
X203295022Y-171959584D01*
X201599605Y-173655000D01*
X201240395Y-173655000D01*
X199544978Y-171959584D01*
X199174257Y-172180353D01*
X198780881Y-173152012D01*
X166486381Y-173152012D01*
X166485431Y-173149720D01*
X166194280Y-172858569D01*
X165813874Y-172701000D01*
X165402126Y-172701000D01*
X165021720Y-172858569D01*
X164730569Y-173149720D01*
X164573000Y-173530126D01*
X164573000Y-173696198D01*
X163316400Y-174952799D01*
X163316400Y-173330414D01*
X165685815Y-170961000D01*
X165851887Y-170961000D01*
X166232293Y-170803431D01*
X166523444Y-170512280D01*
X166681013Y-170131874D01*
X166681013Y-169720126D01*
X166523444Y-169339720D01*
X166232293Y-169048569D01*
X165892929Y-168908000D01*
X176334289Y-168908000D01*
X176451720Y-169025431D01*
X176832126Y-169183000D01*
X177243874Y-169183000D01*
X177624280Y-169025431D01*
X177915431Y-168734280D01*
X178073000Y-168353874D01*
X178073000Y-168044004D01*
X178205474Y-168044004D01*
X178585880Y-167886435D01*
X178877031Y-167595284D01*
X179034600Y-167214878D01*
X179034600Y-166803130D01*
X178877031Y-166422724D01*
X178585880Y-166131573D01*
X178205474Y-165974004D01*
X178073000Y-165974004D01*
X178073000Y-165910126D01*
X178060936Y-165881000D01*
X178259874Y-165881000D01*
X178640280Y-165723431D01*
X178757711Y-165606000D01*
X191370000Y-165606000D01*
X191370000Y-165813874D01*
X191527569Y-166194280D01*
X191576289Y-166243000D01*
X191527569Y-166291720D01*
X191370000Y-166672126D01*
X191370000Y-167083874D01*
X191527569Y-167464280D01*
X191818720Y-167755431D01*
X192199126Y-167913000D01*
X192610874Y-167913000D01*
X192991280Y-167755431D01*
X193108711Y-167638000D01*
X196394153Y-167638000D01*
X196469000Y-167652888D01*
X196543847Y-167638000D01*
X196543852Y-167638000D01*
X196765537Y-167593904D01*
X197016929Y-167425929D01*
X197059330Y-167362471D01*
X197063008Y-167358793D01*
X197206000Y-167704007D01*
X197206001Y-170377991D01*
X197056000Y-170740126D01*
X197056000Y-171151874D01*
X197213569Y-171532280D01*
X197504720Y-171823431D01*
X197885126Y-171981000D01*
X198296874Y-171981000D01*
X198677280Y-171823431D01*
X198720733Y-171779978D01*
X199724584Y-171779978D01*
X201420000Y-173475395D01*
X203115416Y-171779978D01*
X249724584Y-171779978D01*
X251420000Y-173475395D01*
X253115416Y-171779978D01*
X299724584Y-171779978D01*
X301420000Y-173475395D01*
X303115416Y-171779978D01*
X302894647Y-171409257D01*
X301922988Y-171015881D01*
X300874753Y-171024287D01*
X299945353Y-171409257D01*
X299724584Y-171779978D01*
X253115416Y-171779978D01*
X252894647Y-171409257D01*
X251922988Y-171015881D01*
X250874753Y-171024287D01*
X249945353Y-171409257D01*
X249724584Y-171779978D01*
X203115416Y-171779978D01*
X202894647Y-171409257D01*
X201922988Y-171015881D01*
X200874753Y-171024287D01*
X199945353Y-171409257D01*
X199724584Y-171779978D01*
X198720733Y-171779978D01*
X198968431Y-171532280D01*
X199126000Y-171151874D01*
X199126000Y-170740126D01*
X198976000Y-170377993D01*
X198976000Y-167704007D01*
X199126000Y-167341874D01*
X199126000Y-167130000D01*
X237937199Y-167130000D01*
X240328671Y-169521473D01*
X240371071Y-169584929D01*
X240622463Y-169752904D01*
X240844148Y-169797000D01*
X240844152Y-169797000D01*
X240919000Y-169811888D01*
X240993848Y-169797000D01*
X252147153Y-169797000D01*
X252222000Y-169811888D01*
X252296847Y-169797000D01*
X252296852Y-169797000D01*
X252518537Y-169752904D01*
X252769929Y-169584929D01*
X252812331Y-169521470D01*
X254230476Y-168103327D01*
X254293929Y-168060929D01*
X254336327Y-167997476D01*
X254336329Y-167997474D01*
X254433890Y-167851463D01*
X254461904Y-167809537D01*
X254506000Y-167587852D01*
X254506000Y-167587848D01*
X254520888Y-167513001D01*
X254506000Y-167438154D01*
X254506000Y-167140178D01*
X254816625Y-166932625D01*
X255016000Y-166634239D01*
X255215375Y-166932625D01*
X255706582Y-167260839D01*
X256139744Y-167347000D01*
X256432256Y-167347000D01*
X256865418Y-167260839D01*
X257356625Y-166932625D01*
X257684839Y-166441418D01*
X257800092Y-165862000D01*
X257684839Y-165282582D01*
X257356625Y-164791375D01*
X256865418Y-164463161D01*
X256432256Y-164377000D01*
X256139744Y-164377000D01*
X255706582Y-164463161D01*
X255215375Y-164791375D01*
X255016000Y-165089761D01*
X254816625Y-164791375D01*
X254325418Y-164463161D01*
X253892256Y-164377000D01*
X253599744Y-164377000D01*
X253166582Y-164463161D01*
X252675375Y-164791375D01*
X252476000Y-165089761D01*
X252276625Y-164791375D01*
X251785418Y-164463161D01*
X251352256Y-164377000D01*
X251059744Y-164377000D01*
X250626582Y-164463161D01*
X250135375Y-164791375D01*
X249922157Y-165110478D01*
X249861183Y-164980642D01*
X249432924Y-164590355D01*
X249022890Y-164420524D01*
X248793000Y-164541845D01*
X248793000Y-165735000D01*
X248813000Y-165735000D01*
X248813000Y-165989000D01*
X248793000Y-165989000D01*
X248793000Y-167182155D01*
X249022890Y-167303476D01*
X249432924Y-167133645D01*
X249861183Y-166743358D01*
X249922157Y-166613522D01*
X250135375Y-166932625D01*
X250404650Y-167112549D01*
X250129199Y-167388000D01*
X241741803Y-167388000D01*
X239477331Y-165123530D01*
X239434929Y-165060071D01*
X239362986Y-165012000D01*
X242088560Y-165012000D01*
X242088560Y-166712000D01*
X242137843Y-166959765D01*
X242278191Y-167169809D01*
X242488235Y-167310157D01*
X242736000Y-167359440D01*
X244436000Y-167359440D01*
X244683765Y-167310157D01*
X244893809Y-167169809D01*
X245034157Y-166959765D01*
X245043184Y-166914381D01*
X245055375Y-166932625D01*
X245546582Y-167260839D01*
X245979744Y-167347000D01*
X246272256Y-167347000D01*
X246705418Y-167260839D01*
X247196625Y-166932625D01*
X247409843Y-166613522D01*
X247470817Y-166743358D01*
X247899076Y-167133645D01*
X248309110Y-167303476D01*
X248539000Y-167182155D01*
X248539000Y-165989000D01*
X248519000Y-165989000D01*
X248519000Y-165735000D01*
X248539000Y-165735000D01*
X248539000Y-164541845D01*
X248309110Y-164420524D01*
X247899076Y-164590355D01*
X247470817Y-164980642D01*
X247409843Y-165110478D01*
X247196625Y-164791375D01*
X246705418Y-164463161D01*
X246272256Y-164377000D01*
X245979744Y-164377000D01*
X245546582Y-164463161D01*
X245055375Y-164791375D01*
X245043184Y-164809619D01*
X245034157Y-164764235D01*
X244893809Y-164554191D01*
X244683765Y-164413843D01*
X244436000Y-164364560D01*
X242736000Y-164364560D01*
X242488235Y-164413843D01*
X242278191Y-164554191D01*
X242137843Y-164764235D01*
X242088560Y-165012000D01*
X239362986Y-165012000D01*
X239183537Y-164892096D01*
X238961852Y-164848000D01*
X238961847Y-164848000D01*
X238887000Y-164833112D01*
X238812153Y-164848000D01*
X234969000Y-164848000D01*
X234969000Y-164640126D01*
X234811431Y-164259720D01*
X234520280Y-163968569D01*
X234139874Y-163811000D01*
X233728126Y-163811000D01*
X233347720Y-163968569D01*
X233230289Y-164086000D01*
X178757711Y-164086000D01*
X178640280Y-163968569D01*
X178259874Y-163811000D01*
X177848126Y-163811000D01*
X177467720Y-163968569D01*
X177176569Y-164259720D01*
X177019000Y-164640126D01*
X177019000Y-165051874D01*
X177031064Y-165081000D01*
X176832126Y-165081000D01*
X176451720Y-165238569D01*
X176330289Y-165360000D01*
X156121945Y-165360000D01*
X156093929Y-165318071D01*
X155842537Y-165150096D01*
X155771721Y-165136010D01*
X155624280Y-164988569D01*
X155243874Y-164831000D01*
X154832126Y-164831000D01*
X154451720Y-164988569D01*
X154160569Y-165279720D01*
X154003000Y-165660126D01*
X154003000Y-165720000D01*
X153689126Y-165720000D01*
X153308720Y-165877569D01*
X153017569Y-166168720D01*
X152860000Y-166549126D01*
X152860000Y-166960874D01*
X153017569Y-167341280D01*
X153064289Y-167388000D01*
X147394846Y-167388000D01*
X147319999Y-167373112D01*
X147245152Y-167388000D01*
X147245148Y-167388000D01*
X147023463Y-167432096D01*
X146772071Y-167600071D01*
X146729672Y-167663526D01*
X145565528Y-168827671D01*
X145502072Y-168870071D01*
X145459672Y-168933527D01*
X145459671Y-168933528D01*
X145351807Y-169094958D01*
X145334097Y-169121463D01*
X145321857Y-169183000D01*
X145275112Y-169418000D01*
X145290001Y-169492852D01*
X145290000Y-178873000D01*
X144500000Y-178873000D01*
X144451399Y-178882667D01*
X144410197Y-178910197D01*
X144382667Y-178951399D01*
X144373000Y-179000000D01*
X144373000Y-182305392D01*
X144298139Y-182380253D01*
X144224005Y-182134136D01*
X143686777Y-181941035D01*
X143116546Y-181968222D01*
X142715995Y-182134136D01*
X142641861Y-182380255D01*
X142376118Y-182380255D01*
X142368157Y-182340235D01*
X142227809Y-182130191D01*
X142017765Y-181989843D01*
X141770000Y-181940560D01*
X140170000Y-181940560D01*
X139922235Y-181989843D01*
X139712191Y-182130191D01*
X139571843Y-182340235D01*
X139522560Y-182588000D01*
X115257510Y-182588000D01*
X115245289Y-182569711D01*
X115150524Y-182506391D01*
X115069926Y-182425793D01*
X114964620Y-182382174D01*
X114869855Y-182318854D01*
X114758072Y-182296619D01*
X114652766Y-182253000D01*
X114538783Y-182253000D01*
X114427000Y-182230765D01*
X114315217Y-182253000D01*
X114201234Y-182253000D01*
X114095927Y-182296619D01*
X113984146Y-182318854D01*
X113889382Y-182382173D01*
X113784074Y-182425793D01*
X113703475Y-182506392D01*
X113608711Y-182569711D01*
X113545391Y-182664476D01*
X113464793Y-182745074D01*
X113421174Y-182850380D01*
X113357854Y-182945145D01*
X113335619Y-183056928D01*
X113292000Y-183162234D01*
X108627000Y-183162234D01*
X108627000Y-179974000D01*
X126102810Y-179974000D01*
X126102810Y-181774000D01*
X126152093Y-182021765D01*
X126292441Y-182231809D01*
X126502485Y-182372157D01*
X126750250Y-182421440D01*
X128467750Y-182421440D01*
X128715515Y-182372157D01*
X128925559Y-182231809D01*
X129015616Y-182097031D01*
X129092510Y-182171174D01*
X129540736Y-182365400D01*
X129772000Y-182244195D01*
X129772000Y-181001000D01*
X129752000Y-181001000D01*
X129752000Y-180747000D01*
X129772000Y-180747000D01*
X129772000Y-179503805D01*
X130026000Y-179503805D01*
X130026000Y-180747000D01*
X130046000Y-180747000D01*
X130046000Y-181001000D01*
X130026000Y-181001000D01*
X130026000Y-182244195D01*
X130257264Y-182365400D01*
X130705490Y-182171174D01*
X131025494Y-181862619D01*
X131112066Y-181992184D01*
X131606169Y-182322331D01*
X132189000Y-182438264D01*
X132771832Y-182322331D01*
X133265934Y-181992184D01*
X133596081Y-181498081D01*
X133682750Y-181062368D01*
X133682750Y-180685631D01*
X133596081Y-180249918D01*
X133265934Y-179755816D01*
X132771831Y-179425669D01*
X132189000Y-179309736D01*
X131606168Y-179425669D01*
X131112066Y-179755816D01*
X131025494Y-179885381D01*
X130705490Y-179576826D01*
X130257264Y-179382600D01*
X130026000Y-179503805D01*
X129772000Y-179503805D01*
X129540736Y-179382600D01*
X129092510Y-179576826D01*
X129015616Y-179650969D01*
X128925559Y-179516191D01*
X128715515Y-179375843D01*
X128467750Y-179326560D01*
X126750250Y-179326560D01*
X126502485Y-179375843D01*
X126292441Y-179516191D01*
X126152093Y-179726235D01*
X126102810Y-179974000D01*
X108627000Y-179974000D01*
X108627000Y-179000000D01*
X108617333Y-178951399D01*
X108589803Y-178910197D01*
X108548601Y-178882667D01*
X108500000Y-178873000D01*
X94500000Y-178873000D01*
X94451399Y-178882667D01*
X94410197Y-178910197D01*
X94382667Y-178951399D01*
X94373000Y-179000000D01*
X83310000Y-179000000D01*
X83310000Y-175530022D01*
X99724584Y-175530022D01*
X99945353Y-175900743D01*
X100917012Y-176294119D01*
X101965247Y-176285713D01*
X102894647Y-175900743D01*
X103115416Y-175530022D01*
X101420000Y-173834605D01*
X99724584Y-175530022D01*
X83310000Y-175530022D01*
X83310000Y-173152012D01*
X98780881Y-173152012D01*
X98789287Y-174200247D01*
X99174257Y-175129647D01*
X99544978Y-175350416D01*
X101240395Y-173655000D01*
X101599605Y-173655000D01*
X103295022Y-175350416D01*
X103665743Y-175129647D01*
X104059119Y-174157988D01*
X104050713Y-173109753D01*
X103665743Y-172180353D01*
X103295022Y-171959584D01*
X101599605Y-173655000D01*
X101240395Y-173655000D01*
X99544978Y-171959584D01*
X99174257Y-172180353D01*
X98780881Y-173152012D01*
X83310000Y-173152012D01*
X83310000Y-171779978D01*
X99724584Y-171779978D01*
X101420000Y-173475395D01*
X103115416Y-171779978D01*
X102894647Y-171409257D01*
X101922988Y-171015881D01*
X100874753Y-171024287D01*
X99945353Y-171409257D01*
X99724584Y-171779978D01*
X83310000Y-171779978D01*
X83310000Y-168984846D01*
X83324888Y-168909999D01*
X83310000Y-168835152D01*
X83310000Y-168835148D01*
X83265904Y-168613463D01*
X83097929Y-168362071D01*
X83034473Y-168319671D01*
X82732775Y-168017974D01*
X82807959Y-167640000D01*
X82691650Y-167055275D01*
X82360430Y-166559570D01*
X81864725Y-166228350D01*
X81427598Y-166141400D01*
X81132402Y-166141400D01*
X80695275Y-166228350D01*
X80199570Y-166559570D01*
X80010000Y-166843281D01*
X79820430Y-166559570D01*
X79324725Y-166228350D01*
X78887598Y-166141400D01*
X78592402Y-166141400D01*
X78155275Y-166228350D01*
X77659570Y-166559570D01*
X77458146Y-166861021D01*
X77406821Y-166751510D01*
X76974947Y-166357312D01*
X76559026Y-166185042D01*
X76327000Y-166306183D01*
X76073000Y-166306183D01*
X75840974Y-166185042D01*
X75425053Y-166357312D01*
X74993179Y-166751510D01*
X74941854Y-166861021D01*
X74740430Y-166559570D01*
X74244725Y-166228350D01*
X73807598Y-166141400D01*
X73512402Y-166141400D01*
X73075275Y-166228350D01*
X72579570Y-166559570D01*
X72390000Y-166843281D01*
X72200430Y-166559570D01*
X71704725Y-166228350D01*
X71267598Y-166141400D01*
X70972402Y-166141400D01*
X70535275Y-166228350D01*
X70039570Y-166559570D01*
X69708350Y-167055275D01*
X69592041Y-167640000D01*
X69667225Y-168017974D01*
X69365530Y-168319669D01*
X69302071Y-168362071D01*
X69134096Y-168613464D01*
X69090000Y-168835149D01*
X69090000Y-168835153D01*
X69075112Y-168910000D01*
X69090000Y-168984847D01*
X69090001Y-190986288D01*
X68972569Y-191103720D01*
X68815000Y-191484126D01*
X58627000Y-191484126D01*
X58627000Y-179000000D01*
X58617333Y-178951399D01*
X58589803Y-178910197D01*
X58548601Y-178882667D01*
X58500000Y-178873000D01*
X44500000Y-178873000D01*
X44451399Y-178882667D01*
X44410197Y-178910197D01*
X44382667Y-178951399D01*
X44373000Y-179000000D01*
X42185000Y-179000000D01*
X42185000Y-175530022D01*
X49724584Y-175530022D01*
X49945353Y-175900743D01*
X50917012Y-176294119D01*
X51965247Y-176285713D01*
X52894647Y-175900743D01*
X53115416Y-175530022D01*
X51420000Y-173834605D01*
X49724584Y-175530022D01*
X42185000Y-175530022D01*
X42185000Y-173152012D01*
X48780881Y-173152012D01*
X48789287Y-174200247D01*
X49174257Y-175129647D01*
X49544978Y-175350416D01*
X51240395Y-173655000D01*
X51599605Y-173655000D01*
X53295022Y-175350416D01*
X53665743Y-175129647D01*
X54059119Y-174157988D01*
X54050713Y-173109753D01*
X53665743Y-172180353D01*
X53295022Y-171959584D01*
X51599605Y-173655000D01*
X51240395Y-173655000D01*
X49544978Y-171959584D01*
X49174257Y-172180353D01*
X48780881Y-173152012D01*
X42185000Y-173152012D01*
X42185000Y-171779978D01*
X49724584Y-171779978D01*
X51420000Y-173475395D01*
X53115416Y-171779978D01*
X52894647Y-171409257D01*
X51922988Y-171015881D01*
X50874753Y-171024287D01*
X49945353Y-171409257D01*
X49724584Y-171779978D01*
X42185000Y-171779978D01*
X42185000Y-165283735D01*
X43783736Y-163685000D01*
X319216265Y-163685000D01*
X320815001Y-165283737D01*
G04 #@! TD*
M02*
