G04 #@! TF.GenerationSoftware,KiCad,Pcbnew,(5.0.0-rc2-dev-444-g2974a2c10)*
G04 #@! TF.CreationDate,2018-06-15T13:24:22+02:00*
G04 #@! TF.ProjectId,BackplanePCB_solder,4261636B706C616E655043425F736F6C,rev?*
G04 #@! TF.SameCoordinates,Original*
G04 #@! TF.FileFunction,Copper,L1,Top,Signal*
G04 #@! TF.FilePolarity,Positive*
%FSLAX46Y46*%
G04 Gerber Fmt 4.6, Leading zero omitted, Abs format (unit mm)*
G04 Created by KiCad (PCBNEW (5.0.0-rc2-dev-444-g2974a2c10)) date 06/15/18 13:24:22*
%MOMM*%
%LPD*%
G01*
G04 APERTURE LIST*
%ADD10O,1.600000X2.400000*%
%ADD11R,1.600000X1.600000*%
%ADD12C,1.600000*%
%ADD13C,4.000000*%
%ADD14C,2.600000*%
%ADD15R,2.600000X2.600000*%
%ADD16R,1.727200X1.727200*%
%ADD17O,1.727200X1.727200*%
%ADD18O,1.600000X1.600000*%
%ADD19R,2.000000X2.000000*%
%ADD20C,2.000000*%
%ADD21R,1.800000X1.220000*%
%ADD22C,1.000000*%
%ADD23C,0.500000*%
%ADD24C,2.000000*%
%ADD25C,1.000000*%
%ADD26C,0.254000*%
G04 APERTURE END LIST*
D10*
X260000000Y-179000000D03*
X249840000Y-186620000D03*
X257460000Y-179000000D03*
X252380000Y-186620000D03*
X254920000Y-179000000D03*
X254920000Y-186620000D03*
X252380000Y-179000000D03*
X257460000Y-186620000D03*
X249840000Y-179000000D03*
X260000000Y-186620000D03*
X242000000Y-186620000D03*
X231840000Y-179000000D03*
X239460000Y-186620000D03*
X234380000Y-179000000D03*
X236920000Y-186620000D03*
X236920000Y-179000000D03*
X234380000Y-186620000D03*
X239460000Y-179000000D03*
X231840000Y-186620000D03*
X242000000Y-179000000D03*
D11*
X70000000Y-207000000D03*
D12*
X70000000Y-204230000D03*
X70000000Y-201460000D03*
X70000000Y-198690000D03*
X70000000Y-195920000D03*
X70000000Y-193150000D03*
X70000000Y-190380000D03*
X70000000Y-187610000D03*
X72840000Y-205615000D03*
X72840000Y-202845000D03*
X72840000Y-200075000D03*
X72840000Y-197305000D03*
X72840000Y-194535000D03*
X72840000Y-191765000D03*
X72840000Y-188995000D03*
D13*
X71420000Y-180655000D03*
X71420000Y-213955000D03*
D14*
X301160000Y-224000000D03*
X296080000Y-224000000D03*
D15*
X291000000Y-224000000D03*
D16*
X102108000Y-220980000D03*
D17*
X102108000Y-223520000D03*
X99568000Y-220980000D03*
X99568000Y-223520000D03*
X97028000Y-220980000D03*
X97028000Y-223520000D03*
X94488000Y-220980000D03*
X94488000Y-223520000D03*
X91948000Y-220980000D03*
X91948000Y-223520000D03*
D11*
X320000000Y-207000000D03*
D12*
X320000000Y-204230000D03*
X320000000Y-201460000D03*
X320000000Y-198690000D03*
X320000000Y-195920000D03*
X320000000Y-193150000D03*
X320000000Y-190380000D03*
X320000000Y-187610000D03*
X322840000Y-205615000D03*
X322840000Y-202845000D03*
X322840000Y-200075000D03*
X322840000Y-197305000D03*
X322840000Y-194535000D03*
X322840000Y-191765000D03*
X322840000Y-188995000D03*
D13*
X321420000Y-180655000D03*
X321420000Y-213955000D03*
X271420000Y-213955000D03*
X271420000Y-180655000D03*
D12*
X272840000Y-188995000D03*
X272840000Y-191765000D03*
X272840000Y-194535000D03*
X272840000Y-197305000D03*
X272840000Y-200075000D03*
X272840000Y-202845000D03*
X272840000Y-205615000D03*
X270000000Y-187610000D03*
X270000000Y-190380000D03*
X270000000Y-193150000D03*
X270000000Y-195920000D03*
X270000000Y-198690000D03*
X270000000Y-201460000D03*
X270000000Y-204230000D03*
D11*
X270000000Y-207000000D03*
X220000000Y-207000000D03*
D12*
X220000000Y-204230000D03*
X220000000Y-201460000D03*
X220000000Y-198690000D03*
X220000000Y-195920000D03*
X220000000Y-193150000D03*
X220000000Y-190380000D03*
X220000000Y-187610000D03*
X222840000Y-205615000D03*
X222840000Y-202845000D03*
X222840000Y-200075000D03*
X222840000Y-197305000D03*
X222840000Y-194535000D03*
X222840000Y-191765000D03*
X222840000Y-188995000D03*
D13*
X221420000Y-180655000D03*
X221420000Y-213955000D03*
X171420000Y-213955000D03*
X171420000Y-180655000D03*
D12*
X172840000Y-188995000D03*
X172840000Y-191765000D03*
X172840000Y-194535000D03*
X172840000Y-197305000D03*
X172840000Y-200075000D03*
X172840000Y-202845000D03*
X172840000Y-205615000D03*
X170000000Y-187610000D03*
X170000000Y-190380000D03*
X170000000Y-193150000D03*
X170000000Y-195920000D03*
X170000000Y-198690000D03*
X170000000Y-201460000D03*
X170000000Y-204230000D03*
D11*
X170000000Y-207000000D03*
X120000000Y-207000000D03*
D12*
X120000000Y-204230000D03*
X120000000Y-201460000D03*
X120000000Y-198690000D03*
X120000000Y-195920000D03*
X120000000Y-193150000D03*
X120000000Y-190380000D03*
X120000000Y-187610000D03*
X122840000Y-205615000D03*
X122840000Y-202845000D03*
X122840000Y-200075000D03*
X122840000Y-197305000D03*
X122840000Y-194535000D03*
X122840000Y-191765000D03*
X122840000Y-188995000D03*
D13*
X121420000Y-180655000D03*
X121420000Y-213955000D03*
D15*
X216000000Y-224000000D03*
D14*
X221080000Y-224000000D03*
X226160000Y-224000000D03*
D15*
X66000000Y-224000000D03*
D14*
X71080000Y-224000000D03*
X76160000Y-224000000D03*
D15*
X316000000Y-224000000D03*
D14*
X321080000Y-224000000D03*
X326160000Y-224000000D03*
D15*
X166000000Y-224000000D03*
D14*
X171080000Y-224000000D03*
X176160000Y-224000000D03*
X276160000Y-224000000D03*
X271080000Y-224000000D03*
D15*
X266000000Y-224000000D03*
D14*
X126160000Y-224000000D03*
X121080000Y-224000000D03*
D15*
X116000000Y-224000000D03*
D18*
X311404000Y-213314000D03*
D12*
X311404000Y-205694000D03*
D18*
X307340000Y-205694000D03*
D12*
X307340000Y-213314000D03*
X261112000Y-205740000D03*
D18*
X261112000Y-213360000D03*
X257000000Y-205740000D03*
D12*
X257000000Y-213360000D03*
X211328000Y-205694000D03*
D18*
X211328000Y-213314000D03*
D12*
X207010000Y-213314000D03*
D18*
X207010000Y-205694000D03*
X161544000Y-213314000D03*
D12*
X161544000Y-205694000D03*
X156972000Y-213314000D03*
D18*
X156972000Y-205694000D03*
X111506000Y-213314000D03*
D12*
X111506000Y-205694000D03*
X107442000Y-213314000D03*
D18*
X107442000Y-205694000D03*
X81534000Y-213314000D03*
D12*
X81534000Y-205694000D03*
X85598000Y-213314000D03*
D18*
X85598000Y-205694000D03*
D12*
X285496000Y-224000000D03*
X285496000Y-219000000D03*
X281432000Y-218948000D03*
X281432000Y-223948000D03*
D11*
X296000000Y-213000000D03*
D12*
X296000000Y-210500000D03*
D19*
X146812000Y-181610000D03*
D20*
X146812000Y-189110000D03*
D21*
X62008000Y-203132000D03*
X62008000Y-205992000D03*
X62008000Y-200912000D03*
X62008000Y-198052000D03*
X62008000Y-192972000D03*
X62008000Y-195832000D03*
X62008000Y-190752000D03*
X62008000Y-187892000D03*
D22*
X104648000Y-191765000D03*
X102108000Y-193150000D03*
X99568000Y-194535000D03*
X97028000Y-195920000D03*
X94488000Y-197305000D03*
X91948000Y-198690000D03*
X89662000Y-200075000D03*
X87503000Y-201460000D03*
X81414000Y-190380000D03*
D23*
X111506000Y-205694000D02*
X107442000Y-205694000D01*
X85598000Y-205694000D02*
X81534000Y-205694000D01*
X122840000Y-191765000D02*
X172840000Y-191765000D01*
X222708000Y-191897000D02*
X222840000Y-191765000D01*
X174103370Y-191897000D02*
X222708000Y-191897000D01*
X173971370Y-191765000D02*
X174103370Y-191897000D01*
X172840000Y-191765000D02*
X173971370Y-191765000D01*
X270465002Y-191765000D02*
X272840000Y-191765000D01*
X222840000Y-191765000D02*
X270465002Y-191765000D01*
X320465002Y-191765000D02*
X322840000Y-191765000D01*
X272840000Y-191765000D02*
X320465002Y-191765000D01*
X72840000Y-191765000D02*
X101092000Y-191765000D01*
X104648000Y-191765000D02*
X122840000Y-191765000D01*
X101092000Y-191765000D02*
X104648000Y-191765000D01*
X71708630Y-191765000D02*
X72840000Y-191765000D01*
X68448000Y-191765000D02*
X71708630Y-191765000D01*
X62008000Y-187892000D02*
X64575000Y-187892000D01*
X64575000Y-187892000D02*
X68448000Y-191765000D01*
X120000000Y-193150000D02*
X170000000Y-193150000D01*
X220000000Y-193150000D02*
X170000000Y-193150000D01*
X220000000Y-193150000D02*
X270000000Y-193150000D01*
X320000000Y-193150000D02*
X270000000Y-193150000D01*
X103124000Y-193150000D02*
X120000000Y-193150000D01*
X70000000Y-193150000D02*
X101092000Y-193150000D01*
X101092000Y-193150000D02*
X102108000Y-193150000D01*
X102108000Y-193150000D02*
X103124000Y-193150000D01*
X68868630Y-193150000D02*
X70000000Y-193150000D01*
X66912000Y-193150000D02*
X68868630Y-193150000D01*
X62008000Y-190752000D02*
X64514000Y-190752000D01*
X64514000Y-190752000D02*
X66912000Y-193150000D01*
X170465002Y-194535000D02*
X172840000Y-194535000D01*
X122840000Y-194535000D02*
X170465002Y-194535000D01*
X172840000Y-194535000D02*
X222840000Y-194535000D01*
X222840000Y-194535000D02*
X272840000Y-194535000D01*
X272840000Y-194535000D02*
X322840000Y-194535000D01*
X72840000Y-194535000D02*
X98552000Y-194535000D01*
X98552000Y-194535000D02*
X99568000Y-194535000D01*
X99568000Y-194535000D02*
X122840000Y-194535000D01*
X71708630Y-194535000D02*
X72840000Y-194535000D01*
X66138000Y-194535000D02*
X71708630Y-194535000D01*
X62008000Y-192972000D02*
X64575000Y-192972000D01*
X64575000Y-192972000D02*
X66138000Y-194535000D01*
X70000000Y-195920000D02*
X73305002Y-195920000D01*
X69912000Y-195832000D02*
X70000000Y-195920000D01*
X62008000Y-195832000D02*
X69912000Y-195832000D01*
X120000000Y-195920000D02*
X170000000Y-195920000D01*
X172374998Y-195920000D02*
X170000000Y-195920000D01*
X220000000Y-195920000D02*
X172374998Y-195920000D01*
X220000000Y-195920000D02*
X270000000Y-195920000D01*
X320000000Y-195920000D02*
X270000000Y-195920000D01*
X105156000Y-195920000D02*
X120000000Y-195920000D01*
X73305002Y-195920000D02*
X96012000Y-195920000D01*
X96012000Y-195920000D02*
X97028000Y-195920000D01*
X97028000Y-195920000D02*
X105156000Y-195920000D01*
X120465002Y-197305000D02*
X122840000Y-197305000D01*
X122840000Y-197305000D02*
X172840000Y-197305000D01*
X220465002Y-197305000D02*
X222840000Y-197305000D01*
X172840000Y-197305000D02*
X220465002Y-197305000D01*
X270465002Y-197305000D02*
X272840000Y-197305000D01*
X222840000Y-197305000D02*
X270465002Y-197305000D01*
X272840000Y-197305000D02*
X322840000Y-197305000D01*
X96012000Y-197305000D02*
X120465002Y-197305000D01*
X72840000Y-197305000D02*
X93472000Y-197305000D01*
X93472000Y-197305000D02*
X94488000Y-197305000D01*
X94488000Y-197305000D02*
X96012000Y-197305000D01*
X71708630Y-197305000D02*
X72840000Y-197305000D01*
X65331000Y-197305000D02*
X71708630Y-197305000D01*
X62008000Y-198052000D02*
X64584000Y-198052000D01*
X64584000Y-198052000D02*
X65331000Y-197305000D01*
X121131370Y-198690000D02*
X170000000Y-198690000D01*
X120000000Y-198690000D02*
X121131370Y-198690000D01*
X170000000Y-198690000D02*
X220000000Y-198690000D01*
X220000000Y-198690000D02*
X270000000Y-198690000D01*
X320000000Y-198690000D02*
X270000000Y-198690000D01*
X70000000Y-198690000D02*
X87630000Y-198690000D01*
X87630000Y-198690000D02*
X90932000Y-198690000D01*
X90932000Y-198690000D02*
X91948000Y-198690000D01*
X91948000Y-198690000D02*
X120000000Y-198690000D01*
X66867000Y-198690000D02*
X70000000Y-198690000D01*
X62008000Y-200912000D02*
X64645000Y-200912000D01*
X64645000Y-200912000D02*
X66867000Y-198690000D01*
X71708630Y-200075000D02*
X72840000Y-200075000D01*
X67641000Y-200075000D02*
X71708630Y-200075000D01*
X62008000Y-203132000D02*
X64584000Y-203132000D01*
X64584000Y-203132000D02*
X67641000Y-200075000D01*
X122840000Y-200075000D02*
X172840000Y-200075000D01*
X222840000Y-200075000D02*
X172840000Y-200075000D01*
X222840000Y-200075000D02*
X272840000Y-200075000D01*
X272840000Y-200075000D02*
X322840000Y-200075000D01*
X89129410Y-200075000D02*
X89128600Y-200075810D01*
X89127790Y-200075000D02*
X89128600Y-200075810D01*
X72840000Y-200075000D02*
X89127790Y-200075000D01*
X122840000Y-200075000D02*
X89662000Y-200075000D01*
X89662000Y-200075000D02*
X89129410Y-200075000D01*
X120000000Y-201460000D02*
X170000000Y-201460000D01*
X171131370Y-201460000D02*
X220000000Y-201460000D01*
X170000000Y-201460000D02*
X171131370Y-201460000D01*
X220000000Y-201460000D02*
X270000000Y-201460000D01*
X320000000Y-201460000D02*
X270000000Y-201460000D01*
X89408000Y-201460000D02*
X120000000Y-201460000D01*
X70000000Y-201460000D02*
X87426800Y-201460000D01*
X87503000Y-201460000D02*
X89408000Y-201460000D01*
X87426800Y-201460000D02*
X87503000Y-201460000D01*
X69177000Y-201460000D02*
X70000000Y-201460000D01*
X62008000Y-205992000D02*
X64645000Y-205992000D01*
X64645000Y-205992000D02*
X69177000Y-201460000D01*
D24*
X72840000Y-184658000D02*
X72840000Y-188929990D01*
X122840000Y-188995000D02*
X122840000Y-184658000D01*
X122840000Y-184658000D02*
X72840000Y-184658000D01*
X172840000Y-187863630D02*
X172840000Y-188995000D01*
X122840000Y-184658000D02*
X172840000Y-184658000D01*
X172840000Y-184658000D02*
X172840000Y-187863630D01*
X222840000Y-187863630D02*
X222840000Y-188995000D01*
X172840000Y-184658000D02*
X222840000Y-184658000D01*
X222840000Y-184658000D02*
X222840000Y-187863630D01*
X272840000Y-187863630D02*
X272840000Y-188995000D01*
X227330000Y-184658000D02*
X228854000Y-183134000D01*
X222840000Y-184658000D02*
X227330000Y-184658000D01*
X228854000Y-183134000D02*
X264414000Y-183134000D01*
X264414000Y-183134000D02*
X265938000Y-184658000D01*
X265938000Y-184658000D02*
X272840000Y-184658000D01*
X272840000Y-184658000D02*
X272840000Y-187863630D01*
X322840000Y-187863630D02*
X322840000Y-188995000D01*
X272840000Y-184658000D02*
X322840000Y-184658000D01*
X322840000Y-184658000D02*
X322840000Y-187863630D01*
D25*
X291000000Y-224000000D02*
X285496000Y-224000000D01*
X285444000Y-223948000D02*
X285496000Y-224000000D01*
X291000000Y-221700000D02*
X291000000Y-224000000D01*
X291000000Y-216200000D02*
X291000000Y-221700000D01*
X294200000Y-213000000D02*
X291000000Y-216200000D01*
X296000000Y-213000000D02*
X294200000Y-213000000D01*
X161544000Y-214445370D02*
X161544000Y-213314000D01*
X161544000Y-228600000D02*
X161544000Y-214445370D01*
X281432000Y-223948000D02*
X281432000Y-228473000D01*
X281432000Y-228473000D02*
X281305000Y-228600000D01*
X111506000Y-213314000D02*
X111506000Y-228600000D01*
X111506000Y-228600000D02*
X161544000Y-228600000D01*
X211328000Y-214445370D02*
X211328000Y-228600000D01*
X211328000Y-213314000D02*
X211328000Y-214445370D01*
X211328000Y-228600000D02*
X161544000Y-228600000D01*
X281432000Y-223948000D02*
X283464000Y-223948000D01*
X283464000Y-223948000D02*
X285444000Y-223948000D01*
X311404000Y-228600000D02*
X281305000Y-228600000D01*
X311404000Y-213314000D02*
X311404000Y-228600000D01*
X84074000Y-228600000D02*
X111506000Y-228600000D01*
X81534000Y-213314000D02*
X81534000Y-226060000D01*
X81534000Y-226060000D02*
X84074000Y-228600000D01*
X261112000Y-214491370D02*
X261112000Y-228600000D01*
X261112000Y-213360000D02*
X261112000Y-214491370D01*
X281305000Y-228600000D02*
X261112000Y-228600000D01*
X261112000Y-228600000D02*
X211328000Y-228600000D01*
X339598000Y-228600000D02*
X311404000Y-228600000D01*
D24*
X317200000Y-207000000D02*
X320000000Y-207000000D01*
X316000000Y-208200000D02*
X317200000Y-207000000D01*
X316000000Y-224000000D02*
X316000000Y-208200000D01*
D23*
X307340000Y-205694000D02*
X311404000Y-205694000D01*
D24*
X326160000Y-208935000D02*
X322840000Y-205615000D01*
X326160000Y-224000000D02*
X326160000Y-208935000D01*
X276160000Y-208935000D02*
X272840000Y-205615000D01*
X276160000Y-224000000D02*
X276160000Y-208935000D01*
D23*
X261112000Y-205740000D02*
X256540000Y-205740000D01*
D24*
X267200000Y-207000000D02*
X270000000Y-207000000D01*
X266000000Y-208200000D02*
X267200000Y-207000000D01*
X266000000Y-224000000D02*
X266000000Y-208200000D01*
X217200000Y-207000000D02*
X220000000Y-207000000D01*
X216000000Y-208200000D02*
X217200000Y-207000000D01*
X216000000Y-224000000D02*
X216000000Y-208200000D01*
D23*
X207010000Y-205694000D02*
X211328000Y-205694000D01*
D24*
X226160000Y-208935000D02*
X226160000Y-224000000D01*
X222840000Y-205615000D02*
X226160000Y-208935000D01*
X176160000Y-208935000D02*
X176160000Y-224000000D01*
X172840000Y-205615000D02*
X176160000Y-208935000D01*
D23*
X156972000Y-205694000D02*
X161544000Y-205694000D01*
D24*
X166000000Y-208650000D02*
X166000000Y-224000000D01*
X170000000Y-207000000D02*
X167650000Y-207000000D01*
X167650000Y-207000000D02*
X166000000Y-208650000D01*
X117200000Y-207000000D02*
X120000000Y-207000000D01*
X116000000Y-208200000D02*
X117200000Y-207000000D01*
X116000000Y-224000000D02*
X116000000Y-208200000D01*
X126160000Y-208935000D02*
X126160000Y-224000000D01*
X122840000Y-205615000D02*
X126160000Y-208935000D01*
X66000000Y-220700000D02*
X66000000Y-224000000D01*
X66000000Y-208200000D02*
X66000000Y-220700000D01*
X67200000Y-207000000D02*
X66000000Y-208200000D01*
X70000000Y-207000000D02*
X67200000Y-207000000D01*
D23*
X70000000Y-190380000D02*
X81414000Y-190380000D01*
D24*
X76160000Y-208935000D02*
X76160000Y-224000000D01*
X72840000Y-205615000D02*
X76160000Y-208935000D01*
D26*
G36*
X339873000Y-185824429D02*
X262925508Y-185804772D01*
X262876905Y-185814427D01*
X262835696Y-185841947D01*
X262807284Y-185885300D01*
X261595650Y-188966860D01*
X230464381Y-189102622D01*
X229538177Y-186747000D01*
X230405000Y-186747000D01*
X230405000Y-187147000D01*
X230562834Y-187686483D01*
X230915104Y-188124500D01*
X231408181Y-188394367D01*
X231490961Y-188411904D01*
X231713000Y-188289915D01*
X231713000Y-186747000D01*
X231967000Y-186747000D01*
X231967000Y-188289915D01*
X232189039Y-188411904D01*
X232271819Y-188394367D01*
X232764896Y-188124500D01*
X233110000Y-187695393D01*
X233455104Y-188124500D01*
X233948181Y-188394367D01*
X234030961Y-188411904D01*
X234253000Y-188289915D01*
X234253000Y-186747000D01*
X234507000Y-186747000D01*
X234507000Y-188289915D01*
X234729039Y-188411904D01*
X234811819Y-188394367D01*
X235304896Y-188124500D01*
X235650000Y-187695393D01*
X235995104Y-188124500D01*
X236488181Y-188394367D01*
X236570961Y-188411904D01*
X236793000Y-188289915D01*
X236793000Y-186747000D01*
X237047000Y-186747000D01*
X237047000Y-188289915D01*
X237269039Y-188411904D01*
X237351819Y-188394367D01*
X237844896Y-188124500D01*
X238190000Y-187695393D01*
X238535104Y-188124500D01*
X239028181Y-188394367D01*
X239110961Y-188411904D01*
X239333000Y-188289915D01*
X239333000Y-186747000D01*
X239587000Y-186747000D01*
X239587000Y-188289915D01*
X239809039Y-188411904D01*
X239891819Y-188394367D01*
X240384896Y-188124500D01*
X240730000Y-187695393D01*
X241075104Y-188124500D01*
X241568181Y-188394367D01*
X241650961Y-188411904D01*
X241873000Y-188289915D01*
X241873000Y-186747000D01*
X242127000Y-186747000D01*
X242127000Y-188289915D01*
X242349039Y-188411904D01*
X242431819Y-188394367D01*
X242924896Y-188124500D01*
X243277166Y-187686483D01*
X243435000Y-187147000D01*
X243435000Y-186747000D01*
X242127000Y-186747000D01*
X241873000Y-186747000D01*
X239587000Y-186747000D01*
X239333000Y-186747000D01*
X237047000Y-186747000D01*
X236793000Y-186747000D01*
X234507000Y-186747000D01*
X234253000Y-186747000D01*
X231967000Y-186747000D01*
X231713000Y-186747000D01*
X230405000Y-186747000D01*
X229538177Y-186747000D01*
X229281031Y-186093000D01*
X230405000Y-186093000D01*
X230405000Y-186493000D01*
X231713000Y-186493000D01*
X231713000Y-184950085D01*
X231967000Y-184950085D01*
X231967000Y-186493000D01*
X234253000Y-186493000D01*
X234253000Y-184950085D01*
X234507000Y-184950085D01*
X234507000Y-186493000D01*
X236793000Y-186493000D01*
X236793000Y-184950085D01*
X237047000Y-184950085D01*
X237047000Y-186493000D01*
X239333000Y-186493000D01*
X239333000Y-184950085D01*
X239587000Y-184950085D01*
X239587000Y-186493000D01*
X241873000Y-186493000D01*
X241873000Y-184950085D01*
X242127000Y-184950085D01*
X242127000Y-186493000D01*
X243435000Y-186493000D01*
X243435000Y-186093000D01*
X243430807Y-186078667D01*
X248405000Y-186078667D01*
X248405000Y-187161332D01*
X248488260Y-187579908D01*
X248805423Y-188054576D01*
X249280091Y-188371740D01*
X249840000Y-188483113D01*
X250399908Y-188371740D01*
X250874576Y-188054577D01*
X251110000Y-187702241D01*
X251345423Y-188054576D01*
X251820091Y-188371740D01*
X252380000Y-188483113D01*
X252939908Y-188371740D01*
X253414576Y-188054577D01*
X253650000Y-187702241D01*
X253885423Y-188054576D01*
X254360091Y-188371740D01*
X254920000Y-188483113D01*
X255479908Y-188371740D01*
X255954576Y-188054577D01*
X256190000Y-187702241D01*
X256425423Y-188054576D01*
X256900091Y-188371740D01*
X257460000Y-188483113D01*
X258019908Y-188371740D01*
X258494576Y-188054577D01*
X258730000Y-187702241D01*
X258965423Y-188054576D01*
X259440091Y-188371740D01*
X260000000Y-188483113D01*
X260559908Y-188371740D01*
X261034576Y-188054577D01*
X261351740Y-187579909D01*
X261435000Y-187161333D01*
X261435000Y-186078668D01*
X261351740Y-185660091D01*
X261034577Y-185185423D01*
X260559909Y-184868260D01*
X260000000Y-184756887D01*
X259440092Y-184868260D01*
X258965424Y-185185423D01*
X258730000Y-185537759D01*
X258494577Y-185185423D01*
X258019909Y-184868260D01*
X257460000Y-184756887D01*
X256900092Y-184868260D01*
X256425424Y-185185423D01*
X256190000Y-185537759D01*
X255954577Y-185185423D01*
X255479909Y-184868260D01*
X254920000Y-184756887D01*
X254360092Y-184868260D01*
X253885424Y-185185423D01*
X253650000Y-185537759D01*
X253414577Y-185185423D01*
X252939909Y-184868260D01*
X252380000Y-184756887D01*
X251820092Y-184868260D01*
X251345424Y-185185423D01*
X251110000Y-185537759D01*
X250874577Y-185185423D01*
X250399909Y-184868260D01*
X249840000Y-184756887D01*
X249280092Y-184868260D01*
X248805424Y-185185423D01*
X248488260Y-185660091D01*
X248405000Y-186078667D01*
X243430807Y-186078667D01*
X243277166Y-185553517D01*
X242924896Y-185115500D01*
X242431819Y-184845633D01*
X242349039Y-184828096D01*
X242127000Y-184950085D01*
X241873000Y-184950085D01*
X241650961Y-184828096D01*
X241568181Y-184845633D01*
X241075104Y-185115500D01*
X240730000Y-185544607D01*
X240384896Y-185115500D01*
X239891819Y-184845633D01*
X239809039Y-184828096D01*
X239587000Y-184950085D01*
X239333000Y-184950085D01*
X239110961Y-184828096D01*
X239028181Y-184845633D01*
X238535104Y-185115500D01*
X238190000Y-185544607D01*
X237844896Y-185115500D01*
X237351819Y-184845633D01*
X237269039Y-184828096D01*
X237047000Y-184950085D01*
X236793000Y-184950085D01*
X236570961Y-184828096D01*
X236488181Y-184845633D01*
X235995104Y-185115500D01*
X235650000Y-185544607D01*
X235304896Y-185115500D01*
X234811819Y-184845633D01*
X234729039Y-184828096D01*
X234507000Y-184950085D01*
X234253000Y-184950085D01*
X234030961Y-184828096D01*
X233948181Y-184845633D01*
X233455104Y-185115500D01*
X233110000Y-185544607D01*
X232764896Y-185115500D01*
X232271819Y-184845633D01*
X232189039Y-184828096D01*
X231967000Y-184950085D01*
X231713000Y-184950085D01*
X231490961Y-184828096D01*
X231408181Y-184845633D01*
X230915104Y-185115500D01*
X230562834Y-185553517D01*
X230405000Y-186093000D01*
X229281031Y-186093000D01*
X229226192Y-185953528D01*
X229199411Y-185911835D01*
X229158714Y-185883565D01*
X229108000Y-185873000D01*
X60710000Y-185873000D01*
X60710000Y-180130866D01*
X68785000Y-180130866D01*
X68785000Y-181179134D01*
X69186155Y-182147608D01*
X69927392Y-182888845D01*
X70895866Y-183290000D01*
X71944134Y-183290000D01*
X72912608Y-182888845D01*
X73653845Y-182147608D01*
X74055000Y-181179134D01*
X74055000Y-180130866D01*
X118785000Y-180130866D01*
X118785000Y-181179134D01*
X119186155Y-182147608D01*
X119927392Y-182888845D01*
X120895866Y-183290000D01*
X121944134Y-183290000D01*
X122912608Y-182888845D01*
X123653845Y-182147608D01*
X123758167Y-181895750D01*
X145177000Y-181895750D01*
X145177000Y-182736309D01*
X145273673Y-182969698D01*
X145452301Y-183148327D01*
X145685690Y-183245000D01*
X146526250Y-183245000D01*
X146685000Y-183086250D01*
X146685000Y-181737000D01*
X146939000Y-181737000D01*
X146939000Y-183086250D01*
X147097750Y-183245000D01*
X147938310Y-183245000D01*
X148171699Y-183148327D01*
X148350327Y-182969698D01*
X148447000Y-182736309D01*
X148447000Y-181895750D01*
X148288250Y-181737000D01*
X146939000Y-181737000D01*
X146685000Y-181737000D01*
X145335750Y-181737000D01*
X145177000Y-181895750D01*
X123758167Y-181895750D01*
X124055000Y-181179134D01*
X124055000Y-180483691D01*
X145177000Y-180483691D01*
X145177000Y-181324250D01*
X145335750Y-181483000D01*
X146685000Y-181483000D01*
X146685000Y-180133750D01*
X146939000Y-180133750D01*
X146939000Y-181483000D01*
X148288250Y-181483000D01*
X148447000Y-181324250D01*
X148447000Y-180483691D01*
X148350327Y-180250302D01*
X148230892Y-180130866D01*
X168785000Y-180130866D01*
X168785000Y-181179134D01*
X169186155Y-182147608D01*
X169927392Y-182888845D01*
X170895866Y-183290000D01*
X171944134Y-183290000D01*
X172912608Y-182888845D01*
X173653845Y-182147608D01*
X174055000Y-181179134D01*
X174055000Y-180130866D01*
X218785000Y-180130866D01*
X218785000Y-181179134D01*
X219186155Y-182147608D01*
X219927392Y-182888845D01*
X220895866Y-183290000D01*
X221944134Y-183290000D01*
X222912608Y-182888845D01*
X223653845Y-182147608D01*
X224055000Y-181179134D01*
X224055000Y-180130866D01*
X223653845Y-179162392D01*
X223618453Y-179127000D01*
X230405000Y-179127000D01*
X230405000Y-179527000D01*
X230562834Y-180066483D01*
X230915104Y-180504500D01*
X231408181Y-180774367D01*
X231490961Y-180791904D01*
X231713000Y-180669915D01*
X231713000Y-179127000D01*
X231967000Y-179127000D01*
X231967000Y-180669915D01*
X232189039Y-180791904D01*
X232271819Y-180774367D01*
X232764896Y-180504500D01*
X233110000Y-180075393D01*
X233455104Y-180504500D01*
X233948181Y-180774367D01*
X234030961Y-180791904D01*
X234253000Y-180669915D01*
X234253000Y-179127000D01*
X234507000Y-179127000D01*
X234507000Y-180669915D01*
X234729039Y-180791904D01*
X234811819Y-180774367D01*
X235304896Y-180504500D01*
X235650000Y-180075393D01*
X235995104Y-180504500D01*
X236488181Y-180774367D01*
X236570961Y-180791904D01*
X236793000Y-180669915D01*
X236793000Y-179127000D01*
X237047000Y-179127000D01*
X237047000Y-180669915D01*
X237269039Y-180791904D01*
X237351819Y-180774367D01*
X237844896Y-180504500D01*
X238190000Y-180075393D01*
X238535104Y-180504500D01*
X239028181Y-180774367D01*
X239110961Y-180791904D01*
X239333000Y-180669915D01*
X239333000Y-179127000D01*
X239587000Y-179127000D01*
X239587000Y-180669915D01*
X239809039Y-180791904D01*
X239891819Y-180774367D01*
X240384896Y-180504500D01*
X240730000Y-180075393D01*
X241075104Y-180504500D01*
X241568181Y-180774367D01*
X241650961Y-180791904D01*
X241873000Y-180669915D01*
X241873000Y-179127000D01*
X242127000Y-179127000D01*
X242127000Y-180669915D01*
X242349039Y-180791904D01*
X242431819Y-180774367D01*
X242924896Y-180504500D01*
X243277166Y-180066483D01*
X243435000Y-179527000D01*
X243435000Y-179127000D01*
X242127000Y-179127000D01*
X241873000Y-179127000D01*
X239587000Y-179127000D01*
X239333000Y-179127000D01*
X237047000Y-179127000D01*
X236793000Y-179127000D01*
X234507000Y-179127000D01*
X234253000Y-179127000D01*
X231967000Y-179127000D01*
X231713000Y-179127000D01*
X230405000Y-179127000D01*
X223618453Y-179127000D01*
X222964453Y-178473000D01*
X230405000Y-178473000D01*
X230405000Y-178873000D01*
X231713000Y-178873000D01*
X231713000Y-177330085D01*
X231967000Y-177330085D01*
X231967000Y-178873000D01*
X234253000Y-178873000D01*
X234253000Y-177330085D01*
X234507000Y-177330085D01*
X234507000Y-178873000D01*
X236793000Y-178873000D01*
X236793000Y-177330085D01*
X237047000Y-177330085D01*
X237047000Y-178873000D01*
X239333000Y-178873000D01*
X239333000Y-177330085D01*
X239587000Y-177330085D01*
X239587000Y-178873000D01*
X241873000Y-178873000D01*
X241873000Y-177330085D01*
X242127000Y-177330085D01*
X242127000Y-178873000D01*
X243435000Y-178873000D01*
X243435000Y-178473000D01*
X243430807Y-178458667D01*
X248405000Y-178458667D01*
X248405000Y-179541332D01*
X248488260Y-179959908D01*
X248805423Y-180434576D01*
X249280091Y-180751740D01*
X249840000Y-180863113D01*
X250399908Y-180751740D01*
X250874576Y-180434577D01*
X251110000Y-180082241D01*
X251345423Y-180434576D01*
X251820091Y-180751740D01*
X252380000Y-180863113D01*
X252939908Y-180751740D01*
X253414576Y-180434577D01*
X253650000Y-180082241D01*
X253885423Y-180434576D01*
X254360091Y-180751740D01*
X254920000Y-180863113D01*
X255479908Y-180751740D01*
X255954576Y-180434577D01*
X256190000Y-180082241D01*
X256425423Y-180434576D01*
X256900091Y-180751740D01*
X257460000Y-180863113D01*
X258019908Y-180751740D01*
X258494576Y-180434577D01*
X258730000Y-180082241D01*
X258965423Y-180434576D01*
X259440091Y-180751740D01*
X260000000Y-180863113D01*
X260559908Y-180751740D01*
X261034576Y-180434577D01*
X261237509Y-180130866D01*
X268785000Y-180130866D01*
X268785000Y-181179134D01*
X269186155Y-182147608D01*
X269927392Y-182888845D01*
X270895866Y-183290000D01*
X271944134Y-183290000D01*
X272912608Y-182888845D01*
X273653845Y-182147608D01*
X274055000Y-181179134D01*
X274055000Y-180130866D01*
X318785000Y-180130866D01*
X318785000Y-181179134D01*
X319186155Y-182147608D01*
X319927392Y-182888845D01*
X320895866Y-183290000D01*
X321944134Y-183290000D01*
X322912608Y-182888845D01*
X323653845Y-182147608D01*
X324055000Y-181179134D01*
X324055000Y-180130866D01*
X323653845Y-179162392D01*
X322912608Y-178421155D01*
X321944134Y-178020000D01*
X320895866Y-178020000D01*
X319927392Y-178421155D01*
X319186155Y-179162392D01*
X318785000Y-180130866D01*
X274055000Y-180130866D01*
X273653845Y-179162392D01*
X272912608Y-178421155D01*
X271944134Y-178020000D01*
X270895866Y-178020000D01*
X269927392Y-178421155D01*
X269186155Y-179162392D01*
X268785000Y-180130866D01*
X261237509Y-180130866D01*
X261351740Y-179959909D01*
X261435000Y-179541333D01*
X261435000Y-178458668D01*
X261351740Y-178040091D01*
X261034577Y-177565423D01*
X260559909Y-177248260D01*
X260000000Y-177136887D01*
X259440092Y-177248260D01*
X258965424Y-177565423D01*
X258730000Y-177917759D01*
X258494577Y-177565423D01*
X258019909Y-177248260D01*
X257460000Y-177136887D01*
X256900092Y-177248260D01*
X256425424Y-177565423D01*
X256190000Y-177917759D01*
X255954577Y-177565423D01*
X255479909Y-177248260D01*
X254920000Y-177136887D01*
X254360092Y-177248260D01*
X253885424Y-177565423D01*
X253650000Y-177917759D01*
X253414577Y-177565423D01*
X252939909Y-177248260D01*
X252380000Y-177136887D01*
X251820092Y-177248260D01*
X251345424Y-177565423D01*
X251110000Y-177917759D01*
X250874577Y-177565423D01*
X250399909Y-177248260D01*
X249840000Y-177136887D01*
X249280092Y-177248260D01*
X248805424Y-177565423D01*
X248488260Y-178040091D01*
X248405000Y-178458667D01*
X243430807Y-178458667D01*
X243277166Y-177933517D01*
X242924896Y-177495500D01*
X242431819Y-177225633D01*
X242349039Y-177208096D01*
X242127000Y-177330085D01*
X241873000Y-177330085D01*
X241650961Y-177208096D01*
X241568181Y-177225633D01*
X241075104Y-177495500D01*
X240730000Y-177924607D01*
X240384896Y-177495500D01*
X239891819Y-177225633D01*
X239809039Y-177208096D01*
X239587000Y-177330085D01*
X239333000Y-177330085D01*
X239110961Y-177208096D01*
X239028181Y-177225633D01*
X238535104Y-177495500D01*
X238190000Y-177924607D01*
X237844896Y-177495500D01*
X237351819Y-177225633D01*
X237269039Y-177208096D01*
X237047000Y-177330085D01*
X236793000Y-177330085D01*
X236570961Y-177208096D01*
X236488181Y-177225633D01*
X235995104Y-177495500D01*
X235650000Y-177924607D01*
X235304896Y-177495500D01*
X234811819Y-177225633D01*
X234729039Y-177208096D01*
X234507000Y-177330085D01*
X234253000Y-177330085D01*
X234030961Y-177208096D01*
X233948181Y-177225633D01*
X233455104Y-177495500D01*
X233110000Y-177924607D01*
X232764896Y-177495500D01*
X232271819Y-177225633D01*
X232189039Y-177208096D01*
X231967000Y-177330085D01*
X231713000Y-177330085D01*
X231490961Y-177208096D01*
X231408181Y-177225633D01*
X230915104Y-177495500D01*
X230562834Y-177933517D01*
X230405000Y-178473000D01*
X222964453Y-178473000D01*
X222912608Y-178421155D01*
X221944134Y-178020000D01*
X220895866Y-178020000D01*
X219927392Y-178421155D01*
X219186155Y-179162392D01*
X218785000Y-180130866D01*
X174055000Y-180130866D01*
X173653845Y-179162392D01*
X172912608Y-178421155D01*
X171944134Y-178020000D01*
X170895866Y-178020000D01*
X169927392Y-178421155D01*
X169186155Y-179162392D01*
X168785000Y-180130866D01*
X148230892Y-180130866D01*
X148171699Y-180071673D01*
X147938310Y-179975000D01*
X147097750Y-179975000D01*
X146939000Y-180133750D01*
X146685000Y-180133750D01*
X146526250Y-179975000D01*
X145685690Y-179975000D01*
X145452301Y-180071673D01*
X145273673Y-180250302D01*
X145177000Y-180483691D01*
X124055000Y-180483691D01*
X124055000Y-180130866D01*
X123653845Y-179162392D01*
X122912608Y-178421155D01*
X121944134Y-178020000D01*
X120895866Y-178020000D01*
X119927392Y-178421155D01*
X119186155Y-179162392D01*
X118785000Y-180130866D01*
X74055000Y-180130866D01*
X73653845Y-179162392D01*
X72912608Y-178421155D01*
X71944134Y-178020000D01*
X70895866Y-178020000D01*
X69927392Y-178421155D01*
X69186155Y-179162392D01*
X68785000Y-180130866D01*
X60710000Y-180130866D01*
X60710000Y-176710000D01*
X339873000Y-176710000D01*
X339873000Y-185824429D01*
X339873000Y-185824429D01*
G37*
X339873000Y-185824429D02*
X262925508Y-185804772D01*
X262876905Y-185814427D01*
X262835696Y-185841947D01*
X262807284Y-185885300D01*
X261595650Y-188966860D01*
X230464381Y-189102622D01*
X229538177Y-186747000D01*
X230405000Y-186747000D01*
X230405000Y-187147000D01*
X230562834Y-187686483D01*
X230915104Y-188124500D01*
X231408181Y-188394367D01*
X231490961Y-188411904D01*
X231713000Y-188289915D01*
X231713000Y-186747000D01*
X231967000Y-186747000D01*
X231967000Y-188289915D01*
X232189039Y-188411904D01*
X232271819Y-188394367D01*
X232764896Y-188124500D01*
X233110000Y-187695393D01*
X233455104Y-188124500D01*
X233948181Y-188394367D01*
X234030961Y-188411904D01*
X234253000Y-188289915D01*
X234253000Y-186747000D01*
X234507000Y-186747000D01*
X234507000Y-188289915D01*
X234729039Y-188411904D01*
X234811819Y-188394367D01*
X235304896Y-188124500D01*
X235650000Y-187695393D01*
X235995104Y-188124500D01*
X236488181Y-188394367D01*
X236570961Y-188411904D01*
X236793000Y-188289915D01*
X236793000Y-186747000D01*
X237047000Y-186747000D01*
X237047000Y-188289915D01*
X237269039Y-188411904D01*
X237351819Y-188394367D01*
X237844896Y-188124500D01*
X238190000Y-187695393D01*
X238535104Y-188124500D01*
X239028181Y-188394367D01*
X239110961Y-188411904D01*
X239333000Y-188289915D01*
X239333000Y-186747000D01*
X239587000Y-186747000D01*
X239587000Y-188289915D01*
X239809039Y-188411904D01*
X239891819Y-188394367D01*
X240384896Y-188124500D01*
X240730000Y-187695393D01*
X241075104Y-188124500D01*
X241568181Y-188394367D01*
X241650961Y-188411904D01*
X241873000Y-188289915D01*
X241873000Y-186747000D01*
X242127000Y-186747000D01*
X242127000Y-188289915D01*
X242349039Y-188411904D01*
X242431819Y-188394367D01*
X242924896Y-188124500D01*
X243277166Y-187686483D01*
X243435000Y-187147000D01*
X243435000Y-186747000D01*
X242127000Y-186747000D01*
X241873000Y-186747000D01*
X239587000Y-186747000D01*
X239333000Y-186747000D01*
X237047000Y-186747000D01*
X236793000Y-186747000D01*
X234507000Y-186747000D01*
X234253000Y-186747000D01*
X231967000Y-186747000D01*
X231713000Y-186747000D01*
X230405000Y-186747000D01*
X229538177Y-186747000D01*
X229281031Y-186093000D01*
X230405000Y-186093000D01*
X230405000Y-186493000D01*
X231713000Y-186493000D01*
X231713000Y-184950085D01*
X231967000Y-184950085D01*
X231967000Y-186493000D01*
X234253000Y-186493000D01*
X234253000Y-184950085D01*
X234507000Y-184950085D01*
X234507000Y-186493000D01*
X236793000Y-186493000D01*
X236793000Y-184950085D01*
X237047000Y-184950085D01*
X237047000Y-186493000D01*
X239333000Y-186493000D01*
X239333000Y-184950085D01*
X239587000Y-184950085D01*
X239587000Y-186493000D01*
X241873000Y-186493000D01*
X241873000Y-184950085D01*
X242127000Y-184950085D01*
X242127000Y-186493000D01*
X243435000Y-186493000D01*
X243435000Y-186093000D01*
X243430807Y-186078667D01*
X248405000Y-186078667D01*
X248405000Y-187161332D01*
X248488260Y-187579908D01*
X248805423Y-188054576D01*
X249280091Y-188371740D01*
X249840000Y-188483113D01*
X250399908Y-188371740D01*
X250874576Y-188054577D01*
X251110000Y-187702241D01*
X251345423Y-188054576D01*
X251820091Y-188371740D01*
X252380000Y-188483113D01*
X252939908Y-188371740D01*
X253414576Y-188054577D01*
X253650000Y-187702241D01*
X253885423Y-188054576D01*
X254360091Y-188371740D01*
X254920000Y-188483113D01*
X255479908Y-188371740D01*
X255954576Y-188054577D01*
X256190000Y-187702241D01*
X256425423Y-188054576D01*
X256900091Y-188371740D01*
X257460000Y-188483113D01*
X258019908Y-188371740D01*
X258494576Y-188054577D01*
X258730000Y-187702241D01*
X258965423Y-188054576D01*
X259440091Y-188371740D01*
X260000000Y-188483113D01*
X260559908Y-188371740D01*
X261034576Y-188054577D01*
X261351740Y-187579909D01*
X261435000Y-187161333D01*
X261435000Y-186078668D01*
X261351740Y-185660091D01*
X261034577Y-185185423D01*
X260559909Y-184868260D01*
X260000000Y-184756887D01*
X259440092Y-184868260D01*
X258965424Y-185185423D01*
X258730000Y-185537759D01*
X258494577Y-185185423D01*
X258019909Y-184868260D01*
X257460000Y-184756887D01*
X256900092Y-184868260D01*
X256425424Y-185185423D01*
X256190000Y-185537759D01*
X255954577Y-185185423D01*
X255479909Y-184868260D01*
X254920000Y-184756887D01*
X254360092Y-184868260D01*
X253885424Y-185185423D01*
X253650000Y-185537759D01*
X253414577Y-185185423D01*
X252939909Y-184868260D01*
X252380000Y-184756887D01*
X251820092Y-184868260D01*
X251345424Y-185185423D01*
X251110000Y-185537759D01*
X250874577Y-185185423D01*
X250399909Y-184868260D01*
X249840000Y-184756887D01*
X249280092Y-184868260D01*
X248805424Y-185185423D01*
X248488260Y-185660091D01*
X248405000Y-186078667D01*
X243430807Y-186078667D01*
X243277166Y-185553517D01*
X242924896Y-185115500D01*
X242431819Y-184845633D01*
X242349039Y-184828096D01*
X242127000Y-184950085D01*
X241873000Y-184950085D01*
X241650961Y-184828096D01*
X241568181Y-184845633D01*
X241075104Y-185115500D01*
X240730000Y-185544607D01*
X240384896Y-185115500D01*
X239891819Y-184845633D01*
X239809039Y-184828096D01*
X239587000Y-184950085D01*
X239333000Y-184950085D01*
X239110961Y-184828096D01*
X239028181Y-184845633D01*
X238535104Y-185115500D01*
X238190000Y-185544607D01*
X237844896Y-185115500D01*
X237351819Y-184845633D01*
X237269039Y-184828096D01*
X237047000Y-184950085D01*
X236793000Y-184950085D01*
X236570961Y-184828096D01*
X236488181Y-184845633D01*
X235995104Y-185115500D01*
X235650000Y-185544607D01*
X235304896Y-185115500D01*
X234811819Y-184845633D01*
X234729039Y-184828096D01*
X234507000Y-184950085D01*
X234253000Y-184950085D01*
X234030961Y-184828096D01*
X233948181Y-184845633D01*
X233455104Y-185115500D01*
X233110000Y-185544607D01*
X232764896Y-185115500D01*
X232271819Y-184845633D01*
X232189039Y-184828096D01*
X231967000Y-184950085D01*
X231713000Y-184950085D01*
X231490961Y-184828096D01*
X231408181Y-184845633D01*
X230915104Y-185115500D01*
X230562834Y-185553517D01*
X230405000Y-186093000D01*
X229281031Y-186093000D01*
X229226192Y-185953528D01*
X229199411Y-185911835D01*
X229158714Y-185883565D01*
X229108000Y-185873000D01*
X60710000Y-185873000D01*
X60710000Y-180130866D01*
X68785000Y-180130866D01*
X68785000Y-181179134D01*
X69186155Y-182147608D01*
X69927392Y-182888845D01*
X70895866Y-183290000D01*
X71944134Y-183290000D01*
X72912608Y-182888845D01*
X73653845Y-182147608D01*
X74055000Y-181179134D01*
X74055000Y-180130866D01*
X118785000Y-180130866D01*
X118785000Y-181179134D01*
X119186155Y-182147608D01*
X119927392Y-182888845D01*
X120895866Y-183290000D01*
X121944134Y-183290000D01*
X122912608Y-182888845D01*
X123653845Y-182147608D01*
X123758167Y-181895750D01*
X145177000Y-181895750D01*
X145177000Y-182736309D01*
X145273673Y-182969698D01*
X145452301Y-183148327D01*
X145685690Y-183245000D01*
X146526250Y-183245000D01*
X146685000Y-183086250D01*
X146685000Y-181737000D01*
X146939000Y-181737000D01*
X146939000Y-183086250D01*
X147097750Y-183245000D01*
X147938310Y-183245000D01*
X148171699Y-183148327D01*
X148350327Y-182969698D01*
X148447000Y-182736309D01*
X148447000Y-181895750D01*
X148288250Y-181737000D01*
X146939000Y-181737000D01*
X146685000Y-181737000D01*
X145335750Y-181737000D01*
X145177000Y-181895750D01*
X123758167Y-181895750D01*
X124055000Y-181179134D01*
X124055000Y-180483691D01*
X145177000Y-180483691D01*
X145177000Y-181324250D01*
X145335750Y-181483000D01*
X146685000Y-181483000D01*
X146685000Y-180133750D01*
X146939000Y-180133750D01*
X146939000Y-181483000D01*
X148288250Y-181483000D01*
X148447000Y-181324250D01*
X148447000Y-180483691D01*
X148350327Y-180250302D01*
X148230892Y-180130866D01*
X168785000Y-180130866D01*
X168785000Y-181179134D01*
X169186155Y-182147608D01*
X169927392Y-182888845D01*
X170895866Y-183290000D01*
X171944134Y-183290000D01*
X172912608Y-182888845D01*
X173653845Y-182147608D01*
X174055000Y-181179134D01*
X174055000Y-180130866D01*
X218785000Y-180130866D01*
X218785000Y-181179134D01*
X219186155Y-182147608D01*
X219927392Y-182888845D01*
X220895866Y-183290000D01*
X221944134Y-183290000D01*
X222912608Y-182888845D01*
X223653845Y-182147608D01*
X224055000Y-181179134D01*
X224055000Y-180130866D01*
X223653845Y-179162392D01*
X223618453Y-179127000D01*
X230405000Y-179127000D01*
X230405000Y-179527000D01*
X230562834Y-180066483D01*
X230915104Y-180504500D01*
X231408181Y-180774367D01*
X231490961Y-180791904D01*
X231713000Y-180669915D01*
X231713000Y-179127000D01*
X231967000Y-179127000D01*
X231967000Y-180669915D01*
X232189039Y-180791904D01*
X232271819Y-180774367D01*
X232764896Y-180504500D01*
X233110000Y-180075393D01*
X233455104Y-180504500D01*
X233948181Y-180774367D01*
X234030961Y-180791904D01*
X234253000Y-180669915D01*
X234253000Y-179127000D01*
X234507000Y-179127000D01*
X234507000Y-180669915D01*
X234729039Y-180791904D01*
X234811819Y-180774367D01*
X235304896Y-180504500D01*
X235650000Y-180075393D01*
X235995104Y-180504500D01*
X236488181Y-180774367D01*
X236570961Y-180791904D01*
X236793000Y-180669915D01*
X236793000Y-179127000D01*
X237047000Y-179127000D01*
X237047000Y-180669915D01*
X237269039Y-180791904D01*
X237351819Y-180774367D01*
X237844896Y-180504500D01*
X238190000Y-180075393D01*
X238535104Y-180504500D01*
X239028181Y-180774367D01*
X239110961Y-180791904D01*
X239333000Y-180669915D01*
X239333000Y-179127000D01*
X239587000Y-179127000D01*
X239587000Y-180669915D01*
X239809039Y-180791904D01*
X239891819Y-180774367D01*
X240384896Y-180504500D01*
X240730000Y-180075393D01*
X241075104Y-180504500D01*
X241568181Y-180774367D01*
X241650961Y-180791904D01*
X241873000Y-180669915D01*
X241873000Y-179127000D01*
X242127000Y-179127000D01*
X242127000Y-180669915D01*
X242349039Y-180791904D01*
X242431819Y-180774367D01*
X242924896Y-180504500D01*
X243277166Y-180066483D01*
X243435000Y-179527000D01*
X243435000Y-179127000D01*
X242127000Y-179127000D01*
X241873000Y-179127000D01*
X239587000Y-179127000D01*
X239333000Y-179127000D01*
X237047000Y-179127000D01*
X236793000Y-179127000D01*
X234507000Y-179127000D01*
X234253000Y-179127000D01*
X231967000Y-179127000D01*
X231713000Y-179127000D01*
X230405000Y-179127000D01*
X223618453Y-179127000D01*
X222964453Y-178473000D01*
X230405000Y-178473000D01*
X230405000Y-178873000D01*
X231713000Y-178873000D01*
X231713000Y-177330085D01*
X231967000Y-177330085D01*
X231967000Y-178873000D01*
X234253000Y-178873000D01*
X234253000Y-177330085D01*
X234507000Y-177330085D01*
X234507000Y-178873000D01*
X236793000Y-178873000D01*
X236793000Y-177330085D01*
X237047000Y-177330085D01*
X237047000Y-178873000D01*
X239333000Y-178873000D01*
X239333000Y-177330085D01*
X239587000Y-177330085D01*
X239587000Y-178873000D01*
X241873000Y-178873000D01*
X241873000Y-177330085D01*
X242127000Y-177330085D01*
X242127000Y-178873000D01*
X243435000Y-178873000D01*
X243435000Y-178473000D01*
X243430807Y-178458667D01*
X248405000Y-178458667D01*
X248405000Y-179541332D01*
X248488260Y-179959908D01*
X248805423Y-180434576D01*
X249280091Y-180751740D01*
X249840000Y-180863113D01*
X250399908Y-180751740D01*
X250874576Y-180434577D01*
X251110000Y-180082241D01*
X251345423Y-180434576D01*
X251820091Y-180751740D01*
X252380000Y-180863113D01*
X252939908Y-180751740D01*
X253414576Y-180434577D01*
X253650000Y-180082241D01*
X253885423Y-180434576D01*
X254360091Y-180751740D01*
X254920000Y-180863113D01*
X255479908Y-180751740D01*
X255954576Y-180434577D01*
X256190000Y-180082241D01*
X256425423Y-180434576D01*
X256900091Y-180751740D01*
X257460000Y-180863113D01*
X258019908Y-180751740D01*
X258494576Y-180434577D01*
X258730000Y-180082241D01*
X258965423Y-180434576D01*
X259440091Y-180751740D01*
X260000000Y-180863113D01*
X260559908Y-180751740D01*
X261034576Y-180434577D01*
X261237509Y-180130866D01*
X268785000Y-180130866D01*
X268785000Y-181179134D01*
X269186155Y-182147608D01*
X269927392Y-182888845D01*
X270895866Y-183290000D01*
X271944134Y-183290000D01*
X272912608Y-182888845D01*
X273653845Y-182147608D01*
X274055000Y-181179134D01*
X274055000Y-180130866D01*
X318785000Y-180130866D01*
X318785000Y-181179134D01*
X319186155Y-182147608D01*
X319927392Y-182888845D01*
X320895866Y-183290000D01*
X321944134Y-183290000D01*
X322912608Y-182888845D01*
X323653845Y-182147608D01*
X324055000Y-181179134D01*
X324055000Y-180130866D01*
X323653845Y-179162392D01*
X322912608Y-178421155D01*
X321944134Y-178020000D01*
X320895866Y-178020000D01*
X319927392Y-178421155D01*
X319186155Y-179162392D01*
X318785000Y-180130866D01*
X274055000Y-180130866D01*
X273653845Y-179162392D01*
X272912608Y-178421155D01*
X271944134Y-178020000D01*
X270895866Y-178020000D01*
X269927392Y-178421155D01*
X269186155Y-179162392D01*
X268785000Y-180130866D01*
X261237509Y-180130866D01*
X261351740Y-179959909D01*
X261435000Y-179541333D01*
X261435000Y-178458668D01*
X261351740Y-178040091D01*
X261034577Y-177565423D01*
X260559909Y-177248260D01*
X260000000Y-177136887D01*
X259440092Y-177248260D01*
X258965424Y-177565423D01*
X258730000Y-177917759D01*
X258494577Y-177565423D01*
X258019909Y-177248260D01*
X257460000Y-177136887D01*
X256900092Y-177248260D01*
X256425424Y-177565423D01*
X256190000Y-177917759D01*
X255954577Y-177565423D01*
X255479909Y-177248260D01*
X254920000Y-177136887D01*
X254360092Y-177248260D01*
X253885424Y-177565423D01*
X253650000Y-177917759D01*
X253414577Y-177565423D01*
X252939909Y-177248260D01*
X252380000Y-177136887D01*
X251820092Y-177248260D01*
X251345424Y-177565423D01*
X251110000Y-177917759D01*
X250874577Y-177565423D01*
X250399909Y-177248260D01*
X249840000Y-177136887D01*
X249280092Y-177248260D01*
X248805424Y-177565423D01*
X248488260Y-178040091D01*
X248405000Y-178458667D01*
X243430807Y-178458667D01*
X243277166Y-177933517D01*
X242924896Y-177495500D01*
X242431819Y-177225633D01*
X242349039Y-177208096D01*
X242127000Y-177330085D01*
X241873000Y-177330085D01*
X241650961Y-177208096D01*
X241568181Y-177225633D01*
X241075104Y-177495500D01*
X240730000Y-177924607D01*
X240384896Y-177495500D01*
X239891819Y-177225633D01*
X239809039Y-177208096D01*
X239587000Y-177330085D01*
X239333000Y-177330085D01*
X239110961Y-177208096D01*
X239028181Y-177225633D01*
X238535104Y-177495500D01*
X238190000Y-177924607D01*
X237844896Y-177495500D01*
X237351819Y-177225633D01*
X237269039Y-177208096D01*
X237047000Y-177330085D01*
X236793000Y-177330085D01*
X236570961Y-177208096D01*
X236488181Y-177225633D01*
X235995104Y-177495500D01*
X235650000Y-177924607D01*
X235304896Y-177495500D01*
X234811819Y-177225633D01*
X234729039Y-177208096D01*
X234507000Y-177330085D01*
X234253000Y-177330085D01*
X234030961Y-177208096D01*
X233948181Y-177225633D01*
X233455104Y-177495500D01*
X233110000Y-177924607D01*
X232764896Y-177495500D01*
X232271819Y-177225633D01*
X232189039Y-177208096D01*
X231967000Y-177330085D01*
X231713000Y-177330085D01*
X231490961Y-177208096D01*
X231408181Y-177225633D01*
X230915104Y-177495500D01*
X230562834Y-177933517D01*
X230405000Y-178473000D01*
X222964453Y-178473000D01*
X222912608Y-178421155D01*
X221944134Y-178020000D01*
X220895866Y-178020000D01*
X219927392Y-178421155D01*
X219186155Y-179162392D01*
X218785000Y-180130866D01*
X174055000Y-180130866D01*
X173653845Y-179162392D01*
X172912608Y-178421155D01*
X171944134Y-178020000D01*
X170895866Y-178020000D01*
X169927392Y-178421155D01*
X169186155Y-179162392D01*
X168785000Y-180130866D01*
X148230892Y-180130866D01*
X148171699Y-180071673D01*
X147938310Y-179975000D01*
X147097750Y-179975000D01*
X146939000Y-180133750D01*
X146685000Y-180133750D01*
X146526250Y-179975000D01*
X145685690Y-179975000D01*
X145452301Y-180071673D01*
X145273673Y-180250302D01*
X145177000Y-180483691D01*
X124055000Y-180483691D01*
X124055000Y-180130866D01*
X123653845Y-179162392D01*
X122912608Y-178421155D01*
X121944134Y-178020000D01*
X120895866Y-178020000D01*
X119927392Y-178421155D01*
X119186155Y-179162392D01*
X118785000Y-180130866D01*
X74055000Y-180130866D01*
X73653845Y-179162392D01*
X72912608Y-178421155D01*
X71944134Y-178020000D01*
X70895866Y-178020000D01*
X69927392Y-178421155D01*
X69186155Y-179162392D01*
X68785000Y-180130866D01*
X60710000Y-180130866D01*
X60710000Y-176710000D01*
X339873000Y-176710000D01*
X339873000Y-185824429D01*
M02*
