M48
;DRILL file {KiCad (5.0.0-rc2-dev-444-g2974a2c10)} date 06/15/18 13:24:26
;FORMAT={-:-/ absolute / inch / decimal}
FMAT,2
INCH,TZ
T1C0.0236
T2C0.0315
T3C0.0394
T4C0.0400
T5C0.0512
T6C0.1260
%
G90
G05
M72
T1
X3.2053Y-7.4953
X3.445Y-7.9315
X3.53Y-7.877
X3.62Y-7.8224
X3.72Y-7.7679
X3.82Y-7.7134
X3.92Y-7.6589
X4.02Y-7.6043
X4.12Y-7.5498
T2
X8.15Y-8.0982
X8.15Y-8.3982
X3.37Y-8.0982
X3.37Y-8.3982
X12.26Y-8.0982
X12.26Y-8.3982
X6.18Y-8.0982
X6.18Y-8.3982
X11.08Y-8.62
X11.08Y-8.8169
X10.28Y-8.1
X10.28Y-8.4
X4.23Y-8.0982
X4.23Y-8.3982
X8.32Y-8.0982
X8.32Y-8.3982
X6.36Y-8.0982
X6.36Y-8.3982
X11.24Y-8.622
X11.24Y-8.8189
X12.1Y-8.0982
X12.1Y-8.3982
X4.39Y-8.0982
X4.39Y-8.3982
X11.6535Y-8.2874
X11.6535Y-8.3858
X3.21Y-8.0982
X3.21Y-8.3982
X10.1181Y-8.1
X10.1181Y-8.4
T3
X6.6929Y-7.3862
X6.6929Y-7.4953
X6.6929Y-7.6043
X6.6929Y-7.7134
X6.6929Y-7.8224
X6.6929Y-7.9315
X6.6929Y-8.0406
X6.6929Y-8.1496
X6.8047Y-7.4407
X6.8047Y-7.5498
X6.8047Y-7.6589
X6.8047Y-7.7679
X6.8047Y-7.877
X6.8047Y-7.986
X6.8047Y-8.0951
X9.8362Y-7.0472
X9.8362Y-7.3472
X9.9362Y-7.0472
X9.9362Y-7.3472
X10.0362Y-7.0472
X10.0362Y-7.3472
X10.1362Y-7.0472
X10.1362Y-7.3472
X10.2362Y-7.0472
X10.2362Y-7.3472
X2.7559Y-7.3862
X2.7559Y-7.4953
X2.7559Y-7.6043
X2.7559Y-7.7134
X2.7559Y-7.8224
X2.7559Y-7.9315
X2.7559Y-8.0406
X2.7559Y-8.1496
X2.8677Y-7.4407
X2.8677Y-7.5498
X2.8677Y-7.6589
X2.8677Y-7.7679
X2.8677Y-7.877
X2.8677Y-7.986
X2.8677Y-8.0951
X8.6614Y-7.3862
X8.6614Y-7.4953
X8.6614Y-7.6043
X8.6614Y-7.7134
X8.6614Y-7.8224
X8.6614Y-7.9315
X8.6614Y-8.0406
X8.6614Y-8.1496
X8.7732Y-7.4407
X8.7732Y-7.5498
X8.7732Y-7.6589
X8.7732Y-7.7679
X8.7732Y-7.877
X8.7732Y-7.986
X8.7732Y-8.0951
X4.7244Y-7.3862
X4.7244Y-7.4953
X4.7244Y-7.6043
X4.7244Y-7.7134
X4.7244Y-7.8224
X4.7244Y-7.9315
X4.7244Y-8.0406
X4.7244Y-8.1496
X4.8362Y-7.4407
X4.8362Y-7.5498
X4.8362Y-7.6589
X4.8362Y-7.7679
X4.8362Y-7.877
X4.8362Y-7.986
X4.8362Y-8.0951
X12.5984Y-7.3862
X12.5984Y-7.4953
X12.5984Y-7.6043
X12.5984Y-7.7134
X12.5984Y-7.8224
X12.5984Y-7.9315
X12.5984Y-8.0406
X12.5984Y-8.1496
X12.7102Y-7.4407
X12.7102Y-7.5498
X12.7102Y-7.6589
X12.7102Y-7.7679
X12.7102Y-7.877
X12.7102Y-7.986
X12.7102Y-8.0951
X10.6299Y-7.3862
X10.6299Y-7.4953
X10.6299Y-7.6043
X10.6299Y-7.7134
X10.6299Y-7.8224
X10.6299Y-7.9315
X10.6299Y-8.0406
X10.6299Y-8.1496
X10.7417Y-7.4407
X10.7417Y-7.5498
X10.7417Y-7.6589
X10.7417Y-7.7679
X10.7417Y-7.877
X10.7417Y-7.986
X10.7417Y-8.0951
X5.78Y-7.15
X5.78Y-7.4453
X9.1276Y-7.0472
X9.1276Y-7.3472
X9.2276Y-7.0472
X9.2276Y-7.3472
X9.3276Y-7.0472
X9.3276Y-7.3472
X9.4276Y-7.0472
X9.4276Y-7.3472
X9.5276Y-7.0472
X9.5276Y-7.3472
T4
X3.62Y-8.7
X3.62Y-8.8
X3.72Y-8.7
X3.72Y-8.8
X3.82Y-8.7
X3.82Y-8.8
X3.92Y-8.7
X3.92Y-8.8
X4.02Y-8.7
X4.02Y-8.8
T5
X10.4724Y-8.8189
X10.6724Y-8.8189
X10.8724Y-8.8189
X11.4567Y-8.8189
X11.6567Y-8.8189
X11.8567Y-8.8189
X12.4409Y-8.8189
X12.6409Y-8.8189
X12.8409Y-8.8189
X2.5984Y-8.8189
X2.7984Y-8.8189
X2.9984Y-8.8189
X4.5669Y-8.8189
X4.7669Y-8.8189
X4.9669Y-8.8189
X8.5039Y-8.8189
X8.7039Y-8.8189
X8.9039Y-8.8189
X6.5354Y-8.8189
X6.7354Y-8.8189
X6.9354Y-8.8189
T6
X6.7488Y-7.1124
X6.7488Y-8.4234
X2.8118Y-7.1124
X2.8118Y-8.4234
X8.7173Y-7.1124
X8.7173Y-8.4234
X4.7803Y-7.1124
X4.7803Y-8.4234
X12.6543Y-7.1124
X12.6543Y-8.4234
X10.6858Y-7.1124
X10.6858Y-8.4234
T0
M30
