G04 #@! TF.GenerationSoftware,KiCad,Pcbnew,(5.0.0-rc2-dev-444-g2974a2c10)*
G04 #@! TF.CreationDate,2018-05-11T00:11:58+02:00*
G04 #@! TF.ProjectId,TrackAmplifier,547261636B416D706C69666965722E6B,rev?*
G04 #@! TF.SameCoordinates,Original*
G04 #@! TF.FileFunction,Soldermask,Top*
G04 #@! TF.FilePolarity,Negative*
%FSLAX46Y46*%
G04 Gerber Fmt 4.6, Leading zero omitted, Abs format (unit mm)*
G04 Created by KiCad (PCBNEW (5.0.0-rc2-dev-444-g2974a2c10)) date 05/11/18 00:11:58*
%MOMM*%
%LPD*%
G01*
G04 APERTURE LIST*
%ADD10R,2.900000X2.900000*%
%ADD11C,2.900000*%
%ADD12R,2.200000X1.620000*%
%ADD13R,2.700000X3.500000*%
%ADD14O,3.900000X3.900000*%
%ADD15O,2.300000X2.800000*%
%ADD16R,2.400000X2.000000*%
%ADD17O,2.400000X2.000000*%
%ADD18C,5.400000*%
%ADD19R,2.100000X2.900000*%
%ADD20O,2.100000X2.900000*%
%ADD21R,2.000000X2.000000*%
%ADD22C,2.000000*%
%ADD23R,1.620000X2.200000*%
%ADD24R,1.300000X1.200000*%
%ADD25R,1.000000X1.950000*%
%ADD26R,2.600000X1.600000*%
%ADD27R,6.800000X6.200000*%
%ADD28R,0.850000X1.850000*%
%ADD29R,2.400000X1.000000*%
%ADD30C,1.700000*%
%ADD31R,1.700000X1.700000*%
%ADD32C,7.800000*%
%ADD33C,1.200000*%
%ADD34R,2.690000X2.430000*%
%ADD35R,1.800000X1.160000*%
%ADD36R,2.400000X2.400000*%
%ADD37C,2.400000*%
G04 APERTURE END LIST*
D10*
X84544000Y-114843800D03*
D11*
X64544000Y-114843800D03*
X84544000Y-102343800D03*
X64544000Y-102343800D03*
D10*
X64605000Y-55230000D03*
D11*
X84605000Y-55230000D03*
X64605000Y-67730000D03*
X84605000Y-67730000D03*
D12*
X117945000Y-63010000D03*
X117945000Y-60150000D03*
D13*
X124820000Y-54468000D03*
X117420000Y-54468000D03*
D14*
X137320000Y-97360000D03*
D15*
X145820000Y-77760000D03*
X144120000Y-80900000D03*
X142420000Y-77760000D03*
X140720000Y-80900000D03*
X139020000Y-77760000D03*
X137320000Y-80900000D03*
X135620000Y-77760000D03*
X133920000Y-80900000D03*
X132220000Y-77760000D03*
X130520000Y-80900000D03*
X128820000Y-77760000D03*
D16*
X59800000Y-94390000D03*
D17*
X59800000Y-91620000D03*
X59800000Y-88850000D03*
X59800000Y-86080000D03*
X59800000Y-83310000D03*
X59800000Y-80540000D03*
X59800000Y-77770000D03*
X59800000Y-75000000D03*
X56960000Y-93005000D03*
X56960000Y-90235000D03*
X56960000Y-87465000D03*
X56960000Y-84695000D03*
X56960000Y-81925000D03*
X56960000Y-79155000D03*
X56960000Y-76385000D03*
D18*
X59500000Y-101345000D03*
X59500000Y-68045000D03*
D19*
X132423000Y-53325000D03*
D20*
X134963000Y-53325000D03*
X137503000Y-53325000D03*
X140043000Y-53325000D03*
X142583000Y-53325000D03*
X145123000Y-53325000D03*
D12*
X70320000Y-84092000D03*
X70320000Y-81232000D03*
X84925000Y-81232000D03*
X84925000Y-84092000D03*
X73096675Y-81232000D03*
X73096675Y-84092000D03*
X82385000Y-81232000D03*
X82385000Y-84092000D03*
X88735000Y-57295000D03*
X88735000Y-54435000D03*
X91275000Y-54435000D03*
X91275000Y-57295000D03*
X91275000Y-65550000D03*
X91275000Y-62690000D03*
X64605000Y-93490000D03*
X64605000Y-90630000D03*
X76035000Y-90630000D03*
X76035000Y-93490000D03*
X88735000Y-62690000D03*
X88735000Y-65550000D03*
X67145000Y-93490000D03*
X67145000Y-90630000D03*
X78575000Y-90630000D03*
X78575000Y-93490000D03*
D21*
X111595000Y-61580000D03*
D22*
X111595000Y-59080000D03*
D12*
X105880000Y-100155000D03*
X105880000Y-103015000D03*
X108420000Y-103015000D03*
X108420000Y-100155000D03*
X112230000Y-105870000D03*
X112230000Y-108730000D03*
X110960000Y-100155000D03*
X110960000Y-103015000D03*
X91910000Y-103015000D03*
X91910000Y-100155000D03*
X94450000Y-100155000D03*
X94450000Y-103015000D03*
X98260000Y-108730000D03*
X98260000Y-105870000D03*
X110960000Y-87452479D03*
X110960000Y-90312479D03*
X108420000Y-90315000D03*
X108420000Y-87455000D03*
X96990000Y-100155000D03*
X96990000Y-103015000D03*
X113500000Y-87455000D03*
X113500000Y-90315000D03*
D23*
X74798000Y-74534000D03*
X71938000Y-74534000D03*
X99055000Y-72375000D03*
X96195000Y-72375000D03*
X149060000Y-57135000D03*
X146200000Y-57135000D03*
X149060000Y-59675000D03*
X146200000Y-59675000D03*
X146180058Y-62215000D03*
X149040058Y-62215000D03*
X146180058Y-64755000D03*
X149040058Y-64755000D03*
X81750000Y-73645000D03*
X78890000Y-73645000D03*
X81148000Y-76185000D03*
X78288000Y-76185000D03*
X96195000Y-74915000D03*
X99055000Y-74915000D03*
D24*
X89640000Y-72695000D03*
X89640000Y-74595000D03*
X91640000Y-73645000D03*
D23*
X70160000Y-78852000D03*
X73020000Y-78852000D03*
X82225000Y-78852000D03*
X85085000Y-78852000D03*
X107625000Y-52055000D03*
X110485000Y-52055000D03*
D12*
X140805000Y-71420000D03*
X140805000Y-74280000D03*
D23*
X104770000Y-52055000D03*
X101910000Y-52055000D03*
D12*
X137630000Y-71420000D03*
X137630000Y-74280000D03*
X143980000Y-71420000D03*
X143980000Y-74280000D03*
X84925000Y-75075000D03*
X84925000Y-72215000D03*
D23*
X64445000Y-95870000D03*
X67305000Y-95870000D03*
X78735000Y-95870000D03*
X75875000Y-95870000D03*
X118420000Y-106030000D03*
X121280000Y-106030000D03*
D12*
X103340000Y-103015000D03*
X103340000Y-100155000D03*
X105880000Y-108730000D03*
X105880000Y-105870000D03*
D23*
X89911000Y-95743000D03*
X87051000Y-95743000D03*
D12*
X114770000Y-108730000D03*
X114770000Y-105870000D03*
X113500000Y-103015000D03*
X113500000Y-100155000D03*
X89370000Y-103015000D03*
X89370000Y-100155000D03*
X91910000Y-108730000D03*
X91910000Y-105870000D03*
X100800000Y-108730000D03*
X100800000Y-105870000D03*
D23*
X103975000Y-74280000D03*
X106835000Y-74280000D03*
D12*
X99530000Y-103015000D03*
X99530000Y-100155000D03*
X134455000Y-74280000D03*
X134455000Y-71420000D03*
X116040000Y-90315000D03*
X116040000Y-87455000D03*
D23*
X63810000Y-75550000D03*
X66670000Y-75550000D03*
X99055000Y-69835000D03*
X96195000Y-69835000D03*
D12*
X101435000Y-72535000D03*
X101435000Y-69675000D03*
D23*
X63810000Y-72756000D03*
X66670000Y-72756000D03*
D25*
X67780000Y-78692000D03*
X66510000Y-78692000D03*
X65240000Y-78692000D03*
X63970000Y-78692000D03*
X63970000Y-84092000D03*
X65240000Y-84092000D03*
X66510000Y-84092000D03*
X67780000Y-84092000D03*
X79845000Y-78692000D03*
X78575000Y-78692000D03*
X77305000Y-78692000D03*
X76035000Y-78692000D03*
X76035000Y-84092000D03*
X77305000Y-84092000D03*
X78575000Y-84092000D03*
X79845000Y-84092000D03*
D26*
X94487861Y-57804326D03*
X94487861Y-62364326D03*
D27*
X100787861Y-60084326D03*
D25*
X69685000Y-90630000D03*
X70955000Y-90630000D03*
X72225000Y-90630000D03*
X73495000Y-90630000D03*
X73495000Y-96030000D03*
X72225000Y-96030000D03*
X70955000Y-96030000D03*
X69685000Y-96030000D03*
X81115000Y-90630000D03*
X82385000Y-90630000D03*
X83655000Y-90630000D03*
X84925000Y-90630000D03*
X84925000Y-96030000D03*
X83655000Y-96030000D03*
X82385000Y-96030000D03*
X81115000Y-96030000D03*
D28*
X108080000Y-110135000D03*
X108730000Y-110135000D03*
X109380000Y-110135000D03*
X110030000Y-110135000D03*
X110030000Y-105735000D03*
X109380000Y-105735000D03*
X108730000Y-105735000D03*
X108080000Y-105735000D03*
X94110000Y-105735000D03*
X94760000Y-105735000D03*
X95410000Y-105735000D03*
X96060000Y-105735000D03*
X96060000Y-110135000D03*
X95410000Y-110135000D03*
X94760000Y-110135000D03*
X94110000Y-110135000D03*
D29*
X96100000Y-77452479D03*
X96100000Y-78722479D03*
X96100000Y-79992479D03*
X96100000Y-81262479D03*
X96100000Y-82532479D03*
X96100000Y-83802479D03*
X96100000Y-85072479D03*
X96100000Y-86342479D03*
X96100000Y-87612479D03*
X96100000Y-88882479D03*
X96100000Y-90152479D03*
X96100000Y-91422479D03*
X96100000Y-92692479D03*
X96100000Y-93962479D03*
X105500000Y-93962479D03*
X105500000Y-92692479D03*
X105500000Y-91422479D03*
X105500000Y-90152479D03*
X105500000Y-88882479D03*
X105500000Y-87612479D03*
X105500000Y-86342479D03*
X105500000Y-85072479D03*
X105500000Y-83802479D03*
X105500000Y-82532479D03*
X105500000Y-81262479D03*
X105500000Y-79992479D03*
X105500000Y-78722479D03*
X105500000Y-77452479D03*
D23*
X87917872Y-86987536D03*
X90777872Y-86987536D03*
X90777872Y-84447536D03*
X87917872Y-84447536D03*
X87917872Y-89527536D03*
X90777872Y-89527536D03*
D24*
X89862000Y-82342000D03*
X89862000Y-80442000D03*
X87862000Y-81392000D03*
D23*
X149040058Y-67295000D03*
X146180058Y-67295000D03*
X121280000Y-103490000D03*
X118420000Y-103490000D03*
X118420000Y-100950000D03*
X121280000Y-100950000D03*
D30*
X119596000Y-96505000D03*
X120866000Y-95235000D03*
D31*
X120866000Y-97775000D03*
D12*
X87465000Y-72215000D03*
X87465000Y-75075000D03*
D23*
X116962000Y-96505000D03*
X114102000Y-96505000D03*
D32*
X137317013Y-97367015D03*
D33*
X134542013Y-97367015D03*
X135354792Y-95404794D03*
X137317013Y-94592015D03*
X139279234Y-95404794D03*
X140092013Y-97367015D03*
X139279234Y-99329236D03*
X137317013Y-100142015D03*
X135354792Y-99329236D03*
D34*
X107595000Y-117460000D03*
X101625000Y-116190000D03*
D35*
X108040000Y-115555000D03*
X101180000Y-118095000D03*
D12*
X112865000Y-69995000D03*
X112865000Y-67135000D03*
D23*
X110485000Y-69835000D03*
X107625000Y-69835000D03*
D12*
X115405000Y-65390000D03*
X115405000Y-68250000D03*
X93180000Y-81105000D03*
X93180000Y-83965000D03*
D36*
X127470000Y-62977000D03*
D37*
X122470000Y-62977000D03*
D12*
X117945000Y-68250000D03*
X117945000Y-65390000D03*
D23*
X141120000Y-57135000D03*
X143980000Y-57135000D03*
X143980000Y-59675000D03*
X141120000Y-59675000D03*
X141120000Y-62215000D03*
X143980000Y-62215000D03*
X143877815Y-67295000D03*
X141017815Y-67295000D03*
X143877815Y-64755000D03*
X141017815Y-64755000D03*
X92705000Y-70470000D03*
X89845000Y-70470000D03*
D12*
X131280000Y-71420000D03*
X131280000Y-74280000D03*
D23*
X108514000Y-96505000D03*
X111374000Y-96505000D03*
M02*
