G04 #@! TF.GenerationSoftware,KiCad,Pcbnew,(5.0.0-rc2-dev-444-g2974a2c10)*
G04 #@! TF.CreationDate,2018-05-11T00:11:58+02:00*
G04 #@! TF.ProjectId,TrackAmplifier,547261636B416D706C69666965722E6B,rev?*
G04 #@! TF.SameCoordinates,Original*
G04 #@! TF.FileFunction,Copper,L2,Bot,Signal*
G04 #@! TF.FilePolarity,Positive*
%FSLAX46Y46*%
G04 Gerber Fmt 4.6, Leading zero omitted, Abs format (unit mm)*
G04 Created by KiCad (PCBNEW (5.0.0-rc2-dev-444-g2974a2c10)) date 05/11/18 00:11:58*
%MOMM*%
%LPD*%
G01*
G04 APERTURE LIST*
%ADD10C,0.150000*%
%ADD11C,0.300000*%
%ADD12R,2.500000X2.500000*%
%ADD13C,2.500000*%
%ADD14O,1.900000X2.400000*%
%ADD15R,2.000000X1.600000*%
%ADD16O,2.000000X1.600000*%
%ADD17C,5.000000*%
%ADD18R,1.700000X2.500000*%
%ADD19O,1.700000X2.500000*%
%ADD20R,1.220000X1.800000*%
%ADD21R,1.600000X1.600000*%
%ADD22C,1.600000*%
%ADD23R,1.800000X1.220000*%
%ADD24C,1.300000*%
%ADD25R,1.300000X1.300000*%
%ADD26C,7.400000*%
%ADD27C,0.800000*%
%ADD28R,2.000000X2.000000*%
%ADD29C,2.000000*%
%ADD30C,1.000000*%
%ADD31C,0.600000*%
%ADD32C,1.000000*%
%ADD33C,2.000000*%
%ADD34C,0.750000*%
%ADD35C,0.500000*%
%ADD36C,0.250000*%
%ADD37C,0.254000*%
G04 APERTURE END LIST*
D10*
X59858333Y-61032380D02*
X59858333Y-61746666D01*
X59905952Y-61889523D01*
X60001190Y-61984761D01*
X60144047Y-62032380D01*
X60239285Y-62032380D01*
X58858333Y-62032380D02*
X59429761Y-62032380D01*
X59144047Y-62032380D02*
X59144047Y-61032380D01*
X59239285Y-61175238D01*
X59334523Y-61270476D01*
X59429761Y-61318095D01*
X130779857Y-87337142D02*
X130827476Y-87384761D01*
X130970333Y-87432380D01*
X131065571Y-87432380D01*
X131208428Y-87384761D01*
X131303666Y-87289523D01*
X131351285Y-87194285D01*
X131398904Y-87003809D01*
X131398904Y-86860952D01*
X131351285Y-86670476D01*
X131303666Y-86575238D01*
X131208428Y-86480000D01*
X131065571Y-86432380D01*
X130970333Y-86432380D01*
X130827476Y-86480000D01*
X130779857Y-86527619D01*
X129827476Y-87432380D02*
X130398904Y-87432380D01*
X130113190Y-87432380D02*
X130113190Y-86432380D01*
X130208428Y-86575238D01*
X130303666Y-86670476D01*
X130398904Y-86718095D01*
X129256047Y-86860952D02*
X129351285Y-86813333D01*
X129398904Y-86765714D01*
X129446523Y-86670476D01*
X129446523Y-86622857D01*
X129398904Y-86527619D01*
X129351285Y-86480000D01*
X129256047Y-86432380D01*
X129065571Y-86432380D01*
X128970333Y-86480000D01*
X128922714Y-86527619D01*
X128875095Y-86622857D01*
X128875095Y-86670476D01*
X128922714Y-86765714D01*
X128970333Y-86813333D01*
X129065571Y-86860952D01*
X129256047Y-86860952D01*
X129351285Y-86908571D01*
X129398904Y-86956190D01*
X129446523Y-87051428D01*
X129446523Y-87241904D01*
X129398904Y-87337142D01*
X129351285Y-87384761D01*
X129256047Y-87432380D01*
X129065571Y-87432380D01*
X128970333Y-87384761D01*
X128922714Y-87337142D01*
X128875095Y-87241904D01*
X128875095Y-87051428D01*
X128922714Y-86956190D01*
X128970333Y-86908571D01*
X129065571Y-86860952D01*
X140971666Y-83527142D02*
X141019285Y-83574761D01*
X141162142Y-83622380D01*
X141257380Y-83622380D01*
X141400238Y-83574761D01*
X141495476Y-83479523D01*
X141543095Y-83384285D01*
X141590714Y-83193809D01*
X141590714Y-83050952D01*
X141543095Y-82860476D01*
X141495476Y-82765238D01*
X141400238Y-82670000D01*
X141257380Y-82622380D01*
X141162142Y-82622380D01*
X141019285Y-82670000D01*
X140971666Y-82717619D01*
X140495476Y-83622380D02*
X140305000Y-83622380D01*
X140209761Y-83574761D01*
X140162142Y-83527142D01*
X140066904Y-83384285D01*
X140019285Y-83193809D01*
X140019285Y-82812857D01*
X140066904Y-82717619D01*
X140114523Y-82670000D01*
X140209761Y-82622380D01*
X140400238Y-82622380D01*
X140495476Y-82670000D01*
X140543095Y-82717619D01*
X140590714Y-82812857D01*
X140590714Y-83050952D01*
X140543095Y-83146190D01*
X140495476Y-83193809D01*
X140400238Y-83241428D01*
X140209761Y-83241428D01*
X140114523Y-83193809D01*
X140066904Y-83146190D01*
X140019285Y-83050952D01*
X140971666Y-89877142D02*
X141019285Y-89924761D01*
X141162142Y-89972380D01*
X141257380Y-89972380D01*
X141400238Y-89924761D01*
X141495476Y-89829523D01*
X141543095Y-89734285D01*
X141590714Y-89543809D01*
X141590714Y-89400952D01*
X141543095Y-89210476D01*
X141495476Y-89115238D01*
X141400238Y-89020000D01*
X141257380Y-88972380D01*
X141162142Y-88972380D01*
X141019285Y-89020000D01*
X140971666Y-89067619D01*
X140400238Y-89400952D02*
X140495476Y-89353333D01*
X140543095Y-89305714D01*
X140590714Y-89210476D01*
X140590714Y-89162857D01*
X140543095Y-89067619D01*
X140495476Y-89020000D01*
X140400238Y-88972380D01*
X140209761Y-88972380D01*
X140114523Y-89020000D01*
X140066904Y-89067619D01*
X140019285Y-89162857D01*
X140019285Y-89210476D01*
X140066904Y-89305714D01*
X140114523Y-89353333D01*
X140209761Y-89400952D01*
X140400238Y-89400952D01*
X140495476Y-89448571D01*
X140543095Y-89496190D01*
X140590714Y-89591428D01*
X140590714Y-89781904D01*
X140543095Y-89877142D01*
X140495476Y-89924761D01*
X140400238Y-89972380D01*
X140209761Y-89972380D01*
X140114523Y-89924761D01*
X140066904Y-89877142D01*
X140019285Y-89781904D01*
X140019285Y-89591428D01*
X140066904Y-89496190D01*
X140114523Y-89448571D01*
X140209761Y-89400952D01*
X148559857Y-83019142D02*
X148607476Y-83066761D01*
X148750333Y-83114380D01*
X148845571Y-83114380D01*
X148988428Y-83066761D01*
X149083666Y-82971523D01*
X149131285Y-82876285D01*
X149178904Y-82685809D01*
X149178904Y-82542952D01*
X149131285Y-82352476D01*
X149083666Y-82257238D01*
X148988428Y-82162000D01*
X148845571Y-82114380D01*
X148750333Y-82114380D01*
X148607476Y-82162000D01*
X148559857Y-82209619D01*
X147607476Y-83114380D02*
X148178904Y-83114380D01*
X147893190Y-83114380D02*
X147893190Y-82114380D01*
X147988428Y-82257238D01*
X148083666Y-82352476D01*
X148178904Y-82400095D01*
X147274142Y-82114380D02*
X146607476Y-82114380D01*
X147036047Y-83114380D01*
D11*
X149480000Y-112569571D02*
X149480000Y-113641000D01*
X149551428Y-113855285D01*
X149694285Y-113998142D01*
X149908571Y-114069571D01*
X150051428Y-114069571D01*
X148837142Y-113998142D02*
X148622857Y-114069571D01*
X148265714Y-114069571D01*
X148122857Y-113998142D01*
X148051428Y-113926714D01*
X147980000Y-113783857D01*
X147980000Y-113641000D01*
X148051428Y-113498142D01*
X148122857Y-113426714D01*
X148265714Y-113355285D01*
X148551428Y-113283857D01*
X148694285Y-113212428D01*
X148765714Y-113141000D01*
X148837142Y-112998142D01*
X148837142Y-112855285D01*
X148765714Y-112712428D01*
X148694285Y-112641000D01*
X148551428Y-112569571D01*
X148194285Y-112569571D01*
X147980000Y-112641000D01*
X147337142Y-114069571D02*
X147337142Y-112569571D01*
X146122857Y-113283857D02*
X146622857Y-113283857D01*
X146622857Y-114069571D02*
X146622857Y-112569571D01*
X145908571Y-112569571D01*
X144265714Y-112712428D02*
X144194285Y-112641000D01*
X144051428Y-112569571D01*
X143694285Y-112569571D01*
X143551428Y-112641000D01*
X143480000Y-112712428D01*
X143408571Y-112855285D01*
X143408571Y-112998142D01*
X143480000Y-113212428D01*
X144337142Y-114069571D01*
X143408571Y-114069571D01*
X142480000Y-112569571D02*
X142337142Y-112569571D01*
X142194285Y-112641000D01*
X142122857Y-112712428D01*
X142051428Y-112855285D01*
X141980000Y-113141000D01*
X141980000Y-113498142D01*
X142051428Y-113783857D01*
X142122857Y-113926714D01*
X142194285Y-113998142D01*
X142337142Y-114069571D01*
X142480000Y-114069571D01*
X142622857Y-113998142D01*
X142694285Y-113926714D01*
X142765714Y-113783857D01*
X142837142Y-113498142D01*
X142837142Y-113141000D01*
X142765714Y-112855285D01*
X142694285Y-112712428D01*
X142622857Y-112641000D01*
X142480000Y-112569571D01*
X140551428Y-114069571D02*
X141408571Y-114069571D01*
X140980000Y-114069571D02*
X140980000Y-112569571D01*
X141122857Y-112783857D01*
X141265714Y-112926714D01*
X141408571Y-112998142D01*
X139694285Y-113212428D02*
X139837142Y-113141000D01*
X139908571Y-113069571D01*
X139980000Y-112926714D01*
X139980000Y-112855285D01*
X139908571Y-112712428D01*
X139837142Y-112641000D01*
X139694285Y-112569571D01*
X139408571Y-112569571D01*
X139265714Y-112641000D01*
X139194285Y-112712428D01*
X139122857Y-112855285D01*
X139122857Y-112926714D01*
X139194285Y-113069571D01*
X139265714Y-113141000D01*
X139408571Y-113212428D01*
X139694285Y-113212428D01*
X139837142Y-113283857D01*
X139908571Y-113355285D01*
X139980000Y-113498142D01*
X139980000Y-113783857D01*
X139908571Y-113926714D01*
X139837142Y-113998142D01*
X139694285Y-114069571D01*
X139408571Y-114069571D01*
X139265714Y-113998142D01*
X139194285Y-113926714D01*
X139122857Y-113783857D01*
X139122857Y-113498142D01*
X139194285Y-113355285D01*
X139265714Y-113283857D01*
X139408571Y-113212428D01*
X152122857Y-115119571D02*
X151265714Y-115119571D01*
X151694285Y-116619571D02*
X151694285Y-115119571D01*
X150765714Y-116619571D02*
X150765714Y-115619571D01*
X150765714Y-115905285D02*
X150694285Y-115762428D01*
X150622857Y-115691000D01*
X150480000Y-115619571D01*
X150337142Y-115619571D01*
X149194285Y-116619571D02*
X149194285Y-115833857D01*
X149265714Y-115691000D01*
X149408571Y-115619571D01*
X149694285Y-115619571D01*
X149837142Y-115691000D01*
X149194285Y-116548142D02*
X149337142Y-116619571D01*
X149694285Y-116619571D01*
X149837142Y-116548142D01*
X149908571Y-116405285D01*
X149908571Y-116262428D01*
X149837142Y-116119571D01*
X149694285Y-116048142D01*
X149337142Y-116048142D01*
X149194285Y-115976714D01*
X147837142Y-116548142D02*
X147980000Y-116619571D01*
X148265714Y-116619571D01*
X148408571Y-116548142D01*
X148480000Y-116476714D01*
X148551428Y-116333857D01*
X148551428Y-115905285D01*
X148480000Y-115762428D01*
X148408571Y-115691000D01*
X148265714Y-115619571D01*
X147980000Y-115619571D01*
X147837142Y-115691000D01*
X147194285Y-116619571D02*
X147194285Y-115119571D01*
X147051428Y-116048142D02*
X146622857Y-116619571D01*
X146622857Y-115619571D02*
X147194285Y-116191000D01*
X146051428Y-116191000D02*
X145337142Y-116191000D01*
X146194285Y-116619571D02*
X145694285Y-115119571D01*
X145194285Y-116619571D01*
X144694285Y-116619571D02*
X144694285Y-115619571D01*
X144694285Y-115762428D02*
X144622857Y-115691000D01*
X144480000Y-115619571D01*
X144265714Y-115619571D01*
X144122857Y-115691000D01*
X144051428Y-115833857D01*
X144051428Y-116619571D01*
X144051428Y-115833857D02*
X143980000Y-115691000D01*
X143837142Y-115619571D01*
X143622857Y-115619571D01*
X143480000Y-115691000D01*
X143408571Y-115833857D01*
X143408571Y-116619571D01*
X142694285Y-115619571D02*
X142694285Y-117119571D01*
X142694285Y-115691000D02*
X142551428Y-115619571D01*
X142265714Y-115619571D01*
X142122857Y-115691000D01*
X142051428Y-115762428D01*
X141980000Y-115905285D01*
X141980000Y-116333857D01*
X142051428Y-116476714D01*
X142122857Y-116548142D01*
X142265714Y-116619571D01*
X142551428Y-116619571D01*
X142694285Y-116548142D01*
X140408571Y-115119571D02*
X139908571Y-116619571D01*
X139408571Y-115119571D01*
X138122857Y-116619571D02*
X138980000Y-116619571D01*
X138551428Y-116619571D02*
X138551428Y-115119571D01*
X138694285Y-115333857D01*
X138837142Y-115476714D01*
X138980000Y-115548142D01*
X137480000Y-116476714D02*
X137408571Y-116548142D01*
X137480000Y-116619571D01*
X137551428Y-116548142D01*
X137480000Y-116476714D01*
X137480000Y-116619571D01*
X136480000Y-115119571D02*
X136337142Y-115119571D01*
X136194285Y-115191000D01*
X136122857Y-115262428D01*
X136051428Y-115405285D01*
X135980000Y-115691000D01*
X135980000Y-116048142D01*
X136051428Y-116333857D01*
X136122857Y-116476714D01*
X136194285Y-116548142D01*
X136337142Y-116619571D01*
X136480000Y-116619571D01*
X136622857Y-116548142D01*
X136694285Y-116476714D01*
X136765714Y-116333857D01*
X136837142Y-116048142D01*
X136837142Y-115691000D01*
X136765714Y-115405285D01*
X136694285Y-115262428D01*
X136622857Y-115191000D01*
X136480000Y-115119571D01*
D12*
X84544000Y-114843800D03*
D13*
X64544000Y-114843800D03*
X84544000Y-102343800D03*
X64544000Y-102343800D03*
D12*
X64605000Y-55230000D03*
D13*
X84605000Y-55230000D03*
X64605000Y-67730000D03*
X84605000Y-67730000D03*
D14*
X145820000Y-77760000D03*
X144120000Y-80900000D03*
X142420000Y-77760000D03*
X140720000Y-80900000D03*
X139020000Y-77760000D03*
X137320000Y-80900000D03*
X135620000Y-77760000D03*
X133920000Y-80900000D03*
X132220000Y-77760000D03*
X130520000Y-80900000D03*
X128820000Y-77760000D03*
D15*
X59800000Y-94390000D03*
D16*
X59800000Y-91620000D03*
X59800000Y-88850000D03*
X59800000Y-86080000D03*
X59800000Y-83310000D03*
X59800000Y-80540000D03*
X59800000Y-77770000D03*
X59800000Y-75000000D03*
X56960000Y-93005000D03*
X56960000Y-90235000D03*
X56960000Y-87465000D03*
X56960000Y-84695000D03*
X56960000Y-81925000D03*
X56960000Y-79155000D03*
X56960000Y-76385000D03*
D17*
X59500000Y-101345000D03*
X59500000Y-68045000D03*
D18*
X132423000Y-53325000D03*
D19*
X134963000Y-53325000D03*
X137503000Y-53325000D03*
X140043000Y-53325000D03*
X142583000Y-53325000D03*
X145123000Y-53325000D03*
D20*
X142235000Y-87615000D03*
X139375000Y-87615000D03*
X139375000Y-85075000D03*
X142235000Y-85075000D03*
D21*
X111595000Y-61580000D03*
D22*
X111595000Y-59080000D03*
D23*
X149060000Y-80790000D03*
X149060000Y-77930000D03*
D20*
X131440000Y-85075000D03*
X128580000Y-85075000D03*
D24*
X119596000Y-96505000D03*
X120866000Y-95235000D03*
D25*
X120866000Y-97775000D03*
D26*
X137317013Y-97367015D03*
D27*
X134542013Y-97367015D03*
X135354792Y-95404794D03*
X137317013Y-94592015D03*
X139279234Y-95404794D03*
X140092013Y-97367015D03*
X139279234Y-99329236D03*
X137317013Y-100142015D03*
X135354792Y-99329236D03*
D28*
X127470000Y-62977000D03*
D29*
X122470000Y-62977000D03*
X113500000Y-52690000D03*
D30*
X98006000Y-65009000D03*
X100800000Y-65009000D03*
X106007000Y-57770000D03*
X106007000Y-62596000D03*
X106007000Y-65009000D03*
X88735000Y-60084326D03*
X91275000Y-60084326D03*
X137630000Y-72883000D03*
X143980000Y-72883000D03*
X134455000Y-72883000D03*
D31*
X95720000Y-111618000D03*
D30*
X94780200Y-118095000D03*
D31*
X109380000Y-111618000D03*
X63970000Y-82662000D03*
D30*
X67780000Y-81232000D03*
X94450000Y-69835000D03*
X89641780Y-75897980D03*
X108420000Y-88885000D03*
X113500000Y-88885000D03*
X117945000Y-66787000D03*
X89370000Y-86980000D03*
X117183002Y-99172000D03*
X112230000Y-107300000D03*
X98260000Y-107300000D03*
X108420000Y-101585000D03*
X69271000Y-93490000D03*
X94450004Y-101585000D03*
X88481000Y-95743000D03*
X71463000Y-92441000D03*
D31*
X63970000Y-80122000D03*
D30*
X78448000Y-81773000D03*
X79718000Y-76327011D03*
X82385000Y-93584000D03*
X98580000Y-86329998D03*
X98133000Y-97013000D03*
X101054000Y-97013000D03*
X109944000Y-96505000D03*
X147917006Y-70851000D03*
D29*
X150330000Y-93330000D03*
X141440000Y-93330000D03*
X133185000Y-93330000D03*
X126200000Y-93330000D03*
X126200000Y-109840000D03*
X133185000Y-109840000D03*
X141440000Y-109840000D03*
X150330000Y-109840000D03*
X126200000Y-101585000D03*
X133185000Y-101585000D03*
X141440000Y-101585000D03*
X150330000Y-101585000D03*
D30*
X86068000Y-60056000D03*
D29*
X76035000Y-114920000D03*
X76035000Y-102220000D03*
X76035000Y-55230000D03*
X76035000Y-67930000D03*
D30*
X93815000Y-60084326D03*
X96355000Y-60084326D03*
X103467000Y-65009000D03*
X103467000Y-55357000D03*
X106007000Y-55357000D03*
X100800000Y-55357000D03*
X98006000Y-55357000D03*
X106007000Y-60056000D03*
X73487960Y-74534000D03*
X143979994Y-69962006D03*
X140170000Y-69962000D03*
X89370000Y-89520000D03*
X89370000Y-101585000D03*
X132931004Y-69962000D03*
X109817000Y-115555010D03*
X110960000Y-101585000D03*
X101054000Y-95108004D03*
X99530000Y-101585000D03*
X99784000Y-95108000D03*
X99784000Y-83805010D03*
X99784000Y-79995000D03*
X80353000Y-73645000D03*
X86957000Y-78725000D03*
X76543000Y-74534000D03*
X68542000Y-75550000D03*
X97625000Y-74915000D03*
X109436000Y-74914996D03*
D31*
X94780200Y-111618000D03*
D30*
X84925000Y-76439000D03*
X68542000Y-76947000D03*
X91275000Y-93711000D03*
X72225000Y-93711000D03*
X120358000Y-92695000D03*
X116040000Y-88885000D03*
D31*
X61811000Y-78344000D03*
D30*
X79845000Y-86088970D03*
X79845000Y-80630000D03*
D31*
X61811000Y-88758000D03*
D30*
X73495000Y-94092000D03*
X84925022Y-93965000D03*
D31*
X61811000Y-86599000D03*
D30*
X103721000Y-90155000D03*
X112738000Y-96505000D03*
X102705000Y-105903000D03*
X116802000Y-107300000D03*
X93180000Y-89393014D03*
X111468000Y-115555000D03*
D29*
X121755000Y-54595000D03*
D30*
X98490522Y-83777298D03*
X108293000Y-75931000D03*
X98514000Y-93711000D03*
X103721000Y-95743000D03*
D32*
X138740000Y-85075000D02*
X137320000Y-85075000D01*
D33*
X137320000Y-85075000D02*
X137320000Y-80600000D01*
D32*
X128580000Y-78300000D02*
X128820000Y-78060000D01*
X128580000Y-85075000D02*
X128580000Y-78300000D01*
X131440000Y-81520000D02*
X130520000Y-80600000D01*
X131440000Y-85075000D02*
X131440000Y-81520000D01*
X143820000Y-80900000D02*
X144120000Y-80600000D01*
X145950000Y-77930000D02*
X145820000Y-78060000D01*
X149060000Y-77930000D02*
X145950000Y-77930000D01*
X144310000Y-80790000D02*
X144120000Y-80600000D01*
X149060000Y-80790000D02*
X144310000Y-80790000D01*
X137765000Y-87615000D02*
X137320000Y-87615000D01*
D33*
X137320000Y-87615000D02*
X137320000Y-85075000D01*
D32*
X142235000Y-85075000D02*
X142235000Y-87615000D01*
D34*
X142202000Y-85042000D02*
X142235000Y-85075000D01*
D35*
X134455000Y-72883000D02*
X137630000Y-72883000D01*
X137630000Y-72883000D02*
X143980000Y-72883000D01*
X153251000Y-64501000D02*
X152235000Y-63485000D01*
D32*
X144107000Y-85075000D02*
X144234000Y-84948000D01*
X142235000Y-85075000D02*
X144107000Y-85075000D01*
D35*
X146520000Y-72248006D02*
X147917006Y-70851000D01*
X146520000Y-72248000D02*
X146520000Y-72248006D01*
X143980000Y-72883000D02*
X145885000Y-72883000D01*
X145885000Y-72883000D02*
X146520000Y-72248000D01*
D32*
X76035000Y-100061000D02*
X76035000Y-102220000D01*
X69271000Y-93490000D02*
X69464000Y-93490000D01*
X69464000Y-93490000D02*
X76035000Y-100061000D01*
D33*
X135620000Y-76036000D02*
X135620000Y-78060000D01*
X149441000Y-84948000D02*
X151600000Y-82789000D01*
X151600000Y-82789000D02*
X151600000Y-76058000D01*
X151600000Y-76058000D02*
X150457000Y-74915000D01*
X150457000Y-74915000D02*
X136741000Y-74915000D01*
X136741000Y-74915000D02*
X135620000Y-76036000D01*
D32*
X144488000Y-86726000D02*
X146266000Y-84948000D01*
X144234000Y-86726000D02*
X144488000Y-86726000D01*
D33*
X146266000Y-84948000D02*
X149441000Y-84948000D01*
X144234000Y-84948000D02*
X146266000Y-84948000D01*
X144234000Y-86726000D02*
X144234000Y-84948000D01*
D32*
X144234000Y-90282000D02*
X144361000Y-90282000D01*
D33*
X144234000Y-90282000D02*
X144234000Y-86726000D01*
X144234000Y-92822000D02*
X144234000Y-90282000D01*
D32*
X144361000Y-90282000D02*
X146393000Y-92314000D01*
X141440000Y-92949000D02*
X141440000Y-93330000D01*
X144361000Y-90282000D02*
X144107000Y-90282000D01*
X144107000Y-90282000D02*
X141440000Y-92949000D01*
D35*
X143979994Y-69962006D02*
X140170006Y-69962006D01*
X140170006Y-69962006D02*
X140170000Y-69962000D01*
X89370000Y-89520000D02*
X91656000Y-89520000D01*
X91656000Y-89520000D02*
X92291000Y-90155000D01*
X92291000Y-90155000D02*
X92291000Y-100696000D01*
X92291000Y-100696000D02*
X92291000Y-100823000D01*
X92291000Y-100823000D02*
X91529000Y-101585000D01*
X91529000Y-101585000D02*
X89370000Y-101585000D01*
X139462894Y-69962000D02*
X132931004Y-69962000D01*
X140170000Y-69962000D02*
X139462894Y-69962000D01*
D36*
X109816990Y-115555000D02*
X109817000Y-115555010D01*
X96228000Y-115555000D02*
X109816990Y-115555000D01*
X95720000Y-111618000D02*
X95720000Y-115047000D01*
X95720000Y-115047000D02*
X96228000Y-115555000D01*
D35*
X101054004Y-95108004D02*
X101054000Y-95108004D01*
X103975000Y-98029000D02*
X101054004Y-95108004D01*
X110960000Y-101585000D02*
X107404000Y-98029000D01*
X107404000Y-98029000D02*
X103975000Y-98029000D01*
X99784000Y-96505000D02*
X99784000Y-95108000D01*
X99530000Y-101585000D02*
X99530000Y-96759000D01*
X99530000Y-96759000D02*
X99784000Y-96505000D01*
X99784000Y-83805010D02*
X99784000Y-79995000D01*
X86957000Y-76566000D02*
X86957000Y-78017894D01*
X86957000Y-78017894D02*
X86957000Y-78725000D01*
X84036000Y-73645000D02*
X86957000Y-76566000D01*
X80353000Y-73645000D02*
X84036000Y-73645000D01*
X69249106Y-75550000D02*
X68542000Y-75550000D01*
X69630106Y-75931000D02*
X69249106Y-75550000D01*
X76543000Y-74534000D02*
X75146000Y-75931000D01*
X75146000Y-75931000D02*
X69630106Y-75931000D01*
X97625000Y-74915000D02*
X109435996Y-74915000D01*
X109435996Y-74915000D02*
X109436000Y-74914996D01*
D36*
X94780200Y-111618000D02*
X94780200Y-118095000D01*
D35*
X69249106Y-76947000D02*
X68542000Y-76947000D01*
X76035000Y-76947000D02*
X69249106Y-76947000D01*
X78067000Y-74915000D02*
X76035000Y-76947000D01*
X84925000Y-76439000D02*
X83401000Y-74915000D01*
X83401000Y-74915000D02*
X78067000Y-74915000D01*
X72225000Y-94418106D02*
X72225000Y-93711000D01*
X72225000Y-94727000D02*
X72225000Y-94418106D01*
X74765000Y-97267000D02*
X72225000Y-94727000D01*
X90640000Y-97267000D02*
X74765000Y-97267000D01*
X91275000Y-93711000D02*
X91275000Y-96632000D01*
X91275000Y-96632000D02*
X90640000Y-97267000D01*
X120358000Y-92695000D02*
X116548000Y-88885000D01*
X116548000Y-88885000D02*
X116040000Y-88885000D01*
X61811000Y-78729000D02*
X61811000Y-78344000D01*
X59800000Y-80540000D02*
X60000000Y-80540000D01*
X60000000Y-80540000D02*
X61811000Y-78729000D01*
X79845000Y-86088970D02*
X79845000Y-80630000D01*
X61811000Y-88123000D02*
X61811000Y-88758000D01*
X56960000Y-87465000D02*
X61153000Y-87465000D01*
X61153000Y-87465000D02*
X61811000Y-88123000D01*
X84425023Y-94464999D02*
X84925022Y-93965000D01*
X83274022Y-95616000D02*
X84425023Y-94464999D01*
X73495000Y-94092000D02*
X75019000Y-95616000D01*
X75019000Y-95616000D02*
X83274022Y-95616000D01*
X61811000Y-86174736D02*
X61811000Y-86599000D01*
X61811000Y-85202000D02*
X61811000Y-86174736D01*
X56960000Y-84695000D02*
X61304000Y-84695000D01*
X61304000Y-84695000D02*
X61811000Y-85202000D01*
D33*
X112865000Y-52055000D02*
X113500000Y-52690000D01*
X84605000Y-55230000D02*
X87780000Y-52055000D01*
X87780000Y-52055000D02*
X112865000Y-52055000D01*
X60527000Y-101345000D02*
X59500000Y-101345000D01*
X62319000Y-99553000D02*
X60527000Y-101345000D01*
X62319000Y-92441000D02*
X62319000Y-99553000D01*
X59800000Y-91620000D02*
X61498000Y-91620000D01*
X61498000Y-91620000D02*
X62319000Y-92441000D01*
X59815000Y-67730000D02*
X59500000Y-68045000D01*
D32*
X64605000Y-67730000D02*
X64605000Y-67803000D01*
D33*
X64290000Y-68045000D02*
X64605000Y-67730000D01*
X59500000Y-68045000D02*
X64290000Y-68045000D01*
X59800000Y-68345000D02*
X59500000Y-68045000D01*
X59800000Y-75000000D02*
X59800000Y-68345000D01*
D35*
X103721000Y-90155000D02*
X106388000Y-90155000D01*
X112238001Y-96005001D02*
X112738000Y-96505000D01*
X106388000Y-90155000D02*
X112238001Y-96005001D01*
X102705000Y-105903000D02*
X115405000Y-105903000D01*
X115405000Y-105903000D02*
X116802000Y-107300000D01*
X102705000Y-105903000D02*
X101997894Y-105903000D01*
X101997894Y-105903000D02*
X93180000Y-97085106D01*
X93180000Y-97085106D02*
X93180000Y-90100120D01*
X93180000Y-90100120D02*
X93180000Y-89393014D01*
D36*
X111468000Y-113650000D02*
X111468000Y-114847894D01*
X109380000Y-111562000D02*
X111468000Y-113650000D01*
X111468000Y-114847894D02*
X111468000Y-115555000D01*
D35*
X139375000Y-85075000D02*
X137320000Y-85075000D01*
D33*
X137320000Y-88560000D02*
X137320000Y-87615000D01*
X127470000Y-73010000D02*
X125565000Y-74915000D01*
X125565000Y-74915000D02*
X125565000Y-88377000D01*
X125565000Y-88377000D02*
X127343000Y-90155000D01*
X127343000Y-90155000D02*
X135725000Y-90155000D01*
X127470000Y-63485000D02*
X127470000Y-73010000D01*
X135725000Y-90155000D02*
X137320000Y-88560000D01*
D32*
X139375000Y-85075000D02*
X139375000Y-87615000D01*
D33*
X124930000Y-54595000D02*
X121755000Y-54595000D01*
X127470000Y-63485000D02*
X127470000Y-57135000D01*
X127470000Y-57135000D02*
X124930000Y-54595000D01*
D35*
X107585894Y-75931000D02*
X108293000Y-75931000D01*
X98490522Y-77732478D02*
X100292000Y-75931000D01*
X100292000Y-75931000D02*
X107585894Y-75931000D01*
X98490522Y-83777298D02*
X98490522Y-77732478D01*
X98514000Y-93711000D02*
X101689000Y-93711000D01*
X103221001Y-95243001D02*
X103721000Y-95743000D01*
X101689000Y-93711000D02*
X103221001Y-95243001D01*
D37*
G36*
X86601231Y-50876231D02*
X86510014Y-51012747D01*
X84140788Y-53381973D01*
X83537233Y-53631974D01*
X83006974Y-54162233D01*
X82720000Y-54855050D01*
X82720000Y-55604950D01*
X83006974Y-56297767D01*
X83537233Y-56828026D01*
X84230050Y-57115000D01*
X84979950Y-57115000D01*
X85672767Y-56828026D01*
X86203026Y-56297767D01*
X86453027Y-55694212D01*
X87552239Y-54595000D01*
X120087969Y-54595000D01*
X120120000Y-54756031D01*
X120120000Y-54920222D01*
X120182833Y-55071914D01*
X120214864Y-55232945D01*
X120306081Y-55369461D01*
X120368914Y-55521153D01*
X120485014Y-55637253D01*
X120576231Y-55773769D01*
X120712747Y-55864986D01*
X120828847Y-55981086D01*
X120980539Y-56043919D01*
X121117055Y-56135136D01*
X121278086Y-56167167D01*
X121429778Y-56230000D01*
X124252762Y-56230000D01*
X125835001Y-57812240D01*
X125835000Y-61914458D01*
X125822560Y-61977000D01*
X125822560Y-63977000D01*
X125835000Y-64039541D01*
X125835001Y-71613000D01*
X123914000Y-71613000D01*
X123865399Y-71622667D01*
X123824197Y-71650197D01*
X123796667Y-71691399D01*
X123787000Y-71740000D01*
X123787000Y-91806000D01*
X123796667Y-91854601D01*
X123824197Y-91895803D01*
X123865399Y-91923333D01*
X123914000Y-91933000D01*
X153124000Y-91933000D01*
X153172601Y-91923333D01*
X153213803Y-91895803D01*
X153241333Y-91854601D01*
X153251000Y-91806000D01*
X153251000Y-71740000D01*
X153241333Y-71691399D01*
X153213803Y-71650197D01*
X153172601Y-71622667D01*
X153124000Y-71613000D01*
X129105000Y-71613000D01*
X129105000Y-69736234D01*
X131796004Y-69736234D01*
X131796004Y-70187766D01*
X131968797Y-70604926D01*
X132288078Y-70924207D01*
X132705238Y-71097000D01*
X133156770Y-71097000D01*
X133573930Y-70924207D01*
X133651137Y-70847000D01*
X139449867Y-70847000D01*
X139527074Y-70924207D01*
X139944234Y-71097000D01*
X140395766Y-71097000D01*
X140812926Y-70924207D01*
X140890127Y-70847006D01*
X143259861Y-70847006D01*
X143337068Y-70924213D01*
X143754228Y-71097006D01*
X144205760Y-71097006D01*
X144622920Y-70924213D01*
X144942201Y-70604932D01*
X145114994Y-70187772D01*
X145114994Y-69736240D01*
X144942201Y-69319080D01*
X144622920Y-68999799D01*
X144205760Y-68827006D01*
X143754228Y-68827006D01*
X143337068Y-68999799D01*
X143259861Y-69077006D01*
X140890139Y-69077006D01*
X140812926Y-68999793D01*
X140395766Y-68827000D01*
X139944234Y-68827000D01*
X139527074Y-68999793D01*
X139449867Y-69077000D01*
X133651137Y-69077000D01*
X133573930Y-68999793D01*
X133156770Y-68827000D01*
X132705238Y-68827000D01*
X132288078Y-68999793D01*
X131968797Y-69319074D01*
X131796004Y-69736234D01*
X129105000Y-69736234D01*
X129105000Y-64039541D01*
X129117440Y-63977000D01*
X129117440Y-61977000D01*
X129105000Y-61914459D01*
X129105000Y-57296025D01*
X129137030Y-57134999D01*
X129105000Y-56973973D01*
X129105000Y-56973969D01*
X129010136Y-56497055D01*
X128648769Y-55956231D01*
X128512253Y-55865014D01*
X126199988Y-53552750D01*
X126108769Y-53416231D01*
X125567945Y-53054864D01*
X125091031Y-52960000D01*
X125091030Y-52960000D01*
X124930000Y-52927969D01*
X124768970Y-52960000D01*
X121429778Y-52960000D01*
X121278086Y-53022833D01*
X121117055Y-53054864D01*
X120980539Y-53146081D01*
X120828847Y-53208914D01*
X120712747Y-53325014D01*
X120576231Y-53416231D01*
X120485014Y-53552747D01*
X120368914Y-53668847D01*
X120306081Y-53820539D01*
X120214864Y-53957055D01*
X120182833Y-54118086D01*
X120120000Y-54269778D01*
X120120000Y-54433969D01*
X120087969Y-54595000D01*
X87552239Y-54595000D01*
X88457239Y-53690000D01*
X112187761Y-53690000D01*
X112573847Y-54076086D01*
X112725540Y-54138920D01*
X112862055Y-54230136D01*
X113023086Y-54262167D01*
X113174778Y-54325000D01*
X113338969Y-54325000D01*
X113500000Y-54357031D01*
X113661031Y-54325000D01*
X113825222Y-54325000D01*
X113976914Y-54262167D01*
X114137945Y-54230136D01*
X114274461Y-54138919D01*
X114426153Y-54076086D01*
X114542253Y-53959986D01*
X114678769Y-53868769D01*
X114769986Y-53732253D01*
X114886086Y-53616153D01*
X114948919Y-53464461D01*
X115040136Y-53327945D01*
X115072167Y-53166914D01*
X115135000Y-53015222D01*
X115135000Y-52851031D01*
X115167031Y-52690000D01*
X115135000Y-52528969D01*
X115135000Y-52364778D01*
X115072167Y-52213086D01*
X115044701Y-52075000D01*
X130925560Y-52075000D01*
X130925560Y-54575000D01*
X130974843Y-54822765D01*
X131115191Y-55032809D01*
X131325235Y-55173157D01*
X131573000Y-55222440D01*
X133273000Y-55222440D01*
X133520765Y-55173157D01*
X133730809Y-55032809D01*
X133871157Y-54822765D01*
X133880184Y-54777381D01*
X133892375Y-54795625D01*
X134383583Y-55123839D01*
X134963000Y-55239092D01*
X135542418Y-55123839D01*
X136033625Y-54795625D01*
X136240232Y-54486416D01*
X136542749Y-54864856D01*
X137052048Y-55145562D01*
X137146110Y-55166476D01*
X137376000Y-55045155D01*
X137376000Y-53452000D01*
X137356000Y-53452000D01*
X137356000Y-53198000D01*
X137376000Y-53198000D01*
X137376000Y-51604845D01*
X137630000Y-51604845D01*
X137630000Y-53198000D01*
X137650000Y-53198000D01*
X137650000Y-53452000D01*
X137630000Y-53452000D01*
X137630000Y-55045155D01*
X137859890Y-55166476D01*
X137953952Y-55145562D01*
X138463251Y-54864856D01*
X138765768Y-54486416D01*
X138972375Y-54795625D01*
X139463583Y-55123839D01*
X140043000Y-55239092D01*
X140622418Y-55123839D01*
X141113625Y-54795625D01*
X141313000Y-54497239D01*
X141512375Y-54795625D01*
X142003583Y-55123839D01*
X142583000Y-55239092D01*
X143162418Y-55123839D01*
X143653625Y-54795625D01*
X143853000Y-54497239D01*
X144052375Y-54795625D01*
X144543583Y-55123839D01*
X145123000Y-55239092D01*
X145702418Y-55123839D01*
X146193625Y-54795625D01*
X146521839Y-54304418D01*
X146608000Y-53871255D01*
X146608000Y-52778744D01*
X146521839Y-52345582D01*
X146193625Y-51854375D01*
X145702417Y-51526161D01*
X145123000Y-51410908D01*
X144543582Y-51526161D01*
X144052375Y-51854375D01*
X143853000Y-52152761D01*
X143653625Y-51854375D01*
X143162417Y-51526161D01*
X142583000Y-51410908D01*
X142003582Y-51526161D01*
X141512375Y-51854375D01*
X141313000Y-52152761D01*
X141113625Y-51854375D01*
X140622417Y-51526161D01*
X140043000Y-51410908D01*
X139463582Y-51526161D01*
X138972375Y-51854375D01*
X138765769Y-52163584D01*
X138463251Y-51785144D01*
X137953952Y-51504438D01*
X137859890Y-51483524D01*
X137630000Y-51604845D01*
X137376000Y-51604845D01*
X137146110Y-51483524D01*
X137052048Y-51504438D01*
X136542749Y-51785144D01*
X136240232Y-52163584D01*
X136033625Y-51854375D01*
X135542417Y-51526161D01*
X134963000Y-51410908D01*
X134383582Y-51526161D01*
X133892375Y-51854375D01*
X133880184Y-51872619D01*
X133871157Y-51827235D01*
X133730809Y-51617191D01*
X133520765Y-51476843D01*
X133273000Y-51427560D01*
X131573000Y-51427560D01*
X131325235Y-51476843D01*
X131115191Y-51617191D01*
X130974843Y-51827235D01*
X130925560Y-52075000D01*
X115044701Y-52075000D01*
X115040136Y-52052055D01*
X114948920Y-51915540D01*
X114886086Y-51763847D01*
X114426153Y-51303914D01*
X114426151Y-51303913D01*
X114134988Y-51012750D01*
X114043769Y-50876231D01*
X113791395Y-50707600D01*
X152169510Y-50707600D01*
X154293600Y-52831691D01*
X154293601Y-118816908D01*
X153820509Y-119290000D01*
X74248955Y-119290000D01*
X74250070Y-117869234D01*
X93645200Y-117869234D01*
X93645200Y-118320766D01*
X93817993Y-118737926D01*
X94137274Y-119057207D01*
X94554434Y-119230000D01*
X95005966Y-119230000D01*
X95423126Y-119057207D01*
X95742407Y-118737926D01*
X95915200Y-118320766D01*
X95915200Y-117869234D01*
X95742407Y-117452074D01*
X95540200Y-117249867D01*
X95540200Y-115942002D01*
X95637672Y-116039475D01*
X95680071Y-116102929D01*
X95743524Y-116145327D01*
X95743526Y-116145329D01*
X95868902Y-116229102D01*
X95931463Y-116270904D01*
X96153148Y-116315000D01*
X96153152Y-116315000D01*
X96227999Y-116329888D01*
X96302846Y-116315000D01*
X108971857Y-116315000D01*
X109174074Y-116517217D01*
X109591234Y-116690010D01*
X110042766Y-116690010D01*
X110459926Y-116517217D01*
X110642505Y-116334638D01*
X110825074Y-116517207D01*
X111242234Y-116690000D01*
X111693766Y-116690000D01*
X112110926Y-116517207D01*
X112430207Y-116197926D01*
X112603000Y-115780766D01*
X112603000Y-115329234D01*
X112430207Y-114912074D01*
X112228000Y-114709867D01*
X112228000Y-113724847D01*
X112242888Y-113650000D01*
X112228000Y-113575153D01*
X112228000Y-113575148D01*
X112183904Y-113353463D01*
X112015929Y-113102071D01*
X111952473Y-113059671D01*
X110493802Y-111601000D01*
X134909286Y-111601000D01*
X134909286Y-117971000D01*
X153050715Y-117971000D01*
X153050715Y-111601000D01*
X134909286Y-111601000D01*
X110493802Y-111601000D01*
X110308058Y-111415256D01*
X110172655Y-111088365D01*
X109909635Y-110825345D01*
X109565983Y-110683000D01*
X109194017Y-110683000D01*
X108850365Y-110825345D01*
X108587345Y-111088365D01*
X108445000Y-111432017D01*
X108445000Y-111803983D01*
X108587345Y-112147635D01*
X108850365Y-112410655D01*
X109194017Y-112553000D01*
X109296199Y-112553000D01*
X110708000Y-113964802D01*
X110708001Y-114709866D01*
X110642495Y-114775372D01*
X110459926Y-114592803D01*
X110042766Y-114420010D01*
X109591234Y-114420010D01*
X109174074Y-114592803D01*
X108971877Y-114795000D01*
X96542802Y-114795000D01*
X96480000Y-114732198D01*
X96480000Y-112180290D01*
X96512655Y-112147635D01*
X96655000Y-111803983D01*
X96655000Y-111432017D01*
X96512655Y-111088365D01*
X96249635Y-110825345D01*
X95905983Y-110683000D01*
X95534017Y-110683000D01*
X95250100Y-110800602D01*
X94966183Y-110683000D01*
X94594217Y-110683000D01*
X94250565Y-110825345D01*
X93987545Y-111088365D01*
X93845200Y-111432017D01*
X93845200Y-111803983D01*
X93987545Y-112147635D01*
X94020200Y-112180290D01*
X94020201Y-117249866D01*
X93817993Y-117452074D01*
X93645200Y-117869234D01*
X74250070Y-117869234D01*
X74253427Y-113593800D01*
X82646560Y-113593800D01*
X82646560Y-116093800D01*
X82695843Y-116341565D01*
X82836191Y-116551609D01*
X83046235Y-116691957D01*
X83294000Y-116741240D01*
X85794000Y-116741240D01*
X86041765Y-116691957D01*
X86251809Y-116551609D01*
X86392157Y-116341565D01*
X86441440Y-116093800D01*
X86441440Y-113593800D01*
X86392157Y-113346035D01*
X86251809Y-113135991D01*
X86041765Y-112995643D01*
X85794000Y-112946360D01*
X83294000Y-112946360D01*
X83046235Y-112995643D01*
X82836191Y-113135991D01*
X82695843Y-113346035D01*
X82646560Y-113593800D01*
X74253427Y-113593800D01*
X74262555Y-101968850D01*
X82659000Y-101968850D01*
X82659000Y-102718750D01*
X82945974Y-103411567D01*
X83476233Y-103941826D01*
X84169050Y-104228800D01*
X84918950Y-104228800D01*
X85611767Y-103941826D01*
X86142026Y-103411567D01*
X86429000Y-102718750D01*
X86429000Y-101968850D01*
X86142026Y-101276033D01*
X85611767Y-100745774D01*
X84918950Y-100458800D01*
X84169050Y-100458800D01*
X83476233Y-100745774D01*
X82945974Y-101276033D01*
X82659000Y-101968850D01*
X74262555Y-101968850D01*
X74265674Y-97997741D01*
X74419690Y-98100652D01*
X74677835Y-98152000D01*
X74677839Y-98152000D01*
X74764999Y-98169337D01*
X74852159Y-98152000D01*
X90552839Y-98152000D01*
X90640000Y-98169337D01*
X90727161Y-98152000D01*
X90727165Y-98152000D01*
X90985310Y-98100652D01*
X91278049Y-97905049D01*
X91327425Y-97831154D01*
X91406001Y-97752578D01*
X91406001Y-100456420D01*
X91162422Y-100700000D01*
X90090133Y-100700000D01*
X90012926Y-100622793D01*
X89595766Y-100450000D01*
X89144234Y-100450000D01*
X88727074Y-100622793D01*
X88407793Y-100942074D01*
X88235000Y-101359234D01*
X88235000Y-101810766D01*
X88407793Y-102227926D01*
X88727074Y-102547207D01*
X89144234Y-102720000D01*
X89595766Y-102720000D01*
X90012926Y-102547207D01*
X90090133Y-102470000D01*
X91441839Y-102470000D01*
X91529000Y-102487337D01*
X91616161Y-102470000D01*
X91616165Y-102470000D01*
X91874310Y-102418652D01*
X92167049Y-102223049D01*
X92216425Y-102149153D01*
X92855156Y-101510423D01*
X92929049Y-101461049D01*
X92978422Y-101387157D01*
X92978424Y-101387155D01*
X93124652Y-101168310D01*
X93149766Y-101042051D01*
X93176000Y-100910164D01*
X93176000Y-100910161D01*
X93193337Y-100823000D01*
X93176000Y-100735839D01*
X93176000Y-98332684D01*
X101310471Y-106467156D01*
X101359845Y-106541049D01*
X101433738Y-106590423D01*
X101433739Y-106590424D01*
X101533488Y-106657074D01*
X101652584Y-106736652D01*
X101910729Y-106788000D01*
X101910733Y-106788000D01*
X101997893Y-106805337D01*
X102001489Y-106804622D01*
X102062074Y-106865207D01*
X102479234Y-107038000D01*
X102930766Y-107038000D01*
X103347926Y-106865207D01*
X103425133Y-106788000D01*
X115038422Y-106788000D01*
X115667000Y-107416579D01*
X115667000Y-107525766D01*
X115839793Y-107942926D01*
X116159074Y-108262207D01*
X116576234Y-108435000D01*
X117027766Y-108435000D01*
X117444926Y-108262207D01*
X117764207Y-107942926D01*
X117937000Y-107525766D01*
X117937000Y-107074234D01*
X117764207Y-106657074D01*
X117444926Y-106337793D01*
X117027766Y-106165000D01*
X116918579Y-106165000D01*
X116092425Y-105338847D01*
X116043049Y-105264951D01*
X115750310Y-105069348D01*
X115492165Y-105018000D01*
X115492161Y-105018000D01*
X115405000Y-105000663D01*
X115317839Y-105018000D01*
X103425133Y-105018000D01*
X103347926Y-104940793D01*
X102930766Y-104768000D01*
X102479234Y-104768000D01*
X102221309Y-104874836D01*
X99975469Y-102628996D01*
X100172926Y-102547207D01*
X100492207Y-102227926D01*
X100665000Y-101810766D01*
X100665000Y-101359234D01*
X100492207Y-100942074D01*
X100415000Y-100864867D01*
X100415000Y-97147759D01*
X100422049Y-97143049D01*
X100617652Y-96850310D01*
X100669000Y-96592165D01*
X100669000Y-96592160D01*
X100686337Y-96505001D01*
X100669000Y-96417841D01*
X100669000Y-96177047D01*
X100828234Y-96243004D01*
X100937426Y-96243004D01*
X103287577Y-98593156D01*
X103336951Y-98667049D01*
X103410844Y-98716423D01*
X103410845Y-98716424D01*
X103450553Y-98742956D01*
X103629690Y-98862652D01*
X103887835Y-98914000D01*
X103887839Y-98914000D01*
X103974999Y-98931337D01*
X104062159Y-98914000D01*
X107037422Y-98914000D01*
X109825000Y-101701579D01*
X109825000Y-101810766D01*
X109997793Y-102227926D01*
X110317074Y-102547207D01*
X110734234Y-102720000D01*
X111185766Y-102720000D01*
X111602926Y-102547207D01*
X111922207Y-102227926D01*
X112095000Y-101810766D01*
X112095000Y-101359234D01*
X111922207Y-100942074D01*
X111602926Y-100622793D01*
X111185766Y-100450000D01*
X111076579Y-100450000D01*
X108091425Y-97464847D01*
X108042049Y-97390951D01*
X107749310Y-97195348D01*
X107491165Y-97144000D01*
X107491161Y-97144000D01*
X107404000Y-97126663D01*
X107316839Y-97144000D01*
X104341579Y-97144000D01*
X104037850Y-96840272D01*
X104363926Y-96705207D01*
X104683207Y-96385926D01*
X104856000Y-95968766D01*
X104856000Y-95517234D01*
X104683207Y-95100074D01*
X104363926Y-94780793D01*
X103946766Y-94608000D01*
X103837579Y-94608000D01*
X102376425Y-93146847D01*
X102327049Y-93072951D01*
X102034310Y-92877348D01*
X101776165Y-92826000D01*
X101776161Y-92826000D01*
X101689000Y-92808663D01*
X101601839Y-92826000D01*
X99234133Y-92826000D01*
X99156926Y-92748793D01*
X98739766Y-92576000D01*
X98288234Y-92576000D01*
X97871074Y-92748793D01*
X97551793Y-93068074D01*
X97379000Y-93485234D01*
X97379000Y-93936766D01*
X97551793Y-94353926D01*
X97871074Y-94673207D01*
X98288234Y-94846000D01*
X98664009Y-94846000D01*
X98649000Y-94882234D01*
X98649000Y-95333766D01*
X98821793Y-95750926D01*
X98899000Y-95828133D01*
X98899000Y-96116241D01*
X98891952Y-96120951D01*
X98842578Y-96194844D01*
X98842576Y-96194846D01*
X98696348Y-96413691D01*
X98627663Y-96759000D01*
X98645001Y-96846165D01*
X98645000Y-100864867D01*
X98567793Y-100942074D01*
X98486004Y-101139531D01*
X94065000Y-96718528D01*
X94065000Y-90113147D01*
X94142207Y-90035940D01*
X94186405Y-89929234D01*
X102586000Y-89929234D01*
X102586000Y-90380766D01*
X102758793Y-90797926D01*
X103078074Y-91117207D01*
X103495234Y-91290000D01*
X103946766Y-91290000D01*
X104363926Y-91117207D01*
X104441133Y-91040000D01*
X106021422Y-91040000D01*
X111603000Y-96621579D01*
X111603000Y-96730766D01*
X111775793Y-97147926D01*
X112095074Y-97467207D01*
X112512234Y-97640000D01*
X112963766Y-97640000D01*
X113380926Y-97467207D01*
X113700207Y-97147926D01*
X113873000Y-96730766D01*
X113873000Y-96279234D01*
X113860642Y-96249398D01*
X118311000Y-96249398D01*
X118311000Y-96760602D01*
X118506629Y-97232894D01*
X118868106Y-97594371D01*
X119340398Y-97790000D01*
X119568560Y-97790000D01*
X119568560Y-98425000D01*
X119617843Y-98672765D01*
X119758191Y-98882809D01*
X119968235Y-99023157D01*
X120216000Y-99072440D01*
X121516000Y-99072440D01*
X121763765Y-99023157D01*
X121973809Y-98882809D01*
X122114157Y-98672765D01*
X122163440Y-98425000D01*
X122163440Y-97125000D01*
X122114157Y-96877235D01*
X121973809Y-96667191D01*
X121763765Y-96526843D01*
X121652595Y-96504730D01*
X132982013Y-96504730D01*
X132982013Y-98229300D01*
X133641977Y-99822595D01*
X134861433Y-101042051D01*
X136454728Y-101702015D01*
X138179298Y-101702015D01*
X139772593Y-101042051D01*
X140992049Y-99822595D01*
X141652013Y-98229300D01*
X141652013Y-96504730D01*
X140992049Y-94911435D01*
X139772593Y-93691979D01*
X138179298Y-93032015D01*
X136454728Y-93032015D01*
X134861433Y-93691979D01*
X133641977Y-94911435D01*
X132982013Y-96504730D01*
X121652595Y-96504730D01*
X121516000Y-96477560D01*
X121257046Y-96477560D01*
X121529729Y-96364611D01*
X121585410Y-96134016D01*
X120866000Y-95414605D01*
X120851858Y-95428748D01*
X120672253Y-95249143D01*
X120686395Y-95235000D01*
X121045605Y-95235000D01*
X121765016Y-95954410D01*
X121995611Y-95898729D01*
X122163622Y-95415922D01*
X122134083Y-94905572D01*
X121995611Y-94571271D01*
X121765016Y-94515590D01*
X121045605Y-95235000D01*
X120686395Y-95235000D01*
X119966984Y-94515590D01*
X119736389Y-94571271D01*
X119568378Y-95054078D01*
X119577982Y-95220000D01*
X119340398Y-95220000D01*
X118868106Y-95415629D01*
X118506629Y-95777106D01*
X118311000Y-96249398D01*
X113860642Y-96249398D01*
X113700207Y-95862074D01*
X113380926Y-95542793D01*
X112963766Y-95370000D01*
X112854579Y-95370000D01*
X111820563Y-94335984D01*
X120146590Y-94335984D01*
X120866000Y-95055395D01*
X121585410Y-94335984D01*
X121529729Y-94105389D01*
X121046922Y-93937378D01*
X120536572Y-93966917D01*
X120202271Y-94105389D01*
X120146590Y-94335984D01*
X111820563Y-94335984D01*
X107075425Y-89590847D01*
X107026049Y-89516951D01*
X106733310Y-89321348D01*
X106475165Y-89270000D01*
X106475161Y-89270000D01*
X106388000Y-89252663D01*
X106300839Y-89270000D01*
X104441133Y-89270000D01*
X104363926Y-89192793D01*
X103946766Y-89020000D01*
X103495234Y-89020000D01*
X103078074Y-89192793D01*
X102758793Y-89512074D01*
X102586000Y-89929234D01*
X94186405Y-89929234D01*
X94315000Y-89618780D01*
X94315000Y-89167248D01*
X94142207Y-88750088D01*
X94051353Y-88659234D01*
X114905000Y-88659234D01*
X114905000Y-89110766D01*
X115077793Y-89527926D01*
X115397074Y-89847207D01*
X115814234Y-90020000D01*
X116265766Y-90020000D01*
X116382902Y-89971481D01*
X119223000Y-92811579D01*
X119223000Y-92920766D01*
X119395793Y-93337926D01*
X119715074Y-93657207D01*
X120132234Y-93830000D01*
X120583766Y-93830000D01*
X121000926Y-93657207D01*
X121320207Y-93337926D01*
X121493000Y-92920766D01*
X121493000Y-92469234D01*
X121320207Y-92052074D01*
X121000926Y-91732793D01*
X120583766Y-91560000D01*
X120474579Y-91560000D01*
X117235425Y-88320847D01*
X117186049Y-88246951D01*
X116893310Y-88051348D01*
X116791163Y-88031030D01*
X116682926Y-87922793D01*
X116265766Y-87750000D01*
X115814234Y-87750000D01*
X115397074Y-87922793D01*
X115077793Y-88242074D01*
X114905000Y-88659234D01*
X94051353Y-88659234D01*
X93822926Y-88430807D01*
X93405766Y-88258014D01*
X92954234Y-88258014D01*
X92537074Y-88430807D01*
X92217793Y-88750088D01*
X92191544Y-88813459D01*
X92001310Y-88686348D01*
X91743165Y-88635000D01*
X91743161Y-88635000D01*
X91656000Y-88617663D01*
X91568839Y-88635000D01*
X90090133Y-88635000D01*
X90012926Y-88557793D01*
X89595766Y-88385000D01*
X89144234Y-88385000D01*
X88727074Y-88557793D01*
X88407793Y-88877074D01*
X88235000Y-89294234D01*
X88235000Y-89745766D01*
X88407793Y-90162926D01*
X88727074Y-90482207D01*
X89144234Y-90655000D01*
X89595766Y-90655000D01*
X90012926Y-90482207D01*
X90090133Y-90405000D01*
X91289422Y-90405000D01*
X91406000Y-90521579D01*
X91406000Y-92576000D01*
X91049234Y-92576000D01*
X90632074Y-92748793D01*
X90312793Y-93068074D01*
X90140000Y-93485234D01*
X90140000Y-93936766D01*
X90312793Y-94353926D01*
X90390000Y-94431133D01*
X90390001Y-96265421D01*
X90273422Y-96382000D01*
X83720580Y-96382000D01*
X83912071Y-96254049D01*
X83961447Y-96180153D01*
X85041601Y-95100000D01*
X85150788Y-95100000D01*
X85567948Y-94927207D01*
X85887229Y-94607926D01*
X86060022Y-94190766D01*
X86060022Y-93739234D01*
X85887229Y-93322074D01*
X85567948Y-93002793D01*
X85150788Y-92830000D01*
X84699256Y-92830000D01*
X84282096Y-93002793D01*
X83962815Y-93322074D01*
X83790022Y-93739234D01*
X83790022Y-93848421D01*
X82907444Y-94731000D01*
X75385579Y-94731000D01*
X74630000Y-93975422D01*
X74630000Y-93866234D01*
X74457207Y-93449074D01*
X74137926Y-93129793D01*
X73720766Y-92957000D01*
X73269234Y-92957000D01*
X73132691Y-93013558D01*
X72867926Y-92748793D01*
X72450766Y-92576000D01*
X71999234Y-92576000D01*
X71582074Y-92748793D01*
X71262793Y-93068074D01*
X71090000Y-93485234D01*
X71090000Y-93936766D01*
X71262793Y-94353926D01*
X71340000Y-94431133D01*
X71340000Y-94639839D01*
X71322663Y-94727000D01*
X71340000Y-94814161D01*
X71340000Y-94814164D01*
X71391348Y-95072309D01*
X71586951Y-95365049D01*
X71660847Y-95414425D01*
X73267973Y-97021552D01*
X65367000Y-97014008D01*
X65367000Y-89266000D01*
X65357333Y-89217399D01*
X65329803Y-89176197D01*
X65288601Y-89148667D01*
X65239007Y-89139004D01*
X63462000Y-89152893D01*
X63462000Y-80404234D01*
X78710000Y-80404234D01*
X78710000Y-80855766D01*
X78882793Y-81272926D01*
X78960001Y-81350134D01*
X78960000Y-85368837D01*
X78882793Y-85446044D01*
X78710000Y-85863204D01*
X78710000Y-86314736D01*
X78882793Y-86731896D01*
X79202074Y-87051177D01*
X79619234Y-87223970D01*
X80070766Y-87223970D01*
X80487926Y-87051177D01*
X80807207Y-86731896D01*
X80980000Y-86314736D01*
X80980000Y-85863204D01*
X80807207Y-85446044D01*
X80730000Y-85368837D01*
X80730000Y-81350133D01*
X80807207Y-81272926D01*
X80980000Y-80855766D01*
X80980000Y-80404234D01*
X80807207Y-79987074D01*
X80487926Y-79667793D01*
X80070766Y-79495000D01*
X79619234Y-79495000D01*
X79202074Y-79667793D01*
X78882793Y-79987074D01*
X78710000Y-80404234D01*
X63462000Y-80404234D01*
X63462000Y-75324234D01*
X67407000Y-75324234D01*
X67407000Y-75775766D01*
X67579793Y-76192926D01*
X67635367Y-76248500D01*
X67579793Y-76304074D01*
X67407000Y-76721234D01*
X67407000Y-77172766D01*
X67579793Y-77589926D01*
X67899074Y-77909207D01*
X68316234Y-78082000D01*
X68767766Y-78082000D01*
X69184926Y-77909207D01*
X69262133Y-77832000D01*
X75947839Y-77832000D01*
X76035000Y-77849337D01*
X76122161Y-77832000D01*
X76122165Y-77832000D01*
X76380310Y-77780652D01*
X76673049Y-77585049D01*
X76722425Y-77511153D01*
X78433579Y-75800000D01*
X83034422Y-75800000D01*
X83790000Y-76555579D01*
X83790000Y-76664766D01*
X83962793Y-77081926D01*
X84282074Y-77401207D01*
X84699234Y-77574000D01*
X85150766Y-77574000D01*
X85567926Y-77401207D01*
X85887207Y-77081926D01*
X85985074Y-76845653D01*
X86072000Y-76932579D01*
X86072001Y-77930726D01*
X86072000Y-77930730D01*
X86072000Y-78004867D01*
X85994793Y-78082074D01*
X85822000Y-78499234D01*
X85822000Y-78950766D01*
X85994793Y-79367926D01*
X86314074Y-79687207D01*
X86731234Y-79860000D01*
X87182766Y-79860000D01*
X87599926Y-79687207D01*
X87919207Y-79367926D01*
X88092000Y-78950766D01*
X88092000Y-78499234D01*
X87919207Y-78082074D01*
X87842000Y-78004867D01*
X87842000Y-76653161D01*
X87859337Y-76566000D01*
X87842000Y-76478839D01*
X87842000Y-76478835D01*
X87790652Y-76220690D01*
X87676600Y-76050000D01*
X87644424Y-76001845D01*
X87644423Y-76001844D01*
X87595049Y-75927951D01*
X87521156Y-75878577D01*
X86331813Y-74689234D01*
X96490000Y-74689234D01*
X96490000Y-75140766D01*
X96662793Y-75557926D01*
X96982074Y-75877207D01*
X97399234Y-76050000D01*
X97850766Y-76050000D01*
X98267926Y-75877207D01*
X98345133Y-75800000D01*
X99171421Y-75800000D01*
X97926367Y-77045055D01*
X97852474Y-77094429D01*
X97803100Y-77168322D01*
X97803098Y-77168324D01*
X97656870Y-77387169D01*
X97588185Y-77732478D01*
X97605523Y-77819643D01*
X97605522Y-83057165D01*
X97528315Y-83134372D01*
X97355522Y-83551532D01*
X97355522Y-84003064D01*
X97528315Y-84420224D01*
X97847596Y-84739505D01*
X98264756Y-84912298D01*
X98716288Y-84912298D01*
X99119245Y-84745388D01*
X99141074Y-84767217D01*
X99558234Y-84940010D01*
X100009766Y-84940010D01*
X100426926Y-84767217D01*
X100746207Y-84447936D01*
X100919000Y-84030776D01*
X100919000Y-83579244D01*
X100746207Y-83162084D01*
X100669000Y-83084877D01*
X100669000Y-80715133D01*
X100746207Y-80637926D01*
X100919000Y-80220766D01*
X100919000Y-79769234D01*
X100746207Y-79352074D01*
X100426926Y-79032793D01*
X100009766Y-78860000D01*
X99558234Y-78860000D01*
X99375522Y-78935682D01*
X99375522Y-78099056D01*
X100658579Y-76816000D01*
X107572867Y-76816000D01*
X107650074Y-76893207D01*
X108067234Y-77066000D01*
X108518766Y-77066000D01*
X108935926Y-76893207D01*
X109255207Y-76573926D01*
X109428000Y-76156766D01*
X109428000Y-76049996D01*
X109661766Y-76049996D01*
X110078926Y-75877203D01*
X110398207Y-75557922D01*
X110571000Y-75140762D01*
X110571000Y-74689230D01*
X110398207Y-74272070D01*
X110078926Y-73952789D01*
X109661766Y-73779996D01*
X109210234Y-73779996D01*
X108793074Y-73952789D01*
X108715863Y-74030000D01*
X98345133Y-74030000D01*
X98267926Y-73952793D01*
X97850766Y-73780000D01*
X97399234Y-73780000D01*
X96982074Y-73952793D01*
X96662793Y-74272074D01*
X96490000Y-74689234D01*
X86331813Y-74689234D01*
X84723425Y-73080847D01*
X84674049Y-73006951D01*
X84381310Y-72811348D01*
X84123165Y-72760000D01*
X84123161Y-72760000D01*
X84036000Y-72742663D01*
X83948839Y-72760000D01*
X81073133Y-72760000D01*
X80995926Y-72682793D01*
X80578766Y-72510000D01*
X80127234Y-72510000D01*
X79710074Y-72682793D01*
X79390793Y-73002074D01*
X79218000Y-73419234D01*
X79218000Y-73870766D01*
X79283957Y-74030000D01*
X78154161Y-74030000D01*
X78067000Y-74012663D01*
X77979839Y-74030000D01*
X77979835Y-74030000D01*
X77721710Y-74081344D01*
X77721690Y-74081348D01*
X77613864Y-74153395D01*
X77505207Y-73891074D01*
X77185926Y-73571793D01*
X76768766Y-73399000D01*
X76317234Y-73399000D01*
X75900074Y-73571793D01*
X75580793Y-73891074D01*
X75408000Y-74308234D01*
X75408000Y-74417421D01*
X74779422Y-75046000D01*
X69996684Y-75046000D01*
X69936531Y-74985847D01*
X69887155Y-74911951D01*
X69594416Y-74716348D01*
X69336271Y-74665000D01*
X69336267Y-74665000D01*
X69249106Y-74647663D01*
X69245511Y-74648378D01*
X69184926Y-74587793D01*
X68767766Y-74415000D01*
X68316234Y-74415000D01*
X67899074Y-74587793D01*
X67579793Y-74907074D01*
X67407000Y-75324234D01*
X63462000Y-75324234D01*
X63462000Y-71867000D01*
X74130000Y-71867000D01*
X74178601Y-71857333D01*
X74219803Y-71829803D01*
X74247333Y-71788601D01*
X74257000Y-71740000D01*
X74257000Y-69063320D01*
X83451285Y-69063320D01*
X83580533Y-69356123D01*
X84280806Y-69624388D01*
X85030435Y-69604250D01*
X85629467Y-69356123D01*
X85758715Y-69063320D01*
X84605000Y-67909605D01*
X83451285Y-69063320D01*
X74257000Y-69063320D01*
X74257000Y-67405806D01*
X82710612Y-67405806D01*
X82730750Y-68155435D01*
X82978877Y-68754467D01*
X83271680Y-68883715D01*
X84425395Y-67730000D01*
X84784605Y-67730000D01*
X85938320Y-68883715D01*
X86231123Y-68754467D01*
X86499388Y-68054194D01*
X86479250Y-67304565D01*
X86231123Y-66705533D01*
X85938320Y-66576285D01*
X84784605Y-67730000D01*
X84425395Y-67730000D01*
X83271680Y-66576285D01*
X82978877Y-66705533D01*
X82710612Y-67405806D01*
X74257000Y-67405806D01*
X74257000Y-66396680D01*
X83451285Y-66396680D01*
X84605000Y-67550395D01*
X85758715Y-66396680D01*
X85629467Y-66103877D01*
X84929194Y-65835612D01*
X84179565Y-65855750D01*
X83580533Y-66103877D01*
X83451285Y-66396680D01*
X74257000Y-66396680D01*
X74257000Y-64129532D01*
X121497073Y-64129532D01*
X121595736Y-64396387D01*
X122205461Y-64622908D01*
X122855460Y-64598856D01*
X123344264Y-64396387D01*
X123442927Y-64129532D01*
X122470000Y-63156605D01*
X121497073Y-64129532D01*
X74257000Y-64129532D01*
X74257000Y-60780000D01*
X110147560Y-60780000D01*
X110147560Y-62380000D01*
X110196843Y-62627765D01*
X110337191Y-62837809D01*
X110547235Y-62978157D01*
X110795000Y-63027440D01*
X112395000Y-63027440D01*
X112642765Y-62978157D01*
X112852809Y-62837809D01*
X112936564Y-62712461D01*
X120824092Y-62712461D01*
X120848144Y-63362460D01*
X121050613Y-63851264D01*
X121317468Y-63949927D01*
X122290395Y-62977000D01*
X122649605Y-62977000D01*
X123622532Y-63949927D01*
X123889387Y-63851264D01*
X124115908Y-63241539D01*
X124091856Y-62591540D01*
X123889387Y-62102736D01*
X123622532Y-62004073D01*
X122649605Y-62977000D01*
X122290395Y-62977000D01*
X121317468Y-62004073D01*
X121050613Y-62102736D01*
X120824092Y-62712461D01*
X112936564Y-62712461D01*
X112993157Y-62627765D01*
X113042440Y-62380000D01*
X113042440Y-61824468D01*
X121497073Y-61824468D01*
X122470000Y-62797395D01*
X123442927Y-61824468D01*
X123344264Y-61557613D01*
X122734539Y-61331092D01*
X122084540Y-61355144D01*
X121595736Y-61557613D01*
X121497073Y-61824468D01*
X113042440Y-61824468D01*
X113042440Y-60780000D01*
X112993157Y-60532235D01*
X112852809Y-60322191D01*
X112642765Y-60181843D01*
X112408813Y-60135307D01*
X112423139Y-60087745D01*
X111595000Y-59259605D01*
X110766861Y-60087745D01*
X110781187Y-60135307D01*
X110547235Y-60181843D01*
X110337191Y-60322191D01*
X110196843Y-60532235D01*
X110147560Y-60780000D01*
X74257000Y-60780000D01*
X74257000Y-58863223D01*
X110148035Y-58863223D01*
X110175222Y-59433454D01*
X110341136Y-59834005D01*
X110587255Y-59908139D01*
X111415395Y-59080000D01*
X111774605Y-59080000D01*
X112602745Y-59908139D01*
X112848864Y-59834005D01*
X113041965Y-59296777D01*
X113014778Y-58726546D01*
X112848864Y-58325995D01*
X112602745Y-58251861D01*
X111774605Y-59080000D01*
X111415395Y-59080000D01*
X110587255Y-58251861D01*
X110341136Y-58325995D01*
X110148035Y-58863223D01*
X74257000Y-58863223D01*
X74257000Y-58072255D01*
X110766861Y-58072255D01*
X111595000Y-58900395D01*
X112423139Y-58072255D01*
X112349005Y-57826136D01*
X111811777Y-57633035D01*
X111241546Y-57660222D01*
X110840995Y-57826136D01*
X110766861Y-58072255D01*
X74257000Y-58072255D01*
X74257000Y-50707600D01*
X86853605Y-50707600D01*
X86601231Y-50876231D01*
X86601231Y-50876231D01*
G37*
X86601231Y-50876231D02*
X86510014Y-51012747D01*
X84140788Y-53381973D01*
X83537233Y-53631974D01*
X83006974Y-54162233D01*
X82720000Y-54855050D01*
X82720000Y-55604950D01*
X83006974Y-56297767D01*
X83537233Y-56828026D01*
X84230050Y-57115000D01*
X84979950Y-57115000D01*
X85672767Y-56828026D01*
X86203026Y-56297767D01*
X86453027Y-55694212D01*
X87552239Y-54595000D01*
X120087969Y-54595000D01*
X120120000Y-54756031D01*
X120120000Y-54920222D01*
X120182833Y-55071914D01*
X120214864Y-55232945D01*
X120306081Y-55369461D01*
X120368914Y-55521153D01*
X120485014Y-55637253D01*
X120576231Y-55773769D01*
X120712747Y-55864986D01*
X120828847Y-55981086D01*
X120980539Y-56043919D01*
X121117055Y-56135136D01*
X121278086Y-56167167D01*
X121429778Y-56230000D01*
X124252762Y-56230000D01*
X125835001Y-57812240D01*
X125835000Y-61914458D01*
X125822560Y-61977000D01*
X125822560Y-63977000D01*
X125835000Y-64039541D01*
X125835001Y-71613000D01*
X123914000Y-71613000D01*
X123865399Y-71622667D01*
X123824197Y-71650197D01*
X123796667Y-71691399D01*
X123787000Y-71740000D01*
X123787000Y-91806000D01*
X123796667Y-91854601D01*
X123824197Y-91895803D01*
X123865399Y-91923333D01*
X123914000Y-91933000D01*
X153124000Y-91933000D01*
X153172601Y-91923333D01*
X153213803Y-91895803D01*
X153241333Y-91854601D01*
X153251000Y-91806000D01*
X153251000Y-71740000D01*
X153241333Y-71691399D01*
X153213803Y-71650197D01*
X153172601Y-71622667D01*
X153124000Y-71613000D01*
X129105000Y-71613000D01*
X129105000Y-69736234D01*
X131796004Y-69736234D01*
X131796004Y-70187766D01*
X131968797Y-70604926D01*
X132288078Y-70924207D01*
X132705238Y-71097000D01*
X133156770Y-71097000D01*
X133573930Y-70924207D01*
X133651137Y-70847000D01*
X139449867Y-70847000D01*
X139527074Y-70924207D01*
X139944234Y-71097000D01*
X140395766Y-71097000D01*
X140812926Y-70924207D01*
X140890127Y-70847006D01*
X143259861Y-70847006D01*
X143337068Y-70924213D01*
X143754228Y-71097006D01*
X144205760Y-71097006D01*
X144622920Y-70924213D01*
X144942201Y-70604932D01*
X145114994Y-70187772D01*
X145114994Y-69736240D01*
X144942201Y-69319080D01*
X144622920Y-68999799D01*
X144205760Y-68827006D01*
X143754228Y-68827006D01*
X143337068Y-68999799D01*
X143259861Y-69077006D01*
X140890139Y-69077006D01*
X140812926Y-68999793D01*
X140395766Y-68827000D01*
X139944234Y-68827000D01*
X139527074Y-68999793D01*
X139449867Y-69077000D01*
X133651137Y-69077000D01*
X133573930Y-68999793D01*
X133156770Y-68827000D01*
X132705238Y-68827000D01*
X132288078Y-68999793D01*
X131968797Y-69319074D01*
X131796004Y-69736234D01*
X129105000Y-69736234D01*
X129105000Y-64039541D01*
X129117440Y-63977000D01*
X129117440Y-61977000D01*
X129105000Y-61914459D01*
X129105000Y-57296025D01*
X129137030Y-57134999D01*
X129105000Y-56973973D01*
X129105000Y-56973969D01*
X129010136Y-56497055D01*
X128648769Y-55956231D01*
X128512253Y-55865014D01*
X126199988Y-53552750D01*
X126108769Y-53416231D01*
X125567945Y-53054864D01*
X125091031Y-52960000D01*
X125091030Y-52960000D01*
X124930000Y-52927969D01*
X124768970Y-52960000D01*
X121429778Y-52960000D01*
X121278086Y-53022833D01*
X121117055Y-53054864D01*
X120980539Y-53146081D01*
X120828847Y-53208914D01*
X120712747Y-53325014D01*
X120576231Y-53416231D01*
X120485014Y-53552747D01*
X120368914Y-53668847D01*
X120306081Y-53820539D01*
X120214864Y-53957055D01*
X120182833Y-54118086D01*
X120120000Y-54269778D01*
X120120000Y-54433969D01*
X120087969Y-54595000D01*
X87552239Y-54595000D01*
X88457239Y-53690000D01*
X112187761Y-53690000D01*
X112573847Y-54076086D01*
X112725540Y-54138920D01*
X112862055Y-54230136D01*
X113023086Y-54262167D01*
X113174778Y-54325000D01*
X113338969Y-54325000D01*
X113500000Y-54357031D01*
X113661031Y-54325000D01*
X113825222Y-54325000D01*
X113976914Y-54262167D01*
X114137945Y-54230136D01*
X114274461Y-54138919D01*
X114426153Y-54076086D01*
X114542253Y-53959986D01*
X114678769Y-53868769D01*
X114769986Y-53732253D01*
X114886086Y-53616153D01*
X114948919Y-53464461D01*
X115040136Y-53327945D01*
X115072167Y-53166914D01*
X115135000Y-53015222D01*
X115135000Y-52851031D01*
X115167031Y-52690000D01*
X115135000Y-52528969D01*
X115135000Y-52364778D01*
X115072167Y-52213086D01*
X115044701Y-52075000D01*
X130925560Y-52075000D01*
X130925560Y-54575000D01*
X130974843Y-54822765D01*
X131115191Y-55032809D01*
X131325235Y-55173157D01*
X131573000Y-55222440D01*
X133273000Y-55222440D01*
X133520765Y-55173157D01*
X133730809Y-55032809D01*
X133871157Y-54822765D01*
X133880184Y-54777381D01*
X133892375Y-54795625D01*
X134383583Y-55123839D01*
X134963000Y-55239092D01*
X135542418Y-55123839D01*
X136033625Y-54795625D01*
X136240232Y-54486416D01*
X136542749Y-54864856D01*
X137052048Y-55145562D01*
X137146110Y-55166476D01*
X137376000Y-55045155D01*
X137376000Y-53452000D01*
X137356000Y-53452000D01*
X137356000Y-53198000D01*
X137376000Y-53198000D01*
X137376000Y-51604845D01*
X137630000Y-51604845D01*
X137630000Y-53198000D01*
X137650000Y-53198000D01*
X137650000Y-53452000D01*
X137630000Y-53452000D01*
X137630000Y-55045155D01*
X137859890Y-55166476D01*
X137953952Y-55145562D01*
X138463251Y-54864856D01*
X138765768Y-54486416D01*
X138972375Y-54795625D01*
X139463583Y-55123839D01*
X140043000Y-55239092D01*
X140622418Y-55123839D01*
X141113625Y-54795625D01*
X141313000Y-54497239D01*
X141512375Y-54795625D01*
X142003583Y-55123839D01*
X142583000Y-55239092D01*
X143162418Y-55123839D01*
X143653625Y-54795625D01*
X143853000Y-54497239D01*
X144052375Y-54795625D01*
X144543583Y-55123839D01*
X145123000Y-55239092D01*
X145702418Y-55123839D01*
X146193625Y-54795625D01*
X146521839Y-54304418D01*
X146608000Y-53871255D01*
X146608000Y-52778744D01*
X146521839Y-52345582D01*
X146193625Y-51854375D01*
X145702417Y-51526161D01*
X145123000Y-51410908D01*
X144543582Y-51526161D01*
X144052375Y-51854375D01*
X143853000Y-52152761D01*
X143653625Y-51854375D01*
X143162417Y-51526161D01*
X142583000Y-51410908D01*
X142003582Y-51526161D01*
X141512375Y-51854375D01*
X141313000Y-52152761D01*
X141113625Y-51854375D01*
X140622417Y-51526161D01*
X140043000Y-51410908D01*
X139463582Y-51526161D01*
X138972375Y-51854375D01*
X138765769Y-52163584D01*
X138463251Y-51785144D01*
X137953952Y-51504438D01*
X137859890Y-51483524D01*
X137630000Y-51604845D01*
X137376000Y-51604845D01*
X137146110Y-51483524D01*
X137052048Y-51504438D01*
X136542749Y-51785144D01*
X136240232Y-52163584D01*
X136033625Y-51854375D01*
X135542417Y-51526161D01*
X134963000Y-51410908D01*
X134383582Y-51526161D01*
X133892375Y-51854375D01*
X133880184Y-51872619D01*
X133871157Y-51827235D01*
X133730809Y-51617191D01*
X133520765Y-51476843D01*
X133273000Y-51427560D01*
X131573000Y-51427560D01*
X131325235Y-51476843D01*
X131115191Y-51617191D01*
X130974843Y-51827235D01*
X130925560Y-52075000D01*
X115044701Y-52075000D01*
X115040136Y-52052055D01*
X114948920Y-51915540D01*
X114886086Y-51763847D01*
X114426153Y-51303914D01*
X114426151Y-51303913D01*
X114134988Y-51012750D01*
X114043769Y-50876231D01*
X113791395Y-50707600D01*
X152169510Y-50707600D01*
X154293600Y-52831691D01*
X154293601Y-118816908D01*
X153820509Y-119290000D01*
X74248955Y-119290000D01*
X74250070Y-117869234D01*
X93645200Y-117869234D01*
X93645200Y-118320766D01*
X93817993Y-118737926D01*
X94137274Y-119057207D01*
X94554434Y-119230000D01*
X95005966Y-119230000D01*
X95423126Y-119057207D01*
X95742407Y-118737926D01*
X95915200Y-118320766D01*
X95915200Y-117869234D01*
X95742407Y-117452074D01*
X95540200Y-117249867D01*
X95540200Y-115942002D01*
X95637672Y-116039475D01*
X95680071Y-116102929D01*
X95743524Y-116145327D01*
X95743526Y-116145329D01*
X95868902Y-116229102D01*
X95931463Y-116270904D01*
X96153148Y-116315000D01*
X96153152Y-116315000D01*
X96227999Y-116329888D01*
X96302846Y-116315000D01*
X108971857Y-116315000D01*
X109174074Y-116517217D01*
X109591234Y-116690010D01*
X110042766Y-116690010D01*
X110459926Y-116517217D01*
X110642505Y-116334638D01*
X110825074Y-116517207D01*
X111242234Y-116690000D01*
X111693766Y-116690000D01*
X112110926Y-116517207D01*
X112430207Y-116197926D01*
X112603000Y-115780766D01*
X112603000Y-115329234D01*
X112430207Y-114912074D01*
X112228000Y-114709867D01*
X112228000Y-113724847D01*
X112242888Y-113650000D01*
X112228000Y-113575153D01*
X112228000Y-113575148D01*
X112183904Y-113353463D01*
X112015929Y-113102071D01*
X111952473Y-113059671D01*
X110493802Y-111601000D01*
X134909286Y-111601000D01*
X134909286Y-117971000D01*
X153050715Y-117971000D01*
X153050715Y-111601000D01*
X134909286Y-111601000D01*
X110493802Y-111601000D01*
X110308058Y-111415256D01*
X110172655Y-111088365D01*
X109909635Y-110825345D01*
X109565983Y-110683000D01*
X109194017Y-110683000D01*
X108850365Y-110825345D01*
X108587345Y-111088365D01*
X108445000Y-111432017D01*
X108445000Y-111803983D01*
X108587345Y-112147635D01*
X108850365Y-112410655D01*
X109194017Y-112553000D01*
X109296199Y-112553000D01*
X110708000Y-113964802D01*
X110708001Y-114709866D01*
X110642495Y-114775372D01*
X110459926Y-114592803D01*
X110042766Y-114420010D01*
X109591234Y-114420010D01*
X109174074Y-114592803D01*
X108971877Y-114795000D01*
X96542802Y-114795000D01*
X96480000Y-114732198D01*
X96480000Y-112180290D01*
X96512655Y-112147635D01*
X96655000Y-111803983D01*
X96655000Y-111432017D01*
X96512655Y-111088365D01*
X96249635Y-110825345D01*
X95905983Y-110683000D01*
X95534017Y-110683000D01*
X95250100Y-110800602D01*
X94966183Y-110683000D01*
X94594217Y-110683000D01*
X94250565Y-110825345D01*
X93987545Y-111088365D01*
X93845200Y-111432017D01*
X93845200Y-111803983D01*
X93987545Y-112147635D01*
X94020200Y-112180290D01*
X94020201Y-117249866D01*
X93817993Y-117452074D01*
X93645200Y-117869234D01*
X74250070Y-117869234D01*
X74253427Y-113593800D01*
X82646560Y-113593800D01*
X82646560Y-116093800D01*
X82695843Y-116341565D01*
X82836191Y-116551609D01*
X83046235Y-116691957D01*
X83294000Y-116741240D01*
X85794000Y-116741240D01*
X86041765Y-116691957D01*
X86251809Y-116551609D01*
X86392157Y-116341565D01*
X86441440Y-116093800D01*
X86441440Y-113593800D01*
X86392157Y-113346035D01*
X86251809Y-113135991D01*
X86041765Y-112995643D01*
X85794000Y-112946360D01*
X83294000Y-112946360D01*
X83046235Y-112995643D01*
X82836191Y-113135991D01*
X82695843Y-113346035D01*
X82646560Y-113593800D01*
X74253427Y-113593800D01*
X74262555Y-101968850D01*
X82659000Y-101968850D01*
X82659000Y-102718750D01*
X82945974Y-103411567D01*
X83476233Y-103941826D01*
X84169050Y-104228800D01*
X84918950Y-104228800D01*
X85611767Y-103941826D01*
X86142026Y-103411567D01*
X86429000Y-102718750D01*
X86429000Y-101968850D01*
X86142026Y-101276033D01*
X85611767Y-100745774D01*
X84918950Y-100458800D01*
X84169050Y-100458800D01*
X83476233Y-100745774D01*
X82945974Y-101276033D01*
X82659000Y-101968850D01*
X74262555Y-101968850D01*
X74265674Y-97997741D01*
X74419690Y-98100652D01*
X74677835Y-98152000D01*
X74677839Y-98152000D01*
X74764999Y-98169337D01*
X74852159Y-98152000D01*
X90552839Y-98152000D01*
X90640000Y-98169337D01*
X90727161Y-98152000D01*
X90727165Y-98152000D01*
X90985310Y-98100652D01*
X91278049Y-97905049D01*
X91327425Y-97831154D01*
X91406001Y-97752578D01*
X91406001Y-100456420D01*
X91162422Y-100700000D01*
X90090133Y-100700000D01*
X90012926Y-100622793D01*
X89595766Y-100450000D01*
X89144234Y-100450000D01*
X88727074Y-100622793D01*
X88407793Y-100942074D01*
X88235000Y-101359234D01*
X88235000Y-101810766D01*
X88407793Y-102227926D01*
X88727074Y-102547207D01*
X89144234Y-102720000D01*
X89595766Y-102720000D01*
X90012926Y-102547207D01*
X90090133Y-102470000D01*
X91441839Y-102470000D01*
X91529000Y-102487337D01*
X91616161Y-102470000D01*
X91616165Y-102470000D01*
X91874310Y-102418652D01*
X92167049Y-102223049D01*
X92216425Y-102149153D01*
X92855156Y-101510423D01*
X92929049Y-101461049D01*
X92978422Y-101387157D01*
X92978424Y-101387155D01*
X93124652Y-101168310D01*
X93149766Y-101042051D01*
X93176000Y-100910164D01*
X93176000Y-100910161D01*
X93193337Y-100823000D01*
X93176000Y-100735839D01*
X93176000Y-98332684D01*
X101310471Y-106467156D01*
X101359845Y-106541049D01*
X101433738Y-106590423D01*
X101433739Y-106590424D01*
X101533488Y-106657074D01*
X101652584Y-106736652D01*
X101910729Y-106788000D01*
X101910733Y-106788000D01*
X101997893Y-106805337D01*
X102001489Y-106804622D01*
X102062074Y-106865207D01*
X102479234Y-107038000D01*
X102930766Y-107038000D01*
X103347926Y-106865207D01*
X103425133Y-106788000D01*
X115038422Y-106788000D01*
X115667000Y-107416579D01*
X115667000Y-107525766D01*
X115839793Y-107942926D01*
X116159074Y-108262207D01*
X116576234Y-108435000D01*
X117027766Y-108435000D01*
X117444926Y-108262207D01*
X117764207Y-107942926D01*
X117937000Y-107525766D01*
X117937000Y-107074234D01*
X117764207Y-106657074D01*
X117444926Y-106337793D01*
X117027766Y-106165000D01*
X116918579Y-106165000D01*
X116092425Y-105338847D01*
X116043049Y-105264951D01*
X115750310Y-105069348D01*
X115492165Y-105018000D01*
X115492161Y-105018000D01*
X115405000Y-105000663D01*
X115317839Y-105018000D01*
X103425133Y-105018000D01*
X103347926Y-104940793D01*
X102930766Y-104768000D01*
X102479234Y-104768000D01*
X102221309Y-104874836D01*
X99975469Y-102628996D01*
X100172926Y-102547207D01*
X100492207Y-102227926D01*
X100665000Y-101810766D01*
X100665000Y-101359234D01*
X100492207Y-100942074D01*
X100415000Y-100864867D01*
X100415000Y-97147759D01*
X100422049Y-97143049D01*
X100617652Y-96850310D01*
X100669000Y-96592165D01*
X100669000Y-96592160D01*
X100686337Y-96505001D01*
X100669000Y-96417841D01*
X100669000Y-96177047D01*
X100828234Y-96243004D01*
X100937426Y-96243004D01*
X103287577Y-98593156D01*
X103336951Y-98667049D01*
X103410844Y-98716423D01*
X103410845Y-98716424D01*
X103450553Y-98742956D01*
X103629690Y-98862652D01*
X103887835Y-98914000D01*
X103887839Y-98914000D01*
X103974999Y-98931337D01*
X104062159Y-98914000D01*
X107037422Y-98914000D01*
X109825000Y-101701579D01*
X109825000Y-101810766D01*
X109997793Y-102227926D01*
X110317074Y-102547207D01*
X110734234Y-102720000D01*
X111185766Y-102720000D01*
X111602926Y-102547207D01*
X111922207Y-102227926D01*
X112095000Y-101810766D01*
X112095000Y-101359234D01*
X111922207Y-100942074D01*
X111602926Y-100622793D01*
X111185766Y-100450000D01*
X111076579Y-100450000D01*
X108091425Y-97464847D01*
X108042049Y-97390951D01*
X107749310Y-97195348D01*
X107491165Y-97144000D01*
X107491161Y-97144000D01*
X107404000Y-97126663D01*
X107316839Y-97144000D01*
X104341579Y-97144000D01*
X104037850Y-96840272D01*
X104363926Y-96705207D01*
X104683207Y-96385926D01*
X104856000Y-95968766D01*
X104856000Y-95517234D01*
X104683207Y-95100074D01*
X104363926Y-94780793D01*
X103946766Y-94608000D01*
X103837579Y-94608000D01*
X102376425Y-93146847D01*
X102327049Y-93072951D01*
X102034310Y-92877348D01*
X101776165Y-92826000D01*
X101776161Y-92826000D01*
X101689000Y-92808663D01*
X101601839Y-92826000D01*
X99234133Y-92826000D01*
X99156926Y-92748793D01*
X98739766Y-92576000D01*
X98288234Y-92576000D01*
X97871074Y-92748793D01*
X97551793Y-93068074D01*
X97379000Y-93485234D01*
X97379000Y-93936766D01*
X97551793Y-94353926D01*
X97871074Y-94673207D01*
X98288234Y-94846000D01*
X98664009Y-94846000D01*
X98649000Y-94882234D01*
X98649000Y-95333766D01*
X98821793Y-95750926D01*
X98899000Y-95828133D01*
X98899000Y-96116241D01*
X98891952Y-96120951D01*
X98842578Y-96194844D01*
X98842576Y-96194846D01*
X98696348Y-96413691D01*
X98627663Y-96759000D01*
X98645001Y-96846165D01*
X98645000Y-100864867D01*
X98567793Y-100942074D01*
X98486004Y-101139531D01*
X94065000Y-96718528D01*
X94065000Y-90113147D01*
X94142207Y-90035940D01*
X94186405Y-89929234D01*
X102586000Y-89929234D01*
X102586000Y-90380766D01*
X102758793Y-90797926D01*
X103078074Y-91117207D01*
X103495234Y-91290000D01*
X103946766Y-91290000D01*
X104363926Y-91117207D01*
X104441133Y-91040000D01*
X106021422Y-91040000D01*
X111603000Y-96621579D01*
X111603000Y-96730766D01*
X111775793Y-97147926D01*
X112095074Y-97467207D01*
X112512234Y-97640000D01*
X112963766Y-97640000D01*
X113380926Y-97467207D01*
X113700207Y-97147926D01*
X113873000Y-96730766D01*
X113873000Y-96279234D01*
X113860642Y-96249398D01*
X118311000Y-96249398D01*
X118311000Y-96760602D01*
X118506629Y-97232894D01*
X118868106Y-97594371D01*
X119340398Y-97790000D01*
X119568560Y-97790000D01*
X119568560Y-98425000D01*
X119617843Y-98672765D01*
X119758191Y-98882809D01*
X119968235Y-99023157D01*
X120216000Y-99072440D01*
X121516000Y-99072440D01*
X121763765Y-99023157D01*
X121973809Y-98882809D01*
X122114157Y-98672765D01*
X122163440Y-98425000D01*
X122163440Y-97125000D01*
X122114157Y-96877235D01*
X121973809Y-96667191D01*
X121763765Y-96526843D01*
X121652595Y-96504730D01*
X132982013Y-96504730D01*
X132982013Y-98229300D01*
X133641977Y-99822595D01*
X134861433Y-101042051D01*
X136454728Y-101702015D01*
X138179298Y-101702015D01*
X139772593Y-101042051D01*
X140992049Y-99822595D01*
X141652013Y-98229300D01*
X141652013Y-96504730D01*
X140992049Y-94911435D01*
X139772593Y-93691979D01*
X138179298Y-93032015D01*
X136454728Y-93032015D01*
X134861433Y-93691979D01*
X133641977Y-94911435D01*
X132982013Y-96504730D01*
X121652595Y-96504730D01*
X121516000Y-96477560D01*
X121257046Y-96477560D01*
X121529729Y-96364611D01*
X121585410Y-96134016D01*
X120866000Y-95414605D01*
X120851858Y-95428748D01*
X120672253Y-95249143D01*
X120686395Y-95235000D01*
X121045605Y-95235000D01*
X121765016Y-95954410D01*
X121995611Y-95898729D01*
X122163622Y-95415922D01*
X122134083Y-94905572D01*
X121995611Y-94571271D01*
X121765016Y-94515590D01*
X121045605Y-95235000D01*
X120686395Y-95235000D01*
X119966984Y-94515590D01*
X119736389Y-94571271D01*
X119568378Y-95054078D01*
X119577982Y-95220000D01*
X119340398Y-95220000D01*
X118868106Y-95415629D01*
X118506629Y-95777106D01*
X118311000Y-96249398D01*
X113860642Y-96249398D01*
X113700207Y-95862074D01*
X113380926Y-95542793D01*
X112963766Y-95370000D01*
X112854579Y-95370000D01*
X111820563Y-94335984D01*
X120146590Y-94335984D01*
X120866000Y-95055395D01*
X121585410Y-94335984D01*
X121529729Y-94105389D01*
X121046922Y-93937378D01*
X120536572Y-93966917D01*
X120202271Y-94105389D01*
X120146590Y-94335984D01*
X111820563Y-94335984D01*
X107075425Y-89590847D01*
X107026049Y-89516951D01*
X106733310Y-89321348D01*
X106475165Y-89270000D01*
X106475161Y-89270000D01*
X106388000Y-89252663D01*
X106300839Y-89270000D01*
X104441133Y-89270000D01*
X104363926Y-89192793D01*
X103946766Y-89020000D01*
X103495234Y-89020000D01*
X103078074Y-89192793D01*
X102758793Y-89512074D01*
X102586000Y-89929234D01*
X94186405Y-89929234D01*
X94315000Y-89618780D01*
X94315000Y-89167248D01*
X94142207Y-88750088D01*
X94051353Y-88659234D01*
X114905000Y-88659234D01*
X114905000Y-89110766D01*
X115077793Y-89527926D01*
X115397074Y-89847207D01*
X115814234Y-90020000D01*
X116265766Y-90020000D01*
X116382902Y-89971481D01*
X119223000Y-92811579D01*
X119223000Y-92920766D01*
X119395793Y-93337926D01*
X119715074Y-93657207D01*
X120132234Y-93830000D01*
X120583766Y-93830000D01*
X121000926Y-93657207D01*
X121320207Y-93337926D01*
X121493000Y-92920766D01*
X121493000Y-92469234D01*
X121320207Y-92052074D01*
X121000926Y-91732793D01*
X120583766Y-91560000D01*
X120474579Y-91560000D01*
X117235425Y-88320847D01*
X117186049Y-88246951D01*
X116893310Y-88051348D01*
X116791163Y-88031030D01*
X116682926Y-87922793D01*
X116265766Y-87750000D01*
X115814234Y-87750000D01*
X115397074Y-87922793D01*
X115077793Y-88242074D01*
X114905000Y-88659234D01*
X94051353Y-88659234D01*
X93822926Y-88430807D01*
X93405766Y-88258014D01*
X92954234Y-88258014D01*
X92537074Y-88430807D01*
X92217793Y-88750088D01*
X92191544Y-88813459D01*
X92001310Y-88686348D01*
X91743165Y-88635000D01*
X91743161Y-88635000D01*
X91656000Y-88617663D01*
X91568839Y-88635000D01*
X90090133Y-88635000D01*
X90012926Y-88557793D01*
X89595766Y-88385000D01*
X89144234Y-88385000D01*
X88727074Y-88557793D01*
X88407793Y-88877074D01*
X88235000Y-89294234D01*
X88235000Y-89745766D01*
X88407793Y-90162926D01*
X88727074Y-90482207D01*
X89144234Y-90655000D01*
X89595766Y-90655000D01*
X90012926Y-90482207D01*
X90090133Y-90405000D01*
X91289422Y-90405000D01*
X91406000Y-90521579D01*
X91406000Y-92576000D01*
X91049234Y-92576000D01*
X90632074Y-92748793D01*
X90312793Y-93068074D01*
X90140000Y-93485234D01*
X90140000Y-93936766D01*
X90312793Y-94353926D01*
X90390000Y-94431133D01*
X90390001Y-96265421D01*
X90273422Y-96382000D01*
X83720580Y-96382000D01*
X83912071Y-96254049D01*
X83961447Y-96180153D01*
X85041601Y-95100000D01*
X85150788Y-95100000D01*
X85567948Y-94927207D01*
X85887229Y-94607926D01*
X86060022Y-94190766D01*
X86060022Y-93739234D01*
X85887229Y-93322074D01*
X85567948Y-93002793D01*
X85150788Y-92830000D01*
X84699256Y-92830000D01*
X84282096Y-93002793D01*
X83962815Y-93322074D01*
X83790022Y-93739234D01*
X83790022Y-93848421D01*
X82907444Y-94731000D01*
X75385579Y-94731000D01*
X74630000Y-93975422D01*
X74630000Y-93866234D01*
X74457207Y-93449074D01*
X74137926Y-93129793D01*
X73720766Y-92957000D01*
X73269234Y-92957000D01*
X73132691Y-93013558D01*
X72867926Y-92748793D01*
X72450766Y-92576000D01*
X71999234Y-92576000D01*
X71582074Y-92748793D01*
X71262793Y-93068074D01*
X71090000Y-93485234D01*
X71090000Y-93936766D01*
X71262793Y-94353926D01*
X71340000Y-94431133D01*
X71340000Y-94639839D01*
X71322663Y-94727000D01*
X71340000Y-94814161D01*
X71340000Y-94814164D01*
X71391348Y-95072309D01*
X71586951Y-95365049D01*
X71660847Y-95414425D01*
X73267973Y-97021552D01*
X65367000Y-97014008D01*
X65367000Y-89266000D01*
X65357333Y-89217399D01*
X65329803Y-89176197D01*
X65288601Y-89148667D01*
X65239007Y-89139004D01*
X63462000Y-89152893D01*
X63462000Y-80404234D01*
X78710000Y-80404234D01*
X78710000Y-80855766D01*
X78882793Y-81272926D01*
X78960001Y-81350134D01*
X78960000Y-85368837D01*
X78882793Y-85446044D01*
X78710000Y-85863204D01*
X78710000Y-86314736D01*
X78882793Y-86731896D01*
X79202074Y-87051177D01*
X79619234Y-87223970D01*
X80070766Y-87223970D01*
X80487926Y-87051177D01*
X80807207Y-86731896D01*
X80980000Y-86314736D01*
X80980000Y-85863204D01*
X80807207Y-85446044D01*
X80730000Y-85368837D01*
X80730000Y-81350133D01*
X80807207Y-81272926D01*
X80980000Y-80855766D01*
X80980000Y-80404234D01*
X80807207Y-79987074D01*
X80487926Y-79667793D01*
X80070766Y-79495000D01*
X79619234Y-79495000D01*
X79202074Y-79667793D01*
X78882793Y-79987074D01*
X78710000Y-80404234D01*
X63462000Y-80404234D01*
X63462000Y-75324234D01*
X67407000Y-75324234D01*
X67407000Y-75775766D01*
X67579793Y-76192926D01*
X67635367Y-76248500D01*
X67579793Y-76304074D01*
X67407000Y-76721234D01*
X67407000Y-77172766D01*
X67579793Y-77589926D01*
X67899074Y-77909207D01*
X68316234Y-78082000D01*
X68767766Y-78082000D01*
X69184926Y-77909207D01*
X69262133Y-77832000D01*
X75947839Y-77832000D01*
X76035000Y-77849337D01*
X76122161Y-77832000D01*
X76122165Y-77832000D01*
X76380310Y-77780652D01*
X76673049Y-77585049D01*
X76722425Y-77511153D01*
X78433579Y-75800000D01*
X83034422Y-75800000D01*
X83790000Y-76555579D01*
X83790000Y-76664766D01*
X83962793Y-77081926D01*
X84282074Y-77401207D01*
X84699234Y-77574000D01*
X85150766Y-77574000D01*
X85567926Y-77401207D01*
X85887207Y-77081926D01*
X85985074Y-76845653D01*
X86072000Y-76932579D01*
X86072001Y-77930726D01*
X86072000Y-77930730D01*
X86072000Y-78004867D01*
X85994793Y-78082074D01*
X85822000Y-78499234D01*
X85822000Y-78950766D01*
X85994793Y-79367926D01*
X86314074Y-79687207D01*
X86731234Y-79860000D01*
X87182766Y-79860000D01*
X87599926Y-79687207D01*
X87919207Y-79367926D01*
X88092000Y-78950766D01*
X88092000Y-78499234D01*
X87919207Y-78082074D01*
X87842000Y-78004867D01*
X87842000Y-76653161D01*
X87859337Y-76566000D01*
X87842000Y-76478839D01*
X87842000Y-76478835D01*
X87790652Y-76220690D01*
X87676600Y-76050000D01*
X87644424Y-76001845D01*
X87644423Y-76001844D01*
X87595049Y-75927951D01*
X87521156Y-75878577D01*
X86331813Y-74689234D01*
X96490000Y-74689234D01*
X96490000Y-75140766D01*
X96662793Y-75557926D01*
X96982074Y-75877207D01*
X97399234Y-76050000D01*
X97850766Y-76050000D01*
X98267926Y-75877207D01*
X98345133Y-75800000D01*
X99171421Y-75800000D01*
X97926367Y-77045055D01*
X97852474Y-77094429D01*
X97803100Y-77168322D01*
X97803098Y-77168324D01*
X97656870Y-77387169D01*
X97588185Y-77732478D01*
X97605523Y-77819643D01*
X97605522Y-83057165D01*
X97528315Y-83134372D01*
X97355522Y-83551532D01*
X97355522Y-84003064D01*
X97528315Y-84420224D01*
X97847596Y-84739505D01*
X98264756Y-84912298D01*
X98716288Y-84912298D01*
X99119245Y-84745388D01*
X99141074Y-84767217D01*
X99558234Y-84940010D01*
X100009766Y-84940010D01*
X100426926Y-84767217D01*
X100746207Y-84447936D01*
X100919000Y-84030776D01*
X100919000Y-83579244D01*
X100746207Y-83162084D01*
X100669000Y-83084877D01*
X100669000Y-80715133D01*
X100746207Y-80637926D01*
X100919000Y-80220766D01*
X100919000Y-79769234D01*
X100746207Y-79352074D01*
X100426926Y-79032793D01*
X100009766Y-78860000D01*
X99558234Y-78860000D01*
X99375522Y-78935682D01*
X99375522Y-78099056D01*
X100658579Y-76816000D01*
X107572867Y-76816000D01*
X107650074Y-76893207D01*
X108067234Y-77066000D01*
X108518766Y-77066000D01*
X108935926Y-76893207D01*
X109255207Y-76573926D01*
X109428000Y-76156766D01*
X109428000Y-76049996D01*
X109661766Y-76049996D01*
X110078926Y-75877203D01*
X110398207Y-75557922D01*
X110571000Y-75140762D01*
X110571000Y-74689230D01*
X110398207Y-74272070D01*
X110078926Y-73952789D01*
X109661766Y-73779996D01*
X109210234Y-73779996D01*
X108793074Y-73952789D01*
X108715863Y-74030000D01*
X98345133Y-74030000D01*
X98267926Y-73952793D01*
X97850766Y-73780000D01*
X97399234Y-73780000D01*
X96982074Y-73952793D01*
X96662793Y-74272074D01*
X96490000Y-74689234D01*
X86331813Y-74689234D01*
X84723425Y-73080847D01*
X84674049Y-73006951D01*
X84381310Y-72811348D01*
X84123165Y-72760000D01*
X84123161Y-72760000D01*
X84036000Y-72742663D01*
X83948839Y-72760000D01*
X81073133Y-72760000D01*
X80995926Y-72682793D01*
X80578766Y-72510000D01*
X80127234Y-72510000D01*
X79710074Y-72682793D01*
X79390793Y-73002074D01*
X79218000Y-73419234D01*
X79218000Y-73870766D01*
X79283957Y-74030000D01*
X78154161Y-74030000D01*
X78067000Y-74012663D01*
X77979839Y-74030000D01*
X77979835Y-74030000D01*
X77721710Y-74081344D01*
X77721690Y-74081348D01*
X77613864Y-74153395D01*
X77505207Y-73891074D01*
X77185926Y-73571793D01*
X76768766Y-73399000D01*
X76317234Y-73399000D01*
X75900074Y-73571793D01*
X75580793Y-73891074D01*
X75408000Y-74308234D01*
X75408000Y-74417421D01*
X74779422Y-75046000D01*
X69996684Y-75046000D01*
X69936531Y-74985847D01*
X69887155Y-74911951D01*
X69594416Y-74716348D01*
X69336271Y-74665000D01*
X69336267Y-74665000D01*
X69249106Y-74647663D01*
X69245511Y-74648378D01*
X69184926Y-74587793D01*
X68767766Y-74415000D01*
X68316234Y-74415000D01*
X67899074Y-74587793D01*
X67579793Y-74907074D01*
X67407000Y-75324234D01*
X63462000Y-75324234D01*
X63462000Y-71867000D01*
X74130000Y-71867000D01*
X74178601Y-71857333D01*
X74219803Y-71829803D01*
X74247333Y-71788601D01*
X74257000Y-71740000D01*
X74257000Y-69063320D01*
X83451285Y-69063320D01*
X83580533Y-69356123D01*
X84280806Y-69624388D01*
X85030435Y-69604250D01*
X85629467Y-69356123D01*
X85758715Y-69063320D01*
X84605000Y-67909605D01*
X83451285Y-69063320D01*
X74257000Y-69063320D01*
X74257000Y-67405806D01*
X82710612Y-67405806D01*
X82730750Y-68155435D01*
X82978877Y-68754467D01*
X83271680Y-68883715D01*
X84425395Y-67730000D01*
X84784605Y-67730000D01*
X85938320Y-68883715D01*
X86231123Y-68754467D01*
X86499388Y-68054194D01*
X86479250Y-67304565D01*
X86231123Y-66705533D01*
X85938320Y-66576285D01*
X84784605Y-67730000D01*
X84425395Y-67730000D01*
X83271680Y-66576285D01*
X82978877Y-66705533D01*
X82710612Y-67405806D01*
X74257000Y-67405806D01*
X74257000Y-66396680D01*
X83451285Y-66396680D01*
X84605000Y-67550395D01*
X85758715Y-66396680D01*
X85629467Y-66103877D01*
X84929194Y-65835612D01*
X84179565Y-65855750D01*
X83580533Y-66103877D01*
X83451285Y-66396680D01*
X74257000Y-66396680D01*
X74257000Y-64129532D01*
X121497073Y-64129532D01*
X121595736Y-64396387D01*
X122205461Y-64622908D01*
X122855460Y-64598856D01*
X123344264Y-64396387D01*
X123442927Y-64129532D01*
X122470000Y-63156605D01*
X121497073Y-64129532D01*
X74257000Y-64129532D01*
X74257000Y-60780000D01*
X110147560Y-60780000D01*
X110147560Y-62380000D01*
X110196843Y-62627765D01*
X110337191Y-62837809D01*
X110547235Y-62978157D01*
X110795000Y-63027440D01*
X112395000Y-63027440D01*
X112642765Y-62978157D01*
X112852809Y-62837809D01*
X112936564Y-62712461D01*
X120824092Y-62712461D01*
X120848144Y-63362460D01*
X121050613Y-63851264D01*
X121317468Y-63949927D01*
X122290395Y-62977000D01*
X122649605Y-62977000D01*
X123622532Y-63949927D01*
X123889387Y-63851264D01*
X124115908Y-63241539D01*
X124091856Y-62591540D01*
X123889387Y-62102736D01*
X123622532Y-62004073D01*
X122649605Y-62977000D01*
X122290395Y-62977000D01*
X121317468Y-62004073D01*
X121050613Y-62102736D01*
X120824092Y-62712461D01*
X112936564Y-62712461D01*
X112993157Y-62627765D01*
X113042440Y-62380000D01*
X113042440Y-61824468D01*
X121497073Y-61824468D01*
X122470000Y-62797395D01*
X123442927Y-61824468D01*
X123344264Y-61557613D01*
X122734539Y-61331092D01*
X122084540Y-61355144D01*
X121595736Y-61557613D01*
X121497073Y-61824468D01*
X113042440Y-61824468D01*
X113042440Y-60780000D01*
X112993157Y-60532235D01*
X112852809Y-60322191D01*
X112642765Y-60181843D01*
X112408813Y-60135307D01*
X112423139Y-60087745D01*
X111595000Y-59259605D01*
X110766861Y-60087745D01*
X110781187Y-60135307D01*
X110547235Y-60181843D01*
X110337191Y-60322191D01*
X110196843Y-60532235D01*
X110147560Y-60780000D01*
X74257000Y-60780000D01*
X74257000Y-58863223D01*
X110148035Y-58863223D01*
X110175222Y-59433454D01*
X110341136Y-59834005D01*
X110587255Y-59908139D01*
X111415395Y-59080000D01*
X111774605Y-59080000D01*
X112602745Y-59908139D01*
X112848864Y-59834005D01*
X113041965Y-59296777D01*
X113014778Y-58726546D01*
X112848864Y-58325995D01*
X112602745Y-58251861D01*
X111774605Y-59080000D01*
X111415395Y-59080000D01*
X110587255Y-58251861D01*
X110341136Y-58325995D01*
X110148035Y-58863223D01*
X74257000Y-58863223D01*
X74257000Y-58072255D01*
X110766861Y-58072255D01*
X111595000Y-58900395D01*
X112423139Y-58072255D01*
X112349005Y-57826136D01*
X111811777Y-57633035D01*
X111241546Y-57660222D01*
X110840995Y-57826136D01*
X110766861Y-58072255D01*
X74257000Y-58072255D01*
X74257000Y-50707600D01*
X86853605Y-50707600D01*
X86601231Y-50876231D01*
G36*
X67653000Y-69708000D02*
X62204720Y-69708000D01*
X62471397Y-69063320D01*
X63451285Y-69063320D01*
X63580533Y-69356123D01*
X64280806Y-69624388D01*
X65030435Y-69604250D01*
X65629467Y-69356123D01*
X65758715Y-69063320D01*
X64605000Y-67909605D01*
X63451285Y-69063320D01*
X62471397Y-69063320D01*
X62635294Y-68667108D01*
X62634705Y-67419928D01*
X62628856Y-67405806D01*
X62710612Y-67405806D01*
X62730750Y-68155435D01*
X62978877Y-68754467D01*
X63271680Y-68883715D01*
X64425395Y-67730000D01*
X64784605Y-67730000D01*
X65938320Y-68883715D01*
X66231123Y-68754467D01*
X66499388Y-68054194D01*
X66479250Y-67304565D01*
X66231123Y-66705533D01*
X65938320Y-66576285D01*
X64784605Y-67730000D01*
X64425395Y-67730000D01*
X63271680Y-66576285D01*
X62978877Y-66705533D01*
X62710612Y-67405806D01*
X62628856Y-67405806D01*
X62210863Y-66396680D01*
X63451285Y-66396680D01*
X64605000Y-67550395D01*
X65758715Y-66396680D01*
X65629467Y-66103877D01*
X64929194Y-65835612D01*
X64179565Y-65855750D01*
X63580533Y-66103877D01*
X63451285Y-66396680D01*
X62210863Y-66396680D01*
X62158564Y-66270421D01*
X61735880Y-65988725D01*
X59679605Y-68045000D01*
X59693748Y-68059143D01*
X59514143Y-68238748D01*
X59500000Y-68224605D01*
X57443725Y-70280880D01*
X57520043Y-70395394D01*
X57502667Y-70421399D01*
X57493000Y-70470000D01*
X57493000Y-74988125D01*
X57301333Y-74950000D01*
X56618667Y-74950000D01*
X56200091Y-75033260D01*
X55725423Y-75350423D01*
X55408260Y-75825091D01*
X55296887Y-76385000D01*
X55408260Y-76944909D01*
X55725423Y-77419577D01*
X56200091Y-77736740D01*
X56367300Y-77770000D01*
X56200091Y-77803260D01*
X55725423Y-78120423D01*
X55408260Y-78595091D01*
X55296887Y-79155000D01*
X55408260Y-79714909D01*
X55725423Y-80189577D01*
X56200091Y-80506740D01*
X56367300Y-80540000D01*
X56200091Y-80573260D01*
X55725423Y-80890423D01*
X55408260Y-81365091D01*
X55296887Y-81925000D01*
X55408260Y-82484909D01*
X55725423Y-82959577D01*
X56200091Y-83276740D01*
X56367300Y-83310000D01*
X56200091Y-83343260D01*
X55725423Y-83660423D01*
X55408260Y-84135091D01*
X55296887Y-84695000D01*
X55408260Y-85254909D01*
X55725423Y-85729577D01*
X56200091Y-86046740D01*
X56367300Y-86080000D01*
X56200091Y-86113260D01*
X55725423Y-86430423D01*
X55408260Y-86905091D01*
X55296887Y-87465000D01*
X55408260Y-88024909D01*
X55725423Y-88499577D01*
X56200091Y-88816740D01*
X56367300Y-88850000D01*
X56200091Y-88883260D01*
X55725423Y-89200423D01*
X55408260Y-89675091D01*
X55296887Y-90235000D01*
X55408260Y-90794909D01*
X55725423Y-91269577D01*
X56200091Y-91586740D01*
X56367300Y-91620000D01*
X56200091Y-91653260D01*
X55725423Y-91970423D01*
X55408260Y-92445091D01*
X55296887Y-93005000D01*
X55408260Y-93564909D01*
X55725423Y-94039577D01*
X56200091Y-94356740D01*
X56618667Y-94440000D01*
X57301333Y-94440000D01*
X57719909Y-94356740D01*
X58152560Y-94067652D01*
X58152560Y-95190000D01*
X58201843Y-95437765D01*
X58342191Y-95647809D01*
X58552235Y-95788157D01*
X58800000Y-95837440D01*
X60800000Y-95837440D01*
X61047765Y-95788157D01*
X61257809Y-95647809D01*
X61303000Y-95580176D01*
X61303000Y-98729082D01*
X61274579Y-98686436D01*
X60122108Y-98209706D01*
X58874928Y-98210295D01*
X57725421Y-98686436D01*
X57443725Y-99109120D01*
X59500000Y-101165395D01*
X59514143Y-101151253D01*
X59693748Y-101330858D01*
X59679605Y-101345000D01*
X59693748Y-101359143D01*
X59514143Y-101538748D01*
X59500000Y-101524605D01*
X57443725Y-103580880D01*
X57725421Y-104003564D01*
X58877892Y-104480294D01*
X60125072Y-104479705D01*
X61274579Y-104003564D01*
X61303000Y-103960918D01*
X61303000Y-119290000D01*
X52834091Y-119290000D01*
X50710000Y-117165910D01*
X50710000Y-100722892D01*
X56364706Y-100722892D01*
X56365295Y-101970072D01*
X56841436Y-103119579D01*
X57264120Y-103401275D01*
X59320395Y-101345000D01*
X57264120Y-99288725D01*
X56841436Y-99570421D01*
X56364706Y-100722892D01*
X50710000Y-100722892D01*
X50710000Y-67422892D01*
X56364706Y-67422892D01*
X56365295Y-68670072D01*
X56841436Y-69819579D01*
X57264120Y-70101275D01*
X59320395Y-68045000D01*
X57264120Y-65988725D01*
X56841436Y-66270421D01*
X56364706Y-67422892D01*
X50710000Y-67422892D01*
X50710000Y-65809120D01*
X57443725Y-65809120D01*
X59500000Y-67865395D01*
X61556275Y-65809120D01*
X61274579Y-65386436D01*
X60122108Y-64909706D01*
X58874928Y-64910295D01*
X57725421Y-65386436D01*
X57443725Y-65809120D01*
X50710000Y-65809120D01*
X50710000Y-60187500D01*
X57957857Y-60187500D01*
X57957857Y-63107500D01*
X61092143Y-63107500D01*
X61092143Y-60187500D01*
X57957857Y-60187500D01*
X50710000Y-60187500D01*
X50710000Y-53980000D01*
X62707560Y-53980000D01*
X62707560Y-56480000D01*
X62756843Y-56727765D01*
X62897191Y-56937809D01*
X63107235Y-57078157D01*
X63355000Y-57127440D01*
X65855000Y-57127440D01*
X66102765Y-57078157D01*
X66312809Y-56937809D01*
X66453157Y-56727765D01*
X66502440Y-56480000D01*
X66502440Y-53980000D01*
X66453157Y-53732235D01*
X66312809Y-53522191D01*
X66102765Y-53381843D01*
X65855000Y-53332560D01*
X63355000Y-53332560D01*
X63107235Y-53381843D01*
X62897191Y-53522191D01*
X62756843Y-53732235D01*
X62707560Y-53980000D01*
X50710000Y-53980000D01*
X50710000Y-52831690D01*
X52834091Y-50707600D01*
X67653000Y-50707600D01*
X67653000Y-69708000D01*
X67653000Y-69708000D01*
G37*
X67653000Y-69708000D02*
X62204720Y-69708000D01*
X62471397Y-69063320D01*
X63451285Y-69063320D01*
X63580533Y-69356123D01*
X64280806Y-69624388D01*
X65030435Y-69604250D01*
X65629467Y-69356123D01*
X65758715Y-69063320D01*
X64605000Y-67909605D01*
X63451285Y-69063320D01*
X62471397Y-69063320D01*
X62635294Y-68667108D01*
X62634705Y-67419928D01*
X62628856Y-67405806D01*
X62710612Y-67405806D01*
X62730750Y-68155435D01*
X62978877Y-68754467D01*
X63271680Y-68883715D01*
X64425395Y-67730000D01*
X64784605Y-67730000D01*
X65938320Y-68883715D01*
X66231123Y-68754467D01*
X66499388Y-68054194D01*
X66479250Y-67304565D01*
X66231123Y-66705533D01*
X65938320Y-66576285D01*
X64784605Y-67730000D01*
X64425395Y-67730000D01*
X63271680Y-66576285D01*
X62978877Y-66705533D01*
X62710612Y-67405806D01*
X62628856Y-67405806D01*
X62210863Y-66396680D01*
X63451285Y-66396680D01*
X64605000Y-67550395D01*
X65758715Y-66396680D01*
X65629467Y-66103877D01*
X64929194Y-65835612D01*
X64179565Y-65855750D01*
X63580533Y-66103877D01*
X63451285Y-66396680D01*
X62210863Y-66396680D01*
X62158564Y-66270421D01*
X61735880Y-65988725D01*
X59679605Y-68045000D01*
X59693748Y-68059143D01*
X59514143Y-68238748D01*
X59500000Y-68224605D01*
X57443725Y-70280880D01*
X57520043Y-70395394D01*
X57502667Y-70421399D01*
X57493000Y-70470000D01*
X57493000Y-74988125D01*
X57301333Y-74950000D01*
X56618667Y-74950000D01*
X56200091Y-75033260D01*
X55725423Y-75350423D01*
X55408260Y-75825091D01*
X55296887Y-76385000D01*
X55408260Y-76944909D01*
X55725423Y-77419577D01*
X56200091Y-77736740D01*
X56367300Y-77770000D01*
X56200091Y-77803260D01*
X55725423Y-78120423D01*
X55408260Y-78595091D01*
X55296887Y-79155000D01*
X55408260Y-79714909D01*
X55725423Y-80189577D01*
X56200091Y-80506740D01*
X56367300Y-80540000D01*
X56200091Y-80573260D01*
X55725423Y-80890423D01*
X55408260Y-81365091D01*
X55296887Y-81925000D01*
X55408260Y-82484909D01*
X55725423Y-82959577D01*
X56200091Y-83276740D01*
X56367300Y-83310000D01*
X56200091Y-83343260D01*
X55725423Y-83660423D01*
X55408260Y-84135091D01*
X55296887Y-84695000D01*
X55408260Y-85254909D01*
X55725423Y-85729577D01*
X56200091Y-86046740D01*
X56367300Y-86080000D01*
X56200091Y-86113260D01*
X55725423Y-86430423D01*
X55408260Y-86905091D01*
X55296887Y-87465000D01*
X55408260Y-88024909D01*
X55725423Y-88499577D01*
X56200091Y-88816740D01*
X56367300Y-88850000D01*
X56200091Y-88883260D01*
X55725423Y-89200423D01*
X55408260Y-89675091D01*
X55296887Y-90235000D01*
X55408260Y-90794909D01*
X55725423Y-91269577D01*
X56200091Y-91586740D01*
X56367300Y-91620000D01*
X56200091Y-91653260D01*
X55725423Y-91970423D01*
X55408260Y-92445091D01*
X55296887Y-93005000D01*
X55408260Y-93564909D01*
X55725423Y-94039577D01*
X56200091Y-94356740D01*
X56618667Y-94440000D01*
X57301333Y-94440000D01*
X57719909Y-94356740D01*
X58152560Y-94067652D01*
X58152560Y-95190000D01*
X58201843Y-95437765D01*
X58342191Y-95647809D01*
X58552235Y-95788157D01*
X58800000Y-95837440D01*
X60800000Y-95837440D01*
X61047765Y-95788157D01*
X61257809Y-95647809D01*
X61303000Y-95580176D01*
X61303000Y-98729082D01*
X61274579Y-98686436D01*
X60122108Y-98209706D01*
X58874928Y-98210295D01*
X57725421Y-98686436D01*
X57443725Y-99109120D01*
X59500000Y-101165395D01*
X59514143Y-101151253D01*
X59693748Y-101330858D01*
X59679605Y-101345000D01*
X59693748Y-101359143D01*
X59514143Y-101538748D01*
X59500000Y-101524605D01*
X57443725Y-103580880D01*
X57725421Y-104003564D01*
X58877892Y-104480294D01*
X60125072Y-104479705D01*
X61274579Y-104003564D01*
X61303000Y-103960918D01*
X61303000Y-119290000D01*
X52834091Y-119290000D01*
X50710000Y-117165910D01*
X50710000Y-100722892D01*
X56364706Y-100722892D01*
X56365295Y-101970072D01*
X56841436Y-103119579D01*
X57264120Y-103401275D01*
X59320395Y-101345000D01*
X57264120Y-99288725D01*
X56841436Y-99570421D01*
X56364706Y-100722892D01*
X50710000Y-100722892D01*
X50710000Y-67422892D01*
X56364706Y-67422892D01*
X56365295Y-68670072D01*
X56841436Y-69819579D01*
X57264120Y-70101275D01*
X59320395Y-68045000D01*
X57264120Y-65988725D01*
X56841436Y-66270421D01*
X56364706Y-67422892D01*
X50710000Y-67422892D01*
X50710000Y-65809120D01*
X57443725Y-65809120D01*
X59500000Y-67865395D01*
X61556275Y-65809120D01*
X61274579Y-65386436D01*
X60122108Y-64909706D01*
X58874928Y-64910295D01*
X57725421Y-65386436D01*
X57443725Y-65809120D01*
X50710000Y-65809120D01*
X50710000Y-60187500D01*
X57957857Y-60187500D01*
X57957857Y-63107500D01*
X61092143Y-63107500D01*
X61092143Y-60187500D01*
X57957857Y-60187500D01*
X50710000Y-60187500D01*
X50710000Y-53980000D01*
X62707560Y-53980000D01*
X62707560Y-56480000D01*
X62756843Y-56727765D01*
X62897191Y-56937809D01*
X63107235Y-57078157D01*
X63355000Y-57127440D01*
X65855000Y-57127440D01*
X66102765Y-57078157D01*
X66312809Y-56937809D01*
X66453157Y-56727765D01*
X66502440Y-56480000D01*
X66502440Y-53980000D01*
X66453157Y-53732235D01*
X66312809Y-53522191D01*
X66102765Y-53381843D01*
X65855000Y-53332560D01*
X63355000Y-53332560D01*
X63107235Y-53381843D01*
X62897191Y-53522191D01*
X62756843Y-53732235D01*
X62707560Y-53980000D01*
X50710000Y-53980000D01*
X50710000Y-52831690D01*
X52834091Y-50707600D01*
X67653000Y-50707600D01*
X67653000Y-69708000D01*
G36*
X59927000Y-91493000D02*
X59947000Y-91493000D01*
X59947000Y-91747000D01*
X59927000Y-91747000D01*
X59927000Y-91767000D01*
X59673000Y-91767000D01*
X59673000Y-91747000D01*
X59653000Y-91747000D01*
X59653000Y-91493000D01*
X59673000Y-91493000D01*
X59673000Y-91473000D01*
X59927000Y-91473000D01*
X59927000Y-91493000D01*
X59927000Y-91493000D01*
G37*
X59927000Y-91493000D02*
X59947000Y-91493000D01*
X59947000Y-91747000D01*
X59927000Y-91747000D01*
X59927000Y-91767000D01*
X59673000Y-91767000D01*
X59673000Y-91747000D01*
X59653000Y-91747000D01*
X59653000Y-91493000D01*
X59673000Y-91493000D01*
X59673000Y-91473000D01*
X59927000Y-91473000D01*
X59927000Y-91493000D01*
G36*
X67653000Y-119290000D02*
X60922000Y-119290000D01*
X60922000Y-114468850D01*
X62659000Y-114468850D01*
X62659000Y-115218750D01*
X62945974Y-115911567D01*
X63476233Y-116441826D01*
X64169050Y-116728800D01*
X64918950Y-116728800D01*
X65611767Y-116441826D01*
X66142026Y-115911567D01*
X66429000Y-115218750D01*
X66429000Y-114468850D01*
X66142026Y-113776033D01*
X65611767Y-113245774D01*
X64918950Y-112958800D01*
X64169050Y-112958800D01*
X63476233Y-113245774D01*
X62945974Y-113776033D01*
X62659000Y-114468850D01*
X60922000Y-114468850D01*
X60922000Y-104149607D01*
X61274579Y-104003564D01*
X61556275Y-103580880D01*
X60922000Y-102946605D01*
X60922000Y-102587395D01*
X61735880Y-103401275D01*
X62158564Y-103119579D01*
X62634573Y-101968850D01*
X62659000Y-101968850D01*
X62659000Y-102718750D01*
X62945974Y-103411567D01*
X63476233Y-103941826D01*
X64169050Y-104228800D01*
X64918950Y-104228800D01*
X65611767Y-103941826D01*
X66142026Y-103411567D01*
X66429000Y-102718750D01*
X66429000Y-101968850D01*
X66142026Y-101276033D01*
X65611767Y-100745774D01*
X64918950Y-100458800D01*
X64169050Y-100458800D01*
X63476233Y-100745774D01*
X62945974Y-101276033D01*
X62659000Y-101968850D01*
X62634573Y-101968850D01*
X62635294Y-101967108D01*
X62634705Y-100719928D01*
X62158564Y-99570421D01*
X62132424Y-99553000D01*
X67653000Y-99553000D01*
X67653000Y-119290000D01*
X67653000Y-119290000D01*
G37*
X67653000Y-119290000D02*
X60922000Y-119290000D01*
X60922000Y-114468850D01*
X62659000Y-114468850D01*
X62659000Y-115218750D01*
X62945974Y-115911567D01*
X63476233Y-116441826D01*
X64169050Y-116728800D01*
X64918950Y-116728800D01*
X65611767Y-116441826D01*
X66142026Y-115911567D01*
X66429000Y-115218750D01*
X66429000Y-114468850D01*
X66142026Y-113776033D01*
X65611767Y-113245774D01*
X64918950Y-112958800D01*
X64169050Y-112958800D01*
X63476233Y-113245774D01*
X62945974Y-113776033D01*
X62659000Y-114468850D01*
X60922000Y-114468850D01*
X60922000Y-104149607D01*
X61274579Y-104003564D01*
X61556275Y-103580880D01*
X60922000Y-102946605D01*
X60922000Y-102587395D01*
X61735880Y-103401275D01*
X62158564Y-103119579D01*
X62634573Y-101968850D01*
X62659000Y-101968850D01*
X62659000Y-102718750D01*
X62945974Y-103411567D01*
X63476233Y-103941826D01*
X64169050Y-104228800D01*
X64918950Y-104228800D01*
X65611767Y-103941826D01*
X66142026Y-103411567D01*
X66429000Y-102718750D01*
X66429000Y-101968850D01*
X66142026Y-101276033D01*
X65611767Y-100745774D01*
X64918950Y-100458800D01*
X64169050Y-100458800D01*
X63476233Y-100745774D01*
X62945974Y-101276033D01*
X62659000Y-101968850D01*
X62634573Y-101968850D01*
X62635294Y-101967108D01*
X62634705Y-100719928D01*
X62158564Y-99570421D01*
X62132424Y-99553000D01*
X67653000Y-99553000D01*
X67653000Y-119290000D01*
M02*
