G04 #@! TF.FileFunction,Other,Fab,Top*
%FSLAX46Y46*%
G04 Gerber Fmt 4.6, Leading zero omitted, Abs format (unit mm)*
G04 Created by KiCad (PCBNEW 4.0.2-stable) date 3/28/2018 10:44:59 PM*
%MOMM*%
G01*
G04 APERTURE LIST*
%ADD10C,0.100000*%
%ADD11C,0.120000*%
%ADD12C,0.150000*%
%ADD13C,0.105000*%
G04 APERTURE END LIST*
D10*
X202035800Y-112356400D02*
X203035800Y-111356400D01*
X202035800Y-112356400D02*
X202035800Y-118056400D01*
X203035800Y-111356400D02*
X205735800Y-111356400D01*
X202035800Y-118056400D02*
X205735800Y-118056400D01*
X205735800Y-111356400D02*
X205735800Y-118056400D01*
X196469200Y-121653200D02*
X196469200Y-120053200D01*
X199669200Y-121653200D02*
X196469200Y-121653200D01*
X199669200Y-120053200D02*
X199669200Y-121653200D01*
X196469200Y-120053200D02*
X199669200Y-120053200D01*
X197472400Y-112750800D02*
X199072400Y-112750800D01*
X197472400Y-115950800D02*
X197472400Y-112750800D01*
X199072400Y-115950800D02*
X197472400Y-115950800D01*
X199072400Y-112750800D02*
X199072400Y-115950800D01*
X206476400Y-120053200D02*
X206476400Y-121653200D01*
X203276400Y-120053200D02*
X206476400Y-120053200D01*
X203276400Y-121653200D02*
X203276400Y-120053200D01*
X206476400Y-121653200D02*
X203276400Y-121653200D01*
X210032800Y-121716700D02*
X210032800Y-120116700D01*
X213232800Y-121716700D02*
X210032800Y-121716700D01*
X213232800Y-120116700D02*
X213232800Y-121716700D01*
X210032800Y-120116700D02*
X213232800Y-120116700D01*
X192205800Y-120751600D02*
X191705800Y-120751600D01*
X192205800Y-120351600D02*
X192805800Y-120751600D01*
X192205800Y-121151600D02*
X192205800Y-120351600D01*
X192805800Y-120751600D02*
X192205800Y-121151600D01*
X192805800Y-120751600D02*
X192805800Y-120201600D01*
X192805800Y-120751600D02*
X192805800Y-121301600D01*
X193205800Y-120751600D02*
X192805800Y-120751600D01*
X193855800Y-119851600D02*
X193855800Y-121651600D01*
X191055800Y-119851600D02*
X193855800Y-119851600D01*
X191055800Y-121651600D02*
X191055800Y-119851600D01*
X193855800Y-121651600D02*
X191055800Y-121651600D01*
X194466400Y-113842800D02*
X193966400Y-113842800D01*
X194466400Y-113442800D02*
X195066400Y-113842800D01*
X194466400Y-114242800D02*
X194466400Y-113442800D01*
X195066400Y-113842800D02*
X194466400Y-114242800D01*
X195066400Y-113842800D02*
X195066400Y-113292800D01*
X195066400Y-113842800D02*
X195066400Y-114392800D01*
X195466400Y-113842800D02*
X195066400Y-113842800D01*
X196116400Y-112942800D02*
X196116400Y-114742800D01*
X193316400Y-112942800D02*
X196116400Y-112942800D01*
X193316400Y-114742800D02*
X193316400Y-112942800D01*
X196116400Y-114742800D02*
X193316400Y-114742800D01*
X194466400Y-118440200D02*
X193966400Y-118440200D01*
X194466400Y-118040200D02*
X195066400Y-118440200D01*
X194466400Y-118840200D02*
X194466400Y-118040200D01*
X195066400Y-118440200D02*
X194466400Y-118840200D01*
X195066400Y-118440200D02*
X195066400Y-117890200D01*
X195066400Y-118440200D02*
X195066400Y-118990200D01*
X195466400Y-118440200D02*
X195066400Y-118440200D01*
X196116400Y-117540200D02*
X196116400Y-119340200D01*
X193316400Y-117540200D02*
X196116400Y-117540200D01*
X193316400Y-119340200D02*
X193316400Y-117540200D01*
X196116400Y-119340200D02*
X193316400Y-119340200D01*
X194466400Y-116128800D02*
X193966400Y-116128800D01*
X194466400Y-115728800D02*
X195066400Y-116128800D01*
X194466400Y-116528800D02*
X194466400Y-115728800D01*
X195066400Y-116128800D02*
X194466400Y-116528800D01*
X195066400Y-116128800D02*
X195066400Y-115578800D01*
X195066400Y-116128800D02*
X195066400Y-116678800D01*
X195466400Y-116128800D02*
X195066400Y-116128800D01*
X196116400Y-115228800D02*
X196116400Y-117028800D01*
X193316400Y-115228800D02*
X196116400Y-115228800D01*
X193316400Y-117028800D02*
X193316400Y-115228800D01*
X196116400Y-117028800D02*
X193316400Y-117028800D01*
X190462000Y-114300200D02*
X192062000Y-114300200D01*
X190462000Y-117500200D02*
X190462000Y-114300200D01*
X192062000Y-117500200D02*
X190462000Y-117500200D01*
X192062000Y-114300200D02*
X192062000Y-117500200D01*
X213232800Y-111328300D02*
X213232800Y-112928300D01*
X210032800Y-111328300D02*
X213232800Y-111328300D01*
X210032800Y-112928300D02*
X210032800Y-111328300D01*
X213232800Y-112928300D02*
X210032800Y-112928300D01*
X213232800Y-113538100D02*
X213232800Y-115138100D01*
X210032800Y-113538100D02*
X213232800Y-113538100D01*
X210032800Y-115138100D02*
X210032800Y-113538100D01*
X213232800Y-115138100D02*
X210032800Y-115138100D01*
X213232800Y-115747900D02*
X213232800Y-117347900D01*
X210032800Y-115747900D02*
X213232800Y-115747900D01*
X210032800Y-117347900D02*
X210032800Y-115747900D01*
X213232800Y-117347900D02*
X210032800Y-117347900D01*
X213232800Y-117957700D02*
X213232800Y-119557700D01*
X210032800Y-117957700D02*
X213232800Y-117957700D01*
X210032800Y-119557700D02*
X210032800Y-117957700D01*
X213232800Y-119557700D02*
X210032800Y-119557700D01*
D11*
X206400476Y-117151205D02*
X206400476Y-117798824D01*
X206438571Y-117875014D01*
X206476667Y-117913110D01*
X206552857Y-117951205D01*
X206705238Y-117951205D01*
X206781429Y-117913110D01*
X206819524Y-117875014D01*
X206857619Y-117798824D01*
X206857619Y-117151205D01*
X207657619Y-117951205D02*
X207200476Y-117951205D01*
X207429047Y-117951205D02*
X207429047Y-117151205D01*
X207352857Y-117265490D01*
X207276666Y-117341681D01*
X207200476Y-117379776D01*
D12*
X197927934Y-121159543D02*
X197880315Y-121207162D01*
X197737458Y-121254781D01*
X197642220Y-121254781D01*
X197499362Y-121207162D01*
X197404124Y-121111924D01*
X197356505Y-121016686D01*
X197308886Y-120826210D01*
X197308886Y-120683352D01*
X197356505Y-120492876D01*
X197404124Y-120397638D01*
X197499362Y-120302400D01*
X197642220Y-120254781D01*
X197737458Y-120254781D01*
X197880315Y-120302400D01*
X197927934Y-120350019D01*
X198880315Y-121254781D02*
X198308886Y-121254781D01*
X198594600Y-121254781D02*
X198594600Y-120254781D01*
X198499362Y-120397638D01*
X198404124Y-120492876D01*
X198308886Y-120540495D01*
X196124534Y-112282243D02*
X196076915Y-112329862D01*
X195934058Y-112377481D01*
X195838820Y-112377481D01*
X195695962Y-112329862D01*
X195600724Y-112234624D01*
X195553105Y-112139386D01*
X195505486Y-111948910D01*
X195505486Y-111806052D01*
X195553105Y-111615576D01*
X195600724Y-111520338D01*
X195695962Y-111425100D01*
X195838820Y-111377481D01*
X195934058Y-111377481D01*
X196076915Y-111425100D01*
X196124534Y-111472719D01*
X196505486Y-111472719D02*
X196553105Y-111425100D01*
X196648343Y-111377481D01*
X196886439Y-111377481D01*
X196981677Y-111425100D01*
X197029296Y-111472719D01*
X197076915Y-111567957D01*
X197076915Y-111663195D01*
X197029296Y-111806052D01*
X196457867Y-112377481D01*
X197076915Y-112377481D01*
X203312734Y-119533943D02*
X203265115Y-119581562D01*
X203122258Y-119629181D01*
X203027020Y-119629181D01*
X202884162Y-119581562D01*
X202788924Y-119486324D01*
X202741305Y-119391086D01*
X202693686Y-119200610D01*
X202693686Y-119057752D01*
X202741305Y-118867276D01*
X202788924Y-118772038D01*
X202884162Y-118676800D01*
X203027020Y-118629181D01*
X203122258Y-118629181D01*
X203265115Y-118676800D01*
X203312734Y-118724419D01*
X203646067Y-118629181D02*
X204265115Y-118629181D01*
X203931781Y-119010133D01*
X204074639Y-119010133D01*
X204169877Y-119057752D01*
X204217496Y-119105371D01*
X204265115Y-119200610D01*
X204265115Y-119438705D01*
X204217496Y-119533943D01*
X204169877Y-119581562D01*
X204074639Y-119629181D01*
X203788924Y-119629181D01*
X203693686Y-119581562D01*
X203646067Y-119533943D01*
X211428034Y-120575343D02*
X211380415Y-120622962D01*
X211237558Y-120670581D01*
X211142320Y-120670581D01*
X210999462Y-120622962D01*
X210904224Y-120527724D01*
X210856605Y-120432486D01*
X210808986Y-120242010D01*
X210808986Y-120099152D01*
X210856605Y-119908676D01*
X210904224Y-119813438D01*
X210999462Y-119718200D01*
X211142320Y-119670581D01*
X211237558Y-119670581D01*
X211380415Y-119718200D01*
X211428034Y-119765819D01*
X212285177Y-120003914D02*
X212285177Y-120670581D01*
X212047081Y-119622962D02*
X211808986Y-120337248D01*
X212428034Y-120337248D01*
D13*
X191578667Y-112003666D02*
X191245333Y-112237000D01*
X191578667Y-112403666D02*
X190878667Y-112403666D01*
X190878667Y-112137000D01*
X190912000Y-112070333D01*
X190945333Y-112037000D01*
X191012000Y-112003666D01*
X191112000Y-112003666D01*
X191178667Y-112037000D01*
X191212000Y-112070333D01*
X191245333Y-112137000D01*
X191245333Y-112403666D01*
X191578667Y-111337000D02*
X191578667Y-111737000D01*
X191578667Y-111537000D02*
X190878667Y-111537000D01*
X190978667Y-111603666D01*
X191045333Y-111670333D01*
X191078667Y-111737000D01*
X211516134Y-112444967D02*
X211282800Y-112111633D01*
X211116134Y-112444967D02*
X211116134Y-111744967D01*
X211382800Y-111744967D01*
X211449467Y-111778300D01*
X211482800Y-111811633D01*
X211516134Y-111878300D01*
X211516134Y-111978300D01*
X211482800Y-112044967D01*
X211449467Y-112078300D01*
X211382800Y-112111633D01*
X211116134Y-112111633D01*
X211782800Y-111811633D02*
X211816134Y-111778300D01*
X211882800Y-111744967D01*
X212049467Y-111744967D01*
X212116134Y-111778300D01*
X212149467Y-111811633D01*
X212182800Y-111878300D01*
X212182800Y-111944967D01*
X212149467Y-112044967D01*
X211749467Y-112444967D01*
X212182800Y-112444967D01*
X211516134Y-114654767D02*
X211282800Y-114321433D01*
X211116134Y-114654767D02*
X211116134Y-113954767D01*
X211382800Y-113954767D01*
X211449467Y-113988100D01*
X211482800Y-114021433D01*
X211516134Y-114088100D01*
X211516134Y-114188100D01*
X211482800Y-114254767D01*
X211449467Y-114288100D01*
X211382800Y-114321433D01*
X211116134Y-114321433D01*
X211749467Y-113954767D02*
X212182800Y-113954767D01*
X211949467Y-114221433D01*
X212049467Y-114221433D01*
X212116134Y-114254767D01*
X212149467Y-114288100D01*
X212182800Y-114354767D01*
X212182800Y-114521433D01*
X212149467Y-114588100D01*
X212116134Y-114621433D01*
X212049467Y-114654767D01*
X211849467Y-114654767D01*
X211782800Y-114621433D01*
X211749467Y-114588100D01*
X211516134Y-116864567D02*
X211282800Y-116531233D01*
X211116134Y-116864567D02*
X211116134Y-116164567D01*
X211382800Y-116164567D01*
X211449467Y-116197900D01*
X211482800Y-116231233D01*
X211516134Y-116297900D01*
X211516134Y-116397900D01*
X211482800Y-116464567D01*
X211449467Y-116497900D01*
X211382800Y-116531233D01*
X211116134Y-116531233D01*
X212116134Y-116397900D02*
X212116134Y-116864567D01*
X211949467Y-116131233D02*
X211782800Y-116631233D01*
X212216134Y-116631233D01*
X211516134Y-118667967D02*
X211282800Y-118334633D01*
X211116134Y-118667967D02*
X211116134Y-117967967D01*
X211382800Y-117967967D01*
X211449467Y-118001300D01*
X211482800Y-118034633D01*
X211516134Y-118101300D01*
X211516134Y-118201300D01*
X211482800Y-118267967D01*
X211449467Y-118301300D01*
X211382800Y-118334633D01*
X211116134Y-118334633D01*
X212149467Y-117967967D02*
X211816134Y-117967967D01*
X211782800Y-118301300D01*
X211816134Y-118267967D01*
X211882800Y-118234633D01*
X212049467Y-118234633D01*
X212116134Y-118267967D01*
X212149467Y-118301300D01*
X212182800Y-118367967D01*
X212182800Y-118534633D01*
X212149467Y-118601300D01*
X212116134Y-118634633D01*
X212049467Y-118667967D01*
X211882800Y-118667967D01*
X211816134Y-118634633D01*
X211782800Y-118601300D01*
M02*
