G04 #@! TF.FileFunction,Copper,L1,Top,Signal*
%FSLAX46Y46*%
G04 Gerber Fmt 4.6, Leading zero omitted, Abs format (unit mm)*
G04 Created by KiCad (PCBNEW 4.0.2-stable) date 3/28/2018 10:44:59 PM*
%MOMM*%
G01*
G04 APERTURE LIST*
%ADD10C,0.100000*%
%ADD11R,2.000000X3.800000*%
%ADD12R,2.000000X1.500000*%
%ADD13R,2.000000X1.600000*%
%ADD14R,1.600000X2.000000*%
%ADD15R,0.900000X1.200000*%
%ADD16R,1.700000X2.000000*%
%ADD17R,2.000000X1.700000*%
%ADD18C,1.000000*%
%ADD19C,0.500000*%
%ADD20C,0.254000*%
G04 APERTURE END LIST*
D10*
D11*
X207035800Y-114706400D03*
D12*
X200735800Y-114706400D03*
X200735800Y-117006400D03*
X200735800Y-112406400D03*
D13*
X196069200Y-120853200D03*
X200069200Y-120853200D03*
D14*
X198272400Y-112350800D03*
X198272400Y-116350800D03*
D13*
X206876400Y-120853200D03*
X202876400Y-120853200D03*
X209632800Y-120916700D03*
X213632800Y-120916700D03*
D15*
X194105800Y-120751600D03*
X190805800Y-120751600D03*
X196366400Y-113842800D03*
X193066400Y-113842800D03*
X196366400Y-118440200D03*
X193066400Y-118440200D03*
X196366400Y-116128800D03*
X193066400Y-116128800D03*
D16*
X191262000Y-113900200D03*
X191262000Y-117900200D03*
D17*
X213632800Y-112128300D03*
X209632800Y-112128300D03*
X213632800Y-114338100D03*
X209632800Y-114338100D03*
X213632800Y-116547900D03*
X209632800Y-116547900D03*
X213632800Y-118757700D03*
X209632800Y-118757700D03*
D18*
X197993000Y-118465600D03*
X198272400Y-114350800D03*
X205054200Y-120853200D03*
X211632800Y-120929400D03*
X211632800Y-119202200D03*
X206908400Y-119202200D03*
X192760600Y-111861600D03*
X205054200Y-116052600D03*
X205054200Y-117754400D03*
X205054200Y-112750600D03*
X205054200Y-114731800D03*
X191262000Y-115900200D03*
X205130400Y-119202200D03*
D19*
X198272400Y-112350800D02*
X198272400Y-114350800D01*
X197993000Y-120065800D02*
X197002400Y-120853200D01*
X197993000Y-118465600D02*
X197993000Y-120065800D01*
X197002400Y-120853200D02*
X196069200Y-120853200D01*
X198265800Y-112344200D02*
X197104000Y-112344200D01*
X198265800Y-112344200D02*
X198272400Y-112350800D01*
X196366400Y-113081800D02*
X196366400Y-113842800D01*
X196366400Y-113081800D02*
X197104000Y-112344200D01*
X196367400Y-113841800D02*
X196366400Y-113842800D01*
X194105800Y-120751600D02*
X195967600Y-120751600D01*
X196170800Y-120751600D02*
X196069200Y-120853200D01*
X195967600Y-120751600D02*
X196069200Y-120853200D01*
X213632800Y-120929400D02*
X211632800Y-120929400D01*
X203987400Y-120853200D02*
X202876400Y-120853200D01*
X205054200Y-120853200D02*
X203987400Y-120853200D01*
X198272400Y-116350800D02*
X198272400Y-117170200D01*
X198272400Y-117170200D02*
X200069200Y-118967000D01*
X200069200Y-118967000D02*
X200069200Y-120853200D01*
X198272400Y-116350800D02*
X198101200Y-116350800D01*
X194132200Y-117297200D02*
X194106800Y-117322600D01*
X194106800Y-117322600D02*
X193066400Y-117322600D01*
X197154800Y-117297200D02*
X194132200Y-117297200D01*
X198101200Y-116350800D02*
X197154800Y-117297200D01*
X213632800Y-112141000D02*
X213632800Y-114350800D01*
X213632800Y-114350800D02*
X213632800Y-116560600D01*
X213632800Y-116560600D02*
X213632800Y-118770400D01*
X213632800Y-118770400D02*
X213632800Y-120929400D01*
X200069200Y-120853200D02*
X202876400Y-120853200D01*
X193066400Y-118440200D02*
X193066400Y-117322600D01*
X193066400Y-117322600D02*
X193066400Y-116128800D01*
X206876400Y-120853200D02*
X206876400Y-119234200D01*
X211632800Y-113588800D02*
X210185000Y-112141000D01*
X211632800Y-119202200D02*
X211632800Y-113588800D01*
X206876400Y-119234200D02*
X206908400Y-119202200D01*
X210185000Y-112141000D02*
X209632800Y-112141000D01*
X200735800Y-112406400D02*
X202172600Y-112406400D01*
X202920600Y-111658400D02*
X204114400Y-111658400D01*
X204114400Y-111658400D02*
X209150200Y-111658400D01*
X202172600Y-112406400D02*
X202920600Y-111658400D01*
X209150200Y-111658400D02*
X209632800Y-112141000D01*
X196366400Y-118440200D02*
X195249800Y-118440200D01*
X191262000Y-119634000D02*
X191262000Y-117900200D01*
X194056000Y-119634000D02*
X191262000Y-119634000D01*
X195249800Y-118440200D02*
X194056000Y-119634000D01*
X191262000Y-117900200D02*
X191262000Y-120295400D01*
X191262000Y-120295400D02*
X190805800Y-120751600D01*
X193066400Y-112167400D02*
X193066400Y-113842800D01*
X192760600Y-111861600D02*
X193066400Y-112167400D01*
X193066400Y-113842800D02*
X193725800Y-113842800D01*
X193725800Y-113842800D02*
X194818000Y-114935000D01*
X194818000Y-114935000D02*
X194818000Y-115570000D01*
X194818000Y-115570000D02*
X195376800Y-116128800D01*
X195376800Y-116128800D02*
X196366400Y-116128800D01*
X207035400Y-112750600D02*
X205054200Y-112750600D01*
X207035800Y-112751000D02*
X207035400Y-112750600D01*
X207035800Y-114706400D02*
X207035800Y-112751000D01*
X207035800Y-114706400D02*
X207035800Y-115493400D01*
X207035800Y-115493400D02*
X206476600Y-116052600D01*
X206476600Y-116052600D02*
X205054200Y-116052600D01*
X207035800Y-116814200D02*
X207035800Y-114706400D01*
X205054200Y-117754400D02*
X206095600Y-117754400D01*
X206095600Y-117754400D02*
X207035800Y-116814200D01*
X207035800Y-114706400D02*
X207010000Y-114706400D01*
X205054200Y-114731800D02*
X205054200Y-115595400D01*
X205054200Y-115595400D02*
X205054200Y-116052600D01*
X200735800Y-114706400D02*
X203149200Y-114706400D01*
X203149200Y-114706400D02*
X205054200Y-112750600D01*
X207035800Y-114706400D02*
X209277200Y-114706400D01*
X209277200Y-114706400D02*
X209632800Y-114350800D01*
X209632800Y-118770400D02*
X209632800Y-120929400D01*
X209632800Y-116560600D02*
X209632800Y-118770400D01*
X209632800Y-114350800D02*
X209632800Y-116560600D01*
X206959600Y-115570000D02*
X206984600Y-115570000D01*
X191262000Y-113900200D02*
X191262000Y-115900200D01*
X190830200Y-113468400D02*
X191262000Y-113900200D01*
X200735800Y-117006400D02*
X200735800Y-118084200D01*
X201853800Y-119202200D02*
X205130400Y-119202200D01*
X200735800Y-118084200D02*
X201853800Y-119202200D01*
D20*
G36*
X205400800Y-112680090D02*
X205400800Y-114420650D01*
X205559550Y-114579400D01*
X206908800Y-114579400D01*
X206908800Y-114559400D01*
X207162800Y-114559400D01*
X207162800Y-114579400D01*
X207182800Y-114579400D01*
X207182800Y-114833400D01*
X207162800Y-114833400D01*
X207162800Y-117082650D01*
X207321550Y-117241400D01*
X207997800Y-117241400D01*
X207997800Y-117524210D01*
X208051064Y-117652800D01*
X207997800Y-117781390D01*
X207997800Y-118471950D01*
X208156550Y-118630700D01*
X209194400Y-118630700D01*
X209194400Y-118884700D01*
X208156550Y-118884700D01*
X208043579Y-118997671D01*
X208043597Y-118977425D01*
X207871167Y-118560114D01*
X207552165Y-118240555D01*
X207135156Y-118067397D01*
X206683625Y-118067003D01*
X206266314Y-118239433D01*
X206019249Y-118486067D01*
X205774165Y-118240555D01*
X205357156Y-118067397D01*
X204905625Y-118067003D01*
X204488314Y-118239433D01*
X204410411Y-118317200D01*
X202220379Y-118317200D01*
X202148560Y-118245381D01*
X202187241Y-118220490D01*
X202332231Y-118008290D01*
X202383240Y-117756400D01*
X202383240Y-116256400D01*
X202338962Y-116021083D01*
X202233318Y-115856908D01*
X202274127Y-115816099D01*
X202370800Y-115582710D01*
X202370800Y-114992150D01*
X205400800Y-114992150D01*
X205400800Y-116732710D01*
X205497473Y-116966099D01*
X205676102Y-117144727D01*
X205909491Y-117241400D01*
X206750050Y-117241400D01*
X206908800Y-117082650D01*
X206908800Y-114833400D01*
X205559550Y-114833400D01*
X205400800Y-114992150D01*
X202370800Y-114992150D01*
X202212050Y-114833400D01*
X200862800Y-114833400D01*
X200862800Y-114853400D01*
X200608800Y-114853400D01*
X200608800Y-114833400D01*
X200588800Y-114833400D01*
X200588800Y-114579400D01*
X200608800Y-114579400D01*
X200608800Y-114559400D01*
X200862800Y-114559400D01*
X200862800Y-114579400D01*
X202212050Y-114579400D01*
X202370800Y-114420650D01*
X202370800Y-113830090D01*
X202274127Y-113596701D01*
X202232166Y-113554740D01*
X202332231Y-113408290D01*
X202363595Y-113253409D01*
X202455084Y-113235210D01*
X202511275Y-113224033D01*
X202798390Y-113032190D01*
X203287179Y-112543400D01*
X205457419Y-112543400D01*
X205400800Y-112680090D01*
X205400800Y-112680090D01*
G37*
X205400800Y-112680090D02*
X205400800Y-114420650D01*
X205559550Y-114579400D01*
X206908800Y-114579400D01*
X206908800Y-114559400D01*
X207162800Y-114559400D01*
X207162800Y-114579400D01*
X207182800Y-114579400D01*
X207182800Y-114833400D01*
X207162800Y-114833400D01*
X207162800Y-117082650D01*
X207321550Y-117241400D01*
X207997800Y-117241400D01*
X207997800Y-117524210D01*
X208051064Y-117652800D01*
X207997800Y-117781390D01*
X207997800Y-118471950D01*
X208156550Y-118630700D01*
X209194400Y-118630700D01*
X209194400Y-118884700D01*
X208156550Y-118884700D01*
X208043579Y-118997671D01*
X208043597Y-118977425D01*
X207871167Y-118560114D01*
X207552165Y-118240555D01*
X207135156Y-118067397D01*
X206683625Y-118067003D01*
X206266314Y-118239433D01*
X206019249Y-118486067D01*
X205774165Y-118240555D01*
X205357156Y-118067397D01*
X204905625Y-118067003D01*
X204488314Y-118239433D01*
X204410411Y-118317200D01*
X202220379Y-118317200D01*
X202148560Y-118245381D01*
X202187241Y-118220490D01*
X202332231Y-118008290D01*
X202383240Y-117756400D01*
X202383240Y-116256400D01*
X202338962Y-116021083D01*
X202233318Y-115856908D01*
X202274127Y-115816099D01*
X202370800Y-115582710D01*
X202370800Y-114992150D01*
X205400800Y-114992150D01*
X205400800Y-116732710D01*
X205497473Y-116966099D01*
X205676102Y-117144727D01*
X205909491Y-117241400D01*
X206750050Y-117241400D01*
X206908800Y-117082650D01*
X206908800Y-114833400D01*
X205559550Y-114833400D01*
X205400800Y-114992150D01*
X202370800Y-114992150D01*
X202212050Y-114833400D01*
X200862800Y-114833400D01*
X200862800Y-114853400D01*
X200608800Y-114853400D01*
X200608800Y-114833400D01*
X200588800Y-114833400D01*
X200588800Y-114579400D01*
X200608800Y-114579400D01*
X200608800Y-114559400D01*
X200862800Y-114559400D01*
X200862800Y-114579400D01*
X202212050Y-114579400D01*
X202370800Y-114420650D01*
X202370800Y-113830090D01*
X202274127Y-113596701D01*
X202232166Y-113554740D01*
X202332231Y-113408290D01*
X202363595Y-113253409D01*
X202455084Y-113235210D01*
X202511275Y-113224033D01*
X202798390Y-113032190D01*
X203287179Y-112543400D01*
X205457419Y-112543400D01*
X205400800Y-112680090D01*
M02*
