G04 #@! TF.FileFunction,Copper,L2,Bot,Signal*
%FSLAX46Y46*%
G04 Gerber Fmt 4.6, Leading zero omitted, Abs format (unit mm)*
G04 Created by KiCad (PCBNEW 4.0.2-stable) date 3/28/2018 10:44:59 PM*
%MOMM*%
G01*
G04 APERTURE LIST*
%ADD10C,0.100000*%
%ADD11C,0.300000*%
%ADD12C,0.120000*%
%ADD13R,5.000000X2.000000*%
%ADD14R,2.000000X5.000000*%
%ADD15C,1.000000*%
%ADD16C,0.500000*%
%ADD17C,0.254000*%
G04 APERTURE END LIST*
D10*
D11*
X190850486Y-121738129D02*
X190850486Y-120666700D01*
X190779058Y-120452414D01*
X190636201Y-120309557D01*
X190421915Y-120238129D01*
X190279058Y-120238129D01*
X191493343Y-120309557D02*
X191636200Y-120238129D01*
X191921915Y-120238129D01*
X192064772Y-120309557D01*
X192136200Y-120452414D01*
X192136200Y-120523843D01*
X192064772Y-120666700D01*
X191921915Y-120738129D01*
X191707629Y-120738129D01*
X191564772Y-120809557D01*
X191493343Y-120952414D01*
X191493343Y-121023843D01*
X191564772Y-121166700D01*
X191707629Y-121238129D01*
X191921915Y-121238129D01*
X192064772Y-121166700D01*
X192779058Y-120238129D02*
X192779058Y-121238129D01*
X192779058Y-121738129D02*
X192707629Y-121666700D01*
X192779058Y-121595271D01*
X192850486Y-121666700D01*
X192779058Y-121738129D01*
X192779058Y-121595271D01*
X193279058Y-121238129D02*
X193850487Y-121238129D01*
X193493344Y-120238129D02*
X193493344Y-121523843D01*
X193564772Y-121666700D01*
X193707630Y-121738129D01*
X193850487Y-121738129D01*
X195564772Y-121738129D02*
X195421915Y-121452414D01*
X196993344Y-120238129D02*
X196136201Y-120238129D01*
X196564773Y-120238129D02*
X196564773Y-121738129D01*
X196421916Y-121523843D01*
X196279058Y-121380986D01*
X196136201Y-121309557D01*
X197850487Y-121095271D02*
X197707629Y-121166700D01*
X197636201Y-121238129D01*
X197564772Y-121380986D01*
X197564772Y-121452414D01*
X197636201Y-121595271D01*
X197707629Y-121666700D01*
X197850487Y-121738129D01*
X198136201Y-121738129D01*
X198279058Y-121666700D01*
X198350487Y-121595271D01*
X198421915Y-121452414D01*
X198421915Y-121380986D01*
X198350487Y-121238129D01*
X198279058Y-121166700D01*
X198136201Y-121095271D01*
X197850487Y-121095271D01*
X197707629Y-121023843D01*
X197636201Y-120952414D01*
X197564772Y-120809557D01*
X197564772Y-120523843D01*
X197636201Y-120380986D01*
X197707629Y-120309557D01*
X197850487Y-120238129D01*
X198136201Y-120238129D01*
X198279058Y-120309557D01*
X198350487Y-120380986D01*
X198421915Y-120523843D01*
X198421915Y-120809557D01*
X198350487Y-120952414D01*
X198279058Y-121023843D01*
X198136201Y-121095271D01*
D12*
X201227572Y-116227990D02*
X200989477Y-116227990D01*
X200989477Y-115727990D01*
X201394239Y-115966086D02*
X201560905Y-115966086D01*
X201632334Y-116227990D02*
X201394239Y-116227990D01*
X201394239Y-115727990D01*
X201632334Y-115727990D01*
X201846620Y-116227990D02*
X201846620Y-115727990D01*
X201965667Y-115727990D01*
X202037096Y-115751800D01*
X202084715Y-115799419D01*
X202108524Y-115847038D01*
X202132334Y-115942276D01*
X202132334Y-116013705D01*
X202108524Y-116108943D01*
X202084715Y-116156562D01*
X202037096Y-116204181D01*
X201965667Y-116227990D01*
X201846620Y-116227990D01*
D11*
X197063443Y-113096729D02*
X197134871Y-113311015D01*
X197134871Y-113668158D01*
X197063443Y-113811015D01*
X196992014Y-113882444D01*
X196849157Y-113953872D01*
X196706300Y-113953872D01*
X196563443Y-113882444D01*
X196492014Y-113811015D01*
X196420586Y-113668158D01*
X196349157Y-113382444D01*
X196277729Y-113239586D01*
X196206300Y-113168158D01*
X196063443Y-113096729D01*
X195920586Y-113096729D01*
X195777729Y-113168158D01*
X195706300Y-113239586D01*
X195634871Y-113382444D01*
X195634871Y-113739586D01*
X195706300Y-113953872D01*
X197088843Y-118773629D02*
X197160271Y-118987915D01*
X197160271Y-119345058D01*
X197088843Y-119487915D01*
X197017414Y-119559344D01*
X196874557Y-119630772D01*
X196731700Y-119630772D01*
X196588843Y-119559344D01*
X196517414Y-119487915D01*
X196445986Y-119345058D01*
X196374557Y-119059344D01*
X196303129Y-118916486D01*
X196231700Y-118845058D01*
X196088843Y-118773629D01*
X195945986Y-118773629D01*
X195803129Y-118845058D01*
X195731700Y-118916486D01*
X195660271Y-119059344D01*
X195660271Y-119416486D01*
X195731700Y-119630772D01*
X203746028Y-115753343D02*
X202603171Y-115753343D01*
X200469428Y-115753343D02*
X199326571Y-115753343D01*
X199898000Y-116324771D02*
X199898000Y-115181914D01*
D13*
X192786000Y-118821200D03*
X192760600Y-113944400D03*
D14*
X199847200Y-119202200D03*
X203174600Y-119202200D03*
D15*
X197993000Y-118465600D03*
X198272400Y-114350800D03*
X205054200Y-120853200D03*
X211632800Y-120929400D03*
X211632800Y-119202200D03*
X206908400Y-119202200D03*
X192760600Y-111861600D03*
X205054200Y-116052600D03*
X205054200Y-117754400D03*
X205054200Y-112750600D03*
X205054200Y-114731800D03*
X191262000Y-115900200D03*
X205130400Y-119202200D03*
D16*
X197993000Y-118465600D02*
X197993000Y-118618000D01*
X198475600Y-119202200D02*
X199847200Y-119202200D01*
X197993000Y-118618000D02*
X198475600Y-119202200D01*
X197993000Y-114782600D02*
X197993000Y-118465600D01*
X198272400Y-114350800D02*
X197993000Y-114782600D01*
X205054200Y-120929400D02*
X205054200Y-120853200D01*
X206603600Y-120929400D02*
X205054200Y-120929400D01*
X211632800Y-120929400D02*
X206603600Y-120929400D01*
X206908400Y-119202200D02*
X211632800Y-119202200D01*
X192760600Y-113944400D02*
X192760600Y-111861600D01*
X205054200Y-116052600D02*
X205054200Y-116636800D01*
X205054200Y-116636800D02*
X205054200Y-117754400D01*
X205054200Y-112750600D02*
X205054200Y-114731800D01*
X192786000Y-117424200D02*
X192786000Y-118821200D01*
X191262000Y-115900200D02*
X192786000Y-117424200D01*
X205130400Y-119202200D02*
X203174600Y-119202200D01*
D17*
G36*
X214290000Y-121290000D02*
X212712026Y-121290000D01*
X212767603Y-121156156D01*
X212767997Y-120704625D01*
X212595567Y-120287314D01*
X212374333Y-120065694D01*
X212594445Y-119845965D01*
X212767603Y-119428956D01*
X212767997Y-118977425D01*
X212595567Y-118560114D01*
X212276565Y-118240555D01*
X211859556Y-118067397D01*
X211408025Y-118067003D01*
X210990714Y-118239433D01*
X210912811Y-118317200D01*
X207628676Y-118317200D01*
X207552165Y-118240555D01*
X207135156Y-118067397D01*
X206683625Y-118067003D01*
X206266314Y-118239433D01*
X206019249Y-118486067D01*
X205774165Y-118240555D01*
X205357156Y-118067397D01*
X204905625Y-118067003D01*
X204822040Y-118101540D01*
X204822040Y-117481200D01*
X204888172Y-117481200D01*
X204888172Y-113511200D01*
X199037997Y-113511200D01*
X198916165Y-113389155D01*
X198499156Y-113215997D01*
X198404535Y-113215915D01*
X198401049Y-111710000D01*
X214290000Y-111710000D01*
X214290000Y-121290000D01*
X214290000Y-121290000D01*
G37*
X214290000Y-121290000D02*
X212712026Y-121290000D01*
X212767603Y-121156156D01*
X212767997Y-120704625D01*
X212595567Y-120287314D01*
X212374333Y-120065694D01*
X212594445Y-119845965D01*
X212767603Y-119428956D01*
X212767997Y-118977425D01*
X212595567Y-118560114D01*
X212276565Y-118240555D01*
X211859556Y-118067397D01*
X211408025Y-118067003D01*
X210990714Y-118239433D01*
X210912811Y-118317200D01*
X207628676Y-118317200D01*
X207552165Y-118240555D01*
X207135156Y-118067397D01*
X206683625Y-118067003D01*
X206266314Y-118239433D01*
X206019249Y-118486067D01*
X205774165Y-118240555D01*
X205357156Y-118067397D01*
X204905625Y-118067003D01*
X204822040Y-118101540D01*
X204822040Y-117481200D01*
X204888172Y-117481200D01*
X204888172Y-113511200D01*
X199037997Y-113511200D01*
X198916165Y-113389155D01*
X198499156Y-113215997D01*
X198404535Y-113215915D01*
X198401049Y-111710000D01*
X214290000Y-111710000D01*
X214290000Y-121290000D01*
M02*
