M48
;DRILL file {KiCad (5.0.0-rc2-dev-451-g0294e41cb)} date 10/10/18 22:07:56
;FORMAT={-:-/ absolute / inch / decimal}
FMAT,2
INCH,TZ
T1C0.0157
T2C0.0315
T3C0.0394
T4C0.0400
%
G90
G05
M72
T1
X4.295Y-4.08
X4.5Y-1.79
X4.51Y-4.405
X4.535Y-3.715
X4.595Y-4.1
X4.595Y-3.73
X4.84Y-2.52
X4.855Y-4.215
X4.855Y-4.2975
X4.9Y-2.29
X4.9525Y-4.12
X5.065Y-2.755
X5.085Y-3.315
X5.2Y-4.355
X5.275Y-3.2675
X5.28Y-2.4
X5.355Y-2.9675
X5.43Y-2.805
X5.43Y-2.855
X5.48Y-2.29
T2
X4.29Y-1.84
X4.3884Y-1.84
T3
X4.6Y-1.8
X4.6Y-1.9
X4.7Y-1.8
X4.7Y-1.9
X4.8Y-1.8
X4.8Y-1.9
X4.9Y-1.8
X4.9Y-1.9
X5.Y-1.8
X5.Y-1.9
X5.1Y-1.8
X5.1Y-1.9
X5.2Y-1.8
X5.2Y-1.9
X5.3Y-1.8
X5.3Y-1.9
X4.345Y-3.515
X4.445Y-3.515
X4.545Y-3.515
X4.645Y-3.515
X4.745Y-3.515
X4.845Y-3.515
X4.945Y-3.515
X5.045Y-3.515
X4.6Y-4.5
X4.6Y-4.6
X4.7Y-4.5
X4.7Y-4.6
X4.8Y-4.5
X4.8Y-4.6
X4.9Y-4.5
X4.9Y-4.6
X5.Y-4.5
X5.Y-4.6
X5.1Y-4.5
X5.1Y-4.6
X5.2Y-4.5
X5.2Y-4.6
X5.3Y-4.5
X5.3Y-4.6
X4.2Y-3.375
X4.2Y-3.475
X4.2Y-3.575
X4.2Y-3.675
X4.2Y-3.775
X4.2Y-3.875
X4.2Y-3.975
X4.2Y-4.075
T4
X5.46Y-3.49
X5.46Y-3.59
X5.46Y-3.69
X5.46Y-3.79
X5.46Y-3.89
X5.56Y-3.49
X5.56Y-3.59
X5.56Y-3.69
X5.56Y-3.79
X5.56Y-3.89
T0
M30
