G04 #@! TF.GenerationSoftware,KiCad,Pcbnew,(5.0.0)*
G04 #@! TF.CreationDate,2018-12-13T19:23:58+01:00*
G04 #@! TF.ProjectId,BackplanePCB_solder,4261636B706C616E655043425F736F6C,rev?*
G04 #@! TF.SameCoordinates,Original*
G04 #@! TF.FileFunction,Legend,Bot*
G04 #@! TF.FilePolarity,Positive*
%FSLAX46Y46*%
G04 Gerber Fmt 4.6, Leading zero omitted, Abs format (unit mm)*
G04 Created by KiCad (PCBNEW (5.0.0)) date 12/13/18 19:23:58*
%MOMM*%
%LPD*%
G01*
G04 APERTURE LIST*
%ADD10C,0.300000*%
%ADD11C,0.120000*%
%ADD12C,0.150000*%
G04 APERTURE END LIST*
D10*
X431140571Y-165167571D02*
X431140571Y-166239000D01*
X431212000Y-166453285D01*
X431354857Y-166596142D01*
X431569142Y-166667571D01*
X431712000Y-166667571D01*
X430497714Y-166596142D02*
X430283428Y-166667571D01*
X429926285Y-166667571D01*
X429783428Y-166596142D01*
X429712000Y-166524714D01*
X429640571Y-166381857D01*
X429640571Y-166239000D01*
X429712000Y-166096142D01*
X429783428Y-166024714D01*
X429926285Y-165953285D01*
X430212000Y-165881857D01*
X430354857Y-165810428D01*
X430426285Y-165739000D01*
X430497714Y-165596142D01*
X430497714Y-165453285D01*
X430426285Y-165310428D01*
X430354857Y-165239000D01*
X430212000Y-165167571D01*
X429854857Y-165167571D01*
X429640571Y-165239000D01*
X428997714Y-166667571D02*
X428997714Y-165167571D01*
X427783428Y-165881857D02*
X428283428Y-165881857D01*
X428283428Y-166667571D02*
X428283428Y-165167571D01*
X427569142Y-165167571D01*
X425926285Y-165310428D02*
X425854857Y-165239000D01*
X425712000Y-165167571D01*
X425354857Y-165167571D01*
X425212000Y-165239000D01*
X425140571Y-165310428D01*
X425069142Y-165453285D01*
X425069142Y-165596142D01*
X425140571Y-165810428D01*
X425997714Y-166667571D01*
X425069142Y-166667571D01*
X424140571Y-165167571D02*
X423997714Y-165167571D01*
X423854857Y-165239000D01*
X423783428Y-165310428D01*
X423712000Y-165453285D01*
X423640571Y-165739000D01*
X423640571Y-166096142D01*
X423712000Y-166381857D01*
X423783428Y-166524714D01*
X423854857Y-166596142D01*
X423997714Y-166667571D01*
X424140571Y-166667571D01*
X424283428Y-166596142D01*
X424354857Y-166524714D01*
X424426285Y-166381857D01*
X424497714Y-166096142D01*
X424497714Y-165739000D01*
X424426285Y-165453285D01*
X424354857Y-165310428D01*
X424283428Y-165239000D01*
X424140571Y-165167571D01*
X422212000Y-166667571D02*
X423069142Y-166667571D01*
X422640571Y-166667571D02*
X422640571Y-165167571D01*
X422783428Y-165381857D01*
X422926285Y-165524714D01*
X423069142Y-165596142D01*
X421497714Y-166667571D02*
X421212000Y-166667571D01*
X421069142Y-166596142D01*
X420997714Y-166524714D01*
X420854857Y-166310428D01*
X420783428Y-166024714D01*
X420783428Y-165453285D01*
X420854857Y-165310428D01*
X420926285Y-165239000D01*
X421069142Y-165167571D01*
X421354857Y-165167571D01*
X421497714Y-165239000D01*
X421569142Y-165310428D01*
X421640571Y-165453285D01*
X421640571Y-165810428D01*
X421569142Y-165953285D01*
X421497714Y-166024714D01*
X421354857Y-166096142D01*
X421069142Y-166096142D01*
X420926285Y-166024714D01*
X420854857Y-165953285D01*
X420783428Y-165810428D01*
X445930285Y-168977571D02*
X445073142Y-168977571D01*
X445501714Y-170477571D02*
X445501714Y-168977571D01*
X443716000Y-170477571D02*
X444216000Y-169763285D01*
X444573142Y-170477571D02*
X444573142Y-168977571D01*
X444001714Y-168977571D01*
X443858857Y-169049000D01*
X443787428Y-169120428D01*
X443716000Y-169263285D01*
X443716000Y-169477571D01*
X443787428Y-169620428D01*
X443858857Y-169691857D01*
X444001714Y-169763285D01*
X444573142Y-169763285D01*
X443144571Y-170049000D02*
X442430285Y-170049000D01*
X443287428Y-170477571D02*
X442787428Y-168977571D01*
X442287428Y-170477571D01*
X440930285Y-170334714D02*
X441001714Y-170406142D01*
X441216000Y-170477571D01*
X441358857Y-170477571D01*
X441573142Y-170406142D01*
X441716000Y-170263285D01*
X441787428Y-170120428D01*
X441858857Y-169834714D01*
X441858857Y-169620428D01*
X441787428Y-169334714D01*
X441716000Y-169191857D01*
X441573142Y-169049000D01*
X441358857Y-168977571D01*
X441216000Y-168977571D01*
X441001714Y-169049000D01*
X440930285Y-169120428D01*
X440287428Y-170477571D02*
X440287428Y-168977571D01*
X439430285Y-170477571D02*
X440073142Y-169620428D01*
X439430285Y-168977571D02*
X440287428Y-169834714D01*
X437716000Y-170049000D02*
X437001714Y-170049000D01*
X437858857Y-170477571D02*
X437358857Y-168977571D01*
X436858857Y-170477571D01*
X436358857Y-170477571D02*
X436358857Y-168977571D01*
X435858857Y-170049000D01*
X435358857Y-168977571D01*
X435358857Y-170477571D01*
X434644571Y-170477571D02*
X434644571Y-168977571D01*
X434073142Y-168977571D01*
X433930285Y-169049000D01*
X433858857Y-169120428D01*
X433787428Y-169263285D01*
X433787428Y-169477571D01*
X433858857Y-169620428D01*
X433930285Y-169691857D01*
X434073142Y-169763285D01*
X434644571Y-169763285D01*
X432430285Y-170477571D02*
X433144571Y-170477571D01*
X433144571Y-168977571D01*
X431930285Y-170477571D02*
X431930285Y-168977571D01*
X430716000Y-169691857D02*
X431216000Y-169691857D01*
X431216000Y-170477571D02*
X431216000Y-168977571D01*
X430501714Y-168977571D01*
X429930285Y-170477571D02*
X429930285Y-168977571D01*
X429216000Y-169691857D02*
X428716000Y-169691857D01*
X428501714Y-170477571D02*
X429216000Y-170477571D01*
X429216000Y-168977571D01*
X428501714Y-168977571D01*
X427001714Y-170477571D02*
X427501714Y-169763285D01*
X427858857Y-170477571D02*
X427858857Y-168977571D01*
X427287428Y-168977571D01*
X427144571Y-169049000D01*
X427073142Y-169120428D01*
X427001714Y-169263285D01*
X427001714Y-169477571D01*
X427073142Y-169620428D01*
X427144571Y-169691857D01*
X427287428Y-169763285D01*
X427858857Y-169763285D01*
X424716000Y-169691857D02*
X424501714Y-169763285D01*
X424430285Y-169834714D01*
X424358857Y-169977571D01*
X424358857Y-170191857D01*
X424430285Y-170334714D01*
X424501714Y-170406142D01*
X424644571Y-170477571D01*
X425216000Y-170477571D01*
X425216000Y-168977571D01*
X424716000Y-168977571D01*
X424573142Y-169049000D01*
X424501714Y-169120428D01*
X424430285Y-169263285D01*
X424430285Y-169406142D01*
X424501714Y-169549000D01*
X424573142Y-169620428D01*
X424716000Y-169691857D01*
X425216000Y-169691857D01*
X423787428Y-170049000D02*
X423073142Y-170049000D01*
X423930285Y-170477571D02*
X423430285Y-168977571D01*
X422930285Y-170477571D01*
X421573142Y-170334714D02*
X421644571Y-170406142D01*
X421858857Y-170477571D01*
X422001714Y-170477571D01*
X422216000Y-170406142D01*
X422358857Y-170263285D01*
X422430285Y-170120428D01*
X422501714Y-169834714D01*
X422501714Y-169620428D01*
X422430285Y-169334714D01*
X422358857Y-169191857D01*
X422216000Y-169049000D01*
X422001714Y-168977571D01*
X421858857Y-168977571D01*
X421644571Y-169049000D01*
X421573142Y-169120428D01*
X420930285Y-170477571D02*
X420930285Y-168977571D01*
X420073142Y-170477571D02*
X420716000Y-169620428D01*
X420073142Y-168977571D02*
X420930285Y-169834714D01*
X419430285Y-170477571D02*
X419430285Y-168977571D01*
X418858857Y-168977571D01*
X418716000Y-169049000D01*
X418644571Y-169120428D01*
X418573142Y-169263285D01*
X418573142Y-169477571D01*
X418644571Y-169620428D01*
X418716000Y-169691857D01*
X418858857Y-169763285D01*
X419430285Y-169763285D01*
X417216000Y-170477571D02*
X417930285Y-170477571D01*
X417930285Y-168977571D01*
X416787428Y-170049000D02*
X416073142Y-170049000D01*
X416930285Y-170477571D02*
X416430285Y-168977571D01*
X415930285Y-170477571D01*
X415430285Y-170477571D02*
X415430285Y-168977571D01*
X414573142Y-170477571D01*
X414573142Y-168977571D01*
X413858857Y-169691857D02*
X413358857Y-169691857D01*
X413144571Y-170477571D02*
X413858857Y-170477571D01*
X413858857Y-168977571D01*
X413144571Y-168977571D01*
X411573142Y-168977571D02*
X411073142Y-170477571D01*
X410573142Y-168977571D01*
X410144571Y-169120428D02*
X410073142Y-169049000D01*
X409930285Y-168977571D01*
X409573142Y-168977571D01*
X409430285Y-169049000D01*
X409358857Y-169120428D01*
X409287428Y-169263285D01*
X409287428Y-169406142D01*
X409358857Y-169620428D01*
X410216000Y-170477571D01*
X409287428Y-170477571D01*
X408644571Y-170334714D02*
X408573142Y-170406142D01*
X408644571Y-170477571D01*
X408716000Y-170406142D01*
X408644571Y-170334714D01*
X408644571Y-170477571D01*
X407644571Y-168977571D02*
X407501714Y-168977571D01*
X407358857Y-169049000D01*
X407287428Y-169120428D01*
X407216000Y-169263285D01*
X407144571Y-169549000D01*
X407144571Y-169906142D01*
X407216000Y-170191857D01*
X407287428Y-170334714D01*
X407358857Y-170406142D01*
X407501714Y-170477571D01*
X407644571Y-170477571D01*
X407787428Y-170406142D01*
X407858857Y-170334714D01*
X407930285Y-170191857D01*
X408001714Y-169906142D01*
X408001714Y-169549000D01*
X407930285Y-169263285D01*
X407858857Y-169120428D01*
X407787428Y-169049000D01*
X407644571Y-168977571D01*
X442085000Y-173168571D02*
X441727857Y-174668571D01*
X441442142Y-173597142D01*
X441156428Y-174668571D01*
X440799285Y-173168571D01*
X440227857Y-174668571D02*
X440227857Y-173168571D01*
X439727857Y-173168571D02*
X438870714Y-173168571D01*
X439299285Y-174668571D02*
X439299285Y-173168571D01*
X438370714Y-174668571D02*
X438370714Y-173168571D01*
X438370714Y-173882857D02*
X437513571Y-173882857D01*
X437513571Y-174668571D02*
X437513571Y-173168571D01*
X435656428Y-174668571D02*
X435656428Y-173168571D01*
X435156428Y-174240000D01*
X434656428Y-173168571D01*
X434656428Y-174668571D01*
X433656428Y-173168571D02*
X433370714Y-173168571D01*
X433227857Y-173240000D01*
X433085000Y-173382857D01*
X433013571Y-173668571D01*
X433013571Y-174168571D01*
X433085000Y-174454285D01*
X433227857Y-174597142D01*
X433370714Y-174668571D01*
X433656428Y-174668571D01*
X433799285Y-174597142D01*
X433942142Y-174454285D01*
X434013571Y-174168571D01*
X434013571Y-173668571D01*
X433942142Y-173382857D01*
X433799285Y-173240000D01*
X433656428Y-173168571D01*
X432370714Y-174668571D02*
X432370714Y-173168571D01*
X432013571Y-173168571D01*
X431799285Y-173240000D01*
X431656428Y-173382857D01*
X431585000Y-173525714D01*
X431513571Y-173811428D01*
X431513571Y-174025714D01*
X431585000Y-174311428D01*
X431656428Y-174454285D01*
X431799285Y-174597142D01*
X432013571Y-174668571D01*
X432370714Y-174668571D01*
X430370714Y-173882857D02*
X430156428Y-173954285D01*
X430085000Y-174025714D01*
X430013571Y-174168571D01*
X430013571Y-174382857D01*
X430085000Y-174525714D01*
X430156428Y-174597142D01*
X430299285Y-174668571D01*
X430870714Y-174668571D01*
X430870714Y-173168571D01*
X430370714Y-173168571D01*
X430227857Y-173240000D01*
X430156428Y-173311428D01*
X430085000Y-173454285D01*
X430085000Y-173597142D01*
X430156428Y-173740000D01*
X430227857Y-173811428D01*
X430370714Y-173882857D01*
X430870714Y-173882857D01*
X429370714Y-173168571D02*
X429370714Y-174382857D01*
X429299285Y-174525714D01*
X429227857Y-174597142D01*
X429085000Y-174668571D01*
X428799285Y-174668571D01*
X428656428Y-174597142D01*
X428585000Y-174525714D01*
X428513571Y-174382857D01*
X428513571Y-173168571D01*
X427870714Y-174597142D02*
X427656428Y-174668571D01*
X427299285Y-174668571D01*
X427156428Y-174597142D01*
X427085000Y-174525714D01*
X427013571Y-174382857D01*
X427013571Y-174240000D01*
X427085000Y-174097142D01*
X427156428Y-174025714D01*
X427299285Y-173954285D01*
X427585000Y-173882857D01*
X427727857Y-173811428D01*
X427799285Y-173740000D01*
X427870714Y-173597142D01*
X427870714Y-173454285D01*
X427799285Y-173311428D01*
X427727857Y-173240000D01*
X427585000Y-173168571D01*
X427227857Y-173168571D01*
X427013571Y-173240000D01*
X425299285Y-174597142D02*
X425085000Y-174668571D01*
X424727857Y-174668571D01*
X424585000Y-174597142D01*
X424513571Y-174525714D01*
X424442142Y-174382857D01*
X424442142Y-174240000D01*
X424513571Y-174097142D01*
X424585000Y-174025714D01*
X424727857Y-173954285D01*
X425013571Y-173882857D01*
X425156428Y-173811428D01*
X425227857Y-173740000D01*
X425299285Y-173597142D01*
X425299285Y-173454285D01*
X425227857Y-173311428D01*
X425156428Y-173240000D01*
X425013571Y-173168571D01*
X424656428Y-173168571D01*
X424442142Y-173240000D01*
X423085000Y-174668571D02*
X423799285Y-174668571D01*
X423799285Y-173168571D01*
X422656428Y-174240000D02*
X421942142Y-174240000D01*
X422799285Y-174668571D02*
X422299285Y-173168571D01*
X421799285Y-174668571D01*
X421513571Y-173168571D02*
X421013571Y-174668571D01*
X420513571Y-173168571D01*
X420013571Y-173882857D02*
X419513571Y-173882857D01*
X419299285Y-174668571D02*
X420013571Y-174668571D01*
X420013571Y-173168571D01*
X419299285Y-173168571D01*
X417585000Y-174597142D02*
X417370714Y-174668571D01*
X417013571Y-174668571D01*
X416870714Y-174597142D01*
X416799285Y-174525714D01*
X416727857Y-174382857D01*
X416727857Y-174240000D01*
X416799285Y-174097142D01*
X416870714Y-174025714D01*
X417013571Y-173954285D01*
X417299285Y-173882857D01*
X417442142Y-173811428D01*
X417513571Y-173740000D01*
X417585000Y-173597142D01*
X417585000Y-173454285D01*
X417513571Y-173311428D01*
X417442142Y-173240000D01*
X417299285Y-173168571D01*
X416942142Y-173168571D01*
X416727857Y-173240000D01*
X416085000Y-173882857D02*
X415585000Y-173882857D01*
X415370714Y-174668571D02*
X416085000Y-174668571D01*
X416085000Y-173168571D01*
X415370714Y-173168571D01*
X414013571Y-174668571D02*
X414727857Y-174668571D01*
X414727857Y-173168571D01*
X413513571Y-173882857D02*
X413013571Y-173882857D01*
X412799285Y-174668571D02*
X413513571Y-174668571D01*
X413513571Y-173168571D01*
X412799285Y-173168571D01*
X411299285Y-174525714D02*
X411370714Y-174597142D01*
X411585000Y-174668571D01*
X411727857Y-174668571D01*
X411942142Y-174597142D01*
X412085000Y-174454285D01*
X412156428Y-174311428D01*
X412227857Y-174025714D01*
X412227857Y-173811428D01*
X412156428Y-173525714D01*
X412085000Y-173382857D01*
X411942142Y-173240000D01*
X411727857Y-173168571D01*
X411585000Y-173168571D01*
X411370714Y-173240000D01*
X411299285Y-173311428D01*
X410870714Y-173168571D02*
X410013571Y-173168571D01*
X410442142Y-174668571D02*
X410442142Y-173168571D01*
D11*
G04 #@! TO.C,J8*
X45110000Y-171705000D02*
G75*
G02X46170000Y-170645000I1060000J0D01*
G01*
X46170000Y-209965000D02*
G75*
G02X45110000Y-208905000I0J1060000D01*
G01*
X57730000Y-171705000D02*
G75*
G03X56670000Y-170645000I-1060000J0D01*
G01*
X57730000Y-208905000D02*
G75*
G02X56670000Y-209965000I-1060000J0D01*
G01*
X49358256Y-178288530D02*
G75*
G03X47410000Y-179923311I-288256J-1634781D01*
G01*
X49358256Y-202321470D02*
G75*
G02X47410000Y-200686689I-288256J1634781D01*
G01*
X54058256Y-179117267D02*
G75*
G02X55430000Y-180752048I-288256J-1634781D01*
G01*
X54058256Y-201492733D02*
G75*
G03X55430000Y-199857952I-288256J1634781D01*
G01*
X45110000Y-171705000D02*
X45110000Y-208905000D01*
X46170000Y-209965000D02*
X56670000Y-209965000D01*
X57730000Y-208905000D02*
X57730000Y-171705000D01*
X56670000Y-170645000D02*
X46170000Y-170645000D01*
X44215662Y-199750000D02*
X44215662Y-200250000D01*
X44215662Y-200250000D02*
X44648675Y-200000000D01*
X44648675Y-200000000D02*
X44215662Y-199750000D01*
X47410000Y-179923311D02*
X47410000Y-200686689D01*
X55430000Y-180752048D02*
X55430000Y-199857952D01*
X49358256Y-202321470D02*
X54058256Y-201492733D01*
X49358256Y-178288530D02*
X54058256Y-179117267D01*
G04 #@! TO.C,J9*
X295110000Y-171705000D02*
G75*
G02X296170000Y-170645000I1060000J0D01*
G01*
X296170000Y-209965000D02*
G75*
G02X295110000Y-208905000I0J1060000D01*
G01*
X307730000Y-171705000D02*
G75*
G03X306670000Y-170645000I-1060000J0D01*
G01*
X307730000Y-208905000D02*
G75*
G02X306670000Y-209965000I-1060000J0D01*
G01*
X299358256Y-178288530D02*
G75*
G03X297410000Y-179923311I-288256J-1634781D01*
G01*
X299358256Y-202321470D02*
G75*
G02X297410000Y-200686689I-288256J1634781D01*
G01*
X304058256Y-179117267D02*
G75*
G02X305430000Y-180752048I-288256J-1634781D01*
G01*
X304058256Y-201492733D02*
G75*
G03X305430000Y-199857952I-288256J1634781D01*
G01*
X295110000Y-171705000D02*
X295110000Y-208905000D01*
X296170000Y-209965000D02*
X306670000Y-209965000D01*
X307730000Y-208905000D02*
X307730000Y-171705000D01*
X306670000Y-170645000D02*
X296170000Y-170645000D01*
X294215662Y-199750000D02*
X294215662Y-200250000D01*
X294215662Y-200250000D02*
X294648675Y-200000000D01*
X294648675Y-200000000D02*
X294215662Y-199750000D01*
X297410000Y-179923311D02*
X297410000Y-200686689D01*
X305430000Y-180752048D02*
X305430000Y-199857952D01*
X299358256Y-202321470D02*
X304058256Y-201492733D01*
X299358256Y-178288530D02*
X304058256Y-179117267D01*
G04 #@! TO.C,J16*
X99358256Y-178288530D02*
X104058256Y-179117267D01*
X99358256Y-202321470D02*
X104058256Y-201492733D01*
X105430000Y-180752048D02*
X105430000Y-199857952D01*
X97410000Y-179923311D02*
X97410000Y-200686689D01*
X94648675Y-200000000D02*
X94215662Y-199750000D01*
X94215662Y-200250000D02*
X94648675Y-200000000D01*
X94215662Y-199750000D02*
X94215662Y-200250000D01*
X106670000Y-170645000D02*
X96170000Y-170645000D01*
X107730000Y-208905000D02*
X107730000Y-171705000D01*
X96170000Y-209965000D02*
X106670000Y-209965000D01*
X95110000Y-171705000D02*
X95110000Y-208905000D01*
X104058256Y-201492733D02*
G75*
G03X105430000Y-199857952I-288256J1634781D01*
G01*
X104058256Y-179117267D02*
G75*
G02X105430000Y-180752048I-288256J-1634781D01*
G01*
X99358256Y-202321470D02*
G75*
G02X97410000Y-200686689I-288256J1634781D01*
G01*
X99358256Y-178288530D02*
G75*
G03X97410000Y-179923311I-288256J-1634781D01*
G01*
X107730000Y-208905000D02*
G75*
G02X106670000Y-209965000I-1060000J0D01*
G01*
X107730000Y-171705000D02*
G75*
G03X106670000Y-170645000I-1060000J0D01*
G01*
X96170000Y-209965000D02*
G75*
G02X95110000Y-208905000I0J1060000D01*
G01*
X95110000Y-171705000D02*
G75*
G02X96170000Y-170645000I1060000J0D01*
G01*
G04 #@! TO.C,J17*
X349358256Y-178288530D02*
X354058256Y-179117267D01*
X349358256Y-202321470D02*
X354058256Y-201492733D01*
X355430000Y-180752048D02*
X355430000Y-199857952D01*
X347410000Y-179923311D02*
X347410000Y-200686689D01*
X344648675Y-200000000D02*
X344215662Y-199750000D01*
X344215662Y-200250000D02*
X344648675Y-200000000D01*
X344215662Y-199750000D02*
X344215662Y-200250000D01*
X356670000Y-170645000D02*
X346170000Y-170645000D01*
X357730000Y-208905000D02*
X357730000Y-171705000D01*
X346170000Y-209965000D02*
X356670000Y-209965000D01*
X345110000Y-171705000D02*
X345110000Y-208905000D01*
X354058256Y-201492733D02*
G75*
G03X355430000Y-199857952I-288256J1634781D01*
G01*
X354058256Y-179117267D02*
G75*
G02X355430000Y-180752048I-288256J-1634781D01*
G01*
X349358256Y-202321470D02*
G75*
G02X347410000Y-200686689I-288256J1634781D01*
G01*
X349358256Y-178288530D02*
G75*
G03X347410000Y-179923311I-288256J-1634781D01*
G01*
X357730000Y-208905000D02*
G75*
G02X356670000Y-209965000I-1060000J0D01*
G01*
X357730000Y-171705000D02*
G75*
G03X356670000Y-170645000I-1060000J0D01*
G01*
X346170000Y-209965000D02*
G75*
G02X345110000Y-208905000I0J1060000D01*
G01*
X345110000Y-171705000D02*
G75*
G02X346170000Y-170645000I1060000J0D01*
G01*
G04 #@! TO.C,J19*
X145110000Y-171705000D02*
G75*
G02X146170000Y-170645000I1060000J0D01*
G01*
X146170000Y-209965000D02*
G75*
G02X145110000Y-208905000I0J1060000D01*
G01*
X157730000Y-171705000D02*
G75*
G03X156670000Y-170645000I-1060000J0D01*
G01*
X157730000Y-208905000D02*
G75*
G02X156670000Y-209965000I-1060000J0D01*
G01*
X149358256Y-178288530D02*
G75*
G03X147410000Y-179923311I-288256J-1634781D01*
G01*
X149358256Y-202321470D02*
G75*
G02X147410000Y-200686689I-288256J1634781D01*
G01*
X154058256Y-179117267D02*
G75*
G02X155430000Y-180752048I-288256J-1634781D01*
G01*
X154058256Y-201492733D02*
G75*
G03X155430000Y-199857952I-288256J1634781D01*
G01*
X145110000Y-171705000D02*
X145110000Y-208905000D01*
X146170000Y-209965000D02*
X156670000Y-209965000D01*
X157730000Y-208905000D02*
X157730000Y-171705000D01*
X156670000Y-170645000D02*
X146170000Y-170645000D01*
X144215662Y-199750000D02*
X144215662Y-200250000D01*
X144215662Y-200250000D02*
X144648675Y-200000000D01*
X144648675Y-200000000D02*
X144215662Y-199750000D01*
X147410000Y-179923311D02*
X147410000Y-200686689D01*
X155430000Y-180752048D02*
X155430000Y-199857952D01*
X149358256Y-202321470D02*
X154058256Y-201492733D01*
X149358256Y-178288530D02*
X154058256Y-179117267D01*
G04 #@! TO.C,J20*
X395110000Y-171705000D02*
G75*
G02X396170000Y-170645000I1060000J0D01*
G01*
X396170000Y-209965000D02*
G75*
G02X395110000Y-208905000I0J1060000D01*
G01*
X407730000Y-171705000D02*
G75*
G03X406670000Y-170645000I-1060000J0D01*
G01*
X407730000Y-208905000D02*
G75*
G02X406670000Y-209965000I-1060000J0D01*
G01*
X399358256Y-178288530D02*
G75*
G03X397410000Y-179923311I-288256J-1634781D01*
G01*
X399358256Y-202321470D02*
G75*
G02X397410000Y-200686689I-288256J1634781D01*
G01*
X404058256Y-179117267D02*
G75*
G02X405430000Y-180752048I-288256J-1634781D01*
G01*
X404058256Y-201492733D02*
G75*
G03X405430000Y-199857952I-288256J1634781D01*
G01*
X395110000Y-171705000D02*
X395110000Y-208905000D01*
X396170000Y-209965000D02*
X406670000Y-209965000D01*
X407730000Y-208905000D02*
X407730000Y-171705000D01*
X406670000Y-170645000D02*
X396170000Y-170645000D01*
X394215662Y-199750000D02*
X394215662Y-200250000D01*
X394215662Y-200250000D02*
X394648675Y-200000000D01*
X394648675Y-200000000D02*
X394215662Y-199750000D01*
X397410000Y-179923311D02*
X397410000Y-200686689D01*
X405430000Y-180752048D02*
X405430000Y-199857952D01*
X399358256Y-202321470D02*
X404058256Y-201492733D01*
X399358256Y-178288530D02*
X404058256Y-179117267D01*
G04 #@! TO.C,J21*
X199358256Y-178288530D02*
X204058256Y-179117267D01*
X199358256Y-202321470D02*
X204058256Y-201492733D01*
X205430000Y-180752048D02*
X205430000Y-199857952D01*
X197410000Y-179923311D02*
X197410000Y-200686689D01*
X194648675Y-200000000D02*
X194215662Y-199750000D01*
X194215662Y-200250000D02*
X194648675Y-200000000D01*
X194215662Y-199750000D02*
X194215662Y-200250000D01*
X206670000Y-170645000D02*
X196170000Y-170645000D01*
X207730000Y-208905000D02*
X207730000Y-171705000D01*
X196170000Y-209965000D02*
X206670000Y-209965000D01*
X195110000Y-171705000D02*
X195110000Y-208905000D01*
X204058256Y-201492733D02*
G75*
G03X205430000Y-199857952I-288256J1634781D01*
G01*
X204058256Y-179117267D02*
G75*
G02X205430000Y-180752048I-288256J-1634781D01*
G01*
X199358256Y-202321470D02*
G75*
G02X197410000Y-200686689I-288256J1634781D01*
G01*
X199358256Y-178288530D02*
G75*
G03X197410000Y-179923311I-288256J-1634781D01*
G01*
X207730000Y-208905000D02*
G75*
G02X206670000Y-209965000I-1060000J0D01*
G01*
X207730000Y-171705000D02*
G75*
G03X206670000Y-170645000I-1060000J0D01*
G01*
X196170000Y-209965000D02*
G75*
G02X195110000Y-208905000I0J1060000D01*
G01*
X195110000Y-171705000D02*
G75*
G02X196170000Y-170645000I1060000J0D01*
G01*
G04 #@! TO.C,J22*
X449358256Y-178288530D02*
X454058256Y-179117267D01*
X449358256Y-202321470D02*
X454058256Y-201492733D01*
X455430000Y-180752048D02*
X455430000Y-199857952D01*
X447410000Y-179923311D02*
X447410000Y-200686689D01*
X444648675Y-200000000D02*
X444215662Y-199750000D01*
X444215662Y-200250000D02*
X444648675Y-200000000D01*
X444215662Y-199750000D02*
X444215662Y-200250000D01*
X456670000Y-170645000D02*
X446170000Y-170645000D01*
X457730000Y-208905000D02*
X457730000Y-171705000D01*
X446170000Y-209965000D02*
X456670000Y-209965000D01*
X445110000Y-171705000D02*
X445110000Y-208905000D01*
X454058256Y-201492733D02*
G75*
G03X455430000Y-199857952I-288256J1634781D01*
G01*
X454058256Y-179117267D02*
G75*
G02X455430000Y-180752048I-288256J-1634781D01*
G01*
X449358256Y-202321470D02*
G75*
G02X447410000Y-200686689I-288256J1634781D01*
G01*
X449358256Y-178288530D02*
G75*
G03X447410000Y-179923311I-288256J-1634781D01*
G01*
X457730000Y-208905000D02*
G75*
G02X456670000Y-209965000I-1060000J0D01*
G01*
X457730000Y-171705000D02*
G75*
G03X456670000Y-170645000I-1060000J0D01*
G01*
X446170000Y-209965000D02*
G75*
G02X445110000Y-208905000I0J1060000D01*
G01*
X445110000Y-171705000D02*
G75*
G02X446170000Y-170645000I1060000J0D01*
G01*
G04 #@! TO.C,J23*
X249358256Y-178288530D02*
X254058256Y-179117267D01*
X249358256Y-202321470D02*
X254058256Y-201492733D01*
X255430000Y-180752048D02*
X255430000Y-199857952D01*
X247410000Y-179923311D02*
X247410000Y-200686689D01*
X244648675Y-200000000D02*
X244215662Y-199750000D01*
X244215662Y-200250000D02*
X244648675Y-200000000D01*
X244215662Y-199750000D02*
X244215662Y-200250000D01*
X256670000Y-170645000D02*
X246170000Y-170645000D01*
X257730000Y-208905000D02*
X257730000Y-171705000D01*
X246170000Y-209965000D02*
X256670000Y-209965000D01*
X245110000Y-171705000D02*
X245110000Y-208905000D01*
X254058256Y-201492733D02*
G75*
G03X255430000Y-199857952I-288256J1634781D01*
G01*
X254058256Y-179117267D02*
G75*
G02X255430000Y-180752048I-288256J-1634781D01*
G01*
X249358256Y-202321470D02*
G75*
G02X247410000Y-200686689I-288256J1634781D01*
G01*
X249358256Y-178288530D02*
G75*
G03X247410000Y-179923311I-288256J-1634781D01*
G01*
X257730000Y-208905000D02*
G75*
G02X256670000Y-209965000I-1060000J0D01*
G01*
X257730000Y-171705000D02*
G75*
G03X256670000Y-170645000I-1060000J0D01*
G01*
X246170000Y-209965000D02*
G75*
G02X245110000Y-208905000I0J1060000D01*
G01*
X245110000Y-171705000D02*
G75*
G02X246170000Y-170645000I1060000J0D01*
G01*
G04 #@! TO.C,J24*
X495110000Y-171705000D02*
G75*
G02X496170000Y-170645000I1060000J0D01*
G01*
X496170000Y-209965000D02*
G75*
G02X495110000Y-208905000I0J1060000D01*
G01*
X507730000Y-171705000D02*
G75*
G03X506670000Y-170645000I-1060000J0D01*
G01*
X507730000Y-208905000D02*
G75*
G02X506670000Y-209965000I-1060000J0D01*
G01*
X499358256Y-178288530D02*
G75*
G03X497410000Y-179923311I-288256J-1634781D01*
G01*
X499358256Y-202321470D02*
G75*
G02X497410000Y-200686689I-288256J1634781D01*
G01*
X504058256Y-179117267D02*
G75*
G02X505430000Y-180752048I-288256J-1634781D01*
G01*
X504058256Y-201492733D02*
G75*
G03X505430000Y-199857952I-288256J1634781D01*
G01*
X495110000Y-171705000D02*
X495110000Y-208905000D01*
X496170000Y-209965000D02*
X506670000Y-209965000D01*
X507730000Y-208905000D02*
X507730000Y-171705000D01*
X506670000Y-170645000D02*
X496170000Y-170645000D01*
X494215662Y-199750000D02*
X494215662Y-200250000D01*
X494215662Y-200250000D02*
X494648675Y-200000000D01*
X494648675Y-200000000D02*
X494215662Y-199750000D01*
X497410000Y-179923311D02*
X497410000Y-200686689D01*
X505430000Y-180752048D02*
X505430000Y-199857952D01*
X499358256Y-202321470D02*
X504058256Y-201492733D01*
X499358256Y-178288530D02*
X504058256Y-179117267D01*
G04 #@! TO.C,J8*
D12*
X43562380Y-189971666D02*
X44276666Y-189971666D01*
X44419523Y-189924047D01*
X44514761Y-189828809D01*
X44562380Y-189685952D01*
X44562380Y-189590714D01*
X43990952Y-190590714D02*
X43943333Y-190495476D01*
X43895714Y-190447857D01*
X43800476Y-190400238D01*
X43752857Y-190400238D01*
X43657619Y-190447857D01*
X43610000Y-190495476D01*
X43562380Y-190590714D01*
X43562380Y-190781190D01*
X43610000Y-190876428D01*
X43657619Y-190924047D01*
X43752857Y-190971666D01*
X43800476Y-190971666D01*
X43895714Y-190924047D01*
X43943333Y-190876428D01*
X43990952Y-190781190D01*
X43990952Y-190590714D01*
X44038571Y-190495476D01*
X44086190Y-190447857D01*
X44181428Y-190400238D01*
X44371904Y-190400238D01*
X44467142Y-190447857D01*
X44514761Y-190495476D01*
X44562380Y-190590714D01*
X44562380Y-190781190D01*
X44514761Y-190876428D01*
X44467142Y-190924047D01*
X44371904Y-190971666D01*
X44181428Y-190971666D01*
X44086190Y-190924047D01*
X44038571Y-190876428D01*
X43990952Y-190781190D01*
G04 #@! TO.C,J9*
X293562380Y-189971666D02*
X294276666Y-189971666D01*
X294419523Y-189924047D01*
X294514761Y-189828809D01*
X294562380Y-189685952D01*
X294562380Y-189590714D01*
X294562380Y-190495476D02*
X294562380Y-190685952D01*
X294514761Y-190781190D01*
X294467142Y-190828809D01*
X294324285Y-190924047D01*
X294133809Y-190971666D01*
X293752857Y-190971666D01*
X293657619Y-190924047D01*
X293610000Y-190876428D01*
X293562380Y-190781190D01*
X293562380Y-190590714D01*
X293610000Y-190495476D01*
X293657619Y-190447857D01*
X293752857Y-190400238D01*
X293990952Y-190400238D01*
X294086190Y-190447857D01*
X294133809Y-190495476D01*
X294181428Y-190590714D01*
X294181428Y-190781190D01*
X294133809Y-190876428D01*
X294086190Y-190924047D01*
X293990952Y-190971666D01*
G04 #@! TO.C,J16*
X93562380Y-189495476D02*
X94276666Y-189495476D01*
X94419523Y-189447857D01*
X94514761Y-189352619D01*
X94562380Y-189209761D01*
X94562380Y-189114523D01*
X94562380Y-190495476D02*
X94562380Y-189924047D01*
X94562380Y-190209761D02*
X93562380Y-190209761D01*
X93705238Y-190114523D01*
X93800476Y-190019285D01*
X93848095Y-189924047D01*
X93562380Y-191352619D02*
X93562380Y-191162142D01*
X93610000Y-191066904D01*
X93657619Y-191019285D01*
X93800476Y-190924047D01*
X93990952Y-190876428D01*
X94371904Y-190876428D01*
X94467142Y-190924047D01*
X94514761Y-190971666D01*
X94562380Y-191066904D01*
X94562380Y-191257380D01*
X94514761Y-191352619D01*
X94467142Y-191400238D01*
X94371904Y-191447857D01*
X94133809Y-191447857D01*
X94038571Y-191400238D01*
X93990952Y-191352619D01*
X93943333Y-191257380D01*
X93943333Y-191066904D01*
X93990952Y-190971666D01*
X94038571Y-190924047D01*
X94133809Y-190876428D01*
G04 #@! TO.C,J17*
X343562380Y-189495476D02*
X344276666Y-189495476D01*
X344419523Y-189447857D01*
X344514761Y-189352619D01*
X344562380Y-189209761D01*
X344562380Y-189114523D01*
X344562380Y-190495476D02*
X344562380Y-189924047D01*
X344562380Y-190209761D02*
X343562380Y-190209761D01*
X343705238Y-190114523D01*
X343800476Y-190019285D01*
X343848095Y-189924047D01*
X343562380Y-190828809D02*
X343562380Y-191495476D01*
X344562380Y-191066904D01*
G04 #@! TO.C,J19*
X143562380Y-189495476D02*
X144276666Y-189495476D01*
X144419523Y-189447857D01*
X144514761Y-189352619D01*
X144562380Y-189209761D01*
X144562380Y-189114523D01*
X144562380Y-190495476D02*
X144562380Y-189924047D01*
X144562380Y-190209761D02*
X143562380Y-190209761D01*
X143705238Y-190114523D01*
X143800476Y-190019285D01*
X143848095Y-189924047D01*
X144562380Y-190971666D02*
X144562380Y-191162142D01*
X144514761Y-191257380D01*
X144467142Y-191305000D01*
X144324285Y-191400238D01*
X144133809Y-191447857D01*
X143752857Y-191447857D01*
X143657619Y-191400238D01*
X143610000Y-191352619D01*
X143562380Y-191257380D01*
X143562380Y-191066904D01*
X143610000Y-190971666D01*
X143657619Y-190924047D01*
X143752857Y-190876428D01*
X143990952Y-190876428D01*
X144086190Y-190924047D01*
X144133809Y-190971666D01*
X144181428Y-191066904D01*
X144181428Y-191257380D01*
X144133809Y-191352619D01*
X144086190Y-191400238D01*
X143990952Y-191447857D01*
G04 #@! TO.C,J20*
X393562380Y-189495476D02*
X394276666Y-189495476D01*
X394419523Y-189447857D01*
X394514761Y-189352619D01*
X394562380Y-189209761D01*
X394562380Y-189114523D01*
X393657619Y-189924047D02*
X393610000Y-189971666D01*
X393562380Y-190066904D01*
X393562380Y-190305000D01*
X393610000Y-190400238D01*
X393657619Y-190447857D01*
X393752857Y-190495476D01*
X393848095Y-190495476D01*
X393990952Y-190447857D01*
X394562380Y-189876428D01*
X394562380Y-190495476D01*
X393562380Y-191114523D02*
X393562380Y-191209761D01*
X393610000Y-191305000D01*
X393657619Y-191352619D01*
X393752857Y-191400238D01*
X393943333Y-191447857D01*
X394181428Y-191447857D01*
X394371904Y-191400238D01*
X394467142Y-191352619D01*
X394514761Y-191305000D01*
X394562380Y-191209761D01*
X394562380Y-191114523D01*
X394514761Y-191019285D01*
X394467142Y-190971666D01*
X394371904Y-190924047D01*
X394181428Y-190876428D01*
X393943333Y-190876428D01*
X393752857Y-190924047D01*
X393657619Y-190971666D01*
X393610000Y-191019285D01*
X393562380Y-191114523D01*
G04 #@! TO.C,J21*
X193562380Y-189495476D02*
X194276666Y-189495476D01*
X194419523Y-189447857D01*
X194514761Y-189352619D01*
X194562380Y-189209761D01*
X194562380Y-189114523D01*
X193657619Y-189924047D02*
X193610000Y-189971666D01*
X193562380Y-190066904D01*
X193562380Y-190305000D01*
X193610000Y-190400238D01*
X193657619Y-190447857D01*
X193752857Y-190495476D01*
X193848095Y-190495476D01*
X193990952Y-190447857D01*
X194562380Y-189876428D01*
X194562380Y-190495476D01*
X194562380Y-191447857D02*
X194562380Y-190876428D01*
X194562380Y-191162142D02*
X193562380Y-191162142D01*
X193705238Y-191066904D01*
X193800476Y-190971666D01*
X193848095Y-190876428D01*
G04 #@! TO.C,J22*
X443562380Y-189495476D02*
X444276666Y-189495476D01*
X444419523Y-189447857D01*
X444514761Y-189352619D01*
X444562380Y-189209761D01*
X444562380Y-189114523D01*
X443657619Y-189924047D02*
X443610000Y-189971666D01*
X443562380Y-190066904D01*
X443562380Y-190305000D01*
X443610000Y-190400238D01*
X443657619Y-190447857D01*
X443752857Y-190495476D01*
X443848095Y-190495476D01*
X443990952Y-190447857D01*
X444562380Y-189876428D01*
X444562380Y-190495476D01*
X443657619Y-190876428D02*
X443610000Y-190924047D01*
X443562380Y-191019285D01*
X443562380Y-191257380D01*
X443610000Y-191352619D01*
X443657619Y-191400238D01*
X443752857Y-191447857D01*
X443848095Y-191447857D01*
X443990952Y-191400238D01*
X444562380Y-190828809D01*
X444562380Y-191447857D01*
G04 #@! TO.C,J23*
X243562380Y-189495476D02*
X244276666Y-189495476D01*
X244419523Y-189447857D01*
X244514761Y-189352619D01*
X244562380Y-189209761D01*
X244562380Y-189114523D01*
X243657619Y-189924047D02*
X243610000Y-189971666D01*
X243562380Y-190066904D01*
X243562380Y-190305000D01*
X243610000Y-190400238D01*
X243657619Y-190447857D01*
X243752857Y-190495476D01*
X243848095Y-190495476D01*
X243990952Y-190447857D01*
X244562380Y-189876428D01*
X244562380Y-190495476D01*
X243562380Y-190828809D02*
X243562380Y-191447857D01*
X243943333Y-191114523D01*
X243943333Y-191257380D01*
X243990952Y-191352619D01*
X244038571Y-191400238D01*
X244133809Y-191447857D01*
X244371904Y-191447857D01*
X244467142Y-191400238D01*
X244514761Y-191352619D01*
X244562380Y-191257380D01*
X244562380Y-190971666D01*
X244514761Y-190876428D01*
X244467142Y-190828809D01*
G04 #@! TO.C,J24*
X493562380Y-189495476D02*
X494276666Y-189495476D01*
X494419523Y-189447857D01*
X494514761Y-189352619D01*
X494562380Y-189209761D01*
X494562380Y-189114523D01*
X493657619Y-189924047D02*
X493610000Y-189971666D01*
X493562380Y-190066904D01*
X493562380Y-190305000D01*
X493610000Y-190400238D01*
X493657619Y-190447857D01*
X493752857Y-190495476D01*
X493848095Y-190495476D01*
X493990952Y-190447857D01*
X494562380Y-189876428D01*
X494562380Y-190495476D01*
X493895714Y-191352619D02*
X494562380Y-191352619D01*
X493514761Y-191114523D02*
X494229047Y-190876428D01*
X494229047Y-191495476D01*
G04 #@! TD*
M02*
