M48
;DRILL file {KiCad (5.0.0)} date 12/13/18 19:24:01
;FORMAT={-:-/ absolute / inch / decimal}
FMAT,2
INCH,TZ
T1C0.0157
T2C0.0236
T3C0.0315
T4C0.0394
T5C0.0400
T6C0.0433
T7C0.0512
T8C0.1260
%
G90
G05
M72
T1
X1.815Y-6.55
X2.21Y-6.55
X2.62Y-6.96
X2.62Y-7.15
X2.75Y-7.655
X2.8Y-7.6014
X2.9Y-7.4923
X2.95Y-7.5469
X3.05Y-7.4378
X3.1Y-7.3833
X3.2Y-7.2742
X3.25Y-7.3287
X3.605Y-7.05
X3.605Y-7.16
X3.605Y-7.3287
X6.0782Y-6.5728
X6.11Y-6.54
X6.342Y-7.383
X6.375Y-7.438
X6.407Y-7.602
X6.438Y-7.656
X6.476Y-6.841
X6.48Y-7.092
X6.48Y-7.4923
X6.49Y-6.66
X6.49Y-6.891
X6.499Y-6.789
X6.51Y-6.495
X6.52Y-7.025
X6.52Y-7.121
X6.52Y-7.5469
X6.5215Y-6.69
X6.9689Y-6.6215
X6.97Y-6.54
X6.984Y-6.7045
X7.01Y-6.49
X7.01Y-6.59
X7.25Y-7.235
X7.56Y-6.985
X7.57Y-6.84
X7.575Y-6.52
X7.575Y-6.57
X7.6325Y-7.165
X7.6325Y-7.24
X7.7825Y-6.5825
X7.7825Y-6.735
X8.48Y-6.935
X9.1Y-6.71
X9.1Y-6.855
X9.1625Y-7.275
X9.19Y-6.82
X9.2Y-6.76
X9.2075Y-6.86
X9.21Y-6.49
X9.21Y-7.3287
X9.735Y-6.845
X18.449Y-7.6559
X18.5Y-7.6014
X18.6Y-7.4923
X18.65Y-7.5469
X18.75Y-7.4378
X18.8Y-7.3833
X18.9Y-7.2742
X18.95Y-7.3287
T2
X4.82Y-6.58
X4.82Y-6.68
X4.82Y-6.77
X4.82Y-6.86
X4.82Y-6.96
X4.92Y-6.58
X4.92Y-6.68
X4.92Y-6.77
X4.92Y-6.86
X4.92Y-6.96
X5.02Y-6.58
X5.02Y-6.96
X5.12Y-6.58
X5.12Y-6.96
X5.22Y-6.58
X5.22Y-6.96
X5.32Y-6.58
X5.32Y-6.68
X5.32Y-6.77
X5.32Y-6.86
X5.32Y-6.96
X5.42Y-6.58
X5.42Y-6.68
X5.42Y-6.77
X5.42Y-6.86
X5.42Y-6.96
T3
X5.55Y-7.22
X5.6484Y-7.22
T4
X13.7795Y-7.1106
X13.7795Y-7.2197
X13.7795Y-7.3287
X13.7795Y-7.4378
X13.7795Y-7.5469
X13.7795Y-7.6559
X13.7795Y-7.765
X13.7795Y-7.874
X13.8913Y-7.1652
X13.8913Y-7.2742
X13.8913Y-7.3833
X13.8913Y-7.4923
X13.8913Y-7.6014
X13.8913Y-7.7104
X13.8913Y-7.8195
X3.937Y-7.1106
X3.937Y-7.2197
X3.937Y-7.3287
X3.937Y-7.4378
X3.937Y-7.5469
X3.937Y-7.6559
X3.937Y-7.765
X3.937Y-7.874
X4.0488Y-7.1652
X4.0488Y-7.2742
X4.0488Y-7.3833
X4.0488Y-7.4923
X4.0488Y-7.6014
X4.0488Y-7.7104
X4.0488Y-7.8195
X4.9803Y-7.7953
X4.9803Y-8.0906
X16.7913Y-7.7953
X16.7913Y-8.0906
X7.874Y-7.1106
X7.874Y-7.2197
X7.874Y-7.3287
X7.874Y-7.4378
X7.874Y-7.5469
X7.874Y-7.6559
X7.874Y-7.765
X7.874Y-7.874
X7.9858Y-7.1652
X7.9858Y-7.2742
X7.9858Y-7.3833
X7.9858Y-7.4923
X7.9858Y-7.6014
X7.9858Y-7.7104
X7.9858Y-7.8195
X19.685Y-7.1106
X19.685Y-7.2197
X19.685Y-7.3287
X19.685Y-7.4378
X19.685Y-7.5469
X19.685Y-7.6559
X19.685Y-7.765
X19.685Y-7.874
X19.7969Y-7.1652
X19.7969Y-7.2742
X19.7969Y-7.3833
X19.7969Y-7.4923
X19.7969Y-7.6014
X19.7969Y-7.7104
X19.7969Y-7.8195
X15.748Y-7.1106
X15.748Y-7.2197
X15.748Y-7.3287
X15.748Y-7.4378
X15.748Y-7.5469
X15.748Y-7.6559
X15.748Y-7.765
X15.748Y-7.874
X15.8598Y-7.1652
X15.8598Y-7.2742
X15.8598Y-7.3833
X15.8598Y-7.4923
X15.8598Y-7.6014
X15.8598Y-7.7104
X15.8598Y-7.8195
X17.7165Y-7.1106
X17.7165Y-7.2197
X17.7165Y-7.3287
X17.7165Y-7.4378
X17.7165Y-7.5469
X17.7165Y-7.6559
X17.7165Y-7.765
X17.7165Y-7.874
X17.8283Y-7.1652
X17.8283Y-7.2742
X17.8283Y-7.3833
X17.8283Y-7.4923
X17.8283Y-7.6014
X17.8283Y-7.7104
X17.8283Y-7.8195
X20.035Y-7.09
X20.035Y-7.19
X20.035Y-7.29
X20.035Y-7.39
X20.035Y-7.49
X20.035Y-7.59
X20.035Y-7.69
X20.035Y-7.79
X20.035Y-7.89
X1.9685Y-7.1106
X1.9685Y-7.2197
X1.9685Y-7.3287
X1.9685Y-7.4378
X1.9685Y-7.5469
X1.9685Y-7.6559
X1.9685Y-7.765
X1.9685Y-7.874
X2.0803Y-7.1652
X2.0803Y-7.2742
X2.0803Y-7.3833
X2.0803Y-7.4923
X2.0803Y-7.6014
X2.0803Y-7.7104
X2.0803Y-7.8195
X11.811Y-7.1106
X11.811Y-7.2197
X11.811Y-7.3287
X11.811Y-7.4378
X11.811Y-7.5469
X11.811Y-7.6559
X11.811Y-7.765
X11.811Y-7.874
X11.9228Y-7.1652
X11.9228Y-7.2742
X11.9228Y-7.3833
X11.9228Y-7.4923
X11.9228Y-7.6014
X11.9228Y-7.7104
X11.9228Y-7.8195
X5.9055Y-7.1106
X5.9055Y-7.2197
X5.9055Y-7.3287
X5.9055Y-7.4378
X5.9055Y-7.5469
X5.9055Y-7.6559
X5.9055Y-7.765
X5.9055Y-7.874
X6.0173Y-7.1652
X6.0173Y-7.2742
X6.0173Y-7.3833
X6.0173Y-7.4923
X6.0173Y-7.6014
X6.0173Y-7.7104
X6.0173Y-7.8195
X9.8425Y-7.1106
X9.8425Y-7.2197
X9.8425Y-7.3287
X9.8425Y-7.4378
X9.8425Y-7.5469
X9.8425Y-7.6559
X9.8425Y-7.765
X9.8425Y-7.874
X9.9543Y-7.1652
X9.9543Y-7.2742
X9.9543Y-7.3833
X9.9543Y-7.4923
X9.9543Y-7.6014
X9.9543Y-7.7104
X9.9543Y-7.8195
X9.59Y-6.53
X9.69Y-6.53
X9.79Y-6.53
X9.89Y-6.53
X9.99Y-6.53
X10.09Y-6.53
T5
X18.5Y-6.6
X18.5Y-6.7
X18.6Y-6.6
X18.6Y-6.7
X18.7Y-6.6
X18.7Y-6.7
X18.8Y-6.6
X18.8Y-6.7
X18.9Y-6.6
X18.9Y-6.7
X2.8Y-6.6
X2.8Y-6.7
X2.9Y-6.6
X2.9Y-6.7
X3.Y-6.6
X3.Y-6.7
X3.1Y-6.6
X3.1Y-6.7
X3.2Y-6.6
X3.2Y-6.7
T6
X10.3543Y-8.2039
X10.3543Y-8.5039
X10.4543Y-8.2039
X10.4543Y-8.5039
X10.5543Y-8.2039
X10.5543Y-8.5039
X10.6543Y-8.2039
X10.6543Y-8.5039
X10.7543Y-8.2039
X10.7543Y-8.5039
X11.0039Y-8.2039
X11.0039Y-8.5039
X11.1039Y-8.2039
X11.1039Y-8.5039
X11.2039Y-8.2039
X11.2039Y-8.5039
X11.3039Y-8.2039
X11.3039Y-8.5039
X11.4039Y-8.2039
X11.4039Y-8.5039
X5.024Y-7.061
X5.1141Y-7.061
X5.2043Y-7.061
T7
X1.8248Y-8.5039
X2.0248Y-8.5039
X2.2248Y-8.5039
X5.7618Y-8.5039
X5.9618Y-8.5039
X6.1618Y-8.5039
X3.7933Y-8.5039
X3.9933Y-8.5039
X4.1933Y-8.5039
X17.5728Y-8.5039
X17.7728Y-8.5039
X17.9728Y-8.5039
X15.6043Y-8.5039
X15.8043Y-8.5039
X16.0043Y-8.5039
X7.7303Y-8.5039
X7.9303Y-8.5039
X8.1303Y-8.5039
X19.5413Y-8.5039
X19.7413Y-8.5039
X19.9413Y-8.5039
X9.6988Y-8.5039
X9.8988Y-8.5039
X10.0988Y-8.5039
X11.6673Y-8.5039
X11.8673Y-8.5039
X12.0673Y-8.5039
X13.6358Y-8.5039
X13.8358Y-8.5039
X14.0358Y-8.5039
T8
X11.8669Y-6.8368
X11.8669Y-8.1478
X5.9614Y-6.8368
X5.9614Y-8.1478
X9.8984Y-6.8368
X9.8984Y-8.1478
X13.8354Y-6.8368
X13.8354Y-8.1478
X3.9929Y-6.8368
X3.9929Y-8.1478
X7.9299Y-6.8368
X7.9299Y-8.1478
X19.7409Y-6.8368
X19.7409Y-8.1478
X15.8039Y-6.8368
X15.8039Y-8.1478
X17.7724Y-6.8368
X17.7724Y-8.1478
X2.0244Y-6.8368
X2.0244Y-8.1478
T0
M30
