G04 #@! TF.FileFunction,Other,User*
%FSLAX46Y46*%
G04 Gerber Fmt 4.6, Leading zero omitted, Abs format (unit mm)*
G04 Created by KiCad (PCBNEW 4.0.7) date 04/04/18 15:32:55*
%MOMM*%
%LPD*%
G01*
G04 APERTURE LIST*
%ADD10C,0.100000*%
%ADD11C,0.050000*%
G04 APERTURE END LIST*
D10*
D11*
X194620000Y-118074000D02*
X201620000Y-118074000D01*
X201620000Y-118074000D02*
X201620000Y-111074000D01*
X201620000Y-111074000D02*
X194620000Y-111074000D01*
X194620000Y-111074000D02*
X194620000Y-118074000D01*
X199954000Y-122188800D02*
X206954000Y-122188800D01*
X206954000Y-122188800D02*
X206954000Y-115188800D01*
X206954000Y-115188800D02*
X199954000Y-115188800D01*
X199954000Y-115188800D02*
X199954000Y-122188800D01*
X199889000Y-120261400D02*
X195589000Y-120261400D01*
X199889000Y-120261400D02*
X199889000Y-118051400D01*
X195589000Y-118051400D02*
X195589000Y-120261400D01*
X195589000Y-118051400D02*
X199889000Y-118051400D01*
X204310000Y-111134000D02*
X204310000Y-115434000D01*
X204310000Y-111134000D02*
X202100000Y-111134000D01*
X202100000Y-115434000D02*
X204310000Y-115434000D01*
X202100000Y-115434000D02*
X202100000Y-111134000D01*
X206596000Y-111134000D02*
X206596000Y-115434000D01*
X206596000Y-111134000D02*
X204386000Y-111134000D01*
X204386000Y-115434000D02*
X206596000Y-115434000D01*
X204386000Y-115434000D02*
X204386000Y-111134000D01*
X208882000Y-111134000D02*
X208882000Y-115434000D01*
X208882000Y-111134000D02*
X206672000Y-111134000D01*
X206672000Y-115434000D02*
X208882000Y-115434000D01*
X206672000Y-115434000D02*
X206672000Y-111134000D01*
X192398000Y-121755400D02*
X192398000Y-117055400D01*
X192398000Y-117055400D02*
X194698000Y-117055400D01*
X194698000Y-117055400D02*
X194698000Y-121755400D01*
X192398000Y-121755400D02*
X194698000Y-121755400D01*
X190112000Y-121755400D02*
X190112000Y-117055400D01*
X190112000Y-117055400D02*
X192412000Y-117055400D01*
X192412000Y-117055400D02*
X192412000Y-121755400D01*
X190112000Y-121755400D02*
X192412000Y-121755400D01*
X192398000Y-115888000D02*
X192398000Y-111188000D01*
X192398000Y-111188000D02*
X194698000Y-111188000D01*
X194698000Y-111188000D02*
X194698000Y-115888000D01*
X192398000Y-115888000D02*
X194698000Y-115888000D01*
X190112000Y-115888000D02*
X190112000Y-111188000D01*
X190112000Y-111188000D02*
X192412000Y-111188000D01*
X192412000Y-111188000D02*
X192412000Y-115888000D01*
X190112000Y-115888000D02*
X192412000Y-115888000D01*
X209433600Y-111751400D02*
X213933600Y-111751400D01*
X209433600Y-111751400D02*
X209433600Y-113851400D01*
X213933600Y-113851400D02*
X213933600Y-111751400D01*
X213933600Y-113851400D02*
X209433600Y-113851400D01*
X207001400Y-120512400D02*
X207001400Y-116012400D01*
X207001400Y-120512400D02*
X209101400Y-120512400D01*
X209101400Y-116012400D02*
X207001400Y-116012400D01*
X209101400Y-116012400D02*
X209101400Y-120512400D01*
X193936000Y-115300000D02*
X193936000Y-113300000D01*
X193936000Y-113300000D02*
X191636000Y-113300000D01*
X191636000Y-113300000D02*
X191636000Y-115300000D01*
X191636000Y-115300000D02*
X193936000Y-115300000D01*
X193936000Y-119364000D02*
X193936000Y-117364000D01*
X193936000Y-117364000D02*
X191636000Y-117364000D01*
X191636000Y-117364000D02*
X191636000Y-119364000D01*
X191636000Y-119364000D02*
X193936000Y-119364000D01*
X199120000Y-118230000D02*
X197120000Y-118230000D01*
X197120000Y-118230000D02*
X197120000Y-120530000D01*
X197120000Y-120530000D02*
X199120000Y-120530000D01*
X199120000Y-120530000D02*
X199120000Y-118230000D01*
X202168000Y-118230000D02*
X200168000Y-118230000D01*
X200168000Y-118230000D02*
X200168000Y-120530000D01*
X200168000Y-120530000D02*
X202168000Y-120530000D01*
X202168000Y-120530000D02*
X202168000Y-118230000D01*
M02*
