G04 #@! TF.FileFunction,Other,Fab,Top*
%FSLAX46Y46*%
G04 Gerber Fmt 4.6, Leading zero omitted, Abs format (unit mm)*
G04 Created by KiCad (PCBNEW 4.0.7) date 04/04/18 15:32:55*
%MOMM*%
%LPD*%
G01*
G04 APERTURE LIST*
%ADD10C,0.100000*%
%ADD11C,0.150000*%
G04 APERTURE END LIST*
D10*
X201270000Y-114574000D02*
G75*
G03X201270000Y-114574000I-3150000J0D01*
G01*
X198120000Y-118024000D02*
X198120000Y-116824000D01*
X197470000Y-117424000D02*
X198770000Y-117424000D01*
X206604000Y-118688800D02*
G75*
G03X206604000Y-118688800I-3150000J0D01*
G01*
X203454000Y-122138800D02*
X203454000Y-120938800D01*
X202804000Y-121538800D02*
X204104000Y-121538800D01*
X199339000Y-118351400D02*
X199339000Y-119951400D01*
X196139000Y-118351400D02*
X199339000Y-118351400D01*
X196139000Y-119951400D02*
X196139000Y-118351400D01*
X199339000Y-119951400D02*
X196139000Y-119951400D01*
X202400000Y-111684000D02*
X204000000Y-111684000D01*
X202400000Y-114884000D02*
X202400000Y-111684000D01*
X204000000Y-114884000D02*
X202400000Y-114884000D01*
X204000000Y-111684000D02*
X204000000Y-114884000D01*
X204686000Y-111684000D02*
X206286000Y-111684000D01*
X204686000Y-114884000D02*
X204686000Y-111684000D01*
X206286000Y-114884000D02*
X204686000Y-114884000D01*
X206286000Y-111684000D02*
X206286000Y-114884000D01*
X206972000Y-111684000D02*
X208572000Y-111684000D01*
X206972000Y-114884000D02*
X206972000Y-111684000D01*
X208572000Y-114884000D02*
X206972000Y-114884000D01*
X208572000Y-111684000D02*
X208572000Y-114884000D01*
X193548000Y-119155400D02*
X193548000Y-118655400D01*
X193948000Y-119155400D02*
X193548000Y-119755400D01*
X193148000Y-119155400D02*
X193948000Y-119155400D01*
X193548000Y-119755400D02*
X193148000Y-119155400D01*
X193548000Y-119755400D02*
X194098000Y-119755400D01*
X193548000Y-119755400D02*
X192998000Y-119755400D01*
X193548000Y-120155400D02*
X193548000Y-119755400D01*
X194448000Y-120805400D02*
X192648000Y-120805400D01*
X194448000Y-118005400D02*
X194448000Y-120805400D01*
X192648000Y-118005400D02*
X194448000Y-118005400D01*
X192648000Y-120805400D02*
X192648000Y-118005400D01*
X191262000Y-119155400D02*
X191262000Y-118655400D01*
X191662000Y-119155400D02*
X191262000Y-119755400D01*
X190862000Y-119155400D02*
X191662000Y-119155400D01*
X191262000Y-119755400D02*
X190862000Y-119155400D01*
X191262000Y-119755400D02*
X191812000Y-119755400D01*
X191262000Y-119755400D02*
X190712000Y-119755400D01*
X191262000Y-120155400D02*
X191262000Y-119755400D01*
X192162000Y-120805400D02*
X190362000Y-120805400D01*
X192162000Y-118005400D02*
X192162000Y-120805400D01*
X190362000Y-118005400D02*
X192162000Y-118005400D01*
X190362000Y-120805400D02*
X190362000Y-118005400D01*
X193548000Y-113288000D02*
X193548000Y-112788000D01*
X193948000Y-113288000D02*
X193548000Y-113888000D01*
X193148000Y-113288000D02*
X193948000Y-113288000D01*
X193548000Y-113888000D02*
X193148000Y-113288000D01*
X193548000Y-113888000D02*
X194098000Y-113888000D01*
X193548000Y-113888000D02*
X192998000Y-113888000D01*
X193548000Y-114288000D02*
X193548000Y-113888000D01*
X194448000Y-114938000D02*
X192648000Y-114938000D01*
X194448000Y-112138000D02*
X194448000Y-114938000D01*
X192648000Y-112138000D02*
X194448000Y-112138000D01*
X192648000Y-114938000D02*
X192648000Y-112138000D01*
X191262000Y-113288000D02*
X191262000Y-112788000D01*
X191662000Y-113288000D02*
X191262000Y-113888000D01*
X190862000Y-113288000D02*
X191662000Y-113288000D01*
X191262000Y-113888000D02*
X190862000Y-113288000D01*
X191262000Y-113888000D02*
X191812000Y-113888000D01*
X191262000Y-113888000D02*
X190712000Y-113888000D01*
X191262000Y-114288000D02*
X191262000Y-113888000D01*
X192162000Y-114938000D02*
X190362000Y-114938000D01*
X192162000Y-112138000D02*
X192162000Y-114938000D01*
X190362000Y-112138000D02*
X192162000Y-112138000D01*
X190362000Y-114938000D02*
X190362000Y-112138000D01*
X210083600Y-113601400D02*
X210083600Y-112001400D01*
X213283600Y-113601400D02*
X210083600Y-113601400D01*
X213283600Y-112001400D02*
X213283600Y-113601400D01*
X210083600Y-112001400D02*
X213283600Y-112001400D01*
X208851400Y-119862400D02*
X207251400Y-119862400D01*
X208851400Y-116662400D02*
X208851400Y-119862400D01*
X207251400Y-116662400D02*
X208851400Y-116662400D01*
X207251400Y-119862400D02*
X207251400Y-116662400D01*
D11*
X208994762Y-119578381D02*
X208518571Y-119578381D01*
X208518571Y-118578381D01*
X209328095Y-119578381D02*
X209328095Y-118578381D01*
X209709048Y-118578381D01*
X209804286Y-118626000D01*
X209851905Y-118673619D01*
X209899524Y-118768857D01*
X209899524Y-118911714D01*
X209851905Y-119006952D01*
X209804286Y-119054571D01*
X209709048Y-119102190D01*
X209328095Y-119102190D01*
X210280476Y-118673619D02*
X210328095Y-118626000D01*
X210423333Y-118578381D01*
X210661429Y-118578381D01*
X210756667Y-118626000D01*
X210804286Y-118673619D01*
X210851905Y-118768857D01*
X210851905Y-118864095D01*
X210804286Y-119006952D01*
X210232857Y-119578381D01*
X210851905Y-119578381D01*
X211328095Y-119578381D02*
X211518571Y-119578381D01*
X211613810Y-119530762D01*
X211661429Y-119483143D01*
X211756667Y-119340286D01*
X211804286Y-119149810D01*
X211804286Y-118768857D01*
X211756667Y-118673619D01*
X211709048Y-118626000D01*
X211613810Y-118578381D01*
X211423333Y-118578381D01*
X211328095Y-118626000D01*
X211280476Y-118673619D01*
X211232857Y-118768857D01*
X211232857Y-119006952D01*
X211280476Y-119102190D01*
X211328095Y-119149810D01*
X211423333Y-119197429D01*
X211613810Y-119197429D01*
X211709048Y-119149810D01*
X211756667Y-119102190D01*
X211804286Y-119006952D01*
X212709048Y-118578381D02*
X212232857Y-118578381D01*
X212185238Y-119054571D01*
X212232857Y-119006952D01*
X212328095Y-118959333D01*
X212566191Y-118959333D01*
X212661429Y-119006952D01*
X212709048Y-119054571D01*
X212756667Y-119149810D01*
X212756667Y-119387905D01*
X212709048Y-119483143D01*
X212661429Y-119530762D01*
X212566191Y-119578381D01*
X212328095Y-119578381D01*
X212232857Y-119530762D01*
X212185238Y-119483143D01*
X213709048Y-119578381D02*
X213137619Y-119578381D01*
X213423333Y-119578381D02*
X213423333Y-118578381D01*
X213328095Y-118721238D01*
X213232857Y-118816476D01*
X213137619Y-118864095D01*
X214137619Y-119578381D02*
X214137619Y-118578381D01*
X214375714Y-118578381D01*
X214518572Y-118626000D01*
X214613810Y-118721238D01*
X214661429Y-118816476D01*
X214709048Y-119006952D01*
X214709048Y-119149810D01*
X214661429Y-119340286D01*
X214613810Y-119435524D01*
X214518572Y-119530762D01*
X214375714Y-119578381D01*
X214137619Y-119578381D01*
X215709048Y-119578381D02*
X215375714Y-119102190D01*
X215137619Y-119578381D02*
X215137619Y-118578381D01*
X215518572Y-118578381D01*
X215613810Y-118626000D01*
X215661429Y-118673619D01*
X215709048Y-118768857D01*
X215709048Y-118911714D01*
X215661429Y-119006952D01*
X215613810Y-119054571D01*
X215518572Y-119102190D01*
X215137619Y-119102190D01*
X202127619Y-116216857D02*
X202080000Y-116169238D01*
X202032381Y-116074000D01*
X202032381Y-115835904D01*
X202080000Y-115740666D01*
X202127619Y-115693047D01*
X202222857Y-115645428D01*
X202318095Y-115645428D01*
X202460952Y-115693047D01*
X203032381Y-116264476D01*
X203032381Y-115645428D01*
X202127619Y-115264476D02*
X202080000Y-115216857D01*
X202032381Y-115121619D01*
X202032381Y-114883523D01*
X202080000Y-114788285D01*
X202127619Y-114740666D01*
X202222857Y-114693047D01*
X202318095Y-114693047D01*
X202460952Y-114740666D01*
X203032381Y-115312095D01*
X203032381Y-114693047D01*
X202365714Y-113835904D02*
X203032381Y-113835904D01*
X202365714Y-114264476D02*
X202889524Y-114264476D01*
X202984762Y-114216857D01*
X203032381Y-114121619D01*
X203032381Y-113978761D01*
X202984762Y-113883523D01*
X202937143Y-113835904D01*
X202508571Y-113026380D02*
X202508571Y-113359714D01*
X203032381Y-113359714D02*
X202032381Y-113359714D01*
X202032381Y-112883523D01*
X207461619Y-120331657D02*
X207414000Y-120284038D01*
X207366381Y-120188800D01*
X207366381Y-119950704D01*
X207414000Y-119855466D01*
X207461619Y-119807847D01*
X207556857Y-119760228D01*
X207652095Y-119760228D01*
X207794952Y-119807847D01*
X208366381Y-120379276D01*
X208366381Y-119760228D01*
X207461619Y-119379276D02*
X207414000Y-119331657D01*
X207366381Y-119236419D01*
X207366381Y-118998323D01*
X207414000Y-118903085D01*
X207461619Y-118855466D01*
X207556857Y-118807847D01*
X207652095Y-118807847D01*
X207794952Y-118855466D01*
X208366381Y-119426895D01*
X208366381Y-118807847D01*
X207699714Y-117950704D02*
X208366381Y-117950704D01*
X207699714Y-118379276D02*
X208223524Y-118379276D01*
X208318762Y-118331657D01*
X208366381Y-118236419D01*
X208366381Y-118093561D01*
X208318762Y-117998323D01*
X208271143Y-117950704D01*
X207842571Y-117141180D02*
X207842571Y-117474514D01*
X208366381Y-117474514D02*
X207366381Y-117474514D01*
X207366381Y-116998323D01*
X197048524Y-117653781D02*
X196477095Y-117653781D01*
X196762809Y-117653781D02*
X196762809Y-116653781D01*
X196667571Y-116796638D01*
X196572333Y-116891876D01*
X196477095Y-116939495D01*
X197667571Y-116653781D02*
X197762810Y-116653781D01*
X197858048Y-116701400D01*
X197905667Y-116749019D01*
X197953286Y-116844257D01*
X198000905Y-117034733D01*
X198000905Y-117272829D01*
X197953286Y-117463305D01*
X197905667Y-117558543D01*
X197858048Y-117606162D01*
X197762810Y-117653781D01*
X197667571Y-117653781D01*
X197572333Y-117606162D01*
X197524714Y-117558543D01*
X197477095Y-117463305D01*
X197429476Y-117272829D01*
X197429476Y-117034733D01*
X197477095Y-116844257D01*
X197524714Y-116749019D01*
X197572333Y-116701400D01*
X197667571Y-116653781D01*
X199000905Y-117653781D02*
X198667571Y-117177590D01*
X198429476Y-117653781D02*
X198429476Y-116653781D01*
X198810429Y-116653781D01*
X198905667Y-116701400D01*
X198953286Y-116749019D01*
X199000905Y-116844257D01*
X199000905Y-116987114D01*
X198953286Y-117082352D01*
X198905667Y-117129971D01*
X198810429Y-117177590D01*
X198429476Y-117177590D01*
X201702381Y-114450666D02*
X201702381Y-115022095D01*
X201702381Y-114736381D02*
X200702381Y-114736381D01*
X200845238Y-114831619D01*
X200940476Y-114926857D01*
X200988095Y-115022095D01*
X200702381Y-113831619D02*
X200702381Y-113736380D01*
X200750000Y-113641142D01*
X200797619Y-113593523D01*
X200892857Y-113545904D01*
X201083333Y-113498285D01*
X201321429Y-113498285D01*
X201511905Y-113545904D01*
X201607143Y-113593523D01*
X201654762Y-113641142D01*
X201702381Y-113736380D01*
X201702381Y-113831619D01*
X201654762Y-113926857D01*
X201607143Y-113974476D01*
X201511905Y-114022095D01*
X201321429Y-114069714D01*
X201083333Y-114069714D01*
X200892857Y-114022095D01*
X200797619Y-113974476D01*
X200750000Y-113926857D01*
X200702381Y-113831619D01*
X200702381Y-112879238D02*
X200702381Y-112783999D01*
X200750000Y-112688761D01*
X200797619Y-112641142D01*
X200892857Y-112593523D01*
X201083333Y-112545904D01*
X201321429Y-112545904D01*
X201511905Y-112593523D01*
X201607143Y-112641142D01*
X201654762Y-112688761D01*
X201702381Y-112783999D01*
X201702381Y-112879238D01*
X201654762Y-112974476D01*
X201607143Y-113022095D01*
X201511905Y-113069714D01*
X201321429Y-113117333D01*
X201083333Y-113117333D01*
X200892857Y-113069714D01*
X200797619Y-113022095D01*
X200750000Y-112974476D01*
X200702381Y-112879238D01*
X201702381Y-111545904D02*
X201226190Y-111879238D01*
X201702381Y-112117333D02*
X200702381Y-112117333D01*
X200702381Y-111736380D01*
X200750000Y-111641142D01*
X200797619Y-111593523D01*
X200892857Y-111545904D01*
X201035714Y-111545904D01*
X201130952Y-111593523D01*
X201178571Y-111641142D01*
X201226190Y-111736380D01*
X201226190Y-112117333D01*
X203988381Y-114450666D02*
X203988381Y-115022095D01*
X203988381Y-114736381D02*
X202988381Y-114736381D01*
X203131238Y-114831619D01*
X203226476Y-114926857D01*
X203274095Y-115022095D01*
X202988381Y-113831619D02*
X202988381Y-113736380D01*
X203036000Y-113641142D01*
X203083619Y-113593523D01*
X203178857Y-113545904D01*
X203369333Y-113498285D01*
X203607429Y-113498285D01*
X203797905Y-113545904D01*
X203893143Y-113593523D01*
X203940762Y-113641142D01*
X203988381Y-113736380D01*
X203988381Y-113831619D01*
X203940762Y-113926857D01*
X203893143Y-113974476D01*
X203797905Y-114022095D01*
X203607429Y-114069714D01*
X203369333Y-114069714D01*
X203178857Y-114022095D01*
X203083619Y-113974476D01*
X203036000Y-113926857D01*
X202988381Y-113831619D01*
X202988381Y-112879238D02*
X202988381Y-112783999D01*
X203036000Y-112688761D01*
X203083619Y-112641142D01*
X203178857Y-112593523D01*
X203369333Y-112545904D01*
X203607429Y-112545904D01*
X203797905Y-112593523D01*
X203893143Y-112641142D01*
X203940762Y-112688761D01*
X203988381Y-112783999D01*
X203988381Y-112879238D01*
X203940762Y-112974476D01*
X203893143Y-113022095D01*
X203797905Y-113069714D01*
X203607429Y-113117333D01*
X203369333Y-113117333D01*
X203178857Y-113069714D01*
X203083619Y-113022095D01*
X203036000Y-112974476D01*
X202988381Y-112879238D01*
X203988381Y-111545904D02*
X203512190Y-111879238D01*
X203988381Y-112117333D02*
X202988381Y-112117333D01*
X202988381Y-111736380D01*
X203036000Y-111641142D01*
X203083619Y-111593523D01*
X203178857Y-111545904D01*
X203321714Y-111545904D01*
X203416952Y-111593523D01*
X203464571Y-111641142D01*
X203512190Y-111736380D01*
X203512190Y-112117333D01*
X206274381Y-114450666D02*
X206274381Y-115022095D01*
X206274381Y-114736381D02*
X205274381Y-114736381D01*
X205417238Y-114831619D01*
X205512476Y-114926857D01*
X205560095Y-115022095D01*
X205274381Y-113831619D02*
X205274381Y-113736380D01*
X205322000Y-113641142D01*
X205369619Y-113593523D01*
X205464857Y-113545904D01*
X205655333Y-113498285D01*
X205893429Y-113498285D01*
X206083905Y-113545904D01*
X206179143Y-113593523D01*
X206226762Y-113641142D01*
X206274381Y-113736380D01*
X206274381Y-113831619D01*
X206226762Y-113926857D01*
X206179143Y-113974476D01*
X206083905Y-114022095D01*
X205893429Y-114069714D01*
X205655333Y-114069714D01*
X205464857Y-114022095D01*
X205369619Y-113974476D01*
X205322000Y-113926857D01*
X205274381Y-113831619D01*
X205274381Y-112879238D02*
X205274381Y-112783999D01*
X205322000Y-112688761D01*
X205369619Y-112641142D01*
X205464857Y-112593523D01*
X205655333Y-112545904D01*
X205893429Y-112545904D01*
X206083905Y-112593523D01*
X206179143Y-112641142D01*
X206226762Y-112688761D01*
X206274381Y-112783999D01*
X206274381Y-112879238D01*
X206226762Y-112974476D01*
X206179143Y-113022095D01*
X206083905Y-113069714D01*
X205893429Y-113117333D01*
X205655333Y-113117333D01*
X205464857Y-113069714D01*
X205369619Y-113022095D01*
X205322000Y-112974476D01*
X205274381Y-112879238D01*
X206274381Y-111545904D02*
X205798190Y-111879238D01*
X206274381Y-112117333D02*
X205274381Y-112117333D01*
X205274381Y-111736380D01*
X205322000Y-111641142D01*
X205369619Y-111593523D01*
X205464857Y-111545904D01*
X205607714Y-111545904D01*
X205702952Y-111593523D01*
X205750571Y-111641142D01*
X205798190Y-111736380D01*
X205798190Y-112117333D01*
X192000381Y-120143495D02*
X191000381Y-120143495D01*
X191000381Y-119905400D01*
X191048000Y-119762542D01*
X191143238Y-119667304D01*
X191238476Y-119619685D01*
X191428952Y-119572066D01*
X191571810Y-119572066D01*
X191762286Y-119619685D01*
X191857524Y-119667304D01*
X191952762Y-119762542D01*
X192000381Y-119905400D01*
X192000381Y-120143495D01*
X192000381Y-118619685D02*
X192000381Y-119191114D01*
X192000381Y-118905400D02*
X191000381Y-118905400D01*
X191143238Y-119000638D01*
X191238476Y-119095876D01*
X191286095Y-119191114D01*
X196052762Y-123429210D02*
X196100381Y-123286353D01*
X196100381Y-123048257D01*
X196052762Y-122953019D01*
X196005143Y-122905400D01*
X195909905Y-122857781D01*
X195814667Y-122857781D01*
X195719429Y-122905400D01*
X195671810Y-122953019D01*
X195624190Y-123048257D01*
X195576571Y-123238734D01*
X195528952Y-123333972D01*
X195481333Y-123381591D01*
X195386095Y-123429210D01*
X195290857Y-123429210D01*
X195195619Y-123381591D01*
X195148000Y-123333972D01*
X195100381Y-123238734D01*
X195100381Y-123000638D01*
X195148000Y-122857781D01*
X195100381Y-122572067D02*
X195100381Y-122000638D01*
X196100381Y-122286353D02*
X195100381Y-122286353D01*
X196100381Y-121667305D02*
X195100381Y-121667305D01*
X195100381Y-121286352D01*
X195148000Y-121191114D01*
X195195619Y-121143495D01*
X195290857Y-121095876D01*
X195433714Y-121095876D01*
X195528952Y-121143495D01*
X195576571Y-121191114D01*
X195624190Y-121286352D01*
X195624190Y-121667305D01*
X196052762Y-120714924D02*
X196100381Y-120572067D01*
X196100381Y-120333971D01*
X196052762Y-120238733D01*
X196005143Y-120191114D01*
X195909905Y-120143495D01*
X195814667Y-120143495D01*
X195719429Y-120191114D01*
X195671810Y-120238733D01*
X195624190Y-120333971D01*
X195576571Y-120524448D01*
X195528952Y-120619686D01*
X195481333Y-120667305D01*
X195386095Y-120714924D01*
X195290857Y-120714924D01*
X195195619Y-120667305D01*
X195148000Y-120619686D01*
X195100381Y-120524448D01*
X195100381Y-120286352D01*
X195148000Y-120143495D01*
X195100381Y-119524448D02*
X195100381Y-119429209D01*
X195148000Y-119333971D01*
X195195619Y-119286352D01*
X195290857Y-119238733D01*
X195481333Y-119191114D01*
X195719429Y-119191114D01*
X195909905Y-119238733D01*
X196005143Y-119286352D01*
X196052762Y-119333971D01*
X196100381Y-119429209D01*
X196100381Y-119524448D01*
X196052762Y-119619686D01*
X196005143Y-119667305D01*
X195909905Y-119714924D01*
X195719429Y-119762543D01*
X195481333Y-119762543D01*
X195290857Y-119714924D01*
X195195619Y-119667305D01*
X195148000Y-119619686D01*
X195100381Y-119524448D01*
X195100381Y-118286352D02*
X195100381Y-118762543D01*
X195576571Y-118810162D01*
X195528952Y-118762543D01*
X195481333Y-118667305D01*
X195481333Y-118429209D01*
X195528952Y-118333971D01*
X195576571Y-118286352D01*
X195671810Y-118238733D01*
X195909905Y-118238733D01*
X196005143Y-118286352D01*
X196052762Y-118333971D01*
X196100381Y-118429209D01*
X196100381Y-118667305D01*
X196052762Y-118762543D01*
X196005143Y-118810162D01*
X195433714Y-117381590D02*
X196100381Y-117381590D01*
X195052762Y-117619686D02*
X195767048Y-117857781D01*
X195767048Y-117238733D01*
X195100381Y-116667305D02*
X195100381Y-116572066D01*
X195148000Y-116476828D01*
X195195619Y-116429209D01*
X195290857Y-116381590D01*
X195481333Y-116333971D01*
X195719429Y-116333971D01*
X195909905Y-116381590D01*
X196005143Y-116429209D01*
X196052762Y-116476828D01*
X196100381Y-116572066D01*
X196100381Y-116667305D01*
X196052762Y-116762543D01*
X196005143Y-116810162D01*
X195909905Y-116857781D01*
X195719429Y-116905400D01*
X195481333Y-116905400D01*
X195290857Y-116857781D01*
X195195619Y-116810162D01*
X195148000Y-116762543D01*
X195100381Y-116667305D01*
X195100381Y-116000638D02*
X195100381Y-115333971D01*
X196100381Y-116000638D01*
X196100381Y-115333971D01*
X193766762Y-123429210D02*
X193814381Y-123286353D01*
X193814381Y-123048257D01*
X193766762Y-122953019D01*
X193719143Y-122905400D01*
X193623905Y-122857781D01*
X193528667Y-122857781D01*
X193433429Y-122905400D01*
X193385810Y-122953019D01*
X193338190Y-123048257D01*
X193290571Y-123238734D01*
X193242952Y-123333972D01*
X193195333Y-123381591D01*
X193100095Y-123429210D01*
X193004857Y-123429210D01*
X192909619Y-123381591D01*
X192862000Y-123333972D01*
X192814381Y-123238734D01*
X192814381Y-123000638D01*
X192862000Y-122857781D01*
X192814381Y-122572067D02*
X192814381Y-122000638D01*
X193814381Y-122286353D02*
X192814381Y-122286353D01*
X193814381Y-121667305D02*
X192814381Y-121667305D01*
X192814381Y-121286352D01*
X192862000Y-121191114D01*
X192909619Y-121143495D01*
X193004857Y-121095876D01*
X193147714Y-121095876D01*
X193242952Y-121143495D01*
X193290571Y-121191114D01*
X193338190Y-121286352D01*
X193338190Y-121667305D01*
X193766762Y-120714924D02*
X193814381Y-120572067D01*
X193814381Y-120333971D01*
X193766762Y-120238733D01*
X193719143Y-120191114D01*
X193623905Y-120143495D01*
X193528667Y-120143495D01*
X193433429Y-120191114D01*
X193385810Y-120238733D01*
X193338190Y-120333971D01*
X193290571Y-120524448D01*
X193242952Y-120619686D01*
X193195333Y-120667305D01*
X193100095Y-120714924D01*
X193004857Y-120714924D01*
X192909619Y-120667305D01*
X192862000Y-120619686D01*
X192814381Y-120524448D01*
X192814381Y-120286352D01*
X192862000Y-120143495D01*
X192814381Y-119524448D02*
X192814381Y-119429209D01*
X192862000Y-119333971D01*
X192909619Y-119286352D01*
X193004857Y-119238733D01*
X193195333Y-119191114D01*
X193433429Y-119191114D01*
X193623905Y-119238733D01*
X193719143Y-119286352D01*
X193766762Y-119333971D01*
X193814381Y-119429209D01*
X193814381Y-119524448D01*
X193766762Y-119619686D01*
X193719143Y-119667305D01*
X193623905Y-119714924D01*
X193433429Y-119762543D01*
X193195333Y-119762543D01*
X193004857Y-119714924D01*
X192909619Y-119667305D01*
X192862000Y-119619686D01*
X192814381Y-119524448D01*
X192814381Y-118286352D02*
X192814381Y-118762543D01*
X193290571Y-118810162D01*
X193242952Y-118762543D01*
X193195333Y-118667305D01*
X193195333Y-118429209D01*
X193242952Y-118333971D01*
X193290571Y-118286352D01*
X193385810Y-118238733D01*
X193623905Y-118238733D01*
X193719143Y-118286352D01*
X193766762Y-118333971D01*
X193814381Y-118429209D01*
X193814381Y-118667305D01*
X193766762Y-118762543D01*
X193719143Y-118810162D01*
X193147714Y-117381590D02*
X193814381Y-117381590D01*
X192766762Y-117619686D02*
X193481048Y-117857781D01*
X193481048Y-117238733D01*
X192814381Y-116667305D02*
X192814381Y-116572066D01*
X192862000Y-116476828D01*
X192909619Y-116429209D01*
X193004857Y-116381590D01*
X193195333Y-116333971D01*
X193433429Y-116333971D01*
X193623905Y-116381590D01*
X193719143Y-116429209D01*
X193766762Y-116476828D01*
X193814381Y-116572066D01*
X193814381Y-116667305D01*
X193766762Y-116762543D01*
X193719143Y-116810162D01*
X193623905Y-116857781D01*
X193433429Y-116905400D01*
X193195333Y-116905400D01*
X193004857Y-116857781D01*
X192909619Y-116810162D01*
X192862000Y-116762543D01*
X192814381Y-116667305D01*
X192814381Y-116000638D02*
X192814381Y-115333971D01*
X193814381Y-116000638D01*
X193814381Y-115333971D01*
X196052762Y-117561810D02*
X196100381Y-117418953D01*
X196100381Y-117180857D01*
X196052762Y-117085619D01*
X196005143Y-117038000D01*
X195909905Y-116990381D01*
X195814667Y-116990381D01*
X195719429Y-117038000D01*
X195671810Y-117085619D01*
X195624190Y-117180857D01*
X195576571Y-117371334D01*
X195528952Y-117466572D01*
X195481333Y-117514191D01*
X195386095Y-117561810D01*
X195290857Y-117561810D01*
X195195619Y-117514191D01*
X195148000Y-117466572D01*
X195100381Y-117371334D01*
X195100381Y-117133238D01*
X195148000Y-116990381D01*
X195100381Y-116704667D02*
X195100381Y-116133238D01*
X196100381Y-116418953D02*
X195100381Y-116418953D01*
X196100381Y-115799905D02*
X195100381Y-115799905D01*
X195100381Y-115418952D01*
X195148000Y-115323714D01*
X195195619Y-115276095D01*
X195290857Y-115228476D01*
X195433714Y-115228476D01*
X195528952Y-115276095D01*
X195576571Y-115323714D01*
X195624190Y-115418952D01*
X195624190Y-115799905D01*
X196052762Y-114847524D02*
X196100381Y-114704667D01*
X196100381Y-114466571D01*
X196052762Y-114371333D01*
X196005143Y-114323714D01*
X195909905Y-114276095D01*
X195814667Y-114276095D01*
X195719429Y-114323714D01*
X195671810Y-114371333D01*
X195624190Y-114466571D01*
X195576571Y-114657048D01*
X195528952Y-114752286D01*
X195481333Y-114799905D01*
X195386095Y-114847524D01*
X195290857Y-114847524D01*
X195195619Y-114799905D01*
X195148000Y-114752286D01*
X195100381Y-114657048D01*
X195100381Y-114418952D01*
X195148000Y-114276095D01*
X195100381Y-113657048D02*
X195100381Y-113561809D01*
X195148000Y-113466571D01*
X195195619Y-113418952D01*
X195290857Y-113371333D01*
X195481333Y-113323714D01*
X195719429Y-113323714D01*
X195909905Y-113371333D01*
X196005143Y-113418952D01*
X196052762Y-113466571D01*
X196100381Y-113561809D01*
X196100381Y-113657048D01*
X196052762Y-113752286D01*
X196005143Y-113799905D01*
X195909905Y-113847524D01*
X195719429Y-113895143D01*
X195481333Y-113895143D01*
X195290857Y-113847524D01*
X195195619Y-113799905D01*
X195148000Y-113752286D01*
X195100381Y-113657048D01*
X195100381Y-112418952D02*
X195100381Y-112895143D01*
X195576571Y-112942762D01*
X195528952Y-112895143D01*
X195481333Y-112799905D01*
X195481333Y-112561809D01*
X195528952Y-112466571D01*
X195576571Y-112418952D01*
X195671810Y-112371333D01*
X195909905Y-112371333D01*
X196005143Y-112418952D01*
X196052762Y-112466571D01*
X196100381Y-112561809D01*
X196100381Y-112799905D01*
X196052762Y-112895143D01*
X196005143Y-112942762D01*
X195433714Y-111514190D02*
X196100381Y-111514190D01*
X195052762Y-111752286D02*
X195767048Y-111990381D01*
X195767048Y-111371333D01*
X195100381Y-110799905D02*
X195100381Y-110704666D01*
X195148000Y-110609428D01*
X195195619Y-110561809D01*
X195290857Y-110514190D01*
X195481333Y-110466571D01*
X195719429Y-110466571D01*
X195909905Y-110514190D01*
X196005143Y-110561809D01*
X196052762Y-110609428D01*
X196100381Y-110704666D01*
X196100381Y-110799905D01*
X196052762Y-110895143D01*
X196005143Y-110942762D01*
X195909905Y-110990381D01*
X195719429Y-111038000D01*
X195481333Y-111038000D01*
X195290857Y-110990381D01*
X195195619Y-110942762D01*
X195148000Y-110895143D01*
X195100381Y-110799905D01*
X195100381Y-110133238D02*
X195100381Y-109466571D01*
X196100381Y-110133238D01*
X196100381Y-109466571D01*
X193766762Y-117561810D02*
X193814381Y-117418953D01*
X193814381Y-117180857D01*
X193766762Y-117085619D01*
X193719143Y-117038000D01*
X193623905Y-116990381D01*
X193528667Y-116990381D01*
X193433429Y-117038000D01*
X193385810Y-117085619D01*
X193338190Y-117180857D01*
X193290571Y-117371334D01*
X193242952Y-117466572D01*
X193195333Y-117514191D01*
X193100095Y-117561810D01*
X193004857Y-117561810D01*
X192909619Y-117514191D01*
X192862000Y-117466572D01*
X192814381Y-117371334D01*
X192814381Y-117133238D01*
X192862000Y-116990381D01*
X192814381Y-116704667D02*
X192814381Y-116133238D01*
X193814381Y-116418953D02*
X192814381Y-116418953D01*
X193814381Y-115799905D02*
X192814381Y-115799905D01*
X192814381Y-115418952D01*
X192862000Y-115323714D01*
X192909619Y-115276095D01*
X193004857Y-115228476D01*
X193147714Y-115228476D01*
X193242952Y-115276095D01*
X193290571Y-115323714D01*
X193338190Y-115418952D01*
X193338190Y-115799905D01*
X193766762Y-114847524D02*
X193814381Y-114704667D01*
X193814381Y-114466571D01*
X193766762Y-114371333D01*
X193719143Y-114323714D01*
X193623905Y-114276095D01*
X193528667Y-114276095D01*
X193433429Y-114323714D01*
X193385810Y-114371333D01*
X193338190Y-114466571D01*
X193290571Y-114657048D01*
X193242952Y-114752286D01*
X193195333Y-114799905D01*
X193100095Y-114847524D01*
X193004857Y-114847524D01*
X192909619Y-114799905D01*
X192862000Y-114752286D01*
X192814381Y-114657048D01*
X192814381Y-114418952D01*
X192862000Y-114276095D01*
X192814381Y-113657048D02*
X192814381Y-113561809D01*
X192862000Y-113466571D01*
X192909619Y-113418952D01*
X193004857Y-113371333D01*
X193195333Y-113323714D01*
X193433429Y-113323714D01*
X193623905Y-113371333D01*
X193719143Y-113418952D01*
X193766762Y-113466571D01*
X193814381Y-113561809D01*
X193814381Y-113657048D01*
X193766762Y-113752286D01*
X193719143Y-113799905D01*
X193623905Y-113847524D01*
X193433429Y-113895143D01*
X193195333Y-113895143D01*
X193004857Y-113847524D01*
X192909619Y-113799905D01*
X192862000Y-113752286D01*
X192814381Y-113657048D01*
X192814381Y-112418952D02*
X192814381Y-112895143D01*
X193290571Y-112942762D01*
X193242952Y-112895143D01*
X193195333Y-112799905D01*
X193195333Y-112561809D01*
X193242952Y-112466571D01*
X193290571Y-112418952D01*
X193385810Y-112371333D01*
X193623905Y-112371333D01*
X193719143Y-112418952D01*
X193766762Y-112466571D01*
X193814381Y-112561809D01*
X193814381Y-112799905D01*
X193766762Y-112895143D01*
X193719143Y-112942762D01*
X193147714Y-111514190D02*
X193814381Y-111514190D01*
X192766762Y-111752286D02*
X193481048Y-111990381D01*
X193481048Y-111371333D01*
X192814381Y-110799905D02*
X192814381Y-110704666D01*
X192862000Y-110609428D01*
X192909619Y-110561809D01*
X193004857Y-110514190D01*
X193195333Y-110466571D01*
X193433429Y-110466571D01*
X193623905Y-110514190D01*
X193719143Y-110561809D01*
X193766762Y-110609428D01*
X193814381Y-110704666D01*
X193814381Y-110799905D01*
X193766762Y-110895143D01*
X193719143Y-110942762D01*
X193623905Y-110990381D01*
X193433429Y-111038000D01*
X193195333Y-111038000D01*
X193004857Y-110990381D01*
X192909619Y-110942762D01*
X192862000Y-110895143D01*
X192814381Y-110799905D01*
X192814381Y-110133238D02*
X192814381Y-109466571D01*
X193814381Y-110133238D01*
X193814381Y-109466571D01*
X210135981Y-115253781D02*
X209564552Y-115253781D01*
X209850266Y-115253781D02*
X209850266Y-114253781D01*
X209755028Y-114396638D01*
X209659790Y-114491876D01*
X209564552Y-114539495D01*
X210755028Y-114253781D02*
X210850267Y-114253781D01*
X210945505Y-114301400D01*
X210993124Y-114349019D01*
X211040743Y-114444257D01*
X211088362Y-114634733D01*
X211088362Y-114872829D01*
X211040743Y-115063305D01*
X210993124Y-115158543D01*
X210945505Y-115206162D01*
X210850267Y-115253781D01*
X210755028Y-115253781D01*
X210659790Y-115206162D01*
X210612171Y-115158543D01*
X210564552Y-115063305D01*
X210516933Y-114872829D01*
X210516933Y-114634733D01*
X210564552Y-114444257D01*
X210612171Y-114349019D01*
X210659790Y-114301400D01*
X210755028Y-114253781D01*
X211707409Y-114253781D02*
X211802648Y-114253781D01*
X211897886Y-114301400D01*
X211945505Y-114349019D01*
X211993124Y-114444257D01*
X212040743Y-114634733D01*
X212040743Y-114872829D01*
X211993124Y-115063305D01*
X211945505Y-115158543D01*
X211897886Y-115206162D01*
X211802648Y-115253781D01*
X211707409Y-115253781D01*
X211612171Y-115206162D01*
X211564552Y-115158543D01*
X211516933Y-115063305D01*
X211469314Y-114872829D01*
X211469314Y-114634733D01*
X211516933Y-114444257D01*
X211564552Y-114349019D01*
X211612171Y-114301400D01*
X211707409Y-114253781D01*
X212469314Y-114587114D02*
X212469314Y-115253781D01*
X212469314Y-114682352D02*
X212516933Y-114634733D01*
X212612171Y-114587114D01*
X212755029Y-114587114D01*
X212850267Y-114634733D01*
X212897886Y-114729971D01*
X212897886Y-115253781D01*
X213707410Y-114729971D02*
X213374076Y-114729971D01*
X213374076Y-115253781D02*
X213374076Y-114253781D01*
X213850267Y-114253781D01*
X210503781Y-119810019D02*
X210503781Y-120381448D01*
X210503781Y-120095734D02*
X209503781Y-120095734D01*
X209646638Y-120190972D01*
X209741876Y-120286210D01*
X209789495Y-120381448D01*
X209503781Y-119190972D02*
X209503781Y-119095733D01*
X209551400Y-119000495D01*
X209599019Y-118952876D01*
X209694257Y-118905257D01*
X209884733Y-118857638D01*
X210122829Y-118857638D01*
X210313305Y-118905257D01*
X210408543Y-118952876D01*
X210456162Y-119000495D01*
X210503781Y-119095733D01*
X210503781Y-119190972D01*
X210456162Y-119286210D01*
X210408543Y-119333829D01*
X210313305Y-119381448D01*
X210122829Y-119429067D01*
X209884733Y-119429067D01*
X209694257Y-119381448D01*
X209599019Y-119333829D01*
X209551400Y-119286210D01*
X209503781Y-119190972D01*
X209503781Y-118238591D02*
X209503781Y-118143352D01*
X209551400Y-118048114D01*
X209599019Y-118000495D01*
X209694257Y-117952876D01*
X209884733Y-117905257D01*
X210122829Y-117905257D01*
X210313305Y-117952876D01*
X210408543Y-118000495D01*
X210456162Y-118048114D01*
X210503781Y-118143352D01*
X210503781Y-118238591D01*
X210456162Y-118333829D01*
X210408543Y-118381448D01*
X210313305Y-118429067D01*
X210122829Y-118476686D01*
X209884733Y-118476686D01*
X209694257Y-118429067D01*
X209599019Y-118381448D01*
X209551400Y-118333829D01*
X209503781Y-118238591D01*
X209837114Y-117476686D02*
X210503781Y-117476686D01*
X209932352Y-117476686D02*
X209884733Y-117429067D01*
X209837114Y-117333829D01*
X209837114Y-117190971D01*
X209884733Y-117095733D01*
X209979971Y-117048114D01*
X210503781Y-117048114D01*
X209979971Y-116238590D02*
X209979971Y-116571924D01*
X210503781Y-116571924D02*
X209503781Y-116571924D01*
X209503781Y-116095733D01*
X189047905Y-113097143D02*
X189000286Y-113144762D01*
X188857429Y-113192381D01*
X188762191Y-113192381D01*
X188619333Y-113144762D01*
X188524095Y-113049524D01*
X188476476Y-112954286D01*
X188428857Y-112763810D01*
X188428857Y-112620952D01*
X188476476Y-112430476D01*
X188524095Y-112335238D01*
X188619333Y-112240000D01*
X188762191Y-112192381D01*
X188857429Y-112192381D01*
X189000286Y-112240000D01*
X189047905Y-112287619D01*
X189619333Y-113192381D02*
X189524095Y-113144762D01*
X189476476Y-113097143D01*
X189428857Y-113001905D01*
X189428857Y-112716190D01*
X189476476Y-112620952D01*
X189524095Y-112573333D01*
X189619333Y-112525714D01*
X189762191Y-112525714D01*
X189857429Y-112573333D01*
X189905048Y-112620952D01*
X189952667Y-112716190D01*
X189952667Y-113001905D01*
X189905048Y-113097143D01*
X189857429Y-113144762D01*
X189762191Y-113192381D01*
X189619333Y-113192381D01*
X190381238Y-112525714D02*
X190381238Y-113192381D01*
X190381238Y-112620952D02*
X190428857Y-112573333D01*
X190524095Y-112525714D01*
X190666953Y-112525714D01*
X190762191Y-112573333D01*
X190809810Y-112668571D01*
X190809810Y-113192381D01*
X191286000Y-112525714D02*
X191286000Y-113192381D01*
X191286000Y-112620952D02*
X191333619Y-112573333D01*
X191428857Y-112525714D01*
X191571715Y-112525714D01*
X191666953Y-112573333D01*
X191714572Y-112668571D01*
X191714572Y-113192381D01*
X191952667Y-113287619D02*
X192714572Y-113287619D01*
X193143143Y-112192381D02*
X193238382Y-112192381D01*
X193333620Y-112240000D01*
X193381239Y-112287619D01*
X193428858Y-112382857D01*
X193476477Y-112573333D01*
X193476477Y-112811429D01*
X193428858Y-113001905D01*
X193381239Y-113097143D01*
X193333620Y-113144762D01*
X193238382Y-113192381D01*
X193143143Y-113192381D01*
X193047905Y-113144762D01*
X193000286Y-113097143D01*
X192952667Y-113001905D01*
X192905048Y-112811429D01*
X192905048Y-112573333D01*
X192952667Y-112382857D01*
X193000286Y-112287619D01*
X193047905Y-112240000D01*
X193143143Y-112192381D01*
X194428858Y-113192381D02*
X193857429Y-113192381D01*
X194143143Y-113192381D02*
X194143143Y-112192381D01*
X194047905Y-112335238D01*
X193952667Y-112430476D01*
X193857429Y-112478095D01*
X194762191Y-113192381D02*
X195286001Y-112525714D01*
X194762191Y-112525714D02*
X195286001Y-113192381D01*
X195857429Y-112192381D02*
X195952668Y-112192381D01*
X196047906Y-112240000D01*
X196095525Y-112287619D01*
X196143144Y-112382857D01*
X196190763Y-112573333D01*
X196190763Y-112811429D01*
X196143144Y-113001905D01*
X196095525Y-113097143D01*
X196047906Y-113144762D01*
X195952668Y-113192381D01*
X195857429Y-113192381D01*
X195762191Y-113144762D01*
X195714572Y-113097143D01*
X195666953Y-113001905D01*
X195619334Y-112811429D01*
X195619334Y-112573333D01*
X195666953Y-112382857D01*
X195714572Y-112287619D01*
X195762191Y-112240000D01*
X195857429Y-112192381D01*
X197143144Y-113192381D02*
X196571715Y-113192381D01*
X196857429Y-113192381D02*
X196857429Y-112192381D01*
X196762191Y-112335238D01*
X196666953Y-112430476D01*
X196571715Y-112478095D01*
X189047905Y-117161143D02*
X189000286Y-117208762D01*
X188857429Y-117256381D01*
X188762191Y-117256381D01*
X188619333Y-117208762D01*
X188524095Y-117113524D01*
X188476476Y-117018286D01*
X188428857Y-116827810D01*
X188428857Y-116684952D01*
X188476476Y-116494476D01*
X188524095Y-116399238D01*
X188619333Y-116304000D01*
X188762191Y-116256381D01*
X188857429Y-116256381D01*
X189000286Y-116304000D01*
X189047905Y-116351619D01*
X189619333Y-117256381D02*
X189524095Y-117208762D01*
X189476476Y-117161143D01*
X189428857Y-117065905D01*
X189428857Y-116780190D01*
X189476476Y-116684952D01*
X189524095Y-116637333D01*
X189619333Y-116589714D01*
X189762191Y-116589714D01*
X189857429Y-116637333D01*
X189905048Y-116684952D01*
X189952667Y-116780190D01*
X189952667Y-117065905D01*
X189905048Y-117161143D01*
X189857429Y-117208762D01*
X189762191Y-117256381D01*
X189619333Y-117256381D01*
X190381238Y-116589714D02*
X190381238Y-117256381D01*
X190381238Y-116684952D02*
X190428857Y-116637333D01*
X190524095Y-116589714D01*
X190666953Y-116589714D01*
X190762191Y-116637333D01*
X190809810Y-116732571D01*
X190809810Y-117256381D01*
X191286000Y-116589714D02*
X191286000Y-117256381D01*
X191286000Y-116684952D02*
X191333619Y-116637333D01*
X191428857Y-116589714D01*
X191571715Y-116589714D01*
X191666953Y-116637333D01*
X191714572Y-116732571D01*
X191714572Y-117256381D01*
X191952667Y-117351619D02*
X192714572Y-117351619D01*
X193143143Y-116256381D02*
X193238382Y-116256381D01*
X193333620Y-116304000D01*
X193381239Y-116351619D01*
X193428858Y-116446857D01*
X193476477Y-116637333D01*
X193476477Y-116875429D01*
X193428858Y-117065905D01*
X193381239Y-117161143D01*
X193333620Y-117208762D01*
X193238382Y-117256381D01*
X193143143Y-117256381D01*
X193047905Y-117208762D01*
X193000286Y-117161143D01*
X192952667Y-117065905D01*
X192905048Y-116875429D01*
X192905048Y-116637333D01*
X192952667Y-116446857D01*
X193000286Y-116351619D01*
X193047905Y-116304000D01*
X193143143Y-116256381D01*
X194428858Y-117256381D02*
X193857429Y-117256381D01*
X194143143Y-117256381D02*
X194143143Y-116256381D01*
X194047905Y-116399238D01*
X193952667Y-116494476D01*
X193857429Y-116542095D01*
X194762191Y-117256381D02*
X195286001Y-116589714D01*
X194762191Y-116589714D02*
X195286001Y-117256381D01*
X195857429Y-116256381D02*
X195952668Y-116256381D01*
X196047906Y-116304000D01*
X196095525Y-116351619D01*
X196143144Y-116446857D01*
X196190763Y-116637333D01*
X196190763Y-116875429D01*
X196143144Y-117065905D01*
X196095525Y-117161143D01*
X196047906Y-117208762D01*
X195952668Y-117256381D01*
X195857429Y-117256381D01*
X195762191Y-117208762D01*
X195714572Y-117161143D01*
X195666953Y-117065905D01*
X195619334Y-116875429D01*
X195619334Y-116637333D01*
X195666953Y-116446857D01*
X195714572Y-116351619D01*
X195762191Y-116304000D01*
X195857429Y-116256381D01*
X197143144Y-117256381D02*
X196571715Y-117256381D01*
X196857429Y-117256381D02*
X196857429Y-116256381D01*
X196762191Y-116399238D01*
X196666953Y-116494476D01*
X196571715Y-116542095D01*
X196917143Y-123118095D02*
X196964762Y-123165714D01*
X197012381Y-123308571D01*
X197012381Y-123403809D01*
X196964762Y-123546667D01*
X196869524Y-123641905D01*
X196774286Y-123689524D01*
X196583810Y-123737143D01*
X196440952Y-123737143D01*
X196250476Y-123689524D01*
X196155238Y-123641905D01*
X196060000Y-123546667D01*
X196012381Y-123403809D01*
X196012381Y-123308571D01*
X196060000Y-123165714D01*
X196107619Y-123118095D01*
X197012381Y-122546667D02*
X196964762Y-122641905D01*
X196917143Y-122689524D01*
X196821905Y-122737143D01*
X196536190Y-122737143D01*
X196440952Y-122689524D01*
X196393333Y-122641905D01*
X196345714Y-122546667D01*
X196345714Y-122403809D01*
X196393333Y-122308571D01*
X196440952Y-122260952D01*
X196536190Y-122213333D01*
X196821905Y-122213333D01*
X196917143Y-122260952D01*
X196964762Y-122308571D01*
X197012381Y-122403809D01*
X197012381Y-122546667D01*
X196345714Y-121784762D02*
X197012381Y-121784762D01*
X196440952Y-121784762D02*
X196393333Y-121737143D01*
X196345714Y-121641905D01*
X196345714Y-121499047D01*
X196393333Y-121403809D01*
X196488571Y-121356190D01*
X197012381Y-121356190D01*
X196345714Y-120880000D02*
X197012381Y-120880000D01*
X196440952Y-120880000D02*
X196393333Y-120832381D01*
X196345714Y-120737143D01*
X196345714Y-120594285D01*
X196393333Y-120499047D01*
X196488571Y-120451428D01*
X197012381Y-120451428D01*
X197107619Y-120213333D02*
X197107619Y-119451428D01*
X196012381Y-119022857D02*
X196012381Y-118927618D01*
X196060000Y-118832380D01*
X196107619Y-118784761D01*
X196202857Y-118737142D01*
X196393333Y-118689523D01*
X196631429Y-118689523D01*
X196821905Y-118737142D01*
X196917143Y-118784761D01*
X196964762Y-118832380D01*
X197012381Y-118927618D01*
X197012381Y-119022857D01*
X196964762Y-119118095D01*
X196917143Y-119165714D01*
X196821905Y-119213333D01*
X196631429Y-119260952D01*
X196393333Y-119260952D01*
X196202857Y-119213333D01*
X196107619Y-119165714D01*
X196060000Y-119118095D01*
X196012381Y-119022857D01*
X197012381Y-117737142D02*
X197012381Y-118308571D01*
X197012381Y-118022857D02*
X196012381Y-118022857D01*
X196155238Y-118118095D01*
X196250476Y-118213333D01*
X196298095Y-118308571D01*
X197012381Y-117403809D02*
X196345714Y-116879999D01*
X196345714Y-117403809D02*
X197012381Y-116879999D01*
X196012381Y-116308571D02*
X196012381Y-116213332D01*
X196060000Y-116118094D01*
X196107619Y-116070475D01*
X196202857Y-116022856D01*
X196393333Y-115975237D01*
X196631429Y-115975237D01*
X196821905Y-116022856D01*
X196917143Y-116070475D01*
X196964762Y-116118094D01*
X197012381Y-116213332D01*
X197012381Y-116308571D01*
X196964762Y-116403809D01*
X196917143Y-116451428D01*
X196821905Y-116499047D01*
X196631429Y-116546666D01*
X196393333Y-116546666D01*
X196202857Y-116499047D01*
X196107619Y-116451428D01*
X196060000Y-116403809D01*
X196012381Y-116308571D01*
X197012381Y-115022856D02*
X197012381Y-115594285D01*
X197012381Y-115308571D02*
X196012381Y-115308571D01*
X196155238Y-115403809D01*
X196250476Y-115499047D01*
X196298095Y-115594285D01*
X199965143Y-123118095D02*
X200012762Y-123165714D01*
X200060381Y-123308571D01*
X200060381Y-123403809D01*
X200012762Y-123546667D01*
X199917524Y-123641905D01*
X199822286Y-123689524D01*
X199631810Y-123737143D01*
X199488952Y-123737143D01*
X199298476Y-123689524D01*
X199203238Y-123641905D01*
X199108000Y-123546667D01*
X199060381Y-123403809D01*
X199060381Y-123308571D01*
X199108000Y-123165714D01*
X199155619Y-123118095D01*
X200060381Y-122546667D02*
X200012762Y-122641905D01*
X199965143Y-122689524D01*
X199869905Y-122737143D01*
X199584190Y-122737143D01*
X199488952Y-122689524D01*
X199441333Y-122641905D01*
X199393714Y-122546667D01*
X199393714Y-122403809D01*
X199441333Y-122308571D01*
X199488952Y-122260952D01*
X199584190Y-122213333D01*
X199869905Y-122213333D01*
X199965143Y-122260952D01*
X200012762Y-122308571D01*
X200060381Y-122403809D01*
X200060381Y-122546667D01*
X199393714Y-121784762D02*
X200060381Y-121784762D01*
X199488952Y-121784762D02*
X199441333Y-121737143D01*
X199393714Y-121641905D01*
X199393714Y-121499047D01*
X199441333Y-121403809D01*
X199536571Y-121356190D01*
X200060381Y-121356190D01*
X199393714Y-120880000D02*
X200060381Y-120880000D01*
X199488952Y-120880000D02*
X199441333Y-120832381D01*
X199393714Y-120737143D01*
X199393714Y-120594285D01*
X199441333Y-120499047D01*
X199536571Y-120451428D01*
X200060381Y-120451428D01*
X200155619Y-120213333D02*
X200155619Y-119451428D01*
X199060381Y-119022857D02*
X199060381Y-118927618D01*
X199108000Y-118832380D01*
X199155619Y-118784761D01*
X199250857Y-118737142D01*
X199441333Y-118689523D01*
X199679429Y-118689523D01*
X199869905Y-118737142D01*
X199965143Y-118784761D01*
X200012762Y-118832380D01*
X200060381Y-118927618D01*
X200060381Y-119022857D01*
X200012762Y-119118095D01*
X199965143Y-119165714D01*
X199869905Y-119213333D01*
X199679429Y-119260952D01*
X199441333Y-119260952D01*
X199250857Y-119213333D01*
X199155619Y-119165714D01*
X199108000Y-119118095D01*
X199060381Y-119022857D01*
X200060381Y-117737142D02*
X200060381Y-118308571D01*
X200060381Y-118022857D02*
X199060381Y-118022857D01*
X199203238Y-118118095D01*
X199298476Y-118213333D01*
X199346095Y-118308571D01*
X200060381Y-117403809D02*
X199393714Y-116879999D01*
X199393714Y-117403809D02*
X200060381Y-116879999D01*
X199060381Y-116308571D02*
X199060381Y-116213332D01*
X199108000Y-116118094D01*
X199155619Y-116070475D01*
X199250857Y-116022856D01*
X199441333Y-115975237D01*
X199679429Y-115975237D01*
X199869905Y-116022856D01*
X199965143Y-116070475D01*
X200012762Y-116118094D01*
X200060381Y-116213332D01*
X200060381Y-116308571D01*
X200012762Y-116403809D01*
X199965143Y-116451428D01*
X199869905Y-116499047D01*
X199679429Y-116546666D01*
X199441333Y-116546666D01*
X199250857Y-116499047D01*
X199155619Y-116451428D01*
X199108000Y-116403809D01*
X199060381Y-116308571D01*
X200060381Y-115022856D02*
X200060381Y-115594285D01*
X200060381Y-115308571D02*
X199060381Y-115308571D01*
X199203238Y-115403809D01*
X199298476Y-115499047D01*
X199346095Y-115594285D01*
M02*
